<?xml version="1.0" encoding="UTF-8" standalone="no"?>
<!-- Created with Inkscape (http://www.inkscape.org/) -->

<svg
   xmlns:dc="http://purl.org/dc/elements/1.1/"
   xmlns:cc="http://creativecommons.org/ns#"
   xmlns:rdf="http://www.w3.org/1999/02/22-rdf-syntax-ns#"
   xmlns:svg="http://www.w3.org/2000/svg"
   xmlns="http://www.w3.org/2000/svg"
   xmlns:xlink="http://www.w3.org/1999/xlink"
   xmlns:sodipodi="http://sodipodi.sourceforge.net/DTD/sodipodi-0.dtd"
   xmlns:inkscape="http://www.inkscape.org/namespaces/inkscape"
   width="744.09448819"
   height="1052.3622047"
   id="svg2"
   version="1.1"
   inkscape:version="0.48.4 r9939"
   sodipodi:docname="Light Purse Product Mockup.svg"
   inkscape:export-filename="C:\Users\Eight\Documents\GitHub\Graphic_Design\Physical Projects\LightPurse.png"
   inkscape:export-xdpi="150.01762"
   inkscape:export-ydpi="150.01762">
  <defs
     id="defs4">
    <linearGradient
       inkscape:collect="always"
       id="linearGradient4376">
      <stop
         style="stop-color:#ffffff;stop-opacity:1;"
         offset="0"
         id="stop4378" />
      <stop
         style="stop-color:#ffffff;stop-opacity:0;"
         offset="1"
         id="stop4380" />
    </linearGradient>
    <filter
       inkscape:collect="always"
       id="filter4372"
       x="-0.092106287"
       width="1.1842126"
       y="-0.17212757"
       height="1.3442551">
      <feGaussianBlur
         inkscape:collect="always"
         stdDeviation="18.981366"
         id="feGaussianBlur4374" />
    </filter>
    <linearGradient
       inkscape:collect="always"
       xlink:href="#linearGradient4376"
       id="linearGradient4382"
       x1="773.92645"
       y1="1103.4471"
       x2="841.5755"
       y2="1284.3259"
       gradientUnits="userSpaceOnUse" />
    <linearGradient
       inkscape:collect="always"
       xlink:href="#linearGradient4376"
       id="linearGradient5146"
       gradientUnits="userSpaceOnUse"
       x1="773.92645"
       y1="1103.4471"
       x2="841.5755"
       y2="1284.3259" />
    <linearGradient
       inkscape:collect="always"
       xlink:href="#linearGradient4376"
       id="linearGradient5353"
       gradientUnits="userSpaceOnUse"
       x1="773.92645"
       y1="1103.4471"
       x2="841.5755"
       y2="1284.3259" />
  </defs>
  <sodipodi:namedview
     id="base"
     pagecolor="#ffffff"
     bordercolor="#666666"
     borderopacity="1.0"
     inkscape:pageopacity="0.0"
     inkscape:pageshadow="2"
     inkscape:zoom="0.49497475"
     inkscape:cx="152.14286"
     inkscape:cy="482.29946"
     inkscape:document-units="px"
     inkscape:current-layer="g5148"
     showgrid="false"
     inkscape:window-width="1536"
     inkscape:window-height="803"
     inkscape:window-x="-8"
     inkscape:window-y="-8"
     inkscape:window-maximized="1" />
  <metadata
     id="metadata7">
    <rdf:RDF>
      <cc:Work
         rdf:about="">
        <dc:format>image/svg+xml</dc:format>
        <dc:type
           rdf:resource="http://purl.org/dc/dcmitype/StillImage" />
        <dc:title></dc:title>
      </cc:Work>
    </rdf:RDF>
  </metadata>
  <g
     inkscape:label="Layer 1"
     inkscape:groupmode="layer"
     id="layer1">
    <g
       id="g4936"
       transform="matrix(0.31123668,0,0,0.31123668,171.70701,135.9603)">
      <rect
         ry="0.94559759"
         rx="2.0984931"
         y="-439.11441"
         x="-548.54254"
         height="3413.3125"
         width="2394.0381"
         id="rect3441"
         style="color:#000000;fill:#000000;fill-opacity:1;fill-rule:nonzero;stroke:none;stroke-width:0.5;marker:none;visibility:visible;display:inline;overflow:visible;enable-background:accumulate" />
      <g
         id="g5148"
         transform="translate(-119.81155,0)">
        <path
           sodipodi:type="arc"
           style="opacity:0.69230772;color:#000000;fill:url(#linearGradient5353);fill-opacity:1;fill-rule:nonzero;stroke:none;stroke-width:0.5;marker:none;visibility:visible;display:inline;overflow:visible;filter:url(#filter4372);enable-background:accumulate"
           id="path4370"
           sodipodi:cx="741.45197"
           sodipodi:cy="1022.0576"
           sodipodi:rx="284.86301"
           sodipodi:ry="264.65997"
           d="m 1026.315,1022.0576 c 0,146.1677 -127.53754,264.66 -284.86303,264.66 -79.71701,0 -155.78678,-31.0339 -209.73166,-85.5633 l 209.73166,-179.0967 z"
           sodipodi:start="0"
           sodipodi:end="2.3983149"
           transform="matrix(1.0609958,0.6558551,-0.46575556,1.7932127,475.50316,-1050.79)" />
        <g
           id="g3"
           transform="matrix(2.626832,0,0,2.626832,527.80367,417.37922)">
	
	
	
	
	
	
	
	
	
	
	
	
	
	
	
	
	
	
	
	
	
	
	
	
	
	
	
	
	
	
	
	
	
	
	
	
	
	
	
	
	
	
	
	
	
	
	
	
	
	
	
	
	
	
	
	
	
	
	
	
	
	
	
	
	
	
	
	
	
	
	
	
	
	
	
	
	
	
	
	
	
	
	
	
	
	
	
	
	
	
	
	
	
	
	
	
	
	
	
	
	
	
	
	
	
	
	
	
	
	
	
	
	
	
	
	
	
	
	
	
	
	
	
	
	
	
	
	
	
	
	
	
	
	
	
	
	
	
	
	
	
	
	
	
	
	
	
	
	
	
	
	
	
	
	
	
	
	
	
	
	
	
	
	
	
	
	
	
	
	
	
	
	
	
	
	
	
	
	
	<g
   id="g3346">
  <path
     d="m 172.08,248.405 c 0.504,0.936 0.12,2.76 0.238,4.08 -16.625,-0.781 -31.393,-1.711 -47.76,-1.199 16.203,0.725 32.547,0.563 49.2,1.92 -2.364,24.557 -15.356,39.422 -36.479,46.319 -0.653,-0.221 0.336,-0.75 0,-1.438 -1.238,0.44 -3.256,0.104 -3.84,1.199 -0.047,1.241 2.688,-0.762 2.641,0.479 -12.398,1.767 -19.184,10.995 -31.92,13.2 0.869,-1.131 3.352,-0.648 3.84,-2.16 -1.615,-0.586 -2.016,0.807 -4.08,0.721 -0.335,-14.265 -0.242,-39.238 -0.24,-60.24 6.609,0.241 12.592,0.148 20.641,0.239 -5.067,-1.301 -12.068,-0.444 -20.399,-0.72 -0.387,-0.887 -0.387,-3.193 0,-4.08 24.924,0.055 43.46,0.231 68.158,1.68 z m -0.24,11.04 c 1.428,-1.003 0.5,-2.875 1.2,-4.56 -0.308,-0.014 -0.333,-0.309 -0.722,-0.24 -0.334,1.426 -0.452,3.066 -0.478,4.8 z m -66,-2.88 c -0.188,0.053 -0.279,0.201 -0.24,0.48 0.053,0.187 0.201,0.279 0.48,0.24 20.048,0.006 41.125,0.651 60.238,0.959 -20.115,-1.856 -40.834,-0.874 -60.478,-1.679 z m 64.08,10.32 c 1.359,-0.883 2.037,-3.719 1.68,-5.521 -1.062,1.34 -1.153,3.649 -1.68,5.521 z m -2.4,6.96 c 0.705,-1.455 1.767,-2.556 1.92,-4.56 -0.053,-0.188 -0.201,-0.279 -0.479,-0.24 -0.389,1.457 -2.449,3.516 -1.441,4.8 z m -0.72,0.72 c -1.651,0.989 -2.271,3.012 -3.12,4.801 2.133,-1.196 2.636,-2.976 3.12,-4.801 z m -7.68,10.801 c 1.437,-0.988 3.313,-2.732 3.358,-4.32 -0.238,0 -0.479,0 -0.72,0 -0.356,1.831 -2.891,2.667 -2.638,4.32 z m -5.761,4.801 c 1.633,-0.236 3.697,-2.043 4.561,-3.842 -1.867,0.931 -3.304,2.297 -4.561,3.842 z m -5.041,3.598 c 1.828,-0.362 3.924,-1.638 4.08,-2.88 -1.571,0.746 -3.186,1.451 -4.08,2.88 z m -5.757,2.88 c 2.188,-0.211 3.477,-1.324 5.039,-2.16 0.014,-0.412 -0.185,-0.615 -0.479,-0.72 -1.209,1.273 -3.932,1.03 -4.56,2.88 z m -4.801,1.92 c 1.938,-0.143 3.159,-1.001 4.561,-1.68 -1.557,-0.802 -3.864,0.457 -4.561,1.68 z m -10.8,2.88 c 2.054,-0.057 3.908,-0.979 6,-1.92 -0.188,-0.053 -0.278,-0.2 -0.239,-0.479 -2.354,0.663 -4.358,0.555 -5.761,2.399 z m -5.76,2.88 c 1.834,-0.646 3.768,-1.191 4.56,-2.88 -1.947,0.397 -4.35,1.536 -4.56,2.88 z m -5.28,3.121 c 1.955,0.242 3.824,-1.593 4.801,-3.121 -2.132,0.509 -3.789,1.491 -4.801,3.121 z m -6.72,3.359 c 2.047,-0.674 4.386,-1.055 5.521,-2.641 -0.052,-0.27 -0.268,-0.373 -0.479,-0.48 -1.417,1.307 -4.258,1.188 -5.042,3.121 z"
     id="path345"
     style="fill:#9b59b6;fill-opacity:1"
     inkscape:connector-curvature="0" />
  <path
     d="m 182.398,264.725 c 0.291,1.887 -0.395,2.921 0,4.561 0.406,1.684 1.955,2.103 2.16,3.601 0.334,2.419 -2.052,4.876 -1.92,7.438 0.063,1.229 1.17,2.354 1.2,3.602 0.03,1.225 -0.803,1.99 -0.96,3.119 -0.158,1.145 -0.156,3.259 0,4.32 0.145,0.977 0.914,2.082 0.96,3.119 0.086,1.939 -1.466,3.953 -0.72,6 -0.178,1.253 -1.475,0.236 -2.16,1.2 -0.479,17.204 2.279,36.089 -4.8,49.921 -2.353,4.596 -5.832,8.188 -9.36,11.52 -3.684,3.479 -7.895,5.936 -12.72,7.92 -9.642,3.967 -21.252,3.768 -33.841,4.32 -3.787,0.166 -7.704,0.221 -11.279,0.24 -3.261,0.018 -8.184,-0.926 -11.76,0 -1.549,0.398 -2.022,1.809 -3.36,1.92 -2.248,0.186 -2.532,-1.486 -4.32,-1.92 -3.546,-0.861 -8.5,0 -12.48,0 -4.343,0 -8.686,0.02 -12.24,0 -7.347,-0.039 -15.092,0.416 -21.84,-0.48 -18.398,-2.445 -31.068,-15.248 -35.76,-31.199 -1.733,-5.893 -1.24,-11.813 -0.96,-18.961 0.307,-7.824 -0.504,-14.119 0.24,-24 -0.643,-1.118 -1.928,0.347 -2.4,-0.719 0.83,-2.763 -1.726,-4.994 -1.68,-7.44 0.023,-1.253 1.395,-2.343 1.44,-3.841 0.049,-1.627 -1.377,-2.733 -1.44,-4.319 -0.05,-1.271 1.06,-2.299 1.2,-3.84 0.392,-4.315 -5.587,-9.284 0,-11.521 -0.033,-2.426 0.021,-4.791 0.24,-5.761 -1.299,-1.571 -2.681,-2.411 -2.88,-4.56 -0.256,-2.764 2.302,-5.863 2.16,-8.4 -0.096,-1.703 -1.676,-2.893 -1.68,-4.561 -0.005,-1.928 0.931,-2.854 1.92,-4.08 0.303,-31.273 2.539,-58.251 5.28,-89.039 -1.852,1.541 -4.318,13.133 -8.64,9.12 3.242,-6.358 7.231,-11.969 8.16,-20.64 0.096,-1.296 -1.865,-0.535 -1.92,-1.68 1.781,-3.937 -1.462,-11.058 0.96,-15.84 -1.698,-2.942 -0.869,-7.722 1.68,-9.12 1.6,-0.829 1.687,1.015 2.64,0.48 0.75,-0.421 0.88,-5.259 1.2,-8.16 1.738,-15.785 4.078,-30.453 6.48,-45.12 0.966,-5.9 1.592,-11.865 2.88,-17.52 2.153,-9.457 7.963,-18.722 13.92,-23.76 3.296,-2.788 7.212,-4.79 10.8,-6.96 3.017,-1.825 6.103,-3.855 10.08,-5.76 10.762,-5.155 24.786,-8.065 38.16,-7.92 9.544,0.104 17.48,1.655 25.439,4.08 15.328,4.67 30.979,13.624 39.119,25.68 8.967,13.277 9.702,31.964 12.24,50.64 0.922,6.785 1.723,13.35 2.641,20.88 0.265,2.172 -0.125,4.704 1.199,6.72 -0.307,5.882 0.545,11.807 0.961,17.52 2.92,40.101 6.225,79.427 6,117.601 0.58,1.272 1.549,2.162 1.68,3.6 0.134,1.473 -0.805,2.238 -0.961,3.602 -0.119,1.049 0.373,2.828 0.722,3.84 0.657,1.908 2.557,3.045 1.92,6.72 -0.775,1.698 -2.111,2.844 -3.6,3.837 z M 16.56,89.525 c 1.226,-10.194 3.062,-20.11 4.8,-30.24 1.708,-9.958 3.417,-19.68 7.68,-27.12 4.322,-7.542 10.319,-12.418 18,-17.04 15.029,-9.043 32.775,-14.743 54,-12.96 13.396,1.125 25.828,5.299 37.2,11.76 3.693,2.099 7.738,4.273 10.8,6.72 4.172,3.334 7.159,7.622 9.358,11.28 4.953,8.231 5.984,16.674 7.92,28.56 1.363,8.367 2.607,16.818 3.602,25.44 1.004,8.716 2.525,17.653 2.88,26.64 0.021,0.532 0.175,0.125 0.24,0.72 2.198,19.788 3.278,41.274 4.56,63.12 0.656,11.18 1.238,22.355 1.68,33.6 0.443,11.273 0.18,22.693 0.962,33.841 0.184,2.63 0.176,5.899 0.72,8.399 0.637,2.928 3.223,6.465 1.439,9.84 3.578,-2.834 0.304,-6.332 -0.479,-9.359 -1.235,-4.773 -0.927,-10.533 -1.2,-16.32 -0.27,-5.695 -0.348,-11.012 -0.479,-16.078 -0.215,-8.229 -0.514,-20.199 -0.961,-28.562 -1.064,-19.904 -1.993,-41.138 -4.079,-61.68 -1.876,-18.459 -3.329,-36.869 -6.24,-57.36 -1.317,-9.281 -2.569,-20.222 -4.8,-29.04 C 159.405,24.882 145.579,15.164 129.123,8.406 120.435,4.839 111.448,2.06 101.522,1.206 81.114,-0.55 61.588,5.457 46.8,14.166 c -6.977,4.108 -13.467,9.749 -17.76,16.32 -4.716,7.218 -6.47,16.201 -8.16,26.64 -2.737,16.899 -5.328,35.217 -7.44,53.76 -0.267,2.343 -1.599,4.521 -0.96,6.96 2.828,-9.413 3.005,-19.386 4.08,-28.321 z m 161.28,161.52 c -0.115,-1.574 -1.287,-2.754 -1.199,-4.32 0.066,-1.212 0.996,-2.148 1.199,-3.359 0.278,-1.656 -0.306,-3.037 0,-4.801 -0.084,-0.964 1.885,0.125 1.439,-1.199 -2.481,-59.315 -3.782,-111.833 -12.239,-166.32 -1.328,-8.553 -2.293,-17.674 -4.08,-25.92 -1.819,-8.393 -6.202,-14.214 -10.08,-19.92 C 136.419,13.3 118.215,1.806 89.76,3.606 85.982,3.845 82.638,3.895 80.16,4.566 77.431,5.117 74.743,5.5 72,6.246 c -2.819,0.767 -5.616,1.856 -8.4,2.88 -16.41,6.03 -31.001,15.036 -36.479,31.92 -1.852,5.705 -2.759,12.156 -3.84,18.72 -2.191,13.311 -4.284,25.861 -5.76,38.4 -0.801,6.803 -0.691,13.824 -2.88,19.44 -0.549,1.408 -2.491,3.292 -1.92,5.04 0.306,0.937 2.05,1.422 2.88,2.16 4.164,3.701 -0.487,9.198 -0.96,14.88 -0.456,5.476 0.16,10.397 -0.96,15.36 -0.004,0.716 -1.778,-0.339 -1.44,0.72 -2.478,27.61 -4.715,53.902 -4.8,81.84 1.977,1.119 0.644,3.079 0.96,5.279 0.193,1.345 0.98,2.222 0.96,3.121 -0.022,1.022 -0.631,1.984 -0.72,2.879 -0.49,4.972 5.048,11.979 -0.72,14.641 0.352,3.303 -0.998,5.984 0.96,7.682 -0.112,-3.811 2.307,-7.813 2.4,-12.24 0.033,-1.551 -0.601,-3.073 -0.72,-4.561 -0.356,-4.464 -0.175,-8.808 0.24,-12.721 24.384,-1.26 47.97,-1.264 72.24,-1.439 0.624,-0.449 0.536,-1.519 1.68,-1.92 1.306,-0.459 3.537,0.24 5.28,0.239 1.682,-0.001 4.216,-0.147 4.8,-0.239 3.944,-0.615 6.213,0.713 8.641,0 0.465,0.416 -0.205,1.967 0.721,1.92 27.844,0.035 46.335,0.801 71.04,2.16 1.213,4.859 -0.57,12.414 0.96,15.84 0.302,-2.784 1.866,-4.593 1.677,-7.202 z M 9.12,116.166 c 0.037,-10e-4 0.48,0 0.48,0 -0.01,1.908 0.994,4.614 1.2,7.68 0.448,6.676 -1.651,10.619 -2.64,14.64 4.146,-5.04 3.984,-15.041 1.92,-22.8 -0.547,-0.068 -0.902,0.057 -0.96,0.48 z m -1.2,5.759 c 0.311,-1.292 0.022,-4.027 0,-4.56 -0.819,1.015 -0.799,3.345 0,4.56 z m 0.24,13.2 c -0.924,-4.992 0.545,-10.119 1.2,-13.44 -2.16,3.279 -3.239,9.834 -1.2,13.44 z m 4.56,1.2 c -1.092,5.431 -0.157,11.096 -1.2,16.56 1.297,-0.728 1.102,-2.377 1.2,-3.36 0.433,-4.316 -0.093,-8.694 0.96,-13.2 1.056,-4.514 4.601,-9.86 0,-11.52 4.045,3.033 -0.057,7.031 -0.96,11.52 z m -3.36,-6.48 c 0.962,-0.924 0.613,-2.219 0.48,-3.12 -0.315,0.885 -0.216,2.184 -0.48,3.12 z m 2.64,6.48 c 0.279,-1.641 0.982,-2.858 1.2,-4.56 -0.24,0 -0.48,0 -0.72,0 0.105,1.582 -1.678,3.44 -0.48,4.56 z m -2.16,16.08 c -2.852,26.271 -4.826,55.961 -5.28,84 -0.076,4.676 0.303,9.452 -0.24,13.682 -0.518,4.033 -3.817,8.067 -0.72,10.799 0.19,-1.266 -0.803,-1.643 -0.72,-3.359 0.083,-1.738 1.589,-3.717 1.92,-5.279 1.697,-8.019 0.498,-18.781 0.96,-28.08 1.151,-23.178 2.018,-46.247 4.56,-68.399 0.738,-6.429 1.857,-12.996 0.24,-18.24 0.309,5.072 -0.169,9.804 -0.72,14.876 z m -8.16,8.64 c 1.434,-0.677 1.895,-2.474 2.64,-3.84 2.592,-4.751 5.333,-10.098 5.52,-16.8 -0.051,-0.269 -0.266,-0.374 -0.48,-0.48 -0.657,8.943 -4.67,14.53 -7.68,21.12 z m 4.56,90.959 c 0.514,3.23 2.784,5.957 1.92,8.881 1.98,-2.795 -0.892,-6.871 -1.44,-11.28 -0.496,-3.981 0.596,-8.621 -0.24,-10.56 -0.037,4.054 -0.788,9.519 -0.24,12.959 z m 172.8,-1.92 c -0.308,4.375 -3.942,9.586 -0.96,11.761 0.303,-0.929 -0.541,-1.841 -0.48,-2.88 0.074,-1.266 1.094,-2.238 1.44,-3.36 1.335,-4.308 0.446,-10.019 0.239,-16.08 -0.053,-0.187 -0.2,-0.278 -0.479,-0.239 -0.284,3.464 0.542,6.483 0.24,10.798 z m -90.72,-9.359 c 3.407,0.654 7.417,0.455 11.28,0 -3.053,-0.359 -8.76,-0.308 -11.28,0 z m 83.52,2.16 c -12.258,-0.326 -23.383,-0.803 -34.561,-1.2 -11.319,-0.403 -21.301,-0.965 -33.359,0 24.991,-0.41 45.821,1.543 67.92,1.2 z m -158.16,0 c 25.068,-0.781 45.581,-0.428 69.84,-1.68 -27.468,0.346 -47.247,-0.056 -69.84,1.68 z m 72.72,-0.961 c 1.03,1.232 4.699,0.709 7.68,0.721 2.205,0.008 4.947,0.596 6,-0.721 -5.387,-0.047 -8.024,-0.129 -13.68,0 z m -19.2,0.721 c -7.825,0.104 -18.585,0.211 -28.56,0.48 -7.345,0.197 -16.65,0.276 -22.56,0.479 -0.786,0.027 -2.569,-0.146 -2.88,0.96 19.874,-0.267 47.622,-0.81 67.2,-0.96 0.937,-0.007 2.518,0.146 3.12,-0.721 -4.235,-0.461 -10.331,-0.318 -16.32,-0.238 z m 89.04,0.96 c -16.943,-0.756 -34.672,-1.021 -51.602,-0.96 -0.051,-0.29 -0.267,-0.146 -0.479,0 -0.188,0.053 -0.279,0.201 -0.24,0.48 25.29,0.264 46.105,0.926 68.16,1.68 -4.573,-1.211 -10.241,-0.95 -15.839,-1.2 z m -70.8,0.479 c -0.217,-0.418 -0.537,-0.924 -0.96,-0.479 0,0.24 0,0.479 0,0.722 4.125,0.68 11.269,0.881 15.36,0 0,-0.24 0,-0.48 0,-0.722 -2.835,-0.026 -10.51,-0.981 -14.4,0.479 z m 16.32,0.481 c 0,-0.318 0,-0.641 0,-0.96 -0.24,0 -0.479,0 -0.72,0 -0.067,0.627 -0.081,1.201 0.72,0.96 z m -98.4,3.12 c -0.271,-1.089 0.573,-3.293 -0.48,-3.601 -0.39,1.036 -0.722,3.047 0.48,3.601 z m 34.56,-2.88 c -0.85,0.025 0.51,0.794 -0.24,0.72 -0.462,-0.099 -0.189,-0.93 -0.96,-0.72 -6.755,0.342 -12.938,0.424 -19.68,0.72 -2.021,0.089 -6.023,-1.127 -5.76,1.92 0.955,0.78 0.486,-1.468 1.68,-1.198 0.106,0.453 -0.327,1.445 0.48,1.198 25.013,-0.696 47.254,-0.843 70.08,-1.438 0,-0.641 0,-1.28 0,-1.92 -11.642,0.156 -28.956,0.496 -45.6,0.718 z m 134.641,1.92 c -0.756,0.035 -0.103,-1.34 -1.201,-0.96 -24.606,-1.39 -43.729,-1.692 -67.198,-1.681 -0.302,0.1 -0.491,0.311 -0.479,0.721 0,0.4 0,0.8 0,1.199 22.711,-0.022 44.34,0.451 64.799,1.201 1.73,0.063 6.136,1.625 5.041,-1.44 -1.016,-0.372 0.049,1.333 -0.962,0.96 z m 10.08,1.199 c 0.436,-0.799 0.422,-2.893 -0.479,-3.119 -0.244,0.988 -0.253,2.205 0.479,3.119 z M 84.48,245.525 c 0.074,0.726 -0.267,1.867 0.48,1.92 0.003,-0.636 -0.133,-1.413 0.48,-1.438 0.781,0.099 0.619,1.142 0.96,1.68 5.568,-0.148 10.297,0.346 15.36,-0.24 0,-0.479 0,-0.96 0,-1.439 -3.088,-0.666 -12.136,-0.49 -17.28,-0.483 z m 19.44,1.2 c -0.387,0.887 -0.387,3.193 0,4.08 8.331,0.275 15.332,-0.581 20.4,0.72 -8.049,-0.091 -14.031,0.002 -20.641,-0.239 -0.003,21.002 -0.096,45.977 0.239,60.24 2.063,0.086 2.465,-1.307 4.08,-0.721 -0.489,1.512 -2.972,1.029 -3.84,2.16 12.737,-2.205 19.521,-11.436 31.92,-13.2 0.047,-1.241 -2.688,0.762 -2.642,-0.479 0.586,-1.096 2.603,-0.759 3.842,-1.199 0.335,0.688 -0.654,1.219 0,1.438 21.123,-6.897 34.113,-21.765 36.479,-46.319 -16.652,-1.355 -32.996,-1.195 -49.199,-1.92 16.366,-0.512 31.133,0.418 47.76,1.199 -0.119,-1.32 0.265,-3.145 -0.239,-4.08 -24.697,-1.449 -43.233,-1.625 -68.159,-1.68 z m -64.32,0.96 c -8.882,0.241 -16.859,0.244 -26.64,0.479 0,1.199 0,2.399 0,3.601 11.949,-0.044 24.74,-0.72 37.44,-0.72 4.979,0 9.831,0.429 12,-0.721 5.188,1.223 13.868,0.098 21.12,0.479 0,-1.28 0,-2.56 0,-3.841 -16.956,-0.008 -30.23,0.351 -43.92,0.723 z m -27.84,4.08 c 0.338,-0.667 0.579,-3.291 -0.24,-3.601 -0.296,1.426 -0.452,3.174 0.24,3.601 z m 74.64,-3.12 c -0.698,0.184 0.218,1.979 -0.48,2.16 -1.515,0.314 -0.372,-2.028 -1.44,-2.16 0.127,1.509 -0.204,3.223 0,4.08 0.783,0.063 0.509,-0.932 1.2,-0.96 0.304,0.343 0.613,1.028 1.2,1.2 2.895,0.85 12.491,-1.092 14.88,-0.24 -0.279,-1.239 0.586,-3.625 -0.479,-4.08 -0.782,0.738 0.424,3.465 -0.721,3.84 -1.226,-1.156 -0.188,-2.316 -0.721,-3.84 -5.028,-0.184 -9.794,-0.187 -13.439,0 z m 87.12,3.84 c 0.506,-0.936 0.121,-2.76 0.24,-4.08 -0.24,0 -0.48,0 -0.72,0 0.162,1.357 -0.411,3.451 0.48,4.08 z M 22.8,283.206 c 5.696,7.004 15.99,14.701 25.44,17.041 6.386,1.58 12.45,2.817 17.28,6 5.644,3.717 11.306,7.012 18,7.438 -1.045,-1.193 -4.084,-0.395 -4.8,-1.92 1.434,-0.342 3.863,0.262 4.8,1.201 0.021,-22.15 -0.066,-41.064 0,-61.68 -16.016,-0.176 -30.936,0.719 -52.08,0.719 -6.476,0 -13.572,0.416 -19.92,0.24 0.626,13.496 4.833,23.034 11.28,30.961 z m 63.36,-29.521 c -0.297,1.241 0.548,3.132 -0.24,3.36 -1.368,-0.072 -0.86,-2.021 -0.96,-3.36 -1.004,1.866 -0.458,4.165 -0.48,6.239 -0.19,17.371 -0.02,33.832 0,52.801 1.403,-0.781 -0.333,-2.758 1.2,-2.881 0.93,0.352 0.11,2.451 0.72,3.121 1.173,0.188 3.251,-0.533 3.36,0.719 -1.134,0.842 -3.155,-0.631 -3.6,0.721 1.482,0.551 3.213,-0.369 5.52,-0.238 -0.073,-0.563 -0.512,-1.035 0.24,-1.201 1.603,0.344 3.77,-0.719 4.08,0.48 0.042,0.682 -1.57,-0.291 -1.2,0.721 1.539,-0.422 3.918,1.02 5.04,0 0.02,-1.219 -2.621,0.221 -2.64,-0.961 0.417,-0.623 1.594,-0.486 2.64,-0.48 0.23,-0.729 -0.514,-2.434 0.48,-2.398 1.908,0.701 -0.608,4.449 1.438,4.801 0.263,-22.347 -0.438,-37.801 -0.239,-56.4 0.018,-1.655 1.092,-3.898 -0.479,-5.28 -0.233,1.366 0.519,3.72 -0.479,4.32 -1.285,-0.778 -0.289,-3.214 -0.721,-4.32 -5.67,0.141 -9.477,-0.463 -13.68,0.236 z m -80.88,2.64 c 0.32,0 0.64,0 0.96,0 0.05,-0.688 -0.061,-1.219 -0.48,-1.438 -0.192,0.446 -0.401,0.877 -0.48,1.438 z m 174.96,0.72 c 0.556,0.076 0.921,-0.039 1.199,-0.24 -0.322,-0.559 0.033,-1.793 -0.961,-1.68 0.17,0.89 -0.41,1.03 -0.238,1.92 z m -174.96,6 c -0.175,-0.545 0.433,-1.873 -0.48,-1.682 -0.038,0.761 -0.008,1.451 0.48,1.682 z m 172.56,6.48 c 0.938,-2.343 0.658,-6.815 -1.439,-8.159 0.66,2.861 0.372,5.256 1.439,8.159 z m -166.56,-6.48 c -2.845,18.416 -4.508,35.445 -3.6,54.479 0.053,-19.074 1.31,-37.246 4.32,-54.96 -0.053,-0.187 -0.201,-0.278 -0.48,-0.239 0.01,0.332 -0.113,0.527 -0.24,0.72 z M 174,264.004 c 2.059,11.789 3.139,24.305 3.84,36.24 0.237,4.045 0.012,8.021 0.96,11.76 -0.171,-16.488 -1.507,-34.012 -4.56,-48.959 -0.086,0.327 -0.328,0.455 -0.24,0.959 z M 4.56,264.965 c 0.211,0.828 1.19,-0.286 1.2,0.959 -0.4,0 -0.8,0 -1.2,0 0.302,1.773 -0.335,4.382 0.72,4.801 -0.408,-1.186 0.167,-2.032 0,-3.6 0.49,-0.42 0.471,0.178 0.96,-0.24 0,-0.961 0,-1.92 0,-2.881 -0.627,-0.224 -1.823,-0.229 -1.68,0.961 z m 175.2,5.76 c 0.23,-1.529 -0.16,-3.682 0.961,-4.32 -0.146,-0.414 -1.14,0.02 -1.201,-0.479 0.559,-0.531 0.644,-0.213 1.201,-0.48 -0.005,-0.636 0.133,-1.412 -0.479,-1.439 -0.148,1.262 -0.478,0.252 -0.962,0 -0.102,2.027 -0.667,4.66 0.48,6.718 z M 8.64,312.485 c 1.026,-2.113 0.963,-4.104 1.92,-6.479 -1.218,0.129 -0.651,-0.205 -0.96,-0.721 0.483,-10.75 1.138,-23.67 3.12,-33.359 0.736,4.154 -0.593,8.434 -0.96,12.72 -0.578,6.752 -1.135,13.538 -0.96,20.16 2.545,-8.347 5.069,-16.257 8.4,-24.24 -2.972,-4.147 -4.786,-9.454 -6.72,-14.64 -2.709,14.467 -3.969,32.565 -3.84,46.559 z m 163.678,-43.68 c 2.021,9.347 3.127,20.215 3.121,29.04 -1.181,-0.761 -0.633,-2.521 -0.721,-3.601 -0.627,-7.783 -1.365,-15.941 -2.88,-23.521 -1.293,3.026 -2.663,5.978 -4.319,8.64 0.728,0.873 0.688,2.512 1.681,3.12 0.323,-1.521 -1.144,-3.276 0,-4.08 0.737,4.695 0.61,8.788 3.118,11.761 -0.139,-4.724 -2.043,-10.859 -1.438,-15.359 1.868,4.795 0.771,11.697 1.681,17.04 0.73,4.302 3.477,8.528 4.319,12.479 -0.616,-12.755 -1.178,-25.479 -3.84,-36.721 -0.281,0.36 -0.299,0.983 -0.722,1.202 z m 4.802,2.16 c 0.214,10.141 2.243,18.884 2.159,28.08 1.365,-1.271 0.798,-3.719 0.721,-5.521 -0.326,-7.6 -1.613,-14.865 -1.92,-22.8 -0.014,-0.146 -0.036,-0.284 -0.24,-0.24 -0.063,0.339 -0.527,0.274 -0.72,0.481 z M 4.08,277.206 c 1.387,4.482 0.871,12.27 0.96,17.279 0.027,1.521 -0.967,3.451 0.48,4.32 0.273,-4.957 0.407,-10.577 0.24,-15.36 -0.073,-2.086 0.027,-4.546 -0.48,-6.239 -0.485,-1.619 -1.673,-2.683 -1.92,-4.08 -0.191,-1.084 0.701,-1.771 -0.24,-2.399 -2.182,2.291 0.184,3.97 0.96,6.479 z m 3.12,5.759 c 0.912,-2.674 1.674,-7.284 0.72,-10.32 -0.615,3.117 -0.043,6.081 -0.72,10.32 z m 173.279,-2.881 c 0.795,-1.418 1.443,-4.299 1.682,-6 -0.828,1.438 -2.872,4.138 -1.682,6 z M 180,280.805 c 0.775,2.064 -0.313,4.51 1.2,5.76 -0.283,-2.246 0.017,-3.803 -0.479,-6 -0.041,0.28 -0.38,0.262 -0.721,0.24 z m -13.439,5.76 c -1.068,-0.691 -0.977,-2.544 -2.16,-3.12 6.82,15.979 14.416,36.765 11.039,56.642 -0.268,1.572 -0.646,4.148 -2.16,5.039 5.572,-20.947 -1.368,-43.553 -9.84,-60.479 -6.644,8.028 -15.166,13.81 -26.158,16.8 -2.154,0.586 -4.547,0.704 -6.721,1.439 -8.862,3.003 -16.281,11.146 -26.641,12.721 1.782,0.395 2.786,1.361 3.12,3.359 0.521,3.117 -0.345,7.162 -0.24,12.48 0.123,6.287 1.067,12.164 -2.399,15.119 1.097,0.023 2.479,-0.24 2.641,0.721 -0.041,1.84 0.136,4.49 -0.24,5.279 -1.193,0.256 -2.025,0.1 -2.88,0.24 0.486,6.855 -1.569,13.904 -4.8,18.959 1.497,-0.008 2.995,-0.566 3.84,0.48 -1.055,1.797 -4.036,-0.469 -4.561,0.961 11.412,0.949 24.959,-0.426 34.561,-0.24 20.313,0.393 37.979,-10.123 44.641,-30 0.604,-4.492 1.693,-9.275 1.439,-14.881 -0.809,-17.789 -7.338,-32.642 -12.721,-46.319 -0.239,0 -0.479,0 -0.721,0 -0.227,1.923 2.225,3.403 0.961,4.8 z M 19.68,282.725 c -5.914,13.046 -9.619,28.301 -13.2,43.68 -1.02,14.691 4.12,26.943 12.48,35.041 7.006,6.785 16.437,11.111 28.08,11.52 0.092,-0.811 -1.062,-0.377 -0.72,-1.439 1.815,0.258 3.945,-0.779 4.8,0.721 -0.35,1.229 -3.69,-0.227 -3.12,0.721 15.834,0.881 25.35,0.518 40.56,0.721 -2.887,-6.355 -5.764,-11.24 -5.28,-20.881 -0.363,-0.598 -2.067,0.146 -2.4,-0.48 0.116,-1.275 -0.69,-5.248 0.96,-5.76 -1.902,-2.01 -1.433,-4.785 -1.44,-8.641 -0.013,-7.131 -0.334,-17.311 0.48,-22.318 -8.698,-2.098 -14.178,-6.092 -20.64,-10.561 -3.101,-0.539 -7.158,-2.646 -12,-2.642 -10.567,-3.823 -20.418,-10.25 -27.12,-18.72 -0.74,0.939 -0.494,2.865 -1.92,3.12 -0.937,-1.632 1.893,-3.712 0.72,-4.8 -0.013,0.305 -0.308,0.329 -0.24,0.718 z m -12.48,5.76 c -0.225,-1.404 0.858,-2.343 -0.24,-3.119 0.113,1.453 -0.42,2.136 0.24,3.119 z m 174.239,8.4 c -0.146,-2.566 0.34,-7.002 -0.721,-9.36 0.178,3.71 -0.308,6.747 0.721,9.36 z m -99.599,19.68 c -0.808,7.992 -0.771,20.75 0,27.84 0.372,0.332 1.44,0.482 1.68,0.24 -0.923,-7.199 -0.355,-17.76 -0.48,-24.24 0.049,-0.77 -1.049,-0.393 -0.96,-1.199 2.452,-0.908 5.361,-1.359 8.64,-1.439 1.043,-2.844 4.332,-2.59 5.28,0.24 2.77,0.176 5.65,0.443 7.92,1.92 -0.813,7.432 -0.053,14.416 -0.24,24.479 1.875,-1.268 1.2,-4.277 1.2,-6.479 0,-8.576 0.616,-13.219 -0.239,-20.881 -5.871,-2.989 -17.281,-2.604 -22.801,-0.481 z m 10.56,0.24 c -1.563,1.182 -0.625,5.906 0.96,6.721 0.363,-2.271 1.947,-5.58 -0.48,-6.721 -0.16,0 -0.32,0 -0.48,0 z m -6.48,3.119 c -0.149,0.652 0.305,1.904 -0.24,2.16 -1.112,0.152 -0.607,-1.311 -0.72,-2.16 -1.083,3.273 -0.638,7.23 -0.48,11.041 0.204,4.922 -0.791,10.285 0.48,15.119 0.233,-1.127 -0.671,-3.391 0.96,-3.119 -0.298,1.447 0.335,1.559 0,3.359 4.548,0.389 8.264,-0.02 13.92,0.24 0.766,-0.834 -0.52,-3.721 0.96,-3.842 0.491,0.789 0.13,2.432 0.24,3.602 1.386,-0.932 0.513,-2.629 0.479,-3.84 -0.15,-5.605 0.021,-10.656 0,-17.762 -0.006,-1.611 0.607,-3.604 -0.479,-4.559 -0.89,1.207 0.828,3.014 -0.72,3.119 -0.943,-0.338 -0.284,-2.275 -0.48,-3.359 -1.178,-0.146 -2.525,-0.184 -4.08,-0.48 -0.228,1.223 -0.228,1.896 0,3.121 -1.344,3.51 -7.661,1.438 -4.8,-2.641 -0.869,-1.35 -3.435,-0.087 -5.04,10e-4 z m 14.4,30.961 c 1.439,0.115 -1.862,-0.064 -1.682,-0.961 0.654,-0.291 3.075,-0.604 3.36,0.24 0.118,0.758 -1.19,0.09 -0.96,0.961 0.72,0 1.439,0 2.16,0 0.098,-0.578 -0.438,-0.523 -0.24,-1.201 0.898,-0.332 1.342,0.273 2.16,-0.24 0.281,-1.322 -1.896,-0.182 -1.92,-1.199 0.304,-0.93 1.449,0.229 1.68,-0.959 -5.795,-0.053 -10.18,-0.047 -16.32,0 -0.18,0.738 0.827,0.293 0.48,1.199 -1.341,-0.012 -2.418,0.645 -3.12,-0.479 0.085,-0.635 1.223,-0.219 1.44,-0.721 -1.087,-0.092 -1.789,-0.316 -2.64,0.238 0.302,0.1 0.491,0.311 0.48,0.721 -0.654,0.707 -3.075,-0.355 -3.36,0.721 0.512,0.688 2.816,-0.416 2.64,0.961 0.101,0.68 -2.089,0.285 -1.44,0.719 1.819,0.434 2.505,-0.295 4.32,0.24 0.12,-1.16 -2.232,0.152 -2.16,-0.959 0.806,-0.984 2.445,-0.824 3.6,0 -0.065,0.494 -1.062,0.057 -0.96,0.719 0.613,-0.105 2.421,0.512 2.88,-0.238 -0.627,0.066 -1.032,-0.09 -0.96,-0.721 1.206,-0.283 2.949,-0.514 3.6,0.24 0.073,0.553 -0.693,0.266 -0.72,0.719 0.689,0.566 1.274,-0.152 1.919,0.24 0.45,-0.457 -0.143,-0.434 0,-1.199 0.799,-0.25 2.848,-0.504 3.602,0 0.211,0.771 -0.791,0.328 -0.721,0.959 1.053,0.436 1.942,0.074 2.882,0 z m -15.12,7.44 c -1.005,0.287 -0.428,-1.01 -0.96,-1.199 0.805,8.486 3.943,15.883 8.88,19.439 4.202,-4.113 7.421,-10.807 8.399,-18.24 0.244,-1.85 0.907,-4.289 -0.238,-5.76 -0.774,0.461 0.255,1.479 -0.961,1.682 -0.461,-0.34 -0.434,-1.166 -0.721,-1.682 -3.82,0.029 -9.556,-0.021 -14.16,0 -0.58,1.842 0.69,4.541 -0.239,5.76 z m -0.72,-2.879 c -0.384,-0.813 1.019,-1.023 0.24,-1.439 -0.051,0.289 -0.266,0.146 -0.48,0 0.029,0.398 -0.131,2.171 0.24,1.439 z"
     id="path339"
     inkscape:connector-curvature="0" />
  <path
     d="m 10.08,115.685 c 2.064,7.76 2.226,17.761 -1.92,22.8 0.989,-4.021 3.087,-7.964 2.64,-14.64 -0.206,-3.065 -1.209,-5.772 -1.2,-7.68 0,0 -0.443,-0.001 -0.48,0 0.058,-0.422 0.413,-0.547 0.96,-0.48 z"
     id="path5-1"
     inkscape:connector-curvature="0"
     style="fill:#a99a6f" />
  <path
     d="m 9.36,121.685 c -0.655,3.321 -2.124,8.448 -1.2,13.44 -2.039,-3.606 -0.96,-10.161 1.2,-13.44 z"
     id="path7"
     inkscape:connector-curvature="0"
     style="fill:#a99a6f" />
  <path
     d="m 13.68,124.805 c 4.601,1.66 1.056,7.006 0,11.52 -1.053,4.506 -0.527,8.884 -0.96,13.2 -0.098,0.982 0.098,2.632 -1.2,3.36 1.042,-5.464 0.107,-11.129 1.2,-16.56 0.903,-4.489 5.005,-8.487 0.96,-11.52 z"
     id="path9-7"
     style="fill:#9b59b6;fill-opacity:1"
     inkscape:connector-curvature="0" />
  <path
     d="m 9.84,126.725 c 0.133,0.901 0.482,2.196 -0.48,3.12 0.264,-0.936 0.165,-2.235 0.48,-3.12 z"
     id="path11-4"
     style="fill:#9b59b6;fill-opacity:1"
     inkscape:connector-curvature="0" />
  <path
     d="m 12.48,131.765 c 0.24,0 0.48,0 0.72,0 -0.218,1.702 -0.921,2.919 -1.2,4.56 -1.198,-1.12 0.585,-2.978 0.48,-4.56 z"
     id="path13-0"
     style="fill:#9b59b6;fill-opacity:1"
     inkscape:connector-curvature="0" />
  <path
     d="m 10.56,137.525 c 1.617,5.244 0.498,11.811 -0.24,18.24 -2.542,22.153 -3.409,45.223 -4.56,68.399 -0.462,9.299 0.737,20.063 -0.96,28.08 -0.331,1.563 -1.836,3.541 -1.92,5.279 -0.083,1.719 0.91,2.094 0.72,3.359 -3.097,-2.73 0.202,-6.766 0.72,-10.799 0.543,-4.229 0.165,-9.006 0.24,-13.682 0.454,-28.039 2.428,-57.729 5.28,-84 0.551,-5.068 1.029,-9.8 0.72,-14.876 z"
     id="path15"
     style="fill:#9b59b6;fill-opacity:1"
     inkscape:connector-curvature="0" />
  <path
     d="m 9.36,139.925 c 0.214,0.106 0.429,0.211 0.48,0.48 -0.187,6.702 -2.928,12.049 -5.52,16.8 -0.745,1.367 -1.207,3.163 -2.64,3.84 3.01,-6.59 7.023,-12.177 7.68,-21.12 z"
     id="path17-9"
     style="fill:#9b59b6;fill-opacity:1"
     inkscape:connector-curvature="0" />
  <path
     d="m 6.48,239.045 c 0.835,1.938 -0.256,6.576 0.24,10.56 0.549,4.409 3.421,8.485 1.44,11.28 0.864,-2.924 -1.406,-5.649 -1.92,-8.881 -0.548,-3.44 0.203,-8.905 0.24,-12.959 z"
     id="path19-4"
     style="fill:#9b59b6;fill-opacity:1"
     inkscape:connector-curvature="0" />
  <path
     d="m 178.8,239.286 c 0.279,-0.039 0.427,0.053 0.479,0.239 0.207,6.062 1.096,11.772 -0.239,16.08 -0.349,1.122 -1.366,2.097 -1.44,3.36 -0.061,1.039 0.783,1.951 0.48,2.88 -2.982,-2.175 0.652,-7.386 0.96,-11.761 0.302,-4.315 -0.524,-7.334 -0.24,-10.798 z"
     id="path21"
     style="fill:#9b59b6;fill-opacity:1"
     inkscape:connector-curvature="0" />
  <path
     d="m 99.6,240.725 c -3.863,0.455 -7.873,0.654 -11.28,0 2.52,-0.308 8.227,-0.359 11.28,0 z"
     id="path23-8"
     style="fill:#9b59b6;fill-opacity:1"
     inkscape:connector-curvature="0" />
  <path
     d="m 83.52,241.206 c -24.26,1.254 -44.772,0.898 -69.84,1.68 22.593,-1.737 42.372,-1.335 69.84,-1.68 z"
     id="path25-8"
     style="fill:#9b59b6;fill-opacity:1"
     inkscape:connector-curvature="0" />
  <path
     d="m 100.08,241.924 c -1.053,1.314 -3.795,0.729 -6,0.721 -2.981,-0.012 -6.65,0.512 -7.68,-0.721 5.656,-0.129 8.293,-0.047 13.68,0 z"
     id="path27"
     style="fill:#9b59b6;fill-opacity:1"
     inkscape:connector-curvature="0" />
  <path
     d="m 83.52,242.885 c -0.602,0.865 -2.184,0.713 -3.12,0.72 -19.578,0.151 -47.327,0.694 -67.2,0.96 0.312,-1.105 2.095,-0.934 2.88,-0.96 5.91,-0.202 15.214,-0.28 22.56,-0.479 9.975,-0.27 20.735,-0.375 28.56,-0.479 5.989,-0.082 12.085,-0.225 16.32,0.238 z"
     id="path29-2"
     style="fill:#9b59b6;fill-opacity:1"
     inkscape:connector-curvature="0" />
  <path
     d="m 172.08,244.805 c -22.055,-0.754 -42.87,-1.416 -68.16,-1.68 -0.039,-0.279 0.053,-0.428 0.24,-0.48 0.213,-0.146 0.429,-0.29 0.479,0 16.93,-0.063 34.657,0.204 51.602,0.96 5.597,0.25 11.265,-0.011 15.839,1.2 z"
     id="path31"
     style="fill:#9b59b6;fill-opacity:1"
     inkscape:connector-curvature="0" />
  <path
     d="m 99.84,243.605 c 0,0.24 0,0.479 0,0.722 -4.091,0.881 -11.234,0.68 -15.36,0 0,-0.24 0,-0.48 0,-0.722 0.423,-0.444 0.743,0.062 0.96,0.479 3.89,-1.46 11.565,-0.505 14.4,-0.479 z"
     id="path33-4"
     style="fill:#9b59b6;fill-opacity:1"
     inkscape:connector-curvature="0" />
  <path
     d="m 101.04,243.605 c 0.239,0 0.479,0 0.72,0 0,0.319 0,0.642 0,0.96 -0.801,0.241 -0.787,-0.333 -0.72,-0.96 z"
     id="path35"
     style="fill:#9b59b6;fill-opacity:1"
     inkscape:connector-curvature="0" />
  <path
     d="m 2.88,244.084 c 1.053,0.308 0.208,2.512 0.48,3.601 -1.202,-0.554 -0.87,-2.565 -0.48,-3.601 z"
     id="path37-5"
     inkscape:connector-curvature="0"
     style="fill:#a99a6f" />
  <path
     d="m 173.52,245.765 c 1.096,3.065 -3.31,1.504 -5.039,1.44 -20.461,-0.75 -42.088,-1.225 -64.801,-1.201 0,-0.399 0,-0.799 0,-1.199 -0.011,-0.41 0.18,-0.621 0.48,-0.721 23.469,-0.014 42.592,0.291 67.199,1.681 1.099,-0.38 0.443,0.995 1.199,0.96 1.014,0.373 -0.051,-1.332 0.962,-0.96 z"
     id="path39"
     style="fill:#9b59b6;fill-opacity:1"
     inkscape:connector-curvature="0" />
  <path
     d="m 182.16,244.805 c 0.902,0.227 0.915,2.32 0.479,3.119 -0.73,-0.914 -0.721,-2.131 -0.479,-3.119 z"
     id="path41-5"
     inkscape:connector-curvature="0"
     style="fill:#a99a6f" />
  <path
     d="m 101.76,246.004 c 0,0.479 0,0.961 0,1.439 -5.062,0.585 -9.792,0.092 -15.36,0.24 -0.341,-0.538 -0.179,-1.581 -0.96,-1.68 -0.613,0.025 -0.477,0.804 -0.48,1.438 -0.747,-0.053 -0.406,-1.194 -0.48,-1.92 5.144,-0.003 14.192,-0.179 17.28,0.483 z"
     id="path43-1"
     style="fill:#9b59b6;fill-opacity:1"
     inkscape:connector-curvature="0" />
  <path
     d="m 11.52,248.167 c 0.818,0.309 0.578,2.933 0.24,3.6 -0.692,-0.429 -0.536,-2.177 -0.24,-3.6 z"
     id="path45"
     style="fill:#9b59b6;fill-opacity:1"
     inkscape:connector-curvature="0" />
  <path
     d="m 99.84,248.645 c 0.533,1.521 -0.505,2.684 0.721,3.84 1.145,-0.375 -0.063,-3.102 0.721,-3.84 1.064,0.455 0.199,2.841 0.479,4.08 -2.389,-0.852 -11.985,1.09 -14.88,0.24 -0.587,-0.172 -0.896,-0.857 -1.2,-1.2 -0.691,0.028 -0.417,1.022 -1.2,0.96 -0.204,-0.857 0.127,-2.571 0,-4.08 1.068,0.132 -0.075,2.475 1.44,2.16 0.698,-0.184 -0.218,-1.979 0.48,-2.16 3.644,-0.187 8.41,-0.184 13.439,0 z"
     id="path47-7"
     style="fill:#9b59b6;fill-opacity:1"
     inkscape:connector-curvature="0" />
  <path
     d="m 173.04,248.405 c 0.239,0 0.479,0 0.72,0 -0.119,1.32 0.266,3.146 -0.24,4.08 -0.891,-0.629 -0.318,-2.723 -0.48,-4.08 z"
     id="path49"
     style="fill:#9b59b6;fill-opacity:1"
     inkscape:connector-curvature="0" />
  <path
     d="m 172.318,254.645 c 0.389,-0.066 0.414,0.227 0.722,0.24 -0.7,1.685 0.228,3.557 -1.2,4.56 0.026,-1.734 0.144,-3.374 0.478,-4.8 z"
     id="path51-1"
     inkscape:connector-curvature="0" />
  <path
     d="m 5.76,254.885 c 0.419,0.221 0.53,0.75 0.48,1.439 -0.32,0 -0.64,0 -0.96,0 0.079,-0.56 0.288,-0.991 0.48,-1.439 z"
     id="path53"
     inkscape:connector-curvature="0"
     style="fill:#a99a6f" />
  <path
     d="m 180.479,255.125 c 0.994,-0.113 0.639,1.121 0.961,1.68 -0.278,0.201 -0.645,0.316 -1.199,0.24 -0.173,-0.89 0.407,-1.03 0.238,-1.92 z"
     id="path55"
     inkscape:connector-curvature="0"
     style="fill:#a99a6f" />
  <path
     d="m 166.318,258.247 c -19.113,-0.309 -40.19,-0.955 -60.238,-0.961 -0.279,0.039 -0.428,-0.054 -0.48,-0.24 -0.039,-0.278 0.053,-0.428 0.24,-0.479 19.644,0.803 40.363,-0.179 60.478,1.68 z"
     id="path57"
     inkscape:connector-curvature="0" />
  <path
     d="m 80.64,257.045 c -8.97,0.652 -19.577,0.4 -30.48,0.72 -11.581,0.338 -22.888,0.259 -32.4,0.239 20.064,-0.843 41.818,-1.191 62.88,-0.959 z"
     id="path59"
     inkscape:connector-curvature="0" />
  <path
     d="m 85.2,258.247 c 0.24,0 0.48,0 0.72,0 0.393,1.483 0.393,4.515 0,6 -1.859,-0.75 -0.69,-4.593 -0.72,-6 z"
     id="path61"
     inkscape:connector-curvature="0" />
  <path
     d="m 97.68,258.725 c -0.568,1.199 -2.078,0.482 -3.119,0.48 -2.413,-0.006 -4.733,0.344 -6.96,0 -0.279,0.039 -0.427,-0.055 -0.48,-0.24 3.713,-0.89 7.117,-0.304 10.559,-0.24 z"
     id="path63"
     inkscape:connector-curvature="0" />
  <path
     d="m 100.32,258.725 c 1.394,0.688 0.647,4.787 0.479,6.24 -1.783,-0.955 -0.837,-4.957 -0.479,-6.24 z"
     id="path65"
     inkscape:connector-curvature="0" />
  <path
     d="m 13.44,261.125 c 1.178,1.072 1.675,3.627 1.68,5.52 -1.37,-0.896 -1.809,-3.913 -1.68,-5.52 z"
     id="path67"
     inkscape:connector-curvature="0" />
  <path
     d="m 4.8,261.366 c 0.913,-0.193 0.305,1.135 0.48,1.68 -0.488,-0.232 -0.518,-0.922 -0.48,-1.68 z"
     id="path69"
     inkscape:connector-curvature="0"
     style="fill:#a99a6f" />
  <path
     d="m 171.6,261.366 c 0.357,1.801 -0.32,4.637 -1.68,5.52 0.527,-1.873 0.618,-4.182 1.68,-5.52 z"
     id="path71"
     inkscape:connector-curvature="0" />
  <path
     d="m 176.398,261.366 c 2.1,1.344 2.377,5.816 1.44,8.159 -1.065,-2.903 -0.777,-5.298 -1.44,-8.159 z"
     id="path73"
     style="fill:#9b59b6;fill-opacity:1"
     inkscape:connector-curvature="0" />
  <path
     d="m 11.52,262.325 c 0.279,-0.037 0.427,0.055 0.48,0.24 -3.01,17.714 -4.268,35.887 -4.32,54.961 -0.908,-19.035 0.755,-36.063 3.6,-54.48 0.127,-0.194 0.25,-0.389 0.24,-0.721 z"
     id="path75"
     style="fill:#9b59b6;fill-opacity:1"
     inkscape:connector-curvature="0" />
  <path
     d="m 174.24,263.045 c 3.053,14.947 4.389,32.471 4.56,48.959 -0.948,-3.738 -0.723,-7.715 -0.96,-11.76 -0.701,-11.937 -1.781,-24.451 -3.84,-36.24 -0.088,-0.504 0.154,-0.632 0.24,-0.959 z"
     id="path77"
     style="fill:#9b59b6;fill-opacity:1"
     inkscape:connector-curvature="0" />
  <path
     d="m 6.24,264.004 c 0,0.961 0,1.92 0,2.881 -0.489,0.419 -0.47,-0.18 -0.96,0.24 0.167,1.566 -0.408,2.414 0,3.6 -1.055,-0.419 -0.417,-3.025 -0.72,-4.801 0.4,0 0.8,0 1.2,0 -0.009,-1.245 -0.988,-0.131 -1.2,-0.959 -0.143,-1.19 1.053,-1.185 1.68,-0.961 z"
     id="path79"
     inkscape:connector-curvature="0"
     style="fill:#a99a6f" />
  <path
     d="m 179.279,264.004 c 0.484,0.252 0.812,1.262 0.961,0 0.611,0.027 0.476,0.805 0.479,1.439 -0.558,0.27 -0.643,-0.051 -1.199,0.48 0.062,0.498 1.055,0.064 1.199,0.479 -1.119,0.641 -0.729,2.791 -0.96,4.32 -1.146,-2.055 -0.581,-4.688 -0.48,-6.718 z"
     id="path81"
     inkscape:connector-curvature="0"
     style="fill:#a99a6f" />
  <path
     d="m 85.2,265.445 c 0.388,-0.067 0.414,0.228 0.72,0.24 0.163,1.255 0.906,5.028 -0.48,5.521 -0.885,-0.995 -0.523,-4.386 -0.24,-5.761 z"
     id="path83"
     inkscape:connector-curvature="0" />
  <path
     d="m 12.48,265.924 c 1.934,5.187 3.748,10.492 6.72,14.641 -3.331,7.982 -5.855,15.895 -8.4,24.24 -0.175,-6.622 0.382,-13.408 0.96,-20.16 0.367,-4.286 1.696,-8.564 0.96,-12.721 -1.982,9.689 -2.637,22.609 -3.12,33.361 0.309,0.516 -0.258,0.848 0.96,0.719 -0.957,2.375 -0.895,4.367 -1.92,6.48 -0.129,-13.993 1.131,-32.091 3.84,-46.56 z m 0,30.721 c 1.283,-6.66 1.89,-16.232 2.4,-23.279 -1.453,7.12 -2.249,16.299 -2.4,23.279 z m 3.6,-9.12 c 0.391,-2.851 0.405,-4.989 0.96,-7.92 -0.307,-0.013 -0.333,-0.308 -0.72,-0.239 0.082,1.916 -1.359,6.068 -0.24,8.159 z"
     id="path85"
     style="fill:#9b59b6;fill-opacity:1"
     inkscape:connector-curvature="0" />
  <path
     d="m 100.08,266.405 c 0.318,0 0.641,0 0.96,0 -0.158,1.764 0.317,4.157 -0.24,5.521 -1.765,-1.027 -0.441,-3.301 -0.72,-5.521 z"
     id="path87"
     inkscape:connector-curvature="0" />
  <path
     d="m 173.04,267.605 c 2.662,11.242 3.224,23.966 3.84,36.72 -0.844,-3.951 -3.589,-8.178 -4.319,-12.479 -0.908,-5.342 0.188,-12.245 -1.681,-17.04 -0.604,4.5 1.3,10.637 1.438,15.36 -2.508,-2.974 -2.381,-7.065 -3.118,-11.762 -1.144,0.805 0.323,2.561 0,4.08 -0.991,-0.609 -0.953,-2.247 -1.681,-3.119 1.656,-2.662 3.026,-5.613 4.319,-8.641 1.515,7.578 2.253,15.736 2.88,23.521 0.088,1.08 -0.46,2.84 0.721,3.6 0.006,-8.825 -1.101,-19.693 -3.121,-29.04 0.423,-0.219 0.441,-0.842 0.722,-1.2 z"
     id="path89"
     style="fill:#9b59b6;fill-opacity:1"
     inkscape:connector-curvature="0" />
  <path
     d="m 15.6,268.325 c 1.299,1.127 2.313,3.734 2.4,5.28 -1.518,-0.905 -2.559,-3.487 -2.4,-5.28 z"
     id="path91"
     inkscape:connector-curvature="0" />
  <path
     d="m 168.96,269.045 c 0.278,-0.039 0.427,0.053 0.479,0.24 -0.154,2.004 -1.215,3.104 -1.92,4.56 -1.007,-1.284 1.053,-3.343 1.441,-4.8 z"
     id="path93"
     inkscape:connector-curvature="0" />
  <path
     d="m 3.12,270.725 c 0.941,0.629 0.049,1.314 0.24,2.4 0.247,1.396 1.435,2.459 1.92,4.08 0.507,1.692 0.407,4.152 0.48,6.238 0.167,4.783 0.034,10.403 -0.24,15.36 -1.447,-0.869 -0.453,-2.8 -0.48,-4.32 -0.089,-5.011 0.427,-12.797 -0.96,-17.278 -0.776,-2.508 -3.142,-4.187 -0.96,-6.48 z"
     id="path95"
     style="fill:#9b59b6;fill-opacity:1"
     inkscape:connector-curvature="0" />
  <path
     d="m 7.92,272.645 c 0.954,3.036 0.191,7.646 -0.72,10.32 0.677,-4.239 0.105,-7.203 0.72,-10.32 z"
     id="path97"
     style="fill:#9b59b6;fill-opacity:1"
     inkscape:connector-curvature="0" />
  <path
     d="m 14.88,273.366 c -0.51,7.047 -1.117,16.619 -2.4,23.279 0.151,-6.98 0.947,-16.159 2.4,-23.279 z"
     id="path99"
     inkscape:connector-curvature="0" />
  <path
     d="m 85.44,273.845 c 1.159,0.889 0.618,3.086 0.48,5.04 -1.571,-0.086 -1.153,-4.26 -0.48,-5.04 z"
     id="path101"
     inkscape:connector-curvature="0" />
  <path
     d="m 100.32,273.845 c 0.387,-0.067 0.412,0.227 0.72,0.239 -0.258,1.799 0.492,3.967 -0.24,4.801 -1.237,-0.799 -1.111,-4.433 -0.48,-5.04 z"
     id="path103"
     inkscape:connector-curvature="0" />
  <path
     d="m 182.16,274.084 c -0.237,1.701 -0.887,4.582 -1.682,6 -1.189,-1.862 0.855,-4.562 1.682,-6 z"
     id="path105"
     style="fill:#9b59b6;fill-opacity:1"
     inkscape:connector-curvature="0" />
  <path
     d="m 18.96,275.765 c 1.696,0.862 2.391,2.729 3.12,4.56 -1.856,-0.703 -2.48,-2.639 -3.12,-4.56 z"
     id="path107"
     inkscape:connector-curvature="0" />
  <path
     d="m 16.32,279.366 c 0.388,-0.068 0.413,0.227 0.72,0.239 -0.555,2.931 -0.569,5.069 -0.96,7.92 -1.119,-2.091 0.322,-6.243 0.24,-8.159 z"
     id="path109"
     inkscape:connector-curvature="0" />
  <path
     d="m 100.08,280.565 c 0.24,0 0.479,0 0.72,0 0.394,1.408 0.394,4.352 0,5.76 -1.655,-0.375 -0.917,-4.319 -0.72,-5.76 z"
     id="path111"
     inkscape:connector-curvature="0" />
  <path
     d="m 180.721,280.565 c 0.496,2.197 0.196,3.754 0.479,6 -1.515,-1.25 -0.425,-3.695 -1.2,-5.76 0.341,0.022 0.68,0.04 0.721,-0.24 z"
     id="path113"
     style="fill:#9b59b6;fill-opacity:1"
     inkscape:connector-curvature="0" />
  <path
     d="m 85.2,280.805 c 0.24,0 0.48,0 0.72,0 0.218,1.324 0.642,4.107 -0.24,5.04 -1.244,-0.479 -0.737,-3.843 -0.48,-5.04 z"
     id="path115"
     inkscape:connector-curvature="0" />
  <path
     d="m 161.76,281.045 c 0.24,0 0.48,0 0.721,0 -0.047,1.586 -1.924,3.33 -3.359,4.318 -0.255,-1.65 2.28,-2.486 2.638,-4.318 z"
     id="path117"
     inkscape:connector-curvature="0" />
  <path
     d="m 22.8,281.286 c 1.571,1.229 2.949,2.651 3.84,4.561 -1.919,-0.744 -3.768,-2.764 -3.84,-4.561 z"
     id="path119"
     inkscape:connector-curvature="0" />
  <path
     d="m 6.96,285.366 c 1.098,0.776 0.015,1.715 0.24,3.119 -0.66,-0.983 -0.127,-1.666 -0.24,-3.119 z"
     id="path121"
     style="fill:#9b59b6;fill-opacity:1"
     inkscape:connector-curvature="0" />
  <path
     d="m 157.92,286.325 c -0.861,1.799 -2.928,3.604 -4.561,3.842 1.257,-1.545 2.694,-2.911 4.561,-3.842 z"
     id="path123"
     inkscape:connector-curvature="0" />
  <path
     d="m 27.36,286.565 c 1.618,1.021 3.629,1.65 4.08,3.84 -1.649,-0.854 -3.867,-2.341 -4.08,-3.84 z"
     id="path125"
     inkscape:connector-curvature="0" />
  <path
     d="m 85.2,287.525 c 0.193,0.127 0.39,0.251 0.72,0.24 0.377,1.546 0.416,4.7 0,6.239 -1.678,0.34 -0.911,-4.95 -0.72,-6.479 z"
     id="path127"
     inkscape:connector-curvature="0" />
  <path
     d="m 100.32,287.525 c 1.275,0.603 0.717,4.19 0.479,5.521 -1.574,-0.296 -1.125,-4.529 -0.479,-5.521 z"
     id="path129"
     inkscape:connector-curvature="0" />
  <path
     d="m 163.439,287.525 c 0.314,0.085 0.377,0.423 0.721,0.479 6.273,14.648 12.824,33.4 8.88,52.801 -1.117,-1.588 -0.028,-4.225 0.239,-6.721 1.738,-16.203 -4.358,-33.664 -9.84,-45.84 0,-0.24 0,-0.479 0,-0.719 z"
     id="path131"
     inkscape:connector-curvature="0" />
  <path
     d="m 167.279,287.525 c 0.24,0 0.479,0 0.721,0 0.225,1.935 1.443,2.875 1.439,5.04 -1.697,-0.568 -2.28,-3.441 -2.16,-5.04 z"
     id="path133"
     inkscape:connector-curvature="0" />
  <path
     d="m 180.721,287.525 c 1.061,2.358 0.572,6.794 0.719,9.36 -1.03,-2.613 -0.544,-5.65 -0.719,-9.36 z"
     id="path135"
     style="fill:#9b59b6;fill-opacity:1"
     inkscape:connector-curvature="0" />
  <path
     d="m 21.6,290.405 c 0.233,0.008 0.186,0.295 0.24,0.48 -5.226,13.855 -10.057,26.063 -11.04,42.479 -0.438,-15.809 5.738,-30.051 10.8,-42.959 z"
     id="path137"
     inkscape:connector-curvature="0" />
  <path
     d="m 32.64,290.645 c 1.468,1.092 3.686,1.436 4.32,3.359 -1.718,-0.707 -4.341,-1.705 -4.32,-3.359 z"
     id="path139"
     inkscape:connector-curvature="0" />
  <path
     d="m 152.398,290.885 c -0.156,1.242 -2.252,2.518 -4.08,2.88 0.894,-1.429 2.509,-2.134 4.08,-2.88 z"
     id="path141"
     inkscape:connector-curvature="0" />
  <path
     d="m 163.2,293.286 c 5.396,11.002 9.35,25.195 8.64,40.801 -1.244,-1.533 -0.482,-3.816 -0.48,-5.521 0.027,-12.736 -4.117,-24.316 -8.158,-34.561 -0.002,-0.24 -0.002,-0.48 -0.002,-0.719 z"
     id="path143"
     inkscape:connector-curvature="0" />
  <path
     d="m 37.44,293.765 c 1.847,0.793 4.08,1.2 5.04,2.88 -1.825,0.113 -4.358,-1.059 -5.04,-2.88 z"
     id="path145"
     inkscape:connector-curvature="0" />
  <path
     d="m 147.12,293.765 c 0.295,0.104 0.491,0.308 0.479,0.72 -1.563,0.836 -2.853,1.949 -5.041,2.16 0.631,-1.85 3.354,-1.607 4.562,-2.88 z"
     id="path147"
     inkscape:connector-curvature="0" />
  <path
     d="m 169.68,294.004 c 1.452,0.771 2.699,4.094 1.92,5.521 -0.996,-1.483 -1.632,-3.328 -1.92,-5.521 z"
     id="path149"
     inkscape:connector-curvature="0" />
  <path
     d="m 15.84,294.965 c 0.388,-0.067 0.413,0.227 0.72,0.24 -0.39,2.17 -0.665,4.455 -2.16,5.52 -0.306,-1.846 0.879,-4.008 1.44,-5.76 z"
     id="path151"
     inkscape:connector-curvature="0" />
  <path
     d="m 85.44,295.206 c 1.277,0.602 0.717,4.19 0.48,5.521 -1.575,-0.297 -1.127,-4.529 -0.48,-5.521 z"
     id="path153"
     inkscape:connector-curvature="0" />
  <path
     d="m 100.08,295.206 c 0.24,0 0.479,0 0.72,0 0.425,1.516 0.351,4.474 0,6 -1.745,-0.441 -0.782,-4.795 -0.72,-6 z"
     id="path155"
     inkscape:connector-curvature="0" />
  <path
     d="m 142.32,296.885 c -1.401,0.679 -2.623,1.537 -4.562,1.68 0.699,-1.223 3.006,-2.482 4.562,-1.68 z"
     id="path157"
     inkscape:connector-curvature="0" />
  <path
     d="m 43.92,296.885 c 1.985,0.814 4.871,0.729 5.76,2.64 -2.305,-0.495 -5.093,-0.507 -5.76,-2.64 z"
     id="path159"
     inkscape:connector-curvature="0" />
  <path
     d="m 50.88,299.045 c 1.997,0.471 4.549,0.311 4.8,1.92 -1.682,-0.556 -4.352,-0.129 -4.8,-1.92 z"
     id="path161"
     inkscape:connector-curvature="0" />
  <path
     d="m 132.721,299.045 c -0.039,0.277 0.053,0.427 0.239,0.479 -2.092,0.939 -3.946,1.863 -6,1.92 1.403,-1.843 3.407,-1.735 5.761,-2.399 z"
     id="path163"
     inkscape:connector-curvature="0" />
  <path
     d="m 20.16,299.286 c 0.279,-0.039 0.427,0.053 0.479,0.239 -3.28,8.479 -5.821,17.698 -7.92,27.36 0.804,-9.312 4.078,-18.91 7.441,-27.599 z"
     id="path165"
     inkscape:connector-curvature="0" />
  <path
     d="m 56.64,300.247 c 1.252,1.004 3.476,0.566 4.32,2.398 -1.16,0.018 -2.755,-0.917 -4.56,-1.439 -0.102,-0.502 0.164,-0.636 0.24,-0.959 z"
     id="path167"
     inkscape:connector-curvature="0" />
  <path
     d="m 172.08,300.725 c 1.222,0.622 2.238,3.727 1.439,4.8 -0.894,-1.062 -1.669,-3.4 -1.439,-4.8 z"
     id="path169"
     inkscape:connector-curvature="0" />
  <path
     d="m 125.76,301.445 c -0.792,1.688 -2.726,2.234 -4.56,2.88 0.21,-1.344 2.613,-2.483 4.56,-2.88 z"
     id="path171"
     inkscape:connector-curvature="0" />
  <path
     d="m 85.2,302.405 c 0.388,-0.066 0.414,0.229 0.72,0.24 0.367,1.156 0.422,3.893 0,5.039 -1.664,-0.215 -0.906,-4.001 -0.72,-5.279 z"
     id="path173"
     inkscape:connector-curvature="0" />
  <path
     d="m 62.16,303.125 c 1.625,-0.012 3.564,1.485 4.8,2.64 -1.356,0.763 -4.012,-1.242 -4.8,-2.64 z"
     id="path175"
     inkscape:connector-curvature="0" />
  <path
     d="m 100.08,302.885 c 0.24,0 0.479,0 0.72,0 0.074,1.047 0.763,4.58 -0.239,6.24 -1.373,-0.738 -0.657,-4.744 -0.481,-6.24 z"
     id="path177"
     inkscape:connector-curvature="0" />
  <path
     d="m 146.398,304.084 c 0.279,-0.039 0.429,0.054 0.48,0.24 -0.227,8.266 -0.425,20.715 -0.24,31.68 0.019,1.049 0.598,2.635 -0.479,3.121 0.232,-10.211 -0.01,-21.547 0,-34.32 0.128,-0.193 0.251,-0.388 0.239,-0.721 z"
     id="path179"
     inkscape:connector-curvature="0" />
  <path
     d="m 120.721,304.325 c -0.977,1.528 -2.846,3.363 -4.801,3.121 1.012,-1.63 2.669,-2.612 4.801,-3.121 z"
     id="path181"
     inkscape:connector-curvature="0" />
  <path
     d="m 174,306.725 c 1.021,1.203 2.27,4.523 1.439,6 -1.093,-1.252 -1.794,-4.09 -1.439,-6 z"
     id="path183"
     inkscape:connector-curvature="0" />
  <path
     d="m 68.64,306.965 c 1.388,0.451 2.786,0.895 3.36,2.16 -0.923,-0.017 -3.188,-0.609 -3.36,-2.16 z"
     id="path185"
     inkscape:connector-curvature="0" />
  <path
     d="m 33.84,307.446 c 0.279,-0.039 0.427,0.053 0.48,0.238 0.142,10.35 -0.434,21.238 0,29.041 -1.125,-8.629 -0.167,-18.527 -0.48,-28.561 0,-0.24 0,-0.48 0,-0.718 z"
     id="path187"
     inkscape:connector-curvature="0" />
  <path
     d="m 114.24,307.684 c 0.213,0.107 0.429,0.213 0.479,0.48 -1.134,1.586 -3.473,1.967 -5.52,2.641 0.785,-1.933 3.626,-1.814 5.041,-3.121 z"
     id="path189"
     inkscape:connector-curvature="0" />
  <path
     d="m 73.44,309.366 c 1.434,0.488 4.14,0.977 4.32,1.92 -0.724,0.517 -3.999,-0.45 -4.32,-1.92 z"
     id="path191"
     inkscape:connector-curvature="0" />
  <path
     d="m 34.8,311.526 c 0.279,-0.039 0.427,0.053 0.48,0.238 0.063,10.162 -0.221,16.457 -0.24,23.281 -0.56,-7.361 -0.08,-15.759 -0.24,-23.519 z"
     id="path193"
     inkscape:connector-curvature="0" />
  <path
     d="m 62.64,311.764 c 0.279,-0.039 0.427,0.055 0.48,0.24 -0.354,6.439 -0.32,15.457 -0.24,23.041 0.085,8.129 0.281,12.033 0.24,20.639 -0.975,-3.826 -0.476,-7.725 -0.48,-11.52 -0.014,-12.464 -0.463,-20.796 0,-32.4 z"
     id="path195"
     inkscape:connector-curvature="0" />
  <path
     d="m 114.479,312.247 c 0.262,0.059 0.164,0.477 0.48,0.479 -0.623,14.104 -0.329,23.205 -0.24,35.039 -0.876,-11.966 -0.638,-26.188 -0.24,-35.518 z"
     id="path197"
     inkscape:connector-curvature="0" />
  <path
     d="m 175.68,313.924 c 1.543,0.98 1.74,4.211 1.2,5.521 -1.128,-0.984 -1.502,-3.896 -1.2,-5.521 z"
     id="path199"
     inkscape:connector-curvature="0" />
  <path
     d="m 147.359,314.645 c 0.279,-0.039 0.428,0.053 0.479,0.24 -0.856,10.604 0.539,23.729 -0.72,34.32 0.051,-10.005 -0.175,-25.74 0.241,-34.56 z"
     id="path201"
     inkscape:connector-curvature="0" />
  <path
     d="m 148.561,318.004 c 0.278,-0.039 0.426,0.053 0.479,0.24 -0.3,6.137 0.612,14.643 -0.479,19.199 0.091,-6.056 -0.051,-12.319 0,-19.439 z"
     id="path203"
     inkscape:connector-curvature="0" />
  <path
     d="m 177.12,321.125 c 0.94,0.943 1.381,3.969 0.72,5.039 -0.947,-0.853 -1.379,-4.097 -0.72,-5.039 z"
     id="path205"
     inkscape:connector-curvature="0" />
  <path
     d="m 63.6,321.606 c 0.699,13.139 0.834,28.602 0.48,42.479 -0.582,-14.114 -0.377,-27.01 -0.48,-42.479 z"
     id="path207"
     inkscape:connector-curvature="0" />
  <path
     d="m 115.2,321.844 c 0.295,0.105 0.491,0.309 0.479,0.721 -0.609,12.408 -0.084,24.07 0.239,36.24 -1.312,-2.65 -0.72,-6.154 -0.72,-9.359 0,-10.662 -0.249,-16.303 -0.24,-26.881 -0.065,-0.389 0.23,-0.412 0.242,-0.721 z"
     id="path209"
     inkscape:connector-curvature="0" />
  <path
     d="m 85.2,322.565 c 1.244,-0.037 0.75,2.922 0.48,3.602 -1.277,0.001 -0.703,-2.877 -0.48,-3.602 z"
     id="path211"
     inkscape:connector-curvature="0" />
  <path
     d="m 8.16,322.805 c 0.24,0 0.479,0 0.72,0 -0.241,1.68 -0.174,3.666 -0.96,4.801 -1.104,-0.93 0.05,-3.582 0.24,-4.801 z"
     id="path213"
     inkscape:connector-curvature="0" />
  <path
     d="m 36,324.965 c 0.279,-0.039 0.427,0.053 0.48,0.24 -0.701,7.904 0.415,23.271 -0.72,33.84 -0.072,-13.656 0.105,-23.515 0.24,-34.08 z"
     id="path215"
     inkscape:connector-curvature="0" />
  <path
     d="m 64.56,326.645 c 0.279,-0.039 0.427,0.053 0.48,0.24 0.082,14.314 0.202,27.729 0.48,42.959 -1.396,-12.42 -0.403,-30.342 -0.96,-42.479 0,-0.24 0,-0.48 0,-0.72 z"
     id="path217"
     inkscape:connector-curvature="0" />
  <path
     d="m 177.6,326.645 c 1.342,0.697 0.78,3.303 0.48,4.561 -1.271,-0.914 -0.573,-3.067 -0.48,-4.561 z"
     id="path219"
     inkscape:connector-curvature="0" />
  <path
     d="m 84.96,326.885 c 2.089,0.289 0.797,2.934 0.96,3.84 -1.767,0.166 -0.643,-2.557 -0.96,-3.84 z"
     id="path221"
     inkscape:connector-curvature="0" />
  <path
     d="m 7.44,328.565 c 0.388,-0.066 0.413,0.227 0.72,0.24 -0.114,0.979 0.419,4.541 -0.48,5.52 -0.909,-0.969 -0.505,-4.403 -0.24,-5.76 z"
     id="path223"
     inkscape:connector-curvature="0" />
  <path
     d="m 100.08,330.965 c 0.24,0 0.479,0 0.72,0 0.367,1.156 0.423,3.893 0,5.039 -1.424,-0.617 -0.511,-3.88 -0.72,-5.039 z"
     id="path225"
     inkscape:connector-curvature="0" />
  <path
     d="m 85.2,332.167 c 1.41,0.459 0.866,2.928 0.48,4.08 -1.314,-0.11 -0.684,-3.235 -0.48,-4.08 z"
     id="path227"
     inkscape:connector-curvature="0" />
  <path
     d="m 177.359,332.405 c 0.32,0 0.641,0 0.959,0 0,1.68 0.135,3.494 -0.719,4.32 -1.24,-0.771 0.214,-2.762 -0.24,-4.32 z"
     id="path229"
     inkscape:connector-curvature="0" />
  <path
     d="m 116.398,332.645 c 0.279,-0.039 0.429,0.053 0.48,0.24 -0.184,14.654 0.43,24.723 0,34.08 -0.865,-10.904 -0.227,-19.348 -0.48,-33.602 0,-0.238 0,-0.478 0,-0.718 z"
     id="path231"
     inkscape:connector-curvature="0" />
  <path
     d="m 7.68,335.286 c 0.388,-0.068 0.414,0.227 0.72,0.24 -0.627,2.289 1.714,5.143 -0.24,5.76 -0.054,-1.569 -1.114,-3.916 -0.48,-6 z"
     id="path233"
     inkscape:connector-curvature="0" />
  <path
     d="m 34.8,335.286 c 0.964,3.404 -0.01,7.725 0.48,11.039 -0.861,-0.195 -0.48,-3.25 -0.48,-5.039 0,-2.106 0,-4.33 0,-6 z"
     id="path235"
     inkscape:connector-curvature="0" />
  <path
     d="m 100.08,337.206 c 0.24,0 0.479,0 0.72,0 0.39,1.031 0.39,3.527 0,4.561 -1.667,-0.446 -0.668,-3.015 -0.72,-4.561 z"
     id="path237"
     inkscape:connector-curvature="0" />
  <path
     d="m 85.44,337.684 c 0.74,1.156 0.849,4.041 0.24,4.563 -1.042,-0.409 -1.035,-3.854 -0.24,-4.563 z"
     id="path239"
     inkscape:connector-curvature="0" />
  <path
     d="m 148.561,337.924 c 0.782,4.641 0.516,12.51 0.239,19.682 -0.64,-5.141 -0.025,-13.227 -0.239,-19.682 z"
     id="path241"
     inkscape:connector-curvature="0" />
  <path
     d="m 177.359,337.924 c 0.502,1.486 -0.246,2.896 -0.721,3.602 -1.042,-0.649 -0.158,-3.299 0.721,-3.602 z"
     id="path243"
     inkscape:connector-curvature="0" />
  <path
     d="m 8.88,341.764 c 1.057,0.979 1.584,3.65 1.68,4.801 -1.369,-0.664 -2.157,-3.078 -1.68,-4.801 z"
     id="path245"
     inkscape:connector-curvature="0" />
  <path
     d="m 175.68,342.725 c 0.389,-0.066 0.413,0.227 0.721,0.24 -0.526,1.873 -0.521,4.279 -2.399,4.799 0.359,-2.392 1.284,-2.951 1.678,-5.039 z"
     id="path247"
     inkscape:connector-curvature="0" />
  <path
     d="m 10.8,347.526 c 1.137,0.975 2.318,3.08 2.16,4.561 -1.257,-0.856 -2.203,-3.196 -2.16,-4.561 z"
     id="path249"
     inkscape:connector-curvature="0" />
  <path
     d="m 94.08,348.247 c -0.311,1.545 -3.266,0.246 -3.84,0.479 0.535,-1.659 2.201,-0.677 3.84,-0.479 z"
     id="path251"
     inkscape:connector-curvature="0" />
  <path
     d="m 98.88,348.247 c -0.239,1.125 -3.166,0.826 -4.08,0.479 0.313,-1.167 3.313,-1.249 4.08,-0.479 z"
     id="path253"
     inkscape:connector-curvature="0" />
  <path
     d="m 102.721,348.247 c 0.141,1.104 -3.589,1.225 -3.121,-0.24 1.15,-0.194 2.843,-0.536 3.121,0.24 z"
     id="path255"
     inkscape:connector-curvature="0" />
  <path
     d="m 173.76,348.485 c 0.391,2.152 -1.395,4.205 -2.88,5.279 -0.025,-1.812 1.886,-3.691 2.88,-5.279 z"
     id="path257"
     inkscape:connector-curvature="0" />
  <path
     d="m 85.44,352.565 c 4.604,-0.021 10.339,0.029 14.16,0 0.287,0.516 0.26,1.342 0.721,1.682 1.216,-0.203 0.187,-1.221 0.961,-1.682 1.146,1.471 0.482,3.91 0.238,5.76 -0.979,7.436 -4.197,14.127 -8.399,18.24 -4.937,-3.559 -8.075,-10.953 -8.88,-19.439 0.532,0.189 -0.045,1.486 0.96,1.199 0.928,-1.219 -0.342,-3.918 0.239,-5.76 z m 14.64,6.24 c 0.827,-0.508 1.158,-3.611 0.24,-4.32 -0.529,0.726 -1.113,3.771 -0.24,4.32 z m -13.92,4.32 c 0.788,-0.643 -0.257,-3.139 -0.72,-4.08 -0.644,0.694 -0.02,3.278 0.72,4.08 z m 12.238,1.2 c 1.457,-0.166 2.041,-3.418 1.201,-4.318 -0.792,1.044 -0.872,2.804 -1.201,4.318 z m -10.318,3.842 c 0.277,-1.455 -0.651,-3.412 -1.68,-4.32 -0.247,1.337 0.568,3.552 1.68,4.32 z m 8.399,0.958 c 1.703,-0.299 1.666,-2.336 2.16,-3.842 -0.053,-0.188 -0.201,-0.277 -0.479,-0.238 -0.765,1.155 -1.172,2.668 -1.681,4.08 z m -6.239,2.879 c 0.275,-1.139 -0.786,-2.846 -1.92,-3.359 0.135,1.625 0.894,2.627 1.92,3.359 z m 4.321,0.721 c 1.317,-0.441 1.762,-1.76 2.16,-3.119 -0.24,0 -0.479,0 -0.721,0 -0.344,1.176 -1.182,1.857 -1.439,3.119 z m -1.921,2.641 c 0.905,-0.615 2.213,-0.828 2.16,-2.4 -1.361,-0.24 -1.224,1.018 -1.92,1.439 -1,-0.602 -1.074,-2.125 -2.4,-2.398 -0.253,1.191 1.22,2.576 2.16,3.359 z"
     id="path259"
     style="fill:#9b59b6;fill-opacity:1"
     inkscape:connector-curvature="0" />
  <path
     d="m 13.68,352.805 c 1.333,0.986 2.241,2.398 2.88,4.08 -1.62,-0.568 -2.943,-2.617 -2.88,-4.08 z"
     id="path261"
     inkscape:connector-curvature="0" />
  <path
     d="m 84.24,354.004 c 0.214,0.148 0.429,0.291 0.48,0 0.779,0.416 -0.624,0.629 -0.24,1.439 -0.371,0.735 -0.211,-1.038 -0.24,-1.439 z"
     id="path263"
     style="fill:#9b59b6;fill-opacity:1"
     inkscape:connector-curvature="0" />
  <path
     d="m 100.32,354.485 c 0.918,0.709 0.587,3.813 -0.24,4.32 -0.873,-0.549 -0.289,-3.594 0.24,-4.32 z"
     id="path265"
     inkscape:connector-curvature="0" />
  <path
     d="m 167.04,358.325 c 0.823,-1.494 1.847,-2.791 3.12,-3.84 -0.014,2.223 -1.765,3.637 -3.12,3.84 z"
     id="path267"
     inkscape:connector-curvature="0" />
  <path
     d="m 17.28,357.606 c 1.637,1.182 3.876,2.979 4.32,4.561 -1.846,-1.118 -3.804,-2.118 -4.32,-4.561 z"
     id="path269"
     inkscape:connector-curvature="0" />
  <path
     d="m 85.44,359.045 c 0.463,0.941 1.508,3.438 0.72,4.08 -0.74,-0.802 -1.364,-3.386 -0.72,-4.08 z"
     id="path271"
     inkscape:connector-curvature="0" />
  <path
     d="m 165.84,359.764 c -0.503,1.818 -1.912,2.729 -3.6,3.361 0.117,-1.283 2.088,-2.681 3.6,-3.361 z"
     id="path273"
     inkscape:connector-curvature="0" />
  <path
     d="m 99.6,360.004 c 0.84,0.9 0.256,4.154 -1.199,4.32 0.326,-1.513 0.406,-3.273 1.199,-4.32 z"
     id="path275"
     inkscape:connector-curvature="0" />
  <path
     d="m 22.32,362.645 c 1.824,0.654 3.328,1.633 4.32,3.119 -1.384,-0.17 -3.758,-1.336 -4.32,-3.119 z"
     id="path277"
     inkscape:connector-curvature="0" />
  <path
     d="m 86.4,363.844 c 1.029,0.91 1.957,2.867 1.68,4.32 -1.112,-0.765 -1.927,-2.98 -1.68,-4.32 z"
     id="path279"
     inkscape:connector-curvature="0" />
  <path
     d="m 160.8,364.084 c -0.805,1.307 -2.624,2.773 -4.319,2.4 0.972,-1.136 2.923,-2.472 4.319,-2.4 z"
     id="path281"
     inkscape:connector-curvature="0" />
  <path
     d="m 98.16,365.045 c 0.277,-0.039 0.427,0.053 0.479,0.238 -0.494,1.506 -0.457,3.543 -2.16,3.842 0.509,-1.412 0.916,-2.925 1.681,-4.08 z"
     id="path283"
     inkscape:connector-curvature="0" />
  <path
     d="m 27.84,366.245 c 2.038,0.604 3.716,1.564 5.52,2.4 -1.262,1.227 -4.689,-0.873 -5.52,-2.4 z"
     id="path285"
     inkscape:connector-curvature="0" />
  <path
     d="m 155.52,367.206 c -0.895,1.295 -3.396,2.162 -5.039,1.92 0.887,-1.084 3.203,-2.04 5.039,-1.92 z"
     id="path287"
     inkscape:connector-curvature="0" />
  <path
     d="m 88.32,368.645 c 1.134,0.514 2.195,2.221 1.92,3.359 -1.026,-0.732 -1.785,-1.734 -1.92,-3.359 z"
     id="path289"
     inkscape:connector-curvature="0" />
  <path
     d="m 38.88,370.805 c -1.688,0.441 -3.88,-0.566 -5.04,-1.439 1.041,-0.694 4.103,0.457 5.04,1.439 z"
     id="path291"
     inkscape:connector-curvature="0" />
  <path
     d="m 149.52,369.606 c -0.893,1.242 -3.597,1.521 -5.52,1.439 0.848,-1.281 4.576,-1.804 5.52,-1.439 z"
     id="path293"
     inkscape:connector-curvature="0" />
  <path
     d="m 96,369.606 c 0.24,0 0.479,0 0.721,0 -0.398,1.359 -0.843,2.678 -2.16,3.119 0.257,-1.262 1.095,-1.943 1.439,-3.119 z"
     id="path295"
     inkscape:connector-curvature="0" />
  <path
     d="m 45.84,371.764 c -1.286,1.158 -4.176,-0.107 -5.76,-0.238 0.933,-1.608 3.799,-0.061 5.76,0.238 z"
     id="path297"
     inkscape:connector-curvature="0" />
  <path
     d="m 142.8,371.526 c -1.194,-0.168 -4.438,1.23 -4.8,-0.48 1.27,0.038 4.846,-1.26 4.8,0.48 z"
     id="path299"
     inkscape:connector-curvature="0" />
  <path
     d="m 137.279,371.286 c -1.768,1.342 -2.93,0.666 -5.521,0.959 0.347,-2.153 4.644,-1.268 5.521,-0.959 z"
     id="path301"
     inkscape:connector-curvature="0" />
  <path
     d="m 122.88,371.045 c 0.214,0.105 0.429,0.209 0.479,0.479 -0.736,1.672 -5.246,0.992 -6.479,0.721 0.371,-2.03 4.547,-0.252 6,-1.2 z"
     id="path303"
     inkscape:connector-curvature="0" />
  <path
     d="m 130.561,371.286 c -0.361,1.641 -4.34,0.938 -5.761,0.721 0.593,-1.739 3.895,-0.817 5.761,-0.721 z"
     id="path305"
     inkscape:connector-curvature="0" />
  <path
     d="m 58.08,372.004 c -0.714,1.518 -4.922,0.465 -5.76,0.48 0,-0.24 0,-0.48 0,-0.721 1.794,-0.311 4.75,-0.55 5.76,0.241 z"
     id="path307"
     inkscape:connector-curvature="0" />
  <path
     d="m 65.76,372.004 c -0.821,1.703 -3.858,0.275 -6.24,0.721 0.687,-2.361 4.719,-0.654 6.24,-0.721 z"
     id="path309"
     inkscape:connector-curvature="0" />
  <path
     d="m 109.2,372.004 c -0.429,1.492 -3.468,0.373 -5.04,0.721 -0.368,-1.973 3.756,-1.058 5.04,-0.721 z"
     id="path311"
     inkscape:connector-curvature="0" />
  <path
     d="m 115.92,371.764 c -0.361,1.643 -4.339,0.939 -5.76,0.721 -0.503,-1.611 4.419,-0.951 5.76,-0.721 z"
     id="path313"
     inkscape:connector-curvature="0" />
  <path
     d="m 73.44,372.245 c -1.366,1.164 -6.204,1.18 -6.24,-0.238 1.557,-0.313 5.05,-0.606 6.24,0.238 z"
     id="path315"
     inkscape:connector-curvature="0" />
  <path
     d="m 80.64,372.245 c -0.721,1.625 -4.275,0.201 -5.52,0.721 0.021,-0.34 0.04,-0.68 -0.24,-0.721 0.913,-0.782 4.846,-0.782 5.76,0 z"
     id="path317"
     inkscape:connector-curvature="0" />
  <path
     d="m 87.84,372.245 c -0.669,1.365 -4.574,0.662 -6,0.48 1.024,-1.637 4.32,-0.695 6,-0.48 z"
     id="path319"
     inkscape:connector-curvature="0" />
  <path
     d="m 90.48,372.004 c 1.326,0.273 1.4,1.799 2.4,2.4 0.696,-0.424 0.559,-1.682 1.92,-1.439 0.054,1.572 -1.255,1.783 -2.16,2.398 -0.94,-0.78 -2.413,-2.165 -2.16,-3.359 z"
     id="path321"
     inkscape:connector-curvature="0" />
  <path
     d="m 12.48,117.845 c -0.639,-2.44 0.693,-4.617 0.96,-6.96 2.112,-18.542 4.703,-36.861 7.44,-53.76 1.69,-10.439 3.444,-19.422 8.16,-26.64 C 33.333,23.914 39.823,18.273 46.8,14.165 61.588,5.457 81.114,-0.55 101.52,1.206 c 9.926,0.854 18.914,3.632 27.602,7.2 16.456,6.758 30.283,16.477 35.04,35.28 2.229,8.818 3.481,19.759 4.8,29.04 2.911,20.492 4.364,38.901 6.24,57.36 2.086,20.542 3.015,41.775 4.078,61.68 0.449,8.361 0.746,20.331 0.962,28.561 0.132,5.067 0.21,10.385 0.479,16.08 0.272,5.786 -0.035,11.545 1.199,16.319 0.783,3.026 4.059,6.526 0.479,9.36 1.783,-3.375 -0.803,-6.914 -1.438,-9.84 -0.544,-2.5 -0.536,-5.771 -0.72,-8.4 -0.782,-11.146 -0.518,-22.566 -0.961,-33.84 -0.441,-11.246 -1.023,-22.42 -1.68,-33.601 -1.281,-21.846 -2.361,-43.332 -4.561,-63.12 -0.066,-0.595 -0.221,-0.188 -0.24,-0.72 -0.354,-8.987 -1.876,-17.924 -2.88,-26.64 -0.993,-8.622 -2.237,-17.073 -3.601,-25.44 -1.937,-11.886 -2.967,-20.329 -7.92,-28.56 -2.2,-3.658 -5.188,-7.946 -9.359,-11.28 -3.063,-2.447 -7.105,-4.621 -10.8,-6.72 -11.372,-6.46 -23.806,-10.635 -37.2,-11.76 -21.225,-1.783 -38.971,3.917 -54,12.96 -7.681,4.622 -13.678,9.498 -18,17.04 -4.264,7.439 -5.972,17.161 -7.68,27.12 -1.737,10.13 -3.574,20.046 -4.8,30.24 -1.074,8.935 -1.251,18.908 -4.079,28.32 z"
     id="path323"
     style="fill:#9b59b6;fill-opacity:1"
     inkscape:connector-curvature="0" />
  <path
     d="m 7.92,117.365 c 0.022,0.533 0.311,3.268 0,4.56 -0.799,-1.215 -0.819,-3.545 0,-4.56 z"
     id="path325"
     style="fill:#9b59b6;fill-opacity:1"
     inkscape:connector-curvature="0" />
  <path
     d="m 103.92,241.685 c 12.061,-0.965 22.04,-0.403 33.359,0 11.178,0.397 22.303,0.874 34.561,1.2 -22.099,0.343 -42.929,-1.61 -67.92,-1.2 z"
     id="path327"
     style="fill:#9b59b6;fill-opacity:1"
     inkscape:connector-curvature="0" />
  <path
     d="m 11.52,252.247 c 6.348,0.176 13.444,-0.24 19.92,-0.24 21.144,0 36.064,-0.896 52.08,-0.721 -0.066,20.615 0.021,39.529 0,61.68 -0.938,-0.939 -3.367,-1.541 -4.8,-1.199 0.716,1.523 3.755,0.725 4.8,1.92 -6.694,-0.428 -12.356,-3.723 -18,-7.439 -4.831,-3.182 -10.895,-4.42 -17.28,-6 -9.45,-2.34 -19.744,-10.037 -25.44,-17.039 -6.447,-7.93 -10.654,-17.468 -11.28,-30.962 z m 55.44,53.518 c -1.236,-1.153 -3.175,-2.649 -4.8,-2.64 0.788,1.398 3.444,3.403 4.8,2.64 z m -53.52,-46.32 c 0.092,-1.413 0.204,-4.812 -0.96,-5.76 -0.348,1.67 -0.466,5.075 0.96,5.76 z m 4.32,-1.441 c 9.512,0.02 20.819,0.099 32.4,-0.239 10.903,-0.317 21.51,-0.067 30.48,-0.72 -21.062,-0.232 -42.816,0.116 -62.88,0.959 z m -2.64,8.641 c -0.005,-1.893 -0.502,-4.445 -1.68,-5.52 -0.129,1.607 0.31,4.624 1.68,5.52 z m 2.88,6.96 c -0.087,-1.546 -1.101,-4.153 -2.4,-5.28 -0.159,1.793 0.882,4.375 2.4,5.28 z m 4.08,6.72 c -0.729,-1.83 -1.424,-3.695 -3.12,-4.56 0.64,1.921 1.264,3.857 3.12,4.56 z m 4.56,5.52 c -0.891,-1.908 -2.269,-3.331 -3.84,-4.56 0.072,1.798 1.921,3.818 3.84,4.56 z m 4.8,4.56 c -0.451,-2.188 -2.462,-2.816 -4.08,-3.84 0.213,1.499 2.431,2.986 4.08,3.84 z m 5.52,3.599 c -0.635,-1.924 -2.852,-2.269 -4.32,-3.359 -0.021,1.654 2.602,2.652 4.32,3.359 z m 5.52,2.641 c -0.96,-1.68 -3.193,-2.087 -5.04,-2.88 0.682,1.821 3.215,2.993 5.04,2.88 z m 7.2,2.88 c -0.889,-1.909 -3.774,-1.825 -5.76,-2.64 0.667,2.133 3.455,2.145 5.76,2.64 z m 6,1.44 c -0.251,-1.609 -2.803,-1.449 -4.8,-1.92 0.448,1.791 3.118,1.364 4.8,1.92 z m 0.72,0.241 c 1.805,0.522 3.4,1.457 4.56,1.439 -0.845,-1.832 -3.068,-1.396 -4.32,-2.398 -0.076,0.323 -0.342,0.457 -0.24,0.959 z m 15.6,7.919 c -0.574,-1.268 -1.973,-1.709 -3.36,-2.16 0.172,1.551 2.437,2.143 3.36,2.16 z m 5.76,2.161 c -0.18,-0.943 -2.886,-1.432 -4.32,-1.92 0.321,1.47 3.596,2.437 4.32,1.92 z"
     id="path329"
     style="fill:#9b59b6;fill-opacity:1"
     inkscape:connector-curvature="0" />
  <path
     d="m 163.68,279.366 c 0.852,-1.789 1.469,-3.812 3.12,-4.801 -0.484,1.825 -0.987,3.605 -3.12,4.801 z"
     id="path331"
     inkscape:connector-curvature="0" />
  <path
     d="m 19.92,282.004 c 1.172,1.09 -1.657,3.168 -0.72,4.801 1.426,-0.254 1.18,-2.18 1.92,-3.12 6.702,8.47 16.552,14.896 27.12,18.72 4.842,-0.005 8.899,2.102 12,2.641 6.462,4.469 11.942,8.463 20.64,10.561 -0.814,5.01 -0.493,15.189 -0.48,22.32 0.007,3.854 -0.462,6.629 1.44,8.641 -1.65,0.512 -0.844,4.482 -0.96,5.76 0.333,0.627 2.037,-0.117 2.4,0.479 -0.484,9.641 2.394,14.525 5.28,20.881 -15.21,-0.201 -24.726,0.16 -40.56,-0.721 -0.57,-0.945 2.771,0.508 3.12,-0.721 -0.855,-1.498 -2.985,-0.463 -4.8,-0.719 -0.342,1.061 0.812,0.627 0.72,1.439 -11.644,-0.408 -21.074,-4.734 -28.08,-11.521 -8.36,-8.096 -13.5,-20.348 -12.48,-35.039 3.581,-15.379 7.286,-30.635 13.2,-43.681 -0.068,-0.389 0.227,-0.413 0.24,-0.721 z m -10.8,54.721 c 0.37,-14.979 4.432,-29.732 9.36,-41.28 1.187,-2.78 3.231,-5.735 2.88,-8.88 -2.919,5.48 -4.585,12.215 -7.44,17.76 0.317,-0.768 0.868,-2.141 -0.24,-2.398 -0.73,1.75 -1.435,3.523 -1.68,5.76 1.4,0.359 0.922,-1.158 1.68,-1.439 -0.438,1.322 -0.527,2.992 -1.44,3.84 0.073,-0.633 -0.332,-0.787 -0.96,-0.721 -0.353,1.889 -1.125,3.354 -1.2,5.521 0.478,0.582 1.025,-0.404 1.2,0.479 -0.576,0.545 -0.235,2.006 -0.96,2.4 -0.083,-0.559 -0.155,-1.125 -0.96,-0.961 0.043,1.611 -1.773,4.215 -0.24,5.041 0.865,-0.574 0.479,-2.4 1.2,-3.121 -0.747,6.159 -2.28,11.862 -1.2,17.999 z m 7.44,-43.2 c 1.809,-0.655 2.285,-3.705 2.4,-5.278 -0.307,-0.015 -0.333,-0.309 -0.72,-0.24 -0.403,1.995 -1.597,3.201 -1.68,5.518 z m -5.76,39.841 c 0.983,-16.416 5.814,-28.625 11.04,-42.48 -0.054,-0.186 -0.006,-0.473 -0.24,-0.479 -5.062,12.906 -11.238,27.148 -10.8,42.959 z m 3.6,-32.641 c 1.495,-1.064 1.771,-3.35 2.16,-5.52 -0.307,-0.015 -0.333,-0.309 -0.72,-0.24 -0.561,1.752 -1.746,3.914 -1.44,5.76 z m -1.68,26.16 c 2.099,-9.662 4.64,-18.881 7.92,-27.36 -0.053,-0.187 -0.201,-0.278 -0.479,-0.239 -3.364,8.689 -6.638,18.287 -7.441,27.599 z m 21.12,-18.718 c 0.312,10.031 -0.646,19.93 0.48,28.559 -0.434,-7.801 0.142,-18.691 0,-29.039 -0.053,-0.188 -0.201,-0.279 -0.48,-0.24 0,0.237 0,0.477 0,0.72 z m 1.2,26.878 c 0.019,-6.824 0.303,-13.119 0.24,-23.281 -0.053,-0.188 -0.201,-0.277 -0.48,-0.238 0.16,7.76 -0.32,16.158 0.24,23.519 z m 27.6,9.122 c 0.004,3.793 -0.495,7.691 0.48,11.52 0.041,-8.605 -0.155,-12.51 -0.24,-20.641 -0.08,-7.584 -0.114,-16.602 0.24,-23.039 -0.053,-0.188 -0.201,-0.279 -0.48,-0.24 -0.463,11.601 -0.014,19.933 0,32.4 z m 1.44,19.917 c 0.354,-13.877 0.218,-29.34 -0.48,-42.479 0.103,15.47 -0.102,28.366 0.48,42.479 z M 7.92,327.606 c 0.786,-1.135 0.719,-3.121 0.96,-4.801 -0.24,0 -0.48,0 -0.72,0 -0.19,1.219 -1.344,3.871 -0.24,4.801 z m 27.84,31.439 c 1.135,-10.566 0.019,-25.936 0.72,-33.84 -0.053,-0.189 -0.201,-0.279 -0.48,-0.24 -0.135,10.565 -0.312,20.424 -0.24,34.08 z m 28.8,-31.679 c 0.557,12.137 -0.436,30.059 0.96,42.479 -0.278,-15.23 -0.398,-28.645 -0.48,-42.959 -0.053,-0.188 -0.201,-0.279 -0.48,-0.24 0,0.239 0,0.479 0,0.72 z m -56.88,6.959 c 0.9,-0.979 0.367,-4.541 0.48,-5.52 -0.307,-0.014 -0.333,-0.309 -0.72,-0.24 -0.265,1.357 -0.669,4.791 0.24,5.76 z m 0.48,6.961 c 1.954,-0.617 -0.387,-3.471 0.24,-5.76 -0.307,-0.014 -0.333,-0.309 -0.72,-0.24 -0.634,2.084 0.426,4.431 0.48,6 z m 26.64,0 c 0,1.789 -0.381,4.844 0.48,5.039 -0.49,-3.314 0.484,-7.635 -0.48,-11.039 0,1.67 0,3.894 0,6 z m -24.24,5.279 c -0.096,-1.148 -0.624,-3.822 -1.68,-4.801 -0.477,1.723 0.311,4.137 1.68,4.801 z m 2.4,5.519 c 0.158,-1.479 -1.023,-3.586 -2.16,-4.561 -0.043,1.368 0.903,3.708 2.16,4.561 z m 3.6,4.801 c -0.639,-1.682 -1.547,-3.094 -2.88,-4.08 -0.063,1.463 1.26,3.512 2.88,4.08 z m 5.04,5.282 c -0.444,-1.582 -2.683,-3.379 -4.32,-4.561 0.516,2.443 2.474,3.443 4.32,4.561 z m 5.04,3.597 c -0.992,-1.486 -2.496,-2.465 -4.32,-3.119 0.562,1.783 2.936,2.949 4.32,3.119 z m 6.72,2.881 c -1.804,-0.836 -3.482,-1.797 -5.52,-2.4 0.831,1.527 4.258,3.627 5.52,2.4 z m 0.48,0.721 c 1.16,0.873 3.353,1.883 5.04,1.439 -0.937,-0.982 -3.999,-2.133 -5.04,-1.439 z m 6.24,2.16 c 1.584,0.131 4.474,1.396 5.76,0.238 -1.961,-0.299 -4.827,-1.846 -5.76,-0.238 z m 12.24,0.238 c 0,0.24 0,0.48 0,0.721 0.838,-0.016 5.046,1.037 5.76,-0.479 -1.01,-0.793 -3.966,-0.554 -5.76,-0.242 z m 7.2,0.961 c 2.382,-0.443 5.418,0.982 6.24,-0.721 -1.521,0.067 -5.553,-1.64 -6.24,0.721 z m 7.68,-0.721 c 0.037,1.42 4.874,1.402 6.24,0.24 -1.19,-0.843 -4.683,-0.55 -6.24,-0.24 z m 7.68,0.241 c 0.28,0.041 0.261,0.381 0.24,0.721 1.244,-0.52 4.799,0.904 5.52,-0.721 -0.914,-0.782 -4.847,-0.782 -5.76,0 z m 6.96,0.48 c 1.426,0.182 5.331,0.885 6,-0.48 -1.68,-0.215 -4.976,-1.157 -6,0.48 z"
     id="path333"
     style="fill:#9b59b6;fill-opacity:1"
     inkscape:connector-curvature="0" />
  <path
     d="m 97.439,350.885 c -0.07,-0.631 0.932,-0.189 0.721,-0.961 -0.754,-0.502 -2.803,-0.25 -3.602,0 -0.143,0.768 0.45,0.742 0,1.201 -0.646,-0.395 -1.229,0.326 -1.919,-0.24 0.027,-0.453 0.793,-0.168 0.72,-0.721 -0.651,-0.752 -2.395,-0.523 -3.6,-0.24 -0.072,0.633 0.333,0.787 0.96,0.721 -0.459,0.75 -2.267,0.133 -2.88,0.24 -0.103,-0.664 0.895,-0.227 0.96,-0.721 -1.155,-0.824 -2.794,-0.982 -3.6,0 -0.072,1.111 2.28,-0.199 2.16,0.961 -1.815,-0.537 -2.501,0.191 -4.32,-0.24 -0.649,-0.436 1.541,-0.041 1.44,-0.721 0.176,-1.375 -2.128,-0.271 -2.64,-0.959 0.285,-1.076 2.706,-0.016 3.36,-0.721 0.011,-0.41 -0.178,-0.621 -0.48,-0.721 0.852,-0.557 1.553,-0.332 2.64,-0.24 -0.217,0.504 -1.354,0.086 -1.44,0.721 0.702,1.123 1.779,0.469 3.12,0.479 0.347,-0.906 -0.66,-0.461 -0.48,-1.199 6.14,-0.045 10.525,-0.053 16.32,0 -0.229,1.188 -1.376,0.031 -1.68,0.961 0.021,1.018 2.201,-0.123 1.92,1.199 -0.818,0.514 -1.262,-0.092 -2.16,0.24 -0.197,0.678 0.338,0.621 0.24,1.199 -0.721,0 -1.44,0 -2.16,0 -0.23,-0.871 1.078,-0.201 0.96,-0.959 -0.285,-0.846 -2.706,-0.531 -3.36,-0.24 -0.182,0.896 3.121,1.076 1.682,0.959 -0.941,0.076 -1.83,0.438 -2.882,0.002 z m -7.199,-2.16 c 0.574,-0.232 3.531,1.066 3.84,-0.479 -1.639,-0.197 -3.305,-1.179 -3.84,0.479 z m 4.56,0 c 0.914,0.348 3.841,0.646 4.08,-0.479 -0.767,-0.769 -3.767,-0.687 -4.08,0.479 z m 4.8,-0.721 c -0.468,1.465 3.262,1.346 3.121,0.24 -0.278,-0.773 -1.971,-0.431 -3.121,-0.24 z"
     id="path335"
     style="fill:#9b59b6;fill-opacity:1"
     inkscape:connector-curvature="0" />
  <path
     d="m 165.6,281.765 c 0.24,0 0.48,0 0.721,0 5.383,13.679 11.912,28.53 12.721,46.319 0.254,5.605 -0.836,10.389 -1.439,14.881 -6.662,19.877 -24.328,30.393 -44.641,30 -9.602,-0.186 -23.146,1.189 -34.561,0.24 0.523,-1.43 3.506,0.836 4.561,-0.961 -0.845,-1.047 -2.343,-0.488 -3.84,-0.48 3.229,-5.055 5.286,-12.104 4.8,-18.959 0.854,-0.143 1.687,0.016 2.88,-0.24 0.376,-0.789 0.199,-3.439 0.24,-5.279 -0.16,-0.961 -1.544,-0.697 -2.641,-0.721 3.468,-2.955 2.522,-8.832 2.399,-15.119 -0.104,-5.318 0.761,-9.363 0.24,-12.48 -0.334,-1.998 -1.338,-2.967 -3.12,-3.359 10.357,-1.574 17.777,-9.718 26.641,-12.72 2.174,-0.736 4.565,-0.854 6.721,-1.44 10.992,-2.99 19.516,-8.771 26.158,-16.8 8.472,16.929 15.412,39.532 9.84,60.479 1.514,-0.891 1.894,-3.467 2.16,-5.039 3.377,-19.877 -4.219,-40.662 -11.039,-56.641 1.185,0.575 1.092,2.428 2.16,3.119 1.264,-1.397 -1.188,-2.877 -0.961,-4.8 z m 4.56,72.72 c -1.273,1.049 -2.297,2.346 -3.12,3.84 1.355,-0.203 3.106,-1.617 3.12,-3.84 z m -6.721,-66.238 c 5.48,12.174 11.578,29.635 9.84,45.84 -0.269,2.494 -1.356,5.131 -0.239,6.719 3.944,-19.398 -2.606,-38.15 -8.88,-52.799 -0.344,-0.059 -0.405,-0.396 -0.721,-0.48 0,0.238 0,0.477 0,0.72 z m 6,4.318 c 0.004,-2.165 -1.215,-3.105 -1.439,-5.04 -0.24,0 -0.48,0 -0.721,0 -0.12,1.599 0.463,4.472 2.16,5.04 z m -6.239,1.439 c 4.041,10.244 8.187,21.822 8.159,34.561 -0.004,1.703 -0.764,3.986 0.479,5.521 0.71,-15.604 -3.243,-29.799 -8.64,-40.801 0.002,0.24 0.002,0.48 0.002,0.719 z m 8.4,5.521 c 0.779,-1.427 -0.468,-4.748 -1.92,-5.521 0.288,2.193 0.924,4.038 1.92,5.521 z m 1.92,6 c 0.799,-1.073 -0.218,-4.178 -1.438,-4.8 -0.232,1.4 0.543,3.738 1.438,4.8 z m -27.36,-0.72 c -0.01,12.773 0.232,24.109 0,34.32 1.076,-0.486 0.497,-2.072 0.479,-3.121 -0.185,-10.965 0.016,-23.414 0.24,-31.68 -0.053,-0.188 -0.201,-0.279 -0.48,-0.24 0.011,0.333 -0.112,0.528 -0.239,0.721 z m 29.279,7.92 c 0.828,-1.477 -0.42,-4.797 -1.439,-6 -0.355,1.91 0.346,4.748 1.439,6 z m -60.718,35.039 c -0.09,-11.834 -0.384,-20.936 0.239,-35.039 -0.317,-0.004 -0.22,-0.422 -0.479,-0.479 -0.4,9.331 -0.638,23.553 0.24,35.518 z m 62.159,-28.318 c 0.54,-1.311 0.343,-4.541 -1.2,-5.521 -0.302,1.624 0.072,4.536 1.2,5.521 z m -29.76,29.76 c 1.259,-10.592 -0.138,-23.717 0.72,-34.32 -0.053,-0.188 -0.201,-0.277 -0.48,-0.238 -0.417,8.817 -0.191,24.552 -0.24,34.558 z m 1.441,-11.76 c 1.092,-4.559 0.181,-13.064 0.479,-19.199 -0.054,-0.189 -0.201,-0.279 -0.479,-0.24 -0.051,7.117 0.091,13.38 0,19.439 z m 29.279,-11.279 c 0.661,-1.07 0.223,-4.098 -0.72,-5.041 -0.659,0.941 -0.227,4.185 0.72,5.041 z m -62.88,-3.602 c -0.009,10.578 0.24,16.219 0.24,26.881 0,3.205 -0.593,6.709 0.72,9.359 -0.324,-12.17 -0.85,-23.832 -0.24,-36.24 0.014,-0.412 -0.185,-0.615 -0.479,-0.721 -0.013,0.309 -0.308,0.332 -0.241,0.721 z m 63.12,8.641 c 0.3,-1.258 0.861,-3.863 -0.48,-4.561 -0.093,1.494 -0.791,3.647 0.48,4.561 z m -0.48,5.519 c 0.854,-0.826 0.721,-2.641 0.721,-4.32 -0.319,0 -0.641,0 -0.961,0 0.453,1.558 -1.001,3.549 0.24,4.32 z m -61.202,-3.359 c 0.254,14.254 -0.385,22.695 0.48,33.6 0.43,-9.355 -0.184,-19.426 0,-34.08 -0.053,-0.188 -0.201,-0.277 -0.48,-0.238 0,0.237 0,0.477 0,0.718 z m 32.402,24.24 c 0.275,-7.172 0.543,-15.041 -0.239,-19.682 0.214,6.455 -0.401,14.541 0.239,19.682 z m 27.841,-16.08 c 0.473,-0.703 1.223,-2.113 0.719,-3.602 -0.88,0.303 -1.764,2.953 -0.719,3.602 z M 174,347.764 c 1.879,-0.52 1.873,-2.926 2.398,-4.799 -0.307,-0.014 -0.332,-0.309 -0.719,-0.24 -0.393,2.088 -1.318,2.647 -1.679,5.039 z m -3.12,6 c 1.485,-1.074 3.271,-3.127 2.88,-5.279 -0.994,1.588 -2.905,3.467 -2.88,5.279 z m -8.64,9.361 c 1.688,-0.633 3.097,-1.543 3.6,-3.361 -1.512,0.68 -3.483,2.078 -3.6,3.361 z m -5.761,3.36 c 1.696,0.373 3.517,-1.094 4.32,-2.398 -1.395,-0.075 -3.346,1.261 -4.32,2.398 z m -6,2.64 c 1.644,0.242 4.146,-0.627 5.041,-1.92 -1.836,-0.119 -4.152,0.837 -5.041,1.92 z m -6.479,1.92 c 1.923,0.082 4.627,-0.197 5.52,-1.439 -0.944,-0.365 -4.672,0.158 -5.52,1.439 z m -6,0 c 0.361,1.711 3.605,0.313 4.8,0.479 0.046,-1.738 -3.53,-0.44 -4.8,-0.479 z m -6.24,1.2 c 2.592,-0.293 3.752,0.383 5.521,-0.959 -0.879,-0.309 -5.176,-1.194 -5.521,0.959 z m -14.88,0 c 1.233,0.273 5.743,0.951 6.479,-0.719 -0.051,-0.271 -0.267,-0.373 -0.479,-0.48 -1.453,0.947 -5.629,-0.831 -6,1.199 z m 7.92,-0.241 c 1.421,0.217 5.398,0.922 5.761,-0.721 -1.866,-0.093 -5.168,-1.015 -5.761,0.721 z m -20.64,0.721 c 1.572,-0.348 4.611,0.771 5.04,-0.721 -1.284,-0.337 -5.408,-1.252 -5.04,0.721 z m 6,-0.24 c 1.421,0.219 5.398,0.922 5.76,-0.721 -1.341,-0.23 -6.263,-0.89 -5.76,0.721 z"
     id="path337"
     inkscape:connector-curvature="0"
     style="fill:#9b59b6;fill-opacity:1" />
  <path
     d="m 83.52,244.084 c 0,0.641 0,1.279 0,1.92 -22.826,0.598 -45.067,0.742 -70.08,1.439 -0.807,0.247 -0.374,-0.746 -0.48,-1.199 -1.194,-0.269 -0.725,1.979 -1.68,1.199 -0.263,-3.047 3.74,-1.831 5.76,-1.92 6.742,-0.296 12.924,-0.378 19.68,-0.72 0.771,-0.21 0.498,0.622 0.96,0.72 0.75,0.074 -0.61,-0.693 0.24,-0.72 16.644,-0.22 33.958,-0.56 45.6,-0.719 z"
     id="path341"
     style="fill:#9b59b6;fill-opacity:1"
     inkscape:connector-curvature="0" />
  <path
     d="m 83.52,246.965 c 0,1.279 0,2.56 0,3.84 -7.252,-0.383 -15.932,0.742 -21.12,-0.479 -2.169,1.147 -7.021,0.719 -12,0.719 -12.7,0 -25.491,0.677 -37.44,0.721 0,-1.2 0,-2.4 0,-3.6 9.781,-0.236 17.758,-0.24 26.64,-0.48 13.69,-0.373 26.964,-0.732 43.92,-0.721 z"
     id="path343"
     style="fill:#9b59b6;fill-opacity:1"
     inkscape:connector-curvature="0" />
  <path
     d="m 12.48,253.685 c 1.164,0.946 1.052,4.347 0.96,5.76 -1.426,-0.685 -1.308,-4.09 -0.96,-5.76 z"
     id="path347"
     inkscape:connector-curvature="0" />
  <path
     d="m 99.84,253.445 c 0.432,1.106 -0.564,3.542 0.721,4.32 0.998,-0.601 0.246,-2.954 0.479,-4.32 1.571,1.382 0.497,3.625 0.479,5.28 -0.199,18.602 0.502,34.055 0.239,56.4 -2.048,-0.352 0.47,-4.1 -1.438,-4.801 -0.994,-0.033 -0.25,1.67 -0.48,2.398 -1.046,-0.006 -2.223,-0.143 -2.64,0.48 0.019,1.182 2.657,-0.258 2.64,0.961 -1.122,1.02 -3.501,-0.422 -5.04,0 -0.37,-1.012 1.242,-0.039 1.2,-0.721 -0.313,-1.199 -2.477,-0.139 -4.08,-0.48 -0.752,0.166 -0.313,0.641 -0.24,1.201 -2.307,-0.131 -4.038,0.789 -5.52,0.238 0.445,-1.352 2.466,0.121 3.6,-0.721 -0.108,-1.252 -2.187,-0.531 -3.36,-0.719 -0.61,-0.67 0.21,-2.771 -0.72,-3.121 -1.533,0.123 0.203,2.1 -1.2,2.881 -0.02,-18.969 -0.19,-35.43 0,-52.801 0.022,-2.074 -0.524,-4.373 0.48,-6.239 0.1,1.34 -0.408,3.288 0.96,3.36 0.788,-0.229 -0.057,-2.119 0.24,-3.36 4.203,-0.695 8.01,-0.091 13.68,-0.236 z m -13.92,10.802 c 0.393,-1.485 0.393,-4.517 0,-6 -0.24,0 -0.48,0 -0.72,0 0.03,1.407 -1.139,5.25 0.72,6 z m 1.2,-5.282 c 0.053,0.187 0.201,0.279 0.48,0.24 2.227,0.344 4.548,-0.006 6.96,0 1.041,0.002 2.551,0.719 3.119,-0.48 -3.441,-0.064 -6.845,-0.65 -10.559,0.24 z m 13.68,6 c 0.169,-1.453 0.914,-5.553 -0.479,-6.24 -0.359,1.283 -1.305,5.285 0.479,6.24 z m -15.36,6.241 c 1.386,-0.492 0.643,-4.266 0.48,-5.521 -0.307,-0.013 -0.333,-0.308 -0.72,-0.24 -0.283,1.375 -0.645,4.766 0.24,5.761 z m 15.36,0.718 c 0.558,-1.362 0.082,-3.758 0.24,-5.521 -0.319,0 -0.642,0 -0.96,0 0.279,2.222 -1.045,4.496 0.72,5.521 z m -14.88,6.961 c 0.138,-1.954 0.679,-4.151 -0.48,-5.04 -0.673,0.78 -1.091,4.954 0.48,5.04 z m 14.88,0 c 0.732,-0.834 -0.018,-3.002 0.24,-4.801 -0.308,-0.014 -0.333,-0.308 -0.72,-0.239 -0.631,0.607 -0.757,4.241 0.48,5.04 z m 0,7.44 c 0.394,-1.408 0.394,-4.352 0,-5.76 -0.239,0 -0.479,0 -0.72,0 -0.197,1.441 -0.935,5.385 0.72,5.76 z m -15.12,-0.48 c 0.882,-0.933 0.458,-3.716 0.24,-5.04 -0.24,0 -0.48,0 -0.72,0 -0.257,1.197 -0.764,4.561 0.48,5.04 z m 0.24,8.159 c 0.416,-1.539 0.377,-4.693 0,-6.239 -0.331,0.011 -0.527,-0.113 -0.72,-0.24 -0.191,1.529 -0.958,6.819 0.72,6.479 z m 14.88,-0.959 c 0.237,-1.33 0.798,-4.92 -0.479,-5.521 -0.647,0.993 -1.096,5.226 0.479,5.521 z m -14.88,7.68 c 0.237,-1.329 0.797,-4.919 -0.48,-5.52 -0.647,0.993 -1.095,5.225 0.48,5.52 z m 14.88,0.481 c 0.351,-1.526 0.425,-4.484 0,-6 -0.239,0 -0.479,0 -0.72,0 -0.062,1.205 -1.025,5.559 0.72,6 z m -14.88,6.478 c 0.422,-1.146 0.367,-3.883 0,-5.039 -0.307,-0.014 -0.333,-0.309 -0.72,-0.24 -0.186,1.278 -0.944,5.064 0.72,5.279 z m 14.641,1.441 c 1.002,-1.66 0.313,-5.193 0.239,-6.24 -0.239,0 -0.479,0 -0.72,0 -0.176,1.496 -0.892,5.502 0.481,6.24 z"
     id="path349"
     style="fill:#9b59b6;fill-opacity:1"
     inkscape:connector-curvature="0" />
  <path
     d="m 177.84,270.485 c 0.204,-0.044 0.227,0.094 0.24,0.24 0.307,7.934 1.594,15.199 1.92,22.8 0.077,1.804 0.646,4.251 -0.721,5.521 0.084,-9.195 -1.945,-17.938 -2.159,-28.08 0.193,-0.208 0.657,-0.143 0.72,-0.481 z"
     id="path351"
     style="fill:#9b59b6;fill-opacity:1"
     inkscape:connector-curvature="0" />
  <path
     d="m 18.24,288.004 c 0.388,-0.066 0.414,0.228 0.72,0.24 -0.115,1.574 -0.591,4.625 -2.4,5.279 0.083,-2.315 1.277,-3.521 1.68,-5.519 z"
     id="path353"
     inkscape:connector-curvature="0" />
  <path
     d="m 10.32,318.725 c -0.72,0.721 -0.334,2.545 -1.2,3.119 -1.533,-0.826 0.283,-3.428 0.24,-5.039 0.805,-0.166 0.877,0.402 0.96,0.959 0.725,-0.395 0.384,-1.855 0.96,-2.398 -0.175,-0.885 -0.722,0.102 -1.2,-0.48 0.074,-2.166 0.847,-3.633 1.2,-5.52 0.628,-0.068 1.033,0.088 0.96,0.721 0.913,-0.848 1.001,-2.52 1.44,-3.84 -0.758,0.281 -0.279,1.799 -1.68,1.438 0.245,-2.234 0.95,-4.01 1.68,-5.76 1.108,0.26 0.557,1.633 0.24,2.4 2.855,-5.546 4.521,-12.279 7.44,-17.761 0.351,3.146 -1.693,6.101 -2.88,8.88 -4.928,11.549 -8.99,26.301 -9.36,41.279 -1.08,-6.135 0.453,-11.838 1.2,-17.998 z"
     id="path355"
     inkscape:connector-curvature="0" />
  <path
     d="m 104.641,317.045 c 0.855,7.66 0.239,12.305 0.239,20.879 0,2.201 0.675,5.213 -1.2,6.48 0.188,-10.063 -0.572,-17.049 0.24,-24.48 -2.27,-1.475 -5.15,-1.744 -7.92,-1.92 -0.948,-2.828 -4.237,-3.084 -5.28,-0.24 -3.279,0.082 -6.188,0.533 -8.64,1.441 -0.089,0.807 1.009,0.43 0.96,1.199 0.125,6.479 -0.443,17.039 0.48,24.238 -0.24,0.244 -1.309,0.092 -1.68,-0.238 -0.771,-7.09 -0.808,-19.848 0,-27.84 5.52,-2.122 16.93,-2.507 22.801,0.481 z"
     id="path357"
     inkscape:connector-curvature="0"
     style="fill:#a99a6f" />
  <path
     d="m 92.88,316.805 c 2.427,1.141 0.843,4.449 0.48,6.721 -1.584,-0.813 -2.523,-5.539 -0.96,-6.721 0.16,0 0.32,0 0.48,0 z"
     id="path359"
     inkscape:connector-curvature="0"
     style="fill:#a99a6f" />
  <path
     d="m 100.08,324.247 c 0.24,0 0.479,0 0.72,0 0.358,1.551 0.162,2.867 0.24,5.039 -2.061,0.123 -1.076,-3.746 -0.96,-5.039 z"
     id="path361"
     inkscape:connector-curvature="0" />
  <path
     d="m 90.96,319.924 c -2.861,4.08 3.456,6.15 4.8,2.641 -0.228,-1.223 -0.228,-1.896 0,-3.119 1.555,0.297 2.902,0.334 4.08,0.479 0.196,1.084 -0.463,3.023 0.48,3.361 1.548,-0.105 -0.17,-1.912 0.72,-3.121 1.088,0.955 0.476,2.947 0.479,4.561 0.021,7.104 -0.15,12.156 0,17.76 0.032,1.213 0.905,2.908 -0.479,3.84 -0.11,-1.168 0.251,-2.811 -0.24,-3.6 -1.479,0.121 -0.194,3.006 -0.96,3.84 -5.656,-0.26 -9.372,0.148 -13.92,-0.24 0.335,-1.801 -0.298,-1.912 0,-3.359 -1.631,-0.27 -0.727,1.994 -0.96,3.121 -1.271,-4.836 -0.276,-10.199 -0.48,-15.121 -0.158,-3.809 -0.604,-7.766 0.48,-11.039 0.112,0.848 -0.393,2.313 0.72,2.16 0.545,-0.256 0.091,-1.51 0.24,-2.16 1.605,-0.092 4.171,-1.355 5.04,-0.004 z m -5.28,6.243 c 0.27,-0.68 0.764,-3.639 -0.48,-3.602 -0.223,0.725 -0.797,3.603 0.48,3.602 z m 15.36,3.119 c -0.078,-2.172 0.118,-3.488 -0.24,-5.039 -0.239,0 -0.479,0 -0.72,0 -0.116,1.293 -1.101,5.162 0.96,5.039 z m -15.12,1.439 c -0.163,-0.906 1.129,-3.551 -0.96,-3.84 0.317,1.283 -0.807,4.006 0.96,3.84 z m 14.88,5.279 c 0.423,-1.146 0.367,-3.883 0,-5.039 -0.239,0 -0.479,0 -0.72,0 0.209,1.159 -0.704,4.422 0.72,5.039 z m -15.12,0.243 c 0.386,-1.152 0.93,-3.621 -0.48,-4.08 -0.204,0.845 -0.834,3.97 0.48,4.08 z m 15.12,5.517 c 0.39,-1.031 0.39,-3.527 0,-4.559 -0.239,0 -0.479,0 -0.72,0 0.052,1.547 -0.947,4.116 0.72,4.559 z m -15.12,0.483 c 0.609,-0.521 0.5,-3.406 -0.24,-4.563 -0.795,0.709 -0.802,4.154 0.24,4.563 z"
     id="path363"
     style="fill:#9b59b6;fill-opacity:1"
     inkscape:connector-curvature="0" />
</g>

</g>
        <text
           xml:space="preserve"
           style="font-size:137.50375366px;font-style:normal;font-variant:normal;font-weight:normal;font-stretch:normal;line-height:125%;letter-spacing:0px;word-spacing:0px;fill:#000000;fill-opacity:1;stroke:none;font-family:Futura Bk BT;-inkscape-font-specification:Futura Bk BT"
           x="-208.98528"
           y="526.85919"
           id="text4211"
           sodipodi:linespacing="125%"><tspan
             sodipodi:role="line"
             id="tspan4213"
             x="-208.98528"
             y="526.85919"
             style="font-style:normal;font-variant:normal;font-weight:300;font-stretch:normal;fill:#ffffff;fill-opacity:1;font-family:HelveticaNeueLT Com 25 UltLt;-inkscape-font-specification:HelveticaNeueLT Com 25 UltLt Light">Feature A</tspan></text>
        <text
           xml:space="preserve"
           style="font-size:137.50375366px;font-style:normal;font-variant:normal;font-weight:normal;font-stretch:normal;line-height:125%;letter-spacing:0px;word-spacing:0px;fill:#000000;fill-opacity:1;stroke:none;font-family:Futura Bk BT;-inkscape-font-specification:Futura Bk BT"
           x="-208.98528"
           y="1012.6483"
           id="text4211-2"
           sodipodi:linespacing="125%"><tspan
             sodipodi:role="line"
             id="tspan4213-3"
             x="-208.98528"
             y="1012.6483"
             style="font-style:normal;font-variant:normal;font-weight:300;font-stretch:normal;fill:#ffffff;fill-opacity:1;font-family:HelveticaNeueLT Com 25 UltLt;-inkscape-font-specification:HelveticaNeueLT Com 25 UltLt Light">Feature C</tspan></text>
        <text
           xml:space="preserve"
           style="font-size:137.50375366px;font-style:normal;font-variant:normal;font-weight:normal;font-stretch:normal;line-height:125%;letter-spacing:0px;word-spacing:0px;fill:#000000;fill-opacity:1;stroke:none;font-family:Futura Bk BT;-inkscape-font-specification:Futura Bk BT"
           x="1218.9673"
           y="796.99347"
           id="text4211-22"
           sodipodi:linespacing="125%"><tspan
             sodipodi:role="line"
             id="tspan4213-1"
             x="1218.9673"
             y="796.99347"
             style="font-style:normal;font-variant:normal;font-weight:300;font-stretch:normal;fill:#ffffff;fill-opacity:1;font-family:HelveticaNeueLT Com 25 UltLt;-inkscape-font-specification:HelveticaNeueLT Com 25 UltLt Light">Feature B</tspan></text>
        <text
           xml:space="preserve"
           style="font-size:137.50375366px;font-style:normal;font-variant:normal;font-weight:normal;font-stretch:normal;line-height:125%;letter-spacing:0px;word-spacing:0px;fill:#000000;fill-opacity:1;stroke:none;font-family:Futura Bk BT;-inkscape-font-specification:Futura Bk BT"
           x="1218.9673"
           y="1292.0334"
           id="text4211-6"
           sodipodi:linespacing="125%"><tspan
             sodipodi:role="line"
             id="tspan4213-8"
             x="1218.9673"
             y="1292.0334"
             style="font-style:normal;font-variant:normal;font-weight:300;font-stretch:normal;fill:#ffffff;fill-opacity:1;font-family:HelveticaNeueLT Com 25 UltLt;-inkscape-font-specification:HelveticaNeueLT Com 25 UltLt Light">Feature D</tspan></text>
        <text
           xml:space="preserve"
           style="font-size:137.50375366px;font-style:normal;font-variant:normal;font-weight:normal;font-stretch:normal;line-height:125%;letter-spacing:0px;word-spacing:0px;fill:#000000;fill-opacity:1;stroke:none;font-family:Futura Bk BT;-inkscape-font-specification:Futura Bk BT"
           x="-208.98528"
           y="1496.6515"
           id="text4211-5"
           sodipodi:linespacing="125%"><tspan
             sodipodi:role="line"
             id="tspan4213-7"
             x="-208.98528"
             y="1496.6515"
             style="font-style:normal;font-variant:normal;font-weight:300;font-stretch:normal;fill:#ffffff;fill-opacity:1;font-family:HelveticaNeueLT Com 25 UltLt;-inkscape-font-specification:HelveticaNeueLT Com 25 UltLt Light">Feature E</tspan></text>
        <path
           sodipodi:type="arc"
           style="color:#000000;fill:#ffffff;fill-opacity:1;fill-rule:nonzero;stroke:none;stroke-width:0.5;marker:none;visibility:visible;display:inline;overflow:visible;enable-background:accumulate"
           id="path4265"
           sodipodi:cx="122.85714"
           sodipodi:cy="478.07648"
           sodipodi:rx="120"
           sodipodi:ry="120"
           d="m 242.85714,478.07648 c 0,66.27417 -53.72583,120 -120,120 -66.27417,0 -120.0000004,-53.72583 -120.0000004,-120 0,-66.27417 53.7258304,-120 120.0000004,-120 66.27417,0 120,53.72583 120,120 z"
           transform="matrix(0.13417455,0,0,0.13417455,756.78511,357.83512)" />
        <path
           sodipodi:type="arc"
           style="color:#000000;fill:#ffffff;fill-opacity:1;fill-rule:nonzero;stroke:none;stroke-width:0.5;marker:none;visibility:visible;display:inline;overflow:visible;enable-background:accumulate"
           id="path4265-6"
           sodipodi:cx="122.85714"
           sodipodi:cy="478.07648"
           sodipodi:rx="120"
           sodipodi:ry="120"
           d="m 242.85714,478.07648 c 0,66.27417 -53.72583,120 -120,120 -66.27417,0 -120.0000004,-53.72583 -120.0000004,-120 0,-66.27417 53.7258304,-120 120.0000004,-120 66.27417,0 120,53.72583 120,120 z"
           transform="matrix(0.13417455,0,0,0.13417455,536.92041,1009.9897)" />
        <path
           sodipodi:type="arc"
           style="color:#000000;fill:#ffffff;fill-opacity:1;fill-rule:nonzero;stroke:none;stroke-width:0.5;marker:none;visibility:visible;display:inline;overflow:visible;enable-background:accumulate"
           id="path4265-1"
           sodipodi:cx="122.85714"
           sodipodi:cy="478.07648"
           sodipodi:rx="120"
           sodipodi:ry="120"
           d="m 242.85714,478.07648 c 0,66.27417 -53.72583,120 -120,120 -66.27417,0 -120.0000004,-53.72583 -120.0000004,-120 0,-66.27417 53.7258304,-120 120.0000004,-120 66.27417,0 120,53.72583 120,120 z"
           transform="matrix(0.13417455,0,0,0.13417455,707.27623,1292.3602)" />
        <path
           sodipodi:type="arc"
           style="color:#000000;fill:#ffffff;fill-opacity:1;fill-rule:nonzero;stroke:none;stroke-width:0.5;marker:none;visibility:visible;display:inline;overflow:visible;enable-background:accumulate"
           id="path4265-8"
           sodipodi:cx="122.85714"
           sodipodi:cy="478.07648"
           sodipodi:rx="120"
           sodipodi:ry="120"
           d="m 242.85714,478.07648 a 120,120 0 1 1 -240.0000004,0 120,120 0 1 1 240.0000004,0 z"
           transform="matrix(0.13417455,0,0,0.13417455,976.82878,1189.6801)" />
        <path
           sodipodi:type="arc"
           style="color:#000000;fill:#ffffff;fill-opacity:1;fill-rule:nonzero;stroke:none;stroke-width:0.5;marker:none;visibility:visible;display:inline;overflow:visible;enable-background:accumulate"
           id="path4265-9"
           sodipodi:cx="122.85714"
           sodipodi:cy="478.07648"
           sodipodi:rx="120"
           sodipodi:ry="120"
           d="m 242.85714,478.07648 a 120,120 0 1 1 -240.0000004,0 120,120 0 1 1 240.0000004,0 z"
           transform="matrix(0.13417455,0,0,0.13417455,977.97858,741.62096)" />
        <path
           sodipodi:type="arc"
           style="color:#000000;fill:#ffffff;fill-opacity:1;fill-rule:nonzero;stroke:none;stroke-width:0.5;marker:none;visibility:visible;display:inline;overflow:visible;enable-background:accumulate"
           id="path4265-2"
           sodipodi:cx="122.85714"
           sodipodi:cy="478.07648"
           sodipodi:rx="120"
           sodipodi:ry="120"
           d="m 242.85714,478.07648 a 120,120 0 1 1 -240.0000004,0 120,120 0 1 1 240.0000004,0 z"
           transform="matrix(0.13417455,0,0,0.13417455,333.21708,412.57754)" />
        <path
           sodipodi:type="arc"
           style="color:#000000;fill:#ffffff;fill-opacity:1;fill-rule:nonzero;stroke:none;stroke-width:0.5;marker:none;visibility:visible;display:inline;overflow:visible;enable-background:accumulate"
           id="path4265-7"
           sodipodi:cx="122.85714"
           sodipodi:cy="478.07648"
           sodipodi:rx="120"
           sodipodi:ry="120"
           d="m 242.85714,478.07648 a 120,120 0 1 1 -240.0000004,0 120,120 0 1 1 240.0000004,0 z"
           transform="matrix(0.13417455,0,0,0.13417455,337.88436,897.97493)" />
        <path
           sodipodi:type="arc"
           style="color:#000000;fill:#ffffff;fill-opacity:1;fill-rule:nonzero;stroke:none;stroke-width:0.5;marker:none;visibility:visible;display:inline;overflow:visible;enable-background:accumulate"
           id="path4265-95"
           sodipodi:cx="122.85714"
           sodipodi:cy="478.07648"
           sodipodi:rx="120"
           sodipodi:ry="120"
           d="m 242.85714,478.07648 a 120,120 0 1 1 -240.0000004,0 120,120 0 1 1 240.0000004,0 z"
           transform="matrix(0.13417455,0,0,0.13417455,319.21523,1378.7052)" />
        <path
           sodipodi:type="arc"
           style="color:#000000;fill:#ffffff;fill-opacity:1;fill-rule:nonzero;stroke:none;stroke-width:0.5;marker:none;visibility:visible;display:inline;overflow:visible;enable-background:accumulate"
           id="path4265-4"
           sodipodi:cx="122.85714"
           sodipodi:cy="478.07648"
           sodipodi:rx="120"
           sodipodi:ry="120"
           d="m 242.85714,478.07648 a 120,120 0 1 1 -240.0000004,0 120,120 0 1 1 240.0000004,0 z"
           transform="matrix(0.13417455,0,0,0.13417455,1165.9555,683.27994)" />
        <path
           sodipodi:type="arc"
           style="color:#000000;fill:#ffffff;fill-opacity:1;fill-rule:nonzero;stroke:none;stroke-width:0.5;marker:none;visibility:visible;display:inline;overflow:visible;enable-background:accumulate"
           id="path4265-3"
           sodipodi:cx="122.85714"
           sodipodi:cy="478.07648"
           sodipodi:rx="120"
           sodipodi:ry="120"
           d="m 242.85714,478.07648 a 120,120 0 1 1 -240.0000004,0 120,120 0 1 1 240.0000004,0 z"
           transform="matrix(0.13417455,0,0,0.13417455,1165.9555,1178.0119)" />
      </g>
      <flowRoot
         transform="matrix(3.3427963,0,0,3.3427963,1102.8949,800.19555)"
         style="font-size:28px;font-style:normal;font-variant:normal;font-weight:normal;font-stretch:normal;line-height:125%;letter-spacing:0px;word-spacing:0px;fill:#000000;fill-opacity:1;stroke:none;font-family:Futura Bk BT;-inkscape-font-specification:Futura Bk BT"
         id="flowRoot4384"
         xml:space="preserve"><flowRegion
           id="flowRegion4386"><rect
             y="-321.44528"
             x="-408.10162"
             height="379.81735"
             width="1264.7109"
             id="rect4388" /></flowRegion><flowPara
           style="font-size:72px;font-style:normal;font-variant:normal;font-weight:900;font-stretch:normal;fill:#ffffff;fill-opacity:1;font-family:HelveticaNeueLT Com 97 BlkCn;-inkscape-font-specification:HelveticaNeueLT Com 97 BlkCn Heavy"
           id="flowPara4390">Light Purse</flowPara></flowRoot>    </g>
  </g>
</svg>
