<?xml version="1.0" encoding="UTF-8" standalone="no"?>
<!-- Created with Inkscape (http://www.inkscape.org/) -->
<svg
   xmlns:svg="http://www.w3.org/2000/svg"
   xmlns="http://www.w3.org/2000/svg"
   version="1.0"
   width="500"
   height="500"
   id="svg2223">
  <defs
     id="defs2226" />
  <path
     d="M 233,482.41729 C 231.075,482.1928 225.225,481.52735 220,480.93853 C 163.08576,474.5247 104.8192,441.6971 67.840741,395.21143 C 12.161588,325.21711 1.4257403,228.46977 40.463692,148.5 C 52.507456,123.82819 65.959581,104.99362 85.4766,85.4766 C 111.81394,59.139256 141.54614,40.733456 176.5,29.128299 C 234.85022,9.7552354 297.59551,13.991811 352.59606,41.018343 C 421.80319,75.0258 468.7601,139.55521 480.6548,217 C 483.14004,233.18102 483.12948,268.1165 480.63455,284 C 464.50657,386.67593 385.39664,465.56213 283.5,480.57705 C 273.77902,482.00948 240.04417,483.23879 233,482.41729 z M 272.57632,477.91715 C 316.62368,473.55079 358.57505,456.34359 393.5,428.31786 C 411.61654,413.78014 429.7167,393.71383 442.96624,373.47828 C 449.51063,363.48326 460.77789,340.85473 464.94631,329.33476 C 486.39264,270.06492 482.92533,204.32934 455.44321,149.16875 C 442.8302,123.85261 429.31829,105.3623 408.86262,85.425739 C 375.1783,52.596253 335.30756,32.596222 286.00057,23.795463 C 275.2789,21.881762 270.08467,21.571805 249.5,21.617351 C 229.28346,21.662082 223.60827,22.015729 213.5,23.860679 C 164.0848,32.879879 125.36663,52.38129 91.124494,85.498277 C 54.333779,121.0801 31.295317,165.79694 23.355423,217.03565 C 20.883822,232.9857 20.858931,268.14673 23.308377,283.49214 C 31.1171,332.4126 52.213949,374.82091 85.924169,409.3607 C 104.99545,428.9013 123.36789,442.46607 146.93286,454.40472 C 185.61653,474.00291 229.40275,482.19689 272.57632,477.91715 z M 228.17549,467.92381 C 207.13766,465.89276 183.17517,459.56911 162.70256,450.64564 C 93.067779,420.29368 44.501972,356.62315 33.302374,281 C 30.916977,264.89306 30.921209,233.38375 33.310813,218.17837 C 44.613062,146.26062 88.582846,85.811922 152.68421,54.06645 C 173.82365,43.597381 194.47895,37.078909 218.33737,33.347395 C 233.82641,30.924873 266.25468,30.925415 281.90383,33.348458 C 382.38293,48.906185 458.04129,128.80535 467.98132,229.85595 C 473.24131,283.32923 457.80019,337.99147 425.21565,381.24828 C 378.96955,442.64116 304.69952,475.31163 228.17549,467.92381 z M 285.5,462.08821 C 393.05121,443.25676 468.54498,350.32841 464.70297,241.5 C 461.20678,142.46725 389.22838,58.355632 291.5,39.10064 C 240.00607,28.955017 185.48869,38.294806 140.79281,64.91944 C 125.54779,74.000661 114.17918,82.792429 100.64973,95.963568 C 70.761369,125.06037 51.549569,158.19468 41.532704,197.92182 C 36.979153,215.98132 35.545528,228.87568 35.575758,251.5 C 35.607474,275.23728 37.499676,289.17919 43.515405,310 C 66.275224,388.77315 133.42586,448.5561 214.12688,461.89219 C 231.61005,464.78134 232.33284,464.82847 254,464.49207 C 268.19592,464.27168 276.76405,463.61782 285.5,462.08821 z M 237.31717,457.49701 C 221.20571,453.99478 206.12646,442.78776 198.7054,428.80044 L 196.21203,424.10089 L 195.05311,428.70334 C 191.31581,443.54552 170.39557,446.40267 162.64369,433.12961 C 159.85732,428.35868 159.86114,419.59539 162.65166,414.86582 L 164.77756,411.26268 L 160.13878,412.77888 C 152.56963,415.25288 135.05528,414.98784 126.40749,412.26844 C 101.00942,404.28169 83.538485,378.84661 85.353548,352.5 C 85.656672,348.1 86.542026,342.41255 87.321001,339.86122 L 88.737321,335.22244 L 85.140603,337.34455 C 80.3057,340.19721 71.802658,340.23691 66.995306,337.42927 C 57.235591,331.72929 55.413521,317.38648 63.430653,309.36935 C 65.218955,307.58105 67.991136,305.82878 69.591055,305.47542 C 71.190975,305.12206 73.112488,304.64048 73.861084,304.40524 C 74.62231,304.16602 71.919197,301.82131 67.727691,299.08507 C 31.208475,275.24507 32.926698,220.95165 70.903446,198.73569 L 75.306893,196.15973 L 71.283994,195.07647 C 66.47266,193.78091 62.454093,190.80012 60.613669,187.1617 C 55.919463,177.88152 58.955436,166.66667 67.338296,162.32102 C 72.1568,159.82312 80.72579,160.0483 85.159924,162.78933 L 88.819847,165.05178 L 87.262383,160.27589 C 86.273549,157.24368 85.66751,151.4839 85.602459,144.5 C 85.517293,135.35659 85.911762,132.24263 87.939623,126.05027 C 96.287752,100.55808 121.19231,83.541166 147.5,85.353548 C 151.9,85.656672 157.58745,86.542026 160.13878,87.321001 L 164.77756,88.737321 L 162.72858,85.26455 C 159.89888,80.468573 159.82139,71.702826 162.56713,67.001474 C 168.26175,57.250942 182.0183,55.435956 190.38921,63.330737 C 192.29997,65.132819 194.15666,67.933119 194.51518,69.553625 C 194.87371,71.174131 195.35468,73.099873 195.58401,73.833051 C 195.81334,74.56623 198.29942,71.72963 201.10864,67.529497 C 220.82661,38.048697 260.75597,32.406945 288.17737,55.227267 C 291.62072,58.092855 296.26713,63.411047 299.04456,67.665642 L 303.8965,75.098071 L 304.95164,71.179583 C 307.15153,63.009834 312.98153,58.731812 322.09094,58.602857 C 332.44405,58.456295 339.24433,65.29881 339.39612,76.015523 C 339.45185,79.949938 338.86482,82.563941 337.34834,85.134184 L 335.22244,88.737321 L 339.86122,87.321001 C 342.41255,86.542026 348.1,85.656672 352.5,85.353548 C 378.84661,83.538485 404.28169,101.00942 412.26844,126.40749 C 414.98784,135.05528 415.25288,152.56963 412.77888,160.13878 L 411.26268,164.77756 L 414.73545,162.72858 C 420.12677,159.54763 428.5603,159.78148 433.81306,163.25759 C 446.39677,171.5851 443.21246,191.39968 428.70334,195.05311 L 424.10089,196.21203 L 428.80044,198.7054 C 440.628,204.98059 452.00049,218.82199 456.05492,231.8767 C 462.5965,252.93967 457.22748,275.71835 442.13355,290.93976 C 438.4851,294.61903 433.05904,299.01992 430.07564,300.71952 L 424.65128,303.80971 L 428.29694,304.81632 C 435.80179,306.88851 440.01188,311.51823 441.40889,319.23518 C 444.09376,334.06628 427.75932,344.82558 414.38134,337.03789 L 411.26268,335.22244 L 412.679,339.86122 C 413.45797,342.41255 414.34333,348.1 414.64645,352.5 C 417.05187,387.41586 387.41586,417.05187 352.5,414.64645 C 348.1,414.34333 342.41255,413.45797 339.86122,412.679 L 335.22244,411.26268 L 337.27142,414.73545 C 340.10112,419.53143 340.17861,428.29717 337.43287,432.99853 C 333.37701,439.94312 325.0738,443.17405 316.92303,440.97927 C 311.88219,439.62192 306.39019,434.55079 305.47542,430.40894 C 304.18114,424.54875 303.93911,424.52987 300.80583,430.04474 C 299.10116,433.04513 294.73486,438.425 291.10294,442 C 276.99868,455.88324 256.7424,461.71957 237.31717,457.49701 z M 260.56634,453.9243 C 281.24876,450.17481 300.17481,431.24876 303.9243,410.56634 C 305.45221,402.13826 305.35248,391.65612 303.75,392.24669 C 303.0625,392.50005 299.52648,393.6886 295.89217,394.8879 L 289.28434,397.06844 L 288.68412,404.22786 C 287.53023,417.99138 279.3202,429.76325 266.45933,436.09464 C 260.05546,439.24725 258.83384,439.5 250,439.5 C 241.28919,439.5 239.89354,439.22187 233.97897,436.30722 C 226.86006,432.79908 220.08127,426.68566 216.45133,420.5 C 213.68883,415.79251 211,406.11523 211,400.88027 L 211,397.18073 L 203.44885,394.64188 C 194.39995,391.59945 194.45853,391.53677 195.29351,403.3685 C 196.32884,418.03919 202.27683,430.41175 213.12069,440.45125 C 225.82169,452.21014 243.04436,457.10083 260.56634,453.9243 z M 181.91673,437.02388 C 186.56379,435.69112 189.8185,432.38777 191.07231,427.73145 C 193.94394,417.06702 184.82811,408.08429 174.073,410.98034 C 161.46157,414.37625 161.14936,433.22792 173.64255,436.97179 C 177.53604,438.13857 178.01944,438.14161 181.91673,437.02388 z M 173.83102,431.47048 C 170.02515,429.40361 168.41176,424.03822 170.42526,420.14452 C 173.90108,413.42304 183.59714,414.21927 185.97405,421.42138 C 187.37778,425.6747 185.53444,429.97983 181.52794,431.80531 C 178.21883,433.31305 177.13725,433.266 173.83102,431.47048 z M 181,427 C 182.1,425.9 183,424.55 183,424 C 183,423.45 182.1,422.1 181,421 C 179.9,419.9 178.55,419 178,419 C 177.45,419 176.1,419.9 175,421 C 173.9,422.1 173,423.45 173,424 C 173,424.55 173.9,425.9 175,427 C 176.1,428.1 177.45,429 178,429 C 178.55,429 179.9,428.1 181,427 z M 325.91673,437.02388 C 330.56379,435.69112 333.8185,432.38777 335.07231,427.73145 C 337.94394,417.06702 328.82811,408.08429 318.073,410.98034 C 305.46157,414.37625 305.14936,433.22792 317.64255,436.97179 C 321.53604,438.13857 322.01944,438.14161 325.91673,437.02388 z M 317.83102,431.47048 C 314.02515,429.40361 312.41176,424.03822 314.42526,420.14452 C 317.90108,413.42304 327.59714,414.21927 329.97405,421.42138 C 331.37778,425.6747 329.53444,429.97983 325.52794,431.80531 C 322.21883,433.31305 321.13725,433.266 317.83102,431.47048 z M 325,427 C 326.1,425.9 327,424.55 327,424 C 327,423.45 326.1,422.1 325,421 C 323.9,419.9 322.55,419 322,419 C 321.45,419 320.1,419.9 319,421 C 317.9,422.1 317,423.45 317,424 C 317,424.55 317.9,425.9 319,427 C 320.1,428.1 321.45,429 322,429 C 322.55,429 323.9,428.1 325,427 z M 265.36223,432.14244 C 276.39475,426.71115 283.63469,416.12031 284.75409,403.77532 C 285.25389,398.26348 285.1383,397.73295 283.56887,398.3352 C 282.6124,398.70223 279.39312,399.28892 276.41492,399.63895 C 271.4138,400.22673 270.99832,400.47499 270.97804,402.88768 C 270.94353,406.99218 267.6524,413.22 263.67011,416.7165 C 256.72609,422.81343 246.01769,423.46683 238.59424,418.24658 C 233.33481,414.54809 231.23574,411.47542 229.79295,405.36302 L 228.58039,400.22605 L 223.37528,399.61429 C 220.51247,399.27782 217.3876,398.70223 216.43113,398.3352 C 214.8617,397.73295 214.74611,398.26348 215.24591,403.77532 C 217.4866,428.48609 243.21166,443.04713 265.36223,432.14244 z M 257.64657,415.92905 C 262.12418,413.76147 265.59555,409.27223 266.57294,404.3853 L 267.15,401.5 L 250.075,401.5 C 237.582,401.5 233,401.81796 233,402.6849 C 233,405.13293 235.21865,409.59772 237.81362,412.37178 C 243.24294,418.17581 250.36615,419.45344 257.64657,415.92905 z M 191.54903,401.75 L 191.5,391.5 L 186,397.07623 C 182.975,400.14315 179.26286,403.51815 177.75079,404.57623 L 175.00158,406.5 L 179.51635,406.62503 C 182.57326,406.70969 185.23702,407.57828 187.76556,409.31492 C 189.8195,410.72559 191.52206,411.90683 191.54903,411.93989 C 191.576,411.97295 191.576,407.3875 191.54903,401.75 z M 319.08309,406.65613 L 324.47749,405.45822 L 320.75224,403.15589 C 318.70336,401.88961 315.10842,398.66405 312.7635,395.98798 L 308.5,391.1224 L 308.4535,401.44068 L 308.407,411.75897 L 311.04785,409.8065 C 312.50032,408.73264 316.11618,407.31498 319.08309,406.65613 z M 154.56634,409.9243 C 163.77613,408.25467 174.17929,402.76025 181.79875,395.54153 L 188.47344,389.21789 L 180.98096,385.51052 L 173.48849,381.80314 L 169.73429,385.34381 C 167.66947,387.29118 162.95653,390.37297 159.26107,392.19224 C 153.07956,395.23539 151.77872,395.5 143,395.5 C 134.28928,395.5 132.89255,395.22166 126.96838,392.3052 C 102.60033,380.30885 96.572352,349.16429 114.9716,330.32187 L 118.70358,326.5 L 115.10179,319.76697 C 113.12081,316.06381 110.98597,313.02631 110.35771,313.01697 C 108.25148,312.98568 98.247938,324.81621 95.166591,330.98254 C 81.333574,358.66485 92.632866,392.1512 120.28415,405.42041 C 131.28199,410.69802 142.30803,412.14659 154.56634,409.9243 z M 366.56634,409.9243 C 376.54359,408.11554 386.55985,402.64029 394.60007,394.60007 C 416.11788,373.08227 416.52129,340.34567 395.54153,318.20125 L 389.21789,311.52656 L 385.43679,319.16804 L 381.65568,326.80953 L 384.83491,329.98875 C 389.41989,334.57373 392.68719,340.61745 394.58438,348.02292 C 399.12153,365.73315 390.50885,383.70118 373.45933,392.09464 C 367.05546,395.24725 365.83384,395.5 357,395.5 C 348.27945,395.5 346.90015,395.22432 340.97897,392.2979 C 337.41554,390.53674 332.7802,387.41655 330.67822,385.36413 L 326.85644,381.63247 L 319.1915,385.42518 L 311.52656,389.21789 L 318.20125,395.54153 C 331.52726,408.16667 348.46972,413.205 366.56634,409.9243 z M 263.75,397.36971 C 264.9875,397.03808 266,396.28457 266,395.69525 C 266,393.24994 261.22352,387.83533 257.43428,385.98516 C 250.0243,382.36711 242.91506,383.91591 237.23438,390.38584 C 233.61063,394.51306 233.15624,396.63285 235.75,397.31067 C 238.41524,398.00717 261.19212,398.0552 263.75,397.36971 z M 282.25,394.41831 C 284.66363,393.65549 284.4672,392.2544 280.96372,385.24331 C 277.36448,378.0406 271.83511,372.75269 264.12001,369.13517 C 259.42931,366.93574 257.09447,366.5 250,366.5 C 242.87779,366.5 240.57664,366.93282 235.8035,369.17018 C 228.68784,372.50558 221.6161,379.47945 218.44677,386.28669 C 214.73882,394.25079 214.89933,394.50058 224.44621,395.62262 C 229.54665,396.22208 229.74467,396.15345 230.39539,393.56079 C 231.97381,387.27185 242.58736,380 250.18788,380 C 257.88482,380 266.41383,385.95951 269.58751,393.55519 C 270.91537,396.73322 270.95865,396.74953 275.71241,395.86362 C 278.34558,395.3729 281.2875,394.72251 282.25,394.41831 z M 212.62285,390.25 C 217.18917,371.25105 240.00517,358.16128 259.5,363.35609 C 272.19415,366.73872 282.60466,376.27221 286.53892,388.11718 C 288.35334,393.57988 288.04681,393.53197 298.5,389.98646 C 304.52285,387.94363 304.56758,387.13098 299.26978,376 C 295.08247,367.20222 284.61892,356.12591 276.32452,351.71105 C 269.66348,348.16557 257.24632,345 250,345 C 242.72468,345 230.30716,348.17491 223.68527,351.72815 C 215.8524,355.93118 204.92512,367.25019 201.06486,375.15946 C 199.27721,378.82216 197.74381,383.32216 197.6573,385.15946 C 197.50412,388.41249 197.67028,388.55801 204,390.7146 C 212.17604,393.50023 211.83728,393.51848 212.62285,390.25 z M 158.22937,388.20785 C 161.68869,386.50483 165.75185,383.82467 167.25862,382.25195 L 169.9982,379.39244 L 164.21379,375.31317 L 158.42939,371.2339 L 155.71305,373.5704 C 145.36168,382.47427 127.62468,377.00224 123.40053,363.60168 C 121.27216,356.84972 122.12466,350.50451 125.8505,345.3663 L 128.60272,341.57079 L 124.55136,335.6955 L 120.5,329.82021 L 117.12019,333.66011 C 115.26129,335.77205 112.56129,339.975 111.12019,343 C 108.93015,347.59708 108.5,349.89542 108.5,357 C 108.5,364.06676 108.93859,366.43508 111.10111,371.04563 C 119.75808,389.50247 140.36005,397.00488 158.22937,388.20785 z M 372.36223,388.14244 C 379.87371,384.44455 385.18684,378.96406 388.86483,371.12001 C 391.06585,366.4259 391.5,364.09615 391.5,356.97897 C 391.5,349.41686 391.14053,347.72776 388.30573,341.96945 C 386.54887,338.40078 383.82306,334.2466 382.24836,332.73794 L 379.38527,329.99493 L 375.40548,335.76227 L 371.4257,341.52961 L 374.23112,345.52123 C 387.10841,363.84338 363.88661,387.04244 345.5148,374.20943 L 341.52961,371.4257 L 335.76785,375.40164 L 330.00608,379.37757 L 332.25304,381.78395 C 335.14168,384.87753 341.91651,388.85472 347.28604,390.60913 C 354.30393,392.90211 364.78903,391.87071 372.36223,388.14244 z M 193.97029,378.72579 C 203.5943,357.50049 199.213,333.90168 182.60007,317.4829 C 178.69503,313.6235 173.17104,309.22617 170.32452,307.71105 C 163.66348,304.16557 151.24632,301 144,301 C 133.89146,301 114.9547,307.05932 115.02812,310.27032 C 115.07606,312.3674 121.53169,323.51449 122.54324,323.24689 C 123.06946,323.10767 126.65,321.88179 130.5,320.5227 C 144.73639,315.49712 159.25067,318.7473 170.21764,329.41666 C 181.49087,340.38399 184.98251,358.62129 178.51409,372.75019 C 177.11551,375.80509 176.09019,378.40719 176.23561,378.53263 C 177.3895,379.52804 188.78134,384.91411 189.81272,384.9519 C 190.53471,384.97836 192.40562,382.1766 193.97029,378.72579 z M 317.27852,381.88148 C 320.70033,380.1663 323.59682,378.68198 323.71515,378.58299 C 323.83349,378.48401 322.81792,375.64904 321.45835,372.28307 C 312.52984,350.17832 323.36547,326.90938 345.81664,319.97491 C 355.70744,316.91996 365.8691,317.77523 374.84293,322.41796 C 376.68154,323.36919 378.31571,324.00179 378.47441,323.82374 C 379.33675,322.85624 385,310.90167 385,310.04884 C 385,307.0236 365.6954,301 356,301 C 348.72468,301 336.30716,304.17491 329.68527,307.72815 C 322.10851,311.79376 310.95497,323.24799 307.22703,330.79186 C 302.7715,339.80808 300.59067,350.56222 301.32224,359.90967 C 302.1091,369.96349 307.34211,385 310.0542,385 C 310.60576,385 313.8567,383.59667 317.27852,381.88148 z M 177.5,356.97897 C 177.5,349.38117 177.14682,347.74054 174.24032,341.83659 C 170.44662,334.13049 165.02541,328.84193 157.12001,325.13517 C 149.3792,321.50558 137.04763,321.39858 129.25,324.89333 C 126.3625,326.18746 124,327.4545 124,327.70897 C 124,327.96345 125.6875,330.60575 127.75,333.58075 C 130.28109,337.23165 131.98756,338.80695 133,338.42719 C 139.31873,336.05703 143.20929,335.6409 147.75,336.84952 C 153.90008,338.48653 156.38438,340.16748 159.97095,345.1186 C 164.44368,351.29301 165.01315,359.1085 161.57509,367.13387 C 161.0444,368.37266 162.28066,369.65083 166.68757,372.4197 L 172.5,376.07165 L 175,370.78582 C 177.05752,366.43555 177.5,363.99185 177.5,356.97897 z M 332.77178,372.75 C 335.31945,370.9625 337.77153,369.24319 338.22085,368.9293 C 338.67018,368.61542 338.31899,366.36542 337.44044,363.9293 C 333.25603,352.32646 339.92207,340.15284 352.26811,336.85078 C 356.79175,335.64089 360.68149,336.05711 367,338.42719 C 368.01244,338.80695 369.71891,337.23165 372.25,333.58075 C 374.3125,330.60575 376,327.96345 376,327.70897 C 376,327.4545 373.6375,326.18746 370.75,324.89333 C 362.91661,321.38255 350.62415,321.50433 342.8035,325.17018 C 335.53672,328.57642 328.57642,335.53672 325.17018,342.8035 C 321.50433,350.62415 321.38255,362.91661 324.89333,370.75 C 326.18746,373.6375 327.44729,376 327.69297,376 C 327.93864,376 330.22411,374.5375 332.77178,372.75 z M 149.28212,372.56729 C 155.60566,369.75184 155.73241,370.05894 142.98587,357.3124 L 130.93749,345.26402 L 128.99502,347.73346 C 124.68667,353.21064 125.2495,361.9367 130.28073,367.66695 C 135.60211,373.72766 142.61425,375.53605 149.28212,372.56729 z M 365.03998,371.69726 C 372.51223,367.74584 375.88665,358.44921 372.6549,350.71788 C 370.03012,344.43858 369.04044,344.54972 362.7025,351.83549 C 359.51388,355.50097 354.2606,360.74512 351.02854,363.48915 C 344.61733,368.93229 344.55411,370.02291 350.49961,372.61409 C 355.02457,374.58615 360.1933,374.26025 365.03998,371.69726 z M 159.1118,362.25 C 160.64193,358.28893 159.61743,351.53163 156.87164,347.47457 C 154.16349,343.47311 147.8338,340 143.24938,340 C 139.35229,340 135,341.60039 135,343.03339 C 135,344.44691 155.55309,365 156.96661,365 C 157.5622,365 158.52754,363.7625 159.1118,362.25 z M 220.03519,349.32419 C 223.04083,347.63657 227.66187,345.4528 230.30416,344.47135 L 235.10833,342.68691 L 228.85322,339.34486 C 225.41291,337.50674 221.22604,334.70868 219.54906,333.12696 C 217.19482,330.90645 215.18587,330.10612 210.7332,329.61484 C 205.64198,329.05312 201.16991,327.83807 195.89506,325.58337 C 194.68385,325.06565 194.99302,326.32056 197.1553,330.69868 C 200.85594,338.19161 203.25773,349.77977 202.81386,358.00005 L 202.46287,364.50009 L 208.51662,358.44634 C 211.84619,355.11678 217.02954,351.01181 220.03519,349.32419 z M 297.20027,358.25 C 296.74538,349.84027 298.9953,338.85706 302.79444,330.94142 C 304.97878,326.39028 305.29916,325.07223 304.09601,325.5868 C 298.83637,327.83628 294.35563,329.05338 289.2668,329.61484 C 284.81413,330.10612 282.80518,330.90645 280.45094,333.12696 C 278.77396,334.70868 274.60765,337.49575 271.19248,339.32045 L 264.98307,342.63808 L 271.51154,345.31912 C 280.58092,349.04364 285.57189,352.39 291.98452,359.0459 C 295.01803,362.19449 297.51471,364.82223 297.53269,364.88531 C 297.55067,364.94839 297.40108,361.9625 297.20027,358.25 z M 354.63517,354.4811 C 360.42057,348.69571 364.97273,343.40821 364.75109,342.7311 C 364.16118,340.92895 357.86583,339.61499 353.62929,340.40977 C 346.66914,341.7155 340,349.78593 340,356.90278 C 340,360.6681 341.62282,365 343.03339,365 C 343.62898,365 348.84978,360.2665 354.63517,354.4811 z M 265.10279,338.1161 C 268.18433,336.9338 272.44058,334.46667 274.56113,332.6336 L 278.41667,329.30075 L 274.5201,328.56975 C 268.85768,327.50747 259.49967,322.50177 254.41608,317.81588 L 250,313.74528 L 245.58392,317.81588 C 240.55546,322.45096 231.15725,327.50467 225.64184,328.53937 C 221.99075,329.22432 221.94737,329.28436 223.70239,331.22364 C 231.72039,340.08343 251.42498,343.36391 265.10279,338.1161 z M 79.91673,335.02388 C 84.563788,333.69112 87.818497,330.38777 89.072313,325.73145 C 91.943945,315.06702 82.828115,306.08429 72.073001,308.98034 C 59.461572,312.37625 59.149365,331.22792 71.64255,334.97179 C 75.53604,336.13857 76.019436,336.14161 79.91673,335.02388 z M 71.831022,329.47048 C 68.025153,327.40361 66.411757,322.03822 68.425264,318.14452 C 71.901078,311.42304 81.597144,312.21927 83.974052,319.42138 C 85.377777,323.6747 83.534443,327.97983 79.527942,329.80531 C 76.218829,331.31305 75.137247,331.266 71.831022,329.47048 z M 79,325 C 80.1,323.9 81,322.55 81,322 C 81,320.70306 77.296935,317 76,317 C 74.703065,317 71,320.70306 71,322 C 71,322.55 71.9,323.9 73,325 C 74.1,326.1 75.45,327 76,327 C 76.55,327 77.9,326.1 79,325 z M 427.91673,335.02388 C 432.56379,333.69112 435.8185,330.38777 437.07231,325.73145 C 439.94394,315.06702 430.82811,306.08429 420.073,308.98034 C 407.46157,312.37625 407.14936,331.22792 419.64255,334.97179 C 423.53604,336.13857 424.01944,336.14161 427.91673,335.02388 z M 419.83102,329.47048 C 416.02515,327.40361 414.41176,322.03822 416.42526,318.14452 C 419.90108,311.42304 429.59714,312.21927 431.97405,319.42138 C 433.37778,323.6747 431.53444,327.97983 427.52794,329.80531 C 424.21883,331.31305 423.13725,331.266 419.83102,329.47048 z M 427,325 C 428.1,323.9 429,322.55 429,322 C 429,321.45 428.1,320.1 427,319 C 425.9,317.9 424.55,317 424,317 C 423.45,317 422.1,317.9 421,319 C 419.9,320.1 419,321.45 419,322 C 419,322.55 419.9,323.9 421,325 C 422.1,326.1 423.45,327 424,327 C 424.55,327 425.9,326.1 427,325 z M 209.96817,319.74567 C 206.87207,313.12947 205,305.26079 205,298.86351 L 205,295 L 200.54922,295 C 193.89294,295 186.19144,293.0969 179.75,289.86034 C 172.94895,286.4431 172.76744,286.79878 175.98926,297.2298 C 180.05507,310.39338 190.85363,320.85764 204.02424,324.39691 C 213.29141,326.88722 213.30509,326.87652 209.96817,319.74567 z M 227.31497,323.98444 C 233.8442,321.96776 242.81874,316.13149 245.68652,312.03716 C 247.08588,310.03931 246.9908,309.37089 244.52605,303.8787 C 238.90298,291.34882 238.89212,277.43251 244.49637,265.81548 C 247.34389,259.91285 247.50975,259 245.73472,259 C 245.03881,259 243.64508,261.3625 242.63752,264.25 C 240.18358,271.28265 235.82332,277.98637 230.52879,282.8667 C 226.1099,286.93989 216.77483,292.1637 211.75,293.37512 C 209.13725,294.00502 209,294.33135 209,299.91372 C 209,309.92279 215.42855,326 219.43072,326 C 220.17795,326 223.72587,325.093 227.31497,323.98444 z M 285.17684,320.99381 C 288.54749,315.49529 291,306.36237 291,299.30895 C 291,294.38633 290.81832,293.9943 288.25,293.37512 C 283.00529,292.11069 273.7232,286.82124 269.0059,282.40875 C 264.26584,277.97498 259.29968,269.8141 257.04291,262.75 C 256.384,260.6875 255.20479,259 254.42245,259 C 252.44463,259 252.63247,260.33676 255.37562,265.78324 C 261.46068,277.86502 261.45616,291.81814 255.36301,304.69799 C 252.55241,310.63911 252.63209,310.93205 258.5,316.23025 C 263.7739,320.9921 276.41849,326.31726 280.96105,325.68952 C 281.76463,325.57847 283.66174,323.4654 285.17684,320.99381 z M 297.31497,323.98444 C 312.07545,319.42539 322.7193,306.87947 325.57691,290.67204 L 326.25183,286.84409 L 320.37592,289.79678 C 313.81881,293.09178 306.14476,295 299.45078,295 L 295,295 L 294.97555,300.25 C 294.94249,307.35071 293.4514,313.37484 290.02515,320.25 C 286.64335,327.03597 286.94121,327.18856 297.31497,323.98444 z M 406.44435,323.63429 C 405.67678,320.57604 407.47881,313.9323 409.91645,310.83334 L 411.82612,308.40559 L 401.47426,308.4528 L 391.1224,308.5 L 395.96544,312.74378 C 398.62911,315.07786 402.08907,319.01455 403.65424,321.49199 C 405.21941,323.96943 406.62107,325.99723 406.76905,325.99821 C 406.91703,325.9992 406.77091,324.93543 406.44435,323.63429 z M 103.48975,313.5 L 108.63834,308.5 L 98.488095,308.45452 L 88.337851,308.40903 L 90.550036,311.66887 C 91.766738,313.46178 93.083737,317.07272 93.4767,319.69319 L 94.191178,324.45767 L 96.26617,321.47883 C 97.407416,319.84048 100.65803,316.25 103.48975,313.5 z M 173.07752,300.4404 C 172.04626,297.72318 170.88155,292.8 170.48927,289.5 C 169.93506,284.83778 169.1318,282.82017 166.88661,280.45094 C 165.29743,278.77396 162.49251,274.58568 160.65347,271.14366 L 157.30975,264.88544 L 155.12807,270.86891 C 152.29889,278.62821 146.13369,287.79537 140.09031,293.2289 L 135.28501,297.54927 L 141.8925,297.19222 C 150.15689,296.74562 160.69847,298.91815 168.50474,302.67676 C 171.80213,304.26441 174.60182,305.5223 174.72627,305.47209 C 174.85072,305.42188 174.10878,303.15761 173.07752,300.4404 z M 253.1083,300.25 C 256.34947,291.97438 256.3588,277.81703 253.12844,269.70207 C 250.43736,262.94182 249.44562,263.16352 246.46882,271.19084 C 243.60975,278.90067 243.79529,292.5028 246.8652,300.25 C 248.11837,303.4125 249.52903,306 250,306 C 250.47097,306 251.8697,303.4125 253.1083,300.25 z M 344.23931,298.36601 C 348.25209,297.51995 354.40763,297.00649 358,297.21818 L 364.5,297.6012 L 358.4738,291.52034 C 352.01007,284.99799 348.68704,279.8848 344.96352,270.73191 L 342.61698,264.96382 L 340.28764,269.86481 C 339.0065,272.56035 336.23807,276.73099 334.13557,279.1329 C 330.87729,282.85518 330.21978,284.40759 329.68256,289.64669 C 329.33589,293.02736 328.18732,297.98775 327.13016,300.66978 L 325.20806,305.54619 L 331.09334,302.72152 C 334.33025,301.16796 340.24594,299.20798 344.23931,298.36601 z M 107.21167,304.45499 C 107.51143,304.15524 106.72996,300.66774 105.47508,296.70499 L 103.19348,289.5 L 95.84674,288.75764 C 72.97288,286.44633 56.370919,264.63292 60.877963,242.81197 C 64.587061,224.8543 78.237477,212.97743 97.347856,211.08048 L 103.19571,210.5 L 105.4762,203.29501 C 106.73046,199.33226 107.51143,195.84476 107.21167,195.54501 C 105.96038,194.29372 93.769606,195.14075 86.58544,196.97815 C 75.972326,199.69253 69.752937,203.28259 61.427928,211.5 C 39.004121,233.63399 39.758574,268.82205 63.12069,290.45125 C 69.699239,296.54183 80.736288,302.35991 88.5,303.82972 C 94.083804,304.88684 106.36929,305.29737 107.21167,304.45499 z M 410.56634,303.9243 C 420.54359,302.11554 430.55985,296.64029 438.60007,288.60007 C 460.53334,266.6668 460.53334,233.15985 438.60007,211.4829 C 430.30674,203.28649 424.09718,199.7103 413.41456,196.97815 C 406.23039,195.14075 394.03962,194.29372 392.78833,195.54501 C 392.48857,195.84476 393.26954,199.33226 394.5238,203.29501 L 396.80429,210.5 L 402.65214,211.10846 C 410.8565,211.96211 415.82136,213.50036 421.01538,216.79789 C 430.40835,222.7612 435.81627,230.21791 438.58438,241.02292 C 444.41472,263.78097 427.89764,286.69973 404.23645,288.6834 L 397.08561,289.2829 L 394.63616,296.56814 C 393.28897,300.57502 392.4447,304.11137 392.76002,304.42669 C 393.70514,305.3718 404.21791,305.07519 410.56634,303.9243 z M 124,299.22917 C 134.29861,294.3833 144.33474,284.36511 149.27437,274 C 159.71931,252.08276 155.69136,228.46704 138.60007,211.4171 C 131.02754,203.86288 120.85911,197.94522 114.95636,197.6573 C 111.82567,197.50459 111.66268,197.70242 109.36688,204.44164 C 106.9369,211.57474 107.19597,212.93144 111,212.99407 C 113.40071,213.0336 122.17277,218.45891 126.21764,222.40581 C 143.65,239.41599 140.85938,268.98318 120.57677,282.17194 C 117.31899,284.29031 112.94015,286.53686 110.846,287.16429 C 106.56189,288.44784 106.54282,288.7737 110.17401,298.64761 C 112.39137,304.67703 112.41953,304.67821 124,299.22917 z M 391.01901,295.09781 C 392.12447,291.5766 392.90993,288.61894 392.76447,288.52523 C 392.61901,288.43152 390.37622,287.56803 387.78049,286.60636 C 373.89942,281.46369 363.94456,268.33045 362.34781,253.05356 C 360.59077,236.24314 371.91697,218.84192 388.11821,213.46074 C 390.80319,212.56893 393,211.56986 393,211.24058 C 393,210.9113 391.9978,207.53017 390.7729,203.72696 L 388.54579,196.81202 L 385.04744,197.37973 C 373.86693,199.19408 357.20164,212.70163 351.22703,224.79186 C 336.25424,255.09081 350.58268,290.84586 382.15277,301.96366 C 388.32686,304.13794 388.13401,304.28727 391.01901,295.09781 z M 206.63358,288.25 C 209.99375,274.49297 222.4862,261.7595 237.25,257.04291 C 239.3125,256.384 241,255.20479 241,254.42245 C 241,252.42716 239.65698,252.63339 234.00751,255.49619 C 222.75007,261.20077 207.41304,261.12352 195.54412,255.30245 L 190.00015,252.58344 L 185.61619,256.88597 C 183.20501,259.25236 180.07019,263.56168 178.64994,266.46223 C 175.83649,272.20804 173.62473,280.58378 174.53287,282.05319 C 175.67657,283.90374 183.68499,287.96212 189.02424,289.39691 C 192.03591,290.20622 197.07893,290.89799 200.23095,290.93419 C 205.67551,290.99671 205.99546,290.86258 206.63358,288.25 z M 312.14466,289.02637 C 319.16658,286.84574 326,282.67472 326,280.56928 C 326,276.63043 321.49224,265.56614 317.92682,260.75369 C 312.06039,252.83542 310.47563,252.21855 304.18677,255.40536 C 292.91613,261.11662 277.15783,261.1541 265.99249,255.49619 C 260.30614,252.6147 259,252.42506 259,254.48095 C 259,255.29547 260.2375,256.2532 261.75,256.60924 C 267.3385,257.92477 278.04888,264.34485 282.38049,268.97569 C 286.81721,273.7189 292.10795,282.99391 293.37512,288.25 C 294.00502,290.86275 294.33135,291 299.91372,291 C 303.1453,291 308.64923,290.11187 312.14466,289.02637 z M 220.56763,285.49631 C 228.40973,280.93316 236.8136,270.7646 238.54,263.75 C 239.35432,260.4413 238.66981,260.35531 232.51574,262.99325 C 226.20226,265.69953 216.92472,274.77424 213.66461,281.43226 C 212.19907,284.42527 211,287.40121 211,288.04546 C 211,289.6549 215.46549,288.46514 220.56763,285.49631 z M 288.54,286.25 C 286.1816,276.6675 273.26016,263.80224 263.60527,261.42368 C 260.8154,260.73637 260.73637,260.8154 261.42368,263.60527 C 263.32393,271.31863 272.85723,282.25499 281.38524,286.50468 C 288.02292,289.81238 289.40465,289.76319 288.54,286.25 z M 101.58918,282.49931 C 101.24399,281.12393 100.6899,278.01674 100.35789,275.59443 C 99.76695,271.28306 99.661901,271.17639 95.373883,270.53336 C 89.823408,269.70101 83.14046,264.73469 80.5,259.48008 C 77.622722,253.75418 77.787863,244.69735 80.86019,239.72622 C 84.040349,234.58061 88.768016,231.19478 94.760216,229.77137 C 99.678266,228.60312 99.798665,228.48555 100.37381,224.28945 C 100.69707,221.93101 101.26117,218.80758 101.62738,217.34851 L 102.29321,214.69564 L 96.205221,215.24767 C 83.902145,216.36328 72.498172,224.43691 67.170182,235.8035 C 64.932816,240.57664 64.5,242.87779 64.5,250 C 64.5,257.06676 64.938589,259.43508 67.101113,264.04563 C 72.990505,276.60195 84.966967,284.73524 97.858408,284.9331 C 102.01983,284.99698 102.18845,284.88698 101.58918,282.49931 z M 416.49808,281.07556 C 423.88093,277.441 429.20495,271.92544 432.86483,264.12001 C 435.06585,259.4259 435.5,257.09615 435.5,249.97897 C 435.5,242.38117 435.14682,240.74054 432.24032,234.83659 C 426.7123,223.60759 416.20703,216.37318 403.79478,215.24767 L 397.70679,214.69564 L 398.37262,217.34851 C 398.73883,218.80758 399.30293,221.93101 399.62619,224.28945 C 400.20361,228.50213 400.30436,228.59886 405.35697,229.79151 C 411.47005,231.23448 414.53627,233.32651 418.26827,238.60066 C 426.17167,249.76996 420.02376,266.60994 406.80667,269.99557 C 404.438,270.60231 402.00056,271.26321 401.39013,271.46422 C 400.7797,271.66522 399.97597,274.12349 399.60407,276.92702 C 399.23217,279.73056 398.64438,282.76315 398.29788,283.66613 C 397.22249,286.46855 408.92765,284.80247 416.49808,281.07556 z M 114.75669,280.96372 C 121.9594,277.36448 127.24731,271.83511 130.86483,264.12001 C 133.06426,259.42931 133.5,257.09447 133.5,250 C 133.5,242.90553 133.06426,240.57069 130.86483,235.87999 C 127.24731,228.16489 121.9594,222.63552 114.75669,219.03628 C 105.78527,214.55321 105.52405,214.68984 104.37497,224.46668 L 103.75247,229.7632 L 107.36015,230.95384 C 111.69723,232.38521 117.62744,238.9995 118.9984,243.93465 C 121.96984,254.63109 116.93637,265.20529 106.87208,269.40936 L 103.24417,270.92482 L 104.13638,275.71241 C 105.95319,285.46128 105.85421,285.41234 114.75669,280.96372 z M 394.39428,282.41492 C 394.72881,281.54312 395.28157,278.45561 395.62262,275.55379 C 396.20645,270.58636 396.10244,270.24253 393.84454,269.67583 C 392.52554,269.34478 389.56229,267.46123 387.25952,265.49015 C 376.10705,255.94404 378.63506,238.05823 392.0841,231.35608 L 396.6682,229.07165 L 395.68168,222.94596 C 395.1391,219.57682 394.10677,216.59446 393.38761,216.3185 C 391.03843,215.41703 381.21086,220.73651 376.47368,225.47368 C 369.35573,232.59164 366.5,239.61417 366.5,250 C 366.5,257.09447 366.93574,259.42931 369.13517,264.12001 C 372.75269,271.83511 378.0406,277.36448 385.24331,280.96372 C 392.16582,284.42294 393.5401,284.64088 394.39428,282.41492 z M 174.85495,264.98113 C 176.03636,262.49575 179.07311,258.09577 181.60329,255.2034 L 186.2036,249.94455 L 182.17284,245.57169 C 177.57832,240.58722 174.39652,234.8425 172.01812,227.2374 L 170.37231,221.97479 L 168.26097,224.2374 C 165.14133,227.58053 161.19964,235.97066 159.8986,242.03721 C 157.59606,252.77357 160.69571,266.54308 167.18662,274.41271 L 170.41384,278.32542 L 171.56039,273.91271 C 172.19098,271.48572 173.67354,267.46651 174.85495,264.98113 z M 338.16338,265.10279 C 339.86336,260.76735 340.36892,257.35111 340.39838,250 C 340.44247,238.99849 338.19004,231.86672 332.64562,225.45278 L 329.32479,221.61114 L 328.7428,225.19754 C 327.82353,230.86233 323.31317,239.43538 318.34492,244.96126 L 313.7804,250.0381 L 317.83345,254.43514 C 322.50379,259.50186 327.50887,268.86513 328.56975,274.5201 L 329.30075,278.41667 L 332.6336,274.56113 C 334.46667,272.44058 336.95507,268.18433 338.16338,265.10279 z M 98.5,250.00108 C 98.5,231.48863 98.641142,231.86962 92.702258,234.35104 C 85.474723,237.3709 80.982255,245.76142 82.438033,253.52138 C 83.223199,257.70668 88.259556,263.76685 92.481407,265.60643 C 98.637061,268.28862 98.5,268.644 98.5,250.00108 z M 410.56435,263.96023 C 420.99024,257.51667 419.73966,240.50522 408.43428,234.98516 C 401.27999,231.49195 401.5,231.01321 401.5,250.07389 L 401.5,267.14821 L 404.3853,266.57204 C 405.97221,266.25515 408.75278,265.07984 410.56435,263.96023 z M 108.56101,263.96229 C 115.89066,259.43232 117.99301,247.99619 112.87164,240.51381 C 110.31031,236.77167 104.57089,233.0959 103.28948,234.37698 C 102.26954,235.39666 101.58721,257.9861 102.43917,262.52747 C 103.19369,266.54936 104.05023,266.75011 108.56101,263.96229 z M 397.375,262.875 C 398.1706,258.897 398.16669,239.22392 397.36971,236.25 C 396.47701,232.91889 394.24483,233.49202 389.45458,238.28226 C 384.74781,242.98903 383.30257,247.46882 384.47487,253.71774 C 385.22385,257.71017 392.49202,266 395.24342,266 C 396.13079,266 397.00688,264.71561 397.375,262.875 z M 230.25,253.06102 C 233.4125,251.84843 236,250.47097 236,250 C 236,249.52903 233.4125,248.13696 230.25,246.9065 C 221.8871,243.65267 208.77252,243.63756 200.25,246.87193 C 196.8125,248.17648 194,249.60177 194,250.03922 C 194,250.89341 200.79778,253.69789 206.19611,255.07082 C 211.75437,256.48443 223.98732,255.46232 230.25,253.06102 z M 300.25,253.06102 C 303.4125,251.84843 306,250.47097 306,250 C 306,249.52903 303.4125,248.13696 300.25,246.9065 C 291.8871,243.65267 278.77252,243.63756 270.25,246.87193 C 266.8125,248.17648 264,249.60177 264,250.03922 C 264,250.89341 270.79778,253.69789 276.19611,255.07082 C 281.75437,256.48443 293.98732,255.46232 300.25,253.06102 z M 253.17126,253.34501 C 255.44045,251.29143 255.49606,249.20562 253.34501,246.82874 C 251.29143,244.55955 249.20562,244.50394 246.82874,246.65499 C 244.55955,248.70857 244.50394,250.79438 246.65499,253.17126 C 248.70857,255.44045 250.79438,255.49606 253.17126,253.34501 z M 198.66845,243.56876 C 210.05511,238.80181 223.52154,239.19016 234.18343,244.59295 C 239.69385,247.38529 241,247.56275 241,245.51905 C 241,244.70453 239.7625,243.73976 238.25,243.37512 C 233.00529,242.11069 223.7232,236.82124 219.0059,232.40875 C 214.23724,227.94823 209.3002,219.8123 207.00275,212.62833 L 205.76459,208.75666 L 198.13229,209.25366 C 189.9099,209.78909 181.18919,212.67927 176.49005,216.42623 L 173.62489,218.71084 L 175.41373,225.31934 C 177.36231,232.51799 180.88662,238.64433 186.05558,243.81817 C 189.65544,247.42144 189.45626,247.42537 198.66845,243.56876 z M 268.66845,243.56876 C 280.12881,238.77096 293.51978,239.18927 304.36269,244.68379 C 310.34771,247.71663 311.96513,247.1294 317.45521,239.93033 C 321.67294,234.39968 324.7284,227.10681 325.18755,221.47454 C 325.4799,217.88836 325.21056,217.4626 321,214.85512 C 315.57828,211.49762 306.41754,209 299.52462,209 L 294.46944,209 L 292.63752,214.25 C 290.18358,221.28265 285.82332,227.98637 280.52879,232.8667 C 276.1099,236.93989 266.77483,242.1637 261.75,243.37512 C 260.17423,243.75501 259,244.72026 259,245.63568 C 259,247.47129 259.70826,247.31988 268.66845,243.56876 z M 246.6922,239.25 C 246.39461,238.2875 245.015,234.78841 243.62639,231.47423 C 238.81248,219.98496 239.20251,206.96305 244.70887,195.33345 C 246.97012,190.55761 247.05402,189.91522 245.67387,187.94477 C 243.14925,184.34037 234.30966,178.25951 229.26173,176.65468 C 219.03381,173.40301 218.36619,173.45374 215.73496,177.68264 C 211.72266,184.13117 209.81851,190.16211 209.25828,198.19601 L 208.72161,205.89203 L 211.61081,206.57431 C 217.3314,207.92523 228.00584,214.29883 232.38049,218.97569 C 236.81721,223.7189 242.10795,232.99391 243.37512,238.25 C 243.75501,239.82577 244.72026,241 245.63568,241 C 246.69664,241 247.05152,240.41218 246.6922,239.25 z M 256.63358,238.25 C 259.99375,224.49297 272.4862,211.7595 287.25,207.04291 L 291,205.8449 L 291,200.02778 C 291,193.03859 288.03018,182.93063 284.42732,177.65729 C 282.00978,174.11885 281.52805,173.86596 278.34323,174.46343 C 270.80434,175.87774 263.55259,179.50325 258.08718,184.59044 L 252.52239,189.77012 L 255.25788,195.63506 C 261.49418,209.00583 261.56095,221.59661 255.46391,234.48471 C 252.58208,240.5764 252.51817,241 254.48095,241 C 255.29547,241 256.26416,239.7625 256.63358,238.25 z M 238.54,236.25 C 236.1816,226.6675 223.26016,213.80224 213.60527,211.42368 C 210.8154,210.73637 210.73637,210.8154 211.42368,213.60527 C 213.32393,221.31863 222.85723,232.25499 231.38524,236.50468 C 238.02292,239.81238 239.40465,239.76319 238.54,236.25 z M 270.56763,235.49631 C 278.40973,230.93316 286.8136,220.7646 288.54,213.75 C 289.35432,210.4413 288.66981,210.35531 282.51574,212.99325 C 276.20226,215.69953 266.92472,224.77424 263.66461,231.43226 C 262.19907,234.42527 261,237.40121 261,238.04546 C 261,239.6549 265.46549,238.46514 270.56763,235.49631 z M 253.1083,230.25 C 256.34947,221.97438 256.3588,207.81703 253.12844,199.70207 C 250.43736,192.94182 249.44562,193.16352 246.46882,201.19084 C 243.60975,208.90067 243.79529,222.5028 246.8652,230.25 C 248.11837,233.4125 249.52903,236 250,236 C 250.47097,236 251.8697,233.4125 253.1083,230.25 z M 165.83792,221.06541 C 168.96556,217.34664 169.80222,215.43056 170.34952,210.7332 C 170.94311,205.63849 172.17869,201.13069 174.41663,195.89506 C 174.93435,194.68385 173.67944,194.99302 169.30132,197.1553 C 161.70471,200.90714 150.22081,203.25793 141.73245,202.79874 L 134.96489,202.43264 L 139.64304,206.4314 C 145.27685,211.24703 153.19969,223.07442 155.56787,230.20434 L 157.28945,235.38752 L 159.64384,230.50917 C 160.93875,227.82607 163.72609,223.57638 165.83792,221.06541 z M 345.35341,228.19232 C 348.48043,220.46748 355.56418,210.35854 361.03429,205.81476 L 365.11109,202.42835 L 358.30555,202.79659 C 349.77744,203.25805 338.31118,200.91499 330.69868,197.1553 C 326.32056,194.99302 325.06565,194.68385 325.58337,195.89506 C 327.8283,201.14706 329.05534,205.63996 329.63573,210.7332 C 330.16196,215.35111 330.96635,217.25359 333.6733,220.28261 C 335.53253,222.36305 338.25421,226.51297 339.72147,229.50467 C 341.18874,232.49636 342.48166,234.84418 342.59464,234.72205 C 342.70763,234.59992 343.94907,231.66154 345.35341,228.19232 z M 189.6933,206.49167 C 192.84309,205.67125 197.57565,205 200.2101,205 L 205,205 L 205,200.54922 C 205,193.90261 206.88576,186.21168 210.13168,179.62002 L 213.02714,173.74004 L 209.11338,174.36588 C 192.87321,176.96279 178.7436,190.13611 175.05989,206.11466 C 173.43431,213.1658 173.52932,213.2722 178.9832,210.50851 C 181.72396,209.11967 186.5435,207.31209 189.6933,206.49167 z M 324.08555,203.05573 C 319.50548,187.97685 307.06064,177.31264 290.67204,174.42309 L 286.84409,173.74817 L 289.79678,179.62408 C 293.09178,186.18119 295,193.85524 295,200.54922 L 295,205 L 299.75,205.01562 C 306.17271,205.03674 314.45108,207.12 320.5,210.23737 C 326.64307,213.40326 327.00707,212.6742 324.08555,203.05573 z M 154.56634,197.9243 C 183.62312,192.65664 204.04584,161.94888 197.87889,132.79922 C 196.50192,126.29064 191.52277,115 190.02947,115 C 188.83989,115 179.205,119.67305 177.3741,121.13802 C 176.56303,121.787 176.97175,123.78111 178.8358,128.26945 C 180.95113,133.36283 181.4304,136.14648 181.46171,143.52103 C 181.49659,151.73832 181.20728,153.13665 178.21457,159.2157 C 173.92606,167.92692 168.00385,173.88819 159.45933,178.09464 C 153.05103,181.24943 151.84149,181.49924 143.02103,181.48968 C 134.82091,181.4808 132.70996,181.11047 127.80546,178.8204 C 123.58232,176.84847 121.86884,176.46356 121.17403,177.33071 C 119.6829,179.19173 115,188.82353 115,190.02947 C 115,191.53111 126.67412,196.70552 132.63407,197.84555 C 139.47158,199.15344 147.6248,199.18272 154.56634,197.9243 z M 366.54213,197.90758 C 373.28892,196.66037 385,191.66489 385,190.0342 C 385,189.16212 379.42325,177.26164 378.53376,176.23561 C 378.40769,176.09019 375.64853,177.21055 372.40228,178.72529 C 367.2682,181.12092 365.26081,181.48071 356.97897,181.48968 C 348.28095,181.49911 346.89698,181.22384 340.96838,178.3052 C 321.10142,168.52473 312.48364,144.6536 322.05009,125.90181 C 323.512,123.03624 323.66402,121.97365 322.72039,121.21645 C 320.8369,119.70504 311.19955,115 309.98724,115 C 308.32513,115 304.21922,124.66765 302.38088,132.90967 C 297.01898,156.94927 309.68242,182.57436 332.28415,193.42041 C 343.2964,198.70494 354.37743,200.15635 366.54213,197.90758 z M 79.91673,191.02388 C 84.563788,189.69112 87.818497,186.38777 89.072313,181.73145 C 91.943945,171.06702 82.828115,162.08429 72.073001,164.98034 C 59.461572,168.37625 59.149365,187.22792 71.64255,190.97179 C 75.53604,192.13857 76.019436,192.14161 79.91673,191.02388 z M 71.831022,185.47048 C 68.025153,183.40361 66.411757,178.03822 68.425264,174.14452 C 71.901078,167.42304 81.597144,168.21927 83.974052,175.42138 C 85.377777,179.6747 83.534443,183.97983 79.527942,185.80531 C 76.218829,187.31305 75.137247,187.266 71.831022,185.47048 z M 79,181 C 80.1,179.9 81,178.55 81,178 C 81,176.70306 77.296935,173 76,173 C 74.703065,173 71,176.70306 71,178 C 71,178.55 71.9,179.9 73,181 C 74.1,182.1 75.45,183 76,183 C 76.55,183 77.9,182.1 79,181 z M 103.42621,186.5 C 100.63562,183.75 97.102397,179.925 95.574596,178 C 94.046796,176.075 93.104266,175.07901 93.480086,175.7867 C 94.589106,177.87503 93.003087,184.71636 90.583282,188.28214 L 88.337851,191.59097 L 98.418926,191.54548 L 108.5,191.5 L 103.42621,186.5 z M 409.44996,188.33113 C 408.23326,186.53822 406.93101,183.02561 406.55607,180.52532 L 405.87436,175.97935 L 402.0356,180.83574 C 399.92429,183.50676 396.61547,186.9989 394.68267,188.59607 L 391.1685,191.5 L 401.41532,191.54548 L 411.66215,191.59097 L 409.44996,188.33113 z M 427.91673,191.02388 C 432.56379,189.69112 435.8185,186.38777 437.07231,181.73145 C 439.94394,171.06702 430.82811,162.08429 420.073,164.98034 C 407.46157,168.37625 407.14936,187.22792 419.64255,190.97179 C 423.53604,192.13857 424.01944,192.14161 427.91673,191.02388 z M 419.83102,185.47048 C 416.02515,183.40361 414.41176,178.03822 416.42526,174.14452 C 419.90108,167.42304 429.59714,168.21927 431.97405,175.42138 C 433.37778,179.6747 431.53444,183.97983 427.52794,185.80531 C 424.21883,187.31305 423.13725,187.266 419.83102,185.47048 z M 427,181 C 428.1,179.9 429,178.55 429,178 C 429,177.45 428.1,176.1 427,175 C 425.9,173.9 424.55,173 424,173 C 423.45,173 422.1,173.9 421,175 C 419.9,176.1 419,177.45 419,178 C 419,178.55 419.9,179.9 421,181 C 422.1,182.1 423.45,183 424,183 C 424.55,183 425.9,182.1 427,181 z M 114.43311,181.28272 C 116.3949,177.58822 117.98571,174.10072 117.96825,173.53272 C 117.95079,172.96473 116.35406,170.925 114.41998,169 C 109.76072,164.36263 106.10747,156.67488 104.72344,148.59497 C 101.54033,130.01205 113.15675,111.73837 131.81664,105.97491 C 145.36491,101.79028 159.14363,105.03753 169.81172,114.92928 C 171.63316,116.61818 173.53017,118 174.0273,118 C 174.52442,118 177.94422,116.34381 181.62686,114.31958 L 188.32256,110.63916 L 181.88755,104.56958 C 178.3483,101.23131 173.13426,97.252667 170.3008,95.728148 C 163.7014,92.177402 151.28071,89 144,89 C 136.72468,89 124.30716,92.174911 117.68527,95.728148 C 110.10851,99.793756 98.954974,111.24799 95.227034,118.79186 C 86.77578,135.89382 87.324568,155.89652 96.684645,171.92009 C 98.863951,175.65086 109.53948,188 110.58533,188 C 110.73982,188 112.47132,184.97723 114.43311,181.28272 z M 405.35688,167.81203 C 415.7247,146.10068 411.61739,122.30134 394.60007,105.4829 C 386.30674,97.28649 380.09718,93.710302 369.41456,90.978148 C 359.63216,88.476233 352.36784,88.476233 342.58544,90.978148 C 332.56162,93.54181 326.24995,97.050607 318.1841,104.54341 L 311.64401,110.61884 L 319.07201,114.75715 L 326.5,118.89546 L 328.5,116.58291 C 334.3935,109.7684 347.43228,103.98779 356.85534,104.01187 C 379.51449,104.06977 397.76291,124.21844 395.6499,146.84617 C 394.94382,154.40742 391.82359,161.58738 386.13464,168.74175 L 381.96654,173.98349 L 385.60713,181.21273 L 389.24771,188.44196 L 395.55644,181.78301 C 399.59811,177.51698 403.11993,172.49646 405.35688,167.81203 z M 254.53876,182.07104 C 259.43624,177.5567 265.20432,174.38175 272.85342,171.99002 L 278.20685,170.31611 L 274.35342,167.13775 C 261.74024,156.73422 237.55759,156.89059 225.33672,167.4547 L 221.58333,170.69925 L 225.54167,171.43495 C 231.05639,172.45993 242.03384,178.40796 246.04106,182.54236 C 247.88426,184.44406 249.59123,186 249.83434,186 C 250.07744,186 252.19443,184.23197 254.53876,182.07104 z M 158.36223,174.14244 C 165.87371,170.44455 171.18684,164.96406 174.86483,157.12001 C 178.49352,149.38112 178.60136,137.04741 175.10848,129.25421 L 172.75733,124.00842 L 169.12867,126.06764 C 167.1329,127.20022 164.51812,128.93316 163.31805,129.91862 C 161.26691,131.60296 161.21932,131.94385 162.52416,135.60519 C 168.63274,152.74556 152.70852,168.61672 135.53828,162.50116 C 133.35934,161.72508 131.51342,161.18233 131.43624,161.29505 C 131.35906,161.40777 129.65761,163.96414 127.65523,166.97586 L 124.01453,172.45172 L 126.75727,173.89763 C 136.50231,179.03501 148.23934,179.12592 158.36223,174.14244 z M 370.74579,175.03073 L 375.99158,172.75733 L 373.93236,169.12867 C 372.79978,167.1329 371.06684,164.51812 370.08138,163.31805 C 368.39704,161.26691 368.05615,161.21932 364.39481,162.52416 C 356.6791,165.27393 349.59524,163.91328 343.22099,158.45716 C 336.28402,152.51937 334.33685,142.35008 338.34657,133 C 338.7962,131.95154 337.36155,130.37114 333.58075,127.75 C 330.60575,125.6875 327.96345,124 327.70897,124 C 327.4545,124 326.18746,126.3625 324.89333,129.25 C 321.41431,137.01253 321.50678,149.38243 325.10111,157.04563 C 329.69022,166.82971 336.95061,173.23219 347.28604,176.60913 C 353.29146,178.5713 364.28236,177.83182 370.74579,175.03073 z M 210.73224,170.38527 C 215.1859,169.89388 217.19468,169.09367 219.54906,166.87304 C 221.22604,165.29132 225.44313,162.47712 228.92038,160.61926 L 235.24264,157.24132 L 230.1319,155.54381 C 223.04749,153.19075 211.22376,145.24963 206.39709,139.60291 L 202.36404,134.88464 L 202.79706,140.87117 C 203.50114,150.60497 201.31141,160.26837 195.36139,173.68512 C 195.03119,174.42969 196.71841,174.15491 199.90015,172.94594 C 202.68554,171.88758 207.55998,170.73528 210.73224,170.38527 z M 302.76063,168.8237 C 298.94171,160.80576 296.74444,150.17881 297.19222,141.8925 L 297.54927,135.28501 L 293.22065,140.09948 C 287.92116,145.99379 278.45776,152.32795 270.69272,155.17816 L 264.88544,157.30975 L 271.14366,160.65347 C 274.58568,162.49251 278.79538,165.34782 280.49855,166.99859 C 282.5037,168.94206 284.63588,170.00551 286.54761,170.01562 C 290.37117,170.03585 299.93353,172.29245 302.50061,173.78034 C 305.80301,175.69441 305.82584,175.25921 302.76063,168.8237 z M 125.25444,163.34301 C 128.79471,158.28366 128.82652,158.15298 126.93466,156.44086 C 123.91735,153.71024 121.60724,145.10476 122.42594,139.64527 C 123.71892,131.02307 131.69651,123.52103 140.88249,122.28894 C 145.47322,121.67319 153.98216,124.21782 156.44964,126.94435 C 158.0795,128.74533 158.3282,128.67242 164.06978,124.71041 L 170.00507,120.61473 L 167.26206,117.75164 C 165.7534,116.17694 161.59922,113.45113 158.03055,111.69427 C 152.27224,108.85947 150.58314,108.5 143.02103,108.5 C 132.61236,108.5 125.597,111.35037 118.47368,118.47368 C 111.35573,125.59164 108.5,132.61417 108.5,143 C 108.5,150.06676 108.93859,152.43508 111.10111,157.04563 C 113.97703,163.17716 119.91788,170.55363 120.97159,169.30134 C 121.34243,168.8606 123.26971,166.17935 125.25444,163.34301 z M 388.30573,158.03055 C 391.1424,152.26845 391.5,150.58576 391.5,143 C 391.5,135.37846 391.14873,133.74441 388.24032,127.83659 C 384.44662,120.13049 379.02541,114.84193 371.12001,111.13517 C 366.42931,108.93574 364.09447,108.5 357,108.5 C 349.89542,108.5 347.59708,108.93015 343,111.12019 C 339.975,112.56129 335.77205,115.26129 333.66011,117.12019 L 329.82021,120.5 L 335.72938,124.57474 L 341.63855,128.64948 L 344.57246,126.38691 C 346.18612,125.1425 349.64245,123.55304 352.25319,122.85477 C 364.23083,119.65124 376.35708,128.37062 377.67437,141.13387 C 378.23709,146.58611 376.59985,152.01124 372.83887,157.1567 C 371.8312,158.5353 372.27652,159.75513 375.49174,164.42348 L 379.35554,170.03355 L 382.2335,167.2763 C 383.81637,165.75981 386.54887,161.59922 388.30573,158.03055 z M 151.03998,157.69726 C 158.14707,153.93894 161.77363,144.79521 159.02475,137.5651 C 158.48836,136.15429 157.58313,135 157.01312,135 C 155.65556,135 135,155.66257 135,157.0206 C 135,157.59471 136.0125,158.47142 137.25,158.96884 C 141.20713,160.55941 146.56116,160.06572 151.03998,157.69726 z M 362.4349,159.02475 C 363.84571,158.48836 365,157.5995 365,157.04951 C 365,155.2885 344.13745,134.78781 342.79345,135.22813 C 340.93751,135.83618 339.60341,142.07246 340.40977,146.37071 C 341.21964,150.68773 346.20346,156.74241 350.48141,158.60643 C 354.10766,160.18649 358.93496,160.35543 362.4349,159.02475 z M 153.76713,129.75231 C 145.66523,124.08161 136.65758,125.07021 130.2837,132.32966 C 125.24957,138.06322 124.68562,146.78803 128.99502,152.26654 L 130.93749,154.73598 L 142.98587,142.6876 C 151.71017,133.9633 154.68467,130.39452 153.76713,129.75231 z M 260.56634,153.9243 C 274.1504,151.46166 289.54705,140.76832 296.75858,128.78791 C 301.17845,121.44526 304.22901,112.71063 302.67456,111.84877 C 301.05543,110.95105 288.70418,106.94036 288.51113,107.24963 C 288.42518,107.38733 287.56196,109.63969 286.59286,112.25487 C 278.66938,133.63696 253.37779,144.00205 233.50019,134.01347 C 230.20009,132.35516 226.30182,129.92913 224.83738,128.6223 C 220.1593,124.44771 215.24514,117.25413 213.51687,112.05079 C 212.59419,109.27286 211.69354,107 211.51542,107 C 211.33731,107 207.88597,108.12186 203.84579,109.49303 C 199.80561,110.86419 196.39493,111.98919 196.26651,111.99303 C 195.40035,112.01889 201.29865,125.7903 203.93655,129.90112 C 211.07601,141.02701 226.20719,151.50246 238.5,153.82972 C 245.48768,155.15262 253.59906,155.18738 260.56634,153.9243 z M 372.03313,150.43156 C 378.58015,136.90721 365.18212,121.79807 351.31693,127.0696 C 344.25917,129.75296 344.35291,130.01751 356.91356,142.86456 C 363.2861,149.3824 368.79736,154.77926 369.16079,154.85759 C 369.52423,154.93592 370.81678,152.9442 372.03313,150.43156 z M 264.17471,130.77756 C 271.78862,127.29179 277.35337,121.98165 280.96372,114.75669 C 285.4379,105.80306 285.29407,105.52215 275.65537,104.38932 L 270.48091,103.78116 L 269.20681,107.30461 C 266.76971,114.04429 257.76831,119.98885 250,119.98885 C 242.32276,119.98885 234.0021,114.50362 230.97818,107.44909 L 229.16278,103.21395 L 223.02742,104.49428 C 219.65297,105.19846 216.62638,106.04029 216.30166,106.36501 C 215.30804,107.35863 219.02721,115.87885 222.38945,120.31148 C 226.21288,125.35213 233.55371,130.46844 239.87017,132.49495 C 246.68743,134.68213 257.28107,133.93357 264.17471,130.77756 z M 257.94874,113.74551 C 262.29914,111.44496 267.17773,104.84661 265.65653,103.32062 C 264.59885,102.2596 244.03282,101.61803 238.35798,102.46903 C 233.06819,103.26228 232.85332,104.62441 237.23141,109.61078 C 243.05864,116.24763 250.43374,117.71954 257.94874,113.74551 z M 191.54548,98.66533 L 191.59097,88.337851 L 188.23225,90.617134 C 186.38496,91.87074 182.90922,93.190986 180.50839,93.551013 L 176.14323,94.205609 L 182.07345,99.140787 C 185.33507,101.85513 188.7296,105.18387 189.61684,106.53798 C 190.50409,107.89209 191.29077,108.99838 191.36501,108.9964 C 191.43925,108.99443 191.52047,104.34544 191.54548,98.66533 z M 318.69044,98.474483 L 323.9194,94.215001 L 319.52293,93.555709 C 317.10487,93.193099 313.61504,91.87074 311.76775,90.617134 L 308.40903,88.337851 L 308.45452,98.743006 L 308.5,109.14816 L 310.98074,105.94106 C 312.34515,104.17716 315.81451,100.8172 318.69044,98.474483 z M 210.74142,99.85068 C 211.16158,94.019166 213.173,85.625176 215.01892,82 C 223.38203,65.575773 242.33156,56.781196 259.5,61.356095 C 276.19283,65.804256 286.72207,78.615665 288.80089,97.007834 L 289.5,103.19318 L 296.70499,105.47493 C 300.66774,106.72989 304.15524,107.51143 304.45499,107.21167 C 304.75475,106.91192 305,103.83882 305,100.38255 C 305,85.367543 299.45199,72.207998 288.60007,61.482903 C 280.30674,53.28649 274.09718,49.710302 263.41456,46.978148 C 253.63216,44.476233 246.36784,44.476233 236.58544,46.978148 C 225.94814,49.698711 219.72963,53.296189 211.48333,61.5 C 203.31056,69.630658 199.73132,75.82063 196.97815,86.58544 C 195.14075,93.769606 194.29372,105.96038 195.54501,107.21167 C 195.84476,107.51143 199.33226,106.73173 203.29501,105.47902 C 210.23962,103.28367 210.50872,103.08027 210.74142,99.85068 z M 224.40557,100.35789 C 228.71694,99.76695 228.82361,99.661901 229.46664,95.373883 C 230.28914,89.889038 235.14284,83.384589 240.5,80.588066 C 245.77921,77.832233 254.09434,77.793652 259.48008,80.5 C 264.73469,83.14046 269.70101,89.823408 270.53336,95.373883 C 271.17639,99.661901 271.28306,99.76695 275.59443,100.35789 C 278.01674,100.6899 281.19242,101.26117 282.65149,101.62738 L 285.30436,102.29321 L 284.75233,96.205221 C 283.62682,83.792967 276.39241,73.287701 265.16341,67.759685 C 259.25946,64.853177 257.61883,64.5 250.02103,64.5 C 242.87603,64.5 240.5801,64.931197 235.8035,67.170182 C 224.43691,72.498172 216.36328,83.902145 215.24767,96.205221 L 214.69564,102.29321 L 217.34851,101.62738 C 218.80758,101.26117 221.98326,100.6899 224.40557,100.35789 z M 266.55717,95.535862 C 264.62714,85.88571 253.4437,79.614594 244.3151,83.063618 C 240.4842,84.511032 236.04189,88.826396 234.37684,92.717881 C 231.84545,98.634125 231.48131,98.5 250.075,98.5 L 267.15,98.5 L 266.55717,95.535862 z M 181.91673,89.023882 C 186.56379,87.691123 189.8185,84.387766 191.07231,79.731452 C 193.94394,69.067024 184.82811,60.084292 174.073,62.980343 C 161.46157,66.376248 161.14936,85.227925 173.64255,88.971794 C 177.53604,90.138568 178.01944,90.141611 181.91673,89.023882 z M 173.83102,83.470477 C 170.02515,81.403615 168.41176,76.038217 170.42526,72.144523 C 173.90108,65.423041 183.59714,66.219274 185.97405,73.421377 C 187.37778,77.674705 185.53444,81.979831 181.52794,83.805315 C 178.21883,85.313048 177.13725,85.265996 173.83102,83.470477 z M 181,79 C 182.1,77.9 183,76.55 183,76 C 183,74.703065 179.29694,71 178,71 C 176.70306,71 173,74.703065 173,76 C 173,76.55 173.9,77.9 175,79 C 176.1,80.1 177.45,81 178,81 C 178.55,81 179.9,80.1 181,79 z M 325.91673,89.023882 C 330.56379,87.691123 333.8185,84.387766 335.07231,79.731452 C 337.94394,69.067024 328.82811,60.084292 318.073,62.980343 C 305.46157,66.376248 305.14936,85.227925 317.64255,88.971794 C 321.53604,90.138568 322.01944,90.141611 325.91673,89.023882 z M 317.83102,83.470477 C 314.02515,81.403615 312.41176,76.038217 314.42526,72.144523 C 317.90108,65.423041 327.59714,66.219274 329.97405,73.421377 C 331.37778,77.674705 329.53444,81.979831 325.52794,83.805315 C 322.21883,85.313048 321.13725,85.265996 317.83102,83.470477 z M 325,79 C 326.1,77.9 327,76.55 327,76 C 327,74.703065 323.29694,71 322,71 C 320.70306,71 317,74.703065 317,76 C 317,76.55 317.9,77.9 319,79 C 320.1,80.1 321.45,81 322,81 C 322.55,81 323.9,80.1 325,79 z "
     style="fill:#000000"
     id="path2232" />
</svg>
