<?xml version="1.0" encoding="UTF-8" standalone="no"?>
<!-- Created with Inkscape (http://www.inkscape.org/) -->
<svg
   xmlns:svg="http://www.w3.org/2000/svg"
   xmlns="http://www.w3.org/2000/svg"
   version="1.0"
   width="492.12796"
   height="491.65384"
   id="svg2313">
  <defs
     id="defs2316" />
  <path
     d="M 202.55746,490.42429 C 184.94905,487.11645 166.93075,479.64471 151.92994,469.43031 C 145.89824,465.32319 141.40709,463.16296 135.10248,461.33638 C 99.180478,450.929 69.59405,426.27799 53.46362,393.31599 C 49.80143,385.83245 46.94299,381.68593 41.51277,375.9798 C 28.06456,361.8483 18.04885,344.91487 12.16174,326.35641 C 7.4378203,311.46478 5.9414203,300.75894 6.0289203,282.4798 C 6.0843403,270.90134 5.6884503,265.09807 4.5963503,261.4798 C -0.050009656,246.08586 -1.3848297,220.53475 1.5663703,203.4798 C 4.7084103,185.322 11.99894,167.40544 22.55211,151.90712 C 26.64638,145.8943 28.82097,141.37957 30.63043,135.13552 C 41.15718,98.809875 67.13911,68.036185 100.5273,52.34779 C 106.3864,49.594726 110.69117,46.545149 116.7505,40.854983 C 135.61622,23.138662 158.08243,12.072168 184.50262,7.4813761 C 190.38223,6.4597301 199.04998,5.9529551 209.50262,6.0197081 C 221.25617,6.0947691 226.82963,5.7161501 230.50262,4.5931291 C 245.70002,-0.053498941 270.1902,-1.3592509 288.00262,1.5273811 C 306.16151,4.4701591 324.29367,11.783206 340.0753,22.529287 C 346.08812,26.623554 350.60285,28.798148 356.8469,30.607603 C 393.21853,41.147686 423.97964,67.122018 439.62498,100.50448 C 442.39019,106.4046 445.33911,110.56142 450.95815,116.4798 C 463.98254,130.19803 473.43419,146.04932 479.47684,164.30831 C 484.33875,178.99947 486.16924,191.56327 486.1188,209.89616 C 486.08957,220.51746 486.53033,227.01342 487.51353,230.45223 C 490.33994,240.33775 492.0722,253.67902 492.1265,265.9798 C 492.24712,293.30512 484.94437,316.98566 469.08529,340.69523 C 465.73982,345.69677 463.00262,350.46332 463.00262,351.28758 C 463.00262,353.77397 456.05663,372.92722 452.80252,379.41391 C 439.6964,405.53938 417.44752,427.36045 391.33016,439.70425 C 385.92819,442.25738 381.48842,445.3536 377.00262,449.69605 C 360.49617,465.67502 341.12039,476.36583 317.23212,482.67513 C 308.75841,484.91318 304.92121,485.30063 287.50262,485.67698 C 270.22088,486.05037 266.14349,486.457 257.50262,488.66877 C 248.937,490.86128 244.84901,491.2778 229.00262,491.57263 C 215.55034,491.82291 208.33479,491.50959 202.55746,490.42429 z M 235.50262,487.02199 C 241.55262,486.5131 248.94154,485.56674 251.92244,484.91898 L 257.34227,483.74123 L 245.87692,479.97813 C 233.25959,475.83693 224.93263,471.9356 214.8852,465.45797 L 208.26778,461.19167 L 200.3852,463.18641 C 194.52894,464.66838 187.78929,465.3157 174.16737,465.70457 L 155.83213,466.22798 L 158.66737,468.15747 C 164.31751,472.00259 176.69694,477.8118 185.50262,480.75025 C 196.58057,484.44695 203.63347,485.93246 214.84424,486.93029 C 219.60635,487.35414 223.72762,487.75636 224.00262,487.82409 C 224.27762,487.89183 229.45262,487.53089 235.50262,487.02199 z M 309.00262,479.33718 C 330.05334,475.65465 352.83777,464.7871 368.00262,451.19581 L 372.50262,447.16274 L 364.50262,449.16882 C 358.63755,450.63953 351.75834,451.31557 338.72488,451.70205 L 320.94714,452.22921 L 317.72488,455.24004 C 307.42033,464.86844 292.21968,475.57618 284.0546,478.95827 C 281.7554,479.91063 281.23465,480.50889 282.18513,481.10596 C 283.88953,482.17663 298.1467,481.23628 309.00262,479.33718 z M 279.47305,475.62085 C 284.53406,473.22343 292.01113,469.00848 296.08875,466.25431 C 303.49648,461.25086 314.39998,452.04382 313.72132,451.36516 C 313.52374,451.16759 309.11871,449.92688 303.93235,448.60803 C 291.21102,445.37311 280.21634,441.01103 270.00262,435.14659 L 261.50262,430.26612 L 256.50262,434.78285 C 247.44215,442.9676 228.343,454.24794 216.50915,458.40381 C 214.59499,459.07604 214.61488,459.1806 217.00915,461.03175 C 224.13421,466.54059 242.13314,474.34016 256.00262,477.92899 C 266.89461,480.74738 269.11096,480.52942 279.47305,475.62085 z M 193.83667,459.32497 L 203.17072,457.76467 L 193.2611,447.62224 C 183.49125,437.62286 177.04698,429.27859 171.52674,419.4798 C 169.9775,416.7298 168.61269,414.3542 168.49384,414.20069 C 168.37498,414.04718 164.33189,414.60968 159.50919,415.45069 C 150.03337,417.10314 125.94845,417.43424 117.50262,416.02817 C 114.75262,415.57035 112.33053,415.35677 112.1202,415.55354 C 111.50035,416.13343 119.75812,430.07671 124.54185,436.52756 C 131.20888,445.51803 144.85767,458.78905 148.1897,459.52089 C 159.472,461.9989 178.32476,461.91798 193.83667,459.32497 z M 129.38013,449.7298 C 121.6465,441.59188 116.79328,434.81991 110.39281,423.23573 L 105.17855,413.79846 L 95.16325,410.4383 C 83.49246,406.52271 74.17129,401.99967 64.74161,395.67638 C 61.03516,393.19094 58.00262,391.49877 58.00262,391.916 C 58.00262,393.56359 69.43735,410.762 74.32209,416.4613 C 85.13581,429.07829 99.525978,440.62711 113.00262,447.50435 C 119.59485,450.86842 131.94385,455.83966 133.91113,455.92133 C 134.68581,455.95349 132.64686,453.1673 129.38013,449.7298 z M 228.01571,447.97429 C 236.10557,443.89191 247.09344,436.50091 253.00262,431.16682 L 257.50262,427.10477 L 255.00262,425.40109 C 249.47267,421.63258 231.07029,402.00422 226.25751,394.74094 L 221.12959,387.00208 L 218.3161,389.3585 C 209.7073,396.56875 194.77182,404.7729 181.73062,409.45511 L 172.95863,412.60454 L 178.55009,421.51071 C 185.27522,432.22259 192.01722,440.26075 201.80185,449.23263 L 209.10107,455.92556 L 215.31494,453.58666 C 218.73257,452.30027 224.44792,449.7747 228.01571,447.97429 z M 355.50262,445.8014 C 365.98208,444.21494 379.19582,440.13444 381.85211,437.66448 C 385.77455,434.01718 396.71462,416.88287 400.8865,407.85286 C 405.94725,396.89887 408.51055,388.57091 406.59513,389.30593 C 394.05091,394.1196 378.00873,396.9798 363.55425,396.9798 L 352.36786,396.9798 L 350.57657,402.7298 C 346.78498,414.90074 337.89785,431.53061 329.5957,441.98985 L 326.03175,446.4798 L 329.26718,447.09898 C 333.24368,447.85998 346.10705,447.22377 355.50262,445.8014 z M 323.07415,442.24555 C 324.87744,440.19172 328.77988,434.78793 331.74624,430.23713 C 339.17991,418.83287 348.22521,398.86905 346.66537,397.30921 C 346.37025,397.01409 342.3879,396.12428 337.8157,395.33185 C 327.50865,393.54548 311.46441,388.24468 302.11745,383.53763 C 294.2889,379.59523 294.00262,379.50862 294.00262,381.08245 C 294.00262,383.38079 285.92414,399.29195 280.73213,407.21966 C 277.75678,411.76274 273.13324,417.89848 270.45759,420.85465 L 265.59277,426.22951 L 268.0477,428.21841 C 276.43793,435.01593 305.642,445.76608 316.14903,445.92474 C 319.14251,445.96994 320.38252,445.31115 323.07415,442.24555 z M 406.00262,425.63736 C 417.60162,417.8303 432.16103,403.10774 439.99749,391.26153 C 446.2646,381.78766 453.95508,366.18811 455.54402,359.72656 L 456.22106,356.97333 L 452.86184,360.11209 C 442.17914,370.09373 428.17024,379.92149 418.31957,384.34478 C 414.29527,386.15183 414.05347,386.53625 410.53566,396.71993 C 406.39287,408.71284 402.6359,416.5503 396.37485,426.26098 C 393.97012,429.99063 392.00262,433.26469 392.00262,433.53666 C 392.00262,434.38661 398.19381,430.89331 406.00262,425.63736 z M 266.34765,418.04202 C 268.88794,415.32624 273.48035,409.24745 276.553,404.53359 C 282.02622,396.13693 290.02785,380.14901 289.97683,377.71166 C 289.96265,377.03414 287.60325,374.9048 284.73371,372.9798 C 278.52006,368.81143 264.21227,355.37472 258.96131,348.77645 L 255.21834,344.07311 L 250.73388,351.77645 C 245.03672,361.56297 238.77457,369.82327 231.11435,377.65626 L 225.07413,383.83273 L 229.91482,391.15626 C 232.57721,395.18421 236.72575,400.74974 239.13381,403.52412 C 244.88111,410.14572 258.99211,422.9798 260.52521,422.9798 C 261.18726,422.9798 263.80736,420.7578 266.34765,418.04202 z M 159.00262,410.56586 C 163.69997,409.72711 165.44692,408.99957 165.30177,407.94251 C 165.1913,407.13802 163.55057,401.9798 161.6557,396.4798 C 157.84092,385.40711 155.00262,370.66804 155.00262,361.93089 L 155.00262,356.23442 L 137.25262,356.73324 C 121.15057,357.18575 110.82017,356.46815 102.12242,354.2929 L 99.742228,353.69763 L 100.2558,368.08871 C 100.64943,379.11866 101.3736,384.78279 103.35643,392.34028 C 106.88204,405.77811 108.68764,409.19686 112.80662,410.23346 C 122.94837,412.7858 145.65515,412.94918 159.00262,410.56586 z M 100.53374,399.68164 C 97.004428,388.24269 95.00262,374.9671 95.00262,363.00042 L 95.00262,352.37347 L 87.82557,350.06194 C 77.8929,346.86291 63.03109,339.07063 53.50262,332.06588 L 45.50262,326.18477 L 45.18639,336.83228 C 45.01246,342.68842 45.39903,350.8548 46.04544,354.9798 C 47.76393,365.94626 51.81606,379.14141 54.26888,381.75814 C 57.39872,385.09715 72.49912,395.21473 80.00262,399.00028 C 86.02797,402.04009 102.13893,408.17682 102.67824,407.63752 C 102.8086,407.50715 101.84358,403.927 100.53374,399.68164 z M 179.19302,405.35417 C 191.8962,400.79116 202.11666,395.19142 214.13679,386.20866 L 218.77095,382.7455 L 215.80697,376.20857 C 211.40895,366.50895 207.25945,353.12866 205.82783,344.03031 C 205.13112,339.60253 204.28724,335.9798 203.95254,335.9798 C 203.61784,335.9798 199.77969,338.0134 195.42331,340.49892 C 186.91235,345.35481 176.04127,349.84856 166.15723,352.59657 L 160.00262,354.3077 L 160.00262,362.03328 C 160.00262,370.53654 162.01017,382.55594 165.10284,392.56886 C 167.34276,399.82087 170.68059,407.9798 171.40749,407.9798 C 171.66925,407.9798 175.17274,406.79827 179.19302,405.35417 z M 383.87662,390.34649 C 393.91907,388.57443 407.38194,384.4504 408.76259,382.72326 C 412.79218,377.68237 413.33914,338.62829 409.53811,327.34935 C 409.28685,326.6038 405.30044,327.52797 397.82988,330.06367 C 385.14303,334.36992 371.82534,336.9798 362.5383,336.9798 C 359.12701,336.9798 356.10422,337.21153 355.821,337.49476 C 355.53777,337.77798 355.69399,340.36548 356.16815,343.24476 C 358.02476,354.51874 357.08649,378.63865 354.36301,389.64871 C 353.94483,391.33928 354.34215,391.91417 356.16456,392.25539 C 359.9554,392.96519 374.851,391.93913 383.87662,390.34649 z M 349.39035,389.2298 C 351.59121,378.15784 352.17308,371.73157 352.08406,359.4798 C 352.02811,351.7798 351.64251,343.6798 351.22717,341.4798 L 350.47201,337.4798 L 342.48732,336.76458 C 332.26692,335.8491 321.64797,333.49555 311.33266,329.85957 C 306.83918,328.2757 302.94885,326.9798 302.68749,326.9798 C 302.42612,326.9798 302.19294,331.66397 302.16932,337.38908 C 302.12516,348.0897 299.85483,364.31293 297.44611,371.13997 L 296.08466,374.99873 L 303.79364,378.87284 C 313.37554,383.68818 327.94485,388.62095 337.92116,390.42747 C 348.65759,392.37163 348.76812,392.36009 349.39035,389.2298 z M 420.29246,377.83641 C 428.93644,373.43576 439.79399,365.30668 449.16074,356.22264 C 458.81217,346.86251 458.81968,346.85138 459.98724,340.16791 C 461.7586,330.02814 461.50492,309.02618 459.47884,298.07768 L 457.73893,288.67556 L 451.09787,295.57768 C 441.82048,305.21977 434.88783,310.9317 424.69753,317.32936 C 419.86876,320.36096 415.43827,323.00125 414.85199,323.19668 C 414.12312,323.43963 414.31222,326.64098 415.44996,333.32001 C 417.75683,346.86241 417.74626,366.41579 415.42595,377.7298 C 414.85869,380.49581 415.06006,380.50022 420.29246,377.83641 z M 241.14249,357.56336 C 244.43981,352.65932 248.18382,346.58233 249.46252,344.05894 L 251.78743,339.47095 L 247.40905,331.97538 C 245.00095,327.85281 241.37215,320.31411 239.34506,315.22271 L 235.65943,305.96561 L 230.59662,311.72271 C 225.88247,317.08333 220.35501,322.44509 212.08964,329.67487 L 208.67667,332.66023 L 209.94869,340.57001 C 211.61445,350.92813 215.19012,363.14507 219.14421,371.98823 L 222.32518,379.10233 L 228.73628,372.79106 C 232.26238,369.31987 237.84518,362.4674 241.14249,357.56336 z M 44.0274,368.39196 C 41.73011,361.59468 40.00262,346.8577 40.00262,334.05702 L 40.00262,320.39622 L 35.43271,315.93801 C 29.28795,309.94343 21.91687,299.89971 15.85175,289.25726 L 10.84947,280.4798 L 11.31777,293.9798 C 12.04096,314.82805 17.41366,332.5148 28.71049,351.23608 C 33.53677,359.23426 43.81979,372.49596 44.59451,371.72124 C 44.82393,371.49182 44.56873,369.99364 44.0274,368.39196 z M 294.63683,361.7181 C 296.5106,352.80526 297.94449,334.64366 297.25638,328.53883 C 296.76307,324.16219 296.52603,323.88541 290.27921,320.39198 C 286.72262,318.40303 280.08977,313.96781 275.53954,310.53594 L 267.26639,304.29617 L 266.0061,311.38799 C 265.31294,315.28848 263.22859,322.84861 261.37421,328.18826 C 259.51984,333.52791 258.00262,338.34686 258.00262,338.89702 C 258.00262,341.87515 277.02642,361.48409 286.49928,368.2702 C 292.35645,372.46612 292.38147,372.44598 294.63683,361.7181 z M 150.50262,351.07593 C 154.33199,350.46256 154.51375,350.26554 154.76346,346.45751 C 155.35851,337.38341 158.32567,322.83304 161.55629,313.14685 C 163.45177,307.46373 165.00262,302.68737 165.00262,302.53273 C 165.00262,302.37808 158.36512,302.00868 150.25262,301.71184 C 139.3046,301.31124 133.12652,300.55495 126.28439,298.77775 L 117.06616,296.38338 L 114.11655,301.93159 C 107.92095,313.58549 102.92114,329.27975 100.50952,344.64368 L 99.855928,348.80755 L 105.5209,349.98359 C 117.99997,352.57424 138.10093,353.06237 150.50262,351.07593 z M 171.07763,346.00807 C 181.01624,342.67833 189.76738,338.5301 198.1345,333.18252 L 203.76639,329.58309 L 204.36675,315.03144 C 204.69695,307.02804 205.24548,298.82529 205.58571,296.80311 L 206.20431,293.12642 L 197.12242,296.047 C 192.12738,297.65332 184.38546,299.60186 179.91816,300.3771 C 175.45086,301.15234 171.46794,302.16759 171.06722,302.63322 C 166.04415,308.46997 157.20838,348.9798 160.95838,348.9798 C 161.64546,348.9798 166.19912,347.64252 171.07763,346.00807 z M 95.43481,344.7298 C 95.69347,343.4923 96.617148,338.76037 97.487418,334.2144 C 99.371028,324.37514 103.94275,311.04238 108.61761,301.75476 C 112.37901,294.28195 112.46771,293.9798 110.89997,293.9798 C 110.29352,293.9798 105.95599,292.17969 101.26102,289.97955 C 91.26121,285.29348 78.40553,276.94575 71.16918,270.43965 C 68.35197,267.90673 65.59796,266.11186 65.04915,266.45104 C 63.50897,267.40292 57.39814,278.74978 53.9664,287.02996 C 50.70568,294.89751 46.0061,312.66078 46.00391,317.12621 C 46.00121,322.66097 66.14485,336.41048 85.50262,344.08695 C 94.1112,347.50076 94.84569,347.54829 95.43481,344.7298 z M 476.0682,318.43667 C 480.00555,309.93847 483.29943,299.84007 485.05593,290.88198 C 487.9442,276.15187 487.93594,254.60951 485.03665,240.64373 L 483.82717,234.81771 L 479.97999,246.29832 C 475.70883,259.04415 471.87844,267.17396 465.43738,277.16432 C 461.5872,283.13611 461.22383,284.20236 462.02949,287.16432 C 464.54509,296.41283 466.08499,309.71293 466.11356,322.43838 L 466.1449,336.39697 L 469.24329,331.43838 C 470.94741,328.71116 474.01862,322.86039 476.0682,318.43667 z M 257.49845,324.58649 C 258.90651,319.97016 260.71781,312.4436 261.52354,307.86079 L 262.98852,299.52841 L 258.15753,294.50411 C 255.50048,291.74074 252.40746,288.25002 251.28415,286.74695 L 249.24176,284.0141 L 244.21561,292.69633 L 239.18946,301.37856 L 241.69849,308.42918 C 244.53184,316.39114 252.94365,332.9798 254.14767,332.9798 C 254.58254,332.9798 256.09038,329.20281 257.49845,324.58649 z M 380.25276,329.87 C 389.96211,327.94994 406.54136,322.53515 407.51006,320.96775 C 408.21533,319.82661 403.46935,306.91325 399.24519,298.4798 C 395.63073,291.2636 392.23454,285.87857 386.23337,277.84812 L 382.77211,273.21644 L 375.63737,276.49335 C 366.42864,280.72282 353.61004,284.72813 344.61767,286.1858 C 340.70439,286.82014 337.12683,287.65659 336.66753,288.04456 C 336.20824,288.43254 336.94087,290.50583 338.29561,292.65188 C 344.27806,302.12869 347.50617,309.89727 354.47374,331.58519 C 354.97205,333.13627 368.17955,332.25752 380.25276,329.87 z M 349.00262,330.8773 C 349.00262,330.27093 347.66534,325.7833 346.03089,320.90479 C 342.70241,310.96994 338.55317,302.2155 333.21176,293.85783 L 329.61875,288.23586 L 314.56068,287.62633 C 306.27875,287.29108 298.07282,286.73719 296.32529,286.39546 L 293.14797,285.77413 L 296.00085,294.64552 C 297.56993,299.52479 299.44618,307.28207 300.17027,311.88393 C 301.71147,321.67871 301.49807,321.47551 314.92116,325.92943 C 329.81743,330.87218 349.00262,333.65744 349.00262,330.8773 z M 221.59686,313.81622 C 234.25483,300.82118 234.19335,300.93893 232.47566,292.9798 C 231.70413,289.4048 231.05707,285.2423 231.03775,283.7298 C 231.01843,282.2173 230.62943,280.9798 230.17331,280.9798 C 229.71719,280.9798 225.79059,283.0048 221.44752,285.4798 C 217.10446,287.9548 213.2494,289.9798 212.88073,289.9798 C 211.59271,289.9798 208.99857,307.55328 209.00059,316.26498 C 209.00306,326.96168 208.74316,327.0122 221.59686,313.81622 z M 426.00262,310.67926 C 430.12762,307.92585 438.58195,300.62206 444.79002,294.44861 L 456.07741,283.22416 L 453.674,276.83889 C 448.68681,263.58914 439.82481,248.60465 431.37716,239.13781 L 427.50262,234.79583 L 420.60902,242.63781 C 412.08011,252.34009 403.67653,259.80445 394.34805,265.96375 L 387.19349,270.68768 L 393.10082,278.95174 C 400.00816,288.61475 406.93602,302.02623 410.10854,311.87657 L 412.35426,318.84932 L 415.42844,317.26739 C 417.11924,316.39733 421.87762,313.43267 426.00262,310.67926 z M 294.03824,305.6119 C 292.8522,300.58925 290.85413,293.7798 289.59809,290.4798 L 287.31438,284.4798 L 278.4085,281.24865 C 273.51027,279.47151 269.20955,278.00901 268.85136,277.99865 C 268.49316,277.98828 268.18951,282.45368 268.17657,287.92177 L 268.15304,297.86373 L 272.56964,301.93481 C 274.99876,304.1739 281.15242,308.74344 286.24443,312.08935 C 297.13276,319.24397 297.23686,319.15745 294.03824,305.6119 z M 43.75104,302.9798 C 46.51291,291.43665 50.98842,280.15972 56.84786,269.9798 L 61.74035,261.4798 L 58.09183,257.4798 C 49.76583,248.3517 39.45428,231.40372 34.66752,218.9798 L 32.93373,214.4798 L 30.97197,216.9798 C 28.10015,220.63954 19.40752,238.52899 17.12359,245.4798 C 16.03926,248.7798 14.35311,255.3636 13.37661,260.11046 L 11.60114,268.74111 L 14.46934,275.48974 C 18.5148,285.00834 26.4889,297.89018 34.04671,307.11618 C 41.30937,315.98188 40.56408,316.29956 43.75104,302.9798 z M 165.55613,296.9798 C 167.32059,296.9798 168.66233,295.49233 171.54087,290.34501 C 173.58158,286.69588 178.07102,280.01458 181.51741,275.49768 L 187.78356,267.28514 L 181.14309,266.07146 C 177.49083,265.40393 169.68043,263.26066 163.78664,261.30864 L 153.07067,257.75951 L 148.24346,261.30301 C 142.40213,265.59093 127.74873,280.76667 123.22434,287.21395 L 119.94605,291.88552 L 124.96894,293.37716 C 133.49585,295.90938 151.32166,297.99905 158.89219,297.35388 C 161.30646,297.14814 164.30523,296.9798 165.55613,296.9798 z M 192.26551,292.50924 C 207.60105,288.04427 207.29807,288.27944 210.86133,278.07531 C 212.58904,273.12766 214.00262,268.83214 214.00262,268.52969 C 214.00262,268.22725 209.55498,267.9798 204.11898,267.9798 L 194.23534,267.9798 L 190.8477,271.7298 C 187.18453,275.78479 179.75818,286.10986 175.99359,292.38192 L 173.65147,296.28404 L 178.83993,295.59577 C 181.69359,295.21722 187.7351,293.82828 192.26551,292.50924 z M 242.35174,285.9798 L 245.88384,279.4798 L 243.55465,275.64434 L 241.22546,271.80889 L 237.965,274.72211 L 234.70453,277.63533 L 235.98629,285.87485 C 236.69126,290.40658 237.61716,293.74659 238.04385,293.29708 C 238.47054,292.84758 240.40909,289.5548 242.35174,285.9798 z M 263.31116,280.1767 C 262.75479,275.22945 262.44952,274.73828 258.76179,272.85694 C 256.58765,271.74778 254.71853,270.98417 254.6082,271.16004 C 253.68197,272.63637 252.00262,277.35098 252.00262,278.47494 C 252.00262,279.2455 254.34982,282.69642 257.21863,286.14364 L 262.43464,292.41131 L 263.17109,288.94555 C 263.57614,287.03939 263.63917,283.09341 263.31116,280.1767 z M 118.96027,284.83297 C 123.36964,278.33524 134.8428,266.02769 142.2152,259.88681 L 147.92779,255.12849 L 142.2152,251.93202 C 132.8362,246.68403 123.96161,240.05036 115.89236,232.25598 L 108.28209,224.90494 L 100.39236,230.16433 C 91.78517,235.90198 75.84312,250.71646 71.44245,257.06662 L 68.67504,261.06 L 72.58883,265.0761 C 81.10917,273.81916 107.74057,289.58145 114.50262,289.88355 C 115.05262,289.90812 117.05856,287.63536 118.96027,284.83297 z M 224.24387,278.11654 C 229.56,274.74909 229.98577,274.20212 229.99387,270.7298 C 230.00245,267.0513 229.93,266.9798 226.19375,266.9798 C 224.09887,266.9798 221.68764,267.5423 220.83547,268.2298 C 219.56295,269.25641 214.00262,281.70352 214.00262,283.5255 C 214.00262,284.24394 217.4202,282.43893 224.24387,278.11654 z M 324.48211,283.01299 C 325.26746,281.74226 315.37376,270.98949 306.70326,263.69042 C 301.39584,259.22249 299.34688,258.05315 297.72655,258.56742 C 296.57179,258.93393 292.59317,259.74498 288.88518,260.36976 C 285.17719,260.99453 281.88736,261.76173 281.57446,262.07463 C 281.26155,262.38753 283.02988,266.19581 285.50408,270.53746 C 287.97828,274.87911 290.00262,278.74786 290.00262,279.13469 C 290.00262,280.15672 299.85261,282.04097 309.84424,282.93029 C 322.60711,284.06626 323.82689,284.07315 324.48211,283.01299 z M 345.84653,281.01161 C 356.43378,278.85407 363.8862,276.49052 373.00488,272.3983 L 378.96485,269.72362 L 376.41,266.68736 C 370.56239,259.73787 354.44336,247.76955 343.50262,242.25375 L 339.50262,240.23714 L 331.00262,245.13981 C 326.32762,247.83628 318.82089,251.44403 314.321,253.15704 L 306.13938,256.27159 L 316.4074,266.07505 C 322.05481,271.46696 327.76153,277.47323 329.08902,279.42232 C 331.9489,283.62139 332.69355,283.69202 345.84653,281.01161 z M 282.92454,275.7298 C 282.2929,274.4923 280.13957,270.88052 278.13936,267.70363 C 274.61145,262.1003 274.38292,261.93572 270.50262,262.20363 L 266.50262,262.4798 L 266.82986,266.4798 C 267.24243,271.52282 268.03495,272.28888 276.00262,275.34626 C 284.12281,278.46217 284.32491,278.47337 282.92454,275.7298 z M 468.44084,261.4798 C 474.09537,250.01761 478.35451,237.01525 479.52602,227.63882 C 480.16408,222.53193 479.90262,221.5001 475.74812,212.72987 C 470.63953,201.94552 463.42346,190.87253 456.47094,183.1492 C 451.1957,177.2891 450.73128,177.41088 449.4896,184.9798 C 447.83152,195.08695 439.74227,215.00733 432.65309,226.44099 L 430.19704,230.40218 L 434.6324,235.33537 C 443.07522,244.72582 454.24653,263.57043 458.42663,275.47327 C 459.09901,277.38787 459.20363,277.36808 461.07051,274.97327 C 462.1396,273.60186 465.45625,267.5298 468.44084,261.4798 z M 249.61892,270.37247 C 250.35981,267.42049 248.36391,265.43506 246.3422,267.11294 C 245.41712,267.88068 245.38681,268.7289 246.21917,270.55574 C 247.64818,273.69206 248.80135,273.62989 249.61892,270.37247 z M 238.35839,266.46455 C 237.41018,263.99354 235.00262,264.74717 235.00262,267.51498 C 235.00262,269.72426 235.25494,269.91513 236.96538,268.99973 C 238.11911,268.38227 238.6933,267.33729 238.35839,266.46455 z M 261.61309,263.40707 C 260.78988,261.26185 257.31471,261.67836 256.70893,263.99485 C 256.32611,265.4588 256.90957,266.39418 258.8423,267.41494 C 261.2887,268.70699 261.52908,268.65973 261.8317,266.82716 C 262.0127,265.73111 261.91432,264.19207 261.61309,263.40707 z M 391.79778,261.82643 C 399.25554,256.83832 420.64207,236.56473 422.77642,232.4599 C 423.69771,230.68807 423.00855,229.75244 417.16466,224.8412 C 413.50054,221.76186 407.19868,217.1097 403.16052,214.50307 C 395.4889,209.55104 380.18522,201.97851 377.85527,201.98159 C 377.11131,201.98257 375.28508,203.89507 373.79697,206.23159 C 369.84251,212.44058 359.49361,223.84835 351.75262,230.53146 C 348.04012,233.73661 345.00796,236.61118 345.01449,236.9194 C 345.02101,237.22762 347.70484,238.95098 350.97854,240.74909 C 358.93408,245.11874 371.24856,254.54121 377.96846,261.40055 C 380.97467,264.46914 383.58249,266.9798 383.76362,266.9798 C 383.94475,266.9798 387.56012,264.66078 391.79778,261.82643 z M 214.62187,262.9798 C 216.34129,262.9798 217.49784,261.92942 218.9823,259.01964 C 220.09347,256.84155 221.00262,254.88858 221.00262,254.6797 C 221.00262,254.47082 219.21966,253.71149 217.04048,252.99229 C 213.27819,251.75063 212.88727,251.82609 209.29048,254.48832 C 207.20716,256.03032 204.24799,258.44733 202.71455,259.85944 C 200.19619,262.17856 200.09945,262.50032 201.71455,263.18569 C 202.69799,263.60301 205.47793,263.7274 207.89219,263.46213 C 210.30646,263.19685 213.33481,262.9798 214.62187,262.9798 z M 196.79546,258.68264 C 199.3844,256.3192 202.93022,253.22762 204.67505,251.81247 L 207.84749,249.23946 L 199.47459,244.24811 L 191.10169,239.25677 L 185.30215,241.16533 C 178.24898,243.48645 159.00262,252.84087 159.00262,253.94783 C 159.00262,255.51743 181.66982,261.79385 191.29546,262.88955 C 191.73152,262.93919 194.20652,261.04608 196.79546,258.68264 z M 229.80509,259.36015 C 230.31106,255.81441 226.60629,255.68786 224.54318,259.18042 L 222.80603,262.12118 L 226.15433,261.80049 C 228.67641,261.55893 229.57726,260.95677 229.80509,259.36015 z M 269.41157,257.12712 C 269.70141,256.65815 269.39047,255.54154 268.72059,254.64578 C 267.20775,252.62282 264.42859,254.04151 265.32552,256.37888 C 265.97913,258.08216 268.53236,258.54971 269.41157,257.12712 z M 19.01277,227.93428 C 20.79774,224.38432 24.2525,218.38678 26.69003,214.60642 C 29.43892,210.34318 30.88451,207.11534 30.49677,206.10642 C 28.25869,200.28281 26.65827,188.20954 26.12081,173.09485 L 25.50262,155.7099 L 21.29142,163.09485 C 15.44818,173.34183 11.34039,183.65654 8.1951403,195.9798 C 5.7408203,205.59591 5.5147003,208.12131 5.5089203,225.9798 C 5.5047503,238.87339 5.9637903,247.49368 6.8638603,251.42413 L 8.2251003,257.36846 L 11.99624,245.87861 C 14.07037,239.55919 17.22781,231.48424 19.01277,227.93428 z M 68.50262,252.85316 C 73.30359,246.32484 89.09725,231.73003 97.292138,226.24895 L 104.83349,221.20499 L 99.911518,214.45366 C 93.02998,205.01446 87.52616,194.71628 83.11483,183.02545 L 79.34058,173.023 L 72.17148,177.44305 C 61.46263,184.04549 54.41343,189.77695 45.25262,199.32981 C 39.82647,204.98818 37.0068,208.71105 37.01483,210.20634 C 37.03214,213.43049 43.11718,226.96661 48.73297,236.27326 C 53.55309,244.2613 63.433,256.99972 64.77461,256.95616 C 65.17502,256.94316 66.85262,255.09681 68.50262,252.85316 z M 287.10586,255.82567 C 290.94954,255.1909 293.73622,254.33207 293.29849,253.91716 C 292.86076,253.50225 289.57762,251.57333 286.00262,249.63068 L 279.50262,246.09858 L 275.78888,248.35431 L 272.07514,250.61004 L 274.28888,253.77764 C 276.78007,257.34224 277.3608,257.43504 287.10586,255.82567 z M 252.85707,253.63473 C 254.23906,252.16367 255.27316,249.46159 255.63169,246.38473 C 256.13871,242.03346 255.91673,241.21275 253.66518,239.11398 C 252.09744,237.65261 249.45296,236.55946 246.74787,236.25455 C 243.14607,235.84858 241.89091,236.17983 239.67802,238.12037 C 235.9952,241.34994 234.8593,249.05298 237.61419,252.11612 C 241.64645,256.59957 249.35067,257.36712 252.85707,253.63473 z M 308.19302,250.36886 C 316.79076,247.29781 333.00262,239.15701 333.00262,237.91071 C 333.00262,236.73453 317.40691,232.05695 308.0924,230.43945 L 300.52994,229.1262 L 296.51628,232.50329 C 287.77782,239.85581 284.55052,243.12212 285.58398,243.56775 C 286.17873,243.82421 289.77873,246.00466 293.58398,248.4132 C 297.38923,250.82175 300.5883,252.83454 300.69302,252.88608 C 300.79774,252.93763 304.17274,251.80488 308.19302,250.36886 z M 167.00262,243.56153 C 170.57762,241.73446 176.25106,239.2442 179.61026,238.02762 L 185.71789,235.81564 L 174.4904,224.64772 C 168.31527,218.50536 162.54482,212.38927 161.66715,211.0564 L 160.07141,208.633 L 150.28701,210.25226 C 139.63184,212.01564 128.64613,215.33277 118.84022,219.7476 L 112.56852,222.57126 L 119.37766,229.02553 C 127.00617,236.25647 137.50192,243.86123 146.45606,248.64536 L 152.43099,251.83771 L 156.46681,249.36058 C 158.6865,247.99816 163.42762,245.38859 167.00262,243.56153 z M 225.31749,248.60166 C 226.20547,246.2876 224.06747,244.99313 221.37995,246.21765 C 218.56576,247.49988 218.32948,248.65724 220.75262,249.29047 C 223.93512,250.12215 224.78312,249.99419 225.31749,248.60166 z M 271.49775,245.40851 C 273.20922,244.11518 273.28031,243.76645 271.99775,242.95563 C 268.56134,240.78318 264.62685,243.20403 267.28076,245.85794 C 268.70555,247.28273 269.06882,247.24401 271.49775,245.40851 z M 218.93501,240.00618 C 216.08233,235.16067 215.24958,234.71713 210.30375,235.40906 C 201.42604,236.65107 199.00262,237.19846 199.00262,237.96173 C 199.00262,238.37937 202.02056,240.31423 205.70916,242.26143 L 212.4157,245.80178 L 216.12467,243.66717 C 218.95882,242.03604 219.62168,241.17254 218.93501,240.00618 z M 285.9507,234.94334 C 289.27926,232.17329 292.00262,229.69829 292.00262,229.44334 C 292.00262,229.18839 288.18677,228.9798 283.52294,228.9798 L 275.04327,228.9798 L 272.95318,233.07671 C 271.80364,235.33 271.00699,237.26657 271.18286,237.38019 C 272.72253,238.37491 276.83209,239.85757 278.2007,239.91212 C 279.13465,239.94934 282.62215,237.71339 285.9507,234.94334 z M 227.00262,236.37281 C 227.00262,235.54844 225.96773,234.9798 224.46744,234.9798 C 222.25816,234.9798 222.06729,235.23212 222.98269,236.94256 C 224.1304,239.08707 227.00262,238.67999 227.00262,236.37281 z M 266.9246,230.15072 C 263.84079,229.65986 262.00262,230.67731 262.00262,232.87509 C 262.00262,235.85607 265.24246,235.94826 267.24732,233.02432 C 268.93642,230.5609 268.92613,230.46931 266.9246,230.15072 z M 203.00318,231.79697 C 207.46507,231.0949 210.93749,230.07154 210.78252,229.50433 C 210.62858,228.94084 208.47762,224.78449 206.00262,220.26799 C 201.57743,212.19271 201.4195,212.03719 196.50262,210.91361 C 193.75262,210.28519 185.94076,209.53035 179.14292,209.23618 C 164.36229,208.59657 164.42304,208.23829 177.18775,220.76711 C 186.89631,230.29627 191.9556,234.21182 193.69648,233.54378 C 194.38258,233.2805 198.5706,232.49444 203.00318,231.79697 z M 345.7007,229.11172 C 353.45475,222.6057 364.88095,210.58393 368.84154,204.76472 L 372.05065,200.04963 L 366.77664,198.54746 C 357.95523,196.03491 349.08931,194.99528 336.41631,194.98735 L 324.32999,194.9798 L 319.07589,203.85601 C 316.18614,208.73793 311.64395,215.42379 308.98214,218.71348 L 304.14248,224.69474 L 312.41175,226.31951 C 316.95986,227.21313 324.24089,229.24762 328.59183,230.84059 C 332.94276,232.43356 337.26676,233.79155 338.2007,233.85835 C 339.13465,233.92515 342.50965,231.78916 345.7007,229.11172 z M 225.27241,225.7298 C 224.97547,223.3923 224.3262,220.9631 223.8296,220.33159 C 222.89051,219.13738 208.98336,213.66573 208.39149,214.2576 C 208.20614,214.44294 210.16266,218.05626 212.7393,222.2872 C 217.38154,229.9099 217.46222,229.9798 221.61821,229.9798 L 225.81231,229.9798 L 225.27241,225.7298 z M 235.25606,228.11866 C 235.59246,226.83225 234.85646,225.73396 232.87269,224.56212 L 230.00262,222.86673 L 230.00262,225.7566 C 230.00262,227.34603 230.30262,228.94647 230.66929,229.31313 C 232.0089,230.65275 234.78225,229.93052 235.25606,228.11866 z M 257.82217,224.21958 C 258.17924,221.71686 257.72631,221.52212 254.97412,222.99505 C 253.83573,223.6043 253.31248,224.6237 253.66569,225.54415 C 254.52121,227.77361 257.44819,226.84085 257.82217,224.21958 z M 436.12135,209.32162 C 440.55754,199.74638 444.64926,186.2253 445.56791,178.10545 L 446.21935,172.3475 L 441.36099,168.29367 C 435.27712,163.21728 424.34682,156.15701 416.50262,152.23675 C 408.89171,148.43309 398.13253,144.51656 397.37509,145.274 C 397.05629,145.5928 396.16382,149.59452 395.39183,154.16672 C 393.70683,164.14631 388.2301,180.59227 383.39331,190.19686 C 381.45783,194.04021 380.01564,197.27722 380.18844,197.39021 C 380.36124,197.5032 383.58253,198.87574 387.34687,200.4403 C 399.27775,205.39909 417.93698,217.70514 424.43485,224.9004 L 426.36708,227.04 L 429.35438,222.2599 C 430.9974,219.63085 434.04254,213.80862 436.12135,209.32162 z M 245.84967,221.10649 C 244.10017,218.3051 243.35895,218.42392 242.55304,221.63494 C 241.75875,224.79966 243.79334,226.61651 245.84021,224.57033 C 246.95336,223.45756 246.95494,222.87632 245.84967,221.10649 z M 271.82972,223.62842 C 273.09655,222.01827 278.22513,208.86898 277.76555,208.4094 C 277.5578,208.20165 273.92616,210.13984 269.69522,212.71648 C 262.38291,217.1697 262.00262,217.58038 262.00262,221.02388 C 262.00262,223.0163 262.20424,224.84809 262.45067,225.09451 C 263.31345,225.9573 270.93472,224.76597 271.82972,223.62842 z M 301.95002,219.42104 C 304.26119,216.91372 308.83132,210.72622 312.10587,205.67104 C 317.43049,197.45102 317.8466,196.44621 316.04377,196.16191 C 313.34098,195.73568 297.99189,199.61918 290.35518,202.66141 L 284.20775,205.11036 L 281.10518,213.99519 C 279.39877,218.88184 278.00262,223.12746 278.00262,223.42991 C 278.00262,223.73235 282.44531,223.9798 287.87526,223.9798 L 297.7479,223.9798 L 301.95002,219.42104 z M 238.98753,217.02552 C 240.48523,212.48745 240.09159,211.60476 233.16971,203.9798 L 229.08465,199.4798 L 229.04363,208.20591 L 229.00262,216.93202 L 232.75262,218.91171 C 234.81512,220.00055 236.76809,220.9113 237.09256,220.9356 C 237.41703,220.95991 238.26976,219.20038 238.98753,217.02552 z M 254.25262,217.49616 C 257.32129,214.79525 257.46731,213.40004 255.66714,203.9798 L 254.42503,197.4798 L 250.28521,204.90571 L 246.14539,212.33163 L 248.324,216.14801 C 249.52224,218.24702 250.72762,219.95364 251.00262,219.9405 C 251.27762,219.92735 252.74012,218.8274 254.25262,217.49616 z M 129.52814,210.44855 C 135.16475,208.60214 143.42739,206.51697 147.88957,205.81485 C 152.35175,205.11273 156.00262,204.22714 156.00262,203.84688 C 156.00262,203.46661 154.17583,199.98695 151.94308,196.1143 C 147.3065,188.07228 142.04265,175.43129 139.44045,166.08962 L 137.66041,159.69944 L 126.58151,160.27318 C 114.82233,160.88215 101.17494,163.94213 90.50262,168.36268 C 83.50631,171.26061 83.51795,171.19458 87.96776,182.73292 C 91.36407,191.53958 98.444958,204.202 104.86641,212.95199 L 109.23019,218.89817 L 114.25497,216.35192 C 117.0186,214.95148 123.89153,212.29497 129.52814,210.44855 z M 224.00262,204.06479 L 224.00262,194.14977 L 219.25262,189.91179 C 216.64012,187.5809 210.45262,183.03077 205.50262,179.8004 C 198.34191,175.12731 196.4319,174.26302 196.15659,175.57129 C 195.68216,177.82577 199.61908,194.1528 202.40389,201.4798 L 204.68433,207.4798 L 213.09348,210.61641 C 217.71851,212.34154 222.06512,213.80404 222.75262,213.86641 C 223.6762,213.95019 224.00262,211.39061 224.00262,204.06479 z M 270.52359,206.49925 C 274.84788,204.03494 278.75279,201.89641 279.20117,201.74695 C 281.34686,201.03172 284.90276,166.9798 282.83176,166.9798 C 281.31706,166.9798 265.49738,182.56865 261.49221,188.00797 L 258.15795,192.53615 L 259.54516,199.00797 C 260.30812,202.56748 260.94817,206.7173 260.96749,208.2298 C 260.98681,209.7423 261.37581,210.9798 261.83193,210.9798 C 262.28805,210.9798 266.1993,208.96355 270.52359,206.49925 z M 480.99155,195.35377 C 478.62119,168.37438 467.6993,142.22784 451.17735,123.9798 L 447.103,119.4798 L 448.01715,122.9798 C 450.54362,132.65289 452.08132,145.75473 452.12072,157.94386 L 452.16423,171.40792 L 458.41027,178.02905 C 465.03357,185.05009 474.28305,198.30015 478.1387,206.2904 C 480.4129,211.00331 480.47467,211.04627 481.18078,208.40604 C 481.57719,206.92381 481.49203,201.05029 480.99155,195.35377 z M 247.94258,199.0797 L 252.90379,190.82501 L 250.34227,183.65241 C 247.44078,175.52785 239.19097,158.9798 238.04207,158.9798 C 236.88195,158.9798 233.31735,170.62121 231.00886,181.9492 L 228.9378,192.11205 L 235.47021,199.16766 C 239.06304,203.04824 242.00262,206.69349 242.00262,207.2682 C 242.00262,208.81659 242.51533,208.1098 247.94258,199.0797 z M 198.48307,204.2298 C 196.2142,198.81684 192.83959,186.45119 191.75998,179.59422 C 190.29739,170.30479 190.32397,170.32941 177.09284,166.00779 C 162.78406,161.33417 143.00262,158.35547 143.00262,160.87446 C 143.00262,162.87261 147.41041,175.89418 150.14676,181.9798 C 151.75423,185.5548 155.16893,191.9673 157.73499,196.2298 L 162.40054,203.9798 L 173.45158,204.05392 C 179.52965,204.09469 186.52762,204.48837 189.00262,204.92876 C 197.10908,206.37118 199.31256,206.20873 198.48307,204.2298 z M 41.65875,195.83616 C 50.23897,186.88011 60.94751,178.2687 70.28952,172.81233 C 74.25673,170.49522 77.6554,168.49471 77.84213,168.36676 C 78.02886,168.23881 77.46636,163.9701 76.59213,158.88074 C 74.79505,148.41903 74.47524,126.03362 76.00743,117.95443 C 76.56007,115.04034 76.80834,112.45218 76.55912,112.20297 C 75.77301,111.41686 63.48591,118.74699 55.33639,124.86384 C 51.02781,128.09776 44.27239,134.05932 40.32434,138.11175 C 33.72578,144.88475 33.05951,145.95901 32.07434,151.41346 C 30.4495,160.40949 30.74265,184.08551 32.60447,194.2298 C 33.48773,199.0423 34.34641,202.9798 34.51264,202.9798 C 34.67887,202.9798 37.89462,199.76516 41.65875,195.83616 z M 312.26434,191.73436 C 320.13269,190.43171 320.57998,190.21576 322.22552,186.92513 C 327.95854,175.46065 334.54021,142.9798 331.13026,142.9798 C 329.48992,142.9798 315.40281,147.82807 309.44859,150.44183 C 306.1783,151.87741 300.05776,155.12449 295.84738,157.65757 L 288.19214,162.26315 L 288.12157,173.37148 C 288.08275,179.48105 287.59272,187.1798 287.0326,190.4798 C 286.47248,193.7798 286.0116,196.99035 286.00841,197.61435 C 286.00474,198.33451 289.29419,197.71695 295.01434,195.92358 C 299.97079,194.36966 307.73329,192.48451 312.26434,191.73436 z M 380.97859,183.65352 C 383.07746,179.11053 385.769,172.12206 386.9598,168.12357 C 389.32318,160.18779 392.38155,144.0254 391.65696,143.30081 C 389.13749,140.78133 353.93787,139.01131 342.00262,140.80392 C 337.58945,141.46676 337.49771,141.55698 337.24841,145.4798 C 336.64914,154.90916 333.58282,169.99229 330.41494,179.09338 C 328.53816,184.48522 327.00262,189.14041 327.00262,189.43826 C 327.00262,189.73611 331.61512,189.98161 337.25262,189.98382 C 347.65468,189.9879 361.82493,191.8423 370.00262,194.26968 C 375.38995,195.86879 375.29082,195.96467 380.97859,183.65352 z M 225.96199,181.2298 C 226.60257,177.5173 228.72744,169.64523 230.68393,163.73632 C 234.79676,151.31489 235.17365,152.77503 224.94175,141.49009 C 218.10237,133.94682 210.97795,127.52183 204.29605,122.87124 L 200.08949,119.94348 L 198.97421,124.0853 C 196.24751,134.21149 195.00262,144.03734 195.00262,155.4328 L 195.00262,167.70987 L 202.75262,172.21801 C 207.01512,174.6975 213.65262,179.23601 217.50262,182.3036 C 221.35262,185.37119 224.56893,187.90325 224.64997,187.93042 C 224.731,187.95758 225.32142,184.9423 225.96199,181.2298 z M 280.42154,162.09106 L 283.34046,159.92622 L 282.09837,151.81239 C 280.51066,141.44078 276.90808,129.02243 272.8617,119.97288 L 269.6814,112.86027 L 263.8534,118.62746 C 257.08305,125.32717 248.69937,136.70646 243.7016,145.9798 L 240.19849,152.4798 L 245.1319,160.9798 C 247.84527,165.6548 251.45868,173.14001 253.1617,177.61361 L 256.25809,185.74742 L 266.88036,175.00166 C 272.7226,169.09149 278.81613,163.28172 280.42154,162.09106 z M 114.92884,156.57895 C 120.11325,155.69942 127.2489,154.9798 130.78582,154.9798 C 136.5226,154.9798 137.13759,154.79094 136.4845,153.2298 C 136.08185,152.2673 135.524,144.37966 135.24484,135.70172 C 134.78702,121.46988 135.53231,111.37202 137.72583,102.08702 L 138.29111,99.694235 L 123.89686,100.23983 C 109.11934,100.79994 95.00085,103.61058 86.23768,107.73683 C 82.7589,109.37487 82.43772,109.91202 81.30626,115.98439 C 79.16662,127.46753 79.86601,156.78702 82.46587,164.59667 C 82.70849,165.3255 86.77498,164.4045 94.17015,161.94582 C 100.40301,159.87358 109.74442,157.45849 114.92884,156.57895 z M 446.89456,145.89932 C 446.11005,136.36935 442.81222,120.61897 440.20168,113.93423 C 437.5243,107.07836 410.31421,90.333145 394.15521,85.597035 C 389.81195,84.324045 388.90563,84.284665 389.32875,85.387285 C 393.7993,97.037355 396.98811,114.85162 397.16221,129.14889 L 397.29044,139.67883 L 404.32358,141.94401 C 414.38623,145.1849 429.21371,153.0101 438.50262,159.98198 L 446.50262,165.98646 L 447.13408,161.23313 C 447.48139,158.6188 447.3736,151.71859 446.89456,145.89932 z M 190.00581,154.2298 C 190.009,143.5274 191.79074,130.32444 194.40336,121.64334 L 195.77539,117.08445 L 187.99835,113.03839 C 178.45704,108.07446 164.48582,103.42307 153.21185,101.45706 C 148.55269,100.64457 144.39634,99.979795 143.97552,99.979795 C 143.5547,99.979795 142.48773,103.9173 141.60448,108.7298 C 139.93768,117.81148 139.47123,142.82695 140.82599,150.4798 L 141.5341,154.4798 L 149.01836,155.20898 C 159.99923,156.27882 170.85887,158.63935 179.69859,161.87784 C 183.99081,163.45032 188.06512,164.79155 188.75262,164.85835 C 189.68246,164.94869 190.00344,162.22639 190.00581,154.2298 z M 292.80949,153.60172 C 300.38804,148.81759 309.70624,144.6434 320.97238,140.98585 L 332.50262,137.24255 L 332.17353,129.36118 C 331.99254,125.02642 330.9715,117.09224 329.90457,111.72966 C 328.0531,102.42386 322.57295,85.450315 321.13248,84.560055 C 319.98948,83.853641 309.01161,87.856755 299.50262,92.447445 C 294.55262,94.837175 286.60862,99.565365 281.8493,102.95452 L 273.19597,109.11662 L 276.49453,116.29821 C 280.92531,125.94488 284.60926,137.96322 286.1638,147.84281 C 286.868,152.31815 287.80375,155.9798 288.24326,155.9798 C 288.68277,155.9798 290.73757,154.90966 292.80949,153.60172 z M 240.36421,141.66091 C 245.3794,132.69291 252.23397,123.61256 260.25291,115.31404 L 267.17726,108.14828 L 262.22681,100.81404 C 254.22759,88.962945 234.77166,68.979795 231.23245,68.979795 C 227.97154,68.979795 212.36472,90.585665 206.57694,103.11257 C 201.14648,114.8661 201.14849,114.91662 207.20953,118.9798 C 213.48315,123.18548 230.79006,139.57789 234.1215,144.46973 C 235.43111,146.39275 236.57639,147.96921 236.66655,147.97297 C 236.75672,147.97673 238.42067,145.1363 240.36421,141.66091 z M 392.27928,133.95383 C 393.64091,123.80212 388.90476,95.499995 384.28219,86.165135 C 381.93343,81.422015 379.89983,80.920994 360.33804,80.265987 C 346.17916,79.791891 329.49188,80.941347 326.85256,82.57254 C 326.48518,82.799593 327.66886,87.146615 329.48297,92.232575 C 333.50206,103.50039 336.01909,115.48966 336.88109,127.47187 C 337.40473,134.75053 337.81454,136.40482 339.01588,136.08923 C 343.70365,134.85776 374.22154,135.01886 381.50262,136.31351 C 385.90262,137.09587 390.00587,137.79085 390.62095,137.8579 C 391.23603,137.92494 391.98228,136.16811 392.27928,133.95383 z M 55.23929,118.63046 C 58.75028,116.12507 65.34264,112.08771 69.88898,109.65854 L 78.15505,105.24189 L 81.52966,95.183515 C 85.45903,83.471654 89.97671,74.157481 96.306038,64.718786 C 98.791478,61.012341 100.50679,57.979795 100.11784,57.979795 C 98.866978,57.979795 85.18467,66.722054 79.25249,71.311622 C 66.77762,80.963105 53.42831,96.734705 45.67678,110.9798 C 42.08768,117.57554 36.00262,132.13106 36.00262,134.12049 C 36.00262,134.71923 38.89456,132.50385 42.42915,129.19741 C 45.96374,125.89097 51.7283,121.13585 55.23929,118.63046 z M 200.26473,105.12993 C 204.17662,95.463595 212.06294,82.621742 219.63824,73.582663 C 224.82759,67.390586 225.89644,65.556788 224.96817,64.43829 C 224.32956,63.668804 218.78856,60.570324 212.65484,57.552779 C 200.80782,51.724517 187.14407,47.314395 177.85398,46.32043 L 172.20533,45.71607 L 167.35398,51.89271 C 164.68573,55.289861 160.1827,61.870368 157.34723,66.516058 C 151.39198,76.273289 144.18384,93.616585 145.57498,94.840955 C 146.08518,95.289985 150.06042,96.184875 154.40883,96.829585 C 164.01464,98.253775 180.40395,103.62016 189.67023,108.37529 C 193.42804,110.30367 196.72762,111.89802 197.00262,111.91829 C 197.27762,111.93857 198.74557,108.88381 200.26473,105.12993 z M 277.89929,99.692315 C 286.87522,92.939865 298.84454,86.568145 310.10724,82.546829 L 318.97159,79.381837 L 315.41675,73.372727 C 309.96067,64.149743 303.76793,56.260107 295.05023,47.425508 C 284.95282,37.192691 283.15028,36.174085 278.21704,37.913183 C 265.49062,42.399588 248.53146,52.287519 238.98066,60.789701 L 234.50262,64.776077 L 237.50262,67.024543 C 244.15111,72.007509 261.77866,90.982335 266.00262,97.702805 C 268.47762,101.64063 270.58545,104.88887 270.68668,104.92114 C 270.78791,104.9534 274.03359,102.60043 277.89929,99.692315 z M 93.62506,100.10077 C 104.62016,96.839925 117.44671,94.979795 128.93678,94.979795 L 139.60895,94.979795 L 141.87569,87.941805 C 146.01116,75.101577 151.8574,64.661838 164.96782,46.705728 C 166.42183,44.714304 166.31496,44.703068 150.96782,45.233799 C 135.3245,45.774772 120.49297,48.606385 112.99569,52.483378 C 107.60493,55.271051 95.01825,74.39174 89.05563,88.851235 C 84.87573,98.987605 83.74485,103.29269 85.43218,102.6452 C 86.1556,102.3676 89.8424,101.22261 93.62506,100.10077 z M 432.42919,96.822725 C 423.46839,79.416013 404.59323,59.73398 386.26744,48.687671 C 378.06296,43.742223 364.77089,37.637844 359.50262,36.395936 C 356.67544,35.729475 356.85129,36.057156 362.55535,42.084266 C 370.14945,50.10845 376.64346,59.234868 382.32388,69.866154 L 386.74053,78.132225 L 397.01142,81.57814 C 408.34249,85.379755 420.08642,91.151575 428.2084,96.910615 C 431.12022,98.975295 433.6483,100.55233 433.82636,100.41512 C 434.00441,100.27792 433.37568,98.661335 432.42919,96.822725 z M 333.50262,76.495008 C 342.71249,74.830972 364.73447,74.53808 373.44105,75.963828 C 376.70718,76.498675 379.55107,76.764676 379.76081,76.554941 C 381.16841,75.147341 368.68642,56.138452 360.22612,46.805456 C 349.57155,35.051848 346.8415,33.012153 340.33894,31.94721 C 331.33816,30.473127 308.36603,30.787721 298.42554,32.521198 C 293.56406,33.36897 289.44259,34.206493 289.26672,34.382362 C 289.09085,34.55823 292.62333,38.252099 297.11668,42.590959 C 306.04493,51.212248 315.26282,62.952252 320.28729,72.101286 C 322.05572,75.321414 323.95262,77.95255 324.50262,77.948255 C 325.05262,77.94396 329.10262,77.289999 333.50262,76.495008 z M 252.89041,44.60934 C 257.13815,42.041474 264.10099,38.424449 268.3634,36.571508 C 272.6258,34.718567 276.35371,32.962038 276.64764,32.66811 C 277.44261,31.873136 262.56878,23.402123 254.42557,20.012098 C 244.4847,15.873702 228.22298,11.753163 223.95047,12.290046 C 215.52633,13.34862 193.55796,25.971297 182.75514,35.960225 C 179.07129,39.366529 177.9506,40.944841 179.00262,41.245016 C 179.82762,41.480415 184.32762,42.593028 189.00262,43.717491 C 200.52149,46.488088 211.81185,50.963363 221.96395,56.782714 L 230.42527,61.632887 L 237.79626,55.455538 C 241.85031,52.057996 248.64268,47.177207 252.89041,44.60934 z M 130.00262,42.346191 C 133.67839,41.497302 144.10631,40.601628 154.00262,40.284785 L 171.50262,39.724501 L 177.67915,33.955103 C 185.38178,26.76019 194.28181,20.382034 204.00262,15.090535 L 211.50262,11.007926 L 201.88361,10.993861 C 179.7096,10.961436 156.31186,18.270466 136.59719,31.388159 C 127.74472,37.278384 118.21248,45.55377 121.50262,44.492459 C 122.60262,44.137628 126.42762,43.171807 130.00262,42.346191 z M 294.50262,28.328396 C 298.59546,27.385744 308.72273,26.459436 318.88757,26.097985 L 336.27252,25.479795 L 328.74119,21.176248 C 318.6497,15.409778 309.46917,11.644113 297.47043,8.3496281 C 288.1678,5.7954081 286.1346,5.6083341 267.00262,5.5462831 C 253.06476,5.5010781 244.59981,5.9155341 240.55829,6.8410361 L 234.61396,8.2022761 L 246.30892,12.04074 C 258.58641,16.0704 270.10845,21.580433 278.50262,27.436314 C 281.63789,29.62352 284.24851,30.740934 285.50262,30.432497 C 286.60262,30.161963 290.65262,29.215117 294.50262,28.328396 z "
     style="fill:#000000"
     id="path2322" />
</svg>
