<?xml version="1.0" encoding="UTF-8" standalone="no"?>
<!-- Created with Inkscape (http://www.inkscape.org/) -->
<svg
   xmlns:svg="http://www.w3.org/2000/svg"
   xmlns="http://www.w3.org/2000/svg"
   version="1.0"
   width="479.33563"
   height="479.65018"
   id="svg2">
  <defs
     id="defs4" />
  <g
     transform="translate(-106.06057,-264.14058)"
     id="layer1">
    <path
       d="M 260.79175,717.49792 L 236.63658,691.20508 L 205.42544,686.43123 C 188.25931,683.80561 173.92739,681.34989 173.57673,680.97407 C 172.78904,680.12987 158.35431,617.10973 158.27302,614.16006 C 158.2302,612.60634 151.48938,606.64889 133.38015,592.16006 C 119.72137,581.23195 108.34347,571.97131 108.09593,571.58088 C 107.84839,571.19044 112.40975,555.44044 118.23229,536.58088 L 128.81873,502.29076 L 117.69198,474.29076 C 111.57227,458.89076 106.34276,445.58534 106.07084,444.72316 C 105.73096,443.64552 113.814,435.59768 131.93205,418.97453 L 158.28766,394.7935 L 163.06767,363.54213 C 165.69667,346.35388 168.15517,332.0016 168.53099,331.64819 C 169.47126,330.76398 235.96642,315.70955 236.51383,316.25696 C 236.75576,316.49889 244.82182,306.93047 254.43839,294.9938 C 264.05496,283.05713 273.33859,271.56888 275.06868,269.46436 L 278.2143,265.63796 L 311.2143,275.81594 C 329.3643,281.41384 344.58161,286.33803 345.03055,286.7586 C 345.47949,287.17916 358.75449,282.37498 374.53055,276.08264 C 390.30661,269.7903 403.91318,264.42117 404.76736,264.15126 C 405.82314,263.81764 413.34775,271.2912 428.26736,287.49184 C 440.33818,300.59908 451.1143,312.45839 452.2143,313.84586 C 454.10185,316.22668 455.98545,316.63846 485.7143,321.16933 C 503.0393,323.80977 517.49873,326.26727 517.84636,326.63044 C 518.39161,327.20007 533.7143,393.2709 533.7143,395.05236 C 533.7143,395.4126 544.9643,404.78061 558.7143,415.87017 C 572.4643,426.95972 583.7143,436.23991 583.7143,436.49282 C 583.7143,436.74573 578.97342,452.27344 573.17901,470.99884 L 562.64372,505.04502 L 573.76498,533.16789 C 579.88168,548.63547 585.11049,562.02262 585.38457,562.9171 C 585.73616,564.06458 578.1288,571.68256 559.54859,588.78915 L 533.2143,613.03485 L 528.42993,644.14718 C 525.79852,661.25896 523.32352,675.55612 522.92993,675.91864 C 522.30359,676.49554 456.35951,691.79082 454.49881,691.79078 C 454.10529,691.79077 444.74334,703.04076 433.69448,716.79076 C 422.64562,730.54076 413.41098,741.79076 413.17306,741.79076 C 412.93514,741.79076 397.38884,737.04033 378.62574,731.23426 L 344.511,720.67775 L 315.29339,732.23426 C 299.22371,738.59033 285.82179,743.79076 285.51136,743.79076 C 285.20092,743.79076 274.0771,731.95898 260.79175,717.49792 z M 317.60935,727.37187 C 343.5699,717.102 347.19193,715.91159 348.60935,717.18347 C 350.73538,719.09119 411.99269,737.94249 412.68039,736.90066 C 412.97404,736.4558 422.17545,724.9792 433.12796,711.3971 C 447.20554,693.93965 453.48081,686.87092 454.5402,687.27745 C 455.36442,687.59373 470.37967,684.5991 487.90742,680.62271 C 516.13531,674.21886 519.82941,673.15859 520.24312,671.34184 C 520.81372,668.83609 529.7143,610.8205 529.7143,609.60693 C 529.7143,609.13081 530.7268,608.33105 531.9643,607.82969 C 535.31799,606.47097 581.25729,563.77308 580.94853,562.30171 C 580.80236,561.60513 575.50309,547.86614 569.17239,531.77061 C 559.05037,506.03584 557.83368,502.3121 559.08518,500.89839 C 560.89401,498.8551 579.82323,437.50112 578.85888,436.80728 C 578.46404,436.52319 566.99682,427.33815 553.37617,416.39608 C 535.41017,401.96319 528.77401,396.07753 529.20383,394.95745 C 529.52969,394.10827 526.54546,379.08627 522.57221,361.57522 C 516.15062,333.27374 515.11852,329.68463 513.28121,329.26592 C 510.76732,328.69301 452.75029,319.79076 451.53047,319.79076 C 451.05435,319.79076 450.25606,318.77826 449.75649,317.54076 C 448.62495,314.7378 406.86702,269.41348 404.99815,268.95978 C 404.24829,268.77774 390.34877,273.88384 374.11033,280.30666 C 347.38623,290.8769 344.426,291.84083 342.9001,290.4695 C 341.04884,288.80578 280.68948,269.82545 279.43865,270.51371 C 279.01204,270.74844 269.62629,282.18643 258.58141,295.93147 C 243.86506,314.24555 238.08222,320.76219 236.93675,320.32263 C 235.61358,319.81488 172.97621,333.35382 171.81341,334.3989 C 171.46977,334.70775 161.78116,395.90006 161.73199,398.07214 C 161.72226,398.50191 160.9268,399.14547 159.9643,399.50229 C 157.81943,400.29743 111.72379,442.60245 111.02876,444.41367 C 110.53416,445.70258 112.14484,450.07186 126.40761,486.13165 C 133.05918,502.94846 133.70187,505.15078 132.39002,506.63165 C 131.58165,507.54416 126.66786,522.11011 121.47047,539.00043 L 112.02068,569.71011 L 114.61749,572.09664 C 116.04574,573.40924 127.44696,582.70582 139.95355,592.7557 C 158.94919,608.01998 162.61477,611.3791 162.21881,613.15949 C 161.95811,614.33169 165.00045,629.44378 168.97956,646.74192 L 176.2143,678.19307 L 196.7409,681.34961 C 208.03054,683.0857 222.58129,685.3094 229.07592,686.29116 C 238.49028,687.71428 241.01915,688.43924 241.54932,689.86693 C 242.57123,692.61886 286.07824,739.77671 287.2143,739.36384 C 287.7643,739.16395 301.44207,733.76757 317.60935,727.37187 z M 370.7143,686.30497 C 357.7893,677.79192 346.56761,670.81862 345.77721,670.80873 C 344.51667,670.79297 305.69619,692.16106 295.37125,698.55386 C 293.25758,699.86257 290.90588,700.69452 290.14527,700.40264 C 289.38466,700.11077 282.93595,688.22582 275.8148,673.99165 L 262.86727,648.11134 L 245.54078,647.45411 C 236.01122,647.09263 221.82836,646.7955 214.02332,646.79382 C 206.21828,646.79214 199.58231,646.38621 199.27672,645.89176 C 198.97113,645.39731 199.39154,632.68481 200.21096,617.64176 C 201.03038,602.59871 201.70385,589.51749 201.70756,588.57239 C 201.71222,587.38406 193.35706,581.882 174.62053,570.73497 C 153.86859,558.38891 147.63071,554.22677 147.97087,552.95334 C 148.21512,552.03892 155.43539,540.55396 164.0159,527.4312 C 178.37855,505.46544 179.5115,503.40175 178.28975,501.4312 C 170.90105,489.51407 148.73165,448.57171 149.23045,447.76463 C 149.5869,447.18789 161.46956,440.91719 175.63636,433.82975 L 201.39419,420.94349 L 202.05425,404.20742 C 202.41728,395.00257 202.7143,380.81976 202.7143,372.69007 C 202.7143,364.56037 203.08447,357.68002 203.5369,357.4004 C 203.98934,357.12078 217.08481,357.57492 232.63796,358.40959 C 248.19111,359.24427 261.43396,359.72858 262.06652,359.48584 C 262.69908,359.24311 270.1911,347.23665 278.71546,332.80483 C 287.23982,318.37301 294.77497,306.34347 295.46024,306.07253 C 296.1455,305.80158 307.78972,312.82899 321.33627,321.68899 L 345.96638,337.79809 L 349.09034,335.91319 C 364.55681,326.58123 400.95868,306.82376 401.76621,307.32284 C 402.32877,307.67053 408.58854,319.54736 415.6768,333.7158 L 428.56455,359.47661 L 439.88942,360.12914 C 446.11811,360.48803 460.34092,360.78371 471.49568,360.78621 C 487.76354,360.78986 491.88133,361.06245 492.3039,362.16367 C 492.59366,362.91877 492.11615,376.30627 491.24276,391.91367 C 489.72705,418.99931 489.73578,420.35186 491.43454,421.63333 C 492.41341,422.37175 504.6187,429.72474 518.5574,437.97331 C 537.93693,449.44163 543.79616,453.36135 543.45706,454.63074 C 543.21317,455.54375 536.01502,466.99417 527.46117,480.07612 L 511.90872,503.86149 L 527.38858,531.29691 C 535.9025,546.3864 542.5718,559.2123 542.20925,559.79893 C 541.8467,560.38555 529.95981,566.66394 515.79395,573.75091 L 490.03783,586.63632 L 489.37606,609.37515 C 489.01209,621.8815 488.7143,636.06469 488.7143,640.89335 C 488.7143,645.72201 488.28743,649.93655 487.76569,650.259 C 487.24395,650.58145 473.91936,650.1326 458.15548,649.26156 C 442.3916,648.39052 429.20597,647.96147 428.85409,648.30811 C 428.50221,648.65475 421.22757,660.71375 412.68824,675.10589 C 404.1489,689.49802 396.4989,701.38812 395.68824,701.52832 C 394.87757,701.66852 383.6393,694.81801 370.7143,686.30497 z M 410.02139,672.0162 C 418.0749,658.39019 425.23791,646.4899 425.93921,645.57111 C 427.12623,644.01596 429.17103,644.00633 455.54495,645.43169 C 471.1268,646.2738 484.06674,646.77165 484.30036,646.53803 C 484.53398,646.30441 485.02106,632.28067 485.38275,615.37416 L 486.04037,584.63504 L 511.9659,571.66489 C 533.36117,560.96116 537.77954,558.39733 537.25112,556.99275 C 536.89895,556.05665 530.04142,543.63585 522.01216,529.39097 C 511.96731,511.57018 507.69437,503.08667 508.3139,502.19441 C 514.26867,493.61832 538.7143,455.74925 538.7143,455.10074 C 538.7143,454.62567 526.75174,447.12749 512.13084,438.4381 L 485.54738,422.63923 L 486.14451,414.46499 C 487.26807,399.08424 488.83822,365.58134 488.45352,365.19664 C 488.24218,364.98531 474.22943,364.5093 457.31408,364.13885 L 426.55889,363.4653 L 413.58858,337.53947 C 403.31019,316.99439 400.28818,311.7403 399.02781,312.22395 C 397.61699,312.76533 351.73282,338.52965 347.56521,341.1206 C 346.24422,341.94184 341.15472,339.02654 321.98529,326.46829 C 308.82334,317.84565 297.64043,310.79286 297.13438,310.79543 C 296.62834,310.79799 289.29852,322.50437 280.84589,336.80959 C 272.39327,351.11481 265.12126,363.03924 264.68588,363.30832 C 264.2505,363.5774 251.20454,363.09527 235.69487,362.23692 C 220.18519,361.37856 207.36288,360.81453 207.20084,360.98352 C 207.0388,361.1525 206.57573,375.15777 206.17178,392.10634 L 205.43733,422.92191 L 179.48725,435.90435 C 158.02809,446.64005 153.65008,449.18133 154.18957,450.58877 C 154.81831,452.22903 179.91896,496.94648 182.79171,501.54422 C 183.76491,503.10179 183.89316,504.24331 183.20701,505.24077 C 173.77018,518.9591 152.64778,552.0823 152.88996,552.7826 C 153.06835,553.29843 164.6893,560.51663 178.7143,568.82306 C 192.7393,577.12948 204.57835,584.28184 205.02329,584.71719 C 205.46824,585.15254 205.12748,598.24394 204.26605,613.80917 C 203.40462,629.37441 202.9158,642.3256 203.17979,642.58958 C 203.44377,642.85357 217.4277,643.29646 234.25518,643.57379 L 264.8506,644.07802 L 277.78616,669.93439 C 284.90071,684.15539 291.11072,695.79076 291.58619,695.79076 C 292.3602,695.79076 338.07062,670.20935 343.36565,666.81286 C 345.3667,665.52929 347.18321,666.52696 369.36565,681.09262 C 382.48241,689.70547 393.70128,696.76099 394.29648,696.77156 C 394.89168,696.78212 401.96789,685.64221 410.02139,672.0162 z M 363.21243,622.06992 C 355.05762,613.39138 348.09076,606.16785 347.73051,606.01763 C 347.37026,605.8674 338.33173,612.72081 327.6449,621.24743 C 316.95807,629.77404 307.7643,636.60987 307.2143,636.43817 C 306.6643,636.26647 304.0239,626.48806 301.34675,614.70837 C 298.6696,602.92869 296.41005,593.20621 296.32553,593.10287 C 296.24101,592.99953 285.20909,594.49222 271.81016,596.41995 C 256.76351,598.58474 247.09229,599.56875 246.51697,598.99343 C 245.94165,598.41811 247.97849,590.16934 251.84393,577.42039 C 255.73321,564.59283 257.74501,556.43595 257.15834,555.87305 C 256.63912,555.37486 246.32472,551.13381 234.23746,546.44848 C 222.15019,541.76315 212.12518,537.52339 211.95964,537.02677 C 211.7941,536.53016 218.75868,529.45086 227.43648,521.29498 C 236.11428,513.13911 243.16762,505.95908 243.11057,505.33937 C 243.05351,504.71966 236.30351,495.76799 228.11057,485.44677 C 219.91762,475.12555 213.2143,466.14517 213.2143,465.49038 C 213.2143,464.75793 221.48673,462.42199 234.7143,459.4193 C 246.5393,456.735 256.32848,454.44378 256.46802,454.3277 C 256.60757,454.21162 255.14151,443.15689 253.2101,429.76163 C 251.26704,416.28555 250.08022,405.02484 250.55313,404.55193 C 251.02605,404.07901 260.84545,406.56625 272.53613,410.12017 L 293.66444,416.54309 L 296.62736,408.91693 C 298.25696,404.72254 302.28892,394.32551 305.58727,385.81243 C 308.88562,377.29935 311.98808,370.1995 312.48161,370.03499 C 312.97514,369.87048 320.0919,376.94341 328.29662,385.75262 C 336.50134,394.56183 343.76365,401.56835 344.43507,401.32266 C 345.1065,401.07698 354.25125,394.04904 364.75675,385.70504 C 375.28956,377.33934 384.22405,370.9281 384.67445,371.41244 C 385.12369,371.89551 387.61825,381.74076 390.2179,393.29076 C 392.81756,404.84076 395.04442,414.40494 395.16648,414.54448 C 395.28855,414.68403 406.34817,413.21797 419.74343,411.28656 C 433.72662,409.27038 444.47241,408.14887 444.97657,408.65303 C 445.48074,409.1572 443.23635,418.13563 439.70633,429.73607 C 436.32473,440.84877 433.7656,450.48206 434.01937,451.14337 C 434.38178,452.08779 458.50615,461.96905 476.9643,468.73346 C 478.4768,469.28775 479.7143,470.15297 479.7143,470.65617 C 479.7143,471.15937 472.6268,478.24646 463.9643,486.40525 C 455.3018,494.56404 448.26969,501.7708 448.33739,502.42026 C 448.40508,503.06973 455.32688,512.22449 463.71916,522.76417 C 472.25564,533.48495 478.58938,542.29428 478.09607,542.76042 C 477.6111,543.21868 467.6352,545.75018 455.92741,548.38597 L 434.64051,553.17832 L 435.14656,555.73454 C 437.34217,566.82529 441.68424,602.22082 440.94041,602.96465 C 440.39439,603.51067 431.96451,601.42956 419.8477,597.75743 C 408.74694,594.39322 399.16135,591.80841 398.54638,592.0134 C 397.93141,592.21839 393.49556,602.47201 388.68894,614.79921 C 383.88232,627.12642 379.51982,637.35559 378.99449,637.5307 C 378.46917,637.7058 371.36724,630.74845 363.21243,622.06992 z M 386.7143,609.29076 C 391.19713,597.74076 395.20978,587.93449 395.6313,587.49906 C 396.05283,587.06362 405.50319,589.46687 416.63212,592.83961 C 427.76104,596.21235 437.02972,598.80867 437.22918,598.60921 C 437.42865,598.40974 436.0693,587.68149 434.2084,574.76865 C 432.3475,561.85581 431.13755,550.99867 431.51963,550.64168 C 431.9017,550.28468 440.7643,548.08389 451.2143,545.75103 C 461.6643,543.41817 470.7876,541.21133 471.48829,540.84693 C 472.35577,540.39581 467.9683,534.1441 457.73829,521.25452 C 449.4751,510.84309 442.7143,502.04122 442.7143,501.69483 C 442.7143,501.34843 449.64393,494.59081 458.11347,486.67789 C 466.58301,478.76497 473.22051,471.99648 472.86347,471.63681 C 472.50643,471.27714 462.7643,467.3101 451.2143,462.82118 C 439.6643,458.33225 429.84521,454.29744 429.3941,453.85493 C 428.94299,453.41242 431.34207,443.95353 434.72539,432.83518 C 438.10871,421.71684 440.7278,412.48669 440.54559,412.32375 C 440.36338,412.16081 429.6637,413.55113 416.76852,415.41334 C 403.87334,417.27556 393.00889,418.4598 392.6253,418.04498 C 392.24171,417.63016 390.02096,408.74076 387.69028,398.29076 C 385.35961,387.84076 383.14417,378.70683 382.76709,377.99313 C 382.28923,377.08869 377.10196,380.67026 365.64789,389.81312 C 356.60942,397.02781 348.19838,403.79924 346.95669,404.86075 C 345.71501,405.92225 344.31979,406.79076 343.8562,406.79076 C 343.39262,406.79076 336.64183,400.04473 328.85446,391.79959 C 321.0671,383.55444 314.42199,376.69194 314.08756,376.54959 C 313.75313,376.40723 309.70575,385.94485 305.09338,397.74429 C 300.48101,409.54373 296.33007,419.57499 295.86907,420.03599 C 295.40807,420.49699 285.92541,418.11465 274.79648,414.74191 C 263.66756,411.36917 254.42459,408.7629 254.25655,408.9502 C 254.08852,409.13751 255.47467,419.84136 257.33688,432.73654 C 259.1991,445.63172 260.38334,456.49881 259.96852,456.88562 C 259.5537,457.27244 250.6643,459.49763 240.2143,461.83049 C 229.7643,464.16335 220.62311,466.3802 219.90055,466.75683 C 218.97934,467.23701 223.08375,473.09607 233.63738,486.36619 C 241.91519,496.7747 248.69388,505.57214 248.70113,505.91605 C 248.70837,506.25995 241.97012,512.90362 233.72723,520.67975 C 225.48434,528.45588 218.62184,535.13025 218.47723,535.51169 C 218.33262,535.89313 227.63809,539.8812 239.15606,544.37407 C 250.67403,548.86693 260.73244,552.94321 261.50808,553.43248 C 262.67324,554.16744 261.84373,557.85342 256.73503,574.64178 C 253.33421,585.81763 250.71075,595.12054 250.90512,595.31491 C 251.09949,595.50928 261.82357,594.14576 274.73641,592.28486 C 287.64925,590.42396 298.50375,589.21401 298.85752,589.59609 C 299.21128,589.97816 301.40764,598.84076 303.73832,609.29076 C 306.06899,619.74076 308.28324,628.87258 308.65888,629.58369 C 309.13245,630.4802 315.14795,626.26874 328.27808,615.84828 C 338.693,607.58268 347.48568,600.81336 347.81736,600.80534 C 348.14904,600.79732 354.89904,607.73311 362.81736,616.21821 C 370.73568,624.70331 377.51792,631.34081 377.889,630.96821 C 378.26009,630.59561 382.23147,620.84076 386.7143,609.29076 z M 323.37137,588.04076 C 323.11783,587.62826 322.58021,579.73257 322.17665,570.49479 C 321.77308,561.257 321.16646,552.38661 320.8286,550.78281 L 320.2143,547.8668 L 303.79801,557.32878 C 294.76905,562.53287 286.80811,566.79076 286.10703,566.79076 C 283.07096,566.79076 284.09429,563.81992 292.69618,547.66187 C 297.70669,538.24997 301.63463,530.37775 301.42493,530.16805 C 301.21523,529.95836 292.34357,529.45018 281.71012,529.03877 C 268.53394,528.52899 262.25426,527.92169 261.9925,527.13192 C 261.78125,526.49455 269.08352,521.05928 278.21977,515.05353 L 294.83113,504.13398 L 279.58815,494.71237 C 271.20451,489.53049 263.49054,484.95382 262.44599,484.542 C 261.40144,484.13019 260.7326,483.23019 260.95969,482.542 C 261.25131,481.65826 265.90183,481.06579 276.79344,480.52479 C 285.27491,480.10351 294.35297,479.42851 296.9669,479.02479 L 301.71949,478.29076 L 292.24708,461.79076 C 287.03725,452.71576 282.76108,444.75482 282.74448,444.09978 C 282.67092,441.19697 285.67291,442.26162 301.75725,450.84261 C 311.16788,455.86317 319.07171,459.76668 319.32133,459.51707 C 319.57094,459.26745 320.09898,450.33942 320.49474,439.67699 C 321.04893,424.74615 321.51481,420.29076 322.52189,420.29076 C 323.24107,420.29076 328.67239,427.61167 334.5915,436.55946 L 345.35351,452.82816 L 355.0016,437.05946 C 360.30805,428.38667 365.06762,420.61576 365.57843,419.79076 C 367.64706,416.44971 368.57538,421.0666 369.57279,439.65619 C 370.14426,450.30718 370.79609,459.20589 371.0213,459.4311 C 371.24652,459.65631 378.90557,455.55436 388.04144,450.31567 C 397.1773,445.07697 405.13021,440.79076 405.71458,440.79076 C 408.42791,440.79076 407.10062,444.48049 398.72835,460.21173 C 393.77535,469.51826 389.95941,477.3692 390.24848,477.65827 C 390.53754,477.94734 399.38671,478.4329 409.9133,478.7373 C 423.72026,479.13656 429.16567,479.63221 429.45861,480.51631 C 429.69057,481.21641 422.97246,486.24363 413.78948,492.24165 C 404.94813,498.01653 397.72611,503.09003 397.74055,503.5161 C 397.76758,504.31396 425.5936,521.70191 428.98396,523.03952 C 430.02777,523.45133 430.69635,524.35133 430.46968,525.03952 C 430.18645,525.89946 426.01661,526.53288 417.13594,527.06497 C 410.02904,527.49078 400.95228,528.16578 396.96537,528.56497 L 389.71645,529.29076 L 399.1852,545.79076 C 404.39301,554.86576 408.66752,562.8267 408.68412,563.48174 C 408.75928,566.44787 405.58114,565.34588 389.5455,556.84563 C 380.12075,551.84971 372.29365,547.88108 372.15195,548.02645 C 372.01025,548.17182 371.51631,557.02957 371.05431,567.71035 C 370.46248,581.3924 369.85637,587.24838 369.00282,587.53084 C 368.32053,587.75663 363.05513,580.6813 356.94873,571.33328 L 346.10613,554.73482 L 337.03371,569.51279 C 332.04388,577.64067 327.43989,585.30326 326.80261,586.54076 C 325.6349,588.80829 324.22258,589.4257 323.37137,588.04076 z M 335.77348,564.25419 C 340.37332,556.77059 344.53715,550.40024 345.02643,550.09785 C 346.42645,549.23259 348.95601,552.35656 357.99229,566.11053 L 366.4148,578.9303 L 367.06455,572.71384 C 367.42191,569.29479 367.7143,561.41495 367.7143,555.20309 C 367.7143,548.65355 368.13998,543.64571 368.72758,543.28255 C 369.89166,542.56311 375.53822,545.14698 391.51637,553.71074 C 397.7325,557.04238 402.62749,559.43583 402.39412,559.02951 C 386.53316,531.41441 384.54515,527.55991 385.61264,526.49242 C 386.29648,525.80858 393.71703,524.93045 403.98702,524.31804 L 421.2143,523.29076 L 418.2143,521.20954 C 416.5643,520.06487 409.9268,515.87188 403.4643,511.89179 C 397.0018,507.91169 391.7143,504.30549 391.7143,503.87799 C 391.7143,502.51859 395.10616,499.9498 408.1664,491.41817 L 420.9035,483.09764 L 414.0589,482.45131 C 410.29437,482.09583 402.40336,481.80178 396.52332,481.79787 C 389.56593,481.79324 385.58467,481.39004 385.12317,480.64331 C 384.73313,480.01221 388.09985,472.36221 392.60477,463.64331 C 397.10969,454.92441 400.58325,447.79076 400.32379,447.79076 C 400.06433,447.79076 393.22582,451.61576 385.1271,456.29076 C 377.02838,460.96576 370.04894,464.79076 369.61724,464.79076 C 367.783,464.79076 367.19622,461.3675 366.23251,445.04453 L 365.2143,427.79831 L 356.24457,442.37132 C 351.31121,450.38648 346.904,457.17352 346.45076,457.45364 C 344.91851,458.40062 342.39142,455.33232 333.69506,441.96617 L 325.02575,428.64158 L 324.3752,438.46617 C 324.01739,443.86969 323.72232,451.7517 323.71947,455.98174 C 323.71627,460.74252 323.27133,463.9465 322.55162,464.3913 C 321.90889,464.78853 314.30655,461.4489 305.55162,456.92337 C 296.84109,452.42079 289.7143,448.98616 289.7143,449.29085 C 289.7143,449.59555 293.59527,456.6167 298.33868,464.89342 C 304.53178,475.69968 306.65759,480.24747 305.87948,481.02558 C 304.63945,482.26561 291.12746,483.61515 278.90528,483.71969 C 274.19488,483.75998 270.83953,484.18436 271.15794,484.69957 C 271.46686,485.19941 278.01842,489.50036 285.71696,494.25723 C 293.4155,499.0141 299.7143,503.25169 299.7143,503.67411 C 299.7143,505.14095 295.14563,508.63569 282.7143,516.67801 C 275.8393,521.12572 270.4393,524.84551 270.7143,524.94421 C 270.9893,525.04291 279.0893,525.38626 288.7143,525.70721 L 306.2143,526.29076 L 305.95818,528.83833 C 305.81732,530.2395 302.35292,537.6501 298.25951,545.30633 C 294.1661,552.96256 290.99436,559.40416 291.2112,559.62099 C 291.42803,559.83782 298.43271,556.10251 306.77716,551.32028 C 317.29856,545.29044 322.26823,542.94469 322.99079,543.66725 C 324.19462,544.87108 325.54001,558.53197 325.64323,570.59978 C 325.68232,575.16974 326.09586,578.67298 326.56221,578.38476 C 327.02856,578.09654 331.17363,571.73778 335.77348,564.25419 z "
       style="fill:#000000"
       id="path2917" />
    <path
       d="M 265.71429,251.07874 C 259.85491,261.62563 255.434,234.93786 247.04454,243.60885 C 238.65508,252.27984 265.47418,255.81778 255.12637,262.02196 C 244.77855,268.22614 254.29382,242.90341 242.69284,246.21798 C 231.09186,249.53254 252.54891,266.00604 240.48535,266.20511 C 228.42179,266.40418 249.32362,249.23169 237.6196,246.30169 C 225.91557,243.3717 236.26117,268.3667 225.71429,262.50732 C 215.1674,256.64794 241.85517,252.22703 233.18418,243.83757 C 224.51319,235.44811 220.97525,262.26721 214.77107,251.9194 C 208.56689,241.57158 233.88962,251.08685 230.57505,239.48587 C 227.26049,227.88489 210.78699,249.34194 210.58792,237.27838 C 210.38885,225.21482 227.56134,246.11665 230.49134,234.41263 C 233.42133,222.7086 208.42633,233.0542 214.28571,222.50732 C 220.14509,211.96043 224.566,238.6482 232.95546,229.97721 C 241.34492,221.30622 214.52582,217.76827 224.87363,211.5641 C 235.22145,205.35992 225.70618,230.68265 237.30716,227.36808 C 248.90814,224.05352 227.45109,207.58002 239.51465,207.38095 C 251.57821,207.18188 230.67638,224.35437 242.3804,227.28437 C 254.08443,230.21436 243.73883,205.21936 254.28571,211.07874 C 264.8326,216.93812 238.14483,221.35903 246.81582,229.74849 C 255.48681,238.13795 259.02475,211.31885 265.22893,221.66666 C 271.43311,232.01448 246.11038,222.49921 249.42495,234.10019 C 252.73951,245.70117 269.21301,224.24412 269.41208,236.30768 C 269.61115,248.37124 252.43866,227.46941 249.50866,239.17343 C 246.57867,250.87746 271.57367,240.53186 265.71429,251.07874 z "
       transform="matrix(0.9735119,-0.2286364,0.2286364,0.9735119,58.90316,328.41028)"
       style="fill:#000000;fill-opacity:1;fill-rule:nonzero;stroke:#000000;stroke-width:3;stroke-miterlimit:4;stroke-dasharray:3, 3;stroke-dashoffset:0;stroke-opacity:0"
       id="path2919" />
  </g>
</svg>
