<?xml version="1.0" encoding="utf-8"?>
<!-- Generator: Adobe Illustrator 15.1.0, SVG Export Plug-In . SVG Version: 6.00 Build 0)  -->
<!DOCTYPE svg PUBLIC "-//W3C//DTD SVG 1.1//EN" "http://www.w3.org/Graphics/SVG/1.1/DTD/svg11.dtd">
<svg version="1.1" id="Layer_1" xmlns="http://www.w3.org/2000/svg" xmlns:xlink="http://www.w3.org/1999/xlink" x="0px" y="0px"
	 width="72px" height="72px" viewBox="0 0 72 72" enable-background="new 0 0 72 72" xml:space="preserve">
<g>
	
		<radialGradient id="SVGID_1_" cx="678.8574" cy="-42.9937" r="24.9482" gradientTransform="matrix(0.8923 0.5792 0.6774 -0.8148 -541.1495 -391.7269)" gradientUnits="userSpaceOnUse">
		<stop  offset="0" style="stop-color:#FFFFFF"/>
		<stop  offset="0.1286" style="stop-color:#FBF4F7"/>
		<stop  offset="0.3568" style="stop-color:#EFD6E3"/>
		<stop  offset="0.6578" style="stop-color:#DCA5C2"/>
		<stop  offset="1" style="stop-color:#C46597"/>
	</radialGradient>
	<path fill="url(#SVGID_1_)" stroke="#212120" stroke-miterlimit="10" d="M54.496,39.504c0,0,2.371-0.811,3.291-1.9
		c0.92-1.084,1.367-2.33,2.254-3.438c0.881-1.104,2.105-1.867,2.105-1.867s-1.396-0.332-2.562-1.139
		c-1.164-0.801-1.711-1.877-2.9-2.646c-1.192-0.773-4.062-0.756-4.062-0.756l0.01-0.01c0,0,1.441-2.049,1.545-3.471
		c0.105-1.418-0.266-2.689-0.196-4.105c0.062-1.412,0.604-2.748,0.604-2.748s-1.324,0.551-2.742,0.584
		c-1.413,0.037-2.487-0.514-3.903-0.436c-1.418,0.074-3.73,1.775-3.73,1.775l0.004-0.012c0,0-0.039-2.506-0.791-3.717
		c-0.748-1.211-1.795-2.02-2.572-3.205c-0.779-1.182-1.127-2.58-1.127-2.58s-0.746,1.225-1.873,2.086
		c-1.123,0.859-2.314,1.045-3.416,1.939c-1.104,0.896-1.974,3.631-1.974,3.631l-0.005-0.014c0,0-1.502-2.002-2.824-2.539
		c-1.316-0.539-2.637-0.582-3.963-1.082c-1.33-0.498-2.429-1.428-2.429-1.428s0.114,1.43-0.293,2.787
		c-0.401,1.359-1.254,2.209-1.62,3.58c-0.367,1.375,0.537,4.098,0.537,4.098l-0.013-0.008c0,0-2.392-0.738-3.777-0.393
		c-1.382,0.336-2.476,1.078-3.843,1.453c-1.368,0.379-2.803,0.271-2.803,0.271s0.933,1.09,1.401,2.428
		c0.474,1.334,0.284,2.523,0.793,3.85c0.511,1.326,2.843,2.998,2.843,2.998l-0.014,0.002c0,0-2.369,0.809-3.288,1.902
		c-0.92,1.082-1.368,2.329-2.255,3.434C10.024,39.939,8.8,40.697,8.8,40.697s1.395,0.332,2.561,1.141
		c1.168,0.801,1.713,1.875,2.903,2.648c1.193,0.772,4.062,0.754,4.062,0.754l-0.01,0.01c0,0-1.441,2.047-1.543,3.471
		c-0.107,1.418,0.263,2.688,0.195,4.105c-0.062,1.414-0.607,2.748-0.607,2.748s1.324-0.551,2.742-0.584
		c1.416-0.037,2.487,0.512,3.905,0.438c1.42-0.076,3.731-1.777,3.731-1.777l-0.003,0.015c0,0,0.037,2.502,0.791,3.715
		c0.746,1.209,1.793,2.021,2.571,3.205c0.78,1.183,1.124,2.582,1.124,2.582s0.747-1.228,1.876-2.086
		c1.123-0.86,2.312-1.049,3.416-1.94c1.104-0.896,1.973-3.632,1.973-3.632l0.007,0.013c0,0,1.502,2.004,2.823,2.543
		c1.316,0.539,2.64,0.578,3.966,1.08c1.323,0.498,2.426,1.428,2.426,1.428s-0.115-1.432,0.293-2.789
		c0.401-1.357,1.254-2.209,1.621-3.578c0.366-1.373-0.537-4.098-0.537-4.098l0.013,0.006c0,0,2.393,0.738,3.778,0.396
		c1.381-0.336,2.476-1.082,3.845-1.454c1.36-0.378,2.801-0.273,2.801-0.273s-0.937-1.088-1.404-2.428
		c-0.471-1.332-0.281-2.523-0.791-3.849s-2.842-2.998-2.842-2.998L54.496,39.504z"/>
	
		<radialGradient id="SVGID_2_" cx="664.5908" cy="-173.2676" r="24.9492" gradientTransform="matrix(1.0276 0.2751 0.3925 -0.9842 -579.4573 -316.8612)" gradientUnits="userSpaceOnUse">
		<stop  offset="0" style="stop-color:#FFFFFF"/>
		<stop  offset="0.1609" style="stop-color:#F8ECF2"/>
		<stop  offset="0.4856" style="stop-color:#E5BCD2"/>
		<stop  offset="0.9411" style="stop-color:#C86F9E"/>
		<stop  offset="1" style="stop-color:#C46597"/>
	</radialGradient>
	<path fill="url(#SVGID_2_)" stroke="#212120" stroke-miterlimit="10" d="M54.493,33.479c0,0,2.005-1.504,2.543-2.824
		c0.539-1.316,0.579-2.639,1.08-3.965c0.497-1.324,1.426-2.428,1.426-2.428s-1.431,0.115-2.788-0.291
		c-1.355-0.4-2.207-1.256-3.577-1.621c-1.372-0.367-4.097,0.535-4.097,0.535l0.005-0.01c0,0,0.738-2.395,0.397-3.779
		c-0.338-1.381-1.084-2.475-1.457-3.844c-0.377-1.363-0.273-2.801-0.273-2.801s-1.089,0.934-2.427,1.404
		c-1.332,0.473-2.524,0.279-3.847,0.791c-1.328,0.51-3,2.842-3,2.842v-0.012c0,0-0.812-2.371-1.901-3.291
		c-1.085-0.92-2.33-1.367-3.438-2.254c-1.105-0.883-1.867-2.105-1.867-2.105s-0.332,1.395-1.138,2.562
		c-0.802,1.166-1.878,1.709-2.648,2.9c-0.772,1.193-0.755,4.062-0.755,4.062l-0.009-0.01c0,0-2.048-1.441-3.471-1.543
		c-1.419-0.105-2.688,0.262-4.104,0.195c-1.419-0.062-2.751-0.607-2.751-0.607s0.55,1.324,0.582,2.742
		c0.039,1.416-0.51,2.488-0.434,3.904c0.075,1.422,1.776,3.729,1.776,3.729l-0.014-0.002c0,0-2.503,0.037-3.715,0.793
		c-1.21,0.746-2.021,1.791-3.206,2.57c-1.184,0.783-2.581,1.125-2.581,1.125s1.224,0.746,2.083,1.875
		c0.863,1.123,1.05,2.312,1.943,3.416c0.896,1.104,3.631,1.973,3.631,1.973l-0.013,0.007c0,0-2.003,1.502-2.54,2.823
		c-0.539,1.313-0.581,2.638-1.083,3.964c-0.496,1.327-1.426,2.428-1.426,2.428s1.429-0.115,2.788,0.293
		c1.357,0.401,2.208,1.254,3.579,1.621c1.374,0.367,4.097-0.537,4.097-0.537l-0.006,0.012c0,0-0.738,2.393-0.396,3.777
		c0.336,1.381,1.081,2.477,1.454,3.844c0.378,1.365,0.272,2.803,0.272,2.803s1.089-0.934,2.427-1.402
		c1.336-0.475,2.523-0.283,3.85-0.793c1.327-0.51,2.999-2.842,2.999-2.842l0.002,0.014c0,0,0.809,2.369,1.9,3.289
		c1.083,0.92,2.328,1.367,3.437,2.254c1.106,0.884,1.866,2.107,1.866,2.107s0.331-1.396,1.141-2.562
		c0.801-1.166,1.875-1.713,2.646-2.901c0.773-1.192,0.756-4.062,0.756-4.062l0.01,0.01c0,0,2.047,1.441,3.471,1.545
		c1.418,0.105,2.688-0.266,4.104-0.199c1.413,0.064,2.748,0.607,2.748,0.607s-0.552-1.324-0.583-2.742
		c-0.038-1.414,0.51-2.488,0.438-3.904c-0.076-1.42-1.778-3.73-1.778-3.73l0.014,0.002c0,0,2.505-0.036,3.716-0.789
		c1.211-0.747,2.021-1.795,3.207-2.571c1.18-0.778,2.578-1.125,2.578-1.125S60.913,40,60.053,38.873
		c-0.859-1.123-1.048-2.314-1.939-3.416c-0.896-1.104-3.631-1.973-3.631-1.973L54.493,33.479z"/>
	
		<radialGradient id="SVGID_3_" cx="625.2607" cy="155.3223" r="26.1147" gradientTransform="matrix(0.5321 0.9211 0.9787 -0.4207 -449.2179 -474.0826)" gradientUnits="userSpaceOnUse">
		<stop  offset="0" style="stop-color:#FFFFFF"/>
		<stop  offset="0.1245" style="stop-color:#FBF5F8"/>
		<stop  offset="0.3349" style="stop-color:#F1DBE6"/>
		<stop  offset="0.6053" style="stop-color:#E1B0C9"/>
		<stop  offset="0.9224" style="stop-color:#CA75A2"/>
		<stop  offset="1" style="stop-color:#C46597"/>
	</radialGradient>
	<path fill="url(#SVGID_3_)" stroke="#212120" stroke-miterlimit="10" d="M51.783,24.629c0,0,1.154-2.354,1.025-3.84
		c-0.123-1.486-1.111-2.811-1.275-4.285c-0.168-1.477,0.578-2.871,0.578-2.871S51,14.756,49.539,15.02
		c-1.457,0.271-2.822-0.453-4.273-0.145c-1.457,0.311-3.567,2.447-3.567,2.447s-0.451-2.58-1.431-3.709
		c-0.973-1.127-2.551-1.617-3.551-2.715C35.712,9.803,35.5,8.236,35.5,8.236s-0.242,1.562-1.266,2.633
		c-1.024,1.078-2.551,1.293-3.547,2.395c-0.994,1.107-1.443,4.08-1.443,4.08s-1.883-1.822-3.337-2.162
		c-1.451-0.34-3.017,0.191-4.472-0.109c-1.455-0.297-2.55-1.438-2.55-1.438s0.725,1.406,0.525,2.875
		c-0.195,1.469-1.304,2.541-1.461,4.02c-0.157,1.48,1.229,4.148,1.229,4.148s-2.598-0.365-3.97,0.215
		c-1.376,0.574-2.329,1.928-3.682,2.537c-1.354,0.617-2.911,0.338-2.911,0.338s1.414,0.709,2.116,2.018
		c0.708,1.303,0.442,2.822,1.184,4.111s3.43,2.632,3.43,2.632s-2.315,1.23-3.085,2.509c-0.771,1.272-0.752,2.924-1.486,4.217
		c-0.731,1.293-2.156,1.981-2.156,1.981s1.561-0.256,2.896,0.386c1.338,0.644,2.018,2.026,3.374,2.633
		c1.359,0.606,4.323,0.113,4.323,0.113s-1.15,2.356-1.022,3.844c0.124,1.483,1.112,2.81,1.277,4.287
		c0.169,1.476-0.581,2.869-0.581,2.869s1.115-1.124,2.575-1.39c1.458-0.27,2.821,0.453,4.277,0.146
		c1.452-0.311,3.562-2.451,3.562-2.451s0.454,2.582,1.429,3.709c0.976,1.129,2.552,1.621,3.554,2.717
		c1.004,1.096,1.219,2.664,1.219,2.664s0.241-1.562,1.265-2.635c1.022-1.074,2.551-1.293,3.547-2.395
		c0.994-1.107,1.44-4.078,1.44-4.078s1.886,1.822,3.338,2.162c1.451,0.338,3.017-0.191,4.474,0.106
		c1.455,0.296,2.551,1.439,2.551,1.439s-0.727-1.404-0.525-2.878c0.195-1.469,1.301-2.543,1.459-4.021
		c0.154-1.479-1.227-4.146-1.227-4.146s2.592,0.365,3.969-0.213c1.373-0.578,2.328-1.928,3.682-2.539
		c1.353-0.617,2.91-0.336,2.91-0.336s-1.414-0.713-2.117-2.019c-0.707-1.305-0.44-2.823-1.182-4.112
		c-0.744-1.287-3.432-2.634-3.432-2.634s2.313-1.229,3.086-2.504c0.771-1.277,0.752-2.928,1.486-4.219
		c0.729-1.293,2.153-1.982,2.153-1.982s-1.562,0.254-2.896-0.389c-1.338-0.639-2.017-2.023-3.373-2.633
		C54.75,24.137,51.783,24.629,51.783,24.629z"/>
	
		<radialGradient id="SVGID_4_" cx="542.5176" cy="271.0898" r="25.7607" gradientTransform="matrix(0.2214 1.0404 1.0609 -0.0977 -372.2144 -501.4501)" gradientUnits="userSpaceOnUse">
		<stop  offset="0" style="stop-color:#FFFFFF"/>
		<stop  offset="0.1331" style="stop-color:#FAF2F7"/>
		<stop  offset="0.3774" style="stop-color:#EDD1E0"/>
		<stop  offset="0.7026" style="stop-color:#D99CBC"/>
		<stop  offset="1" style="stop-color:#C46597"/>
	</radialGradient>
	<path fill="url(#SVGID_4_)" stroke="#212120" stroke-miterlimit="10" d="M54.396,30.328c0,0,1.799-1.857,2.133-3.291
		c0.336-1.432-0.188-2.975,0.107-4.41c0.293-1.438,1.418-2.516,1.418-2.516s-1.386,0.715-2.837,0.518
		c-1.45-0.191-2.508-1.285-3.965-1.439c-1.461-0.155-4.093,1.21-4.093,1.21s0.363-2.561-0.21-3.916
		c-0.569-1.355-1.9-2.295-2.505-3.631c-0.607-1.334-0.33-2.869-0.33-2.869s-0.702,1.393-1.99,2.086
		c-1.287,0.697-2.785,0.434-4.057,1.166c-1.271,0.734-2.597,3.385-2.597,3.385s-1.212-2.283-2.473-3.045
		c-1.257-0.762-2.888-0.738-4.16-1.465c-1.276-0.721-1.955-2.127-1.955-2.127s0.252,1.539-0.384,2.857
		c-0.63,1.32-1.996,1.988-2.595,3.326c-0.598,1.342-0.112,4.268-0.112,4.268s-2.323-1.137-3.789-1.01
		c-1.465,0.121-2.772,1.098-4.228,1.258c-1.457,0.168-2.833-0.57-2.833-0.57s1.109,1.096,1.37,2.537
		c0.268,1.439-0.445,2.781-0.144,4.217c0.304,1.436,2.417,3.518,2.417,3.518s-2.548,0.449-3.66,1.412
		c-1.111,0.959-1.597,2.514-2.679,3.504c-1.08,0.988-2.628,1.201-2.628,1.201s1.542,0.236,2.601,1.246
		c1.06,1.008,1.274,2.516,2.362,3.498c1.091,0.98,4.021,1.424,4.021,1.424s-1.797,1.859-2.131,3.293
		c-0.336,1.43,0.186,2.973-0.108,4.41c-0.292,1.436-1.42,2.516-1.42,2.516s1.388-0.715,2.838-0.52
		c1.45,0.193,2.509,1.285,3.967,1.441c1.458,0.151,4.09-1.213,4.09-1.213s-0.36,2.561,0.211,3.916
		c0.569,1.354,1.898,2.297,2.505,3.633c0.608,1.332,0.33,2.869,0.33,2.869s0.703-1.394,1.99-2.089
		c1.287-0.694,2.786-0.434,4.057-1.166c1.271-0.733,2.598-3.385,2.598-3.385s1.212,2.285,2.472,3.045
		c1.257,0.763,2.886,0.742,4.161,1.465c1.275,0.722,1.954,2.13,1.954,2.13s-0.251-1.541,0.384-2.861
		c0.631-1.318,1.997-1.988,2.596-3.326c0.598-1.34,0.112-4.264,0.112-4.264s2.321,1.133,3.788,1.01
		c1.466-0.123,2.771-1.098,4.229-1.262c1.455-0.166,2.832,0.573,2.832,0.573s-1.108-1.1-1.371-2.538
		c-0.266-1.438,0.447-2.783,0.146-4.22c-0.306-1.437-2.417-3.517-2.417-3.517s2.548-0.446,3.66-1.407
		c1.111-0.963,1.597-2.519,2.679-3.504c1.08-0.992,2.627-1.203,2.627-1.203s-1.542-0.238-2.601-1.248
		c-1.061-1.006-1.272-2.514-2.36-3.498C57.327,30.77,54.396,30.328,54.396,30.328z"/>
	
		<radialGradient id="SVGID_5_" cx="625.2617" cy="155.3242" r="21.5991" gradientTransform="matrix(0.5321 0.9211 0.9787 -0.4207 -449.2179 -474.0826)" gradientUnits="userSpaceOnUse">
		<stop  offset="0" style="stop-color:#FFFFFF"/>
		<stop  offset="0.1907" style="stop-color:#F6E7EF"/>
		<stop  offset="0.5942" style="stop-color:#DEA9C5"/>
		<stop  offset="1" style="stop-color:#C46597"/>
	</radialGradient>
	<path fill="url(#SVGID_5_)" stroke="#212120" stroke-miterlimit="10" d="M48.967,26.682c0,0,0.955-1.945,0.85-3.176
		c-0.104-1.229-0.92-2.324-1.057-3.545c-0.139-1.221,0.479-2.375,0.479-2.375s-0.92,0.93-2.127,1.148
		c-1.207,0.225-2.334-0.375-3.535-0.119c-1.205,0.256-2.95,2.023-2.95,2.023s-0.374-2.135-1.183-3.066
		c-0.805-0.934-2.109-1.338-2.938-2.246c-0.83-0.906-1.006-2.203-1.006-2.203s-0.2,1.293-1.047,2.178
		c-0.847,0.893-2.109,1.07-2.934,1.98c-0.822,0.916-1.193,3.375-1.193,3.375s-1.558-1.508-2.76-1.787
		c-1.2-0.283-2.495,0.158-3.698-0.092c-1.204-0.244-2.109-1.189-2.109-1.189s0.6,1.164,0.435,2.379
		c-0.161,1.215-1.078,2.102-1.208,3.324c-0.13,1.225,1.017,3.432,1.017,3.432s-2.148-0.303-3.283,0.178
		c-1.138,0.475-1.927,1.594-3.045,2.098c-1.12,0.512-2.408,0.279-2.408,0.279s1.17,0.588,1.751,1.668
		c0.585,1.078,0.365,2.334,0.979,3.4c0.614,1.066,2.837,2.177,2.837,2.177s-1.915,1.019-2.552,2.074
		c-0.638,1.055-0.622,2.42-1.229,3.488c-0.604,1.07-1.783,1.641-1.783,1.641s1.291-0.213,2.396,0.318
		c1.106,0.529,1.669,1.676,2.791,2.178c1.124,0.5,3.575,0.094,3.575,0.094s-0.951,1.947-0.846,3.179
		c0.103,1.228,0.92,2.323,1.057,3.545c0.14,1.221-0.48,2.375-0.48,2.375s0.921-0.931,2.128-1.149
		c1.206-0.224,2.334,0.375,3.538,0.12c1.201-0.256,2.946-2.024,2.946-2.024s0.376,2.135,1.182,3.065
		c0.807,0.935,2.11,1.341,2.939,2.248c0.83,0.904,1.008,2.203,1.008,2.203s0.199-1.293,1.046-2.18c0.846-0.89,2.109-1.07,2.934-1.98
		c0.822-0.916,1.192-3.372,1.192-3.372s1.56,1.508,2.761,1.786c1.199,0.281,2.494-0.155,3.698,0.091
		c1.203,0.243,2.109,1.19,2.109,1.19s-0.601-1.162-0.435-2.381c0.162-1.216,1.076-2.103,1.207-3.326
		C50.143,48.482,49,46.277,49,46.277s2.145,0.302,3.283-0.178c1.136-0.479,1.926-1.594,3.044-2.1
		c1.118-0.51,2.407-0.277,2.407-0.277s-1.17-0.59-1.752-1.668c-0.584-1.08-0.364-2.336-0.978-3.402
		c-0.614-1.065-2.838-2.177-2.838-2.177s1.915-1.016,2.554-2.072c0.639-1.055,0.621-2.42,1.229-3.488
		c0.604-1.068,1.781-1.639,1.781-1.639s-1.291,0.209-2.396-0.322c-1.106-0.527-1.667-1.674-2.789-2.178
		C51.421,26.275,48.967,26.682,48.967,26.682z"/>
	
		<radialGradient id="SVGID_6_" cx="542.5195" cy="271.0918" r="18.2939" gradientTransform="matrix(0.2214 1.0404 1.0609 -0.0977 -372.2144 -501.4501)" gradientUnits="userSpaceOnUse">
		<stop  offset="0" style="stop-color:#FFFFFF"/>
		<stop  offset="0.1694" style="stop-color:#F7EBF1"/>
		<stop  offset="0.5172" style="stop-color:#E3B7CE"/>
		<stop  offset="1" style="stop-color:#C46597"/>
	</radialGradient>
	<path fill="url(#SVGID_6_)" stroke="#212120" stroke-miterlimit="10" d="M48.92,32.117c0,0,1.277-1.318,1.514-2.338
		c0.239-1.016-0.133-2.111,0.078-3.131c0.207-1.021,1.008-1.787,1.008-1.787s-0.984,0.508-2.016,0.367
		c-1.029-0.135-1.781-0.912-2.816-1.021c-1.037-0.109-2.905,0.859-2.905,0.859s0.258-1.818-0.149-2.781
		c-0.402-0.963-1.349-1.631-1.777-2.578c-0.433-0.947-0.234-2.037-0.234-2.037s-0.499,0.988-1.414,1.48
		c-0.914,0.496-1.979,0.309-2.881,0.828c-0.902,0.521-1.844,2.404-1.844,2.404s-0.861-1.621-1.756-2.162
		c-0.893-0.541-2.051-0.525-2.955-1.041c-0.907-0.512-1.389-1.51-1.389-1.51s0.179,1.092-0.272,2.029
		c-0.448,0.938-1.418,1.412-1.843,2.361c-0.424,0.953-0.08,3.031-0.08,3.031s-1.65-0.807-2.691-0.717
		c-1.04,0.086-1.969,0.779-3.002,0.893c-1.035,0.119-2.012-0.404-2.012-0.404s0.788,0.777,0.973,1.801
		c0.19,1.023-0.316,1.977-0.102,2.996c0.216,1.02,1.716,2.496,1.716,2.496s-1.809,0.32-2.599,1.004
		c-0.79,0.682-1.134,1.785-1.903,2.488c-0.767,0.703-1.866,0.854-1.866,0.854s1.095,0.168,1.847,0.885
		c0.753,0.718,0.905,1.787,1.678,2.484c0.774,0.696,2.856,1.012,2.856,1.012s-1.276,1.32-1.514,2.339
		c-0.238,1.016,0.132,2.11-0.077,3.133c-0.208,1.02-1.008,1.787-1.008,1.787s0.985-0.509,2.015-0.369
		c1.03,0.137,1.782,0.912,2.817,1.022c1.036,0.106,2.905-0.86,2.905-0.86s-0.256,1.817,0.149,2.78
		c0.405,0.963,1.349,1.632,1.779,2.578c0.432,0.946,0.234,2.039,0.234,2.039s0.499-0.99,1.414-1.481
		c0.914-0.494,1.979-0.31,2.881-0.828c0.902-0.521,1.845-2.404,1.845-2.404s0.861,1.623,1.755,2.162
		c0.894,0.541,2.05,0.527,2.955,1.041c0.906,0.512,1.389,1.512,1.389,1.512s-0.18-1.094,0.271-2.031
		c0.448-0.938,1.418-1.412,1.844-2.363c0.425-0.951,0.08-3.028,0.08-3.028s1.648,0.807,2.689,0.719s1.969-0.778,3.003-0.896
		s2.011,0.408,2.011,0.408s-0.787-0.781-0.973-1.804c-0.188-1.021,0.316-1.978,0.104-2.996c-0.217-1.021-1.717-2.498-1.717-2.498
		s1.81-0.315,2.6-1c0.79-0.684,1.134-1.786,1.902-2.487c0.768-0.705,1.865-0.854,1.865-0.854s-1.096-0.17-1.847-0.887
		c-0.753-0.715-0.904-1.785-1.677-2.484C51.002,32.432,48.92,32.117,48.92,32.117z"/>
	
		<radialGradient id="SVGID_7_" cx="739.3574" cy="-94.1992" r="21.4632" gradientTransform="matrix(0.8779 0.0257 0.3255 -0.6077 -582.9247 -39.7858)" gradientUnits="userSpaceOnUse">
		<stop  offset="0" style="stop-color:#FFFFFF"/>
		<stop  offset="0.5448" style="stop-color:#DEA9C5"/>
		<stop  offset="1" style="stop-color:#C46597"/>
	</radialGradient>
	<path fill="url(#SVGID_7_)" stroke="#212120" stroke-miterlimit="10" d="M35.461,26.623c0,0,1.089-2.752,2.699-3.129
		c1.611-0.371,3.098,0.406,4.711,0.076c1.613-0.326,2.861-1.6,2.861-1.6s-0.851,1.568-0.695,3.211
		c0.15,1.645,1.213,3.102,1.318,4.754c0.112,1.656-1.902,3.201-1.902,3.201v-0.002c0,0,2.955,0.186,3.809,1.602
		c0.852,1.418,0.572,3.073,1.385,4.502c0.812,1.438,2.406,2.229,2.406,2.229s-1.754-0.324-3.27,0.332
		c-1.518,0.65-2.574,2.111-4.115,2.723c-1.539,0.619-3.631-0.819-3.631-0.819s0.736,2.866-0.346,4.116
		c-1.086,1.25-2.744,1.494-3.854,2.707c-1.113,1.216-1.375,2.979-1.375,2.979s-0.234-1.771-1.327-3.01
		c-1.088-1.242-2.805-1.795-3.859-3.068c-1.064-1.274-0.343-3.709-0.343-3.709l0,0c0,0-2.499,1.589-4.023,0.945
		c-1.521-0.646-2.268-2.149-3.764-2.83c-1.5-0.687-3.261-0.388-3.261-0.388s1.611-0.77,2.452-2.192
		c0.847-1.418,0.843-3.223,1.73-4.617c0.88-1.408,3.42-1.473,3.42-1.473s-2.284-1.887-2.142-3.535
		c0.143-1.645,1.342-2.818,1.526-4.453c0.188-1.639-0.638-3.219-0.638-3.219s1.229,1.293,2.841,1.654
		c1.611,0.365,3.325-0.197,4.93,0.217C34.616,24.23,35.461,26.623,35.461,26.623L35.461,26.623z"/>
	
		<radialGradient id="SVGID_8_" cx="731.0361" cy="19.1592" r="18.0738" gradientTransform="matrix(1.2258 0.0829 0.2398 -0.4218 -865.2782 -16.0008)" gradientUnits="userSpaceOnUse">
		<stop  offset="0" style="stop-color:#FFFFFF"/>
		<stop  offset="0.348" style="stop-color:#E9C5D8"/>
		<stop  offset="0.7921" style="stop-color:#CE80A9"/>
		<stop  offset="1" style="stop-color:#C46597"/>
	</radialGradient>
	<path fill="url(#SVGID_8_)" stroke="#212120" stroke-miterlimit="10" d="M39.576,30.832c0,0,1.852-1.174,2.98-0.697
		c1.127,0.477,1.68,1.59,2.789,2.094c1.109,0.508,2.411,0.289,2.411,0.289s-1.192,0.568-1.813,1.623
		c-0.627,1.051-0.625,2.384-1.28,3.421c-0.653,1.041-2.534,1.09-2.534,1.09l0.001-0.002c0,0,1.688,1.398,1.585,2.619
		c-0.105,1.222-0.992,2.09-1.13,3.301c-0.14,1.214,0.472,2.384,0.472,2.384s-0.91-0.959-2.104-1.226
		c-1.191-0.271-2.462,0.146-3.65-0.16c-1.192-0.299-1.819-2.073-1.818-2.071c0,0-0.808,2.039-2.001,2.315
		c-1.193,0.275-2.294-0.299-3.487-0.055c-1.196,0.242-2.121,1.186-2.121,1.186s0.63-1.161,0.515-2.381
		c-0.111-1.219-0.898-2.297-0.976-3.521c-0.084-1.228,1.409-2.371,1.409-2.371v0.002c0,0-2.189-0.139-2.822-1.188
		c-0.631-1.048-0.424-2.272-1.024-3.333c-0.601-1.062-1.784-1.65-1.784-1.65s1.3,0.24,2.424-0.246
		c1.124-0.482,1.907-1.564,3.047-2.016c1.141-0.459,2.69,0.607,2.69,0.607s-0.547-2.125,0.256-3.051
		c0.803-0.924,2.031-1.105,2.854-2.004c0.825-0.9,1.019-2.207,1.019-2.207s0.173,1.311,0.982,2.229
		c0.808,0.92,2.078,1.33,2.859,2.275c0.788,0.943,0.254,2.746,0.254,2.746L39.576,30.832z"/>
	
		<radialGradient id="SVGID_9_" cx="305.4727" cy="-323.5" r="6.875" gradientTransform="matrix(1 0 0 -1 -270 -287)" gradientUnits="userSpaceOnUse">
		<stop  offset="0" style="stop-color:#FFFFFF"/>
		<stop  offset="0.137" style="stop-color:#FAF1F6"/>
		<stop  offset="0.3936" style="stop-color:#ECCEDE"/>
		<stop  offset="0.7393" style="stop-color:#D695B7"/>
		<stop  offset="1" style="stop-color:#C46597"/>
	</radialGradient>
	<circle fill="url(#SVGID_9_)" stroke="#212120" stroke-miterlimit="10" cx="35.473" cy="36.5" r="6.875"/>
</g>
</svg>
