<?xml version="1.0" encoding="UTF-8" standalone="no"?>
<!-- Generator: Adobe Illustrator 13.0.2, SVG Export Plug-In . SVG Version: 6.00 Build 14948)  -->

<svg
   xmlns:dc="http://purl.org/dc/elements/1.1/"
   xmlns:cc="http://creativecommons.org/ns#"
   xmlns:rdf="http://www.w3.org/1999/02/22-rdf-syntax-ns#"
   xmlns:svg="http://www.w3.org/2000/svg"
   xmlns="http://www.w3.org/2000/svg"
   xmlns:sodipodi="http://sodipodi.sourceforge.net/DTD/sodipodi-0.dtd"
   xmlns:inkscape="http://www.inkscape.org/namespaces/inkscape"
   version="1.0"
   id="svg2"
   sodipodi:docname="broke-the-buildnana.svg"
   inkscape:version="0.91 r13725"
   sodipodi:version="0.32"
   inkscape:output_extension="org.inkscape.output.svg.inkscape"
   x="0px"
   y="0px"
   width="2in"
   height="1in"
   viewBox="0 0 180 90.000002"
   enable-background="new 0 0 300 300"
   xml:space="preserve"><metadata
     id="metadata44"><rdf:RDF><cc:Work
         rdf:about=""><dc:format>image/svg+xml</dc:format><dc:type
           rdf:resource="http://purl.org/dc/dcmitype/StillImage" /><dc:title></dc:title></cc:Work></rdf:RDF></metadata><defs
     id="defs42"><inkscape:perspective
       sodipodi:type="inkscape:persp3d"
       inkscape:vp_x="0 : 150 : 1"
       inkscape:vp_y="0 : 1000 : 0"
       inkscape:vp_z="300 : 150 : 1"
       inkscape:persp3d-origin="150 : 100 : 1"
       id="perspective46" /></defs><sodipodi:namedview
     id="base"
     gridtolerance="10000"
     objecttolerance="10"
     showgrid="false"
     guidetolerance="10"
     borderopacity="1.0"
     bordercolor="#666666"
     inkscape:cy="55.976999"
     inkscape:cx="81.787186"
     inkscape:zoom="7.3466662"
     pagecolor="#ffffff"
     inkscape:document-units="px"
     inkscape:current-layer="g4550"
     inkscape:window-width="2560"
     inkscape:window-height="1523"
     inkscape:window-x="0"
     inkscape:window-y="25"
     inkscape:pageopacity="0.0"
     inkscape:pageshadow="2"
     showguides="true"
     inkscape:window-maximized="1"
     units="in" /><g
     id="g10"
     transform="matrix(1.6726185,0,0,1.6726185,-145.86442,-342.57075)" /><g
     id="g4550"
     transform="matrix(0.61228085,0,0,0.61228085,-2.3200937,86.670927)"><path
       sodipodi:nodetypes="cccccccccccczsscccszacccccccczccczcc"
       inkscape:connector-curvature="0"
       id="path4495"
       d="m 13.879284,-122.61161 c 2.59144,-3.07314 4.666627,-4.20092 9.530839,-4.76161 0,0 6.998764,-0.92353 5.516374,4.28437 0.925096,2.88475 9.110653,15.16537 9.110653,15.16537 8.048578,7.86131 48.082851,26.249509 52.568785,25.263596 l 0.115169,-10.222409 64.573016,0.179133 1.11062,0.0031 4.39059,0.01218 1.50089,0.0042 40.16163,0.111413 -0.0293,10.076767 c 0,0 12.6324,-0.389923 32.63335,-13.505467 20.00095,-13.115547 25.76299,-19.221287 35.47208,-27.009357 0.38939,-0.31235 1.02922,-0.10065 1.49553,0.0775 1.19818,0.45777 2.34919,2.23114 3.6574,3.32871 2.92316,1.08567 3.48808,2.51774 3.48808,2.51774 0,0 -0.15601,1.34919 0.28859,3.11521 2.47368,3.96714 2.86452,13.60685 2.38932,16.873227 -0.65474,4.5004 -1.71934,12.400729 -14.10408,25.871116 -12.38474,13.470388 -27.90971,20.850894 -43.79118,27.592193 -3.07785,1.306473 -9.74202,2.390281 -9.74202,2.390281 l -0.0515,22.29094 c -3.88772,1.588306 -4.78809,2.426201 -5.11203,5.38992 l -0.76999,5.8933802 -127.442258,0 0.009,-12.6131182 -4.074164,0.01215 -0.156728,-18.53937 c 0,0 -15.109653,-6.136232 -20.856362,-9.28949 -5.746709,-3.153258 -13.469758,-6.919257 -21.745404,-16.185207 -8.831422,-9.48826 -10.215107,-18.238266 -10.215107,-18.238266 0,0 -2.525584,-9.498792 1.869396,-16.186491 -0.38469,-1.661105 -5.316628,-9.311635 -7.271365,-10.821955 -1.954737,-1.51032 -6.83148,-2.57082 -6.279067,-7.37391 z"
       style="fill:#ffffff;fill-opacity:1;fill-rule:evenodd;stroke:#ff00ff;stroke-width:0.48997122;stroke-linecap:butt;stroke-linejoin:miter;stroke-miterlimit:4;stroke-dasharray:none;stroke-opacity:1" /><g
       transform="matrix(-0.40481024,0,0,-0.40481024,204.86922,38.521117)"
       id="g4558-8-5-5"><g
         id="g4458-8-0-7"
         transform="matrix(-0.99792342,-0.06441163,0.06441163,-0.99792342,197.51266,278.5895)"><g
           transform="matrix(1.6726185,0,0,1.6726185,-323.93886,-212.72782)"
           id="g10-6-9-8-1-9"><path
             style="fill:#ffc916;stroke:#000000;stroke-width:3"
             inkscape:connector-curvature="0"
             id="path12-5-6-6-1-4"
             d="m 46.41,68.192 c 0,0 5.768,10.994 13.25,19.67 7.479,8.675 81.02,42.017 124.352,42.239 43.334,0.226 84.48,-14.171 85.789,-12.305 1.311,1.867 4.232,7.616 3.953,9.204 -0.279,1.587 3.965,33.427 -42.074,49.586 -46.037,16.156 -160.595,10.03 -183.813,-50.364 -6.746,-17.549 0.846,-25.385 0.846,-25.385 0,0 -9.339,-17.12 -16.929,-20.149 -6.579,-2.626 -5.368,-4.868 -4.735,-7.541 0.631,-2.671 0.684,-5.772 4.845,-8.971 4.161,-3.2 12.808,-3.977 12.529,-2.389 -0.279,1.588 1.987,6.405 1.987,6.405 z" /><path
             style="opacity:0.76999996;fill:#bd6f00"
             inkscape:connector-curvature="0"
             id="path14-4-1-4-5-7"
             d="m 46.666,107.845 c 0,0 10.367,36.803 85.351,53.738 64.55,14.582 119.283,4.854 137.037,-14.293 0,0 -23.295,54.513 -152.371,28.957 -7.568,-1.498 -75.058,-22.804 -70.017,-68.402 z" /><path
             style="opacity:0.5;fill:#9cc902"
             inkscape:connector-curvature="0"
             id="path16-6-7-9-8-8"
             d="m 41.473,62.745 c 4.187,2.137 13.926,24.208 23.755,27.893 9.83,3.687 -6.305,6.098 -8.095,7.911 -1.792,1.814 -6.305,6.096 -9.106,8.062 -2.798,1.966 2.678,-9.678 -3.193,-14.471 C 38.965,87.347 34.305,80.311 31.429,81.773 28.554,83.232 37.567,60.751 41.473,62.745 Z" /><path
             style="opacity:0.82999998;fill:#412800"
             inkscape:connector-curvature="0"
             id="path18-1-5-6-2-3"
             d="m 44.221,63.881 c 0,0 -3.885,1.611 -4.517,4.284 -0.631,2.671 5.113,10.06 8.59,12.633 3.477,2.572 -8.166,-2.903 -10.763,-3.031 -2.597,-0.128 -7.991,1.709 -7.991,1.709 0,0 -1.361,1.234 -2.318,-1.715 -0.957,-2.949 0.232,-8.797 1.667,-9.527 1.438,-0.73 5.802,-6.021 5.802,-6.021 0,0 7.186,-3.652 9.53,1.668 z" /><path
             style="fill:#412800"
             inkscape:connector-curvature="0"
             id="path20-1-0-3-0-9"
             d="m 273.164,131.217 -6.641,-12.773 c 0,0 -0.48,-1.137 1.604,-1.09 2.084,0.046 8.211,8.187 8.211,8.187 0,0 0.723,5.369 -3.174,5.676 z" /><path
             style="opacity:0.3;fill:#ffffff"
             inkscape:connector-curvature="0"
             id="path22-3-6-3-6-3"
             d="m 269.012,129.771 c 0,0 -43.504,40.005 -123.378,19.468 -79.873,-20.537 -84.85,-43.504 -84.85,-43.504 0,0 6.08,-7.609 8.248,-6.902 2.167,0.707 66.52,39.03 107.892,39.03 44.846,-0.001 81.455,-13.72 84.908,-14.752 3.455,-1.031 7.889,4.493 7.18,6.66 z" /><path
             style="fill:#412800"
             inkscape:connector-curvature="0"
             id="path24-8-6-1-6-7"
             d="m 263.965,140.833 c -0.227,0.104 -1.402,-0.351 -1.402,-0.351 0,0 0.678,-2.243 1.186,-1.868 0.503,0.376 0.954,1.883 0.216,2.219 z" /><path
             style="fill:#412800"
             inkscape:connector-curvature="0"
             id="path26-8-8-2-8-9"
             d="m 254.678,146.026 c -0.232,-0.09 -0.793,-1.191 -0.793,-1.191 0,0 1.938,-0.986 2.066,-0.396 0.125,0.59 -0.519,1.876 -1.273,1.587 z" /><path
             style="fill:#412800"
             inkscape:connector-curvature="0"
             id="path28-4-0-24-4-6"
             d="m 121.997,120.75 c 0.118,-0.166 1.109,-0.38 1.109,-0.38 0,0 0.389,1.75 -0.106,1.726 -0.497,-0.022 -1.388,-0.808 -1.003,-1.346 z" /><path
             style="fill:#412800"
             inkscape:connector-curvature="0"
             id="path30-4-7-1-8-6"
             d="m 262.861,148.188 c -0.541,0.317 -1.754,-1.191 -1.168,-1.858 0.586,-0.668 1.15,-1.48 1.605,-1.185 0.456,0.294 0.886,2.262 -0.437,3.043 z" /><path
             style="fill:#412800"
             inkscape:connector-curvature="0"
             id="path32-6-2-6-7-2"
             d="m 59.976,131.409 c -0.698,0.269 -2.072,-0.688 -1.294,-1.203 0.779,-0.516 1.544,-1.13 2.084,-0.961 0.539,0.17 0.911,1.51 -0.79,2.164 z" /><path
             style="fill:#412800"
             inkscape:connector-curvature="0"
             id="path34-3-5-6-0-7"
             d="m 118.829,121.586 c -0.411,0.223 -1.302,-0.807 -0.86,-1.271 0.446,-0.467 0.876,-1.029 1.214,-0.83 0.337,0.199 0.643,1.552 -0.354,2.101 z" /><path
             style="fill:#412800"
             inkscape:connector-curvature="0"
             id="path36-5-9-0-8-0"
             d="m 216.818,134.878 c -0.025,0.376 -1.104,0.545 -1.227,0.042 -0.123,-0.506 -0.316,-1.041 -0.037,-1.187 0.279,-0.146 1.323,0.228 1.264,1.145 z" /><path
             style="opacity:0.76000001;fill:#412800"
             inkscape:connector-curvature="0"
             id="path38-0-8-4-6-3"
             d="m 125.386,162.06 c 0,0 -3.123,-3.656 -4.99,-2.348 -1.865,1.31 -4.688,-0.33 -4.688,-0.33 0,0 1.692,-5.923 3.002,-4.058 1.31,1.867 9.049,5.349 9.049,5.349 l -2.373,1.387 z" /><path
             style="opacity:0.76000001;fill:#412800"
             inkscape:connector-curvature="0"
             id="path40-0-3-9-8-3"
             d="m 113.239,156.658 c 0,0 -2.544,-3.228 -4.989,-2.346 -2.446,0.878 -1.994,3.905 -1.994,3.905 l 6.983,-1.559 z" /></g></g><g
         id="g4458-6-0-8-4"
         transform="matrix(-0.818534,0.57445808,-0.57445808,-0.818534,-106.40433,343.21136)"><g
           transform="matrix(1.6550475,0.24180626,-0.24180626,1.6550475,-343.22567,-266.90997)"
           id="g10-6-9-4-9-8-5"><path
             style="fill:#ffc916;stroke:#000000;stroke-width:3"
             inkscape:connector-curvature="0"
             id="path12-5-6-9-0-7-3"
             d="m 46.41,68.192 c 0,0 5.768,10.994 13.25,19.67 7.479,8.675 81.02,42.017 124.352,42.239 43.334,0.226 84.48,-14.171 85.789,-12.305 1.311,1.867 4.232,7.616 3.953,9.204 -0.279,1.587 3.965,33.427 -42.074,49.586 -46.037,16.156 -160.595,10.03 -183.813,-50.364 -6.746,-17.549 0.846,-25.385 0.846,-25.385 0,0 -9.339,-17.12 -16.929,-20.149 -6.579,-2.626 -5.368,-4.868 -4.735,-7.541 0.631,-2.671 0.684,-5.772 4.845,-8.971 4.161,-3.2 12.808,-3.977 12.529,-2.389 -0.279,1.588 1.987,6.405 1.987,6.405 z" /><path
             style="opacity:0.76999996;fill:#bd6f00"
             inkscape:connector-curvature="0"
             id="path14-4-1-9-5-1-7"
             d="m 46.666,107.845 c 0,0 10.367,36.803 85.351,53.738 64.55,14.582 119.283,4.854 137.037,-14.293 0,0 -23.295,54.513 -152.371,28.957 -7.568,-1.498 -75.058,-22.804 -70.017,-68.402 z" /><path
             style="opacity:0.5;fill:#9cc902"
             inkscape:connector-curvature="0"
             id="path16-6-7-5-3-5-8"
             d="m 41.473,62.745 c 4.187,2.137 13.926,24.208 23.755,27.893 9.83,3.687 -6.305,6.098 -8.095,7.911 -1.792,1.814 -6.305,6.096 -9.106,8.062 -2.798,1.966 2.678,-9.678 -3.193,-14.471 C 38.965,87.347 34.305,80.311 31.429,81.773 28.554,83.232 37.567,60.751 41.473,62.745 Z" /><path
             style="opacity:0.82999998;fill:#412800"
             inkscape:connector-curvature="0"
             id="path18-1-5-3-4-3-7"
             d="m 44.221,63.881 c 0,0 -3.885,1.611 -4.517,4.284 -0.631,2.671 5.113,10.06 8.59,12.633 3.477,2.572 -8.166,-2.903 -10.763,-3.031 -2.597,-0.128 -7.991,1.709 -7.991,1.709 0,0 -1.361,1.234 -2.318,-1.715 -0.957,-2.949 0.232,-8.797 1.667,-9.527 1.438,-0.73 5.802,-6.021 5.802,-6.021 0,0 7.186,-3.652 9.53,1.668 z" /><path
             style="fill:#412800"
             inkscape:connector-curvature="0"
             id="path20-1-0-8-8-8-8"
             d="m 273.164,131.217 -6.641,-12.773 c 0,0 -0.48,-1.137 1.604,-1.09 2.084,0.046 8.211,8.187 8.211,8.187 0,0 0.723,5.369 -3.174,5.676 z" /><path
             style="opacity:0.3;fill:#ffffff"
             inkscape:connector-curvature="0"
             id="path22-3-6-5-8-1-9"
             d="m 269.012,129.771 c 0,0 -43.504,40.005 -123.378,19.468 -79.873,-20.537 -84.85,-43.504 -84.85,-43.504 0,0 6.08,-7.609 8.248,-6.902 2.167,0.707 66.52,39.03 107.892,39.03 44.846,-0.001 81.455,-13.72 84.908,-14.752 3.455,-1.031 7.889,4.493 7.18,6.66 z" /><path
             style="fill:#412800"
             inkscape:connector-curvature="0"
             id="path24-8-6-9-0-7-7"
             d="m 263.965,140.833 c -0.227,0.104 -1.402,-0.351 -1.402,-0.351 0,0 0.678,-2.243 1.186,-1.868 0.503,0.376 0.954,1.883 0.216,2.219 z" /><path
             style="fill:#412800"
             inkscape:connector-curvature="0"
             id="path26-8-8-4-9-3-0"
             d="m 254.678,146.026 c -0.232,-0.09 -0.793,-1.191 -0.793,-1.191 0,0 1.938,-0.986 2.066,-0.396 0.125,0.59 -0.519,1.876 -1.273,1.587 z" /><path
             style="fill:#412800"
             inkscape:connector-curvature="0"
             id="path28-4-0-2-0-9-4"
             d="m 121.997,120.75 c 0.118,-0.166 1.109,-0.38 1.109,-0.38 0,0 0.389,1.75 -0.106,1.726 -0.497,-0.022 -1.388,-0.808 -1.003,-1.346 z" /><path
             style="fill:#412800"
             inkscape:connector-curvature="0"
             id="path30-4-7-2-8-4-6"
             d="m 262.861,148.188 c -0.541,0.317 -1.754,-1.191 -1.168,-1.858 0.586,-0.668 1.15,-1.48 1.605,-1.185 0.456,0.294 0.886,2.262 -0.437,3.043 z" /><path
             style="fill:#412800"
             inkscape:connector-curvature="0"
             id="path32-6-2-1-9-9-1"
             d="m 59.976,131.409 c -0.698,0.269 -2.072,-0.688 -1.294,-1.203 0.779,-0.516 1.544,-1.13 2.084,-0.961 0.539,0.17 0.911,1.51 -0.79,2.164 z" /><path
             style="fill:#412800"
             inkscape:connector-curvature="0"
             id="path34-3-5-4-0-6-0"
             d="m 118.829,121.586 c -0.411,0.223 -1.302,-0.807 -0.86,-1.271 0.446,-0.467 0.876,-1.029 1.214,-0.83 0.337,0.199 0.643,1.552 -0.354,2.101 z" /><path
             style="fill:#412800"
             inkscape:connector-curvature="0"
             id="path36-5-9-4-9-4-5"
             d="m 216.818,134.878 c -0.025,0.376 -1.104,0.545 -1.227,0.042 -0.123,-0.506 -0.316,-1.041 -0.037,-1.187 0.279,-0.146 1.323,0.228 1.264,1.145 z" /><path
             style="opacity:0.76000001;fill:#412800"
             inkscape:connector-curvature="0"
             id="path38-0-8-0-5-2-1"
             d="m 125.386,162.06 c 0,0 -3.123,-3.656 -4.99,-2.348 -1.865,1.31 -4.688,-0.33 -4.688,-0.33 0,0 1.692,-5.923 3.002,-4.058 1.31,1.867 9.049,5.349 9.049,5.349 l -2.373,1.387 z" /><path
             style="opacity:0.76000001;fill:#412800"
             inkscape:connector-curvature="0"
             id="path40-0-3-0-5-9-6"
             d="m 113.239,156.658 c 0,0 -2.544,-3.228 -4.989,-2.346 -2.446,0.878 -1.994,3.905 -1.994,3.905 l 6.983,-1.559 z" /></g></g><path
         sodipodi:nodetypes="cccccccccscccccc"
         style="fill:#ffffff;fill-rule:evenodd;stroke:none;stroke-width:1px;stroke-linecap:butt;stroke-linejoin:miter;stroke-opacity:1"
         d="m -23.327266,197.13854 -18.665516,4.60987 -15.176003,13.85957 25.045372,3.26679 13.067151,8.16697 -27.22323,22.86751 29.945553,3.26679 -16.333938,26.67876 22.323049,0.54447 c 0,0 -34.301271,22.32305 -11.433757,17.96733 l 22.8675142,-4.35572 96.9147008,1.08893 47.36842,10.8893 8.16697,-130.67151 -108.584077,1.72153 z"
         id="path4541-0-1-5"
         inkscape:connector-curvature="0" /><path
         sodipodi:nodetypes="ccccccccscccccc"
         style="fill:#ffffff;fill-rule:evenodd;stroke:none;stroke-width:1px;stroke-linecap:butt;stroke-linejoin:miter;stroke-opacity:1"
         d="m 324.49765,195.25049 23.95645,23.41198 -25.04537,3.26679 -13.06716,8.16697 27.22323,22.86751 -29.94555,3.26679 16.33394,26.67875 -22.32305,0.54447 c 0,0 34.30127,22.32305 11.43376,17.96733 l -22.86752,-4.35572 -64.24682,14.15608 -80.0363,-2.17785 -8.16697,-130.6715 109.23169,-1.95517 z"
         id="path4541-8-2-2-1"
         inkscape:connector-curvature="0" /></g><g
       transform="translate(-4.6199356,-4.7978428)"
       id="g4485"><text
         xml:space="preserve"
         style="font-style:normal;font-weight:normal;font-size:41.12082291px;line-height:64.99999762%;font-family:sans-serif;letter-spacing:0px;word-spacing:0px;fill:#0978ab;fill-opacity:1;stroke:none;stroke-width:1px;stroke-linecap:butt;stroke-linejoin:miter;stroke-opacity:1"
         x="150.39153"
         y="-61.495594"
         id="text5012-9"
         sodipodi:linespacing="64.999998%"><tspan
           sodipodi:role="line"
           id="tspan5014-6"
           x="150.39153"
           y="-61.495594"
           style="font-style:normal;font-variant:normal;font-weight:normal;font-stretch:normal;line-height:64.99999762%;font-family:'IFC INSANE RODEO';-inkscape-font-specification:'IFC INSANE RODEO';text-align:center;text-anchor:middle;fill:#0978ab;fill-opacity:1">Broke the</tspan><tspan
           sodipodi:role="line"
           x="150.39153"
           y="-30.563396"
           id="tspan5016-4"
           style="font-style:normal;font-variant:normal;font-weight:normal;font-stretch:normal;font-size:50px;line-height:64.99999762%;font-family:'IFC INSANE RODEO';-inkscape-font-specification:'IFC INSANE RODEO';text-align:center;text-anchor:middle;fill:#0978ab;fill-opacity:1">Buildnana</tspan></text>
<text
         xml:space="preserve"
         style="font-style:normal;font-weight:normal;font-size:14.61514282px;line-height:83.99999738%;font-family:sans-serif;letter-spacing:0px;word-spacing:0px;fill:#0978ab;fill-opacity:1;stroke:none;stroke-width:1px;stroke-linecap:butt;stroke-linejoin:miter;stroke-opacity:1"
         x="149.95215"
         y="-16.30113"
         id="text5012-2"
         sodipodi:linespacing="83.999997%"><tspan
           sodipodi:role="line"
           x="151.71362"
           y="-16.30113"
           id="tspan5016-6"
           style="font-style:normal;font-variant:normal;font-weight:normal;font-stretch:normal;font-size:16.25px;line-height:83.99999738%;font-family:'Lobster 1.4';-inkscape-font-specification:'Lobster 1.4, ';text-align:center;text-anchor:middle;fill:#0978ab;fill-opacity:1">Bananas don't break, </tspan><tspan
           sodipodi:role="line"
           x="149.95215"
           y="-4.294323"
           style="font-style:normal;font-variant:normal;font-weight:normal;font-stretch:normal;font-size:13.75px;line-height:83.99999738%;font-family:'Lobster 1.4';-inkscape-font-specification:'Lobster 1.4, ';text-align:center;text-anchor:middle;fill:#0978ab;fill-opacity:1"
           id="tspan4483">niether should the build</tspan></text>
</g></g></svg>