<?xml version="1.0" encoding="UTF-8" standalone="no"?>
<!-- Created with Inkscape (http://www.inkscape.org/) -->

<svg
   xmlns:dc="http://purl.org/dc/elements/1.1/"
   xmlns:cc="http://creativecommons.org/ns#"
   xmlns:rdf="http://www.w3.org/1999/02/22-rdf-syntax-ns#"
   xmlns:svg="http://www.w3.org/2000/svg"
   xmlns="http://www.w3.org/2000/svg"
   xmlns:sodipodi="http://sodipodi.sourceforge.net/DTD/sodipodi-0.dtd"
   xmlns:inkscape="http://www.inkscape.org/namespaces/inkscape"
   width="1080"
   height="1920"
   viewBox="0 0 1080 1920"
   id="svg5061"
   version="1.1"
   inkscape:version="0.91 r13725"
   inkscape:export-filename="/home/epixel/Documents/Graphic_Design/SnapchatGeofilters/FosterCity.png"
   inkscape:export-xdpi="90"
   inkscape:export-ydpi="90"
   sodipodi:docname="FosterCity.svg">
  <defs
     id="defs5063">
    <filter
       inkscape:collect="always"
       style="color-interpolation-filters:sRGB"
       id="filter6863"
       x="-0.042048582"
       width="1.0840972"
       y="-0.32261128"
       height="1.6452226">
      <feGaussianBlur
         inkscape:collect="always"
         stdDeviation="18.789226"
         id="feGaussianBlur6865" />
    </filter>
  </defs>
  <sodipodi:namedview
     id="base"
     pagecolor="#ffffff"
     bordercolor="#666666"
     borderopacity="1.0"
     inkscape:pageopacity="0.0"
     inkscape:pageshadow="2"
     inkscape:zoom="0.49497475"
     inkscape:cx="469.49598"
     inkscape:cy="934.70625"
     inkscape:document-units="px"
     inkscape:current-layer="layer1"
     showgrid="false"
     units="px"
     inkscape:window-width="2560"
     inkscape:window-height="1651"
     inkscape:window-x="0"
     inkscape:window-y="25"
     inkscape:window-maximized="1" />
  <metadata
     id="metadata5066">
    <rdf:RDF>
      <cc:Work
         rdf:about="">
        <dc:format>image/svg+xml</dc:format>
        <dc:type
           rdf:resource="http://purl.org/dc/dcmitype/StillImage" />
        <dc:title></dc:title>
      </cc:Work>
    </rdf:RDF>
  </metadata>
  <g
     inkscape:label="Layer 1"
     inkscape:groupmode="layer"
     id="layer1"
     transform="translate(0,867.63784)">
    <g
       id="g12"
       transform="matrix(0.56000012,0,0,-0.56000012,-21.774837,784.56412)">
      <path
         d="M 0,0 171.499,-93.903 385.121,9 0,0 Z"
         style="fill:#78c2c3;fill-opacity:1;fill-rule:nonzero;stroke:none"
         id="path14"
         inkscape:connector-curvature="0" />
    </g>
    <g
       id="g16"
       transform="matrix(0.56000012,0,0,-0.56000012,193.89279,779.52429)">
      <path
         d="M 0,0 -213.622,-102.903 413.878,7.597 0,0 Z"
         style="fill:#91babd;fill-opacity:1;fill-rule:nonzero;stroke:none"
         id="path18"
         inkscape:connector-curvature="0" />
    </g>
    <g
       id="g20"
       transform="matrix(0.56000012,0,0,-0.56000012,-21.774837,854.28044)">
      <path
         d="M 0,0 -0.001,-225.91 171.499,30.59 0,0 Z"
         style="fill:#7d8e8d;fill-opacity:1;fill-rule:nonzero;stroke:none"
         id="path22"
         inkscape:connector-curvature="0" />
    </g>
    <g
       id="g24"
       transform="matrix(0.56000012,0,0,-0.56000012,74.264675,837.15015)">
      <path
         d="m 0,0 351.5,-116.5 276,227 L 0,0 Z"
         style="fill:#71c0c0;fill-opacity:1;fill-rule:nonzero;stroke:none"
         id="path26"
         inkscape:connector-curvature="0" />
    </g>
    <path
       d="m -21.775344,1059.7502 101.214978,0 -101.214978,-78.95998 0,78.95998 z"
       style="fill:#75a2a6;fill-opacity:1;fill-rule:nonzero;stroke:none"
       id="path28"
       inkscape:connector-curvature="0" />
    <g
       id="g30"
       transform="matrix(0.56000012,0,0,-0.56000012,79.751113,1059.7502)">
      <path
         d="M 0,0 189.577,0 -67.172,171.625 0,0 Z"
         style="fill:#809190;fill-opacity:1;fill-rule:nonzero;stroke:none"
         id="path32"
         inkscape:connector-curvature="0" />
    </g>
    <g
       id="g34"
       transform="matrix(0.56000012,0,0,-0.56000012,-21.775344,980.79001)">
      <path
         d="m 0,0 180.741,-141 0.556,0 L 114.125,30.624 0,0 Z"
         style="fill:#78c2c3;fill-opacity:1;fill-rule:nonzero;stroke:none"
         id="path36"
         inkscape:connector-curvature="0" />
    </g>
    <g
       id="g38"
       transform="matrix(0.56000012,0,0,-0.56000012,42.134897,963.64048)">
      <path
         d="m 0,0 256.749,-171.625 152,281 L 0,0 Z"
         style="fill:#75a2a6;fill-opacity:1;fill-rule:nonzero;stroke:none"
         id="path40"
         inkscape:connector-curvature="0" />
    </g>
    <g
       id="g42"
       transform="matrix(0.56000012,0,0,-0.56000012,413.34475,865.43021)">
      <path
         d="M 0,0 -254,-66 181.333,-141.333 0,0 Z"
         style="fill:#78c2c3;fill-opacity:1;fill-rule:nonzero;stroke:none"
         id="path44"
         inkscape:connector-curvature="0" />
    </g>
    <g
       id="g46"
       transform="matrix(0.56000012,0,0,-0.56000012,271.10472,902.39022)">
      <path
         d="m 0,0 151.333,-184 284,108.667 L 0,0 Z"
         style="fill:#71c0c0;fill-opacity:1;fill-rule:nonzero;stroke:none"
         id="path48"
         inkscape:connector-curvature="0" />
    </g>
    <g
       id="g50"
       transform="matrix(0.56000012,0,0,-0.56000012,314.0379,1059.7502)">
      <path
         d="M 0,0 74.667,97 -76.667,281 0,0 Z"
         style="fill:#75c1c1;fill-opacity:1;fill-rule:nonzero;stroke:none"
         id="path52"
         inkscape:connector-curvature="0" />
    </g>
    <g
       id="g54"
       transform="matrix(0.56000012,0,0,-0.56000012,185.98459,1059.7502)">
      <path
         d="M 0,0 228.667,0 152,281 0,0 Z"
         style="fill:#71c0c0;fill-opacity:1;fill-rule:nonzero;stroke:none"
         id="path56"
         inkscape:connector-curvature="0" />
    </g>
    <g
       id="g58"
       transform="matrix(0.56000012,0,0,-0.56000012,271.10472,902.39022)">
      <path
         d="M 0,0 254,66 276,227 0,0 Z"
         style="fill:#77c2c2;fill-opacity:1;fill-rule:nonzero;stroke:none"
         id="path60"
         inkscape:connector-curvature="0" />
    </g>
    <g
       id="g62"
       transform="matrix(0.56000012,0,0,-0.56000012,314.0379,1059.7502)">
      <path
         d="M 0,0 339.667,0 74.667,97 0,0 Z"
         style="fill:#74c1c1;fill-opacity:1;fill-rule:nonzero;stroke:none"
         id="path64"
         inkscape:connector-curvature="0" />
    </g>
    <g
       id="g66"
       transform="matrix(0.56000012,0,0,-0.56000012,355.85127,1005.4301)">
      <path
         d="M 0,0 265.001,-97 284,108.667 0,0 Z"
         style="fill:#7f908f;fill-opacity:1;fill-rule:nonzero;stroke:none"
         id="path68"
         inkscape:connector-curvature="0" />
    </g>
    <g
       id="g70"
       transform="matrix(0.56000012,0,0,-0.56000012,425.66475,775.27021)">
      <path
         d="M 0,0 291,-54.5 425.5,5 0,0 Z"
         style="fill:#6b9da1;fill-opacity:1;fill-rule:nonzero;stroke:none"
         id="path72"
         inkscape:connector-curvature="0" />
    </g>
    <g
       id="g74"
       transform="matrix(0.56000012,0,0,-0.56000012,425.66475,775.27021)">
      <path
         d="M 0,0 179.5,-106.5 291,-54.5 0,0 Z"
         style="fill:#91babd;fill-opacity:1;fill-rule:nonzero;stroke:none"
         id="path76"
         inkscape:connector-curvature="0" />
    </g>
    <g
       id="g78"
       transform="matrix(0.56000012,0,0,-0.56000012,425.66475,775.27021)">
      <path
         d="M 0,0 -22,-161 196.5,-186 0,0 Z"
         style="fill:#61999d;fill-opacity:1;fill-rule:nonzero;stroke:none"
         id="path80"
         inkscape:connector-curvature="0" />
    </g>
    <g
       id="g82"
       transform="matrix(0.56000012,0,0,-0.56000012,526.18475,834.91016)">
      <path
         d="M 0,0 -179.5,106.5 17,-79.5 0,0 Z"
         style="fill:#5f989c;fill-opacity:1;fill-rule:nonzero;stroke:none"
         id="path84"
         inkscape:connector-curvature="0" />
    </g>
    <g
       id="g86"
       transform="matrix(0.56000012,0,0,-0.56000012,413.34475,865.43021)">
      <path
         d="M 0,0 181.333,-141.333 218.5,-25 0,0 Z"
         style="fill:#74c1c1;fill-opacity:1;fill-rule:nonzero;stroke:none"
         id="path88"
         inkscape:connector-curvature="0" />
    </g>
    <g
       id="g90"
       transform="matrix(0.56000012,0,0,-0.56000012,504.25157,1059.7502)">
      <path
         d="M 0,0 203.666,119 19,205.667 0,0 Z"
         style="fill:#7d8e8d;fill-opacity:1;fill-rule:nonzero;stroke:none"
         id="path92"
         inkscape:connector-curvature="0" />
    </g>
    <g
       id="g94"
       transform="matrix(0.56000012,0,0,-0.56000012,504.25157,1059.7502)">
      <path
         d="m 0,0 338.666,0 -135,119 L 0,0 Z"
         style="fill:#75a2a6;fill-opacity:1;fill-rule:nonzero;stroke:none"
         id="path96"
         inkscape:connector-curvature="0" />
    </g>
    <g
       id="g98"
       transform="matrix(0.56000012,0,0,-0.56000012,618.30477,993.11029)">
      <path
         d="M 0,0 135,-119 118.5,132 0,0 Z"
         style="fill:#7f908f;fill-opacity:1;fill-rule:nonzero;stroke:none"
         id="path100"
         inkscape:connector-curvature="0" />
    </g>
    <g
       id="g102"
       transform="matrix(0.56000012,0,0,-0.56000012,693.90479,1059.7502)">
      <path
         d="M 0,0 210.5,207.5 -16.5,251 0,0 Z"
         style="fill:#74c1c1;fill-opacity:1;fill-rule:nonzero;stroke:none"
         id="path104"
         inkscape:connector-curvature="0" />
    </g>
    <g
       id="g106"
       transform="matrix(0.56000012,0,0,-0.56000012,811.78482,943.55022)">
      <path
         d="M 0,0 285,-100 285.5,90 0,0 Z"
         style="fill:#7d8e8d;fill-opacity:1;fill-rule:nonzero;stroke:none"
         id="path108"
         inkscape:connector-curvature="0" />
    </g>
    <g
       id="g110"
       transform="matrix(0.56000012,0,0,-0.56000012,693.90479,1059.7502)">
      <path
         d="m 0,0 305.5,87.5 -95,120 L 0,0 Z"
         style="fill:#61999d;fill-opacity:1;fill-rule:nonzero;stroke:none"
         id="path112"
         inkscape:connector-curvature="0" />
    </g>
    <g
       id="g114"
       transform="matrix(0.56000012,0,0,-0.56000012,693.90479,1059.7502)">
      <path
         d="M 0,0 493,0 305.5,87.5 0,0 Z"
         style="fill:#73a1a5;fill-opacity:1;fill-rule:nonzero;stroke:none"
         id="path116"
         inkscape:connector-curvature="0" />
    </g>
    <g
       id="g118"
       transform="matrix(0.56000012,0,0,-0.56000012,811.78482,943.55022)">
      <path
         d="M 0,0 95,-120 285,-100 0,0 Z"
         style="fill:#75a2a6;fill-opacity:1;fill-rule:nonzero;stroke:none"
         id="path120"
         inkscape:connector-curvature="0" />
    </g>
    <g
       id="g122"
       transform="matrix(0.56000012,0,0,-0.56000012,969.9849,1059.7502)">
      <path
         d="M 0,0 229,0 2.5,107.5 0,0 Z"
         style="fill:#77c2c2;fill-opacity:1;fill-rule:nonzero;stroke:none"
         id="path124"
         inkscape:connector-curvature="0" />
    </g>
    <g
       id="g126"
       transform="matrix(0.56000012,0,0,-0.56000012,864.98461,1010.7503)">
      <path
         d="M 0,0 187.5,-87.5 190.001,20 0,0 Z"
         style="fill:#7f8f8e;fill-opacity:1;fill-rule:nonzero;stroke:none"
         id="path128"
         inkscape:connector-curvature="0" />
    </g>
    <g
       id="g130"
       transform="matrix(0.56000012,0,0,-0.56000012,971.38507,999.55039)">
      <path
         d="m 0,0 226.499,-11.835 0,81 L 0,0 Z"
         style="fill:#71c0c0;fill-opacity:1;fill-rule:nonzero;stroke:none"
         id="path132"
         inkscape:connector-curvature="0" />
    </g>
    <g
       id="g134"
       transform="matrix(0.56000012,0,0,-0.56000012,1098.2249,1059.7502)">
      <path
         d="M 0,0 0,95.665 -226.499,107.5 0,0 Z"
         style="fill:#7f8f8e;fill-opacity:1;fill-rule:nonzero;stroke:none"
         id="path136"
         inkscape:connector-curvature="0" />
    </g>
    <g
       id="g138"
       transform="matrix(0.56000012,0,0,-0.56000012,971.38507,999.55039)">
      <path
         d="M 0,0 226.499,69.165 144.5,139.5 0,0 Z"
         style="fill:#75a2a6;fill-opacity:1;fill-rule:nonzero;stroke:none"
         id="path140"
         inkscape:connector-curvature="0" />
    </g>
    <g
       id="g142"
       transform="matrix(0.56000012,0,0,-0.56000012,971.66485,893.15019)">
      <path
         d="M 0,0 -0.5,-190 144,-50.5 0,0 Z"
         style="fill:#71c0c0;fill-opacity:1;fill-rule:nonzero;stroke:none"
         id="path144"
         inkscape:connector-curvature="0" />
    </g>
    <g
       id="g146"
       transform="matrix(0.56000012,0,0,-0.56000012,1098.2249,807.75015)">
      <path
         d="M 0,0 0,49 -342,56 0,0 Z"
         style="fill:#63999d;fill-opacity:1;fill-rule:nonzero;stroke:none"
         id="path148"
         inkscape:connector-curvature="0" />
    </g>
    <g
       id="g150"
       transform="matrix(0.56000012,0,0,-0.56000012,957.38489,808.59031)">
      <path
         d="m 0,0 251.5,-56 0,57.5 L 0,0 Z"
         style="fill:#61999d;fill-opacity:1;fill-rule:nonzero;stroke:none"
         id="path152"
         inkscape:connector-curvature="0" />
    </g>
    <g
       id="g154"
       transform="matrix(0.56000012,0,0,-0.56000012,1006.3849,864.31006)">
      <path
         d="M 0,0 164,-56 164,43.5 0,0 Z"
         style="fill:#77c2c2;fill-opacity:1;fill-rule:nonzero;stroke:none"
         id="path156"
         inkscape:connector-curvature="0" />
    </g>
    <g
       id="g158"
       transform="matrix(0.56000012,0,0,-0.56000012,1052.3048,921.43035)">
      <path
         d="M 0,0 82,-70.335 82,46.001 0,0 Z"
         style="fill:#7f908f;fill-opacity:1;fill-rule:nonzero;stroke:none"
         id="path160"
         inkscape:connector-curvature="0" />
    </g>
    <g
       id="g162"
       transform="matrix(0.56000012,0,0,-0.56000012,1052.3048,921.43035)">
      <path
         d="m 0,0 82,46.001 -164,56 L 0,0 Z"
         style="fill:#78c2c3;fill-opacity:1;fill-rule:nonzero;stroke:none"
         id="path164"
         inkscape:connector-curvature="0" />
    </g>
    <g
       id="g166"
       transform="matrix(0.56000012,0,0,-0.56000012,1006.3849,864.31016)">
      <path
         d="M 0,0 -62,-51.5 82,-102 0,0 Z"
         style="fill:#75c1c1;fill-opacity:1;fill-rule:nonzero;stroke:none"
         id="path168"
         inkscape:connector-curvature="0" />
    </g>
    <g
       id="g170"
       transform="matrix(0.56000012,0,0,-0.56000012,862.46541,834.44338)">
      <path
         d="m 0,0 -90.501,-194.833 285.5,90 L 0,0 Z"
         style="fill:#61999d;fill-opacity:1;fill-rule:nonzero;stroke:none"
         id="path172"
         inkscape:connector-curvature="0" />
    </g>
    <g
       id="g174"
       transform="matrix(0.56000012,0,0,-0.56000012,932.83834,832.01691)">
      <path
         d="m 0,0 69.333,-109.167 62,51.5 L 0,0 Z"
         style="fill:#78c2c3;fill-opacity:1;fill-rule:nonzero;stroke:none"
         id="path176"
         inkscape:connector-curvature="0" />
    </g>
    <g
       id="g178"
       transform="matrix(0.56000012,0,0,-0.56000012,1006.3849,864.31006)">
      <path
         d="M 0,0 164,43.5 -87.5,99.5 0,0 Z"
         style="fill:#71c0c0;fill-opacity:1;fill-rule:nonzero;stroke:none"
         id="path180"
         inkscape:connector-curvature="0" />
    </g>
    <g
       id="g182"
       transform="matrix(0.56000012,0,0,-0.56000012,932.83834,832.01691)">
      <path
         d="M 0,0 -125.666,-4.333 69.333,-109.167 0,0 Z"
         style="fill:#78c2c3;fill-opacity:1;fill-rule:nonzero;stroke:none"
         id="path184"
         inkscape:connector-curvature="0" />
    </g>
    <g
       id="g186"
       transform="matrix(0.56000012,0,0,-0.56000012,957.38485,808.59021)">
      <path
         d="M 0,0 -43.833,-41.833 87.5,-99.5 0,0 Z"
         style="fill:#61999d;fill-opacity:1;fill-rule:nonzero;stroke:none"
         id="path188"
         inkscape:connector-curvature="0" />
    </g>
    <g
       id="g190"
       transform="matrix(0.56000012,0,0,-0.56000012,957.38489,808.59031)">
      <path
         d="M 0,0 251.5,1.5 -79.167,57.167 0,0 Z"
         style="fill:#94a1a0;fill-opacity:1;fill-rule:nonzero;stroke:none"
         id="path192"
         inkscape:connector-curvature="0" />
    </g>
    <g
       id="g194"
       transform="matrix(0.56000012,0,0,-0.56000012,830.73186,784.04335)">
      <path
         d="M 0,0 182.333,-85.667 226.166,-43.833 0,0 Z"
         style="fill:#61999d;fill-opacity:1;fill-rule:nonzero;stroke:none"
         id="path196"
         inkscape:connector-curvature="0" />
    </g>
    <g
       id="g198"
       transform="matrix(0.56000012,0,0,-0.56000012,913.05187,776.57694)">
      <path
         d="M 0,0 -147,-13.333 79.166,-57.167 0,0 Z"
         style="fill:#78c2c3;fill-opacity:1;fill-rule:nonzero;stroke:none"
         id="path200"
         inkscape:connector-curvature="0" />
    </g>
    <g
       id="g202"
       transform="matrix(0.56000012,0,0,-0.56000012,820.8389,774.52344)">
      <path
         d="m 0,0 17.666,-17 147,13.333 L 0,0 Z"
         style="fill:#589599;fill-opacity:1;fill-rule:nonzero;stroke:none"
         id="path204"
         inkscape:connector-curvature="0" />
    </g>
    <g
       id="g206"
       transform="matrix(0.56000012,0,0,-0.56000012,667.58479,825.11016)">
      <path
         d="M 0,0 257.5,-211.5 348.001,-16.667 0,0 Z"
         style="fill:#74c1c1;fill-opacity:1;fill-rule:nonzero;stroke:none"
         id="path208"
         inkscape:connector-curvature="0" />
    </g>
    <g
       id="g210"
       transform="matrix(0.56000012,0,0,-0.56000012,830.73186,784.04335)">
      <path
         d="M 0,0 56.667,-90 182.333,-85.667 0,0 Z"
         style="fill:#74c1c1;fill-opacity:1;fill-rule:nonzero;stroke:none"
         id="path212"
         inkscape:connector-curvature="0" />
    </g>
    <g
       id="g214"
       transform="matrix(0.56000012,0,0,-0.56000012,830.73186,784.04335)">
      <path
         d="M 0,0 -291.334,-73.333 56.667,-90 0,0 Z"
         style="fill:#669b9f;fill-opacity:1;fill-rule:nonzero;stroke:none"
         id="path216"
         inkscape:connector-curvature="0" />
    </g>
    <g
       id="g218"
       transform="matrix(0.56000012,0,0,-0.56000012,765.77131,773.59019)">
      <path
         d="M 0,0 -175.333,-92 116.001,-18.667 0,0 Z"
         style="fill:#75a2a6;fill-opacity:1;fill-rule:nonzero;stroke:none"
         id="path220"
         inkscape:connector-curvature="0" />
    </g>
    <g
       id="g222"
       transform="matrix(0.56000012,0,0,-0.56000012,820.8389,774.52344)">
      <path
         d="M 0,0 -98.335,1.667 17.666,-17 0,0 Z"
         style="fill:#61999d;fill-opacity:1;fill-rule:nonzero;stroke:none"
         id="path224"
         inkscape:connector-curvature="0" />
    </g>
    <g
       id="g226"
       transform="matrix(0.56000012,0,0,-0.56000012,663.94478,772.47015)">
      <path
         d="M 0,0 6.5,-94 181.833,-2 0,0 Z"
         style="fill:#91babd;fill-opacity:1;fill-rule:nonzero;stroke:none"
         id="path228"
         inkscape:connector-curvature="0" />
    </g>
    <g
       id="g230"
       transform="matrix(0.56000012,0,0,-0.56000012,663.94478,772.47015)">
      <path
         d="M 0,0 -134.5,-59.5 6.5,-94 0,0 Z"
         style="fill:#929f9e;fill-opacity:1;fill-rule:nonzero;stroke:none"
         id="path232"
         inkscape:connector-curvature="0" />
    </g>
    <g
       id="g234"
       transform="matrix(0.56000012,0,0,-0.56000012,667.58479,825.11016)">
      <path
         d="m 0,0 30.5,-168 227,-43.5 L 0,0 Z"
         style="fill:#6ebfbf;fill-opacity:1;fill-rule:nonzero;stroke:none"
         id="path236"
         inkscape:connector-curvature="0" />
    </g>
    <g
       id="g238"
       transform="matrix(0.56000012,0,0,-0.56000012,526.18475,834.91016)">
      <path
         d="M 0,0 17,-79.5 111.5,52 0,0 Z"
         style="fill:#74c1c1;fill-opacity:1;fill-rule:nonzero;stroke:none"
         id="path240"
         inkscape:connector-curvature="0" />
    </g>
    <g
       id="g242"
       transform="matrix(0.56000012,0,0,-0.56000012,588.62477,805.79015)">
      <path
         d="M 0,0 -94.5,-131.5 141,-34.5 0,0 Z"
         style="fill:#78c2c3;fill-opacity:1;fill-rule:nonzero;stroke:none"
         id="path244"
         inkscape:connector-curvature="0" />
    </g>
    <g
       id="g246"
       transform="matrix(0.56000012,0,0,-0.56000012,667.58479,825.11016)">
      <path
         d="M 0,0 -235.5,-97 30.5,-168 0,0 Z"
         style="fill:#7f8f8e;fill-opacity:1;fill-rule:nonzero;stroke:none"
         id="path248"
         inkscape:connector-curvature="0" />
    </g>
    <g
       id="g250"
       transform="matrix(0.56000012,0,0,-0.56000012,535.70476,879.43019)">
      <path
         d="M 0,0 147.5,-203 266,-71 0,0 Z"
         style="fill:#71c0c0;fill-opacity:1;fill-rule:nonzero;stroke:none"
         id="path252"
         inkscape:connector-curvature="0" />
    </g>
    <g
       id="g254"
       transform="matrix(0.56000012,0,0,-0.56000012,535.70476,879.43019)">
      <path
         d="M 0,0 -37.167,-116.333 147.5,-203 0,0 Z"
         style="fill:#78c2c3;fill-opacity:1;fill-rule:nonzero;stroke:none"
         id="path256"
         inkscape:connector-curvature="0" />
    </g>
    <g
       id="g614"
       transform="matrix(0.56000012,0,0,-0.56000012,-21.774837,854.28044)">
      <path
         d="M 0,0 171.499,30.59 0,124.493 0,0 Z"
         style="fill:#75c1c1;fill-opacity:1;fill-rule:nonzero;stroke:none"
         id="path616"
         inkscape:connector-curvature="0" />
    </g>
    <g
       id="g618"
       transform="matrix(0.56000012,0,0,-0.56000012,-21.775344,980.79001)">
      <path
         d="M 0,0 523,139.999 171.5,256.5 0,0 Z"
         style="fill:#6ebfbf;fill-opacity:1;fill-rule:nonzero;stroke:none"
         id="path620"
         inkscape:connector-curvature="0" />
    </g>
    <g
       id="g6867"
       transform="matrix(0.95651547,0,0,0.95651547,-35.706174,419.7141)">
      <text
         sodipodi:linespacing="125%"
         id="text6223-0"
         y="406.05576"
         x="61.245529"
         style="font-style:normal;font-weight:normal;font-size:200.83126831px;line-height:125%;font-family:sans-serif;letter-spacing:0px;word-spacing:0px;fill:#faaa13;fill-opacity:1;stroke:none;stroke-width:1px;stroke-linecap:butt;stroke-linejoin:miter;stroke-opacity:1;filter:url(#filter6863)"
         xml:space="preserve"><tspan
           style="font-style:italic;font-variant:normal;font-weight:bold;font-stretch:normal;font-family:'Myriad Set Pro';-inkscape-font-specification:'Myriad Set Pro Bold Italic';fill:#faaa13;fill-opacity:1"
           y="406.05576"
           x="61.245529"
           id="tspan6225-1"
           sodipodi:role="line">FOSTER CITY</tspan></text>
      <text
         sodipodi:linespacing="125%"
         id="text6223"
         y="396.05576"
         x="61.245522"
         style="font-style:normal;font-weight:normal;font-size:200.83126831px;line-height:125%;font-family:sans-serif;letter-spacing:0px;word-spacing:0px;fill:#1a1f71;fill-opacity:1;stroke:none;stroke-width:1px;stroke-linecap:butt;stroke-linejoin:miter;stroke-opacity:1"
         xml:space="preserve"><tspan
           style="font-style:italic;font-variant:normal;font-weight:bold;font-stretch:normal;font-family:'Myriad Set Pro';-inkscape-font-specification:'Myriad Set Pro Bold Italic';fill:#1a1f71;fill-opacity:1"
           y="396.05576"
           x="61.245522"
           id="tspan6225"
           sodipodi:role="line">FOSTER CITY</tspan></text>
    </g>
  </g>
</svg>
