<?xml version="1.0" encoding="UTF-8" standalone="no"?>
<!-- Created with Inkscape (http://www.inkscape.org/) -->

<svg
   xmlns:dc="http://purl.org/dc/elements/1.1/"
   xmlns:cc="http://creativecommons.org/ns#"
   xmlns:rdf="http://www.w3.org/1999/02/22-rdf-syntax-ns#"
   xmlns:svg="http://www.w3.org/2000/svg"
   xmlns="http://www.w3.org/2000/svg"
   xmlns:sodipodi="http://sodipodi.sourceforge.net/DTD/sodipodi-0.dtd"
   xmlns:inkscape="http://www.inkscape.org/namespaces/inkscape"
   width="500"
   height="500"
   viewBox="0 0 500.00001 500.00001"
   id="svg4511"
   version="1.1"
   inkscape:version="0.91 r13725"
   sodipodi:docname="BM-Photobooth.svg">
  <defs
     id="defs4513" />
  <sodipodi:namedview
     id="base"
     pagecolor="#ffffff"
     bordercolor="#666666"
     borderopacity="1.0"
     inkscape:pageopacity="0.0"
     inkscape:pageshadow="2"
     inkscape:zoom="1.979899"
     inkscape:cx="222.96228"
     inkscape:cy="239.1511"
     inkscape:document-units="px"
     inkscape:current-layer="g5259"
     showgrid="false"
     units="px"
     inkscape:window-width="2560"
     inkscape:window-height="1646"
     inkscape:window-x="0"
     inkscape:window-y="25"
     inkscape:window-maximized="1" />
  <metadata
     id="metadata4516">
    <rdf:RDF>
      <cc:Work
         rdf:about="">
        <dc:format>image/svg+xml</dc:format>
        <dc:type
           rdf:resource="http://purl.org/dc/dcmitype/StillImage" />
        <dc:title></dc:title>
      </cc:Work>
    </rdf:RDF>
  </metadata>
  <g
     inkscape:label="Layer 1"
     inkscape:groupmode="layer"
     id="layer1"
     transform="translate(0,-552.36214)">
    <g
       id="g5259"
       transform="matrix(0.95319274,0,0,0.95319274,7.7875139,558.57751)">
      <circle
         id="circle5219"
         r="254"
         cy="254"
         cx="254"
         style="fill:#ffd05b" />
      <path
         id="path5221"
         d="m 365.37228,139.38594 c 1.04075,20.29468 -8.84644,40.58937 -22.89658,61.92479 11.44829,-69.21007 -11.44829,-146.746245 -103.55498,-182.652238 7.80564,29.141091 -10.92792,65.047113 -29.14109,104.075378 -10.92791,-12.48903 -23.41694,-24.457702 -38.50788,-35.906 7.28528,96.79007 -205.028439,193.58015 -32.78374,359.05996 0,0 11.44828,7.28529 31.74299,14.57054 -0.52038,-0.52038 -1.04076,-1.04073 -1.56113,-1.5611 l 0,0 c -36.94676,-40.06903 -57.24147,-122.80894 13.00942,-177.44849 -1.04078,13.5298 5.72413,26.53922 15.09093,40.069 -7.28528,-44.75242 7.28527,-95.22897 67.12859,-118.64589 -5.20377,18.73353 7.28528,42.15046 18.73356,67.64893 6.76488,-8.32604 15.09091,-16.13166 24.97806,-23.41695 -3.64262,51.51731 92.1067,104.59579 57.76185,183.17265 6.76487,-5.20375 13.5298,-10.9279 19.77432,-17.6928 l 0,0 c 56.72104,-61.40445 87.94365,-188.8968 -19.77432,-273.19778 z"
         style="fill:#ff7058"
         inkscape:connector-curvature="0" />
      <g
         id="g5223" />
      <g
         id="g5225" />
      <g
         id="g5227" />
      <g
         id="g5229" />
      <g
         id="g5231" />
      <g
         id="g5233" />
      <g
         id="g5235" />
      <g
         id="g5237" />
      <g
         id="g5239" />
      <g
         id="g5241" />
      <g
         id="g5243" />
      <g
         id="g5245" />
      <g
         id="g5247" />
      <g
         id="g5249" />
      <g
         id="g5251" />
    </g>
    <g
       id="g5409"
       transform="matrix(0.88419684,0,0,0.88419684,28.93476,116.01779)">
      <g
         transform="matrix(-0.60740887,0,0,0.60740887,766.8238,173.61385)"
         id="g5344">
        <path
           style="fill:#ffffff;fill-opacity:1;fill-rule:evenodd;stroke:#000000;stroke-width:1px;stroke-linecap:butt;stroke-linejoin:miter;stroke-opacity:1"
           d="m 996.90827,1079.112 0.94887,-167.46415 -10.71428,-13.57142 -56.42857,-2.14286 -21.42857,-52.85714 -122.14286,-2.85715 -22.85714,52.85715 -15.71429,-1.42858 0.71429,-25.71428 -25,0 0,26.42857 -13.57143,0 -15,15 2.14285,166.42856 12.14286,14.2857 35,0.7143 -1.42857,282.1429 -10,0 1.42857,28.5714 -0.71428,-2.1429 225,0.7143 2.85714,-24.2857 -8.57143,0 0.58648,-281.4951"
           id="path5342"
           inkscape:connector-curvature="0"
           sodipodi:nodetypes="cccccccccccccccccccccccc" />
        <g
           id="g5297"
           transform="translate(22.142857,884.28572)">
          <g
             transform="translate(590.23044,108.79196)"
             id="g5120">
            <g
               id="g5060">
              <path
                 sodipodi:nodetypes="ccssssssssccccccccccccc"
                 inkscape:connector-curvature="0"
                 d="m 124.14691,91.844398 0,281.065392 -1.95364,0 c -3.59644,0 -6.51213,2.9157 -6.51213,6.51213 l 0,26.04766 c 0,3.59644 2.91569,6.51214 6.51213,6.51214 l 224.73804,0 c 3.59644,0 6.51213,-2.9157 6.51213,-6.51214 l 0,-26.04766 c 0,-3.59643 -2.91569,-6.51213 -6.51213,-6.51213 l -1.95364,0 0,-281.064522 c -15.45782,-0.11629 -220.83076,-8.7e-4 -220.83076,-8.7e-4 z m 216.27227,307.113922 -211.71378,0 0,-13.0234 211.71378,0 z m -8.46491,-26.04766 -194.7831,0 0,-281.065392 194.7831,0 z"
                 id="path5064" />
              <g
                 transform="matrix(0.32639631,0,0,0.32639631,160.23474,121.91907)"
                 id="g5292">
                <path
                   inkscape:connector-curvature="0"
                   d="M 82.46,703.835 C 71.005,698.446 66.092,684.787 71.481,673.333 l 0,0 c 0,-0.011 1.329,-2.82 3.786,-8.281 l 0,0 c 2.445,-5.473 5.981,-13.485 10.218,-23.513 l 0,0 c 8.475,-20.083 19.808,-48.279 31.109,-80.505 l 0,0 C 139.261,496.723 161.457,415.66 161.3,353.853 l 0,0 c 0,-6.6 -0.235,-12.96 -0.736,-19.037 l 0,0 C 156.566,283.129 126.884,218.231 93.9,163.293 l 0,0 C 61.048,108.202 25.479,62.461 11.535,45.17 l 0,0 C 7.545,40.22 5.433,37.728 5.422,37.716 l 0,0 C -2.756,28.055 -1.545,13.588 8.128,5.421 l 0,0 C 17.8,-2.757 32.256,-1.546 40.434,8.126 l 0,0 c 0.414,0.501 38.336,45.339 77.964,107.565 l 0,0 c 39.486,62.473 81.403,141.388 87.849,215.373 l 0,0 c 0.604,7.465 0.89,15.075 0.89,22.789 l 0,0 c -0.154,71.918 -23.963,155.472 -47.283,222.351 l 0,0 c -23.404,66.723 -46.679,116.182 -46.892,116.652 l 0,0 c -3.906,8.304 -12.148,13.166 -20.751,13.166 l 0,0 c -3.272,0 -6.595,-0.705 -9.751,-2.187 l 0,0 z"
                   id="path5282" />
                <path
                   inkscape:connector-curvature="0"
                   d="m 342.478,692.851 c -0.201,-0.47 -23.49,-49.919 -46.892,-116.652 l 0,0 C 272.252,509.32 248.443,425.766 248.286,353.86 l 0,0 c 0,-7.75 0.297,-15.357 0.906,-22.799 l 0,0 c 6.452,-73.988 48.375,-152.887 87.857,-215.362 l 0,0 C 376.689,53.472 414.6,8.634 415.014,8.122 l 0,0 0.011,0.011 c 8.17,-9.672 22.624,-10.881 32.299,-2.717 l 0,0 c 9.657,8.178 10.878,22.634 2.702,32.307 l 0,0 c 0,0.011 -2.126,2.504 -6.11,7.453 l 0,0 c -3.989,4.936 -9.747,12.201 -16.687,21.339 l 0,0 c -13.888,18.278 -32.577,44.066 -51.508,73.798 l 0,0 c -38.017,59.257 -76.341,135.358 -80.84,194.51 l 0,0 c -0.498,6.099 -0.755,12.461 -0.755,19.036 l 0,0 c -0.106,54.023 16.804,122.966 36.293,182.32 l 0,0 c 19.428,59.459 41.167,109.735 49.762,128.867 l 0,0 c 2.445,5.473 3.771,8.281 3.788,8.293 l 0,0 c 5.389,11.454 0.471,25.102 -10.989,30.502 l 0,0 c -3.156,1.482 -6.469,2.188 -9.736,2.188 l 0,0 c -8.607,-10e-4 -16.861,-4.875 -20.766,-13.178 l 0,0 z"
                   id="path5284" />
                <path
                   inkscape:connector-curvature="0"
                   d="M 207.821,203.555 146.225,95.76 c -5.324,-9.322 -3.494,-21.02 4.415,-28.266 l 0,0 61.597,-56.466 c 8.769,-8.049 22.201,-8.049 30.969,0 l 0,0 61.597,56.466 c 7.907,7.235 9.736,18.944 4.415,28.266 l 0,0 -61.598,107.795 c -4.062,7.104 -11.711,11.541 -19.897,11.541 l 0,0 c -8.181,0 -15.839,-4.438 -19.902,-11.541 l 0,0 z m -12.71,-114.641 32.606,57.07 32.617,-57.081 -32.611,-29.895 -32.612,29.906 0,0 z"
                   id="path5286" />
              </g>
            </g>
            <g
               id="g5084" />
            <g
               id="g5086" />
            <g
               id="g5088" />
            <g
               id="g5090" />
            <g
               id="g5092" />
            <g
               id="g5094" />
            <g
               id="g5096" />
            <g
               id="g5098" />
            <g
               id="g5100" />
            <g
               id="g5102" />
            <g
               id="g5104" />
            <g
               id="g5106" />
            <g
               id="g5108" />
            <g
               id="g5110" />
            <g
               id="g5112" />
          </g>
          <g
             transform="matrix(5.2134653,0,0,5.2134653,668.38877,-75.557486)"
             id="g5196">
            <g
               id="g5150">
              <path
                 inkscape:connector-curvature="0"
                 d="m 55.201,15.5 -8.524,0 -4,-10 -25.354,0 -4,10 -1.323,0 0,-5 -6,0 0,5 -1.201,0 C 2.152,15.5 0,17.652 0,20.299 L 0,49.667 C 0,52.332 2.168,54.5 4.833,54.5 l 50.334,0 C 57.832,54.5 60,52.332 60,49.667 L 60,20.299 C 60,17.652 57.848,15.5 55.201,15.5 Z M 8,12.5 l 2,0 0,3 -2,0 0,-3 z M 58,49.667 C 58,51.23 56.729,52.5 55.167,52.5 l -50.334,0 C 3.271,52.5 2,51.229 2,49.667 L 2,20.299 C 2,18.756 3.256,17.5 4.799,17.5 l 1.201,0 6,0 2.677,0 4,-10 22.646,0 4,10 9.878,0 c 1.543,0 2.799,1.256 2.799,2.799 l 0,29.368 z"
                 id="path5152" />
              <path
                 inkscape:connector-curvature="0"
                 d="m 30,14.5 c -9.925,0 -18,8.075 -18,18 0,9.925 8.075,18 18,18 9.925,0 18,-8.075 18,-18 0,-9.925 -8.075,-18 -18,-18 z m 0,34 c -8.822,0 -16,-7.178 -16,-16 0,-8.822 7.178,-16 16,-16 8.822,0 16,7.178 16,16 0,8.822 -7.178,16 -16,16 z"
                 id="path5154" />
              <path
                 inkscape:connector-curvature="0"
                 d="m 30,20.5 c -6.617,0 -12,5.383 -12,12 0,6.617 5.383,12 12,12 6.617,0 12,-5.383 12,-12 0,-6.617 -5.383,-12 -12,-12 z m 0,22 c -5.514,0 -10,-4.486 -10,-10 0,-5.514 4.486,-10 10,-10 5.514,0 10,4.486 10,10 0,5.514 -4.486,10 -10,10 z"
                 id="path5156" />
              <path
                 inkscape:connector-curvature="0"
                 d="m 52,19.5 c -2.206,0 -4,1.794 -4,4 0,2.206 1.794,4 4,4 2.206,0 4,-1.794 4,-4 0,-2.206 -1.794,-4 -4,-4 z m 0,6 c -1.103,0 -2,-0.897 -2,-2 0,-1.103 0.897,-2 2,-2 1.103,0 2,0.897 2,2 0,1.103 -0.897,2 -2,2 z"
                 id="path5158" />
            </g>
            <g
               id="g5160" />
            <g
               id="g5162" />
            <g
               id="g5164" />
            <g
               id="g5166" />
            <g
               id="g5168" />
            <g
               id="g5170" />
            <g
               id="g5172" />
            <g
               id="g5174" />
            <g
               id="g5176" />
            <g
               id="g5178" />
            <g
               id="g5180" />
            <g
               id="g5182" />
            <g
               id="g5184" />
            <g
               id="g5186" />
            <g
               id="g5188" />
          </g>
        </g>
      </g>
      <path
         transform="translate(0,552.36214)"
         inkscape:connector-curvature="0"
         id="path5391"
         d="m 193.3143,368.1271 0,-82.83251 59.09392,0 59.09393,0 0,82.83251 0,82.83251 -59.09393,0 -59.09392,0 0,-82.83251 z m 34.28212,69.92247 c 1.4673,-0.71031 1.9164,-1.4535 4.48341,-7.41928 8.08459,-18.78872 13.56464,-37.00394 15.68907,-52.14913 0.63657,-4.53813 0.6429,-14.83756 0.0112,-18.18274 -2.0578,-10.89674 -6.42892,-21.44177 -14.39377,-34.72399 -5.79757,-9.66806 -16.59485,-24.57277 -19.19301,-26.49428 -0.55941,-0.41372 -1.08475,-0.52731 -2.4388,-0.52731 -1.54742,0 -1.82612,0.0802 -2.69627,0.77557 -1.25329,1.00161 -1.85346,2.20571 -1.85395,3.71953 -5.1e-4,1.54172 0.37297,2.24423 2.77034,5.21112 2.99209,3.7029 6.86454,9.01137 10.25971,14.06433 10.74059,15.98501 17.18246,30.26909 18.54977,41.13196 0.41612,3.30587 0.17054,11.10627 -0.48564,15.4259 -2.06195,13.57385 -7.47642,31.1118 -14.84591,48.08724 -2.15255,4.95833 -2.46688,5.86298 -2.46774,7.10206 -0.002,3.41469 3.46577,5.50189 6.6116,3.97902 z m 54.22302,-0.24137 c 1.25738,-0.84834 2.27264,-2.93817 2.06332,-4.24717 -0.0858,-0.5365 -0.96537,-2.83592 -1.95462,-5.10983 -5.49352,-12.62743 -10.03405,-25.64673 -12.82117,-36.76278 -3.92069,-15.63716 -4.36096,-25.93552 -1.53088,-35.80942 3.60978,-12.59424 13.81734,-30.62293 26.23737,-46.34075 1.59144,-2.01399 3.09727,-4.05517 3.3463,-4.53595 0.8427,-1.6269 0.38464,-4.13097 -0.98168,-5.36654 -1.36173,-1.23142 -3.5671,-1.52256 -5.27404,-0.69624 -2.2377,1.08325 -13.00216,15.78357 -19.59614,26.76117 -8.28604,13.79454 -12.95337,25.41817 -14.50071,36.11296 -0.56236,3.88683 -0.37471,12.95195 0.37231,17.98588 1.4211,9.57644 3.85384,19.09152 7.99206,31.25905 3.2188,9.4642 9.45481,24.73486 10.65013,26.07991 1.34598,1.51458 4.26278,1.84027 5.99775,0.66971 z m -28.2748,-96.73275 c 0.55559,-0.15388 1.31616,-0.49727 1.69017,-0.7631 0.72849,-0.51776 13.14812,-21.9765 13.77885,-23.80721 0.37798,-1.0971 0.2573,-2.3213 -0.34332,-3.48279 -0.49133,-0.95011 -13.40347,-12.80096 -14.4231,-13.23762 -1.03452,-0.44302 -2.63233,-0.44538 -3.68525,-0.005 -0.70566,0.29484 -12.4532,10.86112 -13.96943,12.56474 -0.76036,0.85434 -1.18905,2.37179 -1.00146,3.54494 0.214,1.33824 12.74515,23.32101 13.82484,24.25221 0.66824,0.57634 1.92336,1.0972 2.86601,1.18937 0.1389,0.0136 0.70711,-0.10121 1.26269,-0.2551 z"
         style="opacity:1;fill:#2980b9;fill-opacity:1;stroke:#2c3e50;stroke-width:0.50709653;stroke-linecap:round;stroke-linejoin:round;stroke-miterlimit:4;stroke-dasharray:none;stroke-opacity:1" />
      <path
         transform="translate(0,552.36214)"
         inkscape:connector-curvature="0"
         id="path5393"
         d="m 249.17828,321.59695 -3.08413,-5.36644 2.33629,-2.22041 c 1.28496,-1.22122 2.70582,-2.51334 3.15747,-2.87136 l 0.82118,-0.65094 1.32539,1.15608 c 0.72897,0.63584 2.1444,1.92796 3.14541,2.87136 l 1.82002,1.71527 -3.08271,5.3634 c -1.69549,2.94987 -3.14393,5.36477 -3.21875,5.36644 -0.0748,0.002 -1.5239,-2.41186 -3.22017,-5.3634 z"
         style="opacity:1;fill:#2980b9;fill-opacity:1;stroke:#2c3e50;stroke-width:0.50709653;stroke-linecap:round;stroke-linejoin:round;stroke-miterlimit:4;stroke-dasharray:none;stroke-opacity:1" />
      <path
         transform="translate(0,552.36214)"
         inkscape:connector-curvature="0"
         id="path5395"
         d="m 188.26354,462.8289 0,-3.78807 64.14468,0 64.14469,0 0,3.78807 0,3.78807 -64.14469,0 -64.14468,0 0,-3.78807 z"
         style="opacity:1;fill:#666666;fill-opacity:1;stroke:#2c3e50;stroke-width:0.50709653;stroke-linecap:round;stroke-linejoin:round;stroke-miterlimit:4;stroke-dasharray:none;stroke-opacity:1" />
      <path
         transform="translate(0,552.36214)"
         inkscape:connector-curvature="0"
         id="path5397"
         d="m 171.25522,278.46505 c -2.64466,-0.44668 -5.2262,-2.33401 -6.43588,-4.70518 -0.27451,-0.53809 -0.62877,-1.6574 -0.78724,-2.48736 -0.21113,-1.10575 -0.26813,-14.1965 -0.21331,-48.98618 l 0.0748,-47.47717 0.67185,-1.43319 c 0.8985,-1.91667 2.48163,-3.58099 4.2169,-4.43315 l 1.4247,-0.69965 16.88317,-0.12627 16.88318,-0.12627 6.33621,-15.84677 6.33621,-15.84677 35.74827,0.003 35.74827,0.003 6.32565,15.84331 6.32565,15.84331 16.90786,0.12627 16.90786,0.12627 1.44012,0.70719 c 1.79337,0.88067 3.51871,2.75875 4.29155,4.67146 l 0.58178,1.43988 0,48.10851 c 0,45.43136 -0.0249,48.17878 -0.44821,49.37121 -0.88759,2.50048 -2.93994,4.58331 -5.5468,5.62919 -1.00663,0.40387 -6.2822,0.43397 -81.76199,0.46651 -44.37727,0.0191 -81.23705,-0.0583 -81.91062,-0.17207 z m 90.24086,-6.6673 c 12.48442,-2.15845 23.22132,-7.82036 31.96492,-16.85612 9.89892,-10.2297 15.40724,-23.1738 15.93822,-37.45353 0.83737,-22.51975 -11.64328,-43.40049 -31.86345,-53.30913 -8.28765,-4.06125 -15.72767,-5.76957 -25.12755,-5.76957 -9.25798,0 -16.60321,1.6445 -24.62247,5.51265 -11.63672,5.61305 -20.78763,14.61206 -26.47896,26.0394 -2.70861,5.43848 -4.42753,10.79389 -5.35624,16.68766 -0.55461,3.51974 -0.75113,10.75001 -0.38778,14.26724 2.74347,26.55631 22.83453,47.3484 49.39558,51.1191 3.40007,0.48269 13.18445,0.34206 16.53773,-0.2377 z m -75.78143,-72.50244 c 4.25147,-1.00214 7.8731,-4.39009 9.1678,-8.57625 1.81719,-5.87555 -0.93564,-12.52175 -6.26791,-15.13271 -7.32646,-3.58741 -15.94704,0.10193 -18.1583,7.7712 -0.49851,1.72897 -0.56092,5.09795 -0.12478,6.73566 0.55684,2.09093 2.00386,4.46515 3.67301,6.02656 3.28127,3.06947 7.41015,4.18913 11.71018,3.17554 z"
         style="opacity:1;fill:#4d4d4d;fill-opacity:1;stroke:#2c3e50;stroke-width:0.50709653;stroke-linecap:round;stroke-linejoin:round;stroke-miterlimit:4;stroke-dasharray:none;stroke-opacity:1" />
      <path
         transform="translate(0,552.36214)"
         inkscape:connector-curvature="0"
         id="path5401"
         d="m 245.33716,265.44626 c -24.95712,-3.62666 -43.43656,-24.94298 -43.43656,-50.10473 0,-20.87621 12.77611,-39.43152 32.43456,-47.10614 6.01855,-2.34963 10.99495,-3.24243 18.07306,-3.24243 5.6719,0 8.09737,0.29914 13.01988,1.60581 20.13558,5.34492 35.06978,22.87121 37.23008,43.692 1.92437,18.54701 -6.88428,37.00155 -22.59703,47.3419 -6.23669,4.10428 -13.65529,6.87474 -20.97996,7.83492 -3.57196,0.46824 -10.44845,0.45757 -13.74403,-0.0213 l 0,1e-5 z m 12.54676,-12.36293 c 8.43168,-1.25198 15.56707,-4.89809 21.67215,-11.07424 8.82201,-8.9247 12.6062,-21.48022 10.21252,-33.884 -4.07971,-21.14062 -25.28422,-34.83919 -46.1111,-29.78878 -14.71198,3.56758 -25.4554,14.69559 -28.65582,29.68161 -0.74303,3.47925 -0.81691,10.48724 -0.14852,14.08889 2.69691,14.53245 13.48752,26.24505 27.73121,30.10065 4.64103,1.25627 10.48468,1.59081 15.29956,0.87587 z"
         style="opacity:1;fill:#666666;fill-opacity:1;stroke:#2c3e50;stroke-width:0.50709653;stroke-linecap:round;stroke-linejoin:round;stroke-miterlimit:4;stroke-dasharray:none;stroke-opacity:1" />
      <path
         transform="translate(0,552.36214)"
         inkscape:connector-curvature="0"
         id="path5403"
         d="m 180.78529,192.78329 c -2.06532,-0.779 -3.48594,-2.34684 -4.03123,-4.44898 -0.42651,-1.64422 -0.20107,-3.03745 0.74736,-4.61886 1.10892,-1.84901 2.71582,-2.80329 4.9236,-2.92396 1.45462,-0.0795 1.85136,0.003 3.05598,0.63575 1.71325,0.89986 2.89557,2.39675 3.26922,4.13902 0.34222,1.59571 0.15918,2.755 -0.68415,4.33314 -1.37162,2.56674 -4.66407,3.87086 -7.28078,2.88389 z"
         style="opacity:1;fill:#666666;fill-opacity:1;stroke:#2c3e50;stroke-width:0.50709653;stroke-linecap:round;stroke-linejoin:round;stroke-miterlimit:4;stroke-dasharray:none;stroke-opacity:1" />
      <path
         transform="translate(0,552.36214)"
         inkscape:connector-curvature="0"
         id="path5405"
         d="m 315.7953,156.87895 0,-4.67196 3.03045,0 3.03046,0 0,4.67196 0,4.67196 -3.03046,0 -3.03045,0 0,-4.67196 z"
         style="opacity:1;fill:#666666;fill-opacity:1;stroke:#2c3e50;stroke-width:0.50709653;stroke-linecap:round;stroke-linejoin:round;stroke-miterlimit:4;stroke-dasharray:none;stroke-opacity:1" />
      <path
         transform="translate(0,552.36214)"
         inkscape:connector-curvature="0"
         id="path5407"
         d="m 244.53354,245.80701 c -10.50499,-2.82506 -18.75302,-10.72048 -22.07624,-21.13247 -1.59612,-5.0008 -1.82295,-11.95148 -0.5488,-16.81682 2.21549,-8.45985 8.943,-16.82425 16.50911,-20.52598 17.47801,-8.55114 38.16007,0.41929 44.0838,19.12045 1.6789,5.30029 1.55039,13.22045 -0.30142,18.57591 -3.57744,10.34597 -11.98114,18.19033 -22.29649,20.81244 -3.7742,0.95939 -11.74243,0.94201 -15.36996,-0.0335 l 0,0 z"
         style="opacity:1;fill:#b3b3b3;fill-opacity:1;stroke:#2c3e50;stroke-width:1.01419306;stroke-linecap:round;stroke-linejoin:round;stroke-miterlimit:4;stroke-dasharray:none;stroke-opacity:1" />
    </g>
  </g>
</svg>
