<?xml version="1.0" encoding="UTF-8" standalone="no"?>
<!-- Created with Inkscape (http://www.inkscape.org/) -->

<svg
   xmlns:dc="http://purl.org/dc/elements/1.1/"
   xmlns:cc="http://creativecommons.org/ns#"
   xmlns:rdf="http://www.w3.org/1999/02/22-rdf-syntax-ns#"
   xmlns:svg="http://www.w3.org/2000/svg"
   xmlns="http://www.w3.org/2000/svg"
   xmlns:sodipodi="http://sodipodi.sourceforge.net/DTD/sodipodi-0.dtd"
   xmlns:inkscape="http://www.inkscape.org/namespaces/inkscape"
   width="275"
   height="275"
   viewBox="0 0 275 275"
   id="svg2"
   version="1.1"
   inkscape:version="0.91 r13725"
   sodipodi:docname="cloud_webcam.svg">
  <defs
     id="defs4" />
  <sodipodi:namedview
     id="base"
     pagecolor="#ffffff"
     bordercolor="#666666"
     borderopacity="1.0"
     inkscape:pageopacity="0.0"
     inkscape:pageshadow="2"
     inkscape:zoom="5.6"
     inkscape:cx="123.57143"
     inkscape:cy="128.57143"
     inkscape:document-units="px"
     inkscape:current-layer="layer1"
     showgrid="false"
     units="px"
     inkscape:window-width="2560"
     inkscape:window-height="1646"
     inkscape:window-x="0"
     inkscape:window-y="25"
     inkscape:window-maximized="1" />
  <metadata
     id="metadata7">
    <rdf:RDF>
      <cc:Work
         rdf:about="">
        <dc:format>image/svg+xml</dc:format>
        <dc:type
           rdf:resource="http://purl.org/dc/dcmitype/StillImage" />
        <dc:title></dc:title>
      </cc:Work>
    </rdf:RDF>
  </metadata>
  <g
     inkscape:label="Layer 1"
     inkscape:groupmode="layer"
     id="layer1"
     transform="translate(0,-777.36216)">
    <g
       id="g4138"
       transform="matrix(0.26468654,0,0,0.26468654,88.332939,909.28931)">
      <path
         id="path4140"
         d="m 247.52,209.866 c 0.88,0.64 1.91,0.95 2.93,0.95 1.54,0 3.07,-0.71 4.05,-2.06 1.62,-2.24 1.12,-5.37 -1.12,-6.99 -2.23,-1.62 -5.36,-1.12 -6.98,1.12 -1.62,2.23 -1.12,5.36 1.12,6.98 z"
         inkscape:connector-curvature="0" />
      <path
         id="path4142"
         d="m 137.97,154.316 c 0.52,0.17 1.04,0.24 1.55,0.24 2.11,0 4.07,-1.34 4.75,-3.45 0.86,-2.63 -0.58,-5.45 -3.21,-6.3 -2.63,-0.85 -5.44,0.58 -6.3,3.21 -0.85,2.63 0.59,5.45 3.21,6.3 z"
         inkscape:connector-curvature="0" />
      <path
         id="path4144"
         d="m 257.83,193.026 c 0.51,0.16 1.03,0.24 1.54,0.24 2.11,0 4.07,-1.35 4.75,-3.47 0.85,-2.63 -0.59,-5.44 -3.22,-6.29 -2.63,-0.85 -5.44,0.59 -6.29,3.22 -0.85,2.63 0.59,5.45 3.22,6.3 z"
         inkscape:connector-curvature="0" />
      <path
         id="path4146"
         d="m 179.89,114.096 c 0.51,0 1.04,-0.08 1.55,-0.25 2.63,-0.86 4.06,-3.68 3.2,-6.31 -0.86,-2.62 -3.68,-4.05 -6.31,-3.19 -2.62,0.86 -4.05,3.68 -3.19,6.31 0.69,2.1 2.64,3.44 4.75,3.44 z"
         inkscape:connector-curvature="0" />
      <path
         id="path4148"
         d="m 145.52,136.066 c 0.89,0.64 1.92,0.95 2.94,0.95 1.55,0 3.07,-0.71 4.05,-2.06 1.62,-2.23 1.13,-5.36 -1.11,-6.98 -2.23,-1.62 -5.36,-1.13 -6.98,1.1 -1.63,2.24 -1.13,5.36 1.1,6.99 z"
         inkscape:connector-curvature="0" />
      <path
         id="path4150"
         d="m 162.37,123.086 c 1.03,0 2.06,-0.32 2.95,-0.97 2.23,-1.63 2.71,-4.75 1.09,-6.98 -1.63,-2.23 -4.76,-2.72 -6.99,-1.09 -2.23,1.62 -2.72,4.75 -1.09,6.98 0.98,1.34 2.5,2.06 4.04,2.06 z"
         inkscape:connector-curvature="0" />
      <path
         id="path4152"
         d="m 236.57,224.776 c 1.02,0 2.06,-0.31 2.95,-0.96 2.23,-1.64 2.71,-4.77 1.08,-6.99 -1.63,-2.23 -4.76,-2.71 -6.99,-1.08 -2.23,1.63 -2.71,4.76 -1.08,6.99 0.98,1.33 2.5,2.04 4.04,2.04 z"
         inkscape:connector-curvature="0" />
      <path
         id="path4154"
         d="m 239.26,113.916 c -2.23,-1.62 -5.36,-1.12 -6.98,1.11 -1.62,2.24 -1.13,5.37 1.11,6.99 0.89,0.64 1.91,0.95 2.93,0.95 1.55,0 3.07,-0.72 4.05,-2.06 1.62,-2.24 1.13,-5.37 -1.11,-6.99 z"
         inkscape:connector-curvature="0" />
      <path
         id="path4156"
         d="m 220.32,104.276 c -2.63,-0.85 -5.45,0.59 -6.3,3.22 -0.85,2.63 0.59,5.45 3.22,6.3 0.51,0.16 1.03,0.24 1.54,0.24 2.11,0 4.07,-1.35 4.75,-3.46 0.86,-2.63 -0.58,-5.451 -3.21,-6.3 z"
         inkscape:connector-curvature="0" />
      <path
         id="path4158"
         d="m 139.55,193.456 c 0.51,0 1.03,-0.08 1.55,-0.25 2.62,-0.86 4.06,-3.68 3.2,-6.31 -0.86,-2.62 -3.68,-4.06 -6.3,-3.2 -2.63,0.86 -4.06,3.68 -3.21,6.3 0.69,2.12 2.65,3.46 4.76,3.46 z"
         inkscape:connector-curvature="0" />
      <path
         id="path4160"
         d="m 257.72,144.625 c -2.63,0.86 -4.06,3.68 -3.2,6.31 0.69,2.1 2.65,3.44 4.75,3.44 0.52,0 1.05,-0.08 1.56,-0.25 2.63,-0.86 4.06,-3.69 3.2,-6.31 -0.87,-2.619 -3.69,-4.049 -6.31,-3.19 z"
         inkscape:connector-curvature="0" />
      <path
         id="path4162"
         d="m 254.31,128.906 c -1.63,-2.22 -4.76,-2.71 -6.99,-1.08 -2.23,1.63 -2.71,4.76 -1.08,6.99 0.98,1.34 2.5,2.05 4.04,2.05 1.02,0 2.06,-0.32 2.95,-0.97 2.23,-1.63 2.71,-4.76 1.08,-6.99 z"
         inkscape:connector-curvature="0" />
      <path
         id="path4164"
         d="m 178.43,233.605 c 0.52,0.17 1.04,0.25 1.55,0.25 2.11,0 4.07,-1.34 4.75,-3.46 0.86,-2.62 -0.58,-5.44 -3.2,-6.3 -2.63,-0.85 -5.45,0.58 -6.31,3.21 -0.85,2.621 0.59,5.451 3.21,6.3 z"
         inkscape:connector-curvature="0" />
      <path
         id="path4166"
         d="m 199.43,236.926 c 0.03,0 0.06,0 0.1,0 0.03,0 0.06,0 0.1,0 l 0.01,0 c 2.76,-0.01 4.99,-2.26 4.99,-5.02 -0.01,-2.76 -2.26,-4.99 -5.02,-4.98 -0.04,0 -0.09,0 -0.13,0 -0.02,0 -0.04,0 -0.05,0 -2.76,0 -5,2.24 -5,5 0,2.76 2.24,5 5,5 z"
         inkscape:connector-curvature="0" />
      <path
         id="path4168"
         d="m 219.06,233.796 c 0.52,0 1.04,-0.08 1.56,-0.25 2.63,-0.87 4.05,-3.69 3.19,-6.32 -0.86,-2.62 -3.69,-4.05 -6.31,-3.18 -2.63,0.86 -4.05,3.68 -3.19,6.31 0.69,2.1 2.65,3.44 4.75,3.44 z"
         inkscape:connector-curvature="0" />
      <path
         id="path4170"
         d="m 144.48,208.926 c 0.98,1.34 2.5,2.05 4.04,2.05 1.03,0 2.06,-0.31 2.94,-0.96 2.24,-1.63 2.73,-4.76 1.1,-6.99 -1.63,-2.23 -4.76,-2.72 -6.99,-1.09 -2.23,1.63 -2.72,4.75 -1.09,6.99 z"
         inkscape:connector-curvature="0" />
      <path
         id="path4172"
         d="m 159.5,223.936 c 0.89,0.65 1.92,0.96 2.94,0.96 1.55,0 3.07,-0.72 4.05,-2.06 1.62,-2.23 1.13,-5.36 -1.1,-6.99 l 0,0.01 c -2.23,-1.63 -5.36,-1.14 -6.99,1.09 -1.62,2.24 -1.13,5.36 1.1,6.99 z"
         inkscape:connector-curvature="0" />
      <path
         id="path4174"
         d="m 199.427,196.925 c 15.42,0 27.966,-12.545 27.966,-27.965 0,-15.42 -12.545,-27.965 -27.966,-27.965 -15.42,0 -27.965,12.545 -27.965,27.965 0,15.42 12.545,27.965 27.965,27.965 z m 0,-45.931 c 9.906,0 17.966,8.059 17.966,17.965 0,9.906 -8.06,17.965 -17.966,17.965 -9.906,0 -17.965,-8.059 -17.965,-17.965 0,-9.906 8.059,-17.965 17.965,-17.965 z"
         inkscape:connector-curvature="0" />
      <path
         id="path4176"
         d="m 267.456,353.858 -43.276,0 0,-17.757 C 305.652,324.088 368.387,253.716 368.387,168.96 368.387,75.795 292.592,0 199.427,0 106.262,0 30.467,75.795 30.467,168.959 c 0,84.759 62.738,155.132 144.213,167.142 l 0,17.757 -43.276,0 c -23.094,0 -44.503,13.438 -54.544,34.235 -1.122,2.324 -0.971,5.062 0.401,7.248 1.372,2.186 3.771,3.513 6.353,3.513 l 231.633,0 c 2.581,0 4.98,-1.327 6.353,-3.513 1.372,-2.186 1.523,-4.923 0.401,-7.248 -10.042,-20.797 -31.451,-34.235 -54.545,-34.235 z m 85.841,-189.899 -7.505,0 C 343.202,87.168 281.217,25.184 204.427,22.594 l 0,-7.504 c 80.926,2.596 146.274,67.943 148.87,148.869 z m -153.87,-32.965 c 20.935,0 37.966,17.031 37.966,37.965 0,20.934 -17.031,37.965 -37.966,37.965 -20.934,0 -37.965,-17.031 -37.965,-37.965 0,-20.934 17.031,-37.965 37.965,-37.965 z m -5,-25.982 c -0.064,0.321 -0.098,0.654 -0.097,0.994 0,0.328 0.036,0.647 0.097,0.958 l 0,14.292 c -22.463,2.338 -40.367,20.241 -42.704,42.704 l -88.654,0 C 65.65,92.684 123.151,35.182 194.427,32.601 l 0,72.411 z m -42.704,68.947 c 2.509,24.107 22.944,42.965 47.704,42.965 24.76,0 45.196,-18.858 47.705,-42.965 l 88.654,0 c -2.641,72.936 -62.789,131.459 -136.359,131.459 -73.57,0 -133.717,-58.522 -136.358,-131.459 l 88.654,0 z m 95.408,-10 c -2.338,-22.463 -20.241,-40.367 -42.705,-42.704 l 0,-88.654 c 71.276,2.581 128.777,60.083 131.359,131.359 l -88.654,0 z m -52.704,-148.87 0,7.505 C 117.637,25.184 55.652,87.168 53.062,163.959 l -7.505,0 C 48.153,83.032 113.5,17.685 194.427,15.089 Z m -148.87,158.869 7.505,0 c 2.646,78.451 67.281,141.459 146.365,141.459 79.084,0 143.719,-63.008 146.365,-141.459 l 7.505,0 c -2.649,82.588 -70.65,148.959 -153.87,148.959 -83.22,0 -151.221,-66.371 -153.87,-148.959 z M 189.68,337.63 c 3.227,0.184 6.475,0.288 9.747,0.288 3.274,0 6.525,-0.104 9.753,-0.288 l 0,16.228 -19.5,0 0,-16.228 z m -92.034,46.223 c 8.527,-9.363 20.79,-14.996 33.758,-14.996 l 136.052,0 c 12.968,0 25.231,5.633 33.758,14.996 l -203.568,0 z"
         inkscape:connector-curvature="0" />
    </g>
    <g
       id="g4247"
       transform="matrix(4.1092437,0,0,4.1092437,13.57143,799.65628)">
      <g
         id="g4205">
        <path
           id="path4207"
           d="M 50.976,20.694 C 50.448,11.694 43.029,4.5 34.084,4.5 28.654,4.5 23.396,7.163 20.139,11.508 20.064,11.469 19.985,11.442 19.909,11.406 19.711,11.31 19.51,11.219 19.305,11.137 19.191,11.092 19.077,11.051 18.962,11.011 18.759,10.94 18.553,10.877 18.343,10.82 18.228,10.789 18.114,10.757 17.998,10.731 17.773,10.68 17.543,10.641 17.311,10.606 17.21,10.591 17.111,10.571 17.009,10.56 16.677,10.523 16.341,10.5 16,10.5 c -4.963,0 -9,4.037 -9,9 0,0.129 0.008,0.255 0.017,0.381 C 2.857,22.148 0,26.899 0,31.654 0,38.737 5.762,44.5 12.845,44.5 l 5.155,0 c 0.553,0 1,-0.447 1,-1 0,-0.553 -0.447,-1 -1,-1 l -5.155,0 C 6.865,42.5 2,37.635 2,31.654 2,27.5 4.705,23.188 8.433,21.401 L 9,21.13 9,20.5 C 9,20.38 9.008,20.258 9.015,20.135 L 9.026,19.95 9.013,19.756 C 9.007,19.671 9,19.586 9,19.5 c 0,-3.859 3.141,-7 7,-7 0.309,0 0.614,0.027 0.917,0.067 0.078,0.01 0.156,0.023 0.233,0.036 0.267,0.044 0.53,0.102 0.789,0.177 0.035,0.01 0.071,0.017 0.106,0.027 0.285,0.087 0.563,0.197 0.835,0.321 0.071,0.032 0.14,0.067 0.21,0.101 0.24,0.119 0.475,0.249 0.702,0.396 1.927,1.248 3.208,3.413 3.208,5.875 0,0.553 0.447,1 1,1 0.553,0 1,-0.447 1,-1 0,-2.754 -1.246,-5.219 -3.2,-6.871 2.867,-3.75 7.588,-6.129 12.284,-6.129 7.745,0 14.178,6.135 14.849,13.888 -1.021,-0.072 -2.552,-0.109 -4.083,0.124 -0.546,0.083 -0.921,0.593 -0.838,1.139 0.075,0.495 0.501,0.85 0.987,0.85 0.05,0 0.101,-0.004 0.151,-0.012 2.227,-0.337 4.548,-0.021 4.684,-0.002 C 54.49,23.372 58,27.661 58,32.472 58,38.001 53.501,42.5 47.972,42.5 L 44,42.5 c -0.553,0 -1,0.447 -1,1 0,0.553 0.447,1 1,1 l 3.972,0 C 54.604,44.5 60,39.104 60,32.472 60,26.983 56.173,22.06 50.976,20.694 Z"
           inkscape:connector-curvature="0" />
      </g>
      <g
         id="g4211" />
      <g
         id="g4213" />
      <g
         id="g4215" />
      <g
         id="g4217" />
      <g
         id="g4219" />
      <g
         id="g4221" />
      <g
         id="g4223" />
      <g
         id="g4225" />
      <g
         id="g4227" />
      <g
         id="g4229" />
      <g
         id="g4231" />
      <g
         id="g4233" />
      <g
         id="g4235" />
      <g
         id="g4237" />
      <g
         id="g4239" />
    </g>
  </g>
</svg>
