<?xml version="1.0" encoding="UTF-8" standalone="no"?>
<!-- Created with Inkscape (http://www.inkscape.org/) -->

<svg
   xmlns:dc="http://purl.org/dc/elements/1.1/"
   xmlns:cc="http://creativecommons.org/ns#"
   xmlns:rdf="http://www.w3.org/1999/02/22-rdf-syntax-ns#"
   xmlns:svg="http://www.w3.org/2000/svg"
   xmlns="http://www.w3.org/2000/svg"
   xmlns:sodipodi="http://sodipodi.sourceforge.net/DTD/sodipodi-0.dtd"
   xmlns:inkscape="http://www.inkscape.org/namespaces/inkscape"
   width="500"
   height="500"
   viewBox="0 0 500.00001 500.00001"
   id="svg2"
   version="1.1"
   inkscape:version="0.91 r13725"
   sodipodi:docname="CORS.svg">
  <defs
     id="defs4" />
  <sodipodi:namedview
     id="base"
     pagecolor="#ffffff"
     bordercolor="#666666"
     borderopacity="1.0"
     inkscape:pageopacity="0.0"
     inkscape:pageshadow="2"
     inkscape:zoom="1.979899"
     inkscape:cx="231.31732"
     inkscape:cy="329.39384"
     inkscape:document-units="px"
     inkscape:current-layer="layer1"
     showgrid="false"
     units="px"
     inkscape:window-width="2560"
     inkscape:window-height="1646"
     inkscape:window-x="0"
     inkscape:window-y="25"
     inkscape:window-maximized="1" />
  <metadata
     id="metadata7">
    <rdf:RDF>
      <cc:Work
         rdf:about="">
        <dc:format>image/svg+xml</dc:format>
        <dc:type
           rdf:resource="http://purl.org/dc/dcmitype/StillImage" />
        <dc:title></dc:title>
      </cc:Work>
    </rdf:RDF>
  </metadata>
  <g
     inkscape:label="Layer 1"
     inkscape:groupmode="layer"
     id="layer1"
     transform="translate(0,-552.36216)">
    <g
       id="g4175"
       transform="matrix(6.5172414,0,0,6.5172414,-574.71429,416.93359)"
       style="opacity:0.21799999;fill:#000000;fill-opacity:1">
      <path
         id="path4137"
         d="M 50.688,48.222 C 55.232,43.101 58,36.369 58,29 58,21.333 55.004,14.357 50.128,9.166 c 0,0 0,-0.001 0,-0.001 C 50.124,9.159 50.118,9.157 50.115,9.152 45.036,3.753 37.92,0.297 30.005,0.026 L 30.004,0.025 29.439,0.01 C 29.293,0.005 29.147,0 29,0 28.853,0 28.707,0.005 28.561,0.01 L 27.998,0.025 27.997,0.026 C 20.082,0.297 12.966,3.753 7.887,9.152 7.883,9.157 7.877,9.159 7.874,9.165 c 0,0 0,0.001 -10e-4,0.002 C 2.996,14.357 0,21.333 0,29 c 0,7.369 2.768,14.101 7.312,19.222 0.006,0.009 0.006,0.019 0.013,0.028 0.018,0.025 0.044,0.037 0.063,0.06 5.106,5.708 12.432,9.385 20.608,9.665 l 0.001,10e-4 0.563,0.015 C 28.707,57.995 28.853,58 29,58 c 0.147,0 0.293,-0.005 0.439,-0.01 l 0.563,-0.015 0.001,-0.001 c 8.185,-0.281 15.519,-3.965 20.625,-9.685 0.013,-0.017 0.034,-0.022 0.046,-0.04 0.008,-0.008 0.008,-0.018 0.014,-0.027 z M 2.025,30 14.028,30 c 0.113,4.239 0.941,8.358 2.415,12.217 -2.844,1.029 -5.563,2.409 -8.111,4.131 C 4.585,41.891 2.253,36.21 2.025,30 Z M 8.878,11.023 c 2.488,1.618 5.137,2.914 7.9,3.882 C 15.086,19.012 14.15,23.44 14.028,28 L 2.025,28 C 2.264,21.493 4.812,15.568 8.878,11.023 Z M 55.975,28 43.972,28 c -0.122,-4.56 -1.058,-8.988 -2.75,-13.095 2.763,-0.968 5.412,-2.264 7.9,-3.882 4.066,4.545 6.614,10.47 6.853,16.977 z M 28,14.963 C 25.109,14.881 22.271,14.45 19.529,13.68 21.556,9.522 24.418,5.769 28,2.644 l 0,12.319 z m 0,2 L 28,28 16.028,28 c 0.123,-4.348 1.035,-8.565 2.666,-12.475 3.006,0.871 6.127,1.353 9.306,1.438 z m 2,0 c 3.179,-0.085 6.3,-0.566 9.307,-1.438 1.631,3.91 2.543,8.127 2.666,12.475 L 30,28 30,16.963 Z m 0,-2 0,-12.319 c 3.582,3.125 6.444,6.878 8.471,11.036 -2.742,0.77 -5.58,1.201 -8.471,1.283 z M 40.409,13.072 C 38.488,9.047 35.822,5.38 32.521,2.237 c 5.856,0.766 11.125,3.414 15.183,7.318 -2.304,1.462 -4.748,2.638 -7.295,3.517 z m -22.818,0 C 15.044,12.193 12.6,11.017 10.297,9.555 14.354,5.651 19.624,3.003 25.48,2.237 22.178,5.38 19.512,9.047 17.591,13.072 Z M 16.028,30 28,30 28,40.038 c -3.307,0.088 -6.547,0.604 -9.661,1.541 C 16.932,37.924 16.141,34.019 16.028,30 Z M 28,42.038 28,55.356 C 24.166,52.011 21.16,47.947 19.116,43.439 21.983,42.594 24.961,42.124 28,42.038 Z m 2,13.318 0,-13.318 c 3.039,0.085 6.017,0.556 8.884,1.4 C 36.84,47.947 33.834,52.011 30,55.356 Z M 30,40.038 30,30 41.972,30 C 41.859,34.019 41.068,37.924 39.66,41.58 36.547,40.642 33.307,40.126 30,40.038 Z M 43.972,30 55.975,30 C 55.747,36.21 53.416,41.891 49.668,46.348 47.12,44.626 44.401,43.246 41.557,42.217 43.032,38.358 43.859,34.239 43.972,30 Z M 9.691,47.846 c 2.366,-1.572 4.885,-2.836 7.517,-3.781 1.945,4.36 4.737,8.333 8.271,11.698 C 19.328,54.958 13.823,52.078 9.691,47.846 Z m 22.83,7.917 c 3.534,-3.364 6.326,-7.337 8.271,-11.698 2.632,0.945 5.15,2.209 7.517,3.781 -4.132,4.232 -9.637,7.112 -15.788,7.917 z"
         inkscape:connector-curvature="0"
         style="fill:#000000;fill-opacity:1" />
      <g
         id="g4139"
         style="fill:#000000;fill-opacity:1" />
      <g
         id="g4141"
         style="fill:#000000;fill-opacity:1" />
      <g
         id="g4143"
         style="fill:#000000;fill-opacity:1" />
      <g
         id="g4145"
         style="fill:#000000;fill-opacity:1" />
      <g
         id="g4147"
         style="fill:#000000;fill-opacity:1" />
      <g
         id="g4149"
         style="fill:#000000;fill-opacity:1" />
      <g
         id="g4151"
         style="fill:#000000;fill-opacity:1" />
      <g
         id="g4153"
         style="fill:#000000;fill-opacity:1" />
      <g
         id="g4155"
         style="fill:#000000;fill-opacity:1" />
      <g
         id="g4157"
         style="fill:#000000;fill-opacity:1" />
      <g
         id="g4159"
         style="fill:#000000;fill-opacity:1" />
      <g
         id="g4161"
         style="fill:#000000;fill-opacity:1" />
      <g
         id="g4163"
         style="fill:#000000;fill-opacity:1" />
      <g
         id="g4165"
         style="fill:#000000;fill-opacity:1" />
      <g
         id="g4167"
         style="fill:#000000;fill-opacity:1" />
    </g>
    <g
       id="g4427"
       transform="translate(28.182839,5.7142837)">
      <g
         style="opacity:0.472"
         transform="matrix(0.74342647,0,0,0.74342647,31.499938,606.3307)"
         id="g4373">
        <g
           id="g4323">
          <circle
             style="fill:#2d404e"
             cx="256"
             cy="256"
             r="256"
             id="circle4325" />
          <path
             inkscape:connector-curvature="0"
             style="fill:#48b19b"
             d="m 512,256 c 0,-51.363 -15.124,-99.191 -41.165,-139.275 0,0 -14.604,21.334 -11.86,35.047 2.742,13.715 18.855,14.762 17.2,24.822 -1.655,10.06 -13.541,-2.879 -28.172,23.633 -14.63,26.514 -7.312,63.096 13.714,65.834 C 482.744,268.797 512,256 512,256 Z"
             id="path4327" />
          <path
             inkscape:connector-curvature="0"
             style="fill:#48b19b"
             d="m 323.23,8.92 c 29.797,8.088 57.434,21.424 81.857,38.951 0,0 -29.684,-4.896 -40.929,5.158 -11.244,10.057 -27.643,33.832 -40.929,0 C 309.945,19.199 323.23,8.92 323.23,8.92 Z"
             id="path4329" />
          <path
             inkscape:connector-curvature="0"
             style="fill:#48b19b"
             d="M 63.519,87.219 C 110.437,33.754 179.275,0 256,0 c 0,0 -17.368,10.516 15.546,28.344 32.915,17.83 17.828,26.057 10.971,31.543 C 275.661,65.373 263.768,48.916 256,37.946 248.231,26.973 214.868,10.061 189.266,19.206 c -25.601,9.145 -47.539,15.9 -43.885,24.408 3.653,8.506 47.539,-7.945 63.996,-7.035 16.457,0.912 10.971,10.967 -4.569,22.854 -15.542,11.887 -17.374,26.514 -0.916,35.656 16.456,9.146 36.566,10.061 41.143,4.576 4.574,-5.486 -8.229,-41.143 22.858,-25.602 31.087,15.541 56.688,24.691 31.087,47.545 -25.602,22.852 -54.857,48.461 -55.773,63.084 -0.916,14.625 9.146,26.52 3.66,27.43 -5.486,0.91 -10.521,-5.941 -14.176,-10.973 -3.653,-5.029 -20.571,-6.855 -28.799,-3.658 -8.229,3.197 -23.774,15.541 -15.086,27.428 8.689,11.889 20.565,6.396 32.454,11.883 11.887,5.486 22.972,26.365 20.696,31.084 -2.276,4.717 -12.409,-1.256 -20.696,-17.369 -8.289,-16.115 -23.835,-5.486 -34.773,-8.229 -10.939,-2.742 -19.168,-4.57 -30.14,-23.771 C 145.375,199.318 122.66,193.945 113.378,182.861 86.789,151.111 88.691,127.09 83.206,116.119 77.72,105.145 63.519,87.219 63.519,87.219 Z"
             id="path4331" />
          <path
             inkscape:connector-curvature="0"
             style="fill:#48b19b"
             d="m 280.685,259.658 c 0,0 27.429,2.738 41.143,14.627 13.714,11.887 15.546,16.461 36.573,21.031 21.027,4.568 30.172,16.451 16.457,39.311 -13.714,22.857 -38.404,59.43 -50.287,70.402 -11.882,10.973 -26.512,20.115 -31.998,38.4 -5.485,18.283 -7.317,29.248 4.57,36.568 0,0 -6.396,15.545 -21.026,-4.57 -14.631,-20.117 -2.744,-43.885 0,-57.6 2.742,-13.713 10.055,-54.852 5.484,-64.914 -4.568,-10.059 -25.601,-16.461 -31.087,-37.486 -5.486,-21.026 4.115,-61.944 30.171,-55.769 z"
             id="path4333" />
          <path
             inkscape:connector-curvature="0"
             style="opacity:0.6;fill:#253744;enable-background:new"
             d="m 74.98,74.983 c 99.975,-99.977 262.062,-99.975 362.038,0 99.976,99.973 99.976,262.062 0.001,362.037 0,0 116.148,-153.59 -48.293,-318.031 C 224.284,-45.453 74.98,74.983 74.98,74.983 Z"
             id="path4335" />
        </g>
        <g
           id="g4337" />
        <g
           id="g4339" />
        <g
           id="g4341" />
        <g
           id="g4343" />
        <g
           id="g4345" />
        <g
           id="g4347" />
        <g
           id="g4349" />
        <g
           id="g4351" />
        <g
           id="g4353" />
        <g
           id="g4355" />
        <g
           id="g4357" />
        <g
           id="g4359" />
        <g
           id="g4361" />
        <g
           id="g4363" />
        <g
           id="g4365" />
      </g>
      <g
         transform="matrix(4.6381091,0,0,4.6381091,12.244963,617.65068)"
         id="g4302">
        <g
           id="g4260">
          <path
             inkscape:connector-curvature="0"
             d="M 40,21.314 40,10.22 C 40,4.585 35.065,0 29,0 22.935,0 18,4.585 18,10.22 l 0,11.094 C 12.584,24.896 9,31.034 9,38 9,49.028 17.972,58 29,58 40.028,58 49,49.028 49,38 49,31.034 45.416,24.896 40,21.314 Z M 20,20.157 20,10.22 C 20,5.688 24.037,2 29,2 c 4.963,0 9,3.688 9,8.22 l 0,9.938 C 37.812,20.063 37.62,19.979 37.43,19.89 37.037,19.706 36.638,19.534 36.232,19.375 35.971,19.273 35.709,19.177 35.445,19.086 35.185,18.997 34.927,18.908 34.663,18.83 34.226,18.7 33.784,18.589 33.339,18.489 33.146,18.446 32.952,18.405 32.757,18.367 32.234,18.266 31.708,18.184 31.178,18.125 31.058,18.112 30.938,18.104 30.818,18.093 30.213,18.036 29.608,18 29,18 c -0.608,0 -1.213,0.036 -1.816,0.092 -0.12,0.011 -0.241,0.019 -0.36,0.032 -0.53,0.059 -1.056,0.141 -1.579,0.242 -0.195,0.037 -0.389,0.079 -0.582,0.122 -0.445,0.1 -0.887,0.211 -1.324,0.341 -0.264,0.078 -0.523,0.168 -0.782,0.256 -0.264,0.091 -0.527,0.187 -0.787,0.289 -0.407,0.158 -0.805,0.331 -1.198,0.515 C 20.38,19.978 20.188,20.062 20,20.157 Z M 29,56 c -9.925,0 -18,-8.075 -18,-18 0,-6.537 3.515,-12.255 8.743,-15.408 0.92,-0.554 1.882,-1.021 2.873,-1.401 0.176,-0.067 0.353,-0.133 0.531,-0.195 0.273,-0.095 0.547,-0.186 0.824,-0.268 0.34,-0.099 0.685,-0.187 1.033,-0.266 0.254,-0.058 0.509,-0.109 0.765,-0.156 0.369,-0.067 0.741,-0.127 1.118,-0.171 0.17,-0.021 0.341,-0.039 0.512,-0.054 C 27.928,20.034 28.46,20 29,20 c 0.54,0 1.072,0.034 1.601,0.081 0.171,0.016 0.341,0.034 0.512,0.054 0.377,0.044 0.749,0.104 1.118,0.171 0.256,0.047 0.511,0.098 0.765,0.156 0.348,0.079 0.693,0.167 1.033,0.266 0.277,0.081 0.551,0.173 0.824,0.268 0.179,0.062 0.355,0.128 0.531,0.195 0.991,0.38 1.953,0.847 2.873,1.401 C 43.485,25.745 47,31.463 47,38 47,47.925 38.925,56 29,56 Z"
             id="path4262" />
          <path
             inkscape:connector-curvature="0"
             d="m 41,37 -3.059,0 c -0.193,-1.733 -0.88,-3.316 -1.916,-4.611 l 2.167,-2.167 c 0.391,-0.391 0.391,-1.023 0,-1.414 -0.391,-0.391 -1.023,-0.391 -1.414,0 l -2.167,2.167 C 33.316,29.939 31.733,29.252 30,29.059 L 30,26 c 0,-0.553 -0.447,-1 -1,-1 -0.553,0 -1,0.447 -1,1 l 0,3.059 c -1.733,0.193 -3.316,0.88 -4.611,1.916 l -2.167,-2.167 c -0.391,-0.391 -1.023,-0.391 -1.414,0 -0.391,0.391 -0.391,1.023 0,1.414 l 2.167,2.167 C 20.939,33.684 20.252,35.267 20.059,37 L 17,37 c -0.553,0 -1,0.447 -1,1 0,0.553 0.447,1 1,1 l 3.059,0 c 0.193,1.733 0.88,3.316 1.916,4.611 l -2.167,2.167 c -0.391,0.391 -0.391,1.023 0,1.414 0.195,0.195 0.451,0.293 0.707,0.293 0.256,0 0.512,-0.098 0.707,-0.293 l 2.167,-2.167 c 1.295,1.036 2.878,1.723 4.611,1.916 L 28,50 c 0,0.553 0.447,1 1,1 0.553,0 1,-0.447 1,-1 l 0,-3.059 c 1.733,-0.193 3.316,-0.88 4.611,-1.916 l 2.167,2.167 c 0.195,0.195 0.451,0.293 0.707,0.293 0.256,0 0.512,-0.098 0.707,-0.293 0.391,-0.391 0.391,-1.023 0,-1.414 L 36.025,43.611 C 37.061,42.316 37.748,40.733 37.941,39 L 41,39 c 0.553,0 1,-0.447 1,-1 0,-0.553 -0.447,-1 -1,-1 z m -12,8 c -3.859,0 -7,-3.141 -7,-7 0,-3.859 3.141,-7 7,-7 3.859,0 7,3.141 7,7 0,3.859 -3.141,7 -7,7 z"
             id="path4264" />
        </g>
        <g
           id="g4266" />
        <g
           id="g4268" />
        <g
           id="g4270" />
        <g
           id="g4272" />
        <g
           id="g4274" />
        <g
           id="g4276" />
        <g
           id="g4278" />
        <g
           id="g4280" />
        <g
           id="g4282" />
        <g
           id="g4284" />
        <g
           id="g4286" />
        <g
           id="g4288" />
        <g
           id="g4290" />
        <g
           id="g4292" />
        <g
           id="g4294" />
      </g>
      <g
         transform="translate(-8,0)"
         id="g4403">
        <g
           id="g4238"
           transform="matrix(3.3277431,0,0,3.3277431,249.81152,713.81518)">
          <g
             id="g4194">
            <path
               sodipodi:nodetypes="scccccsssssssss"
               id="path4196"
               d="m 27,13.85 9,0 0,8.964 L 49.7,12.85 36,2.886 l 0,8.964 -9,0 c -7.168,0 -13,5.832 -13,13 0,6.065 -4.935,11 -11,11 l -2,0 c -0.553,0 -1,0.447 -1,1 0,0.553 0.447,1 1,1 l 2,0 c 7.168,0 13,-5.832 13,-13 0,-6.065 4.935,-11 11,-11 z"
               inkscape:connector-curvature="0" />
            <path
               id="path4198"
               d="m 1,13.85 2,0 c 2.713,0 5.318,0.994 7.336,2.799 0.191,0.171 0.43,0.255 0.667,0.255 0.274,0 0.548,-0.112 0.745,-0.333 0.368,-0.412 0.333,-1.044 -0.078,-1.412 C 9.285,13.025 6.206,11.85 3,11.85 l -2,0 c -0.553,0 -1,0.447 -1,1 0,0.553 0.447,1 1,1 z"
               inkscape:connector-curvature="0" />
            <path
               sodipodi:nodetypes="cscccsccccc"
               id="path4200"
               d="m 36,35.85 -9,0 c -2.685,0 -5.27,-0.976 -7.278,-2.748 -0.411,-0.365 -1.044,-0.327 -1.411,0.089 -0.365,0.414 -0.326,1.046 0.089,1.411 2.374,2.095 5.429,3.248 8.601,3.248 l 9,0 0,8.964 13.7,-9.964 L 36,26.886 Z"
               inkscape:connector-curvature="0" />
          </g>
          <g
             id="g4202" />
          <g
             id="g4204" />
          <g
             id="g4206" />
          <g
             id="g4208" />
          <g
             id="g4210" />
          <g
             id="g4212" />
          <g
             id="g4214" />
          <g
             id="g4216" />
          <g
             id="g4218" />
          <g
             id="g4220" />
          <g
             id="g4222" />
          <g
             id="g4224" />
          <g
             id="g4226" />
          <g
             id="g4228" />
          <g
             id="g4230" />
        </g>
      </g>
    </g>
  </g>
</svg>
