<?xml version="1.0" encoding="UTF-8" standalone="no"?>
<!-- Created with Inkscape (http://www.inkscape.org/) -->

<svg
   xmlns:dc="http://purl.org/dc/elements/1.1/"
   xmlns:cc="http://creativecommons.org/ns#"
   xmlns:rdf="http://www.w3.org/1999/02/22-rdf-syntax-ns#"
   xmlns:svg="http://www.w3.org/2000/svg"
   xmlns="http://www.w3.org/2000/svg"
   xmlns:sodipodi="http://sodipodi.sourceforge.net/DTD/sodipodi-0.dtd"
   xmlns:inkscape="http://www.inkscape.org/namespaces/inkscape"
   width="275"
   height="275"
   viewBox="0 0 275 275"
   id="svg2"
   version="1.1"
   inkscape:version="0.91 r13725"
   sodipodi:docname="run_at_startup.svg"
   inkscape:export-filename="/home/evrev/Graphic_Design/Blog Icons/run_at_startup.png"
   inkscape:export-xdpi="150"
   inkscape:export-ydpi="150">
  <defs
     id="defs4" />
  <sodipodi:namedview
     id="base"
     pagecolor="#ffffff"
     bordercolor="#666666"
     borderopacity="1.0"
     inkscape:pageopacity="0.0"
     inkscape:pageshadow="2"
     inkscape:zoom="1.979899"
     inkscape:cx="165.77227"
     inkscape:cy="72.708465"
     inkscape:document-units="px"
     inkscape:current-layer="layer1"
     showgrid="false"
     units="px"
     inkscape:window-width="2560"
     inkscape:window-height="1646"
     inkscape:window-x="0"
     inkscape:window-y="25"
     inkscape:window-maximized="1" />
  <metadata
     id="metadata7">
    <rdf:RDF>
      <cc:Work
         rdf:about="">
        <dc:format>image/svg+xml</dc:format>
        <dc:type
           rdf:resource="http://purl.org/dc/dcmitype/StillImage" />
        <dc:title />
      </cc:Work>
    </rdf:RDF>
  </metadata>
  <g
     inkscape:label="Layer 1"
     inkscape:groupmode="layer"
     id="layer1"
     transform="translate(0,-777.36216)">
    <g
       id="g4662"
       transform="translate(-16.141354,587.91689)" />
    <g
       id="g4664"
       transform="translate(-16.141354,587.91689)" />
    <g
       id="g4666"
       transform="translate(-16.141354,587.91689)" />
    <g
       id="g4668"
       transform="translate(-16.141354,587.91689)" />
    <g
       id="g4670"
       transform="translate(-16.141354,587.91689)" />
    <g
       id="g4672"
       transform="translate(-16.141354,587.91689)" />
    <g
       id="g4674"
       transform="translate(-16.141354,587.91689)" />
    <g
       id="g4676"
       transform="translate(-16.141354,587.91689)" />
    <g
       id="g4678"
       transform="translate(-16.141354,587.91689)" />
    <g
       id="g4680"
       transform="translate(-16.141354,587.91689)" />
    <g
       id="g4682"
       transform="translate(-16.141354,587.91689)" />
    <g
       id="g4684"
       transform="translate(-16.141354,587.91689)" />
    <g
       id="g4686"
       transform="translate(-16.141354,587.91689)" />
    <g
       id="g4688"
       transform="translate(-16.141354,587.91689)" />
    <g
       id="g4690"
       transform="translate(-16.141354,587.91689)" />
    <rect
       style="opacity:1;fill:#2980b9;fill-opacity:1;stroke:none;stroke-width:1;stroke-linecap:round;stroke-linejoin:round;stroke-miterlimit:4;stroke-dasharray:none;stroke-opacity:1"
       id="rect7810"
       width="281.32748"
       height="280.06479"
       x="-0.50507629"
       y="775.83289" />
    <g
       id="g8004"
       transform="translate(-6.2553841,-0.56557491)">
      <g
         id="g7773"
         transform="matrix(0.21992344,0,0,0.21992344,84.925418,758.30996)">
        <g
           id="g4644">
          <g
             id="g4646">
            <path
               inkscape:connector-curvature="0"
               d="m 218.998,371.999 c -5.52,0 -10,4.48 -10,10 0,5.52 4.48,10 10,10 5.52,0 10,-4.48 10,-10 0,-5.52 -4.48,-10 -10,-10 z"
               id="path4648" />
          </g>
        </g>
        <g
           id="g4650">
          <g
             id="g4652">
            <path
               inkscape:connector-curvature="0"
               d="m 479.643,401.745 c -17.859,-10.139 -39.605,-13.409 -58.791,-16.294 -6.404,-0.963 -12.455,-1.873 -17.667,-2.958 -2.888,-0.687 -9.779,-3.216 -25.342,-12.115 l 0.895,-1.193 c 3.313,-4.419 2.415,-10.687 -2.004,-14 -4.421,-3.311 -10.687,-2.414 -14,2.004 l -2.138,2.85 c -6.801,-4.226 -14.199,-8.967 -22.125,-14.177 l 3.396,-4.528 c 3.313,-4.419 2.415,-10.688 -2.005,-14 -4.421,-3.312 -10.688,-2.414 -13.999,2.005 l -4.054,5.405 c -7.08,-4.789 -14.476,-9.868 -22.121,-15.19 l 2.347,-3.128 c 3.313,-4.418 2.418,-10.687 -2,-14 -4.419,-3.314 -10.687,-2.418 -14,2 l -2.715,3.619 c -35.416,-25.169 -41.575,-33.307 -52.289,-38.006 -11.234,-4.925 -19.141,-0.41 -23.797,4.246 l -17.379,17.38 c -4.169,4.168 -10.202,13.143 -3.767,26.409 2.456,5.063 6.271,9.842 10.314,14.463 l -2.55,1.082 c -14.727,6.244 -30.758,9.003 -47.651,8.208 C 90.805,339.248 45.508,301.016 43.607,299.39 c -2.369,-2.026 -5.551,-2.833 -8.595,-2.179 -3.048,0.653 -5.618,2.69 -6.948,5.509 l -0.918,1.968 c -1.507,3.227 -2.996,6.585 -4.426,9.981 C 3.895,359.398 -4.087,409.885 2.028,461.435 2.018,461.622 2,461.808 2,461.998 l 0,20 c 0,16.822 12.989,30 29.57,30 l 430.426,0 c 13.35,0 25.904,-5.203 35.352,-14.649 9.378,-9.379 14.565,-21.831 14.632,-35.089 0,-0.022 0.004,-0.043 0.004,-0.064 0.001,-0.055 0,-0.108 0.001,-0.163 0,-0.011 10e-4,-0.023 10e-4,-0.034 0,-0.004 0,-0.007 0,-0.011 0.485,-27.514 -10.394,-47.783 -32.343,-60.243 z M 41.037,322.714 c 18.591,13.36 48.383,29.742 81.724,36.31 l -13.051,11.712 c -0.134,0.12 -0.265,0.244 -0.392,0.371 -11.059,11.058 -31.003,14.078 -45.407,6.877 -7.819,-3.91 -16.514,-5.986 -25.373,-5.986 l -12.822,0 c 3.515,-16.859 8.651,-33.387 15.321,-49.284 z m 442.167,160.493 c -5.669,5.669 -13.201,8.791 -21.209,8.791 l -430.425,0 c -5.366,0 -9.57,-4.393 -9.57,-10 L 22,472 c 66.566,0.015 400.645,0.084 468.279,0.019 -1.47,4.162 -3.863,7.976 -7.075,11.188 z m -189.207,-31.21 21.561,-28.75 c 3.313,-4.418 2.418,-10.686 -2,-14 -4.42,-3.313 -10.688,-2.417 -14,2.001 l -30.561,40.75 -35,0 35.61,-47.48 c 3.313,-4.418 2.418,-10.686 -2,-14 -4.419,-3.314 -10.687,-2.418 -14,2 l -44.609,59.479 -30,0 29.19,-38.92 c 3.314,-4.418 2.418,-10.687 -2,-14 -4.418,-3.314 -10.687,-2.418 -14,2 l -38.19,50.919 -132.865,0 c -1.838,-19.984 -1.44,-40.096 1.181,-59.999 l 16.226,0 c 5.943,0 11.56,1.44 16.428,3.875 8.063,4.031 17.126,5.971 26.213,5.971 15.604,0 31.282,-5.721 42.078,-16.393 l 26.2,-23.513 c 18.385,0.321 35.926,-3.003 52.206,-9.905 l 15.32,-6.5 c 2.913,-1.236 5.069,-3.777 5.813,-6.852 0.744,-3.075 -0.01,-6.321 -2.035,-8.753 -1.883,-2.261 -3.912,-4.521 -5.875,-6.706 -4.353,-4.846 -8.853,-9.857 -10.802,-13.875 -1.184,-2.441 -0.907,-2.717 -0.086,-3.539 l 17.38,-17.38 c 0.234,-0.234 0.415,-0.387 0.54,-0.483 5.022,0.987 16.583,12.772 49.4,36.106 l -9.95,13.265 c -3.314,4.418 -2.42,10.686 1.998,14 4.421,3.315 10.689,2.417 14,-1.999 l 10.316,-13.753 c 7.634,5.317 15.031,10.403 22.116,15.201 l -9.359,12.481 c -3.314,4.417 -2.42,10.686 1.998,14 4.415,3.313 10.686,2.421 14,-1.998 l 10.015,-13.355 c 7.877,5.188 15.27,9.943 22.1,14.207 l -7.422,9.896 c -3.315,4.417 -2.422,10.686 1.996,14 4.422,3.317 10.69,2.417 14,-1.997 l 8.63,-11.505 c 20.039,11.619 28.399,14.438 33.021,15.506 0.068,0.016 0.137,0.031 0.206,0.045 5.793,1.211 12.158,2.168 18.897,3.182 40.265,6.055 69.688,13.218 73.666,46.77 l -197.551,0 z"
               id="path4654" />
          </g>
        </g>
      </g>
      <g
         id="g7765"
         transform="matrix(0.21992344,0,0,0.21992344,87.626419,959.94511)">
        <g
           id="g4638">
          <g
             id="g4640">
            <path
               inkscape:connector-curvature="0"
               d="m 292.997,120.002 c -5.52,0 -10,4.48 -10,10 0,5.52 4.48,10 10,10 5.52,0 10,-4.48 10,-10 0,-5.52 -4.48,-10 -10,-10 z"
               id="path4642" />
          </g>
        </g>
        <g
           id="g4656">
          <g
             id="g4658">
            <path
               inkscape:connector-curvature="0"
               d="m 509.97,50.568 c 0.01,-0.188 0.028,-0.373 0.028,-0.563 l 0,-20.003 -0.003,0 c 0,-16.822 -12.989,-30 -29.57,-30 L 50,0.002 C 36.65,0.002 24.095,5.205 14.649,14.651 5.203,24.097 0,36.652 0,50.002 c 0,0.127 0.014,0.25 0.019,0.376 -0.408,27.322 10.824,47.472 33.399,59.889 18.33,10.082 40.519,13.345 60.094,16.225 6.666,0.98 12.966,1.907 18.292,3.015 2.727,0.651 9.112,2.991 23.154,11.041 l -1.7,2.266 c -3.313,4.419 -2.417,10.687 2.002,14 4.42,3.314 10.688,2.415 14,-2.002 l 2.9,-3.866 c 6.709,4.224 14.069,9.021 22.003,14.339 l -4.032,5.377 c -3.315,4.417 -2.421,10.686 1.997,14 4.418,3.315 10.687,2.42 14,-1.997 l 4.584,-6.112 c 8.068,5.576 15.6,10.893 21.948,15.421 l -2.699,3.598 c -3.314,4.417 -2.42,10.686 1.998,14 4.417,3.315 10.686,2.419 14,-1.998 l 2.921,-3.894 c 32.609,23.822 41.838,33.793 52.091,38.287 9.007,3.946 17.203,2.334 23.79,-4.252 l 17.38,-17.38 c 4.169,-4.168 10.201,-13.143 3.766,-26.41 -2.456,-5.063 -6.271,-9.842 -10.313,-14.463 l 2.553,-1.083 c 15.188,-6.444 31.698,-9.173 49.078,-8.114 42.665,2.583 82.771,27.835 99.744,42.349 4.913,4.202 12.819,2.664 15.644,-3.551 0.889,-1.571 0.083,-0.902 2.806,-4.99 8.613,-12.938 33.615,-77.077 24.551,-153.505 z M 28.792,28.793 C 34.46,23.124 41.992,20.002 50,20.002 l 430.426,0 c 5.366,0 9.57,4.393 9.57,10 l 0,10 c -6.414,0 -440.055,0 -468.293,0 1.47,-4.168 3.868,-7.989 7.089,-11.209 z m 442.046,160.779 c -0.065,0.154 -0.148,0.325 -0.246,0.51 -14.741,-10.773 -44.775,-29.784 -81.457,-37.078 l 12.109,-12.109 c 11.067,-11.06 31.014,-14.083 45.421,-6.874 7.619,3.798 16.275,5.98 25.361,5.98 l 14.253,0 c -3.537,16.961 -8.713,33.588 -15.441,49.571 z m 18.843,-69.57 -17.656,0 c -5.918,0 -11.531,-1.433 -16.427,-3.874 -21.983,-10.999 -51.429,-6.432 -68.494,10.623 l -23.35,23.35 c -18.786,-0.52 -36.741,2.786 -53.423,9.865 l -15.319,6.5 c -2.913,1.236 -5.069,3.777 -5.813,6.853 -0.745,3.075 0.01,6.321 2.034,8.752 1.883,2.261 3.912,4.521 5.875,6.705 4.353,4.846 8.854,9.857 10.803,13.876 1.184,2.441 0.907,2.717 0.086,3.539 l -17.38,17.38 c -0.235,0.236 -0.417,0.39 -0.543,0.486 -4.849,-0.956 -24.229,-18.132 -49.195,-36.378 l 9.749,-12.997 c 3.313,-4.418 2.418,-10.686 -2,-14 -4.418,-3.313 -10.687,-2.418 -14,2 l -9.966,13.286 c -6.33,-4.518 -13.861,-9.837 -21.944,-15.429 l 8.841,-11.789 c 3.313,-4.419 2.416,-10.687 -2.003,-14 -4.419,-3.312 -10.687,-2.415 -14,2.003 l -9.379,12.507 c -7.881,-5.292 -15.235,-10.101 -21.978,-14.368 l 6.668,-8.89 c 3.314,-4.417 2.42,-10.686 -1.998,-14 -4.417,-3.313 -10.686,-2.42 -14,1.998 l -7.824,10.431 c -18.437,-10.736 -26.369,-13.4 -30.819,-14.431 -0.07,-0.017 -0.141,-0.032 -0.212,-0.047 -5.939,-1.241 -12.571,-2.217 -19.593,-3.25 C 78.517,104.07 58.224,101.085 43.055,92.741 29.71,85.401 22.395,74.891 20.501,60.086 46.169,60.057 118.01,60.033 217.985,60.023 l -21.549,28.728 c -3.314,4.418 -2.419,10.687 1.999,14 4.419,3.315 10.687,2.418 14,-1.999 l 30.553,-40.733 c 11.667,-0.005 23.366,-0.007 34.998,-0.007 l -35.601,47.47 c -3.314,4.418 -2.418,10.687 2,14 4.419,3.315 10.688,2.417 14,-2 l 44.6,-59.469 c 10.141,0 20.166,0 30.004,-0.003 l -29.183,38.913 c -3.313,4.418 -2.418,10.686 2,14 4.417,3.313 10.685,2.419 14,-2 l 38.19,-50.919 132.866,0 c 1.838,19.982 1.44,40.095 -1.181,59.998 z"
               id="path4660" />
          </g>
        </g>
      </g>
      <g
         transform="matrix(0.23486483,0,0,0.23486483,83.630105,854.58934)"
         id="g4973">
        <g
           id="g4833">
          <g
             id="g4835">
            <rect
               x="48"
               y="107.984"
               style="fill:#ffffff"
               width="416"
               height="256"
               id="rect4837" />
          </g>
          <g
             id="g4839">
            <rect
               x="48"
               y="107.984"
               style="fill:#ff4f19"
               width="416"
               height="64"
               id="rect4841" />
          </g>
          <g
             id="g4843">
            <path
               inkscape:connector-curvature="0"
               style="fill:#5c546a"
               d="m 459.133,75.984 -406.281,0 C 32.531,75.984 16,92.477 16,112.75 l 0,291.234 c 0,4.422 3.578,8 8,8 l 464,0 c 4.422,0 8,-3.578 8,-8 L 496,112.75 C 496,92.477 479.461,75.984 459.133,75.984 Z m -411.133,280 0,-240 c 0,-4.418 3.582,-8 8,-8 l 400,0 c 4.418,0 8,3.582 8,8 l 0,240 c 0,4.418 -3.582,8 -8,8 l -400,0 c -4.418,0 -8,-3.582 -8,-8 z"
               id="path4845" />
          </g>
          <g
             id="g4847">
            <path
               inkscape:connector-curvature="0"
               style="fill:#b9bbc1"
               d="m 504,395.984 -496,0 c -4.422,0 -8,3.578 -8,8 l 0,0 c 0,17.664 14.367,32.031 32.031,32.031 l 447.937,0 c 17.664,0 32.031,-14.367 32.031,-32.031 l 0,0 c 10e-4,-4.422 -3.577,-8 -7.999,-8 z"
               id="path4849" />
          </g>
          <g
             id="g4851">
            <g
               id="g4853">
              <path
                 inkscape:connector-curvature="0"
                 style="fill:#ffd200"
                 d="m 144,147.984 -56,0 c -4.422,0 -8,-3.578 -8,-8 0,-4.422 3.578,-8 8,-8 l 56,0 c 4.422,0 8,3.578 8,8 0,4.422 -3.578,8 -8,8 z"
                 id="path4855" />
            </g>
          </g>
          <g
             id="g4857">
            <g
               id="g4859">
              <path
                 inkscape:connector-curvature="0"
                 style="fill:#ffffff"
                 d="m 288,147.984 -8,0 c -4.422,0 -8,-3.578 -8,-8 0,-4.422 3.578,-8 8,-8 l 8,0 c 4.422,0 8,3.578 8,8 0,4.422 -3.578,8 -8,8 z"
                 id="path4861" />
            </g>
          </g>
          <g
             id="g4863">
            <g
               id="g4865">
              <path
                 inkscape:connector-curvature="0"
                 style="fill:#ffffff"
                 d="m 328,147.984 -8,0 c -4.422,0 -8,-3.578 -8,-8 0,-4.422 3.578,-8 8,-8 l 8,0 c 4.422,0 8,3.578 8,8 0,4.422 -3.578,8 -8,8 z"
                 id="path4867" />
            </g>
          </g>
          <g
             id="g4869">
            <g
               id="g4871">
              <path
                 inkscape:connector-curvature="0"
                 style="fill:#ffffff"
                 d="m 368,147.984 -8,0 c -4.422,0 -8,-3.578 -8,-8 0,-4.422 3.578,-8 8,-8 l 8,0 c 4.422,0 8,3.578 8,8 0,4.422 -3.578,8 -8,8 z"
                 id="path4873" />
            </g>
          </g>
          <g
             id="g4875">
            <g
               id="g4877">
              <path
                 inkscape:connector-curvature="0"
                 style="fill:#ffffff"
                 d="m 408,147.984 -8,0 c -4.422,0 -8,-3.578 -8,-8 0,-4.422 3.578,-8 8,-8 l 8,0 c 4.422,0 8,3.578 8,8 0,4.422 -3.578,8 -8,8 z"
                 id="path4879" />
            </g>
          </g>
          <g
             id="g4881">
            <path
               inkscape:connector-curvature="0"
               style="fill:#53dcff"
               d="m 224,339.984 -136,0 c -4.418,0 -8,-3.582 -8,-8 l 0,-128 c 0,-4.418 3.582,-8 8,-8 l 136,0 c 4.418,0 8,3.582 8,8 l 0,128 c 0,4.418 -3.582,8 -8,8 z"
               id="path4883" />
          </g>
          <g
             id="g4885">
            <g
               id="g4887">
              <path
                 inkscape:connector-curvature="0"
                 style="fill:#ff4f19"
                 d="m 416,211.984 -152,0 c -4.422,0 -8,-3.578 -8,-8 0,-4.422 3.578,-8 8,-8 l 152,0 c 4.422,0 8,3.578 8,8 0,4.422 -3.578,8 -8,8 z"
                 id="path4889" />
            </g>
          </g>
          <g
             id="g4891">
            <g
               id="g4893">
              <path
                 inkscape:connector-curvature="0"
                 style="fill:#b9bbc1"
                 d="m 328,275.984 -64,0 c -4.422,0 -8,-3.578 -8,-8 0,-4.422 3.578,-8 8,-8 l 64,0 c 4.422,0 8,3.578 8,8 0,4.422 -3.578,8 -8,8 z"
                 id="path4895" />
            </g>
          </g>
          <g
             id="g4897">
            <g
               id="g4899">
              <path
                 inkscape:connector-curvature="0"
                 style="fill:#b9bbc1"
                 d="m 328,307.984 -64,0 c -4.422,0 -8,-3.578 -8,-8 0,-4.422 3.578,-8 8,-8 l 64,0 c 4.422,0 8,3.578 8,8 0,4.422 -3.578,8 -8,8 z"
                 id="path4901" />
            </g>
          </g>
          <g
             id="g4903">
            <g
               id="g4905">
              <path
                 inkscape:connector-curvature="0"
                 style="fill:#b9bbc1"
                 d="m 328,339.984 -64,0 c -4.422,0 -8,-3.578 -8,-8 0,-4.422 3.578,-8 8,-8 l 64,0 c 4.422,0 8,3.578 8,8 0,4.422 -3.578,8 -8,8 z"
                 id="path4907" />
            </g>
          </g>
          <g
             id="g4909">
            <g
               id="g4911">
              <path
                 inkscape:connector-curvature="0"
                 style="fill:#b9bbc1"
                 d="m 424,275.984 -64,0 c -4.422,0 -8,-3.578 -8,-8 0,-4.422 3.578,-8 8,-8 l 64,0 c 4.422,0 8,3.578 8,8 0,4.422 -3.578,8 -8,8 z"
                 id="path4913" />
            </g>
          </g>
          <g
             id="g4915">
            <g
               id="g4917">
              <path
                 inkscape:connector-curvature="0"
                 style="fill:#b9bbc1"
                 d="m 424,307.984 -64,0 c -4.422,0 -8,-3.578 -8,-8 0,-4.422 3.578,-8 8,-8 l 64,0 c 4.422,0 8,3.578 8,8 0,4.422 -3.578,8 -8,8 z"
                 id="path4919" />
            </g>
          </g>
          <g
             id="g4921">
            <g
               id="g4923">
              <path
                 inkscape:connector-curvature="0"
                 style="fill:#b9bbc1"
                 d="m 424,339.984 -64,0 c -4.422,0 -8,-3.578 -8,-8 0,-4.422 3.578,-8 8,-8 l 64,0 c 4.422,0 8,3.578 8,8 0,4.422 -3.578,8 -8,8 z"
                 id="path4925" />
            </g>
          </g>
          <g
             id="g4927">
            <g
               id="g4929">
              <path
                 inkscape:connector-curvature="0"
                 style="fill:#e9001e"
                 d="m 368,243.984 -104,0 c -4.422,0 -8,-3.578 -8,-8 0,-4.422 3.578,-8 8,-8 l 104,0 c 4.422,0 8,3.578 8,8 0,4.422 -3.578,8 -8,8 z"
                 id="path4931" />
            </g>
          </g>
          <g
             id="g4933">
            <path
               inkscape:connector-curvature="0"
               style="fill:#8b8996"
               d="m 224,411.984 64,0 c 8.836,0 16,-7.164 16,-16 l -96,0 c 0,8.837 7.163,16 16,16 z"
               id="path4935" />
          </g>
        </g>
        <g
           id="g4937" />
        <g
           id="g4939" />
        <g
           id="g4941" />
        <g
           id="g4943" />
        <g
           id="g4945" />
        <g
           id="g4947" />
        <g
           id="g4949" />
        <g
           id="g4951" />
        <g
           id="g4953" />
        <g
           id="g4955" />
        <g
           id="g4957" />
        <g
           id="g4959" />
        <g
           id="g4961" />
        <g
           id="g4963" />
        <g
           id="g4965" />
      </g>
      <path
         inkscape:connector-curvature="0"
         id="path7812"
         d="m 91.407202,866.43507 c -0.709446,-0.16706 -1.263817,-0.69931 -1.496911,-1.43718 -0.108763,-0.3443 -0.126751,-0.57502 -0.126751,-1.62572 l 0,-1.22447 51.4589,0 51.4589,0 -0.044,0.14205 c -0.0242,0.0781 -0.12891,0.31252 -0.2326,0.52086 -0.99749,2.00409 -2.91703,3.35377 -5.15977,3.62797 -0.67958,0.0831 -95.504713,0.0796 -95.857718,-0.004 z"
         style="opacity:1;fill:#bdc3c7;fill-opacity:1;stroke:none;stroke-width:1;stroke-linecap:round;stroke-linejoin:round;stroke-miterlimit:4;stroke-dasharray:none;stroke-opacity:1" />
      <path
         inkscape:connector-curvature="0"
         id="path7814"
         d="m 92.503125,968.54517 c 0.304006,-0.81441 0.86085,-1.63145 1.581566,-2.32059 0.867293,-0.8293 1.763775,-1.33662 2.927753,-1.65682 l 0.631345,-0.17368 48.076951,0 48.07695,0 0.29519,0.13642 c 0.41659,0.19253 0.81869,0.58621 1.03492,1.01323 l 0.18511,0.36558 0.0201,1.40474 0.0201,1.40474 -51.45742,0 -51.457424,0 0.06481,-0.17362 z"
         style="opacity:1;fill:#bdc3c7;fill-opacity:1;stroke:none;stroke-width:1;stroke-linecap:round;stroke-linejoin:round;stroke-miterlimit:4;stroke-dasharray:none;stroke-opacity:1" />
      <path
         inkscape:connector-curvature="0"
         id="path7816"
         d="m 89.570686,857.33369 c -0.20075,-1.75109 -0.263324,-6.59225 -0.112817,-8.72835 0.08052,-1.14286 0.295742,-3.38927 0.368005,-3.84117 l 0.03882,-0.24276 2.279618,0.0289 c 2.882509,0.0365 3.231692,0.099 4.931269,0.88233 1.356595,0.62524 2.674533,1.00753 4.070519,1.18073 0.89232,0.1107 2.69857,0.0824 3.6475,-0.0573 2.36663,-0.34819 4.63455,-1.29384 6.30582,-2.62933 0.21273,-0.16999 1.81793,-1.59667 3.5671,-3.1704 3.08045,-2.77148 3.18726,-2.86047 3.40129,-2.8339 0.35932,0.0446 2.66648,-0.069 3.62602,-0.17861 2.61561,-0.2987 5.04307,-0.94345 7.69778,-2.04458 3.33218,-1.38212 3.51175,-1.46538 3.87345,-1.79596 0.53099,-0.48529 0.72242,-0.93925 0.71999,-1.70743 -0.002,-0.72071 -0.22197,-1.07493 -1.68714,-2.72032 -0.68025,-0.76393 -1.42255,-1.62527 -1.64955,-1.91409 -0.52523,-0.66827 -0.96379,-1.43429 -0.96379,-1.68342 0,-0.16692 0.25737,-0.44858 2.01916,-2.20973 l 2.01916,-2.01842 0.20027,0.0756 c 0.48901,0.18458 1.13946,0.65392 3.91586,2.82557 1.66393,1.3015 4.92728,3.75469 6.00489,4.51412 0.36954,0.26043 0.6731,0.49453 0.67458,0.52022 10e-4,0.0257 -0.52403,0.75016 -1.1678,1.60993 -1.01994,1.36216 -1.18747,1.61893 -1.30252,1.99635 -0.33132,1.08686 0.26187,2.29429 1.32386,2.69469 0.48656,0.18345 1.29528,0.15391 1.71736,-0.0627 0.52416,-0.26903 0.63656,-0.39127 1.8717,-2.03565 l 1.23045,-1.63813 0.15789,0.10345 c 0.0868,0.0569 0.81649,0.55875 1.62144,1.11521 0.80495,0.55647 1.81058,1.24349 2.23474,1.52672 0.42417,0.28323 0.7722,0.53614 0.7734,0.56202 0.001,0.0259 -0.47129,0.67932 -1.05,1.45209 -1.25558,1.67661 -1.37492,1.9027 -1.37492,2.6046 0,0.41872 0.0299,0.56984 0.17496,0.88388 0.22839,0.49447 0.65674,0.92464 1.14034,1.1452 0.55047,0.25105 1.2345,0.25175 1.77473,0.002 0.20835,-0.0964 0.4746,-0.26606 0.59169,-0.37703 0.11707,-0.11098 0.72125,-0.87652 1.3426,-1.70122 0.62136,-0.82469 1.14538,-1.49944 1.16451,-1.49944 0.0191,0 0.75023,0.46326 1.62471,1.02947 0.87447,0.56621 1.93797,1.25085 2.36334,1.52142 0.42537,0.27058 0.7734,0.50804 0.7734,0.52769 0,0.0197 -0.36279,0.52115 -0.8062,1.11444 -0.99599,1.33265 -0.99239,1.32695 -1.12281,1.77558 -0.29391,1.01101 0.19561,2.09444 1.16108,2.56973 0.37274,0.1835 0.47633,0.2058 0.95601,0.2058 0.45724,0 0.59481,-0.0266 0.91678,-0.17704 0.20834,-0.0974 0.47301,-0.26783 0.58814,-0.3788 0.11514,-0.11098 0.65123,-0.79151 1.19132,-1.5123 l 0.98198,-1.31053 0.19764,0.1207 c 1.07706,0.65774 3.99504,2.16673 4.99587,2.58355 1.49211,0.62143 2.21596,0.78978 5.74524,1.33617 4.87669,0.755 6.9712,1.19794 9.12763,1.93028 2.346,0.79673 3.8739,1.68923 5.1429,3.00417 1.31477,1.36239 2.00815,2.85648 2.39117,5.15246 l 0.0342,0.20518 -21.65357,0 c -11.90946,0 -21.65357,-0.0145 -21.65357,-0.0322 0,-0.0177 1.06909,-1.45707 2.37574,-3.19856 1.30666,-1.74149 2.44685,-3.32167 2.53377,-3.51152 0.21469,-0.46895 0.22006,-1.14547 0.0134,-1.68616 -0.19256,-0.50371 -0.7278,-1.03798 -1.22698,-1.22475 -0.7542,-0.28218 -1.69562,-0.12793 -2.2531,0.36916 -0.15115,0.13478 -1.79478,2.27762 -3.65252,4.76187 l -3.37769,4.51681 -3.80386,0.003 c -2.09212,0.001 -3.80385,-0.0115 -3.80385,-0.0288 0,-0.0173 1.78592,-2.41301 3.96872,-5.32379 3.1265,-4.16922 3.99317,-5.36502 4.08391,-5.63486 0.35798,-1.06455 -0.12977,-2.21774 -1.15054,-2.72027 -0.36153,-0.17798 -0.47764,-0.20365 -0.92712,-0.20499 -0.66701,-0.002 -1.16026,0.20772 -1.60116,0.68075 -0.1659,0.17799 -2.47504,3.22737 -5.13143,6.7764 l -4.82979,6.45277 -3.27494,0.003 c -2.61134,0.002 -3.26235,-0.0133 -3.21276,-0.0762 0.0342,-0.0434 1.51112,-2.01306 3.28205,-4.37702 3.27146,-4.36696 3.34155,-4.47134 3.45328,-5.14286 0.0504,-0.30268 -0.0691,-0.90877 -0.24796,-1.2578 -0.14735,-0.28756 -0.55269,-0.71384 -0.85688,-0.90114 -0.23928,-0.14732 -0.80078,-0.30095 -1.09996,-0.30095 -0.14365,0 -0.4155,0.0445 -0.6041,0.099 -0.77154,0.22266 -0.63979,0.0666 -5.27785,6.25004 l -4.28271,5.70964 -14.59259,3e-5 -14.592583,2e-5 -0.038,-0.33146 z m 44.488504,-13.02195 c 0.42481,-0.2096 0.7844,-0.5749 1.03491,-1.05135 0.15815,-0.3008 0.17727,-0.40182 0.1773,-0.93693 4e-5,-0.52699 -0.0211,-0.6429 -0.17421,-0.955 -0.20706,-0.42211 -0.69211,-0.89627 -1.10576,-1.08091 -0.46014,-0.2054 -1.20564,-0.22458 -1.68678,-0.0434 -0.51892,0.19541 -1.09342,0.76664 -1.284,1.2767 -0.28915,0.77386 -0.13065,1.65102 0.40626,2.24819 0.52053,0.57896 0.98263,0.77387 1.76162,0.74305 0.40173,-0.0159 0.57988,-0.0569 0.87066,-0.20036 z"
         style="opacity:1;fill:#ecf0f1;fill-opacity:1;stroke:none;stroke-width:1;stroke-linecap:round;stroke-linejoin:round;stroke-miterlimit:4;stroke-dasharray:none;stroke-opacity:1" />
      <path
         inkscape:connector-curvature="0"
         id="path7818"
         d="m 101.40029,842.16324 c -0.7677,-0.12139 -1.544348,-0.36202 -2.336659,-0.72398 -1.375817,-0.62853 -2.206034,-0.90662 -3.428396,-1.14837 -0.544545,-0.10769 -0.979657,-0.13195 -2.839322,-0.15832 -2.004686,-0.0284 -2.193414,-0.0402 -2.163984,-0.13546 0.01773,-0.0574 0.07522,-0.3104 0.127744,-0.56226 0.531492,-2.54848 1.599745,-6.05008 2.694885,-8.8335 l 0.500996,-1.27333 0.960234,0.64984 c 4.955678,3.35378 10.683102,5.90106 15.915262,7.07832 0.51654,0.11623 0.95058,0.22274 0.96454,0.2367 0.0308,0.0308 -2.85016,2.64707 -3.4586,3.14088 -1.74092,1.41294 -4.53415,2.10936 -6.9367,1.72948 z"
         style="opacity:1;fill:#f1c40f;fill-opacity:1;stroke:none;stroke-width:1;stroke-linecap:round;stroke-linejoin:round;stroke-miterlimit:4;stroke-dasharray:none;stroke-opacity:1" />
      <path
         inkscape:connector-curvature="0"
         id="path7820"
         d="m 150.97838,1009.0039 c -0.68625,-0.3784 -1.57019,-1.0346 -4.84727,-3.5986 -1.04172,-0.815 -2.69663,-2.0887 -3.67758,-2.8303 -0.98096,-0.7417 -1.78356,-1.3611 -1.78356,-1.3765 0,-0.015 0.50799,-0.7063 1.12887,-1.53543 1.30664,-1.74482 1.42411,-1.97632 1.38241,-2.72439 -0.049,-0.87921 -0.4932,-1.53379 -1.2956,-1.90928 -0.33707,-0.15774 -0.49612,-0.1938 -0.86187,-0.19543 -0.52942,-0.002 -0.83601,0.089 -1.27969,0.38115 -0.26095,0.17185 -0.56198,0.52958 -1.50673,1.79053 -0.64935,0.86668 -1.19346,1.57578 -1.20914,1.57578 -0.0157,0 -0.97126,-0.66315 -2.1235,-1.47367 -1.15225,-0.81051 -2.21574,-1.55296 -2.36332,-1.64988 -0.14757,-0.0969 -0.26832,-0.19054 -0.26832,-0.20802 0,-0.0175 0.45911,-0.64585 1.02025,-1.39636 0.56114,-0.7505 1.07948,-1.4924 1.15189,-1.64866 0.10259,-0.22142 0.1317,-0.40977 0.13195,-0.85364 3.2e-4,-0.51566 -0.0191,-0.60909 -0.20548,-0.98758 -0.24005,-0.48762 -0.58324,-0.82183 -1.08088,-1.05261 -0.51031,-0.23666 -1.27844,-0.23867 -1.77534,-0.005 -0.19098,0.0899 -0.44341,0.24484 -0.56094,0.34422 -0.11753,0.0994 -0.68253,0.80709 -1.25556,1.57267 -0.57302,0.76559 -1.0649,1.41749 -1.09306,1.44867 -0.0288,0.0319 -0.88817,-0.49486 -1.9643,-1.20402 -1.05221,-0.69338 -2.11792,-1.38654 -2.36825,-1.54035 -0.25034,-0.1538 -0.45631,-0.30184 -0.45773,-0.32896 -0.001,-0.0271 0.34439,-0.51011 0.76846,-1.07329 0.42407,-0.56318 0.83535,-1.18023 0.91395,-1.37121 0.19051,-0.46288 0.19674,-1.12211 0.0152,-1.60735 -0.17299,-0.46236 -0.65748,-0.98802 -1.11996,-1.21513 -0.31674,-0.15554 -0.43022,-0.17641 -0.95902,-0.17641 -0.53412,0 -0.6378,0.0195 -0.94702,0.17834 -0.19098,0.0981 -0.4149,0.24014 -0.4976,0.31567 -0.0827,0.0755 -0.57434,0.6998 -1.09253,1.38725 l -0.94217,1.24992 -0.20173,-0.12233 c -1.11522,-0.67626 -3.12121,-1.72825 -4.21077,-2.20822 -1.18185,-0.52063 -1.83623,-0.733 -2.93576,-0.95279 -0.87058,-0.17403 -1.54821,-0.28271 -5.17703,-0.83033 -5.294,-0.79891 -8.3185,-1.67066 -10.694887,-3.08259 -2.438446,-1.4488 -3.856788,-3.40192 -4.429493,-6.09958 -0.06635,-0.31252 -0.121075,-0.61793 -0.121619,-0.6787 -9.4e-4,-0.10501 1.071916,-0.11048 21.654039,-0.11048 l 21.65504,0 -2.45971,3.28071 c -2.73923,3.65354 -2.69617,3.58081 -2.6398,4.45916 0.0386,0.601 0.25791,1.05187 0.71489,1.46953 0.48298,0.44142 0.91811,0.59669 1.57536,0.56214 0.57652,-0.0303 0.95211,-0.17138 1.32435,-0.49744 0.13456,-0.11786 1.77068,-2.24835 3.63582,-4.73442 l 3.39116,-4.52012 0.43315,-0.0409 c 0.50363,-0.0476 7.22012,-0.0572 7.22012,-0.0103 0,0.0173 -1.78599,2.4131 -3.96887,5.32399 -3.07724,4.10353 -4.00056,5.37652 -4.10992,5.66642 -0.11367,0.30131 -0.13592,0.46608 -0.11459,0.84866 0.0489,0.87753 0.49329,1.53384 1.29142,1.90733 0.3449,0.1614 0.48582,0.19148 0.89711,0.19148 0.50769,0 0.85927,-0.11 1.32426,-0.4143 0.1339,-0.0876 2.06455,-2.60616 5.2268,-6.81835 2.75795,-3.67366 5.04888,-6.69256 5.09096,-6.70868 0.0421,-0.0161 1.51642,-0.0219 3.2763,-0.0129 l 3.1998,0.0164 -3.27033,4.36177 c -3.62477,4.83452 -3.5683,4.74515 -3.52774,5.58192 0.0849,1.75207 1.97727,2.7046 3.4442,1.73367 0.28694,-0.18992 0.90382,-0.98275 4.64039,-5.96391 l 4.30945,-5.74488 14.56543,-7e-5 14.56544,-7e-5 0.0331,0.20519 c 0.18244,1.13252 0.28236,5.93214 0.16857,8.097 -0.0932,1.77197 -0.27758,3.82535 -0.42174,4.69525 l -0.0352,0.21269 -2.41063,-0.0328 c -3.11518,-0.0424 -3.27131,-0.0728 -5.56041,-1.08312 -4.26175,-1.88093 -9.53913,-1.27552 -13.3599,1.53264 -0.26097,0.19181 -1.77704,1.64332 -3.37769,3.23387 l -2.90419,2.88585 -1.38896,0.0419 c -4.15235,0.12524 -7.07974,0.77799 -11.10479,2.47614 -0.87189,0.36785 -1.89386,0.79817 -2.27105,0.95627 -0.81428,0.34132 -1.24784,0.69689 -1.51501,1.24254 -0.32695,0.6677 -0.27959,1.55904 0.11535,2.17108 0.0814,0.12609 0.41341,0.53025 0.73789,0.89815 0.32447,0.3679 0.91181,1.034 1.3052,1.4802 0.39338,0.4461 0.89856,1.0542 1.12261,1.3513 0.40794,0.541 0.84536,1.3219 0.84536,1.5092 0,0.1085 -4.02846,4.1772 -4.13401,4.1753 -0.0354,-6e-4 -0.21283,-0.083 -0.3942,-0.1829 z m 2.01799,-18.45649 c 0.65693,-0.30075 1.11995,-0.92217 1.26391,-1.69626 0.0546,-0.29367 0.0475,-0.44168 -0.0377,-0.78716 -0.17676,-0.71627 -0.54176,-1.18017 -1.20298,-1.52892 -0.28826,-0.15204 -0.38941,-0.17001 -0.9538,-0.1694 -0.53332,5.7e-4 -0.67758,0.0236 -0.92911,0.14796 -0.68738,0.33999 -1.11563,0.90742 -1.25477,1.6626 -0.0666,0.36133 -0.0626,0.48276 0.0276,0.85183 0.18818,0.7694 0.76019,1.39719 1.4847,1.62949 0.44432,0.14247 1.15748,0.0934 1.60216,-0.11014 z"
         style="opacity:1;fill:#ecf0f1;fill-opacity:1;stroke:none;stroke-width:1;stroke-linecap:round;stroke-linejoin:round;stroke-miterlimit:4;stroke-dasharray:none;stroke-opacity:1" />
      <path
         inkscape:connector-curvature="0"
         id="path7822"
         d="m 190.96393,1001.6237 c -0.0579,-0.094 -1.88622,-1.3328 -2.88517,-1.95545 -4.58894,-2.86023 -9.40535,-4.88352 -14.18879,-5.96045 l -0.65168,-0.14672 1.47243,-1.45638 c 1.57982,-1.5626 2.17079,-2.04638 3.05618,-2.50185 1.26394,-0.65021 2.38775,-0.92626 3.97209,-0.97567 1.65117,-0.0515 2.68885,0.16185 4.20904,0.86541 1.41105,0.65305 2.74794,1.03473 4.18785,1.19563 0.31252,0.0349 1.42763,0.0637 2.47803,0.064 1.0504,2.8e-4 1.90982,0.0159 1.90982,0.0346 0,0.0188 -0.0992,0.48135 -0.22041,1.02794 -0.60417,2.7241 -1.647,6.06726 -2.7397,8.78304 -0.38864,0.9659 -0.50922,1.1722 -0.59969,1.0258 z"
         style="opacity:1;fill:#f1c40f;fill-opacity:1;stroke:none;stroke-width:1;stroke-linecap:round;stroke-linejoin:round;stroke-miterlimit:4;stroke-dasharray:none;stroke-opacity:1" />
    </g>
  </g>
</svg>
