<?xml version="1.0" encoding="UTF-8" standalone="no"?>
<!-- Created with Inkscape (http://www.inkscape.org/) -->

<svg
   xmlns:dc="http://purl.org/dc/elements/1.1/"
   xmlns:cc="http://creativecommons.org/ns#"
   xmlns:rdf="http://www.w3.org/1999/02/22-rdf-syntax-ns#"
   xmlns:svg="http://www.w3.org/2000/svg"
   xmlns="http://www.w3.org/2000/svg"
   xmlns:sodipodi="http://sodipodi.sourceforge.net/DTD/sodipodi-0.dtd"
   xmlns:inkscape="http://www.inkscape.org/namespaces/inkscape"
   width="250"
   height="250"
   viewBox="0 0 250 250"
   id="svg2"
   version="1.1"
   inkscape:version="0.91 r13725"
   inkscape:export-filename="/home/evrev/userStory.png"
   inkscape:export-xdpi="90"
   inkscape:export-ydpi="90"
   sodipodi:docname="userStory.svg">
  <defs
     id="defs4" />
  <sodipodi:namedview
     id="base"
     pagecolor="#ffffff"
     bordercolor="#666666"
     borderopacity="1.0"
     inkscape:pageopacity="0.0"
     inkscape:pageshadow="2"
     inkscape:zoom="0.98994949"
     inkscape:cx="192.2185"
     inkscape:cy="180.02782"
     inkscape:document-units="px"
     inkscape:current-layer="g4530"
     showgrid="false"
     units="px"
     inkscape:window-width="2560"
     inkscape:window-height="1646"
     inkscape:window-x="0"
     inkscape:window-y="25"
     inkscape:window-maximized="1" />
  <metadata
     id="metadata7">
    <rdf:RDF>
      <cc:Work
         rdf:about="">
        <dc:format>image/svg+xml</dc:format>
        <dc:type
           rdf:resource="http://purl.org/dc/dcmitype/StillImage" />
        <dc:title></dc:title>
      </cc:Work>
    </rdf:RDF>
  </metadata>
  <g
     inkscape:label="Layer 1"
     inkscape:groupmode="layer"
     id="layer1"
     transform="translate(0,-802.36216)">
    <rect
       style="opacity:1;fill:#2980b9;fill-opacity:1;stroke:none;stroke-width:2.0079999;stroke-linecap:round;stroke-linejoin:round;stroke-miterlimit:4;stroke-dasharray:none;stroke-opacity:1"
       id="rect4136"
       width="251.07143"
       height="250.71428"
       x="332.5"
       y="898.43359"
       rx="0" />
    <g
       id="g4215"
       transform="translate(-99.357147,1105.505)">
      <circle
         id="circle4139"
         r="254"
         cy="254"
         cx="254"
         style="fill:#324a5e" />
      <g
         id="g4141">
        <path
           id="path4143"
           d="m 465.2,218.4 0,52.8 c 0,3.6 -3.2,6.8 -7.2,6 -2.8,-0.4 -4.8,-2.8 -5.2,-5.6 l -5.2,-54 c 0,-1.6 -1.6,-3.2 -3.6,-3.2 -2,0 -3.6,1.6 -3.6,3.6 l 0,159.2 c 0,4.4 -3.2,8.4 -7.6,9.2 -4.8,0.4 -9.2,-2.8 -9.6,-7.6 l -8.4,-83.6 c 0,-2 -2,-3.6 -4,-3.6 -2,0 -3.6,1.6 -3.6,3.6 l -6.4,82.8 c -0.4,4.4 -4,8 -8.8,8 l -1.6,0 c -4.8,0 -8.8,-4 -8.8,-8.8 l 0,-159.2 c 0,-2 -1.6,-3.6 -3.6,-3.6 -1.6,0 -2.8,0.8 -3.2,2.4 0,-2 2,-4 4,-4 2,0 4,1.6 4,4 l 6.4,65.2 c 0.4,3.6 2.8,6.4 6.4,6.8 4.8,0.8 8.8,-2.8 8.8,-7.2 l 0,-63.6 c 0,-18 -7.2,-34.4 -19.2,-46.4 7.2,-4.4 15.6,-6.8 24.8,-7.2 30,-0.8 55.2,23.6 55.2,54 z"
           style="fill:#2b3b4e"
           inkscape:connector-curvature="0" />
        <circle
           id="circle4145"
           r="25.200001"
           cy="131.2"
           cx="411.20001"
           style="fill:#2b3b4e" />
        <path
           id="path4147"
           d="m 126.4,216.8 c 0,-0.8 0.4,-1.2 0.4,-1.6 -0.4,0.4 -0.4,0.8 -0.4,1.6 l 0.4,158.8 c 0,4.4 -3.2,8.4 -7.6,9.2 -4.8,0.4 -9.2,-2.8 -9.6,-7.6 l -8.4,-83.6 c 0,-2 -2,-3.6 -4,-3.6 -2,0 -3.6,1.6 -3.6,3.6 l -6.8,83.2 c -0.4,4.4 -4,8 -8.8,8 l -1.6,0 c -4.8,0 -8.8,-4 -8.8,-8.8 l 0,-159.6 c 0,-2 -1.6,-3.6 -3.6,-3.6 -1.6,0 -3.2,1.2 -3.6,3.2 l -5.2,54 c -0.4,3.2 -2.8,5.6 -6,5.6 -3.6,0 -6,-2.8 -6,-6 l 0,-51.6 c 0,-29.6 23.2,-54.4 52.4,-55.2 11.2,-0.4 21.2,2.8 30,8 -12.4,12.4 -20,29.6 -20,48 l 0,62.4 c 0,4 3.2,7.6 7.6,7.6 l 0,0 c 4,0 7.2,-2.8 7.2,-6.8 l 6,-65.2 z"
           style="fill:#2b3b4e"
           inkscape:connector-curvature="0" />
        <path
           id="path4149"
           d="m 134.4,217.2 0,11.6 -1.2,-12.4 c 0,-1.6 -1.2,-2.8 -2.8,-3.2 2.4,0 4,1.6 4,4 z"
           style="fill:#2b3b4e"
           inkscape:connector-curvature="0" />
        <circle
           id="circle4151"
           r="25.200001"
           cy="130"
           cx="96.800003"
           style="fill:#2b3b4e" />
      </g>
      <g
         id="g4153">
        <path
           id="path4155"
           d="m 298,212.8 c 0.8,0 1.6,0.4 2.4,0.8 -0.4,0 -1.2,-0.4 -1.6,-0.4 -2,0 -4,1.6 -4,4 l -1.2,12.8 0,-12.8 c 0,-2.4 2,-4.4 4.4,-4.4 z"
           style="fill:#ff7058"
           inkscape:connector-curvature="0" />
        <path
           id="path4157"
           d="m 404,218 0,63.6 c 0,4.4 -4,8 -8.8,7.2 -3.6,-0.4 -6,-3.6 -6.4,-6.8 l -6,-65.2 c 0,-2 -2,-4 -4,-4 -2.4,0 -4.4,2 -4.4,4.4 l 0,192 c 0,5.2 -4,10.4 -9.2,10.8 -6,0.8 -10.8,-3.6 -11.6,-9.2 L 343.6,310 c -0.4,-2.4 -2,-4 -4.4,-4 -2.4,0 -4.4,2 -4.4,4.4 L 326,410.8 c -0.4,5.2 -5.2,9.6 -10.4,9.6 l -2,0 c -5.6,0 -10.4,-4.8 -10.4,-10.4 l 0,-188 6,65.2 c 0.4,3.6 3.2,6.8 6.8,7.6 5.2,0.8 9.2,-3.2 9.2,-8 l 0,-68.8 c 0,-21.2 -9.2,-40 -24,-53.2 10,-7.2 22.4,-11.6 35.6,-12 37.2,-1.2 67.2,28.4 67.2,65.2 z"
           style="fill:#ff7058"
           inkscape:connector-curvature="0" />
        <circle
           id="circle4159"
           r="30.4"
           cy="112.4"
           cx="338.79999"
           style="fill:#ff7058" />
      </g>
      <g
         id="g4161">
        <path
           id="path4163"
           d="m 184,219.2 0,67.6 c 0,4.4 3.6,8 8,8 l 0,0 c 4,0 7.6,-3.2 8,-7.2 l 6,-66 0,187.6 c 0,5.2 -4,10.4 -9.2,10.8 -5.6,0.8 -10.8,-3.6 -11.6,-9.2 L 174.8,310 c -0.4,-2.4 -2.4,-4 -4.4,-4 -2.4,0 -4.4,1.6 -4.4,4 l -8.4,100.8 c -0.4,5.2 -5.2,9.6 -10.4,9.6 l -2,0 c -5.6,0 -10.4,-4.8 -10.4,-10.4 l 0,-192.8 c 0,-2.4 -2,-4.4 -4.4,-4.4 -2,0 -4,1.6 -4,4 L 120,282 c -0.4,4 -3.6,6.8 -7.2,6.8 l 0,0 c -4,0 -7.6,-3.2 -7.6,-7.6 l 0,-62 c 0,-35.6 28,-65.6 63.2,-66.4 14.8,-0.4 28.4,4 39.6,12 -14.8,13.2 -24,32.8 -24,54.4 z"
           style="fill:#84dbff"
           inkscape:connector-curvature="0" />
        <path
           id="path4165"
           d="m 130.4,213.2 c -1.6,0 -2.8,0.8 -3.6,2 0.4,-1.2 1.6,-2.4 3.6,-2 -0.4,-0.4 -0.4,-0.4 0,0 z"
           style="fill:#84dbff"
           inkscape:connector-curvature="0" />
        <path
           id="path4167"
           d="m 215.6,217.2 0,12.8 -1.2,-13.2 c 0,-2 -2,-4 -4,-4 -0.4,0 -1.2,0 -1.6,0.4 0.8,-0.4 1.6,-0.8 2.4,-0.8 2.4,0.4 4.4,2.4 4.4,4.8 z"
           style="fill:#84dbff"
           inkscape:connector-curvature="0" />
        <circle
           id="circle4169"
           r="30.4"
           cy="112.4"
           cx="170.39999"
           style="fill:#84dbff" />
      </g>
      <g
         id="g4171">
        <path
           id="path4173"
           d="m 252.8,147.2 c -38.4,1.2 -68.8,33.6 -68.8,72.4 l 0,67.6 c 0,4.4 3.6,8 8,8 l 0,0 c 4,0 7.6,-3.2 8,-7.2 l 6.8,-70.8 c 0.4,-2.4 2,-4 4.4,-4 2.4,0 4.4,2 4.4,4.4 l 0,209.2 c 0,6.4 5.2,11.2 11.2,11.2 l 2.4,0 c 6,0 10.8,-4.4 11.2,-10.4 L 249.6,318 c 0.4,-2.4 2.4,-4.4 4.8,-4.4 2.4,0 4.8,2 4.8,4.4 l 11.2,110 c 0.8,6 6.4,10.8 12.4,10 6,-0.8 10,-6 10,-12 l 0,-208.8 c 0,-2.4 2,-4.4 4.4,-4.4 2.4,0 4.4,1.6 4.4,4 l 6.8,70.8 c 0.4,3.6 3.2,6.8 6.8,7.6 5.2,0.8 9.2,-3.2 9.2,-8 l 0,-69.2 c 1.2,-40 -31.6,-72 -71.6,-70.8 z"
           style="fill:#ffffff"
           inkscape:connector-curvature="0" />
        <path
           id="path4175"
           d="m 208.8,213.2 c -1.2,0.8 -2,2 -2,3.6 l -0.8,4.8 0,-4.4 c 0,-1.6 1.2,-3.2 2.8,-4 z"
           style="fill:#ffffff"
           inkscape:connector-curvature="0" />
        <circle
           id="circle4177"
           r="33.200001"
           cy="103.6"
           cx="254.8"
           style="fill:#ffffff" />
      </g>
      <g
         id="g4179" />
      <g
         id="g4181" />
      <g
         id="g4183" />
      <g
         id="g4185" />
      <g
         id="g4187" />
      <g
         id="g4189" />
      <g
         id="g4191" />
      <g
         id="g4193" />
      <g
         id="g4195" />
      <g
         id="g4197" />
      <g
         id="g4199" />
      <g
         id="g4201" />
      <g
         id="g4203" />
      <g
         id="g4205" />
      <g
         id="g4207" />
    </g>
    <g
       id="g4414"
       transform="translate(760.42857,929.57644)">
      <g
         id="g4352">
        <g
           id="g4354">
          <g
             id="g4356">
            <path
               id="path4358"
               d="m 349.867,392.533 c 4.71,0 8.533,-3.823 8.533,-8.533 l 0,-8.533 8.533,0 c 4.71,0 8.533,-3.823 8.533,-8.533 0,-4.71 -3.823,-8.533 -8.533,-8.533 l -8.533,0 0,-8.533 c 0,-4.71 -3.823,-8.533 -8.533,-8.533 -4.71,0 -8.533,3.823 -8.533,8.533 l 0,8.533 -8.534,0 c -4.71,0 -8.533,3.823 -8.533,8.533 0,4.71 3.823,8.533 8.533,8.533 l 8.533,0 0,8.533 c 0,4.71 3.823,8.533 8.534,8.533 z"
               inkscape:connector-curvature="0" />
            <path
               id="path4360"
               d="m 469.333,59.733 c 0,4.71 3.823,8.533 8.533,8.533 4.71,0 8.533,-3.823 8.533,-8.533 4.71,0 8.533,-3.823 8.533,-8.533 0,-4.71 -3.823,-8.533 -8.533,-8.533 0,-4.71 -3.823,-8.533 -8.533,-8.533 -4.71,0 -8.533,3.823 -8.533,8.533 -4.71,0 -8.533,3.823 -8.533,8.533 0,4.71 3.823,8.533 8.533,8.533 z"
               inkscape:connector-curvature="0" />
            <path
               id="path4362"
               d="m 256,102.4 c -65.877,0 -119.467,53.589 -119.467,119.467 0,4.71 3.823,8.533 8.533,8.533 4.71,0 8.533,-3.823 8.533,-8.533 0,-56.465 45.935,-102.4 102.4,-102.4 56.465,0 102.4,45.935 102.4,102.4 0,4.71 3.823,8.533 8.533,8.533 4.71,0 8.533,-3.823 8.533,-8.533 C 375.467,155.989 321.877,102.4 256,102.4 Z"
               inkscape:connector-curvature="0" />
            <path
               id="path4364"
               d="m 332.8,25.6 c 0,4.71 3.823,8.533 8.533,8.533 4.71,0 8.533,-3.823 8.533,-8.533 4.71,0 8.533,-3.823 8.533,-8.533 0,-4.71 -3.823,-8.533 -8.533,-8.533 0,-4.71 -3.823,-8.533 -8.533,-8.533 -4.71,0 -8.533,3.822 -8.533,8.532 -4.71,0 -8.533,3.823 -8.533,8.533 0,4.71 3.823,8.534 8.533,8.534 z"
               inkscape:connector-curvature="0" />
            <path
               id="path4366"
               d="m 76.8,230.4 c 4.71,0 8.533,-3.823 8.533,-8.533 C 85.333,127.761 161.894,51.2 256,51.2 c 94.106,0 170.667,76.561 170.667,170.667 0,4.71 3.823,8.533 8.533,8.533 4.71,0 8.533,-3.823 8.533,-8.533 0,-103.518 -84.215,-187.733 -187.733,-187.733 -103.518,0 -187.733,84.215 -187.733,187.733 0,4.71 3.823,8.533 8.533,8.533 z"
               inkscape:connector-curvature="0" />
            <path
               id="path4368"
               d="m 177.92,299.947 -7.424,-37.086 c -0.794,-3.994 -4.292,-6.861 -8.363,-6.861 -4.07,0 -7.569,2.867 -8.363,6.861 l -7.424,37.086 -37.086,7.424 c -3.994,0.794 -6.861,4.292 -6.861,8.363 0,4.07 2.867,7.569 6.861,8.363 l 37.086,7.424 7.424,37.086 c 0.794,3.994 4.292,6.861 8.363,6.861 4.07,0 7.569,-2.867 8.363,-6.861 l 7.424,-37.086 37.086,-7.424 c 3.994,-0.794 6.861,-4.292 6.861,-8.363 0,-4.07 -2.867,-7.569 -6.861,-8.363 l -37.086,-7.424 z m -8.926,15.957 c -3.379,0.674 -6.016,3.311 -6.69,6.69 l -0.171,0.828 -0.171,-0.828 c -0.674,-3.379 -3.311,-6.016 -6.69,-6.69 l -0.828,-0.171 0.828,-0.171 c 3.379,-0.674 6.016,-3.311 6.69,-6.69 l 0.171,-0.828 0.171,0.828 c 0.674,3.379 3.311,6.016 6.69,6.69 l 0.828,0.171 -0.828,0.171 z"
               inkscape:connector-curvature="0" />
            <path
               id="path4370"
               d="m 503.467,128 c -4.71,0 -8.533,3.823 -8.533,8.533 l 0,332.8 c 0,14.114 -11.486,25.6 -25.6,25.6 l -204.8,0 0,-19.635 c 12.442,-4.352 44.843,-14.498 76.8,-14.498 74.325,0 124.8,16.461 125.312,16.631 2.586,0.862 5.453,0.418 7.68,-1.178 2.219,-1.604 3.541,-4.181 3.541,-6.921 l 0,-375.465 c 0,-3.413 -2.031,-6.502 -5.171,-7.842 -0.759,-0.324 -18.91,-7.962 -54.349,-10.914 -4.753,-0.435 -8.815,3.098 -9.207,7.791 -0.393,4.702 3.098,8.823 7.791,9.216 21.982,1.826 36.668,5.572 43.87,7.808 l 0,358.067 c -19.337,-5.069 -62.276,-14.259 -119.467,-14.259 -37.18,0 -73.702,12.211 -85.001,16.35 -10.044,-4.437 -40.405,-16.35 -77.133,-16.35 -58.778,0 -107.204,9.694 -128,14.618 l 0,-357.889 c 7.987,-1.971 23.287,-5.436 43.409,-8.533 4.659,-0.717 7.859,-5.069 7.142,-9.728 -0.725,-4.659 -5.12,-7.876 -9.728,-7.134 -31.274,4.804 -50.884,10.359 -51.703,10.598 -3.661,1.041 -6.187,4.395 -6.187,8.201 l 0,375.467 c 0,2.671 1.254,5.197 3.388,6.81 1.502,1.135 3.311,1.724 5.146,1.724 0.785,0 1.57,-0.111 2.338,-0.333 0.589,-0.162 59.597,-16.734 134.195,-16.734 31.198,0 57.856,9.711 68.267,14.071 l 0,20.062 -204.8,0 c -14.114,0 -25.6,-11.486 -25.6,-25.6 l 0,-332.8 c 0,-4.71 -3.823,-8.533 -8.533,-8.533 -4.71,0 -8.534,3.822 -8.534,8.532 l 0,332.8 C 0,492.86 19.14,512 42.667,512 l 426.667,0 C 492.86,512 512,492.86 512,469.333 l 0,-332.8 c 0,-4.71 -3.823,-8.533 -8.533,-8.533 z"
               inkscape:connector-curvature="0" />
            <path
               id="path4372"
               d="m 76.8,34.133 8.533,0 0,8.533 c 0,4.71 3.823,8.533 8.533,8.533 4.71,0 8.533,-3.823 8.533,-8.533 l 0,-8.533 8.533,0 c 4.71,0 8.533,-3.823 8.533,-8.533 0,-4.71 -3.823,-8.533 -8.533,-8.533 l -8.532,0 0,-8.534 C 102.4,3.823 98.577,0 93.867,0 89.157,0 85.334,3.823 85.334,8.533 l 0,8.533 -8.534,0 c -4.71,0 -8.533,3.823 -8.533,8.533 0,4.711 3.823,8.534 8.533,8.534 z"
               inkscape:connector-curvature="0" />
            <path
               id="path4374"
               d="m 247.467,145.067 0,290.133 c 0,4.71 3.823,8.533 8.533,8.533 4.71,0 8.533,-3.823 8.533,-8.533 l 0,-290.133 c 0,-4.71 -3.823,-8.533 -8.533,-8.533 -4.71,0 -8.533,3.822 -8.533,8.533 z"
               inkscape:connector-curvature="0" />
            <path
               id="path4376"
               d="m 401.067,230.4 c 4.71,0 8.533,-3.823 8.533,-8.533 0,-84.693 -68.907,-153.6 -153.6,-153.6 -84.693,0 -153.6,68.907 -153.6,153.6 0,4.71 3.823,8.533 8.533,8.533 4.71,0 8.533,-3.823 8.533,-8.533 0,-75.281 61.252,-136.533 136.533,-136.533 75.281,0 136.533,61.252 136.533,136.533 0.001,4.71 3.824,8.533 8.535,8.533 z"
               inkscape:connector-curvature="0" />
          </g>
        </g>
      </g>
      <g
         id="g4378" />
      <g
         id="g4380" />
      <g
         id="g4382" />
      <g
         id="g4384" />
      <g
         id="g4386" />
      <g
         id="g4388" />
      <g
         id="g4390" />
      <g
         id="g4392" />
      <g
         id="g4394" />
      <g
         id="g4396" />
      <g
         id="g4398" />
      <g
         id="g4400" />
      <g
         id="g4402" />
      <g
         id="g4404" />
      <g
         id="g4406" />
    </g>
    <g
       id="g4530"
       transform="translate(-2.8571396,-2.2617187e-5)">
      <circle
         r="119.28571"
         cy="927.36218"
         cx="127.85714"
         id="path4528"
         style="opacity:1;fill:#000000;fill-opacity:1;stroke:none;stroke-width:2.0079999;stroke-linecap:round;stroke-linejoin:round;stroke-miterlimit:4;stroke-dasharray:none;stroke-opacity:1" />
      <g
         transform="matrix(0.34541686,0,0,0.34541686,41.226591,831.67504)"
         id="g4319">
        <path
           inkscape:connector-curvature="0"
           style="fill:#08446d"
           d="m 249.6,100.8 c 24.8,0 44.8,-25.6 44.8,-57.6 0,-32 -20,-43.2 -44.8,-43.2 -24.8,0 -44.8,12 -44.8,43.2 0,31.2 20,57.6 44.8,57.6 z"
           id="path4253" />
        <path
           inkscape:connector-curvature="0"
           style="fill:#2980b9;fill-opacity:1"
           d="m 249.6,100.8 c 24.8,0 44.8,-25.6 44.8,-57.6 0,-32 -20,-43.2 -44.8,-43.2"
           id="path4255" />
        <path
           inkscape:connector-curvature="0"
           style="fill:#08446d"
           d="m 271.2,112 -41.6,0 c -31.2,0 -56,24.8 -56.8,56 l -0.8,81.6 c 0,19.2 9.6,36 24,46.4 0,1.6 -0.8,3.2 -0.8,4.8 l -0.8,176 c 0,12.8 10.4,24 23.2,24 12.8,0 23.2,-10.4 24,-23.2 l 0.8,-119.2 12.8,0 -0.8,119.2 c 0,12.8 10.4,23.2 23.2,24 12.8,0 24,-10.4 24,-23.2 l 0.8,-176 c 0,-1.6 0,-3.2 -0.8,-4.8 14.4,-10.4 24,-26.4 24,-45.6 l 0.8,-81.6 C 328,137.6 302.4,112 271.2,112 Z"
           id="path4257" />
        <g
           style="fill:#2980b9;fill-opacity:1"
           id="g4259">
          <path
             inkscape:connector-curvature="0"
             style="fill:#2980b9;fill-opacity:1"
             d="m 242.4,476 0.8,-119.2 12.8,0 -0.8,119.2 c 0,12.8 10.4,24 23.2,24 12.8,0 24,-10.4 24,-23.2 l 0.8,-176 c 0,-1.6 0,-3.2 -0.8,-4.8 14.4,-10.4 24,-26.4 24,-45.6 l 0.8,-81.6 c 0,-31.2 -24.8,-56.8 -56,-56.8 l -41.6,0"
             id="path4261" />
        </g>
        <path
           inkscape:connector-curvature="0"
           style="fill:#08446d"
           d="M 412.8,120 C 434.4,120 452,97.6 452,69.6 452,41.6 434.4,32 412.8,32 c -21.6,0 -39.2,10.4 -39.2,37.6 0,28 17.6,50.4 39.2,50.4 z"
           id="path4263" />
        <path
           inkscape:connector-curvature="0"
           style="fill:#2980b9;fill-opacity:1"
           d="M 412.8,120 C 434.4,120 452,97.6 452,69.6 452,41.6 434.4,32 412.8,32"
           id="path4265" />
        <path
           inkscape:connector-curvature="0"
           style="fill:#08446d"
           d="m 431.2,129.6 -36,0 c -27.2,0 -48.8,21.6 -48.8,48.8 l 0,70.4 c 0,16.8 8,31.2 20.8,40 0,1.6 -0.8,2.4 -0.8,4 l -0.8,152.8 c 0,11.2 8.8,20.8 20,20.8 11.2,0 20.8,-8.8 20.8,-20 l 0.8,-104 11.2,0 -0.8,104 c 0,11.2 8.8,20.8 20,20.8 11.2,0 20.8,-8.8 20.8,-20 l 0.8,-152.8 c 0,-1.6 0,-3.2 0,-4 12.8,-8.8 20.8,-23.2 20.8,-40 l 0.8,-71.2 C 480,152 458.4,129.6 431.2,129.6 Z"
           id="path4267" />
        <g
           style="fill:#2980b9;fill-opacity:1"
           id="g4269">
          <path
             inkscape:connector-curvature="0"
             style="fill:#2980b9;fill-opacity:1"
             d="m 406.4,446.4 0.8,-104 11.2,0 -0.8,104 c 0,11.2 8.8,20.8 20,20.8 11.2,0 20.8,-8.8 20.8,-20 l 0.8,-152.8 c 0,-1.6 0,-3.2 0,-4 12.8,-8.8 20.8,-23.2 20.8,-40 l 0.8,-71.2 c 0,-27.2 -21.6,-48.8 -48.8,-48.8 l -36,0"
             id="path4271" />
        </g>
        <path
           inkscape:connector-curvature="0"
           style="fill:#08446d"
           d="m 87.2,120 c 21.6,0 39.2,-22.4 39.2,-50.4 C 126.4,41.6 108.8,32 87.2,32 65.6,32 48,42.4 48,69.6 48,97.6 65.6,120 87.2,120 Z"
           id="path4273" />
        <path
           inkscape:connector-curvature="0"
           style="fill:#2980b9;fill-opacity:1"
           d="m 87.2,120 c 21.6,0 39.2,-22.4 39.2,-50.4 0,-28 -17.6,-37.6 -39.2,-37.6"
           id="path4275" />
        <path
           inkscape:connector-curvature="0"
           style="fill:#08446d"
           d="m 106.4,129.6 -36,0 c -27.2,0 -48.8,21.6 -48.8,48.8 l -0.8,71.2 c 0,16.8 8,31.2 20.8,40 0,1.6 -0.8,2.4 -0.8,4 L 40,446.4 c 0,11.2 8.8,20.8 20,20.8 11.2,0 20.8,-8.8 20.8,-20 l 0.8,-104 11.2,0 -0.8,104 c 0,11.2 8.8,20.8 20,20.8 11.2,0 20.8,-8.8 20.8,-20 l 0.8,-152.8 c 0,-1.6 0,-3.2 0,-4 12.8,-8.8 20.8,-23.2 20.8,-40 l 0.8,-71.2 c 0,-28 -22.4,-50.4 -48.8,-50.4 z"
           id="path4277" />
        <g
           style="fill:#2980b9;fill-opacity:1"
           id="g4279">
          <path
             inkscape:connector-curvature="0"
             style="fill:#2980b9;fill-opacity:1"
             d="m 80.8,446.4 0.8,-104 11.2,0 -0.8,104 c 0,11.2 8.8,20.8 20,20.8 11.2,0 20.8,-8.8 20.8,-20 l 0.8,-152.8 c 0,-1.6 0,-3.2 0,-4 12.8,-8.8 20.8,-24 20.8,-40 l 0,-70.4 c 0,-27.2 -21.6,-48.8 -48.8,-48.8 l -36,0"
             id="path4281" />
        </g>
        <g
           id="g4283" />
        <g
           id="g4285" />
        <g
           id="g4287" />
        <g
           id="g4289" />
        <g
           id="g4291" />
        <g
           id="g4293" />
        <g
           id="g4295" />
        <g
           id="g4297" />
        <g
           id="g4299" />
        <g
           id="g4301" />
        <g
           id="g4303" />
        <g
           id="g4305" />
        <g
           id="g4307" />
        <g
           id="g4309" />
        <g
           id="g4311" />
      </g>
      <g
         transform="matrix(0.25262719,0,0,0.25262719,63.723433,891.81274)"
         id="g4501">
        <g
           transform="translate(1,0)"
           id="g4445">
          <path
             inkscape:connector-curvature="0"
             style="fill:#ecf4f7"
             d="m 39.533,93.867 c 0,0 46.933,-17.067 106.667,-17.067 l 0.853,0.853 C 102.68,110.08 74.52,162.987 74.52,221.867 l 34.133,0 34.133,0 c 0,-61.44 49.493,-110.933 110.933,-110.933 61.44,0 110.933,49.493 110.933,110.933 l 34.133,0 34.133,0 c 0,-58.88 -29.013,-111.787 -73.387,-144.213 l 0.853,-0.853 c 59.733,0 106.667,17.067 106.667,17.067 l 0,42.667 0,332.8 c 0,0 -51.2,-17.067 -128,-17.067 -42.667,0 -85.333,17.067 -85.333,17.067 0,0 -34.133,-17.067 -76.8,-17.067 -76.8,0 -136.533,17.067 -136.533,17.067 l 0,-332.8 0,-42.668 -0.852,0 z"
             id="path4447" />
          <path
             inkscape:connector-curvature="0"
             style="fill:#cb20b0;fill-opacity:1"
             d="m 432.067,221.867 -34.133,0 C 397.934,141.654 333.081,76.8 252.867,76.8 172.653,76.8 107.8,141.653 107.8,221.867 l -34.133,0 c 0,-58.88 29.013,-111.787 72.533,-144.213 29.867,-22.187 66.56,-34.987 106.667,-34.987 40.107,0 76.8,12.8 105.813,34.987 44.373,32.426 73.387,85.333 73.387,144.213"
             id="path4449" />
          <path
             inkscape:connector-curvature="0"
             style="fill:#aab1ba"
             d="m 500.333,136.533 0,332.8 c 0,18.773 -15.36,34.133 -34.133,34.133 l -213.333,0 0,-34.133 c 0,0 42.667,-17.067 85.333,-17.067 76.8,0 128,17.067 128,17.067 l 0,-332.8 34.133,0 z m -247.466,332.8 0,34.133 -213.334,0 C 20.76,503.466 5.4,488.106 5.4,469.333 l 0,-332.8 34.133,0 0,332.8 c 0,0 59.733,-17.067 136.533,-17.067 42.667,10e-4 76.801,17.067 76.801,17.067 z"
             id="path4451" />
          <path
             inkscape:connector-curvature="0"
             style="fill:#3ec0cf;fill-opacity:1"
             d="m 397.933,221.867 -34.133,0 c 0,-61.44 -49.493,-110.933 -110.933,-110.933 -61.44,0 -110.933,49.493 -110.933,110.933 l -34.134,0 C 107.8,141.654 172.653,76.8 252.867,76.8 c 80.214,0 145.066,64.853 145.066,145.067"
             id="path4453" />
          <polygon
             style="fill:#cb20b0;fill-opacity:1"
             points="159,264.533 167.533,307.2 210.2,315.733 167.533,324.267 159,366.933 150.467,324.267 107.8,315.733 150.467,307.2 "
             id="polygon4455" />
          <circle
             style="fill:#3ec0cf;fill-opacity:1"
             cx="133.39999"
             cy="42.667"
             r="8.533"
             id="circle4457" />
          <circle
             style="fill:#cb20b0;fill-opacity:1"
             cx="201.66701"
             cy="8.533"
             r="8.533"
             id="circle4459" />
          <circle
             style="fill:#3ec0cf;fill-opacity:1"
             cx="423.53299"
             cy="51.200001"
             r="8.533"
             id="circle4461" />
        </g>
        <path
           inkscape:connector-curvature="0"
           style="fill:#51565f"
           d="m 467.2,507.733 -426.667,0 c -21.333,0 -38.4,-17.067 -38.4,-38.4 l 0,-332.8 c 0,-2.56 1.707,-4.267 4.267,-4.267 2.56,0 4.267,1.707 4.267,4.267 l 0,332.8 c 0,16.213 13.653,29.867 29.867,29.867 l 209.066,0 0,-27.307 c -8.533,-3.413 -37.547,-15.36 -72.533,-15.36 -75.093,0 -134.827,17.067 -135.68,17.067 -0.853,0 -2.56,0 -3.413,-0.853 -0.853,-0.853 -1.707,-1.707 -1.707,-3.413 l 0,-375.467 c 0,-1.707 0.853,-3.413 3.413,-4.267 0.853,0 20.48,-5.973 51.2,-10.24 2.56,0 4.267,0.853 5.12,3.413 0.853,2.56 -0.853,4.267 -3.413,5.12 -23.04,3.413 -40.107,7.68 -46.933,9.387 l 0,366.933 C 61.867,459.947 114.773,448 177.92,448 c 38.4,0 69.12,12.8 76.8,17.067 8.533,-3.413 46.933,-17.067 85.333,-17.067 63.147,0 108.373,11.093 123.733,15.36 l 0,-366.933 C 457.813,94.72 441.6,89.6 416,87.04 c -2.56,0 -4.267,-2.56 -4.267,-4.267 0,-2.56 2.56,-4.267 4.267,-4.267 34.987,2.56 52.053,10.24 52.907,10.24 1.707,0.853 2.56,2.56 2.56,4.267 l 0,375.467 c 0,1.707 -0.853,2.56 -1.707,3.413 -0.853,0.853 -2.56,0.853 -4.267,0.853 -0.853,0 -51.2,-17.067 -126.293,-17.067 -34.987,0 -70.827,11.947 -81.067,15.36 l 0,27.307 209.067,0 c 16.213,0 29.867,-13.653 29.867,-29.867 l 0,-332.8 c 0,-2.56 1.707,-4.267 4.267,-4.267 2.56,0 4.267,1.707 4.267,4.267 l 0,332.8 C 505.6,490.667 488.533,507.733 467.2,507.733 Z M 253.867,439.467 c -2.56,0 -4.267,-1.707 -4.267,-4.267 l 0,-290.133 c 0,-2.56 1.707,-4.267 4.267,-4.267 2.56,0 4.267,1.707 4.267,4.267 l 0,290.133 c -0.001,2.56 -1.707,4.267 -4.267,4.267 z M 160,371.2 c -1.707,0 -3.413,-1.707 -4.267,-3.413 L 148.053,327.68 107.947,320 c -1.707,0 -3.413,-2.56 -3.413,-4.267 0,-1.707 1.707,-3.413 3.413,-4.267 l 40.107,-7.68 7.68,-40.107 c 0,-1.707 2.56,-3.413 4.267,-3.413 1.707,0 3.413,1.707 4.267,3.413 l 7.68,40.107 40.107,7.68 c 1.707,0 3.413,2.56 3.413,4.267 0,1.707 -1.707,3.413 -3.413,4.267 l -40.107,7.68 -7.68,40.107 c -0.855,1.706 -2.561,3.413 -4.268,3.413 z M 130.133,315.733 151.467,320 c 1.707,0 3.413,1.707 3.413,3.413 l 4.267,21.333 4.267,-21.333 c 0,-1.707 1.707,-3.413 3.413,-3.413 l 21.333,-4.267 -21.333,-4.267 c -1.707,0 -3.413,-1.707 -3.413,-3.413 l -4.267,-21.333 -4.267,21.333 c 0,1.707 -1.707,3.413 -3.413,3.413 z m 302.934,-89.6 c -2.56,0 -4.267,-1.707 -4.267,-4.267 0,-96.427 -78.507,-174.933 -174.933,-174.933 -96.427,0 -174.933,78.507 -174.933,174.933 0,2.56 -1.707,4.267 -4.267,4.267 -2.56,0 -4.267,-1.707 -4.267,-4.267 C 70.4,120.32 152.32,38.4 253.867,38.4 c 101.547,0 183.467,81.92 183.467,183.467 -10e-4,2.56 -1.707,4.266 -4.267,4.266 z m -34.134,0 c -2.56,0 -4.267,-1.707 -4.267,-4.267 0,-77.653 -63.147,-140.8 -140.8,-140.8 -77.653,0 -140.8,63.147 -140.8,140.8 0,2.56 -1.707,4.267 -4.267,4.267 -2.56,0 -4.267,-1.707 -4.267,-4.267 0,-81.92 67.413,-149.333 149.333,-149.333 81.92,0 149.335,67.414 149.335,149.334 0,2.56 -1.707,4.266 -4.267,4.266 z m -34.133,0 c -2.56,0 -4.267,-1.707 -4.267,-4.267 0,-58.88 -47.787,-106.667 -106.667,-106.667 -58.88,0 -106.666,47.788 -106.666,106.668 0,2.56 -1.707,4.267 -4.267,4.267 -2.56,0 -4.267,-1.707 -4.267,-4.267 0,-63.147 52.053,-115.2 115.2,-115.2 63.147,0 115.2,52.053 115.2,115.2 0.001,2.56 -1.706,4.266 -4.266,4.266 z M 91.733,46.933 c -2.56,0 -4.267,-1.707 -4.267,-4.267 l 0,-12.8 -12.8,0 c -2.56,0 -4.267,-1.707 -4.267,-4.267 0,-2.56 1.707,-4.267 4.267,-4.267 l 12.8,0 0,-12.8 c 0,-2.56 1.707,-4.267 4.267,-4.267 2.56,0 4.267,1.708 4.267,4.268 l 0,12.8 12.8,0 c 2.56,0 4.267,1.707 4.267,4.267 0,2.56 -1.707,4.267 -4.267,4.267 l -12.8,0 0,12.8 c 0,2.56 -1.707,4.266 -4.267,4.266 z M 339.2,29.867 c -2.56,0 -4.267,-1.707 -4.267,-4.267 l 0,-4.267 -4.267,0 c -2.56,0 -4.267,-1.707 -4.267,-4.267 0,-2.56 1.707,-4.267 4.267,-4.267 l 4.267,0 0,-4.266 c 0,-2.56 1.707,-4.267 4.267,-4.267 2.56,0 4.267,1.707 4.267,4.267 l 0,4.267 4.267,0 c 2.56,0 4.267,1.707 4.267,4.267 0,2.56 -1.707,4.267 -4.267,4.267 l -4.267,0 0,4.266 c 0,2.56 -1.707,4.267 -4.267,4.267 z"
           id="path4463"
           sodipodi:nodetypes="ssssssssccsssssccscccscscccsccsscssccssssscsssssscsscccscccscccscccscccccccccccccssssssscssssssssssssssssscssscssscssscssscsssscssscssscssscss" />
        <g
           id="g4465" />
        <g
           id="g4467" />
        <g
           id="g4469" />
        <g
           id="g4471" />
        <g
           id="g4473" />
        <g
           id="g4475" />
        <g
           id="g4477" />
        <g
           id="g4479" />
        <g
           id="g4481" />
        <g
           id="g4483" />
        <g
           id="g4485" />
        <g
           id="g4487" />
        <g
           id="g4489" />
        <g
           id="g4491" />
        <g
           id="g4493" />
      </g>
      <g
         id="g4631"
         transform="matrix(0.89898273,0,0,0.89898273,133.16859,953.11602)">
        <path
           id="path4591"
           d="m 24.85,10.126 c 2.018,-4.783 6.628,-8.125 11.99,-8.125 7.223,0 12.425,6.179 13.079,13.543 0,0 0.353,1.828 -0.424,5.119 -1.058,4.482 -3.545,8.464 -6.898,11.503 L 24.85,48 7.402,32.165 C 4.049,29.127 1.562,25.144 0.504,20.662 -0.273,17.371 0.08,15.543 0.08,15.543 0.734,8.179 5.936,2 13.159,2 c 5.363,0 9.673,3.343 11.691,8.126 z"
           style="fill:#3ec0cf;fill-opacity:1"
           inkscape:connector-curvature="0" />
        <path
           id="path4593"
           d="m 4,16.078 c -0.553,0 -1,-0.447 -1,-1 0,-5.514 4.486,-10 10,-10 0.553,0 1,0.447 1,1 0,0.553 -0.447,1 -1,1 -4.411,0 -8,3.589 -8,8 0,0.553 -0.447,1 -1,1 z"
           style="fill:#2980b9;fill-opacity:1"
           inkscape:connector-curvature="0" />
        <g
           id="g4595" />
        <g
           id="g4597" />
        <g
           id="g4599" />
        <g
           id="g4601" />
        <g
           id="g4603" />
        <g
           id="g4605" />
        <g
           id="g4607" />
        <g
           id="g4609" />
        <g
           id="g4611" />
        <g
           id="g4613" />
        <g
           id="g4615" />
        <g
           id="g4617" />
        <g
           id="g4619" />
        <g
           id="g4621" />
        <g
           id="g4623" />
      </g>
      <g
         id="g4692"
         transform="matrix(0.46519871,0,0,0.46519871,-51.422476,763.717)"
         style="fill:#cb20b0;fill-opacity:1">
        <g
           id="g4651"
           style="fill:#cb20b0;fill-opacity:1">
          <g
             id="Icons_18_"
             style="fill:#cb20b0;fill-opacity:1">
            <path
               id="path4654"
               d="m 417.71517,266.91297 c 0,-5.91588 -4.79583,-10.71147 -10.71171,-10.71147 -3.86295,0 -7.23653,2.05155 -9.1212,5.11752 -1.88442,-3.06597 -5.25945,-5.11752 -9.12233,-5.11752 -5.91588,0 -10.71034,4.79559 -10.71034,10.71147 0,3.22086 1.42724,6.1024 3.67667,8.06467 l 15.17853,15.17917 c 0.25922,0.25922 0.61078,0.40485 0.97747,0.40485 0.36669,0 0.71825,-0.14563 0.97747,-0.40485 l 15.17853,-15.17917 c 2.24951,-1.96227 3.67691,-4.84381 3.67691,-8.06467 z"
               inkscape:connector-curvature="0"
               style="fill:#cb20b0;fill-opacity:1" />
          </g>
        </g>
        <g
           id="g4656"
           style="fill:#cb20b0;fill-opacity:1" />
        <g
           id="g4658"
           style="fill:#cb20b0;fill-opacity:1" />
        <g
           id="g4660"
           style="fill:#cb20b0;fill-opacity:1" />
        <g
           id="g4662"
           style="fill:#cb20b0;fill-opacity:1" />
        <g
           id="g4664"
           style="fill:#cb20b0;fill-opacity:1" />
        <g
           id="g4666"
           style="fill:#cb20b0;fill-opacity:1" />
        <g
           id="g4668"
           style="fill:#cb20b0;fill-opacity:1" />
        <g
           id="g4670"
           style="fill:#cb20b0;fill-opacity:1" />
        <g
           id="g4672"
           style="fill:#cb20b0;fill-opacity:1" />
        <g
           id="g4674"
           style="fill:#cb20b0;fill-opacity:1" />
        <g
           id="g4676"
           style="fill:#cb20b0;fill-opacity:1" />
        <g
           id="g4678"
           style="fill:#cb20b0;fill-opacity:1" />
        <g
           id="g4680"
           style="fill:#cb20b0;fill-opacity:1" />
        <g
           id="g4682"
           style="fill:#cb20b0;fill-opacity:1" />
        <g
           id="g4684"
           style="fill:#cb20b0;fill-opacity:1" />
      </g>
    </g>
  </g>
</svg>
