<?xml version="1.0" encoding="UTF-8" standalone="no"?>
<!-- Created with Inkscape (http://www.inkscape.org/) -->

<svg
   xmlns:dc="http://purl.org/dc/elements/1.1/"
   xmlns:cc="http://creativecommons.org/ns#"
   xmlns:rdf="http://www.w3.org/1999/02/22-rdf-syntax-ns#"
   xmlns:svg="http://www.w3.org/2000/svg"
   xmlns="http://www.w3.org/2000/svg"
   xmlns:sodipodi="http://sodipodi.sourceforge.net/DTD/sodipodi-0.dtd"
   xmlns:inkscape="http://www.inkscape.org/namespaces/inkscape"
   width="744.09448819"
   height="1052.3622047"
   id="svg2"
   version="1.1"
   inkscape:version="0.91 r13725"
   sodipodi:docname="MCfishiessvg.svg">
  <defs
     id="defs4" />
  <sodipodi:namedview
     id="base"
     pagecolor="#ffffff"
     bordercolor="#666666"
     borderopacity="1.0"
     inkscape:pageopacity="0.0"
     inkscape:pageshadow="2"
     inkscape:zoom="5.6"
     inkscape:cx="273.6501"
     inkscape:cy="765.00041"
     inkscape:document-units="px"
     inkscape:current-layer="g3009-1-1-8-2-7-99-4-3-3-4-8-3-1-3-6-6"
     showgrid="false"
     inkscape:window-width="2560"
     inkscape:window-height="1523"
     inkscape:window-x="0"
     inkscape:window-y="25"
     inkscape:window-maximized="1" />
  <metadata
     id="metadata7">
    <rdf:RDF>
      <cc:Work
         rdf:about="">
        <dc:format>image/svg+xml</dc:format>
        <dc:type
           rdf:resource="http://purl.org/dc/dcmitype/StillImage" />
        <dc:title></dc:title>
      </cc:Work>
    </rdf:RDF>
  </metadata>
  <g
     inkscape:label="Layer 1"
     inkscape:groupmode="layer"
     id="layer1">
    <g
       id="g34785-8-8-0-3-1-22-9-1-0-3-6-4-31"
       transform="matrix(0.5,0.8660254,-0.8660254,0.5,486.94836,-135.9946)">
      <g
         id="g3009-1-1-8-2-7-99-4-3-3-4-8-3-1-3-6-6"
         transform="matrix(0.52815414,-0.8491485,0.8491485,0.52815414,-302.73307,305.7974)">
        <path
           style="opacity:1;fill:none;fill-opacity:1;stroke:#000000;stroke-width:0.56499779;stroke-miterlimit:4;stroke-dasharray:none;stroke-opacity:1"
           d="m 283.92087,452.3409 c 2.17915,27.78496 -1.43675,42.43737 -19.9548,63.65811 4.64212,7.4326 10.58757,14.86597 15.20625,19.25321 2.18211,2.167 6.94595,5.99915 13.43958,9.76477 5.67043,3.28825 12.71983,6.41356 19.73971,9.79707 -29.96452,14.33478 -37.50195,27.11429 -42.40603,36.40446 15.79761,5.8394 25.2038,9.93593 41.45252,12.84954 3.68748,-13.99836 13.05508,-22.75117 26.27898,-32.04619 9.09815,9.20041 21.13223,24.85417 25.73865,40.17014 -11.67579,23.65307 -10.98953,31.29751 -10.87883,50.00476 3.75105,-0.33672 15.1206,-13.71278 46.46427,-14.88582 6.45685,-1.73594 16.71255,-18.1583 23.44648,-41.88106 -14.9282,-7.2385 -25.44371,-9.83636 -40.25875,-7.12169 -5.93622,-15.2319 -8.50236,-27.88692 -10.05859,-43.00234 28.02324,-2.41413 52.70491,19.31023 52.57341,18.02077 -0.73132,-15.40922 -1.71775,-19.96589 -0.47599,-31.84553 1.13967,-6.14066 1.22319,-10.27564 10.47511,-27.80947 -13.24344,-1.76613 -13.78706,-3.07624 -26.80862,-1.7882 -9.18121,1.03954 -20.43451,4.47163 -38.54946,16.79413 0.18096,-14.02853 2.27461,-42.61679 -20.81088,-63.40607 -23.10822,6.74369 -41.55409,0.32635 -52.72989,-6.00302 -7.65059,-4.33289 -11.88312,-6.92757 -11.88312,-6.92757 z"
           id="rect3860-7-8-3-88-7-7-3-7-7-4-9-7-3-3-3-2"
           inkscape:connector-curvature="0"
           sodipodi:nodetypes="cccsccccccccccccccccsc" />
        <path
           style="opacity:1;fill:#0000ff;fill-opacity:1;stroke:#0000ff;stroke-width:0.48195747;stroke-miterlimit:4;stroke-dasharray:none;stroke-opacity:1"
           d="M 403.83398 231.81055 C 390.82611 233.92065 392.85056 233.9236 385.57812 234.74219 C 383.50175 235.02758 380.44001 234.72163 379.55469 237.08984 C 377.96314 241.34721 378.15252 247.65281 378.03125 251.3457 C 379.27245 263.92674 386.09944 270.70427 394.40625 275.24414 C 402.68017 279.43997 416.24525 280.70463 418.84766 271.33789 C 420.05091 267.00706 421.34805 264.74153 417.58594 253.42383 C 415.40081 247.29508 413.4664 242.93173 403.83398 231.81055 z M 393.62695 239.17578 C 397.20556 239.15378 401.2568 243.28844 404.04688 247.14258 C 407.53153 252.37377 407.7854 254.10615 407.73438 257.11328 C 407.60032 265.01904 403.29546 263.08682 400.08203 262.34961 C 396.44786 260.95501 392.99893 259.38718 390.11328 255.15625 C 387.97825 249.05734 388.39422 240.97995 391.24609 239.91016 C 392.0004 239.40802 392.80112 239.18086 393.62695 239.17578 z "
           transform="matrix(0.99946128,-0.03282065,0.03282065,0.99946128,-62.665457,247.46047)"
           id="path3812-3-9-6-4-4-3-9-9-5-07-9-1-44-0-7-49-23" />
        <ellipse
           style="fill:#ff0000;fill-opacity:1;stroke:#ff0000;stroke-width:1;stroke-miterlimit:4;stroke-dasharray:none;stroke-opacity:1"
           id="path2998-0-8-3-9-8-8-2-5-6-5-7-5-5-7-1-5-50"
           transform="matrix(0.04752752,-0.02536707,0.04404391,0.08541279,326.40205,440.93205)"
           cx="-119.64286"
           cy="466.29074"
           rx="67.5"
           ry="62.5" />
        <path
           style="fill:none;stroke:#00ff00;stroke-width:1px;stroke-linecap:butt;stroke-linejoin:miter;stroke-opacity:1"
           d="m 317.5,502.8979 c 0,0 24.46429,29.28571 31.60714,43.57142 7.14286,14.28572 12.5,34.10715 16.25,42.85715 3.75,8.75 7.31246,25.72697 15.88388,34.47697"
           id="path3975-8-8-2-2-4-1-6-1-9-66-8-0-5-82-75-1"
           inkscape:connector-curvature="0"
           sodipodi:nodetypes="cssc" />
        <path
           style="fill:none;stroke:#00ff00;stroke-width:1px;stroke-linecap:butt;stroke-linejoin:miter;stroke-opacity:1"
           d="m 369.40914,536.86039 c 0,0 14.52565,-16.77717 58.81136,-9.63431"
           id="path3977-2-0-5-8-1-9-1-39-90-7-6-2-4-4-0-6"
           inkscape:connector-curvature="0"
           sodipodi:nodetypes="cc" />
        <path
           style="fill:none;stroke:#00ff00;stroke-width:1px;stroke-linecap:butt;stroke-linejoin:miter;stroke-opacity:1"
           d="m 370.0047,543.42509 c 0,0 23.21915,-13.00954 53.93344,-0.33097"
           id="path3979-4-1-5-2-8-4-6-4-4-2-4-3-8-6-61-0"
           inkscape:connector-curvature="0"
           sodipodi:nodetypes="cc" />
        <path
           style="fill:none;stroke:#00ff00;stroke-width:1px;stroke-linecap:butt;stroke-linejoin:miter;stroke-opacity:1"
           d="m 370.84476,549.3171 c 0,0 19.11697,-8.45858 53.22412,8.86285"
           id="path3983-5-2-3-7-0-19-4-5-2-7-8-0-7-7-0-24"
           inkscape:connector-curvature="0"
           sodipodi:nodetypes="cc" />
        <path
           style="fill:none;stroke:#00ff00;stroke-width:1px;stroke-linecap:butt;stroke-linejoin:miter;stroke-opacity:1"
           d="m 372.08287,555.07978 c -0.95502,-0.25697 -2.72222,-15.37424 -3.24271,-25.83365"
           id="path3985-5-5-3-7-7-5-9-4-3-0-9-1-5-2-3-58"
           inkscape:connector-curvature="0"
           sodipodi:nodetypes="cc" />
        <path
           style="fill:none;stroke:#00ff00;stroke-width:1px;stroke-linecap:butt;stroke-linejoin:miter;stroke-opacity:1"
           d="m 363.59688,613.13219 c 0,0 4.97455,9.40856 17.11741,10.83713"
           id="path3987-1-0-3-3-9-0-6-5-2-1-9-1-0-55-6-91"
           inkscape:connector-curvature="0"
           sodipodi:nodetypes="cc" />
        <path
           style="fill:none;stroke:#00ff00;stroke-width:1px;stroke-linecap:butt;stroke-linejoin:miter;stroke-opacity:1"
           d="m 382.85048,599.18821 c 0,0 1.2873,10.10762 -1.74842,25.10762"
           id="path3989-7-9-7-2-2-4-0-3-9-2-8-90-3-78-9-10"
           inkscape:connector-curvature="0"
           sodipodi:nodetypes="cc" />
        <path
           style="fill:none;stroke:#00ff00;stroke-width:1px;stroke-linecap:butt;stroke-linejoin:miter;stroke-opacity:1"
           d="m 312.73822,554.93388 c 4.46428,0 17.39354,10.39644 24.71497,16.46787"
           id="path3991-1-4-4-0-2-22-6-4-8-06-6-4-9-8-47-7"
           inkscape:connector-curvature="0"
           sodipodi:nodetypes="cc" />
        <path
           style="fill:none;stroke:#00ff00;stroke-width:1px;stroke-linecap:butt;stroke-linejoin:miter;stroke-opacity:1"
           d="m 318.43964,557.26879 c 0,0 -37.69804,22.20877 -41.0909,36.49449"
           id="path3993-1-7-3-2-8-4-9-0-4-3-2-4-1-0-4-00"
           inkscape:connector-curvature="0"
           sodipodi:nodetypes="cc" />
        <path
           style="fill:none;stroke:#00ff00;stroke-width:1px;stroke-linecap:butt;stroke-linejoin:miter;stroke-opacity:1"
           d="m 324.47015,561.29066 c 0,0 -38.58441,25.09333 -36.26298,36.70047"
           id="path3995-5-8-8-6-7-9-6-1-9-4-4-1-3-9-6-41"
           inkscape:connector-curvature="0"
           sodipodi:nodetypes="cc" />
        <path
           style="fill:none;stroke:#00ff00;stroke-width:1px;stroke-linecap:butt;stroke-linejoin:miter;stroke-opacity:1"
           d="m 330.56091,565.81685 c 0,0 -23.99059,12.87623 -30.41916,35.73337"
           id="path3997-2-3-0-7-5-3-4-93-6-7-3-0-4-36-79-7"
           inkscape:connector-curvature="0"
           sodipodi:nodetypes="cc" />
        <path
           style="fill:none;stroke:#00ff00;stroke-width:1px;stroke-linecap:butt;stroke-linejoin:miter;stroke-opacity:1"
           d="m 364.64286,614.15687 c 0,0 -8.76749,22.57181 -6.26749,44.71467"
           id="path3999-7-5-8-5-7-2-9-08-37-8-1-3-0-4-9-2"
           inkscape:connector-curvature="0"
           sodipodi:nodetypes="cc" />
        <path
           style="fill:none;stroke:#00ff00;stroke-width:1px;stroke-linecap:butt;stroke-linejoin:miter;stroke-opacity:1"
           d="m 369.87458,619.70291 c 0,0 -3.49583,8.62757 -0.99583,33.62757"
           id="path4001-6-1-8-4-8-4-5-1-89-92-5-7-0-6-3-0"
           inkscape:connector-curvature="0"
           sodipodi:nodetypes="cc" />
        <path
           style="fill:none;stroke:#00ff00;stroke-width:1px;stroke-linecap:butt;stroke-linejoin:miter;stroke-opacity:1"
           d="m 375,622.8979 c 0,0 -1.92616,4.46213 7.89527,26.24785"
           id="path4003-1-2-0-41-7-5-3-46-1-8-7-7-5-7-1-54"
           inkscape:connector-curvature="0"
           sodipodi:nodetypes="cc" />
        <path
           style="fill:none;stroke:#00ff00;stroke-width:1px;stroke-linecap:butt;stroke-linejoin:miter;stroke-opacity:1"
           d="m 380.53572,622.8979 c 0,0 3.6707,10.11385 18.49213,24.221"
           id="path4005-4-0-6-7-5-6-9-9-3-9-1-1-1-7-8-5"
           inkscape:connector-curvature="0"
           sodipodi:nodetypes="cc" />
        <path
           style="fill:none;stroke:#00ff00;stroke-width:1px;stroke-linecap:butt;stroke-linejoin:miter;stroke-opacity:1"
           d="m 381.95706,620.18067 c 0,0 8.86132,2.41416 24.57561,20.44987"
           id="path4007-2-1-8-8-4-3-7-1-3-6-4-0-7-6-8-0"
           inkscape:connector-curvature="0"
           sodipodi:nodetypes="cc" />
        <path
           style="fill:none;stroke:#00ff00;stroke-width:1px;stroke-linecap:butt;stroke-linejoin:miter;stroke-opacity:1"
           d="m 382.81858,614.87527 c -3.29413,-1.09804 18.97757,5.20353 30.40614,14.48924"
           id="path4009-3-6-1-4-7-9-1-4-7-6-3-59-4-3-32-7"
           inkscape:connector-curvature="0"
           sodipodi:nodetypes="cc" />
        <path
           style="fill:none;stroke:#00ff00;stroke-width:1px;stroke-linecap:butt;stroke-linejoin:miter;stroke-opacity:1"
           d="m 383.09887,608.18083 c 0,0 19.62983,-2.84267 34.65367,11.15833"
           id="path4011-2-4-9-50-4-3-9-2-7-1-7-10-4-5-9-1"
           inkscape:connector-curvature="0"
           sodipodi:nodetypes="cc" />
        <path
           style="fill:none;stroke:#00ff00;stroke-width:1px;stroke-linecap:butt;stroke-linejoin:miter;stroke-opacity:1"
           d="m 283.47405,474.27082 c 10.95706,-2.29116 17.42294,5.28686 23.2741,13.68454 3.91989,5.62589 8.38112,11.76515 10.69229,15.01011 4.64326,6.5377 7.70241,25.75889 -1.38896,37.88072 -9.09137,12.12183 -16.45562,7.84888 -16.45562,7.84888"
           id="path4013-2-0-8-2-1-2-0-2-6-7-7-3-9-51-36-4"
           inkscape:connector-curvature="0"
           sodipodi:nodetypes="cscsc" />
        <path
           style="fill:none;stroke:#00ff00;stroke-width:1px;stroke-linecap:butt;stroke-linejoin:miter;stroke-opacity:1"
           d="m 302.10232,462.61473 c -2.11918,2.93951 -2.75673,7.62194 -1.71371,11.59597 3.68967,14.05808 21.57539,33.33804 27.4059,37.84614 3.03185,2.85712 7.09161,4.22019 10.99996,5.49378 6.45571,2.10367 13.18735,2.58521 18.29446,0.94594 9.09137,-3.15673 9.59349,-19.58936 9.59349,-19.58936"
           id="path4015-1-6-9-7-9-2-0-2-8-8-0-4-9-3-58-05"
           inkscape:connector-curvature="0"
           sodipodi:nodetypes="cscscc" />
        <path
           style="opacity:1;fill:#0000ff;fill-opacity:1;stroke:#0600ff;stroke-width:0.45977882;stroke-miterlimit:4;stroke-dasharray:none;stroke-opacity:1"
           d="M 343.45508 255.26367 C 339.34741 255.12878 334.55304 258.24838 330.80078 263.75977 C 324.83067 272.52879 324.33484 271.4702 325.22461 275.14844 C 325.8877 282.33904 328.19362 289.68441 332.03906 294.08398 C 339.50233 301.46963 342.70368 306.79015 350.12695 306.50781 C 362.60524 306.03322 365.54944 298.96956 365.91602 287.80664 C 365.78 275.29404 363.69813 271.11495 356.25195 264.39648 C 352.85461 262.27521 347.80185 255.40641 343.45508 255.26367 z M 339.93945 270.8125 C 341.30711 270.85177 342.67256 271.23746 343.68359 271.93945 C 346.27311 273.66956 346.84808 274.54253 350.18359 279.93555 C 352.25678 282.76299 352.71906 287.9201 351.22461 292.17578 C 349.86083 294.11101 345.07844 293.46613 342.0332 291.67773 C 338.54696 288.30929 337.10952 285.53856 336.04883 283.60742 C 333.70144 279.6485 334.09976 278.31308 334.70312 273.64453 C 335.37225 271.6431 337.66003 270.74705 339.93945 270.8125 z "
           transform="matrix(0.99946128,-0.03282065,0.03282065,0.99946128,-62.665457,247.46047)"
           id="path3812-4-2-4-2-7-7-9-1-8-5-5-9-1-4-4-77" />
        <ellipse
           ry="6.0062499"
           rx="3.6364608"
           cy="580.56134"
           cx="-101.35401"
           style="fill:#ff0000;fill-opacity:1;stroke:#ff0000;stroke-width:0.07195306;stroke-miterlimit:4;stroke-dasharray:none;stroke-opacity:1"
           id="path2998-0-9-6-1-7-7-5-1-8-5-18-2-4-6-4-3-8-9"
           transform="matrix(0.76787817,-0.64059591,0.6296488,0.77687991,0,0)" />
      </g>
    </g>
  </g>
</svg>
