<?xml version="1.0" encoding="UTF-8" standalone="no"?>
<!-- Created with Inkscape (http://www.inkscape.org/) -->

<svg
   xmlns:dc="http://purl.org/dc/elements/1.1/"
   xmlns:cc="http://creativecommons.org/ns#"
   xmlns:rdf="http://www.w3.org/1999/02/22-rdf-syntax-ns#"
   xmlns:svg="http://www.w3.org/2000/svg"
   xmlns="http://www.w3.org/2000/svg"
   xmlns:sodipodi="http://sodipodi.sourceforge.net/DTD/sodipodi-0.dtd"
   xmlns:inkscape="http://www.inkscape.org/namespaces/inkscape"
   width="744.09448819"
   height="1052.3622047"
   id="svg2"
   version="1.1"
   inkscape:version="0.48.4 r9939"
   sodipodi:docname="MCfishiessvg.svg">
  <defs
     id="defs4" />
  <sodipodi:namedview
     id="base"
     pagecolor="#ffffff"
     bordercolor="#666666"
     borderopacity="1.0"
     inkscape:pageopacity="0.0"
     inkscape:pageshadow="2"
     inkscape:zoom="1.4"
     inkscape:cx="444.47295"
     inkscape:cy="743.58377"
     inkscape:document-units="px"
     inkscape:current-layer="layer1"
     showgrid="false"
     inkscape:window-width="1536"
     inkscape:window-height="803"
     inkscape:window-x="-8"
     inkscape:window-y="-8"
     inkscape:window-maximized="1" />
  <metadata
     id="metadata7">
    <rdf:RDF>
      <cc:Work
         rdf:about="">
        <dc:format>image/svg+xml</dc:format>
        <dc:type
           rdf:resource="http://purl.org/dc/dcmitype/StillImage" />
        <dc:title></dc:title>
      </cc:Work>
    </rdf:RDF>
  </metadata>
  <g
     inkscape:label="Layer 1"
     inkscape:groupmode="layer"
     id="layer1">
    <g
       id="g34785-8-8-0-3"
       transform="matrix(-0.5,0.8660254,-0.8660254,-0.5,941.37786,250.458)">
      <g
         id="g3009-1-1-8-2-7-99-4"
         transform="matrix(0.52815414,-0.8491485,0.8491485,0.52815414,-302.73307,305.7974)">
        <path
           style="opacity:0.5;fill:#000000;fill-opacity:1;stroke:#0aff00;stroke-width:0.56499779;stroke-miterlimit:4;stroke-opacity:1;stroke-dasharray:none"
           d="m 283.90981,450.64392 c 0,0 1.58249,24.24035 -2.6014,36.54472 -1.73003,5.64344 -6.81453,16.46713 -13.62397,23.68061 1.92753,4.87191 7.13924,17.26929 14.11091,24.87355 4.08758,4.0593 15.4974,11.81305 30.55626,19.07126 -32.04336,13.59904 -40.1945,40.33478 -44.00135,50.39293 15.79761,5.8394 29.0916,-2.25181 45.34032,0.6618 3.0423,-14.60251 10.6952,-26.60437 23.9865,-33.84692 9.09815,9.20041 21.13223,24.85417 25.73865,40.17014 -11.67579,23.65307 -13.89516,33.22482 -13.78446,51.93207 3.75105,-0.33672 18.02623,-15.64009 49.3699,-16.81313 6.45685,-1.73594 16.71255,-18.1583 23.44648,-41.88106 -14.9282,-7.2385 -25.44371,-9.83636 -40.25875,-7.12169 -5.93622,-15.2319 -8.18052,-27.39936 -9.73675,-42.51478 31.02565,-2.06964 51.52709,19.2993 51.74309,18.23981 -3.57573,-18.39848 -3.41865,-23.12735 -1.25225,-34.74565 3.57487,-15.016 5.24666,-16.02608 15.21484,-27.77065 -13.24344,-1.76613 -16.59081,-4.73777 -29.61237,-3.44973 -9.18121,1.03954 -21.04377,7.31278 -39.15872,19.63528 -0.353,-13.96633 4.59342,-43.63216 -20.52372,-64.73373 -38.77538,10.21818 -64.95321,-12.32483 -64.95321,-12.32483 z"
           id="rect3860-7-8-3-88-7-7-3"
           inkscape:connector-curvature="0"
           sodipodi:nodetypes="ccccccccccccccccccccc" />
        <path
           style="opacity:0.5;fill:#000000;fill-opacity:1;stroke:#0600ff;stroke-width:0.48195747;stroke-miterlimit:4;stroke-opacity:1;stroke-dasharray:none"
           d="m 330.48389,467.84012 c -2.06589,0.35339 -5.20959,1.72987 -6.01671,4.12586 -1.45096,4.30731 -1.05647,10.60253 -1.05647,14.29741 1.65345,12.53352 8.70045,19.08343 17.15179,23.34822 8.40717,3.92201 22.00553,4.74175 24.29911,-4.70536 1.06046,-4.36799 2.28339,-6.67565 -1.84815,-17.86378 -2.3851,-6.05373 -7.47227,-15.16141 -14.20718,-23.34275 -11.29287,6.27219 -11.08074,3.08357 -18.32239,4.1404 z"
           id="path3812-3-9-6-4-4-3-9-9"
           inkscape:connector-curvature="0"
           sodipodi:nodetypes="csccsccc" />
        <path
           style="opacity:0.5;fill:#000000;fill-opacity:1;stroke:#0600ff;stroke-width:0.34643695;stroke-miterlimit:4;stroke-opacity:1;stroke-dasharray:none"
           d="m 336.24427,474.40052 c -2.81523,1.16282 -2.96603,9.24983 -0.63198,15.27538 3.02296,4.13394 6.52127,5.58744 10.19926,6.86201 3.23589,0.63135 7.6028,2.42177 7.47731,-5.48413 -0.0477,-3.00719 -0.35985,-4.73149 -4.01432,-9.8455 -3.58777,-4.6283 -9.09735,-9.6164 -13.03027,-6.80776 z"
           id="path3807-4-0-9-0-7-3-2"
           inkscape:connector-curvature="0"
           sodipodi:nodetypes="cccscc" />
        <path
           sodipodi:type="arc"
           style="fill:#000000;fill-opacity:1;stroke:#ff0000;stroke-width:1;stroke-miterlimit:4;stroke-opacity:1;stroke-dasharray:none"
           id="path2998-0-8-3-9-8-8-2-5"
           sodipodi:cx="-119.64286"
           sodipodi:cy="466.29074"
           sodipodi:rx="67.5"
           sodipodi:ry="62.5"
           d="m -52.14286,466.29074 c 0,34.5178 -30.22078,62.5 -67.5,62.5 -37.27922,0 -67.5,-27.9822 -67.5,-62.5 0,-34.5178 30.22078,-62.5 67.5,-62.5 37.27922,0 67.5,27.9822 67.5,62.5 z"
           transform="matrix(0.04752752,-0.02536707,0.04404391,0.08541279,326.40205,440.93205)" />
        <path
           style="fill:none;stroke:#00ebff;stroke-width:1px;stroke-linecap:butt;stroke-linejoin:miter;stroke-opacity:1"
           d="m 317.5,502.8979 c 0,0 24.46429,29.28571 31.60714,43.57142 7.14286,14.28572 12.5,34.10715 16.25,42.85715 3.75,8.75 7.31246,25.72697 15.88388,34.47697"
           id="path3975-8-8-2-2-4-1-6"
           inkscape:connector-curvature="0"
           sodipodi:nodetypes="cssc" />
        <path
           style="fill:none;stroke:#00ffe7;stroke-width:1px;stroke-linecap:butt;stroke-linejoin:miter;stroke-opacity:1"
           d="m 369.59055,536.94377 c 0,0 13.44517,-17.43873 57.73088,-10.29587"
           id="path3977-2-0-5-8-1-9-1"
           inkscape:connector-curvature="0"
           sodipodi:nodetypes="cc" />
        <path
           style="fill:none;stroke:#00fff7;stroke-width:1px;stroke-linecap:butt;stroke-linejoin:miter;stroke-opacity:1"
           d="m 369.78893,543.65551 c 0,0 22.64979,-13.77166 53.36408,-1.09309"
           id="path3979-4-1-5-2-8-4-6"
           inkscape:connector-curvature="0"
           sodipodi:nodetypes="cc" />
        <path
           style="fill:none;stroke:#00fff1;stroke-width:1px;stroke-linecap:butt;stroke-linejoin:miter;stroke-opacity:1"
           d="m 370.13525,549.4744 c 0,0 17.42974,-9.84309 51.53689,7.47834"
           id="path3983-5-2-3-7-0-19-4"
           inkscape:connector-curvature="0"
           sodipodi:nodetypes="cc" />
        <path
           style="fill:none;stroke:#00fff6;stroke-width:1px;stroke-linecap:butt;stroke-linejoin:miter;stroke-opacity:1"
           d="m 372.08287,555.07978 c -0.95502,-0.25697 -2.72222,-15.37424 -3.24271,-25.83365"
           id="path3985-5-5-3-7-7-5-9"
           inkscape:connector-curvature="0"
           sodipodi:nodetypes="cc" />
        <path
           style="fill:none;stroke:#00fcff;stroke-width:1px;stroke-linecap:butt;stroke-linejoin:miter;stroke-opacity:1"
           d="m 364.43372,614.13205 c 0,0 4.13771,8.4087 16.28057,9.83727"
           id="path3987-1-0-3-3-9-0-6"
           inkscape:connector-curvature="0"
           sodipodi:nodetypes="cc" />
        <path
           style="fill:none;stroke:#00f2ff;stroke-width:1px;stroke-linecap:butt;stroke-linejoin:miter;stroke-opacity:1"
           d="m 382.85714,600.75133 c 0,0 1.28064,8.5445 -1.75508,23.5445"
           id="path3989-7-9-7-2-2-4-0"
           inkscape:connector-curvature="0"
           sodipodi:nodetypes="cc" />
        <path
           style="fill:none;stroke:#00ffea;stroke-width:1px;stroke-linecap:butt;stroke-linejoin:miter;stroke-opacity:1"
           d="m 309.89354,553.99996 c 4.46428,0 20.92721,10.5484 28.24864,16.61983"
           id="path3991-1-4-4-0-2-22-6"
           inkscape:connector-curvature="0"
           sodipodi:nodetypes="cc" />
        <path
           style="fill:none;stroke:#00f4ff;stroke-width:1px;stroke-linecap:butt;stroke-linejoin:miter;stroke-opacity:1"
           d="m 318.18365,557.63453 c 0,0 -36.06246,23.0484 -39.45532,37.33412"
           id="path3993-1-7-3-2-8-4-9"
           inkscape:connector-curvature="0"
           sodipodi:nodetypes="cc" />
        <path
           style="fill:none;stroke:#00ffff;stroke-width:1px;stroke-linecap:butt;stroke-linejoin:miter;stroke-opacity:1"
           d="m 324.46429,561.11218 c 0,0 -37.74171,26.27167 -35.42028,37.87881"
           id="path3995-5-8-8-6-7-9-6"
           inkscape:connector-curvature="0"
           sodipodi:nodetypes="cc" />
        <path
           style="fill:none;stroke:#00fffb;stroke-width:1px;stroke-linecap:butt;stroke-linejoin:miter;stroke-opacity:1"
           d="m 331.07143,565.04075 c 0,0 -23.9196,13.6779 -30.34817,36.53504"
           id="path3997-2-3-0-7-5-3-4"
           inkscape:connector-curvature="0"
           sodipodi:nodetypes="cc" />
        <path
           style="fill:none;stroke:#00e9ff;stroke-width:1px;stroke-linecap:butt;stroke-linejoin:miter;stroke-opacity:1"
           d="m 364.64286,614.15687 c 0,0 -9.10714,17.6696 -6.60714,39.81246"
           id="path3999-7-5-8-5-7-2-9"
           inkscape:connector-curvature="0"
           sodipodi:nodetypes="cc" />
        <path
           style="fill:none;stroke:#00fffb;stroke-width:1px;stroke-linecap:butt;stroke-linejoin:miter;stroke-opacity:1"
           d="m 369.9477,619.20917 c 0,0 -4.05484,5.20658 -1.55484,30.20658"
           id="path4001-6-1-8-4-8-4-5"
           inkscape:connector-curvature="0"
           sodipodi:nodetypes="cc" />
        <path
           style="fill:none;stroke:#00ffee;stroke-width:1px;stroke-linecap:butt;stroke-linejoin:miter;stroke-opacity:1"
           d="m 375,622.8979 c 0,0 -3.39286,1.96428 6.42857,23.75"
           id="path4003-1-2-0-41-7-5-3"
           inkscape:connector-curvature="0"
           sodipodi:nodetypes="cc" />
        <path
           style="fill:none;stroke:#00ffff;stroke-width:1px;stroke-linecap:butt;stroke-linejoin:miter;stroke-opacity:1"
           d="m 380.53572,622.8979 c 0,0 2.90046,9.78181 17.72189,23.88896"
           id="path4005-4-0-6-7-5-6-9"
           inkscape:connector-curvature="0"
           sodipodi:nodetypes="cc" />
        <path
           style="fill:none;stroke:#00ffe6;stroke-width:1px;stroke-linecap:butt;stroke-linejoin:miter;stroke-opacity:1"
           d="m 382.14286,620.3979 c 0,0 7.18618,0.36983 22.90047,18.40554"
           id="path4007-2-1-8-8-4-3-7"
           inkscape:connector-curvature="0"
           sodipodi:nodetypes="cc" />
        <path
           style="fill:none;stroke:#00ffe3;stroke-width:1px;stroke-linecap:butt;stroke-linejoin:miter;stroke-opacity:1"
           d="m 383.21429,614.68361 c -3.29413,-1.09804 17.74356,4.35071 29.17213,13.63642"
           id="path4009-3-6-1-4-7-9-1"
           inkscape:connector-curvature="0"
           sodipodi:nodetypes="cc" />
        <path
           style="fill:none;stroke:#05f1f9;stroke-width:1px;stroke-linecap:butt;stroke-linejoin:miter;stroke-opacity:1"
           d="m 383.57143,608.96932 c 0,0 19.15727,-3.63116 34.18111,10.36984"
           id="path4011-2-4-9-50-4-3-9"
           inkscape:connector-curvature="0"
           sodipodi:nodetypes="cc" />
        <path
           style="fill:none;stroke:#00fff7;stroke-width:1px;stroke-linecap:butt;stroke-linejoin:miter;stroke-opacity:1"
           d="m 283.47405,474.27082 c 0,0 10.29545,-6.80652 15.40483,1.16799 10.07296,15.72146 7.07107,10.48033 18.56156,27.52666 4.48208,6.64924 7.70241,25.75889 -1.38896,37.88072 -9.09137,12.12183 -20.77126,7.00793 -20.77126,7.00793"
           id="path4013-2-0-8-2-1-2-0"
           inkscape:connector-curvature="0"
           sodipodi:nodetypes="csssc" />
        <path
           style="fill:none;stroke:#00ffec;stroke-width:1px;stroke-linecap:butt;stroke-linejoin:miter;stroke-opacity:1"
           d="m 307.02324,459.56047 c -6.73199,2.46955 -8.2531,8.48367 -6.63463,14.65023 3.68965,14.05809 21.57539,33.33804 27.4059,37.84614 3.03185,2.85712 7.09161,4.22019 10.99996,5.49378 6.45571,2.10367 13.18735,2.58521 18.29446,0.94594 9.09137,-3.15673 9.53942,-18.51558 9.53942,-18.51558"
           id="path4015-1-6-9-7-9-2-0"
           inkscape:connector-curvature="0"
           sodipodi:nodetypes="cscscc" />
        <g
           id="g35349-5-5-0-0"
           transform="translate(2.1015758,-0.90164909)">
          <path
             sodipodi:nodetypes="ssccsccs"
             inkscape:connector-curvature="0"
             id="path3812-4-2-4-2-7-7-9"
             d="m 286.88008,492.21621 c -4.10988,0 -8.7016,2.32889 -12.26403,7.96484 -5.68706,8.99725 -6.28569,5.85044 -5.30355,12.50645 0.89873,7.16497 3.44432,14.43117 7.43209,18.70216 7.70165,7.13672 11.07557,12.3492 18.48558,11.82338 12.45599,-0.88388 15.16847,-8.03966 15.16847,-19.2086 -0.54661,-12.5014 -2.76569,-16.60931 -10.42836,-23.07977 -3.46513,-2.00863 -8.74108,-8.70846 -13.0902,-8.70846 z"
             style="opacity:0.5;fill:#000000;fill-opacity:1;stroke:#0600ff;stroke-width:0.45977882;stroke-miterlimit:4;stroke-opacity:1;stroke-dasharray:none" />
          <path
             sodipodi:nodetypes="ccccccc"
             inkscape:connector-curvature="0"
             id="path3786-0-6-8-3-7-8-9"
             d="m 278.73788,510.875 c -0.44982,4.68584 -0.8045,6.03223 1.67156,9.91198 1.1235,1.89529 2.65062,4.61833 6.24554,7.87054 3.10229,1.68749 7.90263,2.17411 9.20216,0.19516 1.35397,-4.30244 0.72418,-9.44041 -1.44069,-12.19829 -3.51072,-5.28064 -4.1153,-6.1352 -6.7602,-7.77939 -2.75608,-1.78249 -7.95345,-1.2357 -8.91837,2 z"
             style="opacity:0.5;fill:#000000;fill-opacity:1;stroke:#0600ff;stroke-width:0.31252107;stroke-miterlimit:4;stroke-opacity:1;stroke-dasharray:none" />
          <path
             transform="matrix(0.04136828,-0.03451114,0.06050925,0.07465816,262.35516,477.91364)"
             d="m -52.14286,466.29074 c 0,34.5178 -30.22078,62.5 -67.5,62.5 -37.27922,0 -67.5,-27.9822 -67.5,-62.5 0,-34.5178 30.22078,-62.5 67.5,-62.5 37.27922,0 67.5,27.9822 67.5,62.5 z"
             sodipodi:ry="62.5"
             sodipodi:rx="67.5"
             sodipodi:cy="466.29074"
             sodipodi:cx="-119.64286"
             id="path2998-0-9-6-1-7-7-5-1-8"
             style="fill:#000000;fill-opacity:1;stroke:#ff0000;stroke-width:1;stroke-miterlimit:4;stroke-opacity:1;stroke-dasharray:none"
             sodipodi:type="arc" />
        </g>
      </g>
    </g>
    <g
       id="g34785-8-8-0-3-6"
       transform="translate(231.36877,-36.605701)">
      <g
         id="g3009-1-1-8-2-7-99-4-1"
         transform="matrix(0.52815414,-0.8491485,0.8491485,0.52815414,-302.73307,305.7974)">
        <path
           style="opacity:0.5;fill:#000000;fill-opacity:1;stroke:#0aff00;stroke-width:0.56499779;stroke-miterlimit:4;stroke-opacity:1;stroke-dasharray:none"
           d="m 283.90981,450.64392 c 0,0 1.58249,24.24035 -2.6014,36.54472 -1.73003,5.64344 -6.81453,16.46713 -13.62397,23.68061 1.92753,4.87191 7.13924,17.26929 14.11091,24.87355 4.08758,4.0593 15.4974,11.81305 30.55626,19.07126 -32.04336,13.59904 -40.1945,40.33478 -44.00135,50.39293 15.79761,5.8394 29.0916,-2.25181 45.34032,0.6618 3.0423,-14.60251 10.6952,-26.60437 23.9865,-33.84692 9.09815,9.20041 21.13223,24.85417 25.73865,40.17014 -11.67579,23.65307 -13.89516,33.22482 -13.78446,51.93207 3.75105,-0.33672 18.02623,-15.64009 49.3699,-16.81313 6.45685,-1.73594 16.71255,-18.1583 23.44648,-41.88106 -14.9282,-7.2385 -25.44371,-9.83636 -40.25875,-7.12169 -5.93622,-15.2319 -8.18052,-27.39936 -9.73675,-42.51478 31.02565,-2.06964 51.52709,19.2993 51.74309,18.23981 -3.57573,-18.39848 -3.41865,-23.12735 -1.25225,-34.74565 3.57487,-15.016 5.24666,-16.02608 15.21484,-27.77065 -13.24344,-1.76613 -16.59081,-4.73777 -29.61237,-3.44973 -9.18121,1.03954 -21.04377,7.31278 -39.15872,19.63528 -0.353,-13.96633 4.59342,-43.63216 -20.52372,-64.73373 -38.77538,10.21818 -64.95321,-12.32483 -64.95321,-12.32483 z"
           id="rect3860-7-8-3-88-7-7-3-3"
           inkscape:connector-curvature="0"
           sodipodi:nodetypes="ccccccccccccccccccccc" />
        <path
           style="opacity:0.5;fill:#000000;fill-opacity:1;stroke:#0600ff;stroke-width:0.48195747;stroke-miterlimit:4;stroke-opacity:1;stroke-dasharray:none"
           d="m 330.48389,467.84012 c -2.06589,0.35339 -5.20959,1.72987 -6.01671,4.12586 -1.45096,4.30731 -1.05647,10.60253 -1.05647,14.29741 1.65345,12.53352 8.70045,19.08343 17.15179,23.34822 8.40717,3.92201 22.00553,4.74175 24.29911,-4.70536 1.06046,-4.36799 2.28339,-6.67565 -1.84815,-17.86378 -2.3851,-6.05373 -7.47227,-15.16141 -14.20718,-23.34275 -11.29287,6.27219 -11.08074,3.08357 -18.32239,4.1404 z"
           id="path3812-3-9-6-4-4-3-9-9-7"
           inkscape:connector-curvature="0"
           sodipodi:nodetypes="csccsccc" />
        <path
           style="opacity:0.5;fill:#000000;fill-opacity:1;stroke:#0600ff;stroke-width:0.34643695;stroke-miterlimit:4;stroke-opacity:1;stroke-dasharray:none"
           d="m 336.24427,474.40052 c -2.81523,1.16282 -2.96603,9.24983 -0.63198,15.27538 3.02296,4.13394 6.52127,5.58744 10.19926,6.86201 3.23589,0.63135 7.6028,2.42177 7.47731,-5.48413 -0.0477,-3.00719 -0.35985,-4.73149 -4.01432,-9.8455 -3.58777,-4.6283 -9.09735,-9.6164 -13.03027,-6.80776 z"
           id="path3807-4-0-9-0-7-3-2-7"
           inkscape:connector-curvature="0"
           sodipodi:nodetypes="cccscc" />
        <path
           sodipodi:type="arc"
           style="fill:#000000;fill-opacity:1;stroke:#ff0000;stroke-width:1;stroke-miterlimit:4;stroke-opacity:1;stroke-dasharray:none"
           id="path2998-0-8-3-9-8-8-2-5-8"
           sodipodi:cx="-119.64286"
           sodipodi:cy="466.29074"
           sodipodi:rx="67.5"
           sodipodi:ry="62.5"
           d="m -52.14286,466.29074 c 0,34.5178 -30.22078,62.5 -67.5,62.5 -37.27922,0 -67.5,-27.9822 -67.5,-62.5 0,-34.5178 30.22078,-62.5 67.5,-62.5 37.27922,0 67.5,27.9822 67.5,62.5 z"
           transform="matrix(0.04752752,-0.02536707,0.04404391,0.08541279,326.40205,440.93205)" />
        <path
           style="fill:none;stroke:#00ebff;stroke-width:1px;stroke-linecap:butt;stroke-linejoin:miter;stroke-opacity:1"
           d="m 317.5,502.8979 c 0,0 24.46429,29.28571 31.60714,43.57142 7.14286,14.28572 12.5,34.10715 16.25,42.85715 3.75,8.75 7.31246,25.72697 15.88388,34.47697"
           id="path3975-8-8-2-2-4-1-6-6"
           inkscape:connector-curvature="0"
           sodipodi:nodetypes="cssc" />
        <path
           style="fill:none;stroke:#00ffe7;stroke-width:1px;stroke-linecap:butt;stroke-linejoin:miter;stroke-opacity:1"
           d="m 369.59055,536.94377 c 0,0 13.44517,-17.43873 57.73088,-10.29587"
           id="path3977-2-0-5-8-1-9-1-3"
           inkscape:connector-curvature="0"
           sodipodi:nodetypes="cc" />
        <path
           style="fill:none;stroke:#00fff7;stroke-width:1px;stroke-linecap:butt;stroke-linejoin:miter;stroke-opacity:1"
           d="m 369.78893,543.65551 c 0,0 22.64979,-13.77166 53.36408,-1.09309"
           id="path3979-4-1-5-2-8-4-6-3"
           inkscape:connector-curvature="0"
           sodipodi:nodetypes="cc" />
        <path
           style="fill:none;stroke:#00fff1;stroke-width:1px;stroke-linecap:butt;stroke-linejoin:miter;stroke-opacity:1"
           d="m 370.13525,549.4744 c 0,0 17.42974,-9.84309 51.53689,7.47834"
           id="path3983-5-2-3-7-0-19-4-0"
           inkscape:connector-curvature="0"
           sodipodi:nodetypes="cc" />
        <path
           style="fill:none;stroke:#00fff6;stroke-width:1px;stroke-linecap:butt;stroke-linejoin:miter;stroke-opacity:1"
           d="m 372.08287,555.07978 c -0.95502,-0.25697 -2.72222,-15.37424 -3.24271,-25.83365"
           id="path3985-5-5-3-7-7-5-9-5"
           inkscape:connector-curvature="0"
           sodipodi:nodetypes="cc" />
        <path
           style="fill:none;stroke:#00fcff;stroke-width:1px;stroke-linecap:butt;stroke-linejoin:miter;stroke-opacity:1"
           d="m 364.43372,614.13205 c 0,0 4.13771,8.4087 16.28057,9.83727"
           id="path3987-1-0-3-3-9-0-6-0"
           inkscape:connector-curvature="0"
           sodipodi:nodetypes="cc" />
        <path
           style="fill:none;stroke:#00f2ff;stroke-width:1px;stroke-linecap:butt;stroke-linejoin:miter;stroke-opacity:1"
           d="m 382.85714,600.75133 c 0,0 1.28064,8.5445 -1.75508,23.5445"
           id="path3989-7-9-7-2-2-4-0-2"
           inkscape:connector-curvature="0"
           sodipodi:nodetypes="cc" />
        <path
           style="fill:none;stroke:#00ffea;stroke-width:1px;stroke-linecap:butt;stroke-linejoin:miter;stroke-opacity:1"
           d="m 309.89354,553.99996 c 4.46428,0 20.92721,10.5484 28.24864,16.61983"
           id="path3991-1-4-4-0-2-22-6-5"
           inkscape:connector-curvature="0"
           sodipodi:nodetypes="cc" />
        <path
           style="fill:none;stroke:#00f4ff;stroke-width:1px;stroke-linecap:butt;stroke-linejoin:miter;stroke-opacity:1"
           d="m 318.18365,557.63453 c 0,0 -36.06246,23.0484 -39.45532,37.33412"
           id="path3993-1-7-3-2-8-4-9-7"
           inkscape:connector-curvature="0"
           sodipodi:nodetypes="cc" />
        <path
           style="fill:none;stroke:#00ffff;stroke-width:1px;stroke-linecap:butt;stroke-linejoin:miter;stroke-opacity:1"
           d="m 324.46429,561.11218 c 0,0 -37.74171,26.27167 -35.42028,37.87881"
           id="path3995-5-8-8-6-7-9-6-5"
           inkscape:connector-curvature="0"
           sodipodi:nodetypes="cc" />
        <path
           style="fill:none;stroke:#00fffb;stroke-width:1px;stroke-linecap:butt;stroke-linejoin:miter;stroke-opacity:1"
           d="m 331.07143,565.04075 c 0,0 -23.9196,13.6779 -30.34817,36.53504"
           id="path3997-2-3-0-7-5-3-4-9"
           inkscape:connector-curvature="0"
           sodipodi:nodetypes="cc" />
        <path
           style="fill:none;stroke:#00e9ff;stroke-width:1px;stroke-linecap:butt;stroke-linejoin:miter;stroke-opacity:1"
           d="m 364.64286,614.15687 c 0,0 -9.10714,17.6696 -6.60714,39.81246"
           id="path3999-7-5-8-5-7-2-9-0"
           inkscape:connector-curvature="0"
           sodipodi:nodetypes="cc" />
        <path
           style="fill:none;stroke:#00fffb;stroke-width:1px;stroke-linecap:butt;stroke-linejoin:miter;stroke-opacity:1"
           d="m 369.9477,619.20917 c 0,0 -4.05484,5.20658 -1.55484,30.20658"
           id="path4001-6-1-8-4-8-4-5-5"
           inkscape:connector-curvature="0"
           sodipodi:nodetypes="cc" />
        <path
           style="fill:none;stroke:#00ffee;stroke-width:1px;stroke-linecap:butt;stroke-linejoin:miter;stroke-opacity:1"
           d="m 375,622.8979 c 0,0 -3.39286,1.96428 6.42857,23.75"
           id="path4003-1-2-0-41-7-5-3-4"
           inkscape:connector-curvature="0"
           sodipodi:nodetypes="cc" />
        <path
           style="fill:none;stroke:#00ffff;stroke-width:1px;stroke-linecap:butt;stroke-linejoin:miter;stroke-opacity:1"
           d="m 380.53572,622.8979 c 0,0 2.90046,9.78181 17.72189,23.88896"
           id="path4005-4-0-6-7-5-6-9-7"
           inkscape:connector-curvature="0"
           sodipodi:nodetypes="cc" />
        <path
           style="fill:none;stroke:#00ffe6;stroke-width:1px;stroke-linecap:butt;stroke-linejoin:miter;stroke-opacity:1"
           d="m 382.14286,620.3979 c 0,0 7.18618,0.36983 22.90047,18.40554"
           id="path4007-2-1-8-8-4-3-7-3"
           inkscape:connector-curvature="0"
           sodipodi:nodetypes="cc" />
        <path
           style="fill:none;stroke:#00ffe3;stroke-width:1px;stroke-linecap:butt;stroke-linejoin:miter;stroke-opacity:1"
           d="m 383.21429,614.68361 c -3.29413,-1.09804 17.74356,4.35071 29.17213,13.63642"
           id="path4009-3-6-1-4-7-9-1-3"
           inkscape:connector-curvature="0"
           sodipodi:nodetypes="cc" />
        <path
           style="fill:none;stroke:#05f1f9;stroke-width:1px;stroke-linecap:butt;stroke-linejoin:miter;stroke-opacity:1"
           d="m 383.57143,608.96932 c 0,0 19.15727,-3.63116 34.18111,10.36984"
           id="path4011-2-4-9-50-4-3-9-9"
           inkscape:connector-curvature="0"
           sodipodi:nodetypes="cc" />
        <path
           style="fill:none;stroke:#00fff7;stroke-width:1px;stroke-linecap:butt;stroke-linejoin:miter;stroke-opacity:1"
           d="m 283.47405,474.27082 c 0,0 10.29545,-6.80652 15.40483,1.16799 10.07296,15.72146 7.07107,10.48033 18.56156,27.52666 4.48208,6.64924 7.70241,25.75889 -1.38896,37.88072 -9.09137,12.12183 -20.77126,7.00793 -20.77126,7.00793"
           id="path4013-2-0-8-2-1-2-0-7"
           inkscape:connector-curvature="0"
           sodipodi:nodetypes="csssc" />
        <path
           style="fill:none;stroke:#00ffec;stroke-width:1px;stroke-linecap:butt;stroke-linejoin:miter;stroke-opacity:1"
           d="m 307.02324,459.56047 c -6.73199,2.46955 -8.2531,8.48367 -6.63463,14.65023 3.68965,14.05809 21.57539,33.33804 27.4059,37.84614 3.03185,2.85712 7.09161,4.22019 10.99996,5.49378 6.45571,2.10367 13.18735,2.58521 18.29446,0.94594 9.09137,-3.15673 9.53942,-18.51558 9.53942,-18.51558"
           id="path4015-1-6-9-7-9-2-0-4"
           inkscape:connector-curvature="0"
           sodipodi:nodetypes="cscscc" />
        <g
           id="g35349-5-5-0-0-6"
           transform="translate(2.1015758,-0.90164909)">
          <path
             sodipodi:nodetypes="ssccsccs"
             inkscape:connector-curvature="0"
             id="path3812-4-2-4-2-7-7-9-8"
             d="m 286.88008,492.21621 c -4.10988,0 -8.7016,2.32889 -12.26403,7.96484 -5.68706,8.99725 -6.28569,5.85044 -5.30355,12.50645 0.89873,7.16497 3.44432,14.43117 7.43209,18.70216 7.70165,7.13672 11.07557,12.3492 18.48558,11.82338 12.45599,-0.88388 15.16847,-8.03966 15.16847,-19.2086 -0.54661,-12.5014 -2.76569,-16.60931 -10.42836,-23.07977 -3.46513,-2.00863 -8.74108,-8.70846 -13.0902,-8.70846 z"
             style="opacity:0.5;fill:#000000;fill-opacity:1;stroke:#0600ff;stroke-width:0.45977882;stroke-miterlimit:4;stroke-opacity:1;stroke-dasharray:none" />
          <path
             sodipodi:nodetypes="ccccccc"
             inkscape:connector-curvature="0"
             id="path3786-0-6-8-3-7-8-9-8"
             d="m 278.73788,510.875 c -0.44982,4.68584 -0.8045,6.03223 1.67156,9.91198 1.1235,1.89529 2.65062,4.61833 6.24554,7.87054 3.10229,1.68749 7.90263,2.17411 9.20216,0.19516 1.35397,-4.30244 0.72418,-9.44041 -1.44069,-12.19829 -3.51072,-5.28064 -4.1153,-6.1352 -6.7602,-7.77939 -2.75608,-1.78249 -7.95345,-1.2357 -8.91837,2 z"
             style="opacity:0.5;fill:#000000;fill-opacity:1;stroke:#0600ff;stroke-width:0.31252107;stroke-miterlimit:4;stroke-opacity:1;stroke-dasharray:none" />
          <path
             transform="matrix(0.04136828,-0.03451114,0.06050925,0.07465816,262.35516,477.91364)"
             d="m -52.14286,466.29074 c 0,34.5178 -30.22078,62.5 -67.5,62.5 -37.27922,0 -67.5,-27.9822 -67.5,-62.5 0,-34.5178 30.22078,-62.5 67.5,-62.5 37.27922,0 67.5,27.9822 67.5,62.5 z"
             sodipodi:ry="62.5"
             sodipodi:rx="67.5"
             sodipodi:cy="466.29074"
             sodipodi:cx="-119.64286"
             id="path2998-0-9-6-1-7-7-5-1-8-3"
             style="fill:#000000;fill-opacity:1;stroke:#ff0000;stroke-width:1;stroke-miterlimit:4;stroke-opacity:1;stroke-dasharray:none"
             sodipodi:type="arc" />
        </g>
      </g>
    </g>
    <g
       id="g34785-8-8-0-3-1"
       transform="matrix(-0.5,-0.8660254,0.8660254,-0.5,338.54618,722.17541)">
      <g
         id="g3009-1-1-8-2-7-99-4-3"
         transform="matrix(0.52815414,-0.8491485,0.8491485,0.52815414,-302.73307,305.7974)">
        <path
           style="opacity:0.5;fill:#000000;fill-opacity:1;stroke:#0aff00;stroke-width:0.56499779;stroke-miterlimit:4;stroke-opacity:1;stroke-dasharray:none"
           d="m 283.90981,450.64392 c 0,0 1.58249,24.24035 -2.6014,36.54472 -1.73003,5.64344 -6.81453,16.46713 -13.62397,23.68061 1.92753,4.87191 7.13924,17.26929 14.11091,24.87355 4.08758,4.0593 15.4974,11.81305 30.55626,19.07126 -32.04336,13.59904 -40.1945,40.33478 -44.00135,50.39293 15.79761,5.8394 29.0916,-2.25181 45.34032,0.6618 3.0423,-14.60251 10.6952,-26.60437 23.9865,-33.84692 9.09815,9.20041 21.13223,24.85417 25.73865,40.17014 -11.67579,23.65307 -13.89516,33.22482 -13.78446,51.93207 3.75105,-0.33672 18.02623,-15.64009 49.3699,-16.81313 6.45685,-1.73594 16.71255,-18.1583 23.44648,-41.88106 -14.9282,-7.2385 -25.44371,-9.83636 -40.25875,-7.12169 -5.93622,-15.2319 -8.18052,-27.39936 -9.73675,-42.51478 31.02565,-2.06964 51.52709,19.2993 51.74309,18.23981 -3.57573,-18.39848 -3.41865,-23.12735 -1.25225,-34.74565 3.57487,-15.016 5.24666,-16.02608 15.21484,-27.77065 -13.24344,-1.76613 -16.59081,-4.73777 -29.61237,-3.44973 -9.18121,1.03954 -21.04377,7.31278 -39.15872,19.63528 -0.353,-13.96633 4.59342,-43.63216 -20.52372,-64.73373 -38.77538,10.21818 -64.95321,-12.32483 -64.95321,-12.32483 z"
           id="rect3860-7-8-3-88-7-7-3-7"
           inkscape:connector-curvature="0"
           sodipodi:nodetypes="ccccccccccccccccccccc" />
        <path
           style="opacity:0.5;fill:#000000;fill-opacity:1;stroke:#0600ff;stroke-width:0.48195747;stroke-miterlimit:4;stroke-opacity:1;stroke-dasharray:none"
           d="m 330.48389,467.84012 c -2.06589,0.35339 -5.20959,1.72987 -6.01671,4.12586 -1.45096,4.30731 -1.05647,10.60253 -1.05647,14.29741 1.65345,12.53352 8.70045,19.08343 17.15179,23.34822 8.40717,3.92201 22.00553,4.74175 24.29911,-4.70536 1.06046,-4.36799 2.28339,-6.67565 -1.84815,-17.86378 -2.3851,-6.05373 -7.47227,-15.16141 -14.20718,-23.34275 -11.29287,6.27219 -11.08074,3.08357 -18.32239,4.1404 z"
           id="path3812-3-9-6-4-4-3-9-9-5"
           inkscape:connector-curvature="0"
           sodipodi:nodetypes="csccsccc" />
        <path
           style="opacity:0.5;fill:#000000;fill-opacity:1;stroke:#0600ff;stroke-width:0.34643695;stroke-miterlimit:4;stroke-opacity:1;stroke-dasharray:none"
           d="m 336.24427,474.40052 c -2.81523,1.16282 -2.96603,9.24983 -0.63198,15.27538 3.02296,4.13394 6.52127,5.58744 10.19926,6.86201 3.23589,0.63135 7.6028,2.42177 7.47731,-5.48413 -0.0477,-3.00719 -0.35985,-4.73149 -4.01432,-9.8455 -3.58777,-4.6283 -9.09735,-9.6164 -13.03027,-6.80776 z"
           id="path3807-4-0-9-0-7-3-2-9"
           inkscape:connector-curvature="0"
           sodipodi:nodetypes="cccscc" />
        <path
           sodipodi:type="arc"
           style="fill:#000000;fill-opacity:1;stroke:#ff0000;stroke-width:1;stroke-miterlimit:4;stroke-opacity:1;stroke-dasharray:none"
           id="path2998-0-8-3-9-8-8-2-5-6"
           sodipodi:cx="-119.64286"
           sodipodi:cy="466.29074"
           sodipodi:rx="67.5"
           sodipodi:ry="62.5"
           d="m -52.14286,466.29074 c 0,34.5178 -30.22078,62.5 -67.5,62.5 -37.27922,0 -67.5,-27.9822 -67.5,-62.5 0,-34.5178 30.22078,-62.5 67.5,-62.5 37.27922,0 67.5,27.9822 67.5,62.5 z"
           transform="matrix(0.04752752,-0.02536707,0.04404391,0.08541279,326.40205,440.93205)" />
        <path
           style="fill:none;stroke:#00ebff;stroke-width:1px;stroke-linecap:butt;stroke-linejoin:miter;stroke-opacity:1"
           d="m 317.5,502.8979 c 0,0 24.46429,29.28571 31.60714,43.57142 7.14286,14.28572 12.5,34.10715 16.25,42.85715 3.75,8.75 7.31246,25.72697 15.88388,34.47697"
           id="path3975-8-8-2-2-4-1-6-1"
           inkscape:connector-curvature="0"
           sodipodi:nodetypes="cssc" />
        <path
           style="fill:none;stroke:#00ffe7;stroke-width:1px;stroke-linecap:butt;stroke-linejoin:miter;stroke-opacity:1"
           d="m 369.59055,536.94377 c 0,0 13.44517,-17.43873 57.73088,-10.29587"
           id="path3977-2-0-5-8-1-9-1-39"
           inkscape:connector-curvature="0"
           sodipodi:nodetypes="cc" />
        <path
           style="fill:none;stroke:#00fff7;stroke-width:1px;stroke-linecap:butt;stroke-linejoin:miter;stroke-opacity:1"
           d="m 369.78893,543.65551 c 0,0 22.64979,-13.77166 53.36408,-1.09309"
           id="path3979-4-1-5-2-8-4-6-4"
           inkscape:connector-curvature="0"
           sodipodi:nodetypes="cc" />
        <path
           style="fill:none;stroke:#00fff1;stroke-width:1px;stroke-linecap:butt;stroke-linejoin:miter;stroke-opacity:1"
           d="m 370.13525,549.4744 c 0,0 17.42974,-9.84309 51.53689,7.47834"
           id="path3983-5-2-3-7-0-19-4-5"
           inkscape:connector-curvature="0"
           sodipodi:nodetypes="cc" />
        <path
           style="fill:none;stroke:#00fff6;stroke-width:1px;stroke-linecap:butt;stroke-linejoin:miter;stroke-opacity:1"
           d="m 372.08287,555.07978 c -0.95502,-0.25697 -2.72222,-15.37424 -3.24271,-25.83365"
           id="path3985-5-5-3-7-7-5-9-4"
           inkscape:connector-curvature="0"
           sodipodi:nodetypes="cc" />
        <path
           style="fill:none;stroke:#00fcff;stroke-width:1px;stroke-linecap:butt;stroke-linejoin:miter;stroke-opacity:1"
           d="m 364.43372,614.13205 c 0,0 4.13771,8.4087 16.28057,9.83727"
           id="path3987-1-0-3-3-9-0-6-5"
           inkscape:connector-curvature="0"
           sodipodi:nodetypes="cc" />
        <path
           style="fill:none;stroke:#00f2ff;stroke-width:1px;stroke-linecap:butt;stroke-linejoin:miter;stroke-opacity:1"
           d="m 382.85714,600.75133 c 0,0 1.28064,8.5445 -1.75508,23.5445"
           id="path3989-7-9-7-2-2-4-0-3"
           inkscape:connector-curvature="0"
           sodipodi:nodetypes="cc" />
        <path
           style="fill:none;stroke:#00ffea;stroke-width:1px;stroke-linecap:butt;stroke-linejoin:miter;stroke-opacity:1"
           d="m 309.89354,553.99996 c 4.46428,0 20.92721,10.5484 28.24864,16.61983"
           id="path3991-1-4-4-0-2-22-6-4"
           inkscape:connector-curvature="0"
           sodipodi:nodetypes="cc" />
        <path
           style="fill:none;stroke:#00f4ff;stroke-width:1px;stroke-linecap:butt;stroke-linejoin:miter;stroke-opacity:1"
           d="m 318.18365,557.63453 c 0,0 -36.06246,23.0484 -39.45532,37.33412"
           id="path3993-1-7-3-2-8-4-9-0"
           inkscape:connector-curvature="0"
           sodipodi:nodetypes="cc" />
        <path
           style="fill:none;stroke:#00ffff;stroke-width:1px;stroke-linecap:butt;stroke-linejoin:miter;stroke-opacity:1"
           d="m 324.46429,561.11218 c 0,0 -37.74171,26.27167 -35.42028,37.87881"
           id="path3995-5-8-8-6-7-9-6-1"
           inkscape:connector-curvature="0"
           sodipodi:nodetypes="cc" />
        <path
           style="fill:none;stroke:#00fffb;stroke-width:1px;stroke-linecap:butt;stroke-linejoin:miter;stroke-opacity:1"
           d="m 331.07143,565.04075 c 0,0 -23.9196,13.6779 -30.34817,36.53504"
           id="path3997-2-3-0-7-5-3-4-93"
           inkscape:connector-curvature="0"
           sodipodi:nodetypes="cc" />
        <path
           style="fill:none;stroke:#00e9ff;stroke-width:1px;stroke-linecap:butt;stroke-linejoin:miter;stroke-opacity:1"
           d="m 364.64286,614.15687 c 0,0 -9.10714,17.6696 -6.60714,39.81246"
           id="path3999-7-5-8-5-7-2-9-08"
           inkscape:connector-curvature="0"
           sodipodi:nodetypes="cc" />
        <path
           style="fill:none;stroke:#00fffb;stroke-width:1px;stroke-linecap:butt;stroke-linejoin:miter;stroke-opacity:1"
           d="m 369.9477,619.20917 c 0,0 -4.05484,5.20658 -1.55484,30.20658"
           id="path4001-6-1-8-4-8-4-5-1"
           inkscape:connector-curvature="0"
           sodipodi:nodetypes="cc" />
        <path
           style="fill:none;stroke:#00ffee;stroke-width:1px;stroke-linecap:butt;stroke-linejoin:miter;stroke-opacity:1"
           d="m 375,622.8979 c 0,0 -3.39286,1.96428 6.42857,23.75"
           id="path4003-1-2-0-41-7-5-3-46"
           inkscape:connector-curvature="0"
           sodipodi:nodetypes="cc" />
        <path
           style="fill:none;stroke:#00ffff;stroke-width:1px;stroke-linecap:butt;stroke-linejoin:miter;stroke-opacity:1"
           d="m 380.53572,622.8979 c 0,0 2.90046,9.78181 17.72189,23.88896"
           id="path4005-4-0-6-7-5-6-9-9"
           inkscape:connector-curvature="0"
           sodipodi:nodetypes="cc" />
        <path
           style="fill:none;stroke:#00ffe6;stroke-width:1px;stroke-linecap:butt;stroke-linejoin:miter;stroke-opacity:1"
           d="m 382.14286,620.3979 c 0,0 7.18618,0.36983 22.90047,18.40554"
           id="path4007-2-1-8-8-4-3-7-1"
           inkscape:connector-curvature="0"
           sodipodi:nodetypes="cc" />
        <path
           style="fill:none;stroke:#00ffe3;stroke-width:1px;stroke-linecap:butt;stroke-linejoin:miter;stroke-opacity:1"
           d="m 383.21429,614.68361 c -3.29413,-1.09804 17.74356,4.35071 29.17213,13.63642"
           id="path4009-3-6-1-4-7-9-1-4"
           inkscape:connector-curvature="0"
           sodipodi:nodetypes="cc" />
        <path
           style="fill:none;stroke:#05f1f9;stroke-width:1px;stroke-linecap:butt;stroke-linejoin:miter;stroke-opacity:1"
           d="m 383.57143,608.96932 c 0,0 19.15727,-3.63116 34.18111,10.36984"
           id="path4011-2-4-9-50-4-3-9-2"
           inkscape:connector-curvature="0"
           sodipodi:nodetypes="cc" />
        <path
           style="fill:none;stroke:#00fff7;stroke-width:1px;stroke-linecap:butt;stroke-linejoin:miter;stroke-opacity:1"
           d="m 283.47405,474.27082 c 0,0 10.29545,-6.80652 15.40483,1.16799 10.07296,15.72146 7.07107,10.48033 18.56156,27.52666 4.48208,6.64924 7.70241,25.75889 -1.38896,37.88072 -9.09137,12.12183 -20.77126,7.00793 -20.77126,7.00793"
           id="path4013-2-0-8-2-1-2-0-2"
           inkscape:connector-curvature="0"
           sodipodi:nodetypes="csssc" />
        <path
           style="fill:none;stroke:#00ffec;stroke-width:1px;stroke-linecap:butt;stroke-linejoin:miter;stroke-opacity:1"
           d="m 307.02324,459.56047 c -6.73199,2.46955 -8.2531,8.48367 -6.63463,14.65023 3.68965,14.05809 21.57539,33.33804 27.4059,37.84614 3.03185,2.85712 7.09161,4.22019 10.99996,5.49378 6.45571,2.10367 13.18735,2.58521 18.29446,0.94594 9.09137,-3.15673 9.53942,-18.51558 9.53942,-18.51558"
           id="path4015-1-6-9-7-9-2-0-2"
           inkscape:connector-curvature="0"
           sodipodi:nodetypes="cscscc" />
        <g
           id="g35349-5-5-0-0-0"
           transform="translate(2.1015758,-0.90164909)">
          <path
             sodipodi:nodetypes="ssccsccs"
             inkscape:connector-curvature="0"
             id="path3812-4-2-4-2-7-7-9-1"
             d="m 286.88008,492.21621 c -4.10988,0 -8.7016,2.32889 -12.26403,7.96484 -5.68706,8.99725 -6.28569,5.85044 -5.30355,12.50645 0.89873,7.16497 3.44432,14.43117 7.43209,18.70216 7.70165,7.13672 11.07557,12.3492 18.48558,11.82338 12.45599,-0.88388 15.16847,-8.03966 15.16847,-19.2086 -0.54661,-12.5014 -2.76569,-16.60931 -10.42836,-23.07977 -3.46513,-2.00863 -8.74108,-8.70846 -13.0902,-8.70846 z"
             style="opacity:0.5;fill:#000000;fill-opacity:1;stroke:#0600ff;stroke-width:0.45977882;stroke-miterlimit:4;stroke-opacity:1;stroke-dasharray:none" />
          <path
             sodipodi:nodetypes="ccccccc"
             inkscape:connector-curvature="0"
             id="path3786-0-6-8-3-7-8-9-0"
             d="m 278.73788,510.875 c -0.44982,4.68584 -0.8045,6.03223 1.67156,9.91198 1.1235,1.89529 2.65062,4.61833 6.24554,7.87054 3.10229,1.68749 7.90263,2.17411 9.20216,0.19516 1.35397,-4.30244 0.72418,-9.44041 -1.44069,-12.19829 -3.51072,-5.28064 -4.1153,-6.1352 -6.7602,-7.77939 -2.75608,-1.78249 -7.95345,-1.2357 -8.91837,2 z"
             style="opacity:0.5;fill:#000000;fill-opacity:1;stroke:#0600ff;stroke-width:0.31252107;stroke-miterlimit:4;stroke-opacity:1;stroke-dasharray:none" />
          <path
             transform="matrix(0.04136828,-0.03451114,0.06050925,0.07465816,262.35516,477.91364)"
             d="m -52.14286,466.29074 c 0,34.5178 -30.22078,62.5 -67.5,62.5 -37.27922,0 -67.5,-27.9822 -67.5,-62.5 0,-34.5178 30.22078,-62.5 67.5,-62.5 37.27922,0 67.5,27.9822 67.5,62.5 z"
             sodipodi:ry="62.5"
             sodipodi:rx="67.5"
             sodipodi:cy="466.29074"
             sodipodi:cx="-119.64286"
             id="path2998-0-9-6-1-7-7-5-1-8-5"
             style="fill:#000000;fill-opacity:1;stroke:#ff0000;stroke-width:1;stroke-miterlimit:4;stroke-opacity:1;stroke-dasharray:none"
             sodipodi:type="arc" />
        </g>
      </g>
    </g>
  </g>
</svg>
