<?xml version="1.0" encoding="UTF-8" standalone="no"?>
<!-- Created with Inkscape (http://www.inkscape.org/) -->

<svg
   xmlns:dc="http://purl.org/dc/elements/1.1/"
   xmlns:cc="http://creativecommons.org/ns#"
   xmlns:rdf="http://www.w3.org/1999/02/22-rdf-syntax-ns#"
   xmlns:svg="http://www.w3.org/2000/svg"
   xmlns="http://www.w3.org/2000/svg"
   xmlns:sodipodi="http://sodipodi.sourceforge.net/DTD/sodipodi-0.dtd"
   xmlns:inkscape="http://www.inkscape.org/namespaces/inkscape"
   width="210mm"
   height="297mm"
   viewBox="0 0 744.09448819 1052.3622047"
   id="svg6643"
   version="1.1"
   inkscape:version="0.91 r13725"
   sodipodi:docname="sticker.svg">
  <defs
     id="defs6645" />
  <sodipodi:namedview
     id="base"
     pagecolor="#ffffff"
     bordercolor="#666666"
     borderopacity="1.0"
     inkscape:pageopacity="0.0"
     inkscape:pageshadow="2"
     inkscape:zoom="22.4"
     inkscape:cx="337.13326"
     inkscape:cy="740.20833"
     inkscape:document-units="px"
     inkscape:current-layer="layer1"
     showgrid="false"
     inkscape:window-width="2560"
     inkscape:window-height="1646"
     inkscape:window-x="0"
     inkscape:window-y="25"
     inkscape:window-maximized="1" />
  <metadata
     id="metadata6648">
    <rdf:RDF>
      <cc:Work
         rdf:about="">
        <dc:format>image/svg+xml</dc:format>
        <dc:type
           rdf:resource="http://purl.org/dc/dcmitype/StillImage" />
        <dc:title></dc:title>
      </cc:Work>
    </rdf:RDF>
  </metadata>
  <g
     inkscape:label="Layer 1"
     inkscape:groupmode="layer"
     id="layer1">
    <path
       style="opacity:1;fill:none;fill-opacity:1;stroke:#000000;stroke-width:0.1;stroke-miterlimit:4;stroke-dasharray:none;stroke-opacity:1"
       d="m 308.05299,272.19979 c 1.2661,27.8416 -2.8288,42.3674 -22.0333,62.9689 4.3956,7.581 10.0939,15.2055 14.5661,19.7419 2.1098,2.2375 6.7453,6.2239 13.1119,10.2006 5.5594,3.4726 12.5024,6.8276 19.4075,10.4397 -30.4189,13.3436 -38.3717,25.8689 -43.578,34.9931 15.5974,6.3547 24.8641,10.7577 41.0085,14.2031 4.1449,-13.8698 13.7947,-22.3105 27.3166,-31.1665 8.7912,9.4941 20.3051,25.5344 24.4063,40.9933 -12.4458,23.2571 -12.0108,30.92 -12.5141,49.6208 3.76,-0.2135 15.5625,-13.2091 46.9278,-13.3528 6.5103,-1.5231 17.2995,-17.6 24.8084,-41.089 -14.6826,-7.7246 -25.1072,-10.6661 -40.0033,-8.4392 -5.4331,-15.4185 -7.5826,-28.1509 -8.6418,-43.3093 28.0873,-1.4931 52.0427,21.0297 51.9536,19.7366 -0.2252,-15.4249 -1.0615,-20.0115 0.5694,-31.844 1.3406,-6.1 1.5598,-10.23 11.3822,-27.4507 -13.1783,-2.1998 -13.6786,-3.5271 -26.7355,-2.6671 -9.2103,0.7376 -20.5702,3.7985 -39.0798,15.5198 0.6412,-14.015 3.6721,-42.5191 -18.7187,-64.0549 -23.3171,5.9816 -41.5424,-1.0377 -52.5044,-7.7304 -7.5043,-4.5817 -11.6494,-7.3139 -11.6494,-7.3139 z"
       id="rect3860-7-8-3-88-7-7-3-7-7-4-9-7-3-3-3-2"
       inkscape:connector-curvature="0"
       sodipodi:nodetypes="cccsccccccccccccccccsc" />
    <path
       inkscape:connector-curvature="0"
       style="opacity:1;fill:none;fill-opacity:1;stroke:#0000ff;stroke-width:0.1;stroke-miterlimit:4;stroke-dasharray:none;stroke-opacity:1"
       d="m 372.21169,287.86519 c -13.0079,2.1101 -10.9834,2.113 -18.2559,2.9316 -2.0763,0.2854 -5.1381,-0.021 -6.0234,2.3476 -1.5915,4.2574 -1.4022,10.563 -1.5234,14.2559 1.2412,12.581 8.0682,19.3586 16.375,23.8984 8.2739,4.1959 21.839,5.4605 24.4414,-3.9062 1.2032,-4.3308 2.5004,-6.5964 -1.2617,-17.9141 -2.1852,-6.1287 -4.1196,-10.4921 -13.752,-21.6132 z m -10.207,7.3652 c 3.5786,-0.022 7.6298,4.1126 10.4199,7.9668 3.4846,5.2312 3.7385,6.9636 3.6875,9.9707 -0.1341,7.9057 -4.4389,5.9735 -7.6524,5.2363 -3.6341,-1.3946 -7.0831,-2.9624 -9.9687,-7.1933 -2.135,-6.099 -1.7191,-14.1763 1.1328,-15.2461 0.7543,-0.5022 1.555,-0.7293 2.3809,-0.7344 z"
       id="path3812-3-9-6-4-4-3-9-9-5-07-9-1-44-0-7-49-23" />
    <ellipse
       style="fill:none;fill-opacity:1;stroke:#ff0000;stroke-width:0.10000502;stroke-miterlimit:4;stroke-dasharray:none;stroke-opacity:1"
       id="path2998-0-8-3-9-8-8-2-5-6-5-7-5-5-7-1-5-50"
       transform="matrix(0.89718477,-0.44165539,0.42889573,0.903354,0,0)"
       cx="198.09628"
       cy="435.05444"
       rx="3.636461"
       ry="6.0062499" />
    <path
       style="fill:none;stroke:#00ff00;stroke-width:0.1;stroke-linecap:butt;stroke-linejoin:miter;stroke-opacity:1;stroke-miterlimit:4;stroke-dasharray:none"
       d="m 339.95469,323.83169 c 0,0 23.49,30.0729 30.1601,44.5853 6.6701,14.5125 11.3739,34.499 14.8346,43.3674 3.4609,8.8684 6.4642,25.9531 14.7438,34.9797"
       id="path3975-8-8-2-2-4-1-6-1-9-66-8-0-5-82-75-1"
       inkscape:connector-curvature="0"
       sodipodi:nodetypes="cssc" />
    <path
       style="fill:none;stroke:#00ff00;stroke-width:0.1;stroke-linecap:butt;stroke-linejoin:miter;stroke-opacity:1;stroke-miterlimit:4;stroke-dasharray:none"
       d="m 390.72119,359.47959 c 0,0 15.0685,-16.2914 59.0959,-7.6989"
       id="path3977-2-0-5-8-1-9-1-39-90-7-6-2-4-4-0-6"
       inkscape:connector-curvature="0"
       sodipodi:nodetypes="cc" />
    <path
       style="fill:none;stroke:#00ff00;stroke-width:0.1;stroke-linecap:butt;stroke-linejoin:miter;stroke-opacity:1;stroke-miterlimit:4;stroke-dasharray:none"
       d="m 391.10099,366.06029 c 0,0 23.6336,-12.2405 53.9153,1.4393"
       id="path3979-4-1-5-2-8-4-6-4-4-2-4-3-8-6-61-0"
       inkscape:connector-curvature="0"
       sodipodi:nodetypes="cc" />
    <path
       style="fill:none;stroke:#00ff00;stroke-width:0.1;stroke-linecap:butt;stroke-linejoin:miter;stroke-opacity:1;stroke-miterlimit:4;stroke-dasharray:none"
       d="m 391.74729,371.97669 c 0,0 19.3842,-7.8266 52.9045,10.6049"
       id="path3983-5-2-3-7-0-19-4-5-2-7-8-0-7-7-0-24"
       inkscape:connector-curvature="0"
       sodipodi:nodetypes="cc" />
    <path
       style="fill:none;stroke:#00ff00;stroke-width:0.1;stroke-linecap:butt;stroke-linejoin:miter;stroke-opacity:1;stroke-miterlimit:4;stroke-dasharray:none"
       d="m 392.79559,377.77689 c -0.9461,-0.2882 -2.2162,-15.4553 -2.3931,-25.9262"
       id="path3985-5-5-3-7-7-5-9-4-3-0-9-1-5-2-3-58"
       inkscape:connector-curvature="0"
       sodipodi:nodetypes="cc" />
    <path
       style="fill:none;stroke:#00ff00;stroke-width:0.1;stroke-linecap:butt;stroke-linejoin:miter;stroke-opacity:1;stroke-miterlimit:4;stroke-dasharray:none"
       d="m 382.40879,435.51949 c 0,0 4.6631,9.5668 16.7525,11.3931"
       id="path3987-1-0-3-3-9-0-6-5-2-1-9-1-0-55-6-91"
       inkscape:connector-curvature="0"
       sodipodi:nodetypes="cc" />
    <path
       style="fill:none;stroke:#00ff00;stroke-width:0.1;stroke-linecap:butt;stroke-linejoin:miter;stroke-opacity:1;stroke-miterlimit:4;stroke-dasharray:none"
       d="m 402.10969,422.21499 c 0,0 0.9549,10.1444 -2.5715,25.0367"
       id="path3989-7-9-7-2-2-4-0-3-9-2-8-90-3-78-9-10"
       inkscape:connector-curvature="0"
       sodipodi:nodetypes="cc" />
    <path
       style="fill:none;stroke:#00ff00;stroke-width:0.1;stroke-linecap:butt;stroke-linejoin:miter;stroke-opacity:1;stroke-miterlimit:4;stroke-dasharray:none"
       d="m 333.48769,375.68339 c 4.4618,0.1465 17.0429,10.9617 24.1611,17.2701"
       id="path3991-1-4-4-0-2-22-6-4-8-06-6-4-9-8-47-7"
       inkscape:connector-curvature="0"
       sodipodi:nodetypes="cc" />
    <path
       style="fill:none;stroke:#00ff00;stroke-width:0.1;stroke-linecap:butt;stroke-linejoin:miter;stroke-opacity:1;stroke-miterlimit:4;stroke-dasharray:none"
       d="m 339.10939,378.20409 c 0,0 -38.4067,20.9596 -42.2666,35.1262"
       id="path3993-1-7-3-2-8-4-9-0-4-3-2-4-1-0-4-00"
       inkscape:connector-curvature="0"
       sodipodi:nodetypes="cc" />
    <path
       style="fill:none;stroke:#00ff00;stroke-width:0.1;stroke-linecap:butt;stroke-linejoin:miter;stroke-opacity:1;stroke-miterlimit:4;stroke-dasharray:none"
       d="m 345.00459,382.42179 c 0,0 -39.3872,23.8134 -37.4479,35.4905"
       id="path3995-5-8-8-6-7-9-6-1-9-4-4-1-3-9-6-41"
       inkscape:connector-curvature="0"
       sodipodi:nodetypes="cc" />
    <path
       style="fill:none;stroke:#00ff00;stroke-width:0.1;stroke-linecap:butt;stroke-linejoin:miter;stroke-opacity:1;stroke-miterlimit:4;stroke-dasharray:none"
       d="m 350.94359,387.14539 c 0,0 -24.4003,12.0819 -31.5756,34.7158"
       id="path3997-2-3-0-7-5-3-4-93-6-7-3-0-4-36-79-7"
       inkscape:connector-curvature="0"
       sodipodi:nodetypes="cc" />
    <path
       style="fill:none;stroke:#00ff00;stroke-width:0.1;stroke-linecap:butt;stroke-linejoin:miter;stroke-opacity:1;stroke-miterlimit:4;stroke-dasharray:none"
       d="m 383.42059,436.57799 c 0,0 -9.5036,22.2719 -7.7317,44.4849"
       id="path3999-7-5-8-5-7-2-9-08-37-8-1-3-0-4-9-2"
       inkscape:connector-curvature="0"
       sodipodi:nodetypes="cc" />
    <path
       style="fill:none;stroke:#00ff00;stroke-width:0.1;stroke-linecap:butt;stroke-linejoin:miter;stroke-opacity:1;stroke-miterlimit:4;stroke-dasharray:none"
       d="m 388.46749,442.29269 c 0,0 -3.7771,8.5082 -2.099,33.5768"
       id="path4001-6-1-8-4-8-4-5-1-89-92-5-7-0-6-3-0"
       inkscape:connector-curvature="0"
       sodipodi:nodetypes="cc" />
    <path
       style="fill:none;stroke:#00ff00;stroke-width:0.1;stroke-linecap:butt;stroke-linejoin:miter;stroke-miterlimit:4;stroke-dasharray:none;stroke-opacity:1"
       d="m 393.57999,445.46479 c 0,0 -2.0716,4.3965 7.0295,26.4929"
       id="path4003-1-2-0-41-7-5-3-46-1-8-7-7-5-7-1-54"
       inkscape:connector-curvature="0"
       sodipodi:nodetypes="cc" />
    <path
       style="fill:none;stroke:#00ff00;stroke-width:0.1;stroke-linecap:butt;stroke-linejoin:miter;stroke-opacity:1;stroke-miterlimit:4;stroke-dasharray:none"
       d="m 399.01799,445.83589 c 0,0 3.3368,10.2289 17.6872,24.8149"
       id="path4005-4-0-6-7-5-6-9-9-3-9-1-1-1-7-8-5"
       inkscape:connector-curvature="0"
       sodipodi:nodetypes="cc" />
    <path
       style="fill:none;stroke:#00ff00;stroke-width:0.1;stroke-linecap:butt;stroke-linejoin:miter;stroke-opacity:1;stroke-miterlimit:4;stroke-dasharray:none"
       d="m 400.52779,443.16679 c 0,0 8.7773,2.7037 23.8912,21.2454"
       id="path4007-2-1-8-8-4-3-7-1-3-6-4-0-7-6-8-0"
       inkscape:connector-curvature="0"
       sodipodi:nodetypes="cc" />
    <path
       style="fill:none;stroke:#00ff00;stroke-width:0.1;stroke-linecap:butt;stroke-linejoin:miter;stroke-opacity:1;stroke-miterlimit:4;stroke-dasharray:none"
       d="m 401.56299,437.89249 c -3.2564,-1.2055 18.7965,5.8236 29.9142,15.4794"
       id="path4009-3-6-1-4-7-9-1-4-7-6-3-59-4-3-32-7"
       inkscape:connector-curvature="0"
       sodipodi:nodetypes="cc" />
    <path
       style="fill:none;stroke:#00ff00;stroke-width:0.1;stroke-linecap:butt;stroke-linejoin:miter;stroke-opacity:1;stroke-miterlimit:4;stroke-dasharray:none"
       d="m 402.06279,431.21089 c 0,0 19.7126,-2.1969 34.2688,12.2897"
       id="path4011-2-4-9-50-4-3-9-2-7-1-7-10-4-5-9-1"
       inkscape:connector-curvature="0"
       sodipodi:nodetypes="cc" />
    <path
       style="fill:none;stroke:#00ff00;stroke-width:0.1;stroke-linecap:butt;stroke-linejoin:miter;stroke-opacity:1;stroke-miterlimit:4;stroke-dasharray:none"
       d="m 306.88669,294.10329 c 11.0263,-1.9303 17.24,5.8558 22.8124,14.441 3.7331,5.7515 7.9905,12.0339 10.1939,15.353 4.4262,6.6865 6.8528,25.9978 -2.6315,37.8147 -9.4843,11.8169 -16.7044,7.3046 -16.7044,7.3046"
       id="path4013-2-0-8-2-1-2-0-2-6-7-7-3-9-51-36-4"
       inkscape:connector-curvature="0"
       sodipodi:nodetypes="cscsc" />
    <path
       style="fill:none;stroke:#00ff00;stroke-width:0.1;stroke-linecap:butt;stroke-linejoin:miter;stroke-opacity:1;stroke-miterlimit:4;stroke-dasharray:none"
       d="m 325.88749,283.06489 c -2.2145,2.8683 -3.0054,7.5273 -2.0934,11.5334 3.2263,14.1716 20.4696,34.0282 26.149,38.7253 2.9364,2.9551 6.9493,4.4506 10.8137,5.8518 6.3832,2.3144 13.0954,3.0167 18.2536,1.5459 9.1901,-2.8567 10.2312,-19.264 10.2312,-19.264"
       id="path4015-1-6-9-7-9-2-0-2-8-8-0-4-9-3-58-05"
       inkscape:connector-curvature="0"
       sodipodi:nodetypes="cscscc" />
    <path
       inkscape:connector-curvature="0"
       style="opacity:1;fill:none;fill-opacity:1;stroke:#0600ff;stroke-width:0.1;stroke-miterlimit:4;stroke-dasharray:none;stroke-opacity:1"
       d="m 311.83279,311.31829 c -4.1077,-0.1349 -8.902,2.9847 -12.6543,8.4961 -5.9701,8.769 -6.4659,7.7104 -5.5762,11.3886 0.6631,7.1906 2.969,14.536 6.8145,18.9356 7.4632,7.3856 10.6646,12.7062 18.0879,12.4238 12.4783,-0.4746 15.4225,-7.5382 15.789,-18.7012 -0.136,-12.5126 -2.2179,-16.6916 -9.664,-23.4101 -3.3974,-2.1213 -8.4501,-8.9901 -12.7969,-9.1328 z m -3.5156,15.5488 c 1.3676,0.039 2.7331,0.425 3.7441,1.127 2.5895,1.7301 3.1645,2.603 6.5,7.9961 2.0732,2.8274 2.5355,7.9845 1.041,12.2402 -1.3638,1.9352 -6.1461,1.2903 -9.1914,-0.4981 -3.4862,-3.3684 -4.9237,-6.1391 -5.9844,-8.0703 -2.3473,-3.9589 -1.949,-5.2943 -1.3457,-9.9629 0.6692,-2.0014 2.9569,-2.8974 5.2364,-2.832 z"
       id="path3812-4-2-4-2-7-7-9-1-8-5-5-9-1-4-4-77" />
    <ellipse
       ry="6.0062499"
       rx="3.6364608"
       cy="455.42169"
       cx="44.10397"
       style="fill:none;fill-opacity:1;stroke:#ff0000;stroke-width:0.10000502;stroke-miterlimit:4;stroke-dasharray:none;stroke-opacity:1"
       id="path2998-0-9-6-1-7-7-5-1-8-5-18-2-4-6-4-3-8-9"
       transform="matrix(0.78848925,-0.61504853,0.60381188,0.79712685,0,0)" />
    <path
       style="fill:none;stroke:#00ff00;stroke-width:0.1;stroke-linecap:butt;stroke-linejoin:miter;stroke-miterlimit:4;stroke-dasharray:none;stroke-opacity:1"
       d="m 384.07943,436.31571 c 0,0 -9.5036,22.2719 -7.7317,44.4849"
       id="path3999-7-5-8-5-7-2-9-08-37-8-1-3-0-4-9-2-6"
       inkscape:connector-curvature="0"
       sodipodi:nodetypes="cc" />
    <path
       style="fill:none;stroke:#00ff00;stroke-width:0.1;stroke-linecap:butt;stroke-linejoin:miter;stroke-miterlimit:4;stroke-dasharray:none;stroke-opacity:1"
       d="m 389.0817,442.19206 c 0,0 -3.7771,8.5082 -2.099,33.5768"
       id="path4001-6-1-8-4-8-4-5-1-89-92-5-7-0-6-3-0-5"
       inkscape:connector-curvature="0"
       sodipodi:nodetypes="cc" />
    <path
       style="fill:none;stroke:#00ff00;stroke-width:0.1;stroke-linecap:butt;stroke-linejoin:miter;stroke-miterlimit:4;stroke-dasharray:none;stroke-opacity:1"
       d="m 394.24137,445.526 c 0,0 -2.0716,4.3965 7.0295,26.49289"
       id="path4003-1-2-0-41-7-5-3-46-1-8-7-7-5-7-1-54-7"
       inkscape:connector-curvature="0"
       sodipodi:nodetypes="cc" />
    <path
       style="fill:none;stroke:#00ff00;stroke-width:0.1;stroke-linecap:butt;stroke-linejoin:miter;stroke-miterlimit:4;stroke-dasharray:none;stroke-opacity:1"
       d="m 398.97391,446.83344 c 0,0 3.3368,10.2289 17.6872,24.8149"
       id="path4005-4-0-6-7-5-6-9-9-3-9-1-1-1-7-8-5-1"
       inkscape:connector-curvature="0"
       sodipodi:nodetypes="cc" />
    <path
       style="fill:none;stroke:#00ff00;stroke-width:0.1;stroke-linecap:butt;stroke-linejoin:miter;stroke-miterlimit:4;stroke-dasharray:none;stroke-opacity:1"
       d="m 400.46873,442.31677 c 0,0 8.7773,2.7037 23.8912,21.2454"
       id="path4007-2-1-8-8-4-3-7-1-3-6-4-0-7-6-8-0-3"
       inkscape:connector-curvature="0"
       sodipodi:nodetypes="cc" />
    <path
       style="fill:none;stroke:#00ff00;stroke-width:0.1;stroke-linecap:butt;stroke-linejoin:miter;stroke-miterlimit:4;stroke-dasharray:none;stroke-opacity:1"
       d="m 401.83676,437.37331 c -3.2564,-1.2055 18.7965,5.8236 29.9142,15.4794"
       id="path4009-3-6-1-4-7-9-1-4-7-6-3-59-4-3-32-7-3"
       inkscape:connector-curvature="0"
       sodipodi:nodetypes="cc" />
    <path
       style="fill:none;stroke:#00ff00;stroke-width:0.1;stroke-linecap:butt;stroke-linejoin:miter;stroke-miterlimit:4;stroke-dasharray:none;stroke-opacity:1"
       d="m 402.00091,430.65925 c 0,0 19.7126,-2.1969 34.2688,12.2897"
       id="path4011-2-4-9-50-4-3-9-2-7-1-7-10-4-5-9-1-3"
       inkscape:connector-curvature="0"
       sodipodi:nodetypes="cc" />
    <path
       style="fill:none;stroke:#00ff00;stroke-width:0.1;stroke-linecap:butt;stroke-linejoin:miter;stroke-miterlimit:4;stroke-dasharray:none;stroke-opacity:1"
       d="m 401.53074,422.28999 c 0,0 0.9549,10.1444 -2.5715,25.0367"
       id="path3989-7-9-7-2-2-4-0-3-9-2-8-90-3-78-9-10-8"
       inkscape:connector-curvature="0"
       sodipodi:nodetypes="cc" />
    <path
       style="fill:none;stroke:#00ff00;stroke-width:0.1;stroke-linecap:butt;stroke-linejoin:miter;stroke-miterlimit:4;stroke-dasharray:none;stroke-opacity:1"
       d="m 382.76093,435.13079 c 0,0 4.6631,9.5668 16.7525,11.3931"
       id="path3987-1-0-3-3-9-0-6-5-2-1-9-1-0-55-6-91-5"
       inkscape:connector-curvature="0"
       sodipodi:nodetypes="cc" />
    <path
       style="fill:none;stroke:#00ff00;stroke-width:0.1;stroke-linecap:butt;stroke-linejoin:miter;stroke-miterlimit:4;stroke-dasharray:none;stroke-opacity:1"
       d="m 339.48181,324.24588 c 0,0 23.49,30.0729 30.1601,44.5853 6.6701,14.5125 11.3739,34.499 14.8346,43.3674 3.4609,8.8684 6.4642,25.9531 14.7438,34.9797"
       id="path3975-8-8-2-2-4-1-6-1-9-66-8-0-5-82-75-1-0"
       inkscape:connector-curvature="0"
       sodipodi:nodetypes="cssc" />
    <path
       style="fill:none;stroke:#00ff00;stroke-width:0.1;stroke-linecap:butt;stroke-linejoin:miter;stroke-miterlimit:4;stroke-dasharray:none;stroke-opacity:1"
       d="m 338.15438,377.93948 c 0,0 -38.4067,20.9596 -42.2666,35.1262"
       id="path3993-1-7-3-2-8-4-9-0-4-3-2-4-1-0-4-00-8"
       inkscape:connector-curvature="0"
       sodipodi:nodetypes="cc" />
    <path
       style="fill:none;stroke:#00ff00;stroke-width:0.1;stroke-linecap:butt;stroke-linejoin:miter;stroke-miterlimit:4;stroke-dasharray:none;stroke-opacity:1"
       d="m 344.21725,381.86639 c 0,0 -39.3872,23.8134 -37.4479,35.4905"
       id="path3995-5-8-8-6-7-9-6-1-9-4-4-1-3-9-6-41-7"
       inkscape:connector-curvature="0"
       sodipodi:nodetypes="cc" />
    <path
       style="fill:none;stroke:#00ff00;stroke-width:0.1;stroke-linecap:butt;stroke-linejoin:miter;stroke-miterlimit:4;stroke-dasharray:none;stroke-opacity:1"
       d="m 350.04161,386.58165 c 0,0 -24.4003,12.0819 -31.5756,34.7158"
       id="path3997-2-3-0-7-5-3-4-93-6-7-3-0-4-36-79-7-6"
       inkscape:connector-curvature="0"
       sodipodi:nodetypes="cc" />
    <path
       style="fill:none;stroke:#00ff00;stroke-width:0.1;stroke-linecap:butt;stroke-linejoin:miter;stroke-miterlimit:4;stroke-dasharray:none;stroke-opacity:1"
       d="m 334.19833,375.56379 c 4.4618,0.1465 17.0429,10.96169 24.1611,17.27009"
       id="path3991-1-4-4-0-2-22-6-4-8-06-6-4-9-8-47-7-3"
       inkscape:connector-curvature="0"
       sodipodi:nodetypes="cc" />
    <path
       style="fill:none;stroke:#00ff00;stroke-width:0.1;stroke-linecap:butt;stroke-linejoin:miter;stroke-miterlimit:4;stroke-dasharray:none;stroke-opacity:1"
       d="m 391.53613,371.41495 c 0,0 19.3842,-7.8266 52.9045,10.6049"
       id="path3983-5-2-3-7-0-19-4-5-2-7-8-0-7-7-0-24-5"
       inkscape:connector-curvature="0"
       sodipodi:nodetypes="cc" />
    <path
       style="fill:none;stroke:#00ff00;stroke-width:0.1;stroke-linecap:butt;stroke-linejoin:miter;stroke-miterlimit:4;stroke-dasharray:none;stroke-opacity:1"
       d="m 391.25784,365.41308 c 0,0 23.6336,-12.2405 53.9153,1.4393"
       id="path3979-4-1-5-2-8-4-6-4-4-2-4-3-8-6-61-0-0"
       inkscape:connector-curvature="0"
       sodipodi:nodetypes="cc" />
    <path
       style="fill:none;stroke:#00ff00;stroke-width:0.1;stroke-linecap:butt;stroke-linejoin:miter;stroke-miterlimit:4;stroke-dasharray:none;stroke-opacity:1"
       d="m 390.33168,358.85485 c 0,0 15.0685,-16.2914 59.0959,-7.6989"
       id="path3977-2-0-5-8-1-9-1-39-90-7-6-2-4-4-0-6-8"
       inkscape:connector-curvature="0"
       sodipodi:nodetypes="cc" />
    <path
       style="fill:none;stroke:#00ff00;stroke-width:0.1;stroke-linecap:butt;stroke-linejoin:miter;stroke-miterlimit:4;stroke-dasharray:none;stroke-opacity:1"
       d="m 392.19641,377.98038 c -0.9461,-0.2882 -2.2162,-15.4553 -2.3931,-25.9262"
       id="path3985-5-5-3-7-7-5-9-4-3-0-9-1-5-2-3-58-0"
       inkscape:connector-curvature="0"
       sodipodi:nodetypes="cc" />
    <path
       style="fill:none;stroke:#00ff00;stroke-width:0.1;stroke-linecap:butt;stroke-linejoin:miter;stroke-miterlimit:4;stroke-dasharray:none;stroke-opacity:1"
       d="m 306.43639,294.5417 c 11.0263,-1.9303 17.24,5.8558 22.8124,14.441 3.7331,5.7515 7.9905,12.0339 10.1939,15.353 4.4262,6.6865 6.8528,25.9978 -2.6315,37.8147 -9.4843,11.8169 -16.7044,7.3046 -16.7044,7.3046"
       id="path4013-2-0-8-2-1-2-0-2-6-7-7-3-9-51-36-4-4"
       inkscape:connector-curvature="0"
       sodipodi:nodetypes="cscsc" />
    <path
       style="fill:none;stroke:#00ff00;stroke-width:0.1;stroke-linecap:butt;stroke-linejoin:miter;stroke-miterlimit:4;stroke-dasharray:none;stroke-opacity:1"
       d="m 326.87732,282.60345 c -2.2145,2.8683 -3.0054,7.5273 -2.0934,11.5334 3.2263,14.1716 20.4696,34.0282 26.149,38.7253 2.9364,2.9551 6.9493,4.4506 10.8137,5.8518 6.3832,2.3144 13.0954,3.0167 18.2536,1.5459 9.1901,-2.8567 10.2312,-19.264 10.2312,-19.264"
       id="path4015-1-6-9-7-9-2-0-2-8-8-0-4-9-3-58-05-1"
       inkscape:connector-curvature="0"
       sodipodi:nodetypes="cscscc" />
    <path
       style="opacity:1;fill:none;fill-opacity:1;stroke:#000000;stroke-width:0;stroke-linecap:round;stroke-linejoin:round;stroke-miterlimit:4;stroke-dasharray:none;stroke-opacity:1"
       d="m 371.74933,319.05618 c -0.0614,-0.011 -0.3125,-0.0517 -0.55804,-0.0904 -0.8141,-0.12861 -2.69397,-0.62236 -3.35529,-0.88127 -4.07097,-1.59379 -6.49651,-3.28038 -8.60415,-5.98286 -0.56703,-0.72707 -0.67409,-0.90911 -0.84369,-1.43454 -1.36563,-4.23072 -1.55944,-9.56116 -0.45449,-12.4998 0.28453,-0.75669 0.68319,-1.39392 1.09879,-1.75633 0.19616,-0.17105 1.10519,-0.67819 1.48414,-0.82798 0.93582,-0.36992 2.0854,-0.3622 3.2568,0.0219 0.87583,0.28717 2.04683,0.9416 3.05399,1.70677 1.98196,1.50576 4.35871,4.12746 5.96709,6.58206 1.30834,1.99671 2.23463,3.73046 2.68686,5.02904 0.40156,1.1531 0.51042,1.84145 0.5407,3.4191 0.0773,4.02943 -0.75234,6.10996 -2.64325,6.62838 -0.2604,0.0714 -1.38019,0.13049 -1.62946,0.086 z m -5.22016,-7.90282 c 1.04379,-0.3097 1.70594,-1.20041 1.94205,-2.61243 0.10712,-0.64063 0.0684,-1.73135 -0.0877,-2.47188 -0.71558,-3.39456 -3.28394,-6.26619 -5.60922,-6.27155 -1.8507,-0.004 -2.95757,1.93015 -2.61019,4.56167 0.41868,3.17159 2.61754,6.17326 4.97805,6.79553 0.34039,0.0897 1.08245,0.089 1.38698,-10e-4 l 0,0 z"
       id="path7553"
       inkscape:connector-curvature="0" />
    <path
       style="opacity:1;fill:none;fill-opacity:1;stroke:#000000;stroke-width:0;stroke-linecap:round;stroke-linejoin:round;stroke-miterlimit:4;stroke-dasharray:none;stroke-opacity:1"
       d="m 371.74933,319.05618 c -0.0614,-0.011 -0.3125,-0.0517 -0.55804,-0.0904 -0.8141,-0.12861 -2.69397,-0.62236 -3.35529,-0.88127 -4.07097,-1.59379 -6.49651,-3.28038 -8.60415,-5.98286 -0.56703,-0.72707 -0.67409,-0.90911 -0.84369,-1.43454 -1.36563,-4.23072 -1.55944,-9.56116 -0.45449,-12.4998 0.28453,-0.75669 0.68319,-1.39392 1.09879,-1.75633 0.19616,-0.17105 1.10519,-0.67819 1.48414,-0.82798 0.93582,-0.36992 2.0854,-0.3622 3.2568,0.0219 0.87583,0.28717 2.04683,0.9416 3.05399,1.70677 1.98196,1.50576 4.35871,4.12746 5.96709,6.58206 1.30834,1.99671 2.23463,3.73046 2.68686,5.02904 0.40156,1.1531 0.51042,1.84145 0.5407,3.4191 0.0773,4.02943 -0.75234,6.10996 -2.64325,6.62838 -0.2604,0.0714 -1.38019,0.13049 -1.62946,0.086 z m -5.22016,-7.90282 c 1.04379,-0.3097 1.70594,-1.20041 1.94205,-2.61243 0.10712,-0.64063 0.0684,-1.73135 -0.0877,-2.47188 -0.71558,-3.39456 -3.28394,-6.26619 -5.60922,-6.27155 -1.8507,-0.004 -2.95757,1.93015 -2.61019,4.56167 0.41868,3.17159 2.61754,6.17326 4.97805,6.79553 0.34039,0.0897 1.08245,0.089 1.38698,-10e-4 l 0,0 z"
       id="path7555"
       inkscape:connector-curvature="0" />
    <path
       style="opacity:1;fill:none;fill-opacity:1;stroke:#000000;stroke-width:0;stroke-linecap:round;stroke-linejoin:round;stroke-miterlimit:4;stroke-dasharray:none;stroke-opacity:1"
       d="m 371.74933,319.05618 c -0.0614,-0.011 -0.3125,-0.0517 -0.55804,-0.0904 -0.8141,-0.12861 -2.69397,-0.62236 -3.35529,-0.88127 -4.07097,-1.59379 -6.49651,-3.28038 -8.60415,-5.98286 -0.56703,-0.72707 -0.67409,-0.90911 -0.84369,-1.43454 -1.36563,-4.23072 -1.55944,-9.56116 -0.45449,-12.4998 0.28453,-0.75669 0.68319,-1.39392 1.09879,-1.75633 0.19616,-0.17105 1.10519,-0.67819 1.48414,-0.82798 0.93582,-0.36992 2.0854,-0.3622 3.2568,0.0219 0.87583,0.28717 2.04683,0.9416 3.05399,1.70677 1.98196,1.50576 4.35871,4.12746 5.96709,6.58206 1.30834,1.99671 2.23463,3.73046 2.68686,5.02904 0.40156,1.1531 0.51042,1.84145 0.5407,3.4191 0.0773,4.02943 -0.75234,6.10996 -2.64325,6.62838 -0.2604,0.0714 -1.38019,0.13049 -1.62946,0.086 z m -5.22016,-7.90282 c 1.04379,-0.3097 1.70594,-1.20041 1.94205,-2.61243 0.10712,-0.64063 0.0684,-1.73135 -0.0877,-2.47188 -0.71558,-3.39456 -3.28394,-6.26619 -5.60922,-6.27155 -1.8507,-0.004 -2.95757,1.93015 -2.61019,4.56167 0.41868,3.17159 2.61754,6.17326 4.97805,6.79553 0.34039,0.0897 1.08245,0.089 1.38698,-10e-4 l 0,0 z"
       id="path7557"
       inkscape:connector-curvature="0" />
    <path
       style="opacity:1;fill:none;fill-opacity:1;stroke:#000000;stroke-width:0;stroke-linecap:round;stroke-linejoin:round;stroke-miterlimit:4;stroke-dasharray:none;stroke-opacity:1"
       d="m 371.74933,319.05618 c -0.0614,-0.011 -0.3125,-0.0517 -0.55804,-0.0904 -0.8141,-0.12861 -2.69397,-0.62236 -3.35529,-0.88127 -4.07097,-1.59379 -6.49651,-3.28038 -8.60415,-5.98286 -0.56703,-0.72707 -0.67409,-0.90911 -0.84369,-1.43454 -1.36563,-4.23072 -1.55944,-9.56116 -0.45449,-12.4998 0.28453,-0.75669 0.68319,-1.39392 1.09879,-1.75633 0.19616,-0.17105 1.10519,-0.67819 1.48414,-0.82798 0.93582,-0.36992 2.0854,-0.3622 3.2568,0.0219 0.87583,0.28717 2.04683,0.9416 3.05399,1.70677 1.98196,1.50576 4.35871,4.12746 5.96709,6.58206 1.30834,1.99671 2.23463,3.73046 2.68686,5.02904 0.40156,1.1531 0.51042,1.84145 0.5407,3.4191 0.0773,4.02943 -0.75234,6.10996 -2.64325,6.62838 -0.2604,0.0714 -1.38019,0.13049 -1.62946,0.086 z m -5.22016,-7.90282 c 1.04379,-0.3097 1.70594,-1.20041 1.94205,-2.61243 0.10712,-0.64063 0.0684,-1.73135 -0.0877,-2.47188 -0.71558,-3.39456 -3.28394,-6.26619 -5.60922,-6.27155 -1.8507,-0.004 -2.95757,1.93015 -2.61019,4.56167 0.41868,3.17159 2.61754,6.17326 4.97805,6.79553 0.34039,0.0897 1.08245,0.089 1.38698,-10e-4 l 0,0 z"
       id="path7559"
       inkscape:connector-curvature="0" />
    <path
       style="opacity:1;fill:none;fill-opacity:1;stroke:#000000;stroke-width:0;stroke-linecap:round;stroke-linejoin:round;stroke-miterlimit:4;stroke-dasharray:none;stroke-opacity:1"
       d="m 365.16835,311.02006 c -0.35582,-0.0861 -1.0195,-0.40571 -1.44284,-0.69487 -0.459,-0.31351 -1.34619,-1.20809 -1.70832,-1.72254 -0.77681,-1.10355 -1.30929,-2.28355 -1.57878,-3.49864 -0.33764,-1.52239 -0.26113,-2.72926 0.23882,-3.7671 0.4671,-0.96965 1.26741,-1.45816 2.28199,-1.39295 0.93207,0.0599 1.87994,0.57053 2.83032,1.5247 1.21844,1.2233 2.08737,2.86459 2.45916,4.64503 0.15059,0.72111 0.19137,1.78477 0.0916,2.3884 -0.21996,1.33051 -0.85206,2.20648 -1.80449,2.50065 -0.34401,0.10626 -0.96719,0.11415 -1.36744,0.0173 z"
       id="path7561"
       inkscape:connector-curvature="0" />
  </g>
</svg>
