<?xml version="1.0" encoding="UTF-8" standalone="no"?>
<!-- Created with Inkscape (http://www.inkscape.org/) -->

<svg
   xmlns:dc="http://purl.org/dc/elements/1.1/"
   xmlns:cc="http://creativecommons.org/ns#"
   xmlns:rdf="http://www.w3.org/1999/02/22-rdf-syntax-ns#"
   xmlns:svg="http://www.w3.org/2000/svg"
   xmlns="http://www.w3.org/2000/svg"
   xmlns:sodipodi="http://sodipodi.sourceforge.net/DTD/sodipodi-0.dtd"
   xmlns:inkscape="http://www.inkscape.org/namespaces/inkscape"
   width="744.09448819"
   height="1052.3622047"
   id="svg2"
   version="1.1"
   inkscape:version="0.91 r13725"
   sodipodi:docname="version2.svg">
  <defs
     id="defs4" />
  <sodipodi:namedview
     id="base"
     pagecolor="#ffffff"
     bordercolor="#666666"
     borderopacity="1.0"
     inkscape:pageopacity="0.0"
     inkscape:pageshadow="2"
     inkscape:zoom="3.959798"
     inkscape:cx="422.40367"
     inkscape:cy="676.126"
     inkscape:document-units="px"
     inkscape:current-layer="g3009-1-1-8-2-7-99-4-3-3-4-8-3-1-3-6-6"
     showgrid="false"
     inkscape:window-width="2560"
     inkscape:window-height="1646"
     inkscape:window-x="0"
     inkscape:window-y="25"
     inkscape:window-maximized="1" />
  <metadata
     id="metadata7">
    <rdf:RDF>
      <cc:Work
         rdf:about="">
        <dc:format>image/svg+xml</dc:format>
        <dc:type
           rdf:resource="http://purl.org/dc/dcmitype/StillImage" />
        <dc:title />
      </cc:Work>
    </rdf:RDF>
  </metadata>
  <g
     inkscape:label="Layer 1"
     inkscape:groupmode="layer"
     id="layer1">
    <g
       id="g34785-8-8-0-3-1-22-9-1-0-3-6-4-31"
       transform="matrix(0.5,0.8660254,-0.8660254,0.5,486.94836,-135.9946)">
      <g
         id="g3009-1-1-8-2-7-99-4-3-3-4-8-3-1-3-6-6"
         transform="matrix(0.52815414,-0.8491485,0.8491485,0.52815414,-302.73307,305.7974)">
        <path
           style="fill:#0000ff;fill-opacity:1;fill-rule:evenodd;stroke:none;stroke-width:1px;stroke-linecap:butt;stroke-linejoin:miter;stroke-opacity:1"
           d="m 394.81836,341.34375 c -0.33457,0.0229 -0.58163,0.2263 -0.73242,0.62891 18.05647,24.18054 18.845,32.73354 19.86328,36.81054 6.07678,11.26465 17.25586,11.875 17.25586,11.875 -0.0314,-0.0439 -0.0772,-0.11303 -0.10938,-0.1582 0.73791,-3.48029 3.57928,-18.8104 1.69141,-24.85156 -0.84637,-2.70838 1.75569,11.3802 -4.75977,14.75 -1.38224,1.42163 -1.61077,3.01128 -0.56585,5.11718 -9.43072,-14.2128 -28.27495,-44.47147 -32.64313,-44.17187 z"
           transform="matrix(0.99946128,-0.03282065,0.03282065,0.99946128,-62.665457,247.46047)"
           id="path4244"
           inkscape:connector-curvature="0"
           sodipodi:nodetypes="sccccsccs" />
        <path
           style="fill:#ffff00;fill-opacity:1;fill-rule:evenodd;stroke:none;stroke-width:1px;stroke-linecap:butt;stroke-linejoin:miter;stroke-opacity:1"
           d="m 314.41657,498.54131 c 0,0 7.6797,7.72344 7.52356,23.73859 11.08623,13.46986 7.49608,-4.38978 7.49608,-4.38978 0,0 10.96162,7.19884 10.77129,0.17714 -3.63353,-1.22141 -5.23555,-1.52562 -8.27646,-3.11706 -4.62795,-1.69851 -17.51447,-16.40889 -17.51447,-16.40889 z"
           id="path4407-0"
           inkscape:connector-curvature="0"
           sodipodi:nodetypes="cccccc" />
        <path
           style="opacity:1;fill:none;fill-opacity:1;stroke:#000000;stroke-width:0.125;stroke-miterlimit:4;stroke-dasharray:none;stroke-opacity:1"
           d="m 283.92087,452.3409 c 2.17915,27.78496 -1.43675,42.43737 -19.9548,63.65811 4.64212,7.4326 10.58757,14.86597 15.20625,19.25321 2.18211,2.167 6.94595,5.99915 13.43958,9.76477 5.67043,3.28825 12.71983,6.41356 19.73971,9.79707 -29.96452,14.33478 -37.50195,27.11429 -42.40603,36.40446 15.79761,5.8394 25.2038,9.93593 41.45252,12.84954 3.68748,-13.99836 13.05508,-22.75117 26.27898,-32.04619 9.09815,9.20041 21.13223,24.85417 25.73865,40.17014 -11.67579,23.65307 -10.98953,31.29751 -10.87883,50.00476 3.75105,-0.33672 15.1206,-13.71278 46.46427,-14.88582 6.45685,-1.73594 16.71255,-18.1583 23.44648,-41.88106 -14.9282,-7.2385 -25.44371,-9.83636 -40.25875,-7.12169 -5.93622,-15.2319 -8.50236,-27.88692 -10.05859,-43.00234 28.02324,-2.41413 52.70491,19.31023 52.57341,18.02077 -0.73132,-15.40922 -1.71775,-19.96589 -0.47599,-31.84553 1.13967,-6.14066 1.22319,-10.27564 10.47511,-27.80947 -13.24344,-1.76613 -13.78706,-3.07624 -26.80862,-1.7882 -9.18121,1.03954 -20.43451,4.47163 -38.54946,16.79413 0.18096,-14.02853 2.27461,-42.61679 -20.81088,-63.40607 -23.10822,6.74369 -41.55409,0.32635 -52.72989,-6.00302 -7.65059,-4.33289 -11.88312,-6.92757 -11.88312,-6.92757 z"
           id="rect3860-7-8-3-88-7-7-3-7-7-4-9-7-3-3-3-2"
           inkscape:connector-curvature="0"
           sodipodi:nodetypes="cccsccccccccccccccccsc" />
        <path
           style="fill:#0000ff;fill-opacity:1;fill-rule:evenodd;stroke:none;stroke-width:1px;stroke-linecap:butt;stroke-linejoin:miter;stroke-opacity:1"
           d="M 383.49219 278.9375 C 384.30484 279.56279 385.03381 280.03533 385.62695 280.27539 C 387.55417 281.36602 389.06105 281.9502 390.73828 282.55273 C 388.61897 281.72191 386.41273 280.68639 384.13672 279.34766 C 383.93447 279.23205 383.71941 279.09454 383.49219 278.9375 z M 418.06641 279.0625 C 417.68042 279.07499 417.2762 279.19911 416.85352 279.46875 C 416.89792 279.36614 416.76479 279.60248 416.80859 279.49805 C 416.67573 279.75902 416.7297 279.68222 416.58984 279.9375 C 415.31725 281.58408 413.73811 283.57798 411.28711 284.48047 C 409.80855 285.11697 402.52242 286.52687 392.89844 283.33594 C 393.23317 283.45687 393.42253 283.52244 393.79688 283.66211 C 393.75665 290.68627 383.03711 283.13086 383.03711 283.13086 C 383.03711 283.13086 386.02104 301.00453 375.47461 287.36523 C 374.72458 299.87851 367.80165 308.82773 361.5625 312.30664 C 356.81412 314.73611 353.79609 313.55003 353.38086 313.57812 C 357.5298 315.73964 363.40455 318.71184 364.80664 319.41797 C 367.90972 319.90634 371.2858 322.24921 374.6875 324.7207 C 363.19702 274.21306 407.97461 335.5332 407.97461 335.5332 C 407.97461 335.5332 407.39701 327.52795 405.49805 321.5625 C 405.36932 321.15812 405.20751 320.7185 405.05273 320.28516 C 406.40464 323.42558 408.61326 327.84761 410.12109 331.24023 C 409.48976 317.98197 400.14637 280.35304 424.64258 333.25977 C 422.20649 319.85715 423.23646 299.15105 423.02344 282.83984 C 422.54521 284.31472 420.76832 278.9751 418.06641 279.0625 z "
           transform="matrix(0.99946128,-0.03282065,0.03282065,0.99946128,-62.665457,247.46047)"
           id="path4240" />
        <path
           style="opacity:1;fill:#0000ff;fill-opacity:1;stroke:none;stroke-width:1.26338637;stroke-linecap:round;stroke-linejoin:round;stroke-miterlimit:4;stroke-dasharray:none;stroke-opacity:1"
           d="M 395.26953 240.18164 A 17.459926 11.565671 48.326291 0 0 391.54492 240.79102 A 17.459926 11.565671 48.326291 0 0 389.46289 259.58008 A 17.459926 11.565671 48.326291 0 0 409.82031 269.84766 A 17.459926 11.565671 48.326291 0 0 411.9043 251.06055 A 17.459926 11.565671 48.326291 0 0 395.26953 240.18164 z M 394.21484 241.80078 A 13.594723 8.5597974 59.305428 0 1 405.84375 250.76758 A 13.594723 8.5597974 59.305428 0 1 406.16406 251.41602 C 406.14462 251.35899 406.1292 251.30745 406.10938 251.25 C 408.88019 254.92458 418.34877 274.22657 399.62109 266.41406 C 399.62109 266.41406 399.70582 266.42705 399.71875 266.42969 A 13.594723 8.5597974 59.305428 0 1 390.15625 257.78906 A 13.594723 8.5597974 59.305428 0 1 391.61133 242.30273 A 13.594723 8.5597974 59.305428 0 1 394.21484 241.80078 z "
           transform="matrix(0.99946128,-0.03282065,0.03282065,0.99946128,-62.665457,247.46047)"
           id="path4319-3" />
        <ellipse
           style="fill:#ff0000;fill-opacity:1;stroke:#ff0000;stroke-width:0.08594462;stroke-miterlimit:4;stroke-dasharray:none;stroke-opacity:1"
           id="path2998-0-8-3-9-8-8-2-5-6-5-7-5-5-7-1-5-50"
           transform="matrix(0.88054149,-0.47396908,0.45526543,0.89035576,0,0)"
           cx="82.902473"
           cy="590.46399"
           rx="4.3316436"
           ry="7.1939688" />
        <path
           style="fill:none;stroke:#00ff00;stroke-width:0.125;stroke-linecap:butt;stroke-linejoin:miter;stroke-opacity:1;stroke-miterlimit:4;stroke-dasharray:none"
           d="m 317.5,502.8979 c 0,0 24.46429,29.28571 31.60714,43.57142 7.14286,14.28572 12.5,34.10715 16.25,42.85715 3.75,8.75 7.31246,25.72697 15.88388,34.47697"
           id="path3975-8-8-2-2-4-1-6-1-9-66-8-0-5-82-75-1"
           inkscape:connector-curvature="0"
           sodipodi:nodetypes="cssc" />
        <path
           style="fill:none;stroke:#00ff00;stroke-width:0.125;stroke-linecap:butt;stroke-linejoin:miter;stroke-opacity:1;stroke-miterlimit:4;stroke-dasharray:none"
           d="m 369.40914,536.86039 c 0,0 14.52565,-16.77717 58.81136,-9.63431"
           id="path3977-2-0-5-8-1-9-1-39-90-7-6-2-4-4-0-6"
           inkscape:connector-curvature="0"
           sodipodi:nodetypes="cc" />
        <path
           style="fill:none;stroke:#00ff00;stroke-width:0.125;stroke-linecap:butt;stroke-linejoin:miter;stroke-opacity:1;stroke-miterlimit:4;stroke-dasharray:none"
           d="m 370.0047,543.42509 c 0,0 23.21915,-13.00954 53.93344,-0.33097"
           id="path3979-4-1-5-2-8-4-6-4-4-2-4-3-8-6-61-0"
           inkscape:connector-curvature="0"
           sodipodi:nodetypes="cc" />
        <path
           style="fill:none;stroke:#00ff00;stroke-width:0.125;stroke-linecap:butt;stroke-linejoin:miter;stroke-opacity:1;stroke-miterlimit:4;stroke-dasharray:none"
           d="m 370.84476,549.3171 c 0,0 19.11697,-8.45858 53.22412,8.86285"
           id="path3983-5-2-3-7-0-19-4-5-2-7-8-0-7-7-0-24"
           inkscape:connector-curvature="0"
           sodipodi:nodetypes="cc" />
        <path
           style="fill:none;stroke:#00ff00;stroke-width:0.125;stroke-linecap:butt;stroke-linejoin:miter;stroke-opacity:1;stroke-miterlimit:4;stroke-dasharray:none"
           d="m 372.08287,555.07978 c -0.95502,-0.25697 -2.72222,-15.37424 -3.24271,-25.83365"
           id="path3985-5-5-3-7-7-5-9-4-3-0-9-1-5-2-3-58"
           inkscape:connector-curvature="0"
           sodipodi:nodetypes="cc" />
        <path
           style="fill:none;stroke:#00ff00;stroke-width:0.125;stroke-linecap:butt;stroke-linejoin:miter;stroke-opacity:1;stroke-miterlimit:4;stroke-dasharray:none"
           d="m 363.59688,613.13219 c 0,0 4.97455,9.40856 17.11741,10.83713"
           id="path3987-1-0-3-3-9-0-6-5-2-1-9-1-0-55-6-91"
           inkscape:connector-curvature="0"
           sodipodi:nodetypes="cc" />
        <path
           style="fill:none;stroke:#00ff00;stroke-width:0.125;stroke-linecap:butt;stroke-linejoin:miter;stroke-opacity:1;stroke-miterlimit:4;stroke-dasharray:none"
           d="m 382.85048,599.18821 c 0,0 1.2873,10.10762 -1.74842,25.10762"
           id="path3989-7-9-7-2-2-4-0-3-9-2-8-90-3-78-9-10"
           inkscape:connector-curvature="0"
           sodipodi:nodetypes="cc" />
        <path
           style="fill:none;stroke:#00ff00;stroke-width:0.125;stroke-linecap:butt;stroke-linejoin:miter;stroke-opacity:1;stroke-miterlimit:4;stroke-dasharray:none"
           d="m 312.73822,554.93388 c 4.46428,0 17.39354,10.39644 24.71497,16.46787"
           id="path3991-1-4-4-0-2-22-6-4-8-06-6-4-9-8-47-7"
           inkscape:connector-curvature="0"
           sodipodi:nodetypes="cc" />
        <path
           style="fill:none;stroke:#00ff00;stroke-width:0.125;stroke-linecap:butt;stroke-linejoin:miter;stroke-opacity:1;stroke-miterlimit:4;stroke-dasharray:none"
           d="m 318.43964,557.26879 c 0,0 -37.69804,22.20877 -41.0909,36.49449"
           id="path3993-1-7-3-2-8-4-9-0-4-3-2-4-1-0-4-00"
           inkscape:connector-curvature="0"
           sodipodi:nodetypes="cc" />
        <path
           style="fill:none;stroke:#00ff00;stroke-width:0.125;stroke-linecap:butt;stroke-linejoin:miter;stroke-opacity:1;stroke-miterlimit:4;stroke-dasharray:none"
           d="m 324.47015,561.29066 c 0,0 -38.58441,25.09333 -36.26298,36.70047"
           id="path3995-5-8-8-6-7-9-6-1-9-4-4-1-3-9-6-41"
           inkscape:connector-curvature="0"
           sodipodi:nodetypes="cc" />
        <path
           style="fill:none;stroke:#00ff00;stroke-width:0.125;stroke-linecap:butt;stroke-linejoin:miter;stroke-opacity:1;stroke-miterlimit:4;stroke-dasharray:none"
           d="m 330.56091,565.81685 c 0,0 -23.99059,12.87623 -30.41916,35.73337"
           id="path3997-2-3-0-7-5-3-4-93-6-7-3-0-4-36-79-7"
           inkscape:connector-curvature="0"
           sodipodi:nodetypes="cc" />
        <path
           style="fill:none;stroke:#00ff00;stroke-width:0.125;stroke-linecap:butt;stroke-linejoin:miter;stroke-opacity:1;stroke-miterlimit:4;stroke-dasharray:none"
           d="m 365.22019,616.34881 c 0,0 -6.76299,18.21052 -3.19028,40.31816"
           id="path3999-7-5-8-5-7-2-9-08-37-8-1-3-0-4-9-2"
           inkscape:connector-curvature="0"
           sodipodi:nodetypes="cc" />
        <path
           style="fill:none;stroke:#00ff00;stroke-width:0.125;stroke-linecap:butt;stroke-linejoin:miter;stroke-opacity:1;stroke-miterlimit:4;stroke-dasharray:none"
           d="m 369.87458,619.70291 c 0,0 -3.90719,15.33695 2.68566,32.24331"
           id="path4001-6-1-8-4-8-4-5-1-89-92-5-7-0-6-3-0"
           inkscape:connector-curvature="0"
           sodipodi:nodetypes="cc" />
        <path
           style="fill:none;stroke:#00ff00;stroke-width:0.125;stroke-linecap:butt;stroke-linejoin:miter;stroke-opacity:1;stroke-miterlimit:4;stroke-dasharray:none"
           d="m 375,622.8979 c 0,0 -1.3769,3.87558 8.44453,25.6613"
           id="path4003-1-2-0-41-7-5-3-46-1-8-7-7-5-7-1-54"
           inkscape:connector-curvature="0"
           sodipodi:nodetypes="cc" />
        <path
           style="fill:none;stroke:#00ff00;stroke-width:0.125;stroke-linecap:butt;stroke-linejoin:miter;stroke-opacity:1;stroke-miterlimit:4;stroke-dasharray:none"
           d="m 380.53572,622.8979 c 0,0 3.6707,10.11385 18.49213,24.221"
           id="path4005-4-0-6-7-5-6-9-9-3-9-1-1-1-7-8-5"
           inkscape:connector-curvature="0"
           sodipodi:nodetypes="cc" />
        <path
           style="fill:none;stroke:#00ff00;stroke-width:0.125;stroke-linecap:butt;stroke-linejoin:miter;stroke-opacity:1;stroke-miterlimit:4;stroke-dasharray:none"
           d="m 381.95706,620.18067 c 0,0 8.86132,2.41416 24.57561,20.44987"
           id="path4007-2-1-8-8-4-3-7-1-3-6-4-0-7-6-8-0"
           inkscape:connector-curvature="0"
           sodipodi:nodetypes="cc" />
        <path
           style="fill:none;stroke:#00ff00;stroke-width:0.125;stroke-linecap:butt;stroke-linejoin:miter;stroke-opacity:1;stroke-miterlimit:4;stroke-dasharray:none"
           d="m 382.81858,614.87527 c -3.29413,-1.09804 18.97757,5.20353 30.40614,14.48924"
           id="path4009-3-6-1-4-7-9-1-4-7-6-3-59-4-3-32-7"
           inkscape:connector-curvature="0"
           sodipodi:nodetypes="cc" />
        <path
           style="fill:none;stroke:#00ff00;stroke-width:0.125;stroke-linecap:butt;stroke-linejoin:miter;stroke-opacity:1;stroke-miterlimit:4;stroke-dasharray:none"
           d="m 383.09887,608.18083 c 0,0 19.62983,-2.84267 34.65367,11.15833"
           id="path4011-2-4-9-50-4-3-9-2-7-1-7-10-4-5-9-1"
           inkscape:connector-curvature="0"
           sodipodi:nodetypes="cc" />
        <path
           style="fill:none;stroke:#00ff00;stroke-width:0.125;stroke-linecap:butt;stroke-linejoin:miter;stroke-opacity:1;stroke-miterlimit:4;stroke-dasharray:none"
           d="m 283.47405,474.27082 c 10.95706,-2.29116 17.42294,5.28686 23.2741,13.68454 3.91989,5.62589 8.38112,11.76515 10.69229,15.01011 4.64326,6.5377 7.70241,25.75889 -1.38896,37.88072 -9.09137,12.12183 -16.45562,7.84888 -16.45562,7.84888"
           id="path4013-2-0-8-2-1-2-0-2-6-7-7-3-9-51-36-4"
           inkscape:connector-curvature="0"
           sodipodi:nodetypes="cscsc" />
        <path
           style="fill:none;stroke:#00ff00;stroke-width:0.125;stroke-linecap:butt;stroke-linejoin:miter;stroke-opacity:1;stroke-miterlimit:4;stroke-dasharray:none"
           d="m 302.10232,462.61473 c -2.11918,2.93951 -2.75673,7.62194 -1.71371,11.59597 3.68967,14.05808 21.57539,33.33804 27.4059,37.84614 3.03185,2.85712 7.09161,4.22019 10.99996,5.49378 6.45571,2.10367 13.18735,2.58521 18.29446,0.94594 9.09137,-3.15673 9.59349,-19.58936 9.59349,-19.58936"
           id="path4015-1-6-9-7-9-2-0-2-8-8-0-4-9-3-58-05"
           inkscape:connector-curvature="0"
           sodipodi:nodetypes="cscscc" />
        <ellipse
           ry="6.0062499"
           rx="3.6364608"
           cy="581.60956"
           cx="124.45437"
           style="fill:#ff0000;fill-opacity:1;stroke:#ff0000;stroke-width:0.07195306;stroke-miterlimit:4;stroke-dasharray:none;stroke-opacity:1"
           id="path2998-0-9-6-1-7-7-5-1-8-5-18-2-4-6-4-3-8-9"
           transform="matrix(0.95327085,-0.302117,0.2885764,0.95745687,0,0)" />
        <path
           style="fill:none;stroke:#00ff00;stroke-width:0.125;stroke-linecap:butt;stroke-linejoin:miter;stroke-opacity:1;stroke-miterlimit:4;stroke-dasharray:none"
           d="m 277.94142,498.3507 c 3.78485,-2.35063 9.08459,-2.05968 12.67182,-1.27153 26.85266,5.8998 26.48767,46.62391 4.68643,48.02486"
           id="path4013-2-0-8-2-1-2-0-2-6-7-7-3-9-51-36-4-3"
           inkscape:connector-curvature="0"
           sodipodi:nodetypes="csc" />
        <path
           style="fill:#0000ff;fill-opacity:1;fill-rule:evenodd;stroke:none;stroke-width:1px;stroke-linecap:butt;stroke-linejoin:miter;stroke-opacity:1"
           d="M 345.01562 226.16797 C 343.97728 229.20755 341.7921 233.40795 339.24219 237.39453 C 341.98857 236.72976 344.6709 237.22517 347.13281 238.30273 C 348.1887 233.05731 348.24202 231.06799 354.68359 233.63086 C 354.73622 231.15173 355.33194 228.74851 356.85547 226.76758 C 352.03081 227.03629 349.04171 226.8727 345.01562 226.16797 z "
           transform="matrix(0.99946128,-0.03282065,0.03282065,0.99946128,-62.665457,247.46047)"
           id="path4188" />
        <path
           style="opacity:1;fill:#0000ff;fill-opacity:1;fill-rule:evenodd;stroke:none;stroke-width:1px;stroke-linecap:butt;stroke-linejoin:miter;stroke-opacity:1"
           d="M 339.56641 238.61133 C 338.55328 245.93305 336.24395 252.55072 332.81445 259.35938 C 341.1383 246.02914 356.49685 264.92368 353.43359 264.42578 C 354.39631 265.10074 355.28832 265.80578 356.0918 266.51562 C 364.51182 273.95435 366.88949 286.45555 364.03711 295.78516 C 362.45732 300.95241 359.33624 305.70087 355.52344 307.79102 C 360.04021 309.27385 365.39548 302.57306 368.21875 297.9375 C 372.23195 291.3482 370.0395 283.04756 367.33203 275.83789 C 365.00594 269.64381 355.24805 261.93555 355.24805 261.93555 C 355.24805 261.93555 344.53212 254.84536 339.56641 238.61133 z "
           transform="matrix(0.99946128,-0.03282065,0.03282065,0.99946128,-62.665457,247.46047)"
           id="path4188-6" />
        <path
           style="fill:#ffff00;fill-opacity:1;fill-rule:evenodd;stroke:none;stroke-width:1px;stroke-linecap:butt;stroke-linejoin:miter;stroke-opacity:1"
           d="m 345.50348,500.61695 c 0,0 5.6837,1.88758 7.92528,-4.26746 0.62748,-2.30166 0.45283,-5.79322 -1.93722,-11.1013 2.88992,3.58166 12.98594,22.5624 -5.98806,15.36876 z"
           id="path4338-1"
           inkscape:connector-curvature="0"
           sodipodi:nodetypes="cccc" />
        <ellipse
           style="opacity:1;fill:none;fill-opacity:1;stroke:#00ff00;stroke-width:0.12514959;stroke-linecap:round;stroke-linejoin:round;stroke-miterlimit:4;stroke-dasharray:none;stroke-opacity:1"
           id="path4319"
           cx="53.722939"
           cy="591.12488"
           transform="matrix(0.89882586,-0.43830591,0.49935356,0.86639831,0,0)"
           rx="8.593915"
           ry="13.573182" />
        <ellipse
           style="opacity:1;fill:none;fill-opacity:1;stroke:#00ff00;stroke-width:0.12988879;stroke-linecap:round;stroke-linejoin:round;stroke-miterlimit:4;stroke-dasharray:none;stroke-opacity:1"
           id="path4319-2"
           cx="52.517456"
           cy="589.19958"
           transform="matrix(0.93961708,-0.34222762,0.40540867,0.91413555,0,0)"
           rx="8.0123196"
           ry="12.669618" />
        <path
           style="fill:none;fill-rule:evenodd;stroke:#00ff00;stroke-width:0.125;stroke-linecap:butt;stroke-linejoin:miter;stroke-miterlimit:4;stroke-dasharray:none;stroke-opacity:1"
           d="m 329.33124,468.50179 c -0.9057,1.37753 -3.07716,3.44034 -3.70227,4.82382 -13.23335,29.28764 26.49147,55.36266 39.1306,32.70708"
           id="path4351"
           inkscape:connector-curvature="0"
           sodipodi:nodetypes="csc" />
        <path
           style="opacity:1;fill:#0000ff;fill-opacity:1;stroke:none;stroke-width:1.30064631;stroke-linecap:round;stroke-linejoin:round;stroke-miterlimit:4;stroke-dasharray:none;stroke-opacity:1"
           d="M 339.39844 271.15234 C 338.86883 271.1233 338.40719 271.15955 338.02734 271.26172 C 327.85946 274.0772 330.32637 285.08184 331.59766 289.79883 C 335.5854 299.63442 343.99558 305.91602 350.38281 303.82812 C 356.77098 301.74031 358.71617 292.07333 354.72852 282.23633 C 350.08211 274.82272 343.10567 271.35566 339.39844 271.15234 z M 338.53516 272.4707 C 342.56614 272.41641 347.10305 276.41836 349.38281 282.04102 C 350.26175 284.20924 350.6978 286.36105 350.74414 288.32422 C 350.84026 288.74885 355.61187 310.08253 340.42188 295.20508 C 340.42188 295.20508 340.49509 295.25036 340.52148 295.26758 C 337.93696 293.65746 335.51962 290.7323 334.03125 287.06055 C 331.38506 280.53268 332.67664 274.11747 336.91602 272.73242 C 337.42776 272.56569 337.97027 272.47776 338.53516 272.4707 z M 340.52148 295.26758 C 340.61458 295.32831 340.84156 295.46371 341.20703 295.65234 C 340.9779 295.53158 340.74855 295.40903 340.52148 295.26758 z "
           transform="matrix(0.99946128,-0.03282065,0.03282065,0.99946128,-62.665457,247.46047)"
           id="path4319-2-7" />
        <path
           style="fill:#0000ff;fill-opacity:1;fill-rule:evenodd;stroke:none;stroke-width:1px;stroke-linecap:butt;stroke-linejoin:miter;stroke-opacity:1"
           d="M 367.64453 231.00977 C 356.65112 262.99347 392.61141 283.15905 402.41016 280.93359 C 402.41016 280.93359 377.33134 276.52333 377.40234 250.54297 C 377.29732 249.3424 377.31783 248.08856 377.46875 246.80664 C 376.01448 247.12182 372.38684 234.86493 380.27148 233.74023 C 376.83372 233.43486 371.73218 232.71886 367.64453 231.00977 z "
           transform="matrix(0.99946128,-0.03282065,0.03282065,0.99946128,-62.665457,247.46047)"
           id="path4189" />
        <path
           style="fill:#ffff00;fill-opacity:1;fill-rule:evenodd;stroke:none;stroke-width:1px;stroke-linecap:butt;stroke-linejoin:miter;stroke-opacity:1"
           d="m 272.96396,592.24012 3.70957,1.39423 c 0,0 1.73928,-12.43816 40.5677,-36.13807 -36.35339,16.35425 -44.27727,34.74384 -44.27727,34.74384 z"
           id="path4248"
           inkscape:connector-curvature="0"
           sodipodi:nodetypes="cccc" />
        <path
           style="fill:#ffff00;fill-opacity:1;fill-rule:evenodd;stroke:none;stroke-width:1px;stroke-linecap:butt;stroke-linejoin:miter;stroke-opacity:1"
           d="m 281.55562,595.14799 6.1995,2.19683 c 0,0 -2.49976,-10.71974 36.01617,-36.24128 -34.57207,16.73793 -42.21567,34.04445 -42.21567,34.04445 z"
           id="path4248-5"
           inkscape:connector-curvature="0"
           sodipodi:nodetypes="cccc" />
        <path
           style="fill:#ffff00;fill-opacity:1;fill-rule:evenodd;stroke:none;stroke-width:1px;stroke-linecap:butt;stroke-linejoin:miter;stroke-opacity:1"
           d="m 293.63081,599.2996 5.87363,1.89169 c 0,0 6.23861,-21.61902 30.16855,-35.41757 -25.1507,11.24873 -36.04218,33.52588 -36.04218,33.52588 z"
           id="path4248-3"
           inkscape:connector-curvature="0"
           sodipodi:nodetypes="cccc" />
        <path
           style="fill:#ffff00;fill-opacity:1;fill-rule:evenodd;stroke:none;stroke-width:1px;stroke-linecap:butt;stroke-linejoin:miter;stroke-opacity:1"
           d="m 306.94936,602.84186 4.51123,0.79939 c 0,0 0.66336,-14.42422 25.8634,-31.86509 -28.79998,15.53769 -30.37463,31.0657 -30.37463,31.0657 z"
           id="path4248-56"
           inkscape:connector-curvature="0"
           sodipodi:nodetypes="cccc" />
        <path
           style="fill:#ffff00;fill-opacity:1;fill-rule:evenodd;stroke:none;stroke-width:1px;stroke-linecap:butt;stroke-linejoin:miter;stroke-opacity:1"
           d="m 369.71087,535.6225 c 0,0 31.07835,-25.02462 60.99481,-14.25767 -2.41005,3.55341 -2.91994,5.33888 -2.91994,5.33888 0,0 -33.85543,-7.60551 -58.07487,8.91879 z"
           id="path4277"
           inkscape:connector-curvature="0"
           sodipodi:nodetypes="cccc" />
        <path
           style="fill:#ffff00;fill-opacity:1;fill-rule:evenodd;stroke:none;stroke-width:1px;stroke-linecap:butt;stroke-linejoin:miter;stroke-opacity:1"
           d="m 370.57023,542.55592 c 0,0 23.69298,-15.24364 54.4369,-6.20942 -1.12939,4.07987 -0.9917,6.34943 -0.9917,6.34943 0,0 -24.14437,-11.96719 -53.4452,-0.14001 z"
           id="path4277-2"
           inkscape:connector-curvature="0"
           sodipodi:nodetypes="cccc" />
        <path
           style="fill:#ffff00;fill-opacity:1;fill-rule:evenodd;stroke:none;stroke-width:0.125;stroke-linecap:butt;stroke-linejoin:miter;stroke-opacity:1;stroke-miterlimit:4;stroke-dasharray:none"
           d="m 372.35496,548.81418 c 0,0 21.53853,-9.67723 51.45499,1.08972 -0.29666,4.43154 0.19799,7.95274 0.19799,7.95274 0,0 -26.1069,-15.94553 -51.65298,-9.04246 z"
           id="path4277-9"
           inkscape:connector-curvature="0"
           sodipodi:nodetypes="cccc" />
        <path
           style="fill:#ffff00;fill-opacity:1;fill-rule:evenodd;stroke:none;stroke-width:1px;stroke-linecap:butt;stroke-linejoin:miter;stroke-opacity:1"
           d="m 387.4974,555.96032 c 0,0 14.69318,1.15987 36.68986,9.28114 0.0396,5.05219 0.1897,7.70034 0.1897,7.70034 0,0 -20.29222,-13.92557 -36.87956,-16.98148 z"
           id="path4277-1"
           inkscape:connector-curvature="0"
           sodipodi:nodetypes="cccc" />
        <path
           style="fill:#ffff00;fill-opacity:1;fill-rule:evenodd;stroke:none;stroke-width:1px;stroke-linecap:butt;stroke-linejoin:miter;stroke-opacity:1"
           d="m 364.77453,616.13502 c -1.16041,4.42844 -6.25509,23.04084 -3.26775,40.9142 -1.68714,0.56074 -3.22736,1.74836 -3.22736,1.74836 0,0 -2.85688,-19.97147 6.49511,-42.66256 z"
           id="path4306"
           inkscape:connector-curvature="0"
           sodipodi:nodetypes="cccc" />
        <path
           style="fill:#ffff00;fill-opacity:1;fill-rule:evenodd;stroke:none;stroke-width:1px;stroke-linecap:butt;stroke-linejoin:miter;stroke-opacity:1"
           d="m 369.17726,620.15957 c -1.09006,4.64722 -2.34052,18.17464 2.72065,31.87395 -1.68714,0.56074 -3.4565,1.50321 -3.4565,1.50321 0,0 -5.95546,-8.53096 0.73585,-33.37716 z"
           id="path4306-2"
           inkscape:connector-curvature="0"
           sodipodi:nodetypes="cccc" />
        <path
           style="fill:#ffff00;fill-opacity:1;fill-rule:evenodd;stroke:none;stroke-width:1px;stroke-linecap:butt;stroke-linejoin:miter;stroke-opacity:1"
           d="m 374.38993,623.08365 c -0.36025,4.74959 3.64555,13.87212 8.61819,25.83719 -2.07403,0.32077 -3.54654,0.68498 -3.54654,0.68498 0,0 -6.63827,-10.08776 -5.07165,-26.52217 z"
           id="path4306-7"
           inkscape:connector-curvature="0"
           sodipodi:nodetypes="cccc" />
        <path
           style="fill:#ffff00;fill-opacity:1;fill-rule:evenodd;stroke:none;stroke-width:1px;stroke-linecap:butt;stroke-linejoin:miter;stroke-opacity:1"
           d="m 380.62146,624.3319 c 7.80393,12.91449 7.00889,11.45602 17.67969,22.85496 -1.68714,0.56074 -11.67738,-2.61704 -11.67738,-2.61704 0,0 -6.60148,-8.71363 -8.68996,-20.45372 1.28089,-0.0724 1.79472,0.63764 2.68765,0.2158 z"
           id="path4306-0"
           inkscape:connector-curvature="0"
           sodipodi:nodetypes="ccccc" />
        <path
           style="fill:#ffff00;fill-opacity:1;fill-rule:evenodd;stroke:none;stroke-width:0.125;stroke-linecap:butt;stroke-linejoin:miter;stroke-opacity:1;stroke-miterlimit:4;stroke-dasharray:none"
           d="m 383.14075,607.95837 c 4.34277,-1.44844 21.69247,-0.80068 34.63799,10.73334 0.44885,-1.72029 1.8926,-5.98227 1.8926,-5.98227 0,0 -14.39497,-12.31441 -36.53059,-4.75107 z"
           id="path4306-9"
           inkscape:connector-curvature="0"
           sodipodi:nodetypes="cccc" />
        <path
           style="fill:#ffff00;fill-opacity:1;fill-rule:evenodd;stroke:none;stroke-width:1px;stroke-linecap:butt;stroke-linejoin:miter;stroke-opacity:1"
           d="m 383.35963,614.38281 c 4.62381,1.66902 16.14683,4.42879 30.17412,14.89995 0.44885,-1.72029 2.08866,-5.45271 2.08866,-5.45271 0,0 -7.57321,-8.60773 -32.26278,-9.44724 z"
           id="path4306-9-6"
           inkscape:connector-curvature="0"
           sodipodi:nodetypes="cccc" />
        <path
           style="fill:#ffff00;fill-opacity:1;fill-rule:evenodd;stroke:none;stroke-width:1px;stroke-linecap:butt;stroke-linejoin:miter;stroke-opacity:1"
           d="m 382.41851,619.72907 c 16.29678,8.92374 18.32639,15.03262 24.72212,20.26035 0.44885,-1.72029 2.90938,-4.94365 2.90938,-4.94365 0,0 -9.51753,-10.6879 -27.6315,-15.3167 z"
           id="path4306-9-0"
           inkscape:connector-curvature="0"
           sodipodi:nodetypes="cccc" />
        <path
           style="fill:#ffff00;fill-opacity:1;fill-rule:evenodd;stroke:none;stroke-width:1px;stroke-linecap:butt;stroke-linejoin:miter;stroke-opacity:1"
           d="m 381.63497,624.19339 c 0,0 8.49958,15.35431 18.12008,22.67644 2.71655,-1.60788 1.72797,-1.1587 3.62424,-2.53103 -5.00922,-3.81582 -16.86514,-13.02492 -21.36114,-22.07867 -0.38318,1.93326 -0.38318,1.93326 -0.38318,1.93326 z"
           id="path4392"
           inkscape:connector-curvature="0"
           sodipodi:nodetypes="ccccc" />
        <ellipse
           style="fill:none;fill-opacity:1;stroke:#00ff00;stroke-width:0.12501395;stroke-miterlimit:4;stroke-dasharray:none;stroke-opacity:1"
           id="path2998-0-8-3-9-8-8-2-5-6-5-7-5-5-7-1-5-50-3"
           transform="matrix(0.88054149,-0.47396908,0.45526544,0.89035576,0,0)"
           cx="82.902481"
           cy="590.46399"
           rx="4.3316436"
           ry="7.1939688" />
        <path
           style="fill:#ffff00;fill-opacity:1;fill-rule:evenodd;stroke:none;stroke-width:1px;stroke-linecap:butt;stroke-linejoin:miter;stroke-opacity:1"
           d="m 287.2819,531.35072 c 0,0 1.5018,0.95731 3.34469,1.20554 2.8229,0.28087 6.82483,-0.91439 6.72828,-8.49275 0,0 5.75362,21.80161 -10.07297,7.28721 z"
           id="path4387-2"
           inkscape:connector-curvature="0"
           sodipodi:nodetypes="cccc" />
        <ellipse
           ry="6.0062499"
           rx="3.6364608"
           cy="581.60956"
           cx="124.45437"
           style="fill:none;fill-opacity:1;stroke:#00ff00;stroke-width:0.12500627;stroke-miterlimit:4;stroke-dasharray:none;stroke-opacity:1"
           id="path2998-0-9-6-1-7-7-5-1-8-5-18-2-4-6-4-3-8-9-6"
           transform="matrix(0.95327085,-0.302117,0.2885764,0.95745687,0,0)" />
        <path
           style="fill:#ffff00;fill-opacity:1;fill-rule:evenodd;stroke:none;stroke-width:1px;stroke-linecap:butt;stroke-linejoin:miter;stroke-opacity:1"
           d="m 299.49783,469.32521 c 0.17486,7.447 5.03502,15.23033 5.03502,15.23033 0,0 -5.5335,-7.53757 -12.43358,-10.3084 0.88482,-5.28488 0.86841,-7.27575 7.39856,-4.92193 z"
           id="path4188-7-3"
           inkscape:connector-curvature="0"
           sodipodi:nodetypes="cccc" />
        <path
           style="fill:#ffff00;fill-opacity:1;fill-rule:evenodd;stroke:none;stroke-width:0.125;stroke-linecap:butt;stroke-linejoin:miter;stroke-miterlimit:4;stroke-dasharray:none;stroke-opacity:1"
           d="m 277.57099,497.55944 c 0,0 11.5586,-3.88541 20.0511,1.77355 8.49249,5.65897 -11.82001,-20.4259 -20.0511,-1.77355 z"
           id="path4299-5"
           inkscape:connector-curvature="0"
           sodipodi:nodetypes="csc" />
        <path
           style="fill:#ffff00;fill-opacity:1;fill-rule:evenodd;stroke:none;stroke-width:1px;stroke-linecap:butt;stroke-linejoin:miter;stroke-opacity:1"
           d="m 328.92659,468.69992 c 0,0 -5.23552,5.15228 -5.83458,12.073 -0.4958,5.72773 -8.69851,-14.61078 5.83458,-12.073 z"
           id="path4320-6"
           inkscape:connector-curvature="0"
           sodipodi:nodetypes="csc" />
        <path
           style="fill:#ffff00;fill-rule:evenodd;stroke:none;stroke-width:1px;stroke-linecap:butt;stroke-linejoin:miter;stroke-opacity:1;fill-opacity:1"
           d="m 300.96457,549.32303 7.12309,3.36178 c 0,0 -2.61832,-1.52203 1.04354,-4.94763 3.66186,-3.4256 -8.16663,1.58585 -8.16663,1.58585 z"
           id="path4405"
           inkscape:connector-curvature="0" />
        <path
           style="fill:#ffff00;fill-opacity:1;fill-rule:evenodd;stroke:none;stroke-width:1px;stroke-linecap:butt;stroke-linejoin:miter;stroke-opacity:1"
           d="m 366.93541,496.14289 c 0,0 2.96046,10.74073 2.554,19.50288 -0.16562,3.57038 -2.77826,-5.02542 -6.36142,-2.57052 2.59646,-6.59208 3.80742,-16.93236 3.80742,-16.93236 z"
           id="path4409-7"
           inkscape:connector-curvature="0"
           sodipodi:nodetypes="cscc" />
      </g>
    </g>
  </g>
</svg>
