<?xml version="1.0" encoding="UTF-8" standalone="no"?>
<!-- Created with Inkscape (http://www.inkscape.org/) -->

<svg
   xmlns:dc="http://purl.org/dc/elements/1.1/"
   xmlns:cc="http://creativecommons.org/ns#"
   xmlns:rdf="http://www.w3.org/1999/02/22-rdf-syntax-ns#"
   xmlns:svg="http://www.w3.org/2000/svg"
   xmlns="http://www.w3.org/2000/svg"
   xmlns:xlink="http://www.w3.org/1999/xlink"
   xmlns:sodipodi="http://sodipodi.sourceforge.net/DTD/sodipodi-0.dtd"
   xmlns:inkscape="http://www.inkscape.org/namespaces/inkscape"
   width="2in"
   height="2in"
   viewBox="0 0 50.800001 50.800001"
   version="1.1"
   id="svg5983"
   inkscape:version="0.92.5 (0.92.5+69)"
   sodipodi:docname="tm-clock\.svg">
  <defs
     id="defs5977">
    <clipPath
       clipPathUnits="userSpaceOnUse"
       id="clipPath5961">
      <rect
         style="opacity:1;fill:#ff00f6;fill-opacity:1;stroke:none;stroke-width:0.00104484"
         id="rect5963"
         width="0.10299174"
         height="0.15730932"
         x="0.77407444"
         y="-0.93432206"
         transform="scale(1,-1)" />
    </clipPath>
  </defs>
  <sodipodi:namedview
     id="base"
     pagecolor="#ffffff"
     bordercolor="#666666"
     borderopacity="1.0"
     inkscape:pageopacity="0.0"
     inkscape:pageshadow="2"
     inkscape:zoom="7.9195959"
     inkscape:cx="105.20171"
     inkscape:cy="108.27953"
     inkscape:document-units="mm"
     inkscape:current-layer="layer1"
     showgrid="false"
     units="in"
     inkscape:window-width="1853"
     inkscape:window-height="1025"
     inkscape:window-x="67"
     inkscape:window-y="27"
     inkscape:window-maximized="1" />
  <metadata
     id="metadata5980">
    <rdf:RDF>
      <cc:Work
         rdf:about="">
        <dc:format>image/svg+xml</dc:format>
        <dc:type
           rdf:resource="http://purl.org/dc/dcmitype/StillImage" />
        <dc:title></dc:title>
      </cc:Work>
    </rdf:RDF>
  </metadata>
  <g
     inkscape:label="Layer 1"
     inkscape:groupmode="layer"
     id="layer1"
     transform="translate(0,-246.19998)">
    <circle
       style="opacity:1;fill:none;fill-opacity:0.57627115;stroke:#000000;stroke-width:0.5291667;stroke-miterlimit:4;stroke-dasharray:none;stroke-opacity:1"
       id="path6542"
       transform="rotate(90)"
       cx="273.9353"
       cy="-29.543922"
       r="7.3949847" />
    <circle
       style="opacity:1;fill:none;fill-opacity:0.57627115;stroke:#000000;stroke-width:0.5291667;stroke-miterlimit:4;stroke-dasharray:none;stroke-opacity:1"
       id="path6542-2"
       cx="29.463268"
       cy="273.74634"
       r="5.1667404" />
    <circle
       style="opacity:0.531;fill:#ffff00;fill-opacity:0.96045197;stroke:#000000;stroke-width:0.46606132;stroke-miterlimit:4;stroke-dasharray:none;stroke-opacity:1"
       id="path6559"
       cx="29.808899"
       cy="267.43457"
       r="0.29128835" />
    <circle
       style="opacity:0.531;fill:#ffff00;fill-opacity:0.96045197;stroke:#000000;stroke-width:0.46606132;stroke-miterlimit:4;stroke-dasharray:none;stroke-opacity:1"
       id="path6559-7"
       cx="35.851398"
       cy="274.11453"
       r="0.29128835" />
    <circle
       style="opacity:0.531;fill:#ffff00;fill-opacity:0.96045197;stroke:#000000;stroke-width:0.46606132;stroke-miterlimit:4;stroke-dasharray:none;stroke-opacity:1"
       id="path6559-0"
       cx="23.33094"
       cy="273.6991"
       r="0.29128835" />
    <circle
       style="opacity:0.531;fill:#ffff00;fill-opacity:0.96045197;stroke:#000000;stroke-width:0.46606132;stroke-miterlimit:4;stroke-dasharray:none;stroke-opacity:1"
       id="path6559-9"
       cx="29.240871"
       cy="280.20938"
       r="0.29128835" />
    <g
       aria-label="Ted
Maier
Drugs"
       transform="matrix(0.26747085,0.02148946,-0.02481919,0.30891472,0.68887727,248.74082)"
       style="font-style:normal;font-weight:normal;font-size:8px;line-height:1;font-family:sans-serif;letter-spacing:0px;word-spacing:0px;fill:#000000;fill-opacity:1;stroke:none"
       id="flowRoot6588">
      <path
         d="m 108.82643,66.098391 c -0.088,0.392 0.112,0.656 0.512,0.656 0.4,0 0.712,-0.264 0.8,-0.656 l 0.872,-4.104 h 1.24 c 0.376,0 0.72,-0.192 0.792,-0.552 0.08,-0.36 -0.184,-0.552 -0.56,-0.552 h -3.792 c -0.376,0 -0.72,0.192 -0.8,0.552 -0.072,0.36 0.192,0.552 0.568,0.552 h 1.24 z"
         style="font-style:oblique;font-variant:normal;font-weight:bold;font-stretch:normal;font-family:'Helvetica Rounded LT Std';-inkscape-font-specification:'Helvetica Rounded LT Std Bold Oblique';text-align:center;text-anchor:middle"
         id="path6687" />
      <path
         d="m 115.43643,64.778391 c 0.392,0 0.536,-0.104 0.616,-0.504 0.208,-0.96 -0.36,-1.912 -1.704,-1.912 -1.384,0 -2.4,0.912 -2.688,2.272 -0.216,1.016 0.16,2.12 1.792,2.12 0.704,0 1.904,-0.328 2.056,-1.032 0.04,-0.216 -0.104,-0.456 -0.384,-0.456 -0.472,0 -0.6,0.576 -1.48,0.576 -0.68,0 -0.984,-0.448 -0.848,-1.064 z m -2.496,-0.672 c 0.248,-0.568 0.672,-0.928 1.256,-0.928 0.52,0 0.84,0.392 0.792,0.928 z"
         style="font-style:oblique;font-variant:normal;font-weight:bold;font-stretch:normal;font-family:'Helvetica Rounded LT Std';-inkscape-font-specification:'Helvetica Rounded LT Std Bold Oblique';text-align:center;text-anchor:middle"
         id="path6689" />
      <path
         d="m 121.37505,61.370391 c 0.08,-0.384 -0.104,-0.584 -0.456,-0.584 -0.352,0 -0.632,0.2 -0.712,0.584 l -0.336,1.584 h -0.016 c -0.152,-0.376 -0.504,-0.592 -1.024,-0.592 -1.232,0 -2.024,1.048 -2.264,2.168 -0.32,1.512 0.384,2.224 1.36,2.224 0.568,0 1.096,-0.24 1.392,-0.736 h 0.016 l -0.04,0.184 c -0.08,0.36 0.064,0.552 0.408,0.552 0.36,0 0.568,-0.192 0.648,-0.552 z m -3.648,3.2 c 0.12,-0.544 0.464,-1.296 1.208,-1.296 0.712,-0.008 0.784,0.696 0.656,1.296 -0.136,0.664 -0.528,1.272 -1.208,1.272 -0.616,-0.016 -0.8,-0.584 -0.656,-1.272 z"
         style="font-style:oblique;font-variant:normal;font-weight:bold;font-stretch:normal;font-family:'Helvetica Rounded LT Std';-inkscape-font-specification:'Helvetica Rounded LT Std Bold Oblique';text-align:center;text-anchor:middle"
         id="path6691" />
      <path
         d="m 103.22237,74.328517 c -0.064,0.328 0.024,0.64 0.448,0.64 0.424,0 0.656,-0.312 0.72,-0.64 l 0.76,-3.568 h 0.016 l 0.408,3.824 c 0.032,0.272 0.208,0.384 0.48,0.384 0.272,0 0.496,-0.112 0.64,-0.384 l 2.04,-3.824 h 0.016 l -0.76,3.568 c -0.064,0.328 0.024,0.64 0.448,0.64 0.424,0 0.656,-0.312 0.72,-0.64 l 1,-4.68 c 0.112,-0.528 -0.224,-0.648 -0.576,-0.648 h -0.368 c -0.408,0 -0.632,0.16 -0.864,0.6 l -1.912,3.696 h -0.016 l -0.36,-3.696 c -0.04,-0.44 -0.2,-0.6 -0.608,-0.6 h -0.384 c -0.352,0 -0.736,0.12 -0.848,0.648 z"
         style="font-style:oblique;font-variant:normal;font-weight:bold;font-stretch:normal;font-family:'Helvetica Rounded LT Std';-inkscape-font-specification:'Helvetica Rounded LT Std Bold Oblique';text-align:center;text-anchor:middle"
         id="path6693" />
      <path
         d="m 114.63574,71.776517 c 0.176,-0.84 -0.52,-1.2 -1.64,-1.2 -1.2,0 -1.984,0.592 -2.08,1.056 -0.056,0.24 0.104,0.448 0.4,0.448 0.464,0 0.624,-0.64 1.488,-0.64 0.392,0 0.704,0.144 0.632,0.48 -0.072,0.336 -0.304,0.4 -0.592,0.432 l -0.728,0.08 c -0.92,0.104 -1.712,0.376 -1.92,1.344 -0.16,0.736 0.4,1.192 1.064,1.192 0.616,0 1.184,-0.176 1.744,-0.68 -0.056,0.36 0.04,0.68 0.544,0.68 0.28,0 0.568,-0.184 0.624,-0.448 0.04,-0.184 -0.056,-0.296 0.048,-0.784 z m -1.504,1.576 c -0.088,0.432 -0.568,0.848 -1.208,0.848 -0.4,0 -0.608,-0.216 -0.552,-0.48 0.08,-0.352 0.376,-0.504 0.88,-0.576 l 0.432,-0.064 c 0.144,-0.024 0.392,-0.064 0.544,-0.184 z"
         style="font-style:oblique;font-variant:normal;font-weight:bold;font-stretch:normal;font-family:'Helvetica Rounded LT Std';-inkscape-font-specification:'Helvetica Rounded LT Std Bold Oblique';text-align:center;text-anchor:middle"
         id="path6695" />
      <path
         d="m 115.15837,74.384517 c -0.072,0.312 0,0.584 0.456,0.584 0.456,0 0.64,-0.272 0.712,-0.584 l 0.68,-3.224 c 0.072,-0.312 0,-0.584 -0.456,-0.584 -0.456,0 -0.64,0.272 -0.712,0.584 z m 0.992,-4.808 c -0.064,0.336 0.144,0.608 0.48,0.608 0.336,0 0.672,-0.272 0.736,-0.608 0.072,-0.336 -0.136,-0.608 -0.472,-0.608 -0.336,0 -0.672,0.272 -0.744,0.608 z"
         style="font-style:oblique;font-variant:normal;font-weight:bold;font-stretch:normal;font-family:'Helvetica Rounded LT Std';-inkscape-font-specification:'Helvetica Rounded LT Std Bold Oblique';text-align:center;text-anchor:middle"
         id="path6697" />
      <path
         d="m 121.24112,72.992517 c 0.392,0 0.536,-0.104 0.616,-0.504 0.208,-0.96 -0.36,-1.912 -1.704,-1.912 -1.384,0 -2.4,0.912 -2.688,2.272 -0.216,1.016 0.16,2.12 1.792,2.12 0.704,0 1.904,-0.328 2.056,-1.032 0.04,-0.216 -0.104,-0.456 -0.384,-0.456 -0.472,0 -0.6,0.576 -1.48,0.576 -0.68,0 -0.984,-0.448 -0.848,-1.064 z m -2.496,-0.672 c 0.248,-0.568 0.672,-0.928 1.256,-0.928 0.52,0 0.84,0.392 0.792,0.928 z"
         style="font-style:oblique;font-variant:normal;font-weight:bold;font-stretch:normal;font-family:'Helvetica Rounded LT Std';-inkscape-font-specification:'Helvetica Rounded LT Std Bold Oblique';text-align:center;text-anchor:middle"
         id="path6699" />
      <path
         d="m 122.26774,74.384517 c -0.072,0.312 0,0.584 0.456,0.584 0.456,0 0.64,-0.272 0.712,-0.584 l 0.288,-1.36 c 0.208,-0.968 0.528,-1.296 1,-1.296 h 0.208 c 0.288,0 0.608,-0.152 0.704,-0.584 0.072,-0.328 -0.152,-0.568 -0.52,-0.568 -0.568,0 -0.936,0.504 -1.176,0.992 h -0.016 l 0.088,-0.448 c 0.08,-0.352 -0.112,-0.544 -0.408,-0.544 -0.296,0 -0.568,0.192 -0.648,0.544 z"
         style="font-style:oblique;font-variant:normal;font-weight:bold;font-stretch:normal;font-family:'Helvetica Rounded LT Std';-inkscape-font-specification:'Helvetica Rounded LT Std Bold Oblique';text-align:center;text-anchor:middle"
         id="path6701" />
      <path
         d="m 102.77093,82.310644 c -0.12,0.584 0.144,0.768 0.608,0.768 h 1.576 c 1.752,0 2.992,-1.056 3.384,-2.88 0.472,-2.256 -0.704,-2.88 -2.136,-2.88 h -1.6 c -0.464,0 -0.808,0.184 -0.928,0.768 z m 2.152,-3.936 h 1.096 c 0.96,0 1.248,0.688 1.008,1.824 -0.192,0.888 -0.728,1.824 -1.776,1.824 h -1.104 z"
         style="font-style:oblique;font-variant:normal;font-weight:bold;font-stretch:normal;font-family:'Helvetica Rounded LT Std';-inkscape-font-specification:'Helvetica Rounded LT Std Bold Oblique';text-align:center;text-anchor:middle"
         id="path6703" />
      <path
         d="m 108.71305,82.598644 c -0.072,0.312 0,0.584 0.456,0.584 0.456,0 0.64,-0.272 0.712,-0.584 l 0.288,-1.36 c 0.208,-0.968 0.528,-1.296 1,-1.296 h 0.208 c 0.288,0 0.608,-0.152 0.704,-0.584 0.072,-0.328 -0.152,-0.568 -0.52,-0.568 -0.568,0 -0.936,0.504 -1.176,0.992 h -0.016 l 0.088,-0.448 c 0.08,-0.352 -0.112,-0.544 -0.408,-0.544 -0.296,0 -0.568,0.192 -0.648,0.544 z"
         style="font-style:oblique;font-variant:normal;font-weight:bold;font-stretch:normal;font-family:'Helvetica Rounded LT Std';-inkscape-font-specification:'Helvetica Rounded LT Std Bold Oblique';text-align:center;text-anchor:middle"
         id="path6705" />
      <path
         d="m 116.53905,79.374644 c 0.072,-0.312 0,-0.584 -0.456,-0.584 -0.456,0 -0.64,0.272 -0.712,0.584 l -0.408,1.928 c -0.12,0.584 -0.672,0.92 -1.08,0.92 -0.504,0 -0.664,-0.336 -0.568,-0.808 l 0.432,-2.04 c 0.072,-0.312 0,-0.584 -0.456,-0.584 -0.456,0 -0.64,0.272 -0.712,0.584 l -0.48,2.272 c -0.248,1.184 0.44,1.536 1.144,1.536 0.664,0 1.152,-0.304 1.576,-0.736 h 0.016 l -0.032,0.152 c -0.08,0.352 0.032,0.584 0.4,0.584 0.368,0 0.576,-0.232 0.656,-0.584 z"
         style="font-style:oblique;font-variant:normal;font-weight:bold;font-stretch:normal;font-family:'Helvetica Rounded LT Std';-inkscape-font-specification:'Helvetica Rounded LT Std Bold Oblique';text-align:center;text-anchor:middle"
         id="path6707" />
      <path
         d="m 118.12568,80.974644 c 0.152,-0.72 0.504,-1.272 1.256,-1.272 0.544,0 0.784,0.376 0.6,1.224 -0.176,0.832 -0.648,1.176 -1.168,1.176 -0.664,0 -0.8,-0.592 -0.688,-1.128 z m 3.312,-1.632 c 0.08,-0.36 -0.048,-0.552 -0.408,-0.552 -0.344,0 -0.568,0.192 -0.648,0.552 l -0.032,0.144 h -0.016 c -0.12,-0.432 -0.512,-0.696 -1.08,-0.696 -0.984,0 -1.984,0.712 -2.304,2.224 -0.248,1.152 0.224,1.952 1.456,1.952 0.464,0 0.976,-0.256 1.248,-0.56 h 0.016 l -0.056,0.24 c -0.192,0.92 -0.56,1.28 -1.272,1.28 -0.656,0 -0.624,-0.6 -1.112,-0.6 -0.256,0 -0.52,0.208 -0.584,0.496 -0.12,0.568 0.672,0.968 1.56,0.968 1.216,0 2.216,-0.648 2.512,-2.056 z"
         style="font-style:oblique;font-variant:normal;font-weight:bold;font-stretch:normal;font-family:'Helvetica Rounded LT Std';-inkscape-font-specification:'Helvetica Rounded LT Std Bold Oblique';text-align:center;text-anchor:middle"
         id="path6709" />
      <path
         d="m 122.0243,80.094644 c -0.168,0.784 0.304,1.064 0.952,1.232 l 0.648,0.168 c 0.392,0.104 0.64,0.152 0.576,0.448 -0.048,0.24 -0.352,0.424 -0.768,0.424 -0.864,0 -0.76,-0.72 -1.264,-0.72 -0.328,0 -0.52,0.232 -0.576,0.488 -0.12,0.576 0.656,1.048 1.712,1.048 0.88,0 1.896,-0.44 2.096,-1.392 0.176,-0.816 -0.56,-1.096 -1.192,-1.248 l -0.464,-0.112 c -0.344,-0.08 -0.592,-0.144 -0.536,-0.416 0.056,-0.248 0.344,-0.36 0.752,-0.36 0.736,0 0.64,0.536 1.096,0.536 0.304,0 0.536,-0.24 0.592,-0.512 0.12,-0.536 -0.704,-0.888 -1.592,-0.888 -0.808,0 -1.824,0.352 -2.032,1.304 z"
         style="font-style:oblique;font-variant:normal;font-weight:bold;font-stretch:normal;font-family:'Helvetica Rounded LT Std';-inkscape-font-specification:'Helvetica Rounded LT Std Bold Oblique';text-align:center;text-anchor:middle"
         id="path6711" />
    </g>
    <text
       xml:space="preserve"
       style="font-style:normal;font-weight:normal;font-size:2.11666656px;line-height:1.25;font-family:sans-serif;letter-spacing:0px;word-spacing:0px;fill:#000000;fill-opacity:1;stroke:none;stroke-width:0.26458332"
       id="text6602"
       transform="matrix(0.81536179,0.64946027,-0.64946027,0.81536179,183.33418,31.521509)"><textPath
         xlink:href="#path6542"
         id="textPath6604"><tspan
   style="stroke-width:0.26458332"
   id="tspan6600"
   dy="-0.5">AROUND    THE   CLOCK   SERVICE</tspan></textPath></text>
    <rect
       style="opacity:0.531;fill:#ffff00;fill-opacity:0.96045197;stroke:none;stroke-width:0.62135702;stroke-miterlimit:4;stroke-dasharray:none;stroke-opacity:1"
       id="rect6607"
       width="1.4093685"
       height="0.20774662"
       x="198.6935"
       y="195.64297"
       transform="rotate(38.395253)" />
    <rect
       style="opacity:0.531;fill:#ffff00;fill-opacity:0.96045197;stroke:none;stroke-width:0.62135696;stroke-miterlimit:4;stroke-dasharray:none;stroke-opacity:1"
       id="rect6607-0"
       width="1.4093685"
       height="0.20774662"
       x="152.35423"
       y="231.63637"
       transform="matrix(-0.78374492,0.62108285,0.62108285,0.78374492,0,0)" />
    <rect
       style="opacity:0.531;fill:#ffff00;fill-opacity:0.96045197;stroke:none;stroke-width:0.62135696;stroke-miterlimit:4;stroke-dasharray:none;stroke-opacity:1"
       id="rect6607-6"
       width="1.4093685"
       height="0.20774662"
       x="186.28212"
       y="197.09846"
       transform="rotate(38.395253)" />
    <rect
       style="opacity:0.531;fill:#ffff00;fill-opacity:0.96045197;stroke:none;stroke-width:0.62135696;stroke-miterlimit:4;stroke-dasharray:none;stroke-opacity:1"
       id="rect6607-9"
       width="1.4093685"
       height="0.20774662"
       x="140.07967"
       y="233.925"
       transform="matrix(-0.78374492,0.62108285,0.62108285,0.78374492,0,0)" />
    <rect
       style="opacity:0.531;fill:#ffff00;fill-opacity:0.96045197;stroke:none;stroke-width:0.62135696;stroke-miterlimit:4;stroke-dasharray:none;stroke-opacity:1"
       id="rect6607-2"
       width="1.4093685"
       height="0.20774662"
       x="204.94469"
       y="175.36842"
       transform="matrix(-0.55145203,0.8342066,0.8342066,0.55145203,0,0)" />
    <rect
       style="opacity:0.531;fill:#ffff00;fill-opacity:0.96045197;stroke:none;stroke-width:0.62135696;stroke-miterlimit:4;stroke-dasharray:none;stroke-opacity:1"
       id="rect6607-2-1"
       width="1.4093685"
       height="0.20774662"
       x="217.82944"
       y="175.47571"
       transform="matrix(-0.55145205,0.83420659,0.83420659,0.55145205,0,0)" />
    <rect
       style="opacity:0.531;fill:#ffff00;fill-opacity:0.96045197;stroke:none;stroke-width:0.62135696;stroke-miterlimit:4;stroke-dasharray:none;stroke-opacity:1"
       id="rect6607-2-7"
       width="1.4093685"
       height="0.20774662"
       x="237.53455"
       y="125.82592"
       transform="rotate(56.533313)" />
    <rect
       style="opacity:0.531;fill:#ffff00;fill-opacity:0.96045197;stroke:none;stroke-width:0.62135696;stroke-miterlimit:4;stroke-dasharray:none;stroke-opacity:1"
       id="rect6607-2-79"
       width="1.4093685"
       height="0.20774662"
       x="250.13231"
       y="127.18523"
       transform="rotate(56.533313)" />
    <path
       style="fill:#ffff00;stroke:none;stroke-width:0.26458332px;stroke-linecap:butt;stroke-linejoin:miter;stroke-opacity:1;fill-opacity:0.96045196"
       d="m 27.127856,271.75971 0.0038,-0.26131 -1.228422,-1.91941 0.07678,-0.0236 0.165364,0.0473 -1.133929,-1.13983 0.608306,1.45875 0.112212,-0.24214 1.381975,2.0139 z"
       id="path6670"
       inkscape:connector-curvature="0" />
    <path
       style="fill:#ffff00;fill-opacity:0.96045197;stroke:none;stroke-width:0.26458332px;stroke-linecap:butt;stroke-linejoin:miter;stroke-opacity:1"
       d="m 32.150854,273.30166 0.17533,-0.1938 2.348882,-0.73254 -0.04009,-0.0696 -0.153241,-0.0782 1.777902,-0.13207 -1.610671,0.72364 0.08293,-0.25366 -2.525645,0.69702 z"
       id="path6670-7"
       inkscape:connector-curvature="0"
       sodipodi:nodetypes="cccccccccc" />
  </g>
</svg>
