<?xml version="1.0" encoding="UTF-8" standalone="no"?>
<!-- Created with Inkscape (http://www.inkscape.org/) -->

<svg
   xmlns:dc="http://purl.org/dc/elements/1.1/"
   xmlns:cc="http://creativecommons.org/ns#"
   xmlns:rdf="http://www.w3.org/1999/02/22-rdf-syntax-ns#"
   xmlns:svg="http://www.w3.org/2000/svg"
   xmlns="http://www.w3.org/2000/svg"
   xmlns:sodipodi="http://sodipodi.sourceforge.net/DTD/sodipodi-0.dtd"
   xmlns:inkscape="http://www.inkscape.org/namespaces/inkscape"
   width="3in"
   height="1in"
   viewBox="0 0 76.200001 25.400001"
   version="1.1"
   id="svg4580"
   inkscape:version="0.92.5 (0.92.5+69)"
   sodipodi:docname="tm.svg"
   inkscape:export-filename="/home/heaven/Code/Graphic_Design/vintage-logos/tm-blk.png"
   inkscape:export-xdpi="600"
   inkscape:export-ydpi="600">
  <defs
     id="defs4574">
    <clipPath
       clipPathUnits="userSpaceOnUse"
       id="clipPath4558">
      <rect
         style="opacity:1;fill:#ff00f6;fill-opacity:1;stroke:none;stroke-width:0.00104507"
         id="rect4560"
         width="0.15222377"
         height="0.062733851"
         x="0.37990814"
         y="-0.94265193"
         transform="matrix(0.99801346,-0.06300113,-0.0333374,-0.99944415,0,0)" />
    </clipPath>
  </defs>
  <sodipodi:namedview
     id="base"
     pagecolor="#ffffff"
     bordercolor="#666666"
     borderopacity="1.0"
     inkscape:pageopacity="0.0"
     inkscape:pageshadow="2"
     inkscape:zoom="2"
     inkscape:cx="8.168549"
     inkscape:cy="128.81942"
     inkscape:document-units="mm"
     inkscape:current-layer="g5340"
     showgrid="false"
     units="in"
     inkscape:window-width="1853"
     inkscape:window-height="1025"
     inkscape:window-x="67"
     inkscape:window-y="27"
     inkscape:window-maximized="1" />
  <metadata
     id="metadata4577">
    <rdf:RDF>
      <cc:Work
         rdf:about="">
        <dc:format>image/svg+xml</dc:format>
        <dc:type
           rdf:resource="http://purl.org/dc/dcmitype/StillImage" />
        <dc:title />
      </cc:Work>
    </rdf:RDF>
  </metadata>
  <g
     inkscape:label="Layer 1"
     inkscape:groupmode="layer"
     id="layer1"
     transform="translate(0,-271.59998)">
    <flowRoot
       xml:space="preserve"
       id="flowRoot5247"
       style="font-style:normal;font-weight:normal;font-size:40px;line-height:1.25;font-family:sans-serif;letter-spacing:0px;word-spacing:0px;fill:#000000;fill-opacity:1;stroke:none"
       transform="matrix(0.26458333,0,0,0.26458333,0,271.59998)"><flowRegion
         id="flowRegion5249"><rect
           id="rect5251"
           width="169.75"
           height="44.25"
           x="80"
           y="-48" /></flowRegion><flowPara
         id="flowPara5253">D</flowPara></flowRoot>    <g
       id="g5340"
       transform="matrix(1.6107525,0,0,1.6107525,-25.50335,-175.75283)">
      <path
         inkscape:export-ydpi="96"
         inkscape:export-xdpi="96"
         inkscape:export-filename="/home/heaven/Desktop/tm.png"
         id="rect5149"
         transform="matrix(0.26458333,0,0,0.26458333,0,271.59998)"
         d="m 64.285156,47.429688 3.044922,12.667968 -5.5,-0.570312 c 3.656149,6.211653 4.468431,6.295754 8.259766,12.367187 h 25.177734 46.242192 0.63281 l 4.22461,2.59961 1.11914,-1.150391 2.57422,3.285156 c 0.0573,0.09524 0.0943,0.167358 0.15429,0.265625 l 0.0273,-0.03516 0.0254,0.03516 c 0.048,-0.07861 0.0835,-0.15261 0.1289,-0.230469 l 2.59961,-3.320312 1.11914,1.150391 4.22461,-2.59961 h 0.63282 44.24218 25.17774 c 3.79133,-6.071433 4.60362,-6.155534 8.25976,-12.367187 l -5.5,0.570312 3.04493,-12.667968 H 203.21484 95.267578 Z m 1.292969,0.892578 h 83.292965 2.79297 81.29297 l 0.16406,0.228515 -3.01562,11.8125 0.22656,0.453125 4.41406,-0.375 0.20703,0.304688 -6.86328,10.300781 -68.71484,0.224609 -1.2832,-0.0078 -3.80664,2.28125 L 153.125,72.25 l -2.85742,3.439453 -2.85742,-3.4375 -1.16016,1.294922 -3.70508,-2.242187 -1.38476,-0.0332 -70.712894,-0.224609 -6.916016,-10.222656 0.257812,-0.382813 4.414063,0.375 0.226563,-0.453125 -3.015626,-11.8125 z m 1.375,1.328125 -0.222656,0.300781 4.630859,20.089844 77.533202,-0.123047 0.11914,0.652343 -1.30078,1.291016 2.55469,3.007813 2.55664,-3.007813 -1.33399,-1.291016 0.15039,-0.652343 75.53321,0.123047 4.63281,-20.089844 -0.22461,-0.300781 -79.93359,0.371093 -0.0234,0.01172 -1.37305,-0.0078 -1.34179,0.0078 -0.0215,-0.01172 z m 125.343755,1.576171 c 0.44899,1.640807 1.05435,3.712577 1.33398,5.181641 0.0113,0.05896 -0.10988,0.04884 -0.10742,0.107422 -1.22977,-1.187565 -2.08513,-1.371501 -4.21485,-1.861328 -2.35068,-0.158362 -5.7893,-0.611091 -8.43359,-0.154297 -7.17419,2.84315 -3.50202,9.911958 0,11.3125 3.52411,1.245883 7.95023,-0.562317 7.1875,-4.0625 -2.77356,-0.185575 -3.00803,-0.305764 -4,0 -1.10245,0.504454 -1.03224,0.486114 -2.22852,1.287109 V 59.3125 h 13.47852 v 9.25 c -2.46172,-0.659603 -0.57808,-0.157026 -2.46094,-0.660156 -5.57307,-0.392769 -7.3748,1.927947 -17.27148,-0.01367 -3.17917,-0.61629 -6.40947,-3.40138 -7.10742,-7.033203 -1e-5,-3.534728 1.14287,-6.830875 7.45703,-8.042969 4.51181,-1.487509 9.86995,-0.261158 12.63281,-0.5625 1.54411,-0.363591 1.98647,-0.585553 3.10156,-1.015625 z M 223.4375,51.375 226,57.9375 c 0,0 -4.75,-5.562306 -14.375,-2.9375 0,0 -2.11829,0.5557 1.8125,2.3125 3.68837,1.288932 7.69331,1.365521 9.875,2.75 2.36919,2.009461 3.74775,4.419828 -0.3125,7.1875 -5.31026,2.58017 -15.82309,0.330375 -19.0625,0.5 -2.125,1.062501 -2.14648,1.128906 -2.14648,1.128906 L 198.4375,61.78125 c -0.17545,-0.640214 0.34537,-0.290577 0.35742,-0.300781 0.96191,1.185297 5.07636,5.132812 16.88867,4.595703 1.16186,-0.388989 1.40762,-1.727519 0.0664,-2.388672 -4.38736,-1.101241 -4.60751,-0.621741 -11.61523,-3.113281 -6.0412,-2.844964 -5.42905,-6.703548 0,-7.873047 7.26613,-1.203628 9.72214,-0.574145 14.38671,-0.314453 2.11399,-0.140221 2.48633,-0.07813 2.48633,-0.07813 z M 92.460677,52.430858 c 11.129233,-0.104656 12.039273,15.821844 -1.109375,15.529297 h -17.21875 l 1.65625,-1.90625 v -11.3125 l -1.375,-2.25 h 16.9375 c 0.380145,-0.03782 0.750367,-0.05717 1.109375,-0.06055 z m 44.530733,-0.14101 9.95898,0.03125 -0.74023,1.28125 0.12109,10.484375 c 0,0 0.0617,0.53091 0.21875,0.730469 0.35001,0.445001 0.662,0.552414 1.46485,0.857422 0.94777,0.360075 4.40347,0.277017 6.15429,-0.117188 0.74134,-0.166904 0.98926,-0.548108 1.16407,-0.736328 V 53.690236 l -0.7793,-1.34961 h 9.91016 l -1.03516,1.792969 v 9.21875 c -0.1127,1.862702 -0.56488,2.443353 -1.74219,3.542969 -1.17731,1.146482 -20.73149,2.450239 -22.95117,-0.816407 -0.43997,-0.647506 -0.52746,-1.209367 -0.74414,-1.570312 v -10.6875 z m -12.43086,0.159375 c 1.01855,-0.0041 2.30097,0.04176 3.74804,0.472656 3.52823,0.458608 6.65727,6.155094 0.42383,8.640625 l -0.33203,0.335938 0.13281,0.503906 c 0.25128,0.937776 2.49414,4.318359 2.49414,4.318359 0.90858,1.246092 1.46933,1.032965 0.90858,1.335262 H 121.7953 c 0,0 -0.0648,-0.09427 -0.007,-0.13481 0.13129,-0.09175 0.32939,-0.364995 0.22326,-1.171157 -0.15299,-1.162054 -1.43593,-4.162381 -2.88672,-5 h -4.27734 l -0.0879,4.283203 0.98242,2.022396 -9.98539,-8.89e-4 L 106.6875,66.125 V 54.75 c -1.01007,-2.005946 -0.83126,-1.470203 -1.25391,-2.292969 h 18.19922 c 0.27696,0 0.58822,-0.0064 0.92774,-0.0078 z m -37.965107,1.94453 c -1.872001,-0.01579 -2.587891,0.04687 -2.587891,0.04687 l -0.132812,0.265625 v 11.314453 h 5.701171 c 4.583339,-1.790854 4.650022,-9.258163 -0.707031,-11.580078 -0.897321,-0.02806 -1.649437,-0.04161 -2.273437,-0.04687 z m 28.398697,-0.04609 v 5.015625 l 0.0644,0.08789 h 6.54102 c 4.68695,-1.991093 2.88281,-4.342017 0,-5.103516 z m 118.95898,6.769532 c -1.36321,0.0136 -2.16324,0.163195 -3.57617,0.242187 -0.0966,0.0053 -0.22577,0.08802 -0.32812,0.0918 l -2.23633,8.61914 0.25195,-0.02539 z m -169.230464,0.146484 5.691406,8.679687 0.47461,0.107422 -2.322266,-8.363281 -0.171875,-0.15625 z m 83.605464,9.30664 -1.64648,0.04688 -4.31836,0.01562 3.8418,2.208985 z m 3.77149,0.05469 2.32617,2.287109 3.76367,-2.162109 -4.42773,-0.125 z"
         style="opacity:1;fill:#000000;fill-opacity:1;stroke:none;stroke-width:0.99999994"
         inkscape:connector-curvature="0"
         sodipodi:nodetypes="ccccccccccccccccccccccccccccccccccccccccccccccccccccccccccccccccccccccccccccccccccccccccccccccccccccccccccccccccccccccccccccccccccccccccccccccssccccccccsccccccccccccccccccccccccccccccccccccc" />
      <path
         inkscape:export-ydpi="96"
         inkscape:export-xdpi="96"
         inkscape:export-filename="/home/heaven/Desktop/tm.png"
         sodipodi:nodetypes="cccsscccccccccccssccsccccc"
         inkscape:connector-curvature="0"
         id="path4967"
         d="m 22.033235,281.38696 c 0,0 -0.05646,0.37247 -0.04143,0.68985 -0.0668,0.0835 -1.631017,0.78693 -1.920836,-0.94781 0.0668,-0.71411 0.218369,-0.98601 0.491769,-1.23411 0.29484,-0.26755 0.576559,-0.36017 0.974539,-0.34912 1.21795,0.0338 2.563448,0.10138 2.563448,0.10138 0.268649,-0.0724 0.860377,-0.16436 1.100469,-0.2674 0.395915,0.11801 0.286673,0.38866 0.463913,0.70007 -0.0423,0.0317 -0.838482,0.18778 -1.27403,0.80916 -1.248214,1.46328 -1.114702,1.53835 -1.497033,2.02173 -0.183549,0.26121 -0.569456,0.99824 -1.56504,1.27053 -1.01896,0.16704 -1.464827,-0.043 -1.464827,-0.043 l -0.256267,-0.10213 -0.316508,-0.2251 -0.114127,-0.18453 0.20616,-0.66936 c 0,0 0.189142,-0.01 0.253974,0.043 0.151817,0.12404 0.341615,0.32514 0.461808,0.36209 0.171511,0.0527 0.810537,0.48273 1.695867,-0.32744 0.876135,-1.17599 1.530929,-2.1099 1.530929,-2.1099 0.0464,-0.10016 0.333178,-0.38064 0.272482,-0.36458 0,0 0.08967,-0.10993 0.05847,-0.11693 -0.9404,-0.0644 -0.906845,-0.0616 -1.945708,-0.0218 -0.729705,0.11793 -1.099233,0.7558 -0.572721,1.0612 0.512056,-0.0901 0.736843,-0.25959 0.736843,-0.25959 z"
         style="opacity:1;fill:#000000;fill-opacity:1;stroke:none;stroke-width:0.26458332px;stroke-linecap:butt;stroke-linejoin:miter;stroke-opacity:1" />
      <path
         inkscape:export-ydpi="96"
         inkscape:export-xdpi="96"
         inkscape:export-filename="/home/heaven/Desktop/tm.png"
         sodipodi:nodetypes="cccccccccccccccccccccc"
         id="path1002"
         d="m 55.225838,279.39379 c -0.683817,-0.0196 -0.907006,0.004 -0.907006,0.004 l -0.08096,0.33123 0.03283,0.29929 0.0022,3.75143 -0.04296,0.53407 1.318162,-0.0151 0.0092,-0.70653 -0.01639,-0.88349 0.736657,-0.071 1.347827,1.67931 1.363808,-0.17032 v 0 c 0,0 -0.840325,-0.94311 -1.605131,-1.90824 0.517144,-0.20235 1.557544,-1.79224 -0.115317,-2.73616 -0.954266,-0.16783 -1.359119,-0.0889 -2.042951,-0.10817 z m 0.359875,1.2725 0.89356,-0.002 c 0.719359,0.1475 0.442991,0.67769 -0.16529,0.90711 l -0.767409,0.0407 z"
         style="opacity:1;fill:#000000;fill-opacity:1;stroke:none;stroke-width:0.30960348px;stroke-linecap:butt;stroke-linejoin:miter;stroke-opacity:1"
         inkscape:connector-curvature="0" />
      <path
         inkscape:export-ydpi="96"
         inkscape:export-xdpi="96"
         inkscape:export-filename="/home/heaven/Desktop/tm.png"
         sodipodi:nodetypes="ccccccccccccccsccscccccccccc"
         id="path996"
         d="m 42.90443,279.4146 c -1.267884,-0.19755 -2.602734,0.69375 -2.603656,1.55725 l -0.02396,2.96645 -0.07954,0.36657 1.552449,0.0147 -0.224591,-0.14767 0.01596,-0.86492 0.01837,-0.0369 2.152444,0.008 0.04186,0.0502 -0.02127,0.58827 -0.05371,0.34341 1.360221,0.0688 -0.03008,-0.36043 c 0,0 0.0059,-0.29781 0.0055,-0.702 -3.2e-5,-0.0371 0.482326,0.0132 0.72262,0.0251 0.116824,-0.36455 0.344484,-0.87468 0.344484,-0.87468 0,0 0.01869,-0.0711 -0.05166,-0.0731 -1.029872,-0.029 0.04677,-0.0409 -1.029872,-0.029 0.03806,-2.11462 -0.790122,-2.6556 -2.095572,-2.90015 z m -0.19824,1.28455 c 0.797249,0.10324 1.16639,0.81948 1.078091,1.57107 -0.0046,0.0968 -0.07193,0.0909 -0.07193,0.0909 l -2.132645,-0.024 c 0,0 -0.07237,0.004 -0.05531,-0.0593 -0.01939,-1.14258 0.285146,-1.38657 0.807606,-1.56988 z"
         style="opacity:1;fill:#000000;fill-opacity:1;stroke:none;stroke-width:0.30960348px;stroke-linecap:butt;stroke-linejoin:miter;stroke-opacity:1"
         inkscape:connector-curvature="0" />
      <path
         inkscape:export-ydpi="96"
         inkscape:export-xdpi="96"
         inkscape:export-filename="/home/heaven/Desktop/tm.png"
         sodipodi:nodetypes="cccccccccccccccccccc"
         inkscape:connector-curvature="0"
         id="path994"
         d="m 32.917493,283.75169 0.02485,-3.15391 c 0.221838,-1.48733 2.200132,-1.74094 3.139669,-0.62064 0.613179,-1.12322 3.106505,-0.96266 3.283904,1.23513 -0.002,1.79261 -0.0081,2.51461 -0.0081,2.51461 l 0.11645,0.63857 -1.470963,-0.003 0.08056,-0.32718 0.0331,-2.50886 c -0.193061,-1.12093 -1.382409,-0.86806 -1.396202,0.0439 l 0.01931,2.14787 0.154799,0.62766 -1.539753,0.0193 0.08585,-0.59158 0.01625,-2.17585 c -0.193158,-1.24713 -1.273796,-0.89858 -1.202691,0.0303 l -0.03003,1.97407 0.02531,0.75482 -1.374204,-0.0551 z"
         style="opacity:1;fill:#000000;fill-opacity:1;stroke:none;stroke-width:0.30960348px;stroke-linecap:butt;stroke-linejoin:miter;stroke-opacity:1" />
      <path
         inkscape:export-ydpi="96"
         inkscape:export-xdpi="96"
         inkscape:export-filename="/home/heaven/Desktop/tm.png"
         sodipodi:nodetypes="ccccccccc"
         inkscape:connector-curvature="0"
         id="path998"
         d="m 46.401295,279.57711 1.610813,0.01 -0.128333,0.22427 -0.03873,3.96137 0.09732,0.42753 -1.514491,0.0368 0.0564,-0.46038 0.01215,-3.991 z"
         style="opacity:1;fill:#000000;fill-opacity:1;stroke:none;stroke-width:0.30960348px;stroke-linecap:butt;stroke-linejoin:miter;stroke-opacity:1" />
      <path
         inkscape:export-ydpi="96"
         inkscape:export-xdpi="96"
         inkscape:export-filename="/home/heaven/Desktop/tm.png"
         sodipodi:nodetypes="ccsccccccccc"
         inkscape:connector-curvature="0"
         id="path1000"
         d="m 52.904902,279.84453 c -2.058227,-1.51602 -4.437438,0.38275 -4.160299,2.16722 -0.07128,1.55126 2.176519,3.31548 4.336081,1.66238 0.04945,-0.0379 0.0872,-0.18255 0.136608,-0.22362 l -0.560332,-1.15864 c -0.349677,0.23408 -1.502765,1.51945 -2.424616,0.13347 0.842493,-0.0142 0.722601,-0.0146 1.427876,0.002 0.02863,-0.34929 -0.0011,-0.62486 -0.03685,-0.99549 -0.874781,0.0213 -0.671034,0.0316 -1.521419,0.0197 0.222422,-0.65808 1.39896,-1.25112 2.375319,-0.0447 0.301059,-0.4683 0.348123,-0.57974 0.790114,-1.25852 z"
         style="opacity:1;fill:#000000;fill-opacity:1;stroke:none;stroke-width:0.30960348px;stroke-linecap:butt;stroke-linejoin:miter;stroke-opacity:1" />
      <path
         inkscape:export-ydpi="96"
         inkscape:export-xdpi="96"
         inkscape:export-filename="/home/heaven/Desktop/tm.png"
         id="path5298"
         transform="matrix(0.26458333,0,0,0.26458333,0,271.59998)"
         d="m 116.82617,33.09375 c -0.8227,0.01951 -1.21734,0.29178 -1.61133,0.503906 -0.67457,1.068737 -1.05924,1.648265 -2.12109,3.667969 -1.77589,-1.190324 -3.97523,-1.948795 -6.1875,-1.105469 -2.08727,0.718337 -4.331,3.268581 -4.90625,5.304688 -0.20548,0.855409 -0.31418,1.648184 -0.25977,2.402344 -0.68674,0.262638 -1.59144,0.604293 -2.45898,0.960937 -4.388273,1.440189 -4.046875,0.0625 -4.046875,0.0625 0,0 5.200155,-1.87392 6.314455,-4.824219 0.22367,-0.637757 0.4633,-1.332844 0.29492,-2.035156 -0.16839,-0.702274 -0.38423,-1.337387 -1.32813,-1.9375 -0.47193,-0.300019 -1.290756,-0.439391 -2.220698,-0.443359 -0.929942,-0.004 -1.971121,0.126507 -2.886719,0.367187 -3.250809,0.989367 -6.153525,4.5122 -5.095703,8.123047 0,0 -1.479418,0.888556 -3.53125,1.21875 -0.598707,0.283319 -0.203125,0.125 -0.203125,0.125 l -0.6875,2.03125 L 89.5,47.5625 c 0,0 1.786591,-0.745199 2.109375,-1.234375 0.07035,-0.01057 0.07961,-0.01873 0.105469,-0.02734 0.01174,0.01923 0.05307,0.04773 0.160156,0.08984 0.641628,0.563099 2.21875,1.265625 2.21875,1.265625 l 4.46875,-0.01563 c 0,0 1.353352,-0.242454 3.3125,-0.984375 0.34472,-0.152295 0.61144,-0.291862 0.80859,-0.402344 0.15102,0.187561 0.31594,0.373854 0.50977,0.558594 0.89119,0.8784 1.22548,0.912309 1.98828,1.103516 0.7628,0.191244 1.63195,0.232441 2.56445,0 0.93251,-0.232441 1.87331,-0.802968 2.82813,-1.501954 0.92357,0.08239 0.86616,1.085757 1.85547,1.458985 0.9893,0.373039 3.11444,0.476464 3.97851,0.220703 0.86407,-0.255874 1.17122,-0.474926 1.33594,-1.214844 0.0597,-0.618368 -1.0234,-2.377266 -1.86133,-2.634765 0,0 -0.35428,0.801813 -1.71289,1.064453 -0.32814,-0.171591 -0.3598,-0.19184 -0.5918,-0.617188 0.1928,-2.607156 1.16431,-3.877007 5.28126,-11.292968 -0.89235,-0.237062 -1.53959,-0.316392 -2.03321,-0.304688 z m -7.77539,5.503906 c 0.50901,0.0191 1.0437,0.205015 1.58984,0.613282 1.53098,4.164584 -3.22917,5.929424 -4.35351,5.875 -0.54017,-0.02608 -0.95117,-0.417969 -0.95117,-0.417969 0,0 -0.51137,-1.021211 -0.44532,-1.50586 0.21855,-1.603483 1.95444,-4.64722 4.16016,-4.564453 z m -11.201171,0.01367 c 0.287587,0.01824 0.56514,0.06998 0.822266,0.154297 -0.328774,2.194961 -5.5,4.03125 -5.5,4.03125 0.117865,-2.838208 2.664629,-4.313245 4.677734,-4.185547 z"
         style="opacity:1;fill:#000000;fill-opacity:1;stroke:none;stroke-width:0.99999994px;stroke-linecap:butt;stroke-linejoin:miter;stroke-opacity:1"
         inkscape:connector-curvature="0" />
    </g>
  </g>
</svg>
