<?xml version="1.0" encoding="UTF-8" standalone="no"?>
<!-- Generator: Adobe Illustrator 16.0.0, SVG Export Plug-In . SVG Version: 6.00 Build 0)  -->

<svg
   xmlns:dc="http://purl.org/dc/elements/1.1/"
   xmlns:cc="http://creativecommons.org/ns#"
   xmlns:rdf="http://www.w3.org/1999/02/22-rdf-syntax-ns#"
   xmlns:svg="http://www.w3.org/2000/svg"
   xmlns="http://www.w3.org/2000/svg"
   xmlns:xlink="http://www.w3.org/1999/xlink"
   xmlns:sodipodi="http://sodipodi.sourceforge.net/DTD/sodipodi-0.dtd"
   xmlns:inkscape="http://www.inkscape.org/namespaces/inkscape"
   version="1.1"
   id="Layer_1"
   x="0px"
   y="0px"
   width="201.975px"
   height="88.49px"
   viewBox="0 0 201.975 88.49"
   enable-background="new 0 0 201.975 88.49"
   xml:space="preserve"
   inkscape:version="0.48.4 r9939"
   sodipodi:docname="Apache Spark Data Stack Pocket Knife.svg"
   inkscape:export-filename="C:\Users\Eight\Documents\GitHub\Graphic_Design\Visual Explanations\Apache_Spark_Data_Stack_Pocket_Knife-lrg.png"
   inkscape:export-xdpi="668.21112"
   inkscape:export-ydpi="668.21112"><metadata
   id="metadata51"><rdf:RDF><cc:Work
       rdf:about=""><dc:format>image/svg+xml</dc:format><dc:type
         rdf:resource="http://purl.org/dc/dcmitype/StillImage" /><dc:title></dc:title></cc:Work></rdf:RDF></metadata><defs
   id="defs49"><linearGradient
   id="linearGradient2880"
   inkscape:collect="always"><stop
     id="stop2882"
     offset="0"
     style="stop-color:#ffffff;stop-opacity:1;" /><stop
     id="stop2884"
     offset="1"
     style="stop-color:#ffffff;stop-opacity:0;" /></linearGradient><linearGradient
   id="linearGradient2969"
   inkscape:collect="always"><stop
     id="stop2971"
     offset="0"
     style="stop-color:#b3aeab;stop-opacity:1" /><stop
     id="stop2973"
     offset="1"
     style="stop-color:#3a3839;stop-opacity:1" /></linearGradient><linearGradient
   id="linearGradient2985"
   inkscape:collect="always"><stop
     id="stop2987"
     offset="0"
     style="stop-color:#ffffff;stop-opacity:1;" /><stop
     id="stop2989"
     offset="1"
     style="stop-color:#ffffff;stop-opacity:0;" /></linearGradient><linearGradient
   id="linearGradient3039"
   inkscape:collect="always"><stop
     id="stop3041"
     offset="0"
     style="stop-color:#767676;stop-opacity:1;" /><stop
     id="stop3043"
     offset="1"
     style="stop-color:#d6d6d6;stop-opacity:1" /></linearGradient><linearGradient
   inkscape:collect="always"
   id="linearGradient3271"><stop
     style="stop-color:#ff0000;stop-opacity:1"
     offset="0"
     id="stop3273" /><stop
     style="stop-color:#800000;stop-opacity:1"
     offset="1"
     id="stop3275" /></linearGradient><linearGradient
   id="linearGradient3513"
   inkscape:collect="always"><stop
     id="stop3515"
     offset="0"
     style="stop-color:#ffffff;stop-opacity:1;" /><stop
     id="stop3517"
     offset="1"
     style="stop-color:#ffffff;stop-opacity:0;" /></linearGradient><linearGradient
   inkscape:collect="always"
   xlink:href="#linearGradient3513"
   id="linearGradient3207"
   gradientUnits="userSpaceOnUse"
   x1="92.782692"
   y1="1.043337"
   x2="153.36902"
   y2="1.2333859"
   gradientTransform="matrix(0.7824166,0.6227554,-0.6227554,0.7824166,284.08803,-59.845018)" /><linearGradient
   inkscape:collect="always"
   xlink:href="#linearGradient2985"
   id="linearGradient3272"
   gradientUnits="userSpaceOnUse"
   x1="467.77707"
   y1="371.89926"
   x2="462.06287"
   y2="368.78546"
   gradientTransform="matrix(0.4671472,0,0,0.4671472,116.454,-166.14822)" /><linearGradient
   inkscape:collect="always"
   xlink:href="#linearGradient2880"
   id="linearGradient3275"
   gradientUnits="userSpaceOnUse"
   x1="373.05164"
   y1="336.58533"
   x2="488.87668"
   y2="481.64069"
   gradientTransform="matrix(0.4671472,0,0,0.4671472,198.67584,-171.78368)" /><linearGradient
   inkscape:collect="always"
   xlink:href="#linearGradient3271"
   id="linearGradient3278"
   gradientUnits="userSpaceOnUse"
   x1="367.33963"
   y1="358.44037"
   x2="507.21893"
   y2="474.44235"
   gradientTransform="matrix(0.4671472,0,0,0.4671472,203.62856,-135.08069)" /><linearGradient
   inkscape:collect="always"
   xlink:href="#linearGradient2969"
   id="linearGradient3290"
   gradientUnits="userSpaceOnUse"
   x1="453.24738"
   y1="388.30896"
   x2="443.19492"
   y2="398.95276"
   gradientTransform="matrix(0.4671472,0,0,0.4671472,116.454,-166.14822)" /><linearGradient
   inkscape:collect="always"
   xlink:href="#linearGradient3039"
   id="linearGradient3316"
   gradientUnits="userSpaceOnUse"
   x1="466.40231"
   y1="506.6196"
   x2="494.25995"
   y2="456.47977"
   gradientTransform="matrix(0.4671472,0,0,0.4671472,116.454,-166.14822)" />
</defs><sodipodi:namedview
   pagecolor="#ffffff"
   bordercolor="#666666"
   borderopacity="1"
   objecttolerance="10"
   gridtolerance="10"
   guidetolerance="10"
   inkscape:pageopacity="0"
   inkscape:pageshadow="2"
   inkscape:window-width="1536"
   inkscape:window-height="803"
   id="namedview47"
   showgrid="false"
   inkscape:zoom="4"
   inkscape:cx="73.778777"
   inkscape:cy="50.247169"
   inkscape:window-x="-8"
   inkscape:window-y="-8"
   inkscape:window-maximized="1"
   inkscape:current-layer="Layer_1"
   showguides="true"
   inkscape:guide-bbox="true" />
<g
   id="g3320"
   style="fill:#ffffff;fill-opacity:1;stroke:#000000;stroke-width:0.5;stroke-miterlimit:4;stroke-opacity:1;stroke-dasharray:none"
   transform="matrix(-0.43838346,0.73982247,0.73982247,0.43838346,255.00073,-146.8249)"><path
     inkscape:connector-curvature="0"
     sodipodi:nodetypes="cssscccccsss"
     id="path3049"
     d="m 251.38891,56.419864 45.80816,-31.866549 c 0.79315,-0.551757 -1.88254,-0.663886 -2.82151,-0.663886 -0.88672,0 -1.9546,0.07977 -2.65555,0.663886 l -2.98749,2.489577 -5.97498,5.145117 -4.81317,3.983317 -1.65972,0.331946 -8.46455,0.165973 -10.78816,9.294407 c -1.73525,1.494988 -3.07842,3.492813 -4.14929,5.477063 -0.81014,1.501154 -2.9162,5.968688 -1.49374,4.979149 z"
     style="fill:#ffffff;fill-opacity:1;fill-rule:evenodd;stroke:#000000;stroke-width:0.5;stroke-miterlimit:4;stroke-opacity:1;stroke-dasharray:none" /><path
     inkscape:connector-curvature="0"
     sodipodi:nodetypes="ccccccccccssscccccccc"
     id="path3047"
     d="m 282.4256,12.935303 -3.65137,5.974981 -3.15347,6.306917 -4.6472,1.659718 -1.82569,1.825686 -0.99583,2.655545 0.49792,3.485404 -0.16597,2.821518 -4.31527,6.970807 0.49792,3.651377 -7.30275,13.111757 c -0.86813,1.558688 3.38792,-1.436239 4.6472,-2.655545 2.22612,-2.15545 4.19711,-4.757796 5.80901,-7.468726 l 7.30275,-12.281898 -1.65972,-4.315258 -0.16597,-2.821518 14.10759,-15.435361 5.80901,-6.140949 -3.31944,-6.3069214 -3.98332,1.3277724 -3.4854,7.634694 z"
     style="fill:#ffffff;fill-opacity:1;fill-rule:evenodd;stroke:#000000;stroke-width:0.5;stroke-miterlimit:4;stroke-opacity:1;stroke-dasharray:none" /></g><path
   style="fill:#ffffff;fill-opacity:1;fill-rule:evenodd;stroke:#000000;stroke-width:0.45638391;stroke-miterlimit:4;stroke-opacity:1;stroke-dasharray:none"
   d="m 65.116884,8.097972 2.632847,60.184662 13.296068,-1.227557 -4.100334,-9.046875 -3.030319,0.490379 3.023253,-0.719607 1.084786,-4.157963 -1.587507,-0.988582 1.237021,-1.284464 -1.479995,-1.37656 1.201383,-1.20876 -1.39213,-1.149277 1.01992,-1.302548 -1.341676,-1.226025 0.994689,-1.444585 -1.264096,-1.020178 0.921494,-1.2075 -1.156096,-1.108217 0.968947,-1.493232 -1.229169,-1.122642 0.814282,-1.452055 -1.053103,-1.038595 0.701329,-1.596466 -0.998599,-1.336852 0.642948,-1.27764 -0.961084,-0.973927 0.777068,-1.094542 -1.046829,-1.149416 0.88017,-1.275753 -1.205614,-1.425234 0.763174,-1.15623 -0.870508,-1.309082 0.570984,-1.125107 -0.84561,-1.313447 0.4763,-1.159975 -0.710813,-1.219262 0.46093,-1.43393 -0.76816,-1.409067 0.536624,-0.860754 -1.087685,-6.7230981 -2.788395,3.8342351 -4.086473,-3.094292 z"
   id="path2963"
   sodipodi:nodetypes="ccccccccccccccccccccccccccccccccccccccccccc"
   inkscape:connector-curvature="0" /><g
   id="g3"
   transform="matrix(0.63313656,0,0,0.63313656,34.506198,25.520799)">
	
	
	
	
	
	
	<g
   id="g3291"
   transform="matrix(0.72725368,-0.68636877,0.68636877,0.72725368,-6.3055664,125.56419)"><g
     id="g4094"><path
       style="stroke:#000000;stroke-width:0.036;stroke-miterlimit:10"
       inkscape:connector-curvature="0"
       stroke-miterlimit="10"
       d="m 201.955,27.309 c -0.072,1.764 -0.54,3.852 -1.404,6.12 -1.044,2.304 -1.332,4.284 -4.066,7.596 -2.772,3.204 -6.805,6.805 -12.097,11.771 -5.399,4.896 -11.881,10.584 -19.837,17.461 l 0,0 -1.224,0.863 -8.64,-11.016 0,0 c 0.575,-0.974 1.367,-1.621 1.979,-2.34 0.612,-0.757 1.152,-1.513 2.018,-1.691 0.684,-0.217 1.979,0.359 2.771,0.756 0.756,0.18 1.44,1.008 2.052,0.971 0.54,-0.107 0.648,-0.9 1.009,-1.26 0.217,-0.396 0.107,-0.576 0.505,-0.936 0.252,-0.541 -0.218,0.18 1.654,-1.729 1.872,-2.017 6.229,-6.588 9.722,-9.828 3.348,-3.419 7.486,-7.271 10.476,-9.755 2.809,-2.412 4.86,-3.708 6.696,-4.716 1.872,-1.08 2.664,-1.62 4.176,-1.908 1.366,-0.395 2.77,-0.467 4.21,-0.359 l 0,0 z"
       id="path11" /><path
       style="fill:#ffffff;stroke:#000000;stroke-width:0.036;stroke-miterlimit:10"
       inkscape:connector-curvature="0"
       stroke-miterlimit="10"
       d="m 201.667,27.633 c -0.324,1.728 -0.646,3.168 -1.116,4.716 -0.468,1.44 -0.936,2.7 -1.548,4.068 -0.646,1.188 -1.115,2.268 -2.376,3.816 -1.332,1.548 -3.274,3.348 -5.544,5.688 -2.34,2.123 -4.788,4.572 -8.46,7.883 -3.78,3.313 -10.476,9.109 -13.68,11.988 -3.204,2.771 -5.076,4.32 -5.473,4.645 l 0,0 -8.243,-10.297 0,0 c 0.756,-1.08 1.438,-1.908 2.052,-2.481 0.504,-0.687 0.646,-1.117 1.26,-1.152 0.54,-0.18 1.548,0.324 2.196,0.539 0.54,0.181 1.044,0.396 1.368,0.647 l 0,0 c 0.252,-0.106 0.792,0.324 1.764,1.009 0.9,0.684 2.16,1.764 3.78,3.239 l 0,0 c -0.182,-0.432 -0.648,-1.045 -1.116,-1.69 -0.612,-0.756 -1.225,-1.584 -2.124,-2.483 l 0,0 c 0.036,-0.613 0.36,-1.226 0.972,-1.98 0.434,-0.756 0.938,-0.9 2.484,-2.375 1.584,-1.693 4.392,-4.43 6.876,-6.842 2.412,-2.555 4.932,-5.219 7.271,-7.416 2.089,-2.196 3.996,-3.708 5.868,-5.22 1.872,-1.584 3.744,-2.916 5.474,-3.852 1.584,-1.044 3.096,-1.729 4.535,-2.052 1.332,-0.47 2.592,-0.506 3.78,-0.398 l 0,0 z"
       id="path13" /><path
       style="fill:#ffffff"
       inkscape:connector-curvature="0"
       d="m 201.667,27.633 c -1.8,0.18 -3.563,0.792 -5.292,1.548 -1.836,0.684 -2.771,1.26 -5.328,3.132 -2.556,1.872 -5.938,4.464 -10.008,7.92 l 0,0 c 1.656,-1.908 3.24,-3.492 5.148,-5.04 1.836,-1.62 3.708,-2.952 5.76,-4.14 1.943,-1.296 4.248,-2.484 5.938,-3.024 1.622,-0.648 2.883,-0.648 3.782,-0.396 l 0,0 z"
       id="path15" /><path
       style="opacity:0.47000002;stroke:#000000;stroke-width:0.03083442;stroke-miterlimit:10"
       inkscape:connector-curvature="0"
       stroke-miterlimit="10"
       d="m 197.50899,37.972208 c -1.57263,1.502959 -2.83949,2.601382 -3.85773,3.738816 -1.07753,0.947963 -1.61602,1.615983 -2.3716,2.463625 -0.83937,0.894831 -1.74195,1.597062 -2.62965,2.573974 l 0,0 c 1.16543,-0.782496 2.28193,-1.481329 3.41842,-2.450208 1.06123,-1.039349 2.11579,-2.141755 3.05256,-3.201469 0.90919,-1.034713 1.65687,-2.124098 2.388,-3.124738 l 0,0 z"
       id="path17" /></g></g>
	
	
	
	<path
   stroke-miterlimit="10"
   d="m 0.139,0.021 c 3.42,0.684 6.407,1.944 9.396,3.78 2.88,1.764 5.148,4.14 7.92,6.984 2.628,2.664 4.536,5.04 8.064,9.36 3.456,4.32 9.216,11.88 12.815,16.452 3.492,4.428 6.336,7.883 8.101,10.081 1.655,2.017 1.224,1.656 1.764,2.375 0.432,0.722 0.828,1.009 1.044,1.693 0.036,0.539 -0.144,1.149 0.036,1.69 0.144,0.433 0.576,0.791 1.152,1.08 l 0,0 c 0.936,-0.396 1.728,-0.647 2.376,-0.61 0.611,-0.183 0.756,-0.146 1.548,0.538 0.756,0.648 1.512,1.871 3.096,3.816 1.548,1.871 3.492,4.355 5.976,7.451 l 0,0 -10.332,9.039 0,0 C 52.267,73.426 50.935,72.453 49.242,70.688 47.514,68.924 46.002,67.162 42.618,63.307 39.055,59.348 32.971,52.291 28.398,47.287 23.826,42.175 19.182,37.171 15.582,32.959 11.91,28.639 8.814,25.255 6.582,21.835 4.278,18.379 3.019,15.283 1.975,12.547 0.859,9.633 0.571,7.077 0.283,5.025 -0.041,2.901 -0.041,1.281 0.139,0.021 l 0,0 z"
   id="path25"
   inkscape:connector-curvature="0"
   style="stroke:#000000;stroke-width:0.036;stroke-miterlimit:10" />
	<path
   d="m 62.707,64.642 c -1.332,-1.765 -2.592,-3.455 -3.78,-4.933 -1.331,-1.656 -2.52,-3.022 -3.42,-4.104 -0.936,-1.114 -1.26,-1.873 -1.943,-2.125 -0.792,-0.321 -1.584,0 -2.521,0.435 -1.008,0.321 -1.655,0.756 -2.916,1.728 -1.403,0.973 -4.5,3.239 -5.004,3.602 -0.504,0.18 0.937,-1.549 1.944,-2.27 0.864,-0.898 2.628,-2.017 3.348,-2.664 0.576,-0.685 0.324,-0.791 0.36,-1.295 0.072,-0.648 -0.145,-1.621 -0.252,-2.232 -0.324,-0.684 0.144,0 -1.116,-1.691 -1.332,-1.836 -4.104,-5.292 -6.516,-8.568 -2.593,-3.276 -5.616,-7.308 -8.244,-10.548 -2.628,-3.312 -5.076,-6.336 -7.2,-8.928 -2.16,-2.628 -3.744,-4.968 -5.436,-6.876 C 18.282,12.229 16.771,10.897 15.078,9.349 13.242,7.693 11.515,5.677 9.498,4.417 7.374,3.084 4.854,2.148 3.307,1.607 1.794,0.995 0.895,0.743 0.607,0.851 l 0,0 c -0.181,0.972 -0.108,2.304 0.216,4.14 0.18,1.8 0.468,3.996 1.404,6.588 0.936,2.52 2.412,5.904 4.14,8.64 1.512,2.664 3.24,4.248 5.724,7.38 2.448,3.06 5.328,6.444 9.181,10.836 3.815,4.32 9.504,10.583 13.319,14.759 3.637,4.068 6.192,7.021 8.496,9.685 2.196,2.521 3.601,4.285 5.04,5.832 1.404,1.513 2.412,2.521 3.313,3.313 0.864,0.756 1.332,1.008 1.691,1.043 l 0,0 c 3.168,-2.809 6.372,-5.618 9.576,-8.425 l 0,0 z"
   id="path27"
   inkscape:connector-curvature="0"
   style="fill:#ffffff" />
	<path
   stroke-miterlimit="10"
   d="m 166.927,76.053 c -0.936,-1.26 -1.69,-2.52 -2.123,-3.924 -0.505,-1.512 -0.433,-3.131 -0.611,-4.428 -0.288,-1.367 -0.469,-2.16 -0.938,-3.203 -0.575,-1.188 -1.08,-2.306 -2.34,-3.351 -1.296,-1.149 -2.23,-2.412 -5.436,-3.096 -3.385,-0.791 -6.518,-1.043 -14.257,-1.152 -7.885,-0.069 -22.212,0.435 -32.292,0.828 -10.332,0.289 -20.375,0.504 -28.332,1.045 -7.956,0.396 -14.257,0.828 -18.612,1.691 -4.32,0.756 -5.724,1.549 -7.416,3.348 -1.872,1.836 -3.024,4.824 -3.313,7.164 -0.396,2.271 0.612,4.142 1.513,5.904 0.828,1.621 2.088,2.736 3.636,3.637 l 0,0 c -0.612,1.226 -0.072,1.943 1.62,2.558 1.548,0.395 3.528,0.61 8.46,0.646 5.004,0 11.844,-0.324 21.096,-0.395 9.216,-0.217 25.164,-0.289 33.408,-0.217 7.992,0.106 9.72,0.252 14.508,0.576 4.646,0.18 10.116,0.287 13.646,0.323 3.42,-0.18 5.362,-0.36 7.198,-0.827 1.802,-0.47 3.133,-1.261 3.854,-1.837 0.684,-0.721 0.684,-1.477 0.144,-2.268 l 0,0 0.686,-0.687 0,0 c 0.358,0.504 0.684,0.938 1.115,1.297 0.433,0.359 0.827,0.433 1.332,0.611 l 0,0 c 0.323,0.684 0.973,1.404 1.655,2.305 0.721,0.828 1.478,1.729 2.664,2.699 1.116,0.9 2.7,1.945 3.924,2.557 1.116,0.504 1.98,0.611 2.736,0.611 0.647,-0.072 1.044,-0.432 1.188,-0.936 l 0,0 c 0.323,-0.035 0.575,-0.359 0.757,-0.684 0.144,-0.396 0.252,-0.937 0.18,-1.621 -0.36,-0.826 -0.72,-2.123 -1.477,-3.06 -0.792,-1.117 -1.907,-2.017 -2.809,-2.844 -0.936,-0.687 -1.908,-1.298 -2.771,-1.693 -0.937,-0.531 -1.801,-1.109 -2.593,-1.577 l 0,0 z m 0.18,2.807 c -0.108,0.107 -0.108,0.324 -0.288,0.505 -0.108,0.145 -0.396,0.396 -0.576,0.61 l 0,0 c 0.18,0.469 0.612,1.152 1.44,1.908 0.756,0.684 2.446,2.16 3.274,2.773 0.686,0.504 0.9,0.719 1.478,0.936 0.574,0.215 1.224,0.287 1.942,0.359 l 0,0 c -0.036,-0.539 -0.323,-1.115 -0.863,-1.871 -0.647,-0.756 -1.729,-2.018 -2.557,-2.664 -0.864,-0.793 -1.8,-1.404 -2.412,-1.836 -0.609,-0.433 -1.186,-0.72 -1.438,-0.72 l 0,0 z m -2.339,-2.446 c -0.288,-0.183 -0.505,-0.217 -0.793,-0.108 -0.433,0.071 -0.721,0.288 -0.863,0.647 -0.181,0.217 -0.146,0.647 -0.036,1.008 l 0,0 c 0.072,-0.358 0.18,-0.576 0.324,-0.647 0.071,-0.144 0.18,-0.144 0.323,0 l 0,0 c 0.071,-0.252 0.252,-0.396 0.396,-0.576 0.144,-0.18 0.36,-0.289 0.649,-0.324 l 0,0 z m 0.647,2.051 c 0.072,-0.18 0.252,-0.323 0.252,-0.432 0.072,-0.218 -0.036,-0.359 -0.036,-0.576 l 0,0 c -0.252,0.146 -0.323,0.252 -0.358,0.469 -0.038,0.141 -0.038,0.324 0.142,0.539 l 0,0 z"
   id="path29"
   inkscape:connector-curvature="0"
   style="stroke:#000000;stroke-width:0.036;stroke-miterlimit:10" />
	<path
   stroke-miterlimit="10"
   d="m 167.431,77.961 c 0.505,0.037 1.044,0.217 1.907,0.685 0.792,0.434 1.908,1.008 2.916,1.873 0.938,0.791 1.872,1.942 2.521,2.879 0.576,0.793 0.611,1.549 0.792,2.125 0.106,0.432 0.071,0.756 -0.252,0.828 -0.504,0.071 -1.584,-0.181 -2.27,-0.324 -0.72,-0.324 -1.224,-0.359 -1.907,-0.937 -0.937,-0.647 -1.979,-1.621 -2.699,-2.231 -0.721,-0.576 -1.009,-0.828 -1.404,-1.297 -0.647,-0.756 -1.152,-1.584 -1.512,-2.195 -0.434,-0.539 -0.612,-0.863 -0.54,-1.115 -0.036,-0.396 0.216,-0.756 0.611,-1.08 l 0,0 c -0.145,-0.289 -0.253,-0.361 -0.323,-0.504 -0.072,-0.072 -0.324,-0.217 -0.36,-0.145 l 0,0 c -0.396,0.035 -0.647,0.252 -0.756,0.504 -0.181,0.18 -0.324,0.432 -0.145,0.899 0.107,0.359 0.396,1.152 0.863,1.837 0.36,0.61 0.938,1.547 1.584,2.268 0.504,0.721 1.152,1.115 1.944,1.871 0.756,0.721 1.584,1.369 2.628,2.09 1.008,0.539 2.52,1.078 3.42,1.33 0.828,0.037 1.116,-0.07 1.548,-0.322 0.324,-0.289 0.36,-0.648 0.504,-0.938 0.108,-0.287 -0.071,-0.576 -0.144,-1.009 -0.216,-0.646 -0.504,-1.366 -0.864,-2.016 -0.36,-0.685 -0.864,-1.261 -1.368,-1.871 -0.646,-0.687 -1.368,-1.332 -2.016,-1.801 -0.828,-0.611 -1.62,-1.009 -2.232,-1.332 -0.468,-0.396 -1.008,-0.47 -1.224,-0.611 -0.504,-0.18 -0.792,-0.289 -1.26,-0.323 l 0,0 c 0,0.215 0.07,0.396 0.07,0.539 -0.032,0.143 0.004,0.252 -0.032,0.323 l 0,0 z"
   id="path31"
   inkscape:connector-curvature="0"
   style="fill:#ffffff;stroke:#000000;stroke-width:0.036;stroke-miterlimit:10" />
	<path
   stroke-miterlimit="10"
   d="m 167.287,78.683 c 0.288,0 0.72,0.18 1.296,0.539 0.54,0.288 1.116,0.793 1.872,1.368 0.576,0.611 1.368,1.188 1.944,1.871 0.575,0.541 0.863,1.08 1.26,1.478 0.252,0.396 0.468,0.61 0.647,1.043 0.145,0.396 0.253,0.612 0.323,1.045 l 0,0 c 0.146,0.106 0.36,0.072 0.504,0.035 0.072,-0.144 0.253,-0.035 0.253,-0.359 -0.071,-0.324 -0.217,-0.936 -0.433,-1.439 -0.324,-0.684 -0.828,-1.26 -1.224,-1.873 -0.434,-0.611 -0.938,-1.008 -1.368,-1.475 -0.686,-0.434 -1.26,-1.189 -1.872,-1.441 -0.612,-0.324 -1.044,-0.719 -1.44,-0.791 -0.575,-0.18 -0.827,-0.432 -1.15,-0.469 -0.216,-0.107 -0.504,-0.145 -0.469,-0.107 l 0,0 c -0.034,0.177 -0.071,0.357 -0.143,0.575 l 0,0 z"
   id="path33"
   inkscape:connector-curvature="0"
   style="fill:#ffffff;stroke:#000000;stroke-width:0.036;stroke-miterlimit:10" />
	<path
   stroke-miterlimit="10"
   d="m 175.459,87.537 c -0.252,0.358 -0.54,0.541 -0.863,0.685 -0.396,0.108 -0.685,0.036 -1.297,-0.072 -0.862,-0.181 -1.764,-0.611 -2.844,-1.15 -1.116,-0.686 -2.448,-1.801 -3.42,-2.664 -1.044,-1.045 -1.836,-1.908 -2.376,-2.736 -0.576,-0.756 -1.008,-1.438 -1.152,-1.908 -0.216,-0.575 -0.358,-1.08 -0.287,-1.368 -0.107,-0.433 0.107,-0.433 0.217,-0.539 0.07,-0.146 0.18,-0.218 0.322,-0.218 l 0,0 c -0.106,0.037 -0.07,0.504 0.253,1.011 0.181,0.432 0.792,1.618 1.296,2.303 0.469,0.647 1.009,1.404 1.619,1.979 0.434,0.504 0.793,0.791 1.478,1.404 0.646,0.504 1.512,1.367 2.448,1.908 0.792,0.467 1.8,0.863 2.628,1.188 0.682,0.248 1.474,0.214 1.978,0.177 l 0,0 z"
   id="path35"
   inkscape:connector-curvature="0"
   style="fill:#ffffff;stroke:#000000;stroke-width:0.036;stroke-miterlimit:10" />
	<path
   stroke-miterlimit="10"
   d="m 164.515,71.914 c 0.071,0.576 0.359,0.971 0.575,1.584 0.182,0.576 0.576,0.971 0.9,1.584 0.252,0.467 0.72,1.149 0.972,1.619 0.182,0.396 0.217,0.61 0.252,1.045 0,0.252 -0.144,0.719 -0.288,1.008 -0.18,0.287 -0.504,0.611 -0.827,0.972 l 0,0 -0.575,-1.08 0,0 c 0.216,-0.287 0.358,-0.468 0.432,-0.828 -0.072,-0.396 -0.18,-0.826 -0.324,-1.15 -0.144,-0.361 -0.432,-0.648 -0.72,-0.721 -0.36,-0.107 -1.08,0 -1.332,0.18 -0.324,0.107 -0.576,0.396 -0.612,0.721 -0.18,0.252 -0.18,0.719 -0.144,1.008 -0.072,0.252 0.072,0.504 0.144,0.611 l 0,0 c -0.07,0.217 -0.106,0.396 0.036,0.684 0.072,0.252 0.217,0.613 0.434,0.938 l 0,0 c -0.434,-0.146 -0.938,-0.36 -1.226,-0.647 -0.358,-0.396 -0.646,-0.685 -0.863,-1.26 l 0,0 c 0.359,-0.396 0.647,-0.685 1.009,-1.152 0.323,-0.469 0.468,-0.973 0.828,-1.512 0.18,-0.613 0.574,-1.439 0.791,-1.945 0.214,-0.579 0.394,-1.226 0.538,-1.659 l 0,0 z"
   id="path37"
   inkscape:connector-curvature="0"
   style="fill:#ffffff;stroke:#000000;stroke-width:0.036;stroke-miterlimit:10" />
	<path
   stroke-miterlimit="10"
   d="m 160.123,79.33 c 0.252,0.252 0.36,0.61 0.324,0.937 -0.036,0.324 -0.18,0.756 -0.72,1.151 -0.722,0.433 -1.549,0.897 -3.024,1.401 -1.62,0.255 -3.636,0.47 -5.76,0.648 -2.124,0.109 -4.752,0.217 -6.624,0.18 -1.98,-0.106 -3.24,-0.143 -4.896,-0.252 -1.69,-0.106 -3.672,-0.252 -5.544,-0.432 l 0,0 c 3.528,0.037 6.806,0 9.974,-0.107 3.168,-0.106 6.516,-0.358 8.928,-0.61 2.195,-0.361 3.492,-0.722 4.716,-1.226 1.222,-0.467 2.05,-1.08 2.626,-1.69 l 0,0 z"
   id="path39"
   inkscape:connector-curvature="0"
   style="fill:#ffffff;stroke:#000000;stroke-width:0.036;stroke-miterlimit:10" />
	<path
   stroke-miterlimit="10"
   d="m 164.011,72.381 c -0.181,0.433 -0.323,0.937 -0.433,1.369 -0.216,0.396 -0.396,0.828 -0.54,1.295 -0.144,0.361 -0.468,0.685 -0.576,0.974 l 0,0 -3.672,-0.289 0.288,-3.707 0,0 c 1.621,0.106 3.277,0.212 4.933,0.358 l 0,0 z"
   id="path41"
   inkscape:connector-curvature="0"
   style="fill:#ffffff;stroke:#000000;stroke-width:0.036;stroke-miterlimit:10" />
	<path
   stroke-miterlimit="10"
   d="m 56.767,80.983 c -0.181,0.109 -0.181,0.324 -0.145,0.507 -0.036,0.215 -0.036,0.395 0.396,0.684 0.396,0.287 0.936,0.396 2.016,0.72 0.972,0.108 2.376,0.323 4.068,0.36 1.655,0.035 3.744,0 6.12,0.035 2.376,-0.035 5.04,-0.146 8.136,-0.181 l 0,0 c -2.017,-0.18 -4.284,-0.323 -6.66,-0.432 -2.484,-0.109 -5.94,-0.252 -7.74,-0.289 -1.8,-0.215 -2.376,-0.215 -3.275,-0.432 -1.044,-0.25 -2.016,-0.574 -2.916,-0.972 l 0,0 z"
   id="path43"
   inkscape:connector-curvature="0"
   style="fill:#ffffff;stroke:#000000;stroke-width:0.036;stroke-miterlimit:10" />
	<path
   stroke-miterlimit="10"
   d="m 162.175,76.449 c -0.575,0.684 -1.15,1.188 -1.871,1.907 -0.721,0.685 -1.261,1.188 -2.447,1.908 -1.261,0.433 -2.845,1.226 -5.292,1.547 -2.736,0.289 -6.732,0.435 -10.044,0.576 -3.35,0.037 -4.717,0.146 -9.792,0.18 -5.222,0.037 -14.005,-0.143 -20.952,0 -7.057,-0.069 -15.372,0.183 -20.664,0.218 -5.256,-0.035 -7.668,0 -10.729,-0.035 -3.203,-0.072 -5.579,-0.324 -8.1,-0.36 -2.484,-0.144 -4.824,-0.216 -7.02,-0.359 -2.376,-0.217 -5.328,-0.432 -7.057,-0.937 -1.872,-0.756 -2.808,-1.692 -3.779,-2.809 -1.08,-1.188 -1.765,-2.521 -2.196,-3.853 -0.396,-1.404 -0.648,-2.592 -0.36,-3.996 0.072,-1.512 0.864,-2.844 1.548,-4.141 0.648,-1.367 1.729,-2.484 2.845,-3.348 1.008,-0.9 2.124,-1.225 3.924,-1.656 1.728,-0.539 4.284,-0.936 6.84,-1.188 2.484,-0.289 5.076,-0.359 8.316,-0.504 3.203,-0.218 6.588,-0.359 10.979,-0.576 4.356,-0.289 9.648,-0.504 14.904,-0.648 5.075,-0.215 9.756,-0.324 15.982,-0.467 6.229,-0.252 15.876,-0.469 21.024,-0.504 4.932,-0.146 6.408,0.035 8.892,0.143 2.484,0.109 3.78,0.145 5.688,0.504 1.728,0.217 3.384,0.576 4.968,1.369 1.476,0.828 2.808,2.088 3.853,3.383 0.827,1.189 1.403,2.34 1.729,3.603 0.288,1.188 0.396,2.481 0.468,3.454 0.072,0.9 0.145,1.404 0.072,1.802 l 0,0 -5.364,-0.396 -0.396,5.075 0,0 c 1.331,0.036 2.663,0.073 4.031,0.108 l 0,0 z"
   id="path45"
   inkscape:connector-curvature="0"
   style="fill:#ffffff;stroke:#000000;stroke-width:0.036;stroke-miterlimit:10" />
<path
   transform="matrix(1.0229596,0.83902058,-0.83902058,1.0229596,81.962643,-106.91957)"
   style="color:#000000;fill:#ffffff;stroke:none;stroke-width:0.5;marker:none;visibility:visible;display:inline;overflow:visible;enable-background:accumulate"
   d="m 146.12427,68.36199 c 0,0.576206 -1.91768,0.878589 -3.45422,0.878589 -0.98367,0 -3.03852,-0.134931 -3.66834,-0.524221 -0.354,-0.218805 0.17023,-0.529986 0.17023,-0.737317 0,-0.576205 1.71429,-0.458652 3.25084,-0.458652 1.53654,0 3.70149,0.265396 3.70149,0.841601 z"
   id="path3316"
   inkscape:connector-curvature="0"
   sodipodi:nodetypes="ssssss" /></g>
<g
   id="g2945"
   transform="matrix(-0.03880094,0.46553302,-0.46553302,-0.03880094,265.37204,-115.83633)"><g
   id="g2916"
   style="fill:#ffffff;fill-opacity:1;stroke:#000000;stroke-opacity:1" /><g
   transform="translate(-10.756764,-7.572394)"
   id="g2921"
   style="fill:#ffffff;fill-opacity:1;stroke:#000000;stroke-opacity:1" /><g
   transform="translate(-21.767947,-15.396129)"
   id="g2929"
   style="fill:#ffffff;fill-opacity:1;stroke:#000000;stroke-opacity:1" /><text
   transform="matrix(-0.08305935,-0.9965446,0.9965446,-0.08305935,0,0)"
   sodipodi:linespacing="125%"
   id="text4164"
   y="275.44269"
   x="-560.92596"
   style="font-size:24.21804237px;font-style:normal;font-variant:normal;font-weight:normal;font-stretch:normal;line-height:125%;letter-spacing:0px;word-spacing:0px;fill:#000000;fill-opacity:1;stroke:none;font-family:Futura Bk BT;-inkscape-font-specification:Futura Bk BT"
   xml:space="preserve"><tspan
     y="275.44269"
     x="-560.92596"
     id="tspan4166"
     sodipodi:role="line">Data Stack</tspan></text>

<text
   transform="matrix(-0.69386913,0.72010113,-0.72010113,-0.69386913,0,0)"
   sodipodi:linespacing="125%"
   id="text4164-1-6"
   y="-591.45203"
   x="15.219687"
   style="font-size:19.0917244px;font-style:normal;font-variant:normal;font-weight:normal;font-stretch:normal;line-height:125%;letter-spacing:0px;word-spacing:0px;fill:#000000;fill-opacity:1;stroke:none;font-family:Futura Bk BT;-inkscape-font-specification:Futura Bk BT"
   xml:space="preserve"><tspan
     y="-591.45203"
     x="15.219687"
     id="tspan4166-7-14"
     sodipodi:role="line" /><tspan
     id="tspan3170"
     y="-567.58734"
     x="15.219687"
     sodipodi:role="line">HiveQL</tspan></text>

<text
   transform="matrix(-0.08305934,-0.9965446,0.9965446,-0.08305934,0,0)"
   sodipodi:linespacing="125%"
   id="text4164-1-21"
   y="405.26224"
   x="-414.60864"
   style="font-size:21.16263771px;font-style:normal;font-variant:normal;font-weight:normal;font-stretch:normal;line-height:125%;letter-spacing:0px;word-spacing:0px;fill:#000000;fill-opacity:1;stroke:none;font-family:Futura Bk BT;-inkscape-font-specification:Futura Bk BT"
   xml:space="preserve"><tspan
     y="405.26224"
     x="-414.60864"
     id="tspan4166-7-6"
     sodipodi:role="line">Apache Spark</tspan></text>

<text
   sodipodi:linespacing="125%"
   id="text4164-1-6-8"
   y="-438.87186"
   x="-331.47507"
   style="font-size:13.03510189px;font-style:normal;font-variant:normal;font-weight:normal;font-stretch:normal;line-height:125%;letter-spacing:0px;word-spacing:0px;fill:#000000;fill-opacity:1;stroke:none;font-family:Futura Bk BT;-inkscape-font-specification:Futura Bk BT"
   xml:space="preserve"
   transform="matrix(-0.98601533,0.16665461,-0.16665461,-0.98601533,0,0)"><tspan
     id="tspan3170-7"
     y="-438.87186"
     x="-331.47507"
     sodipodi:role="line">Spark Streaming</tspan></text>

<text
   xml:space="preserve"
   style="font-size:28px;font-style:normal;font-variant:normal;font-weight:normal;font-stretch:normal;line-height:125%;letter-spacing:0px;word-spacing:0px;fill:#000000;fill-opacity:1;stroke:none;font-family:Futura Bk BT;-inkscape-font-specification:Futura Bk BT"
   x="270.83011"
   y="125.21273"
   id="text3257"
   sodipodi:linespacing="125%"
   transform="matrix(-0.17780123,-2.1332561,2.1332561,-0.17780123,294.29203,545.51069)"><tspan
     sodipodi:role="line"
     id="tspan3259" /></text>

<text
   sodipodi:linespacing="125%"
   id="text4164-1-6-8-6"
   y="-395.66888"
   x="197.73279"
   style="font-size:11.41423702px;font-style:normal;font-variant:normal;font-weight:normal;font-stretch:normal;line-height:125%;letter-spacing:0px;word-spacing:0px;fill:#000000;fill-opacity:1;stroke:none;font-family:Futura Bk BT;-inkscape-font-specification:Futura Bk BT"
   xml:space="preserve"
   transform="matrix(0.08266541,0.99657736,-0.99657736,0.08266541,0,0)"><tspan
     id="tspan3170-7-1"
     y="-395.66888"
     x="197.73279"
     sodipodi:role="line">MLib</tspan></text>

<text
   sodipodi:linespacing="125%"
   id="text4164-1-6-8-8"
   y="268.07816"
   x="335.5993"
   style="font-size:13.39698219px;font-style:normal;font-variant:normal;font-weight:normal;font-stretch:normal;line-height:125%;letter-spacing:0px;word-spacing:0px;fill:#000000;fill-opacity:1;stroke:none;font-family:Futura Bk BT;-inkscape-font-specification:Futura Bk BT"
   xml:space="preserve"
   transform="matrix(0.99927624,-0.03803938,0.03803938,0.99927624,0,0)"><tspan
     id="tspan3170-7-9"
     y="268.07816"
     x="335.5993"
     sodipodi:role="line">GraphX</tspan></text>

</g><path
   style="fill:#000000;fill-opacity:1;stroke:none"
   d="m 73.952519,58.72327 -1.91274,0.347771 1.826931,-0.794203 z"
   id="path3048"
   inkscape:connector-curvature="0"
   sodipodi:nodetypes="cccc" /></svg>