<?xml version="1.0" encoding="UTF-8" standalone="no"?>
<!-- Created with Inkscape (http://www.inkscape.org/) -->

<svg
   xmlns:dc="http://purl.org/dc/elements/1.1/"
   xmlns:cc="http://creativecommons.org/ns#"
   xmlns:rdf="http://www.w3.org/1999/02/22-rdf-syntax-ns#"
   xmlns:svg="http://www.w3.org/2000/svg"
   xmlns="http://www.w3.org/2000/svg"
   xmlns:sodipodi="http://sodipodi.sourceforge.net/DTD/sodipodi-0.dtd"
   xmlns:inkscape="http://www.inkscape.org/namespaces/inkscape"
   width="1052.3622"
   height="150"
   id="svg2"
   version="1.1"
   inkscape:version="0.48.4 r9939"
   sodipodi:docname="Archatypal Logos.svg"
   inkscape:export-filename="C:\Users\Eight\Desktop\Archatypal Logos.png"
   inkscape:export-xdpi="150"
   inkscape:export-ydpi="150">
  <defs
     id="defs4" />
  <sodipodi:namedview
     id="base"
     pagecolor="#ffffff"
     bordercolor="#666666"
     borderopacity="1.0"
     inkscape:pageopacity="0.0"
     inkscape:pageshadow="2"
     inkscape:zoom="0.5"
     inkscape:cx="187.98896"
     inkscape:cy="73.688744"
     inkscape:document-units="px"
     inkscape:current-layer="g4749"
     showgrid="false"
     inkscape:window-width="1536"
     inkscape:window-height="803"
     inkscape:window-x="-8"
     inkscape:window-y="-8"
     inkscape:window-maximized="1" />
  <metadata
     id="metadata7">
    <rdf:RDF>
      <cc:Work
         rdf:about="">
        <dc:format>image/svg+xml</dc:format>
        <dc:type
           rdf:resource="http://purl.org/dc/dcmitype/StillImage" />
        <dc:title></dc:title>
      </cc:Work>
    </rdf:RDF>
  </metadata>
  <g
     inkscape:label="Layer 1"
     inkscape:groupmode="layer"
     id="layer1"
     transform="translate(0,-902.36218)">
    <g
       id="g4078"
       transform="translate(4.5415407,564.57541)">
      <flowRoot
         transform="matrix(1.4253223,0,0,1.4253223,-36.054589,268.16629)"
         style="font-size:40px;font-style:normal;font-variant:normal;font-weight:900;font-stretch:normal;line-height:125%;letter-spacing:0px;word-spacing:0px;fill:#ffffff;fill-opacity:1;stroke:#000000;stroke-width:2;stroke-miterlimit:4;stroke-opacity:1;stroke-dasharray:none;font-family:HelveticaNeueLT Com 107 XBlkCn;-inkscape-font-specification:HelveticaNeueLT Com 107 XBlkCn Heavy"
         id="flowRoot3036"
         xml:space="preserve"><flowRegion
           id="flowRegion3038"><rect
             style="font-style:normal;font-variant:normal;font-weight:900;font-stretch:normal;fill:#ffffff;fill-opacity:1;stroke:#000000;stroke-width:2;stroke-miterlimit:4;stroke-opacity:1;stroke-dasharray:none;font-family:HelveticaNeueLT Com 107 XBlkCn;-inkscape-font-specification:HelveticaNeueLT Com 107 XBlkCn Heavy"
             y="105.67808"
             x="30.304577"
             height="119.198"
             width="276.7818"
             id="rect3040" /></flowRegion><flowPara
           id="flowPara3042">Word</flowPara></flowRoot>      <g
         id="g4731"
         transform="translate(0.50127919,1.9999958)">
        <path
           sodipodi:type="arc"
           style="color:#000000;fill:#ffffff;fill-opacity:1;stroke:#000000;stroke-width:5;stroke-miterlimit:4;stroke-opacity:1;stroke-dasharray:none;stroke-dashoffset:0;marker:none;visibility:visible;display:inline;overflow:visible;enable-background:accumulate"
           id="path3136"
           sodipodi:cx="562.65497"
           sodipodi:cy="103.65777"
           sodipodi:rx="35.355339"
           sodipodi:ry="36.36549"
           d="m 598.01031,103.65777 c 0,20.0841 -15.82913,36.36549 -35.35534,36.36549 -19.52622,0 -35.35534,-16.28139 -35.35534,-36.36549 0,-20.084107 15.82912,-36.365492 35.35534,-36.365492 19.52621,0 35.35534,16.281385 35.35534,36.365492 z"
           transform="matrix(1.0291907,0,0,1.0291907,78.324122,318.82647)" />
        <flowRoot
           xml:space="preserve"
           id="flowRoot3036-2"
           style="font-size:40px;font-style:normal;font-variant:normal;font-weight:900;font-stretch:normal;line-height:125%;letter-spacing:0px;word-spacing:0px;fill:#000000;fill-opacity:1;stroke:none;font-family:HelveticaNeueLT Com 107 XBlkCn;-inkscape-font-specification:HelveticaNeueLT Com 107 XBlkCn Heavy"
           transform="matrix(1.343471,0,0,1.343471,595.77461,264.99401)"><flowRegion
             id="flowRegion3038-45"><rect
               id="rect3040-5"
               width="276.7818"
               height="119.198"
               x="30.304577"
               y="105.67808"
               style="font-style:normal;font-variant:normal;font-weight:900;font-stretch:normal;font-family:HelveticaNeueLT Com 107 XBlkCn;-inkscape-font-specification:HelveticaNeueLT Com 107 XBlkCn Heavy" /></flowRegion><flowPara
             id="flowPara3042-1">W</flowPara></flowRoot>      </g>
      <g
         transform="matrix(1.1350583,0,0,1.1350583,-1.1568134,-28.601807)"
         id="g4001">
        <flowRoot
           xml:space="preserve"
           id="flowRoot3036-9"
           style="font-size:40px;font-style:normal;font-variant:normal;font-weight:900;font-stretch:normal;line-height:125%;letter-spacing:0px;word-spacing:0px;fill:#000000;fill-opacity:1;stroke:none;font-family:HelveticaNeueLT Com 107 XBlkCn;-inkscape-font-specification:HelveticaNeueLT Com 107 XBlkCn Heavy"
           transform="translate(362.37342,297.50412)"><flowRegion
             id="flowRegion3038-4"><rect
               id="rect3040-8"
               width="276.7818"
               height="119.198"
               x="30.304577"
               y="105.67808"
               style="font-style:normal;font-variant:normal;font-weight:900;font-stretch:normal;font-family:HelveticaNeueLT Com 107 XBlkCn;-inkscape-font-specification:HelveticaNeueLT Com 107 XBlkCn Heavy" /></flowRegion><flowPara
             id="flowPara3042-8">Word</flowPara></flowRoot>        <path
           id="path3235"
           d="m 368.70562,382.62696 c 11.11861,0 20.13198,7.08357 20.13198,15.81798 0,4.13568 -2.02182,7.90611 -5.33209,10.72459 0.12655,2.74657 0.69599,6.43935 2.70919,8.34326 -3.8452,0 -7.78245,-2.53088 -10.11775,-4.35426 -2.28929,0.71325 -4.78279,1.10439 -7.39133,1.10439 -11.1186,0 -20.13195,-7.08359 -20.13195,-15.81798 0,-8.73441 9.01335,-15.81798 20.13195,-15.81798 z"
           inkscape:connector-curvature="0"
           style="fill:#ffffff;fill-opacity:1;stroke:#000000;stroke-width:5;stroke-miterlimit:4;stroke-opacity:1;stroke-dasharray:none" />
      </g>
      <g
         id="g4738"
         transform="matrix(0.97429031,0,0,0.97429031,11.395992,10.775261)">
        <path
           inkscape:connector-curvature="0"
           id="path4420"
           d="m 256.93075,389.68124 c -4.67118,0.49717 -4.65158,8.31393 0.28726,8.26431 4.65509,0.86191 6.3715,-6.16371 2.20971,-7.91075 -0.77573,-0.37228 -1.64993,-0.49237 -2.49697,-0.35356 z"
           style="color:#000000;fill:#ffffff;fill-opacity:1;fill-rule:nonzero;stroke:#000000;stroke-width:1.41421354;stroke-miterlimit:4;stroke-opacity:1;stroke-dasharray:none;stroke-dashoffset:0;marker:none;visibility:visible;display:inline;overflow:visible;enable-background:accumulate" />
        <path
           inkscape:connector-curvature="0"
           id="path4422"
           d="m 275.71327,400.28784 c -4.21393,-0.0147 -5.23469,5.95915 -1.5247,7.68979 4.46075,2.78287 8.13633,-4.6846 4.28684,-7.31414 -0.81939,-0.47609 -1.8502,-0.46739 -2.76214,-0.37565 z"
           style="color:#000000;fill:#ffffff;fill-opacity:1;fill-rule:nonzero;stroke:#000000;stroke-width:1.41421354;stroke-miterlimit:4;stroke-opacity:1;stroke-dasharray:none;stroke-dashoffset:0;marker:none;visibility:visible;display:inline;overflow:visible;enable-background:accumulate" />
        <path
           inkscape:connector-curvature="0"
           id="path4424"
           d="m 257.37269,410.98283 c -4.88579,0.39283 -5.08062,8.11677 -0.22097,8.77255 5.98123,0.85048 6.20905,-9.27881 0.22097,-8.77255 z"
           style="color:#000000;fill:#ffffff;fill-opacity:1;fill-rule:nonzero;stroke:#000000;stroke-width:1.41421354;stroke-miterlimit:4;stroke-opacity:1;stroke-dasharray:none;stroke-dashoffset:0;marker:none;visibility:visible;display:inline;overflow:visible;enable-background:accumulate" />
        <path
           inkscape:connector-curvature="0"
           id="path4426"
           d="m 238.54597,400.28784 c -4.67117,0.49717 -4.65158,8.31393 0.28726,8.26431 4.6551,0.86191 6.3715,-6.16371 2.20971,-7.91075 -0.77573,-0.37227 -1.64993,-0.49236 -2.49697,-0.35356 z"
           style="color:#000000;fill:#ffffff;fill-opacity:1;fill-rule:nonzero;stroke:#000000;stroke-width:1.41421354;stroke-miterlimit:4;stroke-opacity:1;stroke-dasharray:none;stroke-dashoffset:0;marker:none;visibility:visible;display:inline;overflow:visible;enable-background:accumulate" />
        <flowRoot
           xml:space="preserve"
           id="flowRoot3036-1"
           style="font-size:40px;font-style:normal;font-variant:normal;font-weight:900;font-stretch:normal;line-height:125%;letter-spacing:0px;word-spacing:0px;fill:#000000;fill-opacity:1;stroke:none;font-family:HelveticaNeueLT Com 107 XBlkCn;-inkscape-font-specification:HelveticaNeueLT Com 107 XBlkCn Heavy"
           transform="matrix(1.4970749,0,0,1.4970749,148.37435,261.00106)"><flowRegion
             id="flowRegion3038-7"><rect
               id="rect3040-4"
               width="276.7818"
               height="119.198"
               x="30.304577"
               y="105.67808"
               style="font-style:normal;font-variant:normal;font-weight:900;font-stretch:normal;font-family:HelveticaNeueLT Com 107 XBlkCn;-inkscape-font-specification:HelveticaNeueLT Com 107 XBlkCn Heavy" /></flowRegion><flowPara
             id="flowPara3042-0">Word</flowPara></flowRoot>        <path
           d="m 276.12605,395.12603 c -5.03336,0 -9.11391,4.08695 -9.11391,9.12719 0,0.031 0.007,0.36536 0.01,0.43186 0.0111,0.61795 -0.13152,1.91987 -1.50182,2.74662 -1.37479,0.82921 -2.62699,0.40574 -3.23363,0.094 -0.11229,-0.0665 -0.39048,-0.22357 -0.39194,-0.22455 -0.58892,-0.3949 -1.48312,-1.24183 -1.48312,-2.75597 0,-1.46639 0.86662,-2.26359 1.42303,-2.62551 0.13442,-0.07 0.4471,-0.25015 0.4471,-0.25015 2.68754,-1.58801 4.49664,-4.50942 4.49664,-7.86073 0,-5.04024 -4.08056,-9.1272 -9.11439,-9.1272 -5.03335,0 -9.11343,4.08696 -9.11343,9.1272 0,3.35179 1.8086,6.27272 4.49614,7.86073 0,0 0.31218,0.18023 0.44712,0.24967 0.5569,0.36141 1.42354,1.1596 1.42354,2.62599 0,1.51414 -0.89421,2.36107 -1.48264,2.75646 -7.9e-4,4.9e-4 -0.50373,0.2797 -0.50373,0.2797 l 0,0 c -0.6416,0.30135 -1.82632,0.63027 -3.12036,-0.14969 -1.37035,-0.82626 -1.52498,-2.12868 -1.51415,-2.74663 0.003,-0.0664 0.0217,-0.40082 0.0217,-0.43186 0,-5.03973 -4.08057,-9.12719 -9.11393,-9.12719 -5.03334,0 -9.1139,4.08696 -9.1139,9.12719 0,5.04125 4.08056,9.12918 9.1139,9.12918 1.57374,0 2.96528,-0.3496 4.25734,-1.05275 0,0 0.35354,-0.21075 0.48502,-0.29102 0.58202,-0.29642 1.73918,-0.66966 3.02976,0.10829 1.3482,0.81245 1.57914,2.08581 1.59637,2.77912 -0.007,0.15214 -0.0207,0.48945 -0.0207,0.48945 0.0181,5.02646 4.08991,9.09568 9.11195,9.09568 5.0235,0 9.0947,-4.0707 9.11243,-9.09716 l 0.004,0.003 c 0,0 -0.0187,-0.31022 -0.0246,-0.44858 0.008,-0.68248 0.21962,-1.9908 1.59687,-2.82149 1.29109,-0.77749 2.44824,-0.40425 3.03025,-0.10829 0.13193,0.0802 0.3964,0.24129 0.3964,0.24129 1.29206,0.70364 2.77172,1.10347 4.34546,1.10347 5.03384,0 9.11391,-4.08794 9.11391,-9.12917 0,-5.04074 -4.08007,-9.12769 -9.11343,-9.12769 l 0,0 z m -18.46123,-4.84377 c 1.94549,0 3.52118,1.57962 3.52118,3.52707 0,1.94797 -1.57618,3.52759 -3.52118,3.52759 -1.94499,0 -3.52167,-1.57962 -3.52167,-3.52759 0,-1.94795 1.57668,-3.52707 3.52167,-3.52707 z m -18.45924,17.49954 c -1.94499,0 -3.52168,-1.57964 -3.52168,-3.5276 0,-1.94795 1.57669,-3.52708 3.52168,-3.52708 1.94499,0 3.52167,1.57963 3.52167,3.52708 0,1.94796 -1.57668,3.5276 -3.52167,3.5276 z m 18.45924,11.12883 c -1.94499,0 -3.52167,-1.57964 -3.52167,-3.52759 0,-1.94795 1.57668,-3.52759 3.52167,-3.52759 1.945,0 3.52118,1.57964 3.52118,3.52759 0,1.94795 -1.57569,3.52759 -3.52118,3.52759 z m 18.45975,-11.12883 c -1.94549,0 -3.52118,-1.57964 -3.52118,-3.5276 0,-1.94795 1.57618,-3.52708 3.52118,-3.52708 1.94499,0 3.52168,1.57963 3.52168,3.52708 4.9e-4,1.94796 -1.57669,3.5276 -3.52168,3.5276 z"
           id="path5"
           inkscape:connector-curvature="0" />
      </g>
      <g
         id="g4715"
         transform="translate(0.51517125,-8.1716601e-6)">
        <g
           style="fill:#000000"
           id="g3183"
           transform="matrix(1.0086399,0,0,1.0086399,806.83572,399.44293)">
          <path
             id="path3175"
             d="m 40.184688,52.612588 -14.871512,0 -9.914341,14.871512 -9.9143402,-14.871512 -14.8715119,0 c -8.2140319,0 -14.8715119,-6.662437 -14.8715119,-14.871512 l 0,-34.7001932 c 0,-8.2140316 6.65748,-14.8715118 14.8715119,-14.8715118 l 49.5717051,0 c 8.214031,0 14.871512,6.6574802 14.871512,14.8715118 l 0,34.7001932 c 0,8.209075 -6.657481,14.871512 -14.871512,14.871512 z"
             inkscape:connector-curvature="0"
             sodipodi:nodetypes="scccssssssss" />
        </g>
        <flowRoot
           xml:space="preserve"
           id="flowRoot3036-27"
           style="font-size:40px;font-style:normal;font-variant:normal;font-weight:900;font-stretch:normal;line-height:125%;letter-spacing:0px;word-spacing:0px;fill:#ffffff;fill-opacity:1;stroke:none;font-family:HelveticaNeueLT Com 107 XBlkCn;-inkscape-font-specification:HelveticaNeueLT Com 107 XBlkCn Heavy"
           transform="matrix(0.63752372,0,0,0.63752372,772.32599,354.31884)"><flowRegion
             id="flowRegion3038-6"><rect
               id="rect3040-14"
               width="276.7818"
               height="119.198"
               x="30.304577"
               y="105.67808"
               style="font-style:normal;font-variant:normal;font-weight:900;font-stretch:normal;fill:#ffffff;fill-opacity:1;font-family:HelveticaNeueLT Com 107 XBlkCn;-inkscape-font-specification:HelveticaNeueLT Com 107 XBlkCn Heavy" /></flowRegion><flowPara
             id="flowPara3042-2">Word</flowPara></flowRoot>        <path
           id="path3235-1"
           d="m 822.20269,394.95272 c 9.20632,0 16.66949,5.86527 16.66949,13.09745 0,3.42439 -1.67409,6.54634 -4.41503,8.88007 0.10479,2.27419 0.57629,5.33185 2.24324,6.90831 -3.18386,0 -6.44395,-2.0956 -8.3776,-3.60538 -1.89555,0.59058 -3.9602,0.91445 -6.1201,0.91445 -9.20631,0 -16.66946,-5.86529 -16.66946,-13.09745 0,-7.23218 7.46315,-13.09745 16.66946,-13.09745 z"
           inkscape:connector-curvature="0"
           style="fill:#ffffff;fill-opacity:1;stroke:none" />
      </g>
      <g
         id="g4749"
         transform="translate(0.52918523,0)">
        <text
           xml:space="preserve"
           style="font-size:20.97877502px;font-style:normal;font-variant:normal;font-weight:normal;font-stretch:normal;line-height:125%;letter-spacing:0px;word-spacing:0px;fill:#000000;fill-opacity:1;stroke:none;font-family:Futura Bk BT;-inkscape-font-specification:Futura Bk BT"
           x="15.594761"
           y="373.94095"
           id="text5189"
           sodipodi:linespacing="125%"><tspan
             sodipodi:role="line"
             x="15.594761"
             y="373.94095"
             id="tspan5207">Word Mark</tspan></text>
        <text
           sodipodi:linespacing="125%"
           id="text5189-8"
           y="373.94095"
           x="605.06171"
           style="font-size:20.97877502px;font-style:normal;font-variant:normal;font-weight:normal;font-stretch:normal;line-height:125%;letter-spacing:0px;word-spacing:0px;fill:#000000;fill-opacity:1;stroke:none;font-family:Futura Bk BT;-inkscape-font-specification:Futura Bk BT"
           xml:space="preserve"><tspan
             id="tspan5207-8"
             y="373.94095"
             x="605.06171"
             sodipodi:role="line">Letter Mark</tspan></text>
        <text
           xml:space="preserve"
           style="font-size:20.97877502px;font-style:normal;font-variant:normal;font-weight:normal;font-stretch:normal;line-height:125%;letter-spacing:0px;word-spacing:0px;fill:#000000;fill-opacity:1;stroke:none;font-family:Futura Bk BT;-inkscape-font-specification:Futura Bk BT"
           x="402.52563"
           y="373.94095"
           id="text5189-9"
           sodipodi:linespacing="125%"><tspan
             sodipodi:role="line"
             x="402.52563"
             y="373.94095"
             id="tspan5195-2">Pictorial Mark</tspan><tspan
             sodipodi:role="line"
             x="402.52563"
             y="400.16443"
             id="tspan5207-7" /></text>
        <text
           xml:space="preserve"
           style="font-size:20.97877502px;font-style:normal;font-variant:normal;font-weight:normal;font-stretch:normal;line-height:125%;letter-spacing:0px;word-spacing:0px;fill:#000000;fill-opacity:1;stroke:none;font-family:Futura Bk BT;-inkscape-font-specification:Futura Bk BT"
           x="198.67836"
           y="373.94095"
           id="text5189-3"
           sodipodi:linespacing="125%"><tspan
             sodipodi:role="line"
             x="198.67836"
             y="373.94095"
             id="tspan5199-7">Abstract Mark</tspan><tspan
             sodipodi:role="line"
             x="198.67836"
             y="400.16443"
             id="tspan5207-0" /></text>
        <text
           sodipodi:linespacing="125%"
           id="text5189-81"
           y="374.03314"
           x="785.021"
           style="font-size:20.97877502px;font-style:normal;font-variant:normal;font-weight:normal;font-stretch:normal;line-height:125%;letter-spacing:0px;word-spacing:0px;fill:#000000;fill-opacity:1;stroke:none;font-family:Futura Bk BT;-inkscape-font-specification:Futura Bk BT"
           xml:space="preserve"><tspan
             id="tspan5207-5"
             y="374.03314"
             x="785.021"
             sodipodi:role="line">Emblem</tspan></text>
        <text
           sodipodi:linespacing="125%"
           id="text5189-86"
           y="374.03314"
           x="935.70428"
           style="font-size:20.97877502px;font-style:normal;font-variant:normal;font-weight:normal;font-stretch:normal;line-height:125%;letter-spacing:0px;word-spacing:0px;fill:#000000;fill-opacity:1;stroke:none;font-family:Futura Bk BT;-inkscape-font-specification:Futura Bk BT"
           xml:space="preserve"><tspan
             id="tspan5207-6"
             y="374.03314"
             x="935.70428"
             sodipodi:role="line">Character</tspan></text>
      </g>
      <g
         id="g4697"
         transform="translate(0.52919655,0)">
        <g
           transform="translate(-4.3923956e-5,0)"
           id="g4535">
          <rect
             style="color:#000000;fill:#ffffff;fill-opacity:1;fill-rule:nonzero;stroke:none;stroke-width:2;marker:none;visibility:visible;display:inline;overflow:visible;enable-background:accumulate"
             id="rect4473"
             width="35.454453"
             height="1.0695436"
             x="963.98138"
             y="431.64056" />
          <rect
             style="color:#000000;fill:#ffffff;fill-opacity:1;fill-rule:nonzero;stroke:none;stroke-width:2;marker:none;visibility:visible;display:inline;overflow:visible;enable-background:accumulate"
             id="rect4473-1"
             width="35.079456"
             height="1.0695436"
             x="964.29376"
             y="425.93948" />
          <g
             id="g4530">
            <rect
               style="color:#000000;fill:#ffffff;fill-opacity:1;fill-rule:nonzero;stroke:none;stroke-width:2;marker:none;visibility:visible;display:inline;overflow:visible;enable-background:accumulate"
               id="rect4473-5"
               width="4.3294525"
               height="10.132044"
               x="979.54376"
               y="404.00198" />
            <rect
               style="color:#000000;fill:#ffffff;fill-opacity:1;fill-rule:nonzero;stroke:none;stroke-width:2;marker:none;visibility:visible;display:inline;overflow:visible;enable-background:accumulate"
               id="rect4473-2"
               width="14.391953"
               height="12.257044"
               x="979.41876"
               y="414.00198" />
            <rect
               style="color:#000000;fill:#ffffff;fill-opacity:1;fill-rule:nonzero;stroke:none;stroke-width:2;marker:none;visibility:visible;display:inline;overflow:visible;enable-background:accumulate"
               id="rect4473-7"
               width="2.2044525"
               height="5.6320438"
               x="992.66876"
               y="420.56448" />
          </g>
          <g
             transform="matrix(0.63784663,0,0,0.63784663,941.61112,387.32574)"
             id="g3197">
            <circle
               d="m 76.536,14.27 c 0,7.721494 -6.259507,13.981 -13.981,13.981 -7.721493,0 -13.981,-6.259506 -13.981,-13.981 0,-7.7214926 6.259507,-13.98099949 13.981,-13.98099949 7.721493,0 13.981,6.25950689 13.981,13.98099949 z"
               sodipodi:ry="13.981"
               sodipodi:rx="13.981"
               sodipodi:cy="14.27"
               sodipodi:cx="62.555"
               cx="62.555"
               cy="14.27"
               r="13.981"
               id="circle3199" />
            <path
               inkscape:connector-curvature="0"
               d="m 68.018,42.746 h 3.487 c 1.123,0 2.105,0.644 2.565,1.624 6.922,2.661 8.56,11.137 8.888,16.453 h 7.565 C 87.229,45.523 78.598,33.066 66.23,28.989 l -3.484,3.506 -3.376,-3.544 c -0.013,0.003 -0.022,0.003 -0.035,0.006 -1.728,0.414 -19.902,8.468 -23.857,31.865 h 11.149 c 0.568,-2.369 1.171,-4.448 1.81,-6.255 v 6.255 H 78.48 c 0.081,-3.483 -1.177,-6.797 -1.391,-7.332 0.044,0.115 -1.751,-4.108 -4.671,-5.22 -0.296,0.104 -0.601,0.155 -0.913,0.155 h -3.487 c -1.566,0 -2.841,-1.274 -2.841,-2.84 0,-1.565 1.274,-2.839 2.841,-2.839 z m -1.866,12.806 -3.373,4.614 h -0.065 l -3.37,-4.614 3.37,-22.538 h 0.065 l 3.373,22.538 z"
               id="path3201" />
            <rect
               x="29.775"
               y="62.303001"
               width="66.448997"
               height="7.237"
               id="rect3203" />
            <polygon
               points="90.756,71.185 35.244,71.185 39.841,125.711 86.159,125.711 "
               id="polygon3205" />
          </g>
          <flowRoot
             transform="matrix(0.753775,0,0,0.753775,947.21737,358.56221)"
             style="font-size:40px;font-style:normal;font-variant:normal;font-weight:900;font-stretch:normal;line-height:125%;letter-spacing:0px;word-spacing:0px;fill:#ffffff;fill-opacity:1;stroke:none;font-family:HelveticaNeueLT Com 107 XBlkCn;-inkscape-font-specification:HelveticaNeueLT Com 107 XBlkCn Heavy"
             id="flowRoot3036-3-7"
             xml:space="preserve"><flowRegion
               id="flowRegion3038-2-4"><rect
                 style="font-style:normal;font-variant:normal;font-weight:900;font-stretch:normal;fill:#ffffff;fill-opacity:1;font-family:HelveticaNeueLT Com 107 XBlkCn;-inkscape-font-specification:HelveticaNeueLT Com 107 XBlkCn Heavy"
                 y="105.67808"
                 x="30.304577"
                 height="119.198"
                 width="276.7818"
                 id="rect3040-2-0" /></flowRegion><flowPara
               id="flowPara3042-16-9">W</flowPara></flowRoot>        </g>
      </g>
    </g>
  </g>
</svg>
