<?xml version="1.0" encoding="UTF-8" standalone="no"?>
<!-- Generator: Adobe Illustrator 16.0.0, SVG Export Plug-In . SVG Version: 6.00 Build 0)  -->

<svg
   xmlns:dc="http://purl.org/dc/elements/1.1/"
   xmlns:cc="http://creativecommons.org/ns#"
   xmlns:rdf="http://www.w3.org/1999/02/22-rdf-syntax-ns#"
   xmlns:svg="http://www.w3.org/2000/svg"
   xmlns="http://www.w3.org/2000/svg"
   xmlns:xlink="http://www.w3.org/1999/xlink"
   xmlns:sodipodi="http://sodipodi.sourceforge.net/DTD/sodipodi-0.dtd"
   xmlns:inkscape="http://www.inkscape.org/namespaces/inkscape"
   version="1.1"
   id="Layer_1"
   x="0px"
   y="0px"
   width="201.975px"
   height="88.49px"
   viewBox="0 0 201.975 88.49"
   enable-background="new 0 0 201.975 88.49"
   xml:space="preserve"
   inkscape:version="0.48.4 r9939"
   sodipodi:docname="Swiss_Army_Knife_4.svg"><metadata
   id="metadata51"><rdf:RDF><cc:Work
       rdf:about=""><dc:format>image/svg+xml</dc:format><dc:type
         rdf:resource="http://purl.org/dc/dcmitype/StillImage" /><dc:title></dc:title></cc:Work></rdf:RDF></metadata><defs
   id="defs49"><linearGradient
     id="linearGradient2880"
     inkscape:collect="always"><stop
       id="stop2882"
       offset="0"
       style="stop-color:#ffffff;stop-opacity:1;" /><stop
       id="stop2884"
       offset="1"
       style="stop-color:#ffffff;stop-opacity:0;" /></linearGradient><linearGradient
     id="linearGradient2969"
     inkscape:collect="always"><stop
       id="stop2971"
       offset="0"
       style="stop-color:#b3aeab;stop-opacity:1" /><stop
       id="stop2973"
       offset="1"
       style="stop-color:#3a3839;stop-opacity:1" /></linearGradient><linearGradient
     id="linearGradient2985"
     inkscape:collect="always"><stop
       id="stop2987"
       offset="0"
       style="stop-color:#ffffff;stop-opacity:1;" /><stop
       id="stop2989"
       offset="1"
       style="stop-color:#ffffff;stop-opacity:0;" /></linearGradient><linearGradient
     id="linearGradient3039"
     inkscape:collect="always"><stop
       id="stop3041"
       offset="0"
       style="stop-color:#767676;stop-opacity:1;" /><stop
       id="stop3043"
       offset="1"
       style="stop-color:#d6d6d6;stop-opacity:1" /></linearGradient><linearGradient
     inkscape:collect="always"
     id="linearGradient3271"><stop
       style="stop-color:#ff0000;stop-opacity:1"
       offset="0"
       id="stop3273" /><stop
       style="stop-color:#800000;stop-opacity:1"
       offset="1"
       id="stop3275" /></linearGradient><linearGradient
     id="linearGradient3513"
     inkscape:collect="always"><stop
       id="stop3515"
       offset="0"
       style="stop-color:#ffffff;stop-opacity:1;" /><stop
       id="stop3517"
       offset="1"
       style="stop-color:#ffffff;stop-opacity:0;" /></linearGradient><linearGradient
     inkscape:collect="always"
     xlink:href="#linearGradient3513"
     id="linearGradient3207"
     gradientUnits="userSpaceOnUse"
     x1="92.782692"
     y1="1.043337"
     x2="153.36902"
     y2="1.2333859"
     gradientTransform="matrix(0.7824166,0.6227554,-0.6227554,0.7824166,284.08803,-59.845018)" /><linearGradient
     inkscape:collect="always"
     xlink:href="#linearGradient2985"
     id="linearGradient3272"
     gradientUnits="userSpaceOnUse"
     x1="467.77707"
     y1="371.89926"
     x2="462.06287"
     y2="368.78546"
     gradientTransform="matrix(0.4671472,0,0,0.4671472,116.454,-166.14822)" /><linearGradient
     inkscape:collect="always"
     xlink:href="#linearGradient2880"
     id="linearGradient3275"
     gradientUnits="userSpaceOnUse"
     x1="373.05164"
     y1="336.58533"
     x2="488.87668"
     y2="481.64069"
     gradientTransform="matrix(0.4671472,0,0,0.4671472,198.67584,-171.78368)" /><linearGradient
     inkscape:collect="always"
     xlink:href="#linearGradient3271"
     id="linearGradient3278"
     gradientUnits="userSpaceOnUse"
     x1="367.33963"
     y1="358.44037"
     x2="507.21893"
     y2="474.44235"
     gradientTransform="matrix(0.4671472,0,0,0.4671472,203.62856,-135.08069)" /><linearGradient
     inkscape:collect="always"
     xlink:href="#linearGradient2969"
     id="linearGradient3290"
     gradientUnits="userSpaceOnUse"
     x1="453.24738"
     y1="388.30896"
     x2="443.19492"
     y2="398.95276"
     gradientTransform="matrix(0.4671472,0,0,0.4671472,116.454,-166.14822)" /><linearGradient
     inkscape:collect="always"
     xlink:href="#linearGradient3039"
     id="linearGradient3316"
     gradientUnits="userSpaceOnUse"
     x1="466.40231"
     y1="506.6196"
     x2="494.25995"
     y2="456.47977"
     gradientTransform="matrix(0.4671472,0,0,0.4671472,116.454,-166.14822)" /></defs><sodipodi:namedview
   pagecolor="#ffffff"
   bordercolor="#666666"
   borderopacity="1"
   objecttolerance="10"
   gridtolerance="10"
   guidetolerance="10"
   inkscape:pageopacity="0"
   inkscape:pageshadow="2"
   inkscape:window-width="1536"
   inkscape:window-height="803"
   id="namedview47"
   showgrid="false"
   inkscape:zoom="2.1565925"
   inkscape:cx="49.697359"
   inkscape:cy="32.584388"
   inkscape:window-x="-8"
   inkscape:window-y="-8"
   inkscape:window-maximized="1"
   inkscape:current-layer="g2937" />
<g
   id="g3320"
   style="fill:#ffffff;fill-opacity:1;stroke:#000000;stroke-width:0.5;stroke-miterlimit:4;stroke-opacity:1;stroke-dasharray:none"
   transform="matrix(-0.43838346,0.73982247,0.73982247,0.43838346,254.34497,-155.34982)"><path
     inkscape:connector-curvature="0"
     sodipodi:nodetypes="cssscccccsss"
     id="path3049"
     d="m 251.38891,56.419864 45.80816,-31.866549 c 0.79315,-0.551757 -1.88254,-0.663886 -2.82151,-0.663886 -0.88672,0 -1.9546,0.07977 -2.65555,0.663886 l -2.98749,2.489577 -5.97498,5.145117 -4.81317,3.983317 -1.65972,0.331946 -8.46455,0.165973 -10.78816,9.294407 c -1.73525,1.494988 -3.07842,3.492813 -4.14929,5.477063 -0.81014,1.501154 -2.9162,5.968688 -1.49374,4.979149 z"
     style="fill:#ffffff;fill-opacity:1;fill-rule:evenodd;stroke:#000000;stroke-width:0.5;stroke-miterlimit:4;stroke-opacity:1;stroke-dasharray:none" /><path
     inkscape:connector-curvature="0"
     sodipodi:nodetypes="ccccccccccssscccccccc"
     id="path3047"
     d="m 282.4256,12.935303 -3.65137,5.974981 -3.15347,6.306917 -4.6472,1.659718 -1.82569,1.825686 -0.99583,2.655545 0.49792,3.485404 -0.16597,2.821518 -4.31527,6.970807 0.49792,3.651377 -7.30275,13.111757 c -0.86813,1.558688 3.38792,-1.436239 4.6472,-2.655545 2.22612,-2.15545 4.19711,-4.757796 5.80901,-7.468726 l 7.30275,-12.281898 -1.65972,-4.315258 -0.16597,-2.821518 14.10759,-15.435361 5.80901,-6.140949 -3.31944,-6.3069214 -3.98332,1.3277724 -3.4854,7.634694 z"
     style="fill:#ffffff;fill-opacity:1;fill-rule:evenodd;stroke:#000000;stroke-width:0.5;stroke-miterlimit:4;stroke-opacity:1;stroke-dasharray:none" /><path
     transform="matrix(0.52543951,0,0,0.4671472,97.193499,-166.64613)"
     d="m 333.25975,442.3334 c 0,1.76598 -1.35207,3.19759 -3.01994,3.19759 -1.66787,0 -3.01995,-1.43161 -3.01995,-3.19759 0,-1.76597 1.35208,-3.19758 3.01995,-3.19758 1.66787,0 3.01994,1.43161 3.01994,3.19758 z"
     sodipodi:ry="3.1975882"
     sodipodi:rx="3.0199444"
     sodipodi:cy="442.3334"
     sodipodi:cx="330.23981"
     id="path3051"
     style="opacity:0.946875;fill:#ffffff;fill-opacity:1;fill-rule:nonzero;stroke:#000000;stroke-width:1.00921059;stroke-miterlimit:4;stroke-opacity:1;stroke-dasharray:none"
     sodipodi:type="arc" /><rect
     ry="0.18956916"
     rx="0.64989889"
     y="38.496639"
     x="270.47565"
     height="2.9823766"
     width="0.49791482"
     id="rect3061"
     style="opacity:0.946875;fill:#ffffff;fill-opacity:1;fill-rule:nonzero;stroke:#000000;stroke-width:0.5;stroke-miterlimit:4;stroke-opacity:1;stroke-dasharray:none" /></g><path
   style="fill:#ffffff;fill-opacity:1;fill-rule:evenodd;stroke:#000000;stroke-width:0.41095656;stroke-miterlimit:4;stroke-opacity:1;stroke-dasharray:none"
   d="m 64.438407,5.5864033 2.37078,54.1940257 8.37076,-1.10537 -3.69856,-8.35278 0.97681,-3.744091 -1.42949,-0.890181 1.11389,-1.156612 -1.33268,-1.239539 1.0818,-1.088443 -1.25356,-1.034881 0.9184,-1.172895 -1.20813,-1.10399 0.89568,-1.300795 -1.13827,-0.918632 0.82977,-1.087308 -1.04102,-0.997908 0.8725,-1.344599 -1.10682,-1.010897 0.73323,-1.307521 -0.94828,-0.935215 0.63152,-1.437558 -0.8992,-1.203784 0.57895,-1.150468 -0.86542,-0.876985 0.69972,-0.985594 -0.94263,-1.035005 0.79256,-1.148768 -1.08561,-1.283369 0.68721,-1.041142 -0.78386,-1.17878 0.51415,-1.013115 -0.76144,-1.18271 0.42889,-1.044515 -0.64006,-1.097899 0.41505,-1.2912 -0.6917,-1.268812 0.48321,-0.775077 -0.97942,-6.0538967 -0.78373,2.050171 -1.80498,-1.38388 z"
   id="path2963"
   sodipodi:nodetypes="cccccccccccccccccccccccccccccccccccccccc"
   inkscape:connector-curvature="0" /><g
   id="g3"
   transform="matrix(0.63313656,0,0,0.63313656,33.850435,16.99588)">
	<path
   stroke-miterlimit="10"
   d="m 162.283,59.815 c -1.296,-3.778 -2.592,-7.559 -4.032,-11.879 -1.548,-4.284 -3.456,-10.26 -4.606,-13.644 -1.188,-3.492 -1.368,-4.86 -2.196,-6.876 -1.008,-2.16 -2.088,-3.924 -2.952,-5.292 -0.864,-1.44 -1.296,-2.34 -1.836,-2.844 -0.612,-0.468 -0.54,-0.432 -1.584,-0.036 -1.224,0.216 -3.78,1.296 -4.896,1.836 -1.08,0.54 -1.367,0.108 -1.439,1.332 -0.252,1.224 0.036,3.744 0.468,5.472 0.288,1.584 1.116,2.484 2.088,3.816 1.044,1.224 2.7,1.908 3.996,3.6 1.188,1.62 2.7,4.284 3.168,6.048 0.36,1.62 -0.323,2.7 -0.684,3.78 -0.433,0.937 -0.756,1.549 -1.513,2.269 -0.792,0.576 -2.159,1.549 -2.987,1.801 -0.828,0.18 -1.765,-0.072 -2.124,-0.324 -0.433,-0.324 -0.396,-1.295 -0.576,-1.404 -0.324,-0.287 -1.044,-0.035 -1.188,0.361 -0.288,0.359 -0.54,1.402 -0.359,2.303 0.18,0.828 0.54,2.197 1.08,2.844 0.432,0.504 0.792,0.613 1.367,0.722 0.505,0.034 0.828,-0.287 1.368,-0.146 0.359,0 0.827,0.217 1.009,0.504 0.035,0.324 -0.396,0.974 -0.469,1.404 -0.217,0.217 -0.396,0.359 -0.396,0.576 -0.072,0.18 -0.108,0.072 0.288,0.936 0.323,0.865 0.972,2.197 1.8,4.142 l 0,0 c 5.721,-0.433 11.445,-0.866 17.205,-1.301 l 0,0 z"
   id="path5"
   inkscape:connector-curvature="0"
   style="stroke:#000000;stroke-width:0.036;stroke-miterlimit:10" />
	<path
   stroke-miterlimit="10"
   d="m 161.707,59.351 c -0.576,-1.765 -1.296,-3.89 -2.16,-6.517 -1.044,-2.735 -2.124,-6.301 -3.239,-9.325 -1.151,-3.06 -2.269,-6.372 -3.061,-8.82 -0.899,-2.448 -1.224,-4.5 -1.8,-6.012 -0.504,-1.692 -1.188,-2.196 -1.764,-3.6 -0.722,-1.44 -2.232,-4.032 -2.736,-4.86 -0.648,-0.9 -0.648,-0.792 -1.116,-0.648 -0.646,0.036 -1.188,0.252 -2.016,0.648 -0.864,0.252 -1.944,0.612 -2.664,0.936 -0.686,0.288 -1.226,0.36 -1.478,0.792 -0.288,0.216 -0.54,0.432 -0.468,1.188 -0.072,0.756 0.072,2.196 0.288,3.348 0.072,1.008 0.324,1.8 0.756,2.808 0.396,0.864 1.368,2.088 2.088,2.844 0.576,0.612 1.368,0.9 1.944,1.404 0.504,0.396 0.792,0.828 1.296,1.44 0.36,0.504 0.828,1.08 1.26,1.872 0.469,0.756 1.009,1.836 1.478,2.808 0.358,0.828 0.54,1.764 0.684,2.52 0.108,0.792 -0.072,1.404 -0.252,2.233 -0.252,0.756 -0.647,1.547 -1.188,2.375 -0.648,0.684 -1.478,1.478 -2.196,1.979 -0.719,0.504 -1.478,0.756 -2.124,0.9 -0.72,0.143 -1.729,-0.145 -2.052,-0.182 -0.47,-0.252 -0.504,-0.467 -0.54,-0.646 -0.108,-0.289 -0.108,-0.504 -0.146,-0.648 -0.18,-0.217 -0.324,-0.358 -0.432,-0.289 -0.181,-0.034 -0.433,0.072 -0.468,0.47 -0.146,0.432 -0.218,1.08 -0.072,1.801 0,0.611 0.432,1.476 0.756,2.017 0.252,0.467 0.576,0.791 0.972,0.973 0.36,0.035 0.938,0.035 1.44,0 0.468,-0.109 0.756,-0.072 1.152,0.107 0.286,0.18 0.539,0.684 0.61,1.225 -0.071,0.432 -0.432,1.043 -0.936,1.691 l 0,0 1.836,4.5 0,0 c 5.44,-0.433 10.876,-0.868 16.348,-1.332 l 0,0 z"
   id="path7"
   inkscape:connector-curvature="0"
   style="fill:#ffffff;stroke:#000000;stroke-width:0.036;stroke-miterlimit:10" />
	<path
   stroke-miterlimit="10"
   d="m 151.52,33.141 -4.934,1.296 0,0 c 0.9,-0.036 1.836,-0.144 2.81,-0.324 0.936,-0.288 2.304,-0.792 2.734,-0.936 0.361,-0.18 0.109,-0.144 -0.61,-0.036 l 0,0 z"
   id="path9"
   inkscape:connector-curvature="0"
   style="stroke:#000000;stroke-width:0.036;stroke-miterlimit:10" />
	
	
	
	<g
   id="g4094"><path
     id="path11"
     d="m 201.955,27.309 c -0.072,1.764 -0.54,3.852 -1.404,6.12 -1.044,2.304 -1.332,4.284 -4.066,7.596 -2.772,3.204 -6.805,6.805 -12.097,11.771 -5.399,4.896 -11.881,10.584 -19.837,17.461 l 0,0 -1.224,0.863 -8.64,-11.016 0,0 c 0.575,-0.974 1.367,-1.621 1.979,-2.34 0.612,-0.757 1.152,-1.513 2.018,-1.691 0.684,-0.217 1.979,0.359 2.771,0.756 0.756,0.18 1.44,1.008 2.052,0.971 0.54,-0.107 0.648,-0.9 1.009,-1.26 0.217,-0.396 0.107,-0.576 0.505,-0.936 0.252,-0.541 -0.218,0.18 1.654,-1.729 1.872,-2.017 6.229,-6.588 9.722,-9.828 3.348,-3.419 7.486,-7.271 10.476,-9.755 2.809,-2.412 4.86,-3.708 6.696,-4.716 1.872,-1.08 2.664,-1.62 4.176,-1.908 1.366,-0.395 2.77,-0.467 4.21,-0.359 l 0,0 z"
     stroke-miterlimit="10"
     inkscape:connector-curvature="0"
     style="stroke:#000000;stroke-width:0.036;stroke-miterlimit:10" /><path
     id="path13"
     d="m 201.667,27.633 c -0.324,1.728 -0.646,3.168 -1.116,4.716 -0.468,1.44 -0.936,2.7 -1.548,4.068 -0.646,1.188 -1.115,2.268 -2.376,3.816 -1.332,1.548 -3.274,3.348 -5.544,5.688 -2.34,2.123 -4.788,4.572 -8.46,7.883 -3.78,3.313 -10.476,9.109 -13.68,11.988 -3.204,2.771 -5.076,4.32 -5.473,4.645 l 0,0 -8.243,-10.297 0,0 c 0.756,-1.08 1.438,-1.908 2.052,-2.481 0.504,-0.687 0.646,-1.117 1.26,-1.152 0.54,-0.18 1.548,0.324 2.196,0.539 0.54,0.181 1.044,0.396 1.368,0.647 l 0,0 c 0.252,-0.106 0.792,0.324 1.764,1.009 0.9,0.684 2.16,1.764 3.78,3.239 l 0,0 c -0.182,-0.432 -0.648,-1.045 -1.116,-1.69 -0.612,-0.756 -1.225,-1.584 -2.124,-2.483 l 0,0 c 0.036,-0.613 0.36,-1.226 0.972,-1.98 0.434,-0.756 0.938,-0.9 2.484,-2.375 1.584,-1.693 4.392,-4.43 6.876,-6.842 2.412,-2.555 4.932,-5.219 7.271,-7.416 2.089,-2.196 3.996,-3.708 5.868,-5.22 1.872,-1.584 3.744,-2.916 5.474,-3.852 1.584,-1.044 3.096,-1.729 4.535,-2.052 1.332,-0.47 2.592,-0.506 3.78,-0.398 l 0,0 z"
     stroke-miterlimit="10"
     inkscape:connector-curvature="0"
     style="fill:#ffffff;stroke:#000000;stroke-width:0.036;stroke-miterlimit:10" /><path
     id="path15"
     d="m 201.667,27.633 c -1.8,0.18 -3.563,0.792 -5.292,1.548 -1.836,0.684 -2.771,1.26 -5.328,3.132 -2.556,1.872 -5.938,4.464 -10.008,7.92 l 0,0 c 1.656,-1.908 3.24,-3.492 5.148,-5.04 1.836,-1.62 3.708,-2.952 5.76,-4.14 1.943,-1.296 4.248,-2.484 5.938,-3.024 1.622,-0.648 2.883,-0.648 3.782,-0.396 l 0,0 z"
     inkscape:connector-curvature="0"
     style="fill:#ffffff" /><path
     id="path17"
     d="m 197.167,38.146 c -2.124,2.088 -3.814,3.636 -5.22,5.184 -1.44,1.333 -2.196,2.231 -3.24,3.384 -1.151,1.225 -2.34,2.232 -3.563,3.564 l 0,0 c 1.512,-1.152 2.951,-2.195 4.464,-3.564 1.438,-1.439 2.88,-2.952 4.176,-4.392 1.259,-1.405 2.339,-2.845 3.383,-4.176 l 0,0 z"
     stroke-miterlimit="10"
     inkscape:connector-curvature="0"
     style="stroke:#000000;stroke-width:0.036;stroke-miterlimit:10" /></g>
	<path
   stroke-miterlimit="10"
   d="m 55.327,63.705 c 0.468,-2.269 1.62,-4.97 3.456,-8.642 1.764,-3.672 4.932,-9.035 7.272,-13.03 2.268,-4.176 4.859,-8.64 6.407,-11.16 1.404,-2.448 1.261,-2.376 2.341,-3.384 0.972,-1.152 2.268,-2.268 3.743,-3.348 l 0,0 3.24,1.692 -0.18,2.304 0,0 c 0.611,0.792 1.044,1.764 1.439,3.06 0.324,1.296 0.612,3.096 0.721,4.572 0.071,1.368 -0.288,2.736 -0.396,3.816 -0.18,1.044 -0.504,1.8 -0.828,2.412 l 0,0 c -1.368,-0.612 -2.7,-1.152 -3.708,-1.62 -1.151,-0.576 -2.016,-1.08 -2.735,-1.368 -0.757,-0.36 -1.188,-0.432 -1.692,-0.072 -0.648,0.36 -0.9,1.08 -1.728,2.556 -0.937,1.476 -2.629,4.249 -3.421,5.939 -0.863,1.478 -1.332,2.123 -1.403,3.203 -0.108,1.08 0.324,2.305 1.008,3.096 0.648,0.648 1.764,1.045 2.771,1.045 0.9,-0.071 1.908,-0.541 2.736,-1.114 0.685,-0.647 1.225,-1.621 1.62,-2.377 0.216,-0.863 0.108,-1.979 0.36,-2.375 0.144,-0.47 0.863,-0.396 1.188,-0.072 0.252,0.252 0.612,1.043 0.648,1.979 -0.036,0.828 -0.181,1.908 -0.721,3.24 -0.72,1.403 -1.619,2.844 -2.699,4.608 -1.116,1.547 -2.269,3.168 -3.601,4.858 l 0,0 c -5.254,0.039 -10.546,0.11 -15.838,0.182 l 0,0 z"
   id="path19"
   inkscape:connector-curvature="0"
   style="stroke:#000000;stroke-width:0.036;stroke-miterlimit:10" />
	<path
   stroke-miterlimit="10"
   d="m 56.119,62.697 c 0.864,-2.484 1.98,-4.97 3.492,-7.992 1.404,-3.062 3.24,-6.265 5.22,-9.756 2.017,-3.6 4.752,-8.352 6.408,-11.052 1.404,-2.736 2.016,-3.708 2.808,-4.86 0.757,-1.296 1.332,-1.44 2.124,-2.232 0.685,-0.684 1.584,-1.548 2.412,-2.196 l 0,0 2.664,1.44 0.108,2.88 0,0 c 0.54,0.9 1.044,1.836 1.368,2.952 0.288,1.044 0.54,2.448 0.611,3.528 0.036,1.008 0.036,1.692 -0.144,2.736 -0.216,1.044 -0.504,1.98 -0.864,3.24 l 0,0 c -1.8,-0.936 -3.204,-1.728 -4.355,-2.232 -1.116,-0.648 -1.908,-1.008 -2.521,-1.08 -0.647,-0.216 -1.116,0.108 -1.548,0.576 -0.54,0.504 -1.116,1.44 -1.729,2.52 -0.684,0.972 -1.403,2.196 -2.159,3.672 -0.828,1.439 -2.017,3.672 -2.448,5.039 -0.504,1.297 -0.36,2.053 0.036,2.953 0.468,0.756 1.476,1.799 2.592,2.16 0.972,0.287 2.34,0.215 3.276,-0.072 0.792,-0.361 1.26,-0.9 1.836,-1.477 0.432,-0.721 0.972,-1.478 1.224,-2.125 0.144,-0.646 0.072,-1.223 0.216,-1.584 0.072,-0.359 0.252,-0.685 0.396,-0.574 0.071,0.07 0.359,0.322 0.468,0.898 0.108,0.36 0.216,0.973 0.036,1.979 -0.433,0.973 -1.152,2.844 -1.765,3.961 -0.647,1.008 -0.936,1.224 -1.691,2.447 -0.828,1.151 -1.908,2.698 -3.24,4.645 l 0,0 C 66.019,62.983 61.087,62.842 56.119,62.697 l 0,0 z"
   id="path21"
   inkscape:connector-curvature="0"
   style="fill:#ffffff;stroke:#000000;stroke-width:0.036;stroke-miterlimit:10" />
	<path
   stroke-miterlimit="10"
   d="m 79.771,29.937 c -1.332,0.432 -2.448,1.188 -3.637,2.124 -1.26,0.936 -2.663,2.376 -3.239,3.492 -0.612,1.008 -0.612,1.944 -0.145,2.808 l 0,0 c 0,-0.864 0.396,-1.62 1.044,-2.664 0.612,-1.044 1.836,-2.484 2.845,-3.348 0.972,-0.936 2.016,-1.836 3.132,-2.412 l 0,0 z"
   id="path23"
   inkscape:connector-curvature="0"
   style="stroke:#000000;stroke-width:0.036;stroke-miterlimit:10" />
	<path
   stroke-miterlimit="10"
   d="m 0.139,0.021 c 3.42,0.684 6.407,1.944 9.396,3.78 2.88,1.764 5.148,4.14 7.92,6.984 2.628,2.664 4.536,5.04 8.064,9.36 3.456,4.32 9.216,11.88 12.815,16.452 3.492,4.428 6.336,7.883 8.101,10.081 1.655,2.017 1.224,1.656 1.764,2.375 0.432,0.722 0.828,1.009 1.044,1.693 0.036,0.539 -0.144,1.149 0.036,1.69 0.144,0.433 0.576,0.791 1.152,1.08 l 0,0 c 0.936,-0.396 1.728,-0.647 2.376,-0.61 0.611,-0.183 0.756,-0.146 1.548,0.538 0.756,0.648 1.512,1.871 3.096,3.816 1.548,1.871 3.492,4.355 5.976,7.451 l 0,0 -10.332,9.039 0,0 C 52.267,73.426 50.935,72.453 49.242,70.688 47.514,68.924 46.002,67.162 42.618,63.307 39.055,59.348 32.971,52.291 28.398,47.287 23.826,42.175 19.182,37.171 15.582,32.959 11.91,28.639 8.814,25.255 6.582,21.835 4.278,18.379 3.019,15.283 1.975,12.547 0.859,9.633 0.571,7.077 0.283,5.025 -0.041,2.901 -0.041,1.281 0.139,0.021 l 0,0 z"
   id="path25"
   inkscape:connector-curvature="0"
   style="stroke:#000000;stroke-width:0.036;stroke-miterlimit:10" />
	<path
   d="m 62.707,64.642 c -1.332,-1.765 -2.592,-3.455 -3.78,-4.933 -1.331,-1.656 -2.52,-3.022 -3.42,-4.104 -0.936,-1.114 -1.26,-1.873 -1.943,-2.125 -0.792,-0.321 -1.584,0 -2.521,0.435 -1.008,0.321 -1.655,0.756 -2.916,1.728 -1.403,0.973 -4.5,3.239 -5.004,3.602 -0.504,0.18 0.937,-1.549 1.944,-2.27 0.864,-0.898 2.628,-2.017 3.348,-2.664 0.576,-0.685 0.324,-0.791 0.36,-1.295 0.072,-0.648 -0.145,-1.621 -0.252,-2.232 -0.324,-0.684 0.144,0 -1.116,-1.691 -1.332,-1.836 -4.104,-5.292 -6.516,-8.568 -2.593,-3.276 -5.616,-7.308 -8.244,-10.548 -2.628,-3.312 -5.076,-6.336 -7.2,-8.928 -2.16,-2.628 -3.744,-4.968 -5.436,-6.876 C 18.282,12.229 16.771,10.897 15.078,9.349 13.242,7.693 11.515,5.677 9.498,4.417 7.374,3.084 4.854,2.148 3.307,1.607 1.794,0.995 0.895,0.743 0.607,0.851 l 0,0 c -0.181,0.972 -0.108,2.304 0.216,4.14 0.18,1.8 0.468,3.996 1.404,6.588 0.936,2.52 2.412,5.904 4.14,8.64 1.512,2.664 3.24,4.248 5.724,7.38 2.448,3.06 5.328,6.444 9.181,10.836 3.815,4.32 9.504,10.583 13.319,14.759 3.637,4.068 6.192,7.021 8.496,9.685 2.196,2.521 3.601,4.285 5.04,5.832 1.404,1.513 2.412,2.521 3.313,3.313 0.864,0.756 1.332,1.008 1.691,1.043 l 0,0 c 3.168,-2.809 6.372,-5.618 9.576,-8.425 l 0,0 z"
   id="path27"
   inkscape:connector-curvature="0"
   style="fill:#ffffff" />
	<path
   stroke-miterlimit="10"
   d="m 166.927,76.053 c -0.936,-1.26 -1.69,-2.52 -2.123,-3.924 -0.505,-1.512 -0.433,-3.131 -0.611,-4.428 -0.288,-1.367 -0.469,-2.16 -0.938,-3.203 -0.575,-1.188 -1.08,-2.306 -2.34,-3.351 -1.296,-1.149 -2.23,-2.412 -5.436,-3.096 -3.385,-0.791 -6.518,-1.043 -14.257,-1.152 -7.885,-0.069 -22.212,0.435 -32.292,0.828 -10.332,0.289 -20.375,0.504 -28.332,1.045 -7.956,0.396 -14.257,0.828 -18.612,1.691 -4.32,0.756 -5.724,1.549 -7.416,3.348 -1.872,1.836 -3.024,4.824 -3.313,7.164 -0.396,2.271 0.612,4.142 1.513,5.904 0.828,1.621 2.088,2.736 3.636,3.637 l 0,0 c -0.612,1.226 -0.072,1.943 1.62,2.558 1.548,0.395 3.528,0.61 8.46,0.646 5.004,0 11.844,-0.324 21.096,-0.395 9.216,-0.217 25.164,-0.289 33.408,-0.217 7.992,0.106 9.72,0.252 14.508,0.576 4.646,0.18 10.116,0.287 13.646,0.323 3.42,-0.18 5.362,-0.36 7.198,-0.827 1.802,-0.47 3.133,-1.261 3.854,-1.837 0.684,-0.721 0.684,-1.477 0.144,-2.268 l 0,0 0.686,-0.687 0,0 c 0.358,0.504 0.684,0.938 1.115,1.297 0.433,0.359 0.827,0.433 1.332,0.611 l 0,0 c 0.323,0.684 0.973,1.404 1.655,2.305 0.721,0.828 1.478,1.729 2.664,2.699 1.116,0.9 2.7,1.945 3.924,2.557 1.116,0.504 1.98,0.611 2.736,0.611 0.647,-0.072 1.044,-0.432 1.188,-0.936 l 0,0 c 0.323,-0.035 0.575,-0.359 0.757,-0.684 0.144,-0.396 0.252,-0.937 0.18,-1.621 -0.36,-0.826 -0.72,-2.123 -1.477,-3.06 -0.792,-1.117 -1.907,-2.017 -2.809,-2.844 -0.936,-0.687 -1.908,-1.298 -2.771,-1.693 -0.937,-0.531 -1.801,-1.109 -2.593,-1.577 l 0,0 z m 0.18,2.807 c -0.108,0.107 -0.108,0.324 -0.288,0.505 -0.108,0.145 -0.396,0.396 -0.576,0.61 l 0,0 c 0.18,0.469 0.612,1.152 1.44,1.908 0.756,0.684 2.446,2.16 3.274,2.773 0.686,0.504 0.9,0.719 1.478,0.936 0.574,0.215 1.224,0.287 1.942,0.359 l 0,0 c -0.036,-0.539 -0.323,-1.115 -0.863,-1.871 -0.647,-0.756 -1.729,-2.018 -2.557,-2.664 -0.864,-0.793 -1.8,-1.404 -2.412,-1.836 -0.609,-0.433 -1.186,-0.72 -1.438,-0.72 l 0,0 z m -2.339,-2.446 c -0.288,-0.183 -0.505,-0.217 -0.793,-0.108 -0.433,0.071 -0.721,0.288 -0.863,0.647 -0.181,0.217 -0.146,0.647 -0.036,1.008 l 0,0 c 0.072,-0.358 0.18,-0.576 0.324,-0.647 0.071,-0.144 0.18,-0.144 0.323,0 l 0,0 c 0.071,-0.252 0.252,-0.396 0.396,-0.576 0.144,-0.18 0.36,-0.289 0.649,-0.324 l 0,0 z m 0.647,2.051 c 0.072,-0.18 0.252,-0.323 0.252,-0.432 0.072,-0.218 -0.036,-0.359 -0.036,-0.576 l 0,0 c -0.252,0.146 -0.323,0.252 -0.358,0.469 -0.038,0.141 -0.038,0.324 0.142,0.539 l 0,0 z"
   id="path29"
   inkscape:connector-curvature="0"
   style="stroke:#000000;stroke-width:0.036;stroke-miterlimit:10" />
	<path
   stroke-miterlimit="10"
   d="m 167.431,77.961 c 0.505,0.037 1.044,0.217 1.907,0.685 0.792,0.434 1.908,1.008 2.916,1.873 0.938,0.791 1.872,1.942 2.521,2.879 0.576,0.793 0.611,1.549 0.792,2.125 0.106,0.432 0.071,0.756 -0.252,0.828 -0.504,0.071 -1.584,-0.181 -2.27,-0.324 -0.72,-0.324 -1.224,-0.359 -1.907,-0.937 -0.937,-0.647 -1.979,-1.621 -2.699,-2.231 -0.721,-0.576 -1.009,-0.828 -1.404,-1.297 -0.647,-0.756 -1.152,-1.584 -1.512,-2.195 -0.434,-0.539 -0.612,-0.863 -0.54,-1.115 -0.036,-0.396 0.216,-0.756 0.611,-1.08 l 0,0 c -0.145,-0.289 -0.253,-0.361 -0.323,-0.504 -0.072,-0.072 -0.324,-0.217 -0.36,-0.145 l 0,0 c -0.396,0.035 -0.647,0.252 -0.756,0.504 -0.181,0.18 -0.324,0.432 -0.145,0.899 0.107,0.359 0.396,1.152 0.863,1.837 0.36,0.61 0.938,1.547 1.584,2.268 0.504,0.721 1.152,1.115 1.944,1.871 0.756,0.721 1.584,1.369 2.628,2.09 1.008,0.539 2.52,1.078 3.42,1.33 0.828,0.037 1.116,-0.07 1.548,-0.322 0.324,-0.289 0.36,-0.648 0.504,-0.938 0.108,-0.287 -0.071,-0.576 -0.144,-1.009 -0.216,-0.646 -0.504,-1.366 -0.864,-2.016 -0.36,-0.685 -0.864,-1.261 -1.368,-1.871 -0.646,-0.687 -1.368,-1.332 -2.016,-1.801 -0.828,-0.611 -1.62,-1.009 -2.232,-1.332 -0.468,-0.396 -1.008,-0.47 -1.224,-0.611 -0.504,-0.18 -0.792,-0.289 -1.26,-0.323 l 0,0 c 0,0.215 0.07,0.396 0.07,0.539 -0.032,0.143 0.004,0.252 -0.032,0.323 l 0,0 z"
   id="path31"
   inkscape:connector-curvature="0"
   style="fill:#ffffff;stroke:#000000;stroke-width:0.036;stroke-miterlimit:10" />
	<path
   stroke-miterlimit="10"
   d="m 167.287,78.683 c 0.288,0 0.72,0.18 1.296,0.539 0.54,0.288 1.116,0.793 1.872,1.368 0.576,0.611 1.368,1.188 1.944,1.871 0.575,0.541 0.863,1.08 1.26,1.478 0.252,0.396 0.468,0.61 0.647,1.043 0.145,0.396 0.253,0.612 0.323,1.045 l 0,0 c 0.146,0.106 0.36,0.072 0.504,0.035 0.072,-0.144 0.253,-0.035 0.253,-0.359 -0.071,-0.324 -0.217,-0.936 -0.433,-1.439 -0.324,-0.684 -0.828,-1.26 -1.224,-1.873 -0.434,-0.611 -0.938,-1.008 -1.368,-1.475 -0.686,-0.434 -1.26,-1.189 -1.872,-1.441 -0.612,-0.324 -1.044,-0.719 -1.44,-0.791 -0.575,-0.18 -0.827,-0.432 -1.15,-0.469 -0.216,-0.107 -0.504,-0.145 -0.469,-0.107 l 0,0 c -0.034,0.177 -0.071,0.357 -0.143,0.575 l 0,0 z"
   id="path33"
   inkscape:connector-curvature="0"
   style="fill:#ffffff;stroke:#000000;stroke-width:0.036;stroke-miterlimit:10" />
	<path
   stroke-miterlimit="10"
   d="m 175.459,87.537 c -0.252,0.358 -0.54,0.541 -0.863,0.685 -0.396,0.108 -0.685,0.036 -1.297,-0.072 -0.862,-0.181 -1.764,-0.611 -2.844,-1.15 -1.116,-0.686 -2.448,-1.801 -3.42,-2.664 -1.044,-1.045 -1.836,-1.908 -2.376,-2.736 -0.576,-0.756 -1.008,-1.438 -1.152,-1.908 -0.216,-0.575 -0.358,-1.08 -0.287,-1.368 -0.107,-0.433 0.107,-0.433 0.217,-0.539 0.07,-0.146 0.18,-0.218 0.322,-0.218 l 0,0 c -0.106,0.037 -0.07,0.504 0.253,1.011 0.181,0.432 0.792,1.618 1.296,2.303 0.469,0.647 1.009,1.404 1.619,1.979 0.434,0.504 0.793,0.791 1.478,1.404 0.646,0.504 1.512,1.367 2.448,1.908 0.792,0.467 1.8,0.863 2.628,1.188 0.682,0.248 1.474,0.214 1.978,0.177 l 0,0 z"
   id="path35"
   inkscape:connector-curvature="0"
   style="fill:#ffffff;stroke:#000000;stroke-width:0.036;stroke-miterlimit:10" />
	<path
   stroke-miterlimit="10"
   d="m 164.515,71.914 c 0.071,0.576 0.359,0.971 0.575,1.584 0.182,0.576 0.576,0.971 0.9,1.584 0.252,0.467 0.72,1.149 0.972,1.619 0.182,0.396 0.217,0.61 0.252,1.045 0,0.252 -0.144,0.719 -0.288,1.008 -0.18,0.287 -0.504,0.611 -0.827,0.972 l 0,0 -0.575,-1.08 0,0 c 0.216,-0.287 0.358,-0.468 0.432,-0.828 -0.072,-0.396 -0.18,-0.826 -0.324,-1.15 -0.144,-0.361 -0.432,-0.648 -0.72,-0.721 -0.36,-0.107 -1.08,0 -1.332,0.18 -0.324,0.107 -0.576,0.396 -0.612,0.721 -0.18,0.252 -0.18,0.719 -0.144,1.008 -0.072,0.252 0.072,0.504 0.144,0.611 l 0,0 c -0.07,0.217 -0.106,0.396 0.036,0.684 0.072,0.252 0.217,0.613 0.434,0.938 l 0,0 c -0.434,-0.146 -0.938,-0.36 -1.226,-0.647 -0.358,-0.396 -0.646,-0.685 -0.863,-1.26 l 0,0 c 0.359,-0.396 0.647,-0.685 1.009,-1.152 0.323,-0.469 0.468,-0.973 0.828,-1.512 0.18,-0.613 0.574,-1.439 0.791,-1.945 0.214,-0.579 0.394,-1.226 0.538,-1.659 l 0,0 z"
   id="path37"
   inkscape:connector-curvature="0"
   style="fill:#ffffff;stroke:#000000;stroke-width:0.036;stroke-miterlimit:10" />
	<path
   stroke-miterlimit="10"
   d="m 160.123,79.33 c 0.252,0.252 0.36,0.61 0.324,0.937 -0.036,0.324 -0.18,0.756 -0.72,1.151 -0.722,0.433 -1.549,0.897 -3.024,1.401 -1.62,0.255 -3.636,0.47 -5.76,0.648 -2.124,0.109 -4.752,0.217 -6.624,0.18 -1.98,-0.106 -3.24,-0.143 -4.896,-0.252 -1.69,-0.106 -3.672,-0.252 -5.544,-0.432 l 0,0 c 3.528,0.037 6.806,0 9.974,-0.107 3.168,-0.106 6.516,-0.358 8.928,-0.61 2.195,-0.361 3.492,-0.722 4.716,-1.226 1.222,-0.467 2.05,-1.08 2.626,-1.69 l 0,0 z"
   id="path39"
   inkscape:connector-curvature="0"
   style="fill:#ffffff;stroke:#000000;stroke-width:0.036;stroke-miterlimit:10" />
	<path
   stroke-miterlimit="10"
   d="m 164.011,72.381 c -0.181,0.433 -0.323,0.937 -0.433,1.369 -0.216,0.396 -0.396,0.828 -0.54,1.295 -0.144,0.361 -0.468,0.685 -0.576,0.974 l 0,0 -3.672,-0.289 0.288,-3.707 0,0 c 1.621,0.106 3.277,0.212 4.933,0.358 l 0,0 z"
   id="path41"
   inkscape:connector-curvature="0"
   style="fill:#ffffff;stroke:#000000;stroke-width:0.036;stroke-miterlimit:10" />
	<path
   stroke-miterlimit="10"
   d="m 56.767,80.983 c -0.181,0.109 -0.181,0.324 -0.145,0.507 -0.036,0.215 -0.036,0.395 0.396,0.684 0.396,0.287 0.936,0.396 2.016,0.72 0.972,0.108 2.376,0.323 4.068,0.36 1.655,0.035 3.744,0 6.12,0.035 2.376,-0.035 5.04,-0.146 8.136,-0.181 l 0,0 c -2.017,-0.18 -4.284,-0.323 -6.66,-0.432 -2.484,-0.109 -5.94,-0.252 -7.74,-0.289 -1.8,-0.215 -2.376,-0.215 -3.275,-0.432 -1.044,-0.25 -2.016,-0.574 -2.916,-0.972 l 0,0 z"
   id="path43"
   inkscape:connector-curvature="0"
   style="fill:#ffffff;stroke:#000000;stroke-width:0.036;stroke-miterlimit:10" />
	<path
   stroke-miterlimit="10"
   d="m 162.175,76.449 c -0.575,0.684 -1.15,1.188 -1.871,1.907 -0.721,0.685 -1.261,1.188 -2.447,1.908 -1.261,0.433 -2.845,1.226 -5.292,1.547 -2.736,0.289 -6.732,0.435 -10.044,0.576 -3.35,0.037 -4.717,0.146 -9.792,0.18 -5.222,0.037 -14.005,-0.143 -20.952,0 -7.057,-0.069 -15.372,0.183 -20.664,0.218 -5.256,-0.035 -7.668,0 -10.729,-0.035 -3.203,-0.072 -5.579,-0.324 -8.1,-0.36 -2.484,-0.144 -4.824,-0.216 -7.02,-0.359 -2.376,-0.217 -5.328,-0.432 -7.057,-0.937 -1.872,-0.756 -2.808,-1.692 -3.779,-2.809 -1.08,-1.188 -1.765,-2.521 -2.196,-3.853 -0.396,-1.404 -0.648,-2.592 -0.36,-3.996 0.072,-1.512 0.864,-2.844 1.548,-4.141 0.648,-1.367 1.729,-2.484 2.845,-3.348 1.008,-0.9 2.124,-1.225 3.924,-1.656 1.728,-0.539 4.284,-0.936 6.84,-1.188 2.484,-0.289 5.076,-0.359 8.316,-0.504 3.203,-0.218 6.588,-0.359 10.979,-0.576 4.356,-0.289 9.648,-0.504 14.904,-0.648 5.075,-0.215 9.756,-0.324 15.982,-0.467 6.229,-0.252 15.876,-0.469 21.024,-0.504 4.932,-0.146 6.408,0.035 8.892,0.143 2.484,0.109 3.78,0.145 5.688,0.504 1.728,0.217 3.384,0.576 4.968,1.369 1.476,0.828 2.808,2.088 3.853,3.383 0.827,1.189 1.403,2.34 1.729,3.603 0.288,1.188 0.396,2.481 0.468,3.454 0.072,0.9 0.145,1.404 0.072,1.802 l 0,0 -5.364,-0.396 -0.396,5.075 0,0 c 1.331,0.036 2.663,0.073 4.031,0.108 l 0,0 z"
   id="path45"
   inkscape:connector-curvature="0"
   style="fill:#ffffff;stroke:#000000;stroke-width:0.036;stroke-miterlimit:10" />
</g>
<g
   id="g2945"
   transform="matrix(-0.03880094,0.46553302,-0.46553302,-0.03880094,265.37204,-115.83633)"><g
     id="g2916"
     style="fill:#ffffff;fill-opacity:1;stroke:#000000;stroke-opacity:1" /><g
     transform="translate(-10.756764,-7.572394)"
     id="g2921"
     style="fill:#ffffff;fill-opacity:1;stroke:#000000;stroke-opacity:1" /><g
     transform="translate(-21.767947,-15.396129)"
     id="g2929"
     style="fill:#ffffff;fill-opacity:1;stroke:#000000;stroke-opacity:1" /><g
     transform="translate(-33.068898,-22.930096)"
     id="g2937"
     style="fill:#ffffff;fill-opacity:1;stroke:#000000;stroke-opacity:1"><path
       style="fill:#ffffff;fill-opacity:1;fill-rule:evenodd;stroke:#000000;stroke-width:0.63313657;stroke-opacity:1"
       d="m 457.23233,411.75921 c 0.10553,0.43689 1.13313,1.633 2.07171,1.39986 1.5726,-0.39064 4.96261,-3.72511 5.68743,-3.15159 1.44117,1.14033 0.0777,4.54912 -0.15467,6.30301 0.55561,-0.0727 1.48564,-0.047 2.0541,-0.34121 0.36454,-0.18864 0.73205,-0.43069 1.09035,-0.68589 -0.003,-0.0385 -0.003,-0.0941 -0.0106,-0.12662 -0.0742,-0.30703 -1.76485,1.1755 -1.59333,0.77031 0.55977,-1.32232 1.77716,-6.40061 -0.32721,-7.49536 -2.10108,-1.09305 -4.14618,1.65718 -6.31352,2.77875 -0.84609,0.43784 -2.59967,0.15394 -2.50431,0.54874 z m 10.74892,3.52418 c -0.15423,1.1599 -0.66132,1.91781 -1.44205,2.58524 1.6045,-0.47725 4.89363,-3.66642 5.60653,-3.10234 1.48501,1.17502 0.0234,4.77473 -0.1406,6.47184 0.56893,-0.0493 1.38321,-0.0673 1.88527,-0.32713 0.4281,-0.22154 0.82892,-0.51955 1.24863,-0.82659 -0.002,-0.0537 -0.004,-0.12541 -0.0141,-0.16883 -0.0742,-0.30703 -1.76485,1.1755 -1.59333,0.77031 0.55977,-1.32232 1.77716,-6.40061 -0.32721,-7.49536 -1.74768,-0.9092 -3.45123,0.83083 -5.22317,2.09286 z m 7.15778,4.80102 c 0.0273,0.59561 -0.42441,1.75221 -0.92854,2.11743 -0.45486,0.32954 -0.51542,1.07206 -2.0928,-0.12308 -0.16836,-0.12756 -0.15135,-0.43939 -0.11256,-0.84063 -0.38985,0.0338 -0.69651,0.1068 -0.65773,0.26733 0.10553,0.43689 1.12961,1.59079 2.06819,1.35765 1.5726,-0.39064 4.96261,-3.72511 5.68743,-3.15159 1.42877,1.13051 0.0949,4.53557 -0.15467,6.30301 0.55813,-0.0418 1.25389,-0.0737 1.71644,-0.31306 0.45817,-0.2371 0.92658,-0.50552 1.37525,-0.83714 -0.21756,-0.13027 -1.71406,1.15172 -1.55112,0.76679 0.55977,-1.32232 1.81937,-6.40412 -0.285,-7.49888 -1.68606,-0.87714 -3.35975,0.70479 -5.06489,1.95217 z m 6.90101,4.77992 c 0.0114,0.007 0.0385,-0.0189 0.0422,-0.004 0.12673,0.52466 -0.32265,1.88456 -0.87226,2.28274 -0.0569,0.0412 -0.10956,0.0903 -0.15828,0.1407 1.71531,-0.95202 4.25647,-3.23015 4.87143,-2.74357 1.8361,1.45282 -0.90855,6.64534 -0.028,7.31248 1.57738,1.19513 1.67663,0.40689 2.13149,0.0773 0.54961,-0.39818 0.99899,-1.75809 0.87226,-2.28274 -0.0741,-0.30704 -1.76485,1.1755 -1.59333,0.77031 0.55977,-1.32233 1.77716,-6.40061 -0.32721,-7.49537 -1.65692,-0.86198 -3.26453,0.70453 -4.93827,1.94162 z m -0.98833,2.41992 c -0.30646,0.17009 -0.58114,0.30659 -0.81952,0.36581 0.41892,0.076 0.60993,-0.1491 0.81952,-0.36581 z m -2.10336,-1.26972 c -0.46279,0.0346 -0.82758,0.0989 -0.78435,0.27788 0.1026,0.42476 1.06812,1.51701 1.98377,1.36468 -0.25506,-0.067 -0.58935,-0.22727 -1.06926,-0.59089 -0.19534,-0.148 -0.20131,-0.54778 -0.13016,-1.05167 z m -14.11155,-9.70404 c -0.27134,0.0355 -0.4815,0.078 -0.45021,0.20753 0.0367,0.15186 0.22184,0.4039 0.43615,0.64366 -0.0703,-0.18335 -0.0311,-0.51023 0.0141,-0.85119 z m 0.12664,1.00946 c 0.26917,0.26105 0.57978,0.47275 0.93912,0.55924 -0.23615,-0.0903 -0.54478,-0.26045 -0.93912,-0.55924 z m 1.1572,0.62607 c 0.15127,0.027 0.23807,0.0144 0.33766,-0.0281 -0.10429,0.0259 -0.23294,0.034 -0.33766,0.0281 z"
       id="path2939"
       inkscape:connector-curvature="0"
       sodipodi:nodetypes="ssscscsssssccscscsssccsscssscscsscccccssscsscccccscsccscccccccc" /><text
       xml:space="preserve"
       style="font-size:24.21804237px;font-style:normal;font-variant:normal;font-weight:normal;font-stretch:normal;line-height:125%;letter-spacing:0px;word-spacing:0px;fill:#000000;fill-opacity:1;stroke:none;font-family:Futura Bk BT;-inkscape-font-specification:Futura Bk BT"
       x="-428.57971"
       y="420.97336"
       id="text4164"
       sodipodi:linespacing="125%"
       transform="matrix(-0.08305935,-0.9965446,0.9965446,-0.08305935,0,0)"><tspan
         sodipodi:role="line"
         id="tspan4166"
         x="-428.57971"
         y="420.97336">Data Stack</tspan></text>
</g></g></svg>