<?xml version="1.0" encoding="UTF-8" standalone="no"?>
<!-- Created with Inkscape (http://www.inkscape.org/) -->

<svg
   xmlns:dc="http://purl.org/dc/elements/1.1/"
   xmlns:cc="http://creativecommons.org/ns#"
   xmlns:rdf="http://www.w3.org/1999/02/22-rdf-syntax-ns#"
   xmlns:svg="http://www.w3.org/2000/svg"
   xmlns="http://www.w3.org/2000/svg"
   xmlns:sodipodi="http://sodipodi.sourceforge.net/DTD/sodipodi-0.dtd"
   xmlns:inkscape="http://www.inkscape.org/namespaces/inkscape"
   width="250"
   height="250"
   viewBox="0 0 250 250"
   id="svg2"
   version="1.1"
   inkscape:version="0.91 r13725"
   sodipodi:docname="PixelPerfect.svg">
  <defs
     id="defs4">
    <inkscape:perspective
       id="perspective3981"
       inkscape:persp3d-origin="372.04724 : 350.78739 : 1"
       inkscape:vp_z="744.09448 : 526.18109 : 1"
       inkscape:vp_y="0 : 1000 : 0"
       inkscape:vp_x="0 : 526.18109 : 1"
       sodipodi:type="inkscape:persp3d" />
  </defs>
  <sodipodi:namedview
     id="base"
     pagecolor="#ffffff"
     bordercolor="#666666"
     borderopacity="1.0"
     inkscape:pageopacity="0.0"
     inkscape:pageshadow="2"
     inkscape:zoom="2.8"
     inkscape:cx="95.088792"
     inkscape:cy="107.66852"
     inkscape:document-units="px"
     inkscape:current-layer="g4275"
     showgrid="false"
     units="px"
     inkscape:window-width="2560"
     inkscape:window-height="1651"
     inkscape:window-x="0"
     inkscape:window-y="25"
     inkscape:window-maximized="1" />
  <metadata
     id="metadata7">
    <rdf:RDF>
      <cc:Work
         rdf:about="">
        <dc:format>image/svg+xml</dc:format>
        <dc:type
           rdf:resource="http://purl.org/dc/dcmitype/StillImage" />
        <dc:title></dc:title>
      </cc:Work>
    </rdf:RDF>
  </metadata>
  <g
     inkscape:label="Layer 1"
     inkscape:groupmode="layer"
     id="layer1"
     transform="translate(0,-802.36216)">
    <path
       id="path4137"
       d="m 109.18716,811.60309 c -0.43982,0.004 -0.28057,0.60316 -0.8849,0.44216 -0.098,-0.19657 -0.19366,-0.3949 -0.44216,-0.44216 -0.0414,-1.08322 1.36906,-1.08322 1.32706,0 z m 11.05804,-0.66381 c -0.13358,-0.12717 -1.04881,-0.51741 -1.10598,0 -1.1369,1.07856 1.69455,1.77972 1.10598,0 z m 11.05804,0 c -0.13359,-0.12717 -1.04881,-0.51741 -1.1054,0 -1.13748,1.07856 1.69396,1.77972 1.1054,0 z m 9.73156,0.66381 c 0.24791,0.0473 0.34415,0.24559 0.44215,0.44216 0.60316,0.161 0.44508,-0.43865 0.88432,-0.44216 0.0414,-1.08322 -1.36789,-1.08322 -1.32647,0 z m -44.011656,-0.44215 c 0,0.14758 0,0.29517 0,0.44215 0.134747,0.0123 0.261328,0.0338 0.221079,0.22109 0.14758,0 0.294577,0 0.442158,0 0.01283,-0.13416 0.03383,-0.26074 0.221662,-0.22109 0,-0.14698 0,-0.29457 0,-0.44215 -0.134747,-0.0123 -0.261912,-0.0332 -0.221662,-0.22166 -0.147581,0 -0.294578,0 -0.442158,0 -0.01283,0.13533 -0.03267,0.26191 -0.221079,0.22166 z m 55.290766,0 c 0,0.14758 0,0.29517 0,0.44215 0.13475,0.0123 0.26133,0.0338 0.22108,0.22109 0.14758,0 0.29458,0 0.44217,0 0.0128,-0.13416 0.0338,-0.26074 0.22107,-0.22109 0,-0.14698 0,-0.29457 0,-0.44215 -0.13417,-0.0123 -0.26133,-0.0332 -0.22107,-0.22166 -0.14759,0 -0.29459,0 -0.44217,0 -0.0128,0.13533 -0.0327,0.26191 -0.22108,0.22166 z m -36.71313,5.52874 c -0.13707,-1.11766 -1.07388,-1.66773 -2.21079,-1.10599 -3.21702,1.59014 2.68154,4.91915 2.21079,1.10599 z m 11.05804,-0.66267 c -0.31499,-0.50515 -1.72312,-1.06515 -2.43187,-0.44332 -3.00002,2.30238 3.48243,4.79315 2.43187,0.44332 z m 11.05863,0.66267 c -0.13008,-1.13399 -0.99923,-1.46182 -1.9903,-1.10599 -3.60727,1.29556 2.43828,5.03057 1.9903,1.10599 z m -33.39578,0.22107 c 0,-1.20281 -0.84523,-1.49447 -1.76863,-1.10598 -2.776616,1.16781 1.76863,4.15384 1.76863,1.10598 z m 41.57862,0.22166 c 0.3144,0.42232 0.68307,0.79098 1.1054,1.10598 0.90181,-0.13067 1.41864,-0.64691 1.54872,-1.54814 -0.53083,-1.40114 -2.53804,-1.28564 -2.65412,0.44216 z m -54.848615,0.22108 c 0.248495,0.0461 0.344161,0.24557 0.442159,0.44216 0.902399,0.091 1.395889,-0.22633 1.327057,-1.10597 -0.236828,-1.06983 -2.183958,-0.78691 -1.769216,0.66381 z m 67.896945,-0.88432 c -0.13358,-0.12774 -1.0494,-0.51857 -1.10597,0 -1.13691,1.07798 1.69454,1.77914 1.10597,0 z m -77.627924,0.88432 c 0,-0.29458 0,-0.59032 0,-0.8849 -0.295161,0 -0.590322,0 -0.885483,0 -0.170914,0.76182 0.123081,1.0564 0.885483,0.8849 z m 87.579984,-0.66381 c 0,0.14815 0,0.29515 0,0.44273 0.13532,0.0123 0.2619,0.0327 0.22224,0.22108 0.147,0 0.29458,0 0.44216,0 0.0123,-0.13475 0.0333,-0.26191 0.22108,-0.22108 0,-0.14758 0,-0.29458 0,-0.44273 -0.13416,-0.0123 -0.26134,-0.0332 -0.22108,-0.22109 -0.14758,0 -0.29516,0 -0.44216,0 -0.0134,0.13533 -0.0338,0.26249 -0.22224,0.22109 z m -51.97342,4.6444 c -1.63212,5.50889 6.63996,4.4735 5.30882,0 -0.40833,-1.37197 -2.08421,-1.94538 -3.75952,-1.32647 -0.79506,0.29282 -1.39705,0.81606 -1.5493,1.32647 z m 11.0592,0.66382 c -0.68832,5.69147 8.67692,2.48495 4.64383,-1.54813 -0.45324,-0.45324 -1.50964,-0.861 -2.87519,-0.44216 -1.78672,0.54657 -1.70855,1.49097 -1.76864,1.99029 z m -17.03008,1.54813 c 0.79157,-2.35836 -1.34573,-4.23725 -3.53786,-3.31793 -4.70973,1.97513 2.17172,7.38662 3.53786,3.31793 z m 28.3092,-0.44157 c 0.55941,2.86703 5.57423,2.29945 4.86549,-1.32765 -0.22107,-1.13047 -1.12231,-2.30177 -3.31793,-1.54754 -1.24364,0.4264 -1.91563,0.99106 -1.54756,2.87519 z m -43.56891,0.66266 c 0.547155,0.77465 2.548533,0.92981 3.316769,0.22107 0.544239,-0.56057 0.576323,-2.05679 0.222245,-2.87518 -1.645552,-1.75931 -4.963487,0.0239 -3.539014,2.65411 z m 59.05028,-1.54814 c -0.0998,-1.2034 -0.7764,-2.22188 -2.65412,-1.54755 -4.56391,1.63622 3.07469,6.61895 2.65412,1.54755 z m -69.445664,1.32705 c 0.641655,0.28583 1.56972,0.28583 2.211375,0 0.286994,-0.64223 0.286994,-1.56914 0,-2.21195 -1.625136,-0.91523 -3.126607,0.58624 -2.211375,2.21195 z m 79.839294,-1.10598 c 0,-1.20339 -0.84406,-1.49388 -1.76863,-1.10597 -2.77603,1.16664 1.76863,4.15384 1.76863,1.10597 z M 76.012464,821.9979 c -0.133581,-0.12776 -1.048813,-0.51799 -1.105395,0 -1.137478,1.07914 1.693385,1.77913 1.105395,0 z m 99.523506,0 c -0.13359,-0.12776 -1.04881,-0.51799 -1.10598,0 -1.13689,1.07914 1.69513,1.77913 1.10598,0 z m -75.858711,5.08715 c -0.595572,3.17269 3.342441,5.72415 5.749821,3.31794 4.32649,-4.32767 -4.75818,-8.59992 -5.749821,-3.31794 z M 143.91,827.96936 c 0,4.60475 6.86628,4.19527 6.63411,-0.22166 -0.0992,-1.90804 -1.36381,-3.40134 -3.98058,-2.87519 -1.77796,0.35816 -2.65353,1.32589 -2.65353,3.09685 z m -54.84862,0 c 0,4.15326 5.975552,3.59269 5.749807,-0.22166 -0.09916,-1.68346 -1.130479,-2.9866 -3.538432,-2.43245 -1.591886,0.36691 -2.211375,1.19873 -2.211375,2.65411 z m 66.57047,-0.44215 c -0.68832,5.6909 8.67692,2.48436 4.64382,-1.54813 -0.45324,-0.45325 -1.50905,-0.86041 -2.87519,-0.44217 -1.7873,0.54658 -1.70913,1.49098 -1.76863,1.9903 z m -72.763601,0.22049 c -0.09975,-1.20281 -0.776401,-2.22128 -2.654115,-1.54813 -4.563913,1.63739 3.075274,6.62071 2.654115,1.54813 z m 84.705961,1.10598 c 1.68287,2.65295 5.30647,-0.97065 2.65411,-2.65411 -0.52849,0.13532 -1.60473,-0.27709 -1.7698,0.22108 -0.84407,0.26133 -1.00506,1.20689 -0.88431,2.43303 z m -96.869392,-1.76863 c -1.276893,-0.76124 -2.530453,0.49291 -1.769217,1.76863 1.275725,0.76124 2.530452,-0.49231 1.769217,-1.76863 z m 109.032812,1.76863 c 0.58799,-0.003 1.26406,0.084 1.54873,-0.22108 0,-0.44215 0,-0.8849 0,-1.32647 -1.09665,-0.92048 -2.46804,0.45149 -1.54873,1.54755 z M 58.319138,827.7477 c 0,0.14817 0,0.29517 0,0.44275 0.134164,0.0123 0.261329,0.0327 0.221079,0.22107 0.147581,0 0.295162,0 0.442159,0 0.01284,-0.13474 0.03383,-0.2619 0.222246,-0.22107 0,-0.14758 0,-0.29458 0,-0.44275 -0.135331,-0.0123 -0.261912,-0.0332 -0.222246,-0.22107 -0.146997,0 -0.294578,0 -0.442159,0 -0.01225,0.13533 -0.03267,0.26249 -0.221079,0.22107 z m 132.698782,0 c 0,0.14817 0,0.29517 0,0.44275 0.13416,0.0123 0.26191,0.0327 0.22108,0.22107 0.14699,0 0.29458,0 0.44216,0 0.0123,-0.13474 0.0332,-0.2619 0.22166,-0.22107 0,-0.14758 0,-0.29458 0,-0.44275 -0.13475,-0.0123 -0.26192,-0.0332 -0.22166,-0.22107 -0.14758,0 -0.29517,0 -0.44216,0 -0.0128,0.13533 -0.0332,0.26249 -0.22108,0.22107 z m -27.20381,2.43363 c -2.3677,0 -4.61232,3.56934 -2.43304,5.74922 4.484,4.48399 8.814,-5.74922 2.43304,-5.74922 z m -90.013019,5.52873 c 3.783427,2.52928 5.930053,-5.17524 1.326474,-4.64442 -2.526951,0.29166 -3.162773,3.41652 -1.326474,4.64442 z m 99.302419,-0.44217 c 3.52618,3.52677 6.22404,-5.03407 1.32648,-3.98117 -1.88588,0.406 -2.7282,2.58004 -1.32648,3.98117 z M 63.185211,834.60407 c 0.641655,0.28583 1.568554,0.28583 2.211375,0 0.286412,-0.64223 0.286412,-1.56913 0,-2.21195 -1.625719,-0.91523 -3.12719,0.58623 -2.211375,2.21195 z M 187.25782,833.4981 c 0,-1.2034 -0.84523,-1.4939 -1.7698,-1.10598 -2.77544,1.16723 1.7698,4.15383 1.7698,1.10598 z m -133.582509,0.44332 c 0,-0.29516 0,-0.59032 0,-0.88548 -0.294578,0 -0.590321,0 -0.884899,0 -0.172081,0.7624 0.123081,1.05698 0.884899,0.88548 z m 143.755649,0 c 0,-0.29516 0,-0.59032 0,-0.88548 -0.29458,0 -0.58916,0 -0.88489,0 -0.17151,0.7624 0.12366,1.05698 0.88489,0.88548 z m -130.485655,4.20166 c -1.213892,5.47799 6.764204,4.55517 5.749807,0 -0.390243,-1.75404 -1.898714,-2.30004 -3.759511,-1.76921 -1.306641,0.37216 -1.88238,1.27748 -1.990296,1.76921 z m 110.802615,-0.22107 c -1.63213,5.50831 6.63995,4.47291 5.30765,0 -0.40775,-1.37197 -2.08304,-1.94538 -3.75951,-1.32706 -0.7939,0.29225 -1.39706,0.81666 -1.54814,1.32706 z m -117.217407,0.8849 c -0.08575,-0.85865 -0.657988,-1.58606 -1.990296,-1.32764 -4.737159,0.92106 2.45112,5.91955 1.990296,1.32764 z m 132.477697,0 c -0.13008,-1.13456 -0.99923,-1.46122 -1.99029,-1.10598 -3.60726,1.2944 2.43828,5.0294 1.99029,1.10598 z m -145.968188,0.44158 c 0.248495,0.0473 0.344744,0.24557 0.442742,0.44215 0.603155,0.161 0.445658,-0.43924 0.885482,-0.44215 0.04025,-1.08266 -1.369639,-1.08266 -1.328224,0 z m 155.920248,0.22107 c 0,-0.29457 0,-0.58974 0,-0.8849 -0.29575,0 -0.59032,0 -0.8849,0 -0.17149,0.76182 0.12367,1.0564 0.8849,0.8849 z m -141.765938,3.98059 c -1.581385,6.22755 7.455441,4.97225 6.192548,0 -0.432824,-1.70504 -2.277289,-2.36945 -4.201669,-1.76863 -1.17481,0.36575 -1.838048,1.16781 -1.990879,1.76863 z m 121.639578,1.10598 c 0,4.18242 6.40079,3.91001 6.19255,-0.22108 -0.0828,-1.64788 -1.26873,-3.01461 -3.53844,-2.65353 -1.72022,0.27358 -2.65411,1.17482 -2.65411,2.87461 z m -131.370555,0.88549 c 2.819778,3.67375 5.508309,-3.8826 0.885482,-2.43304 -0.845235,0.26133 -1.005647,1.2069 -0.885482,2.43304 z m 144.198975,0.22049 c 1.45655,1.28973 3.76884,-0.27299 2.65411,-2.21196 -1.45772,-1.28914 -3.77001,0.27358 -2.65411,2.21196 z M 41.511296,844.77838 c 0.248495,0.0461 0.344159,0.24499 0.442158,0.44215 0.603738,0.16043 0.445074,-0.43982 0.8849,-0.44215 0.04083,-1.0844 -1.368475,-1.0844 -1.327058,0 z M 208.489,844.99946 c 0,-0.29516 0,-0.59033 0,-0.88549 -0.29458,0 -0.58915,0 -0.88432,0 -0.17149,0.76241 0.12309,1.05699 0.88432,0.88549 z m -18.13548,8.18284 c 5.45406,1.39297 5.53222,-7.73135 0,-5.97147 -2.82153,0.89715 -2.55321,5.31932 0,5.97147 z M 49.030901,851.63358 c 1.340474,-1.12231 0.248495,-3.6411 -1.548137,-3.31793 -3.907091,0.70406 -0.461408,4.99965 1.548137,3.31793 z m 152.602899,0 c 2.52111,0.76532 3.00294,-2.04047 1.76863,-3.09569 -2.52229,-0.76532 -3.00294,2.04045 -1.76863,3.09569 z M 35.981986,850.30652 c 0.248495,0.0472 0.344159,0.24558 0.443324,0.44275 0.602571,0.16099 0.445075,-0.43984 0.884317,-0.44275 0.04083,-1.08265 -1.369641,-1.08265 -1.327641,0 z M 214.0183,850.5276 c 0,-0.29457 0,-0.58974 0,-0.88431 -0.29457,0 -0.58973,0 -0.88489,0 -0.1715,0.76123 0.12366,1.05581 0.88489,0.88431 z m -20.12576,3.98118 c -1.58139,6.22696 7.45542,4.97165 6.19312,0 -0.43341,-1.70564 -2.27728,-2.36946 -4.20225,-1.76923 -1.17539,0.36575 -1.83746,1.16782 -1.99087,1.76923 z M 40.4059,856.27857 c 0.939149,2.93003 5.69089,-0.28815 2.653533,-2.43303 -2.238791,-0.43283 -3.078774,1.10948 -2.653533,2.43303 z m 169.18908,-0.88548 c -0.13767,-1.11706 -1.07448,-1.66772 -2.21195,-1.10597 -3.21529,1.59071 2.68268,4.91973 2.21195,1.10597 z m -178.036328,0.6644 c 0,-0.29516 0,-0.59031 0,-0.88549 -0.295161,0 -0.590322,0 -0.8849,0 -0.170912,0.76241 0.123665,1.05699 0.8849,0.88549 z m 187.104068,-0.6644 c 0,0.14817 0,0.29575 0,0.44332 0.13417,0.0123 0.26191,0.0327 0.22108,0.22108 0.14758,0 0.29516,0 0.44215,0 0.0128,-0.13533 0.0338,-0.2619 0.22225,-0.22108 0,-0.14757 0,-0.29515 0,-0.44332 -0.13534,-0.0123 -0.26191,-0.0327 -0.22225,-0.22109 -0.14699,0 -0.29457,0 -0.44215,0 -0.0116,0.13593 -0.0327,0.26193 -0.22108,0.22109 z m -19.24088,5.5299 c -0.26833,5.06906 6.63471,3.97417 6.19254,-0.22109 -0.18199,-1.73012 -1.37955,-3.14235 -3.98058,-2.43303 -1.62164,0.44215 -2.15071,1.50964 -2.21196,2.65412 z M 38.193942,860.25916 c -0.31616,-0.50457 -1.724299,-1.06398 -2.433036,-0.44215 -2.999444,2.3012 3.482433,4.79257 2.433036,0.44215 z m 174.054568,0.66383 c -0.56583,4.26408 5.99888,-1.59539 0.66441,-0.88491 -0.60375,0.40891 -0.58683,0.30741 -0.66441,0.88491 z m -187.104068,0 c 0,0.14758 0,0.29457 0,0.44215 0.135331,0.0128 0.261913,0.0338 0.221079,0.22166 0.147581,0 0.295161,0 0.443325,0 0.01225,-0.13474 0.03267,-0.26191 0.22108,-0.22166 0,-0.14758 0,-0.29457 0,-0.44215 -0.135331,-0.0123 -0.261913,-0.0338 -0.22108,-0.22109 -0.148164,0 -0.295744,0 -0.443325,0 -0.01166,0.13417 -0.03208,0.26192 -0.221079,0.22109 z m 13.933818,4.64382 c -1.58197,6.22754 7.455438,4.97282 6.192547,0 -0.433409,-1.70563 -2.276706,-2.36887 -4.202253,-1.76863 -1.174227,0.36632 -1.837465,1.16723 -1.990294,1.76863 z m 166.09396,0.88549 c -0.25957,4.90691 6.43697,3.67842 5.74981,-0.44334 -0.23215,-1.39355 -1.2903,-2.70777 -3.76009,-1.98971 -1.55338,0.4515 -1.93429,1.37723 -1.98972,2.43305 z m -175.382784,0 c -0.566989,4.26408 5.998303,-1.59656 0.663821,-0.88549 -0.604322,0.40949 -0.587405,0.30799 -0.663821,0.88549 z m 190.200934,-0.66441 c -1.27632,-0.76123 -2.53104,0.49349 -1.76981,1.76981 1.27631,0.76064 2.53045,-0.49233 1.76981,-1.76981 z m -186.219759,6.19313 c -0.259578,4.90808 6.436959,3.67843 5.749807,-0.44216 -0.232163,-1.39414 -1.290309,-2.70777 -3.759512,-1.99087 -1.55397,0.4509 -1.934879,1.37781 -1.990295,2.43303 z m 177.151999,0.44216 c 0.22108,3.3716 5.53923,3.08402 5.30824,-0.44275 -0.0933,-1.42563 -1.05056,-2.59811 -3.09686,-2.21195 -1.53472,0.29107 -2.32337,0.95898 -2.21138,2.6547 z m -186.440821,0 c 0.283494,1.22031 2.367703,1.10598 2.211957,-0.44275 -0.284662,-1.21913 -2.368288,-1.10539 -2.211957,0.44275 z m 199.268081,0 c 2.43712,2.30295 1.33814,-3.20361 0,0 l 0,0 z m -195.066413,5.97205 c 0.560573,2.86702 5.573645,2.29887 4.866075,-1.32764 -0.221081,-1.13047 -1.122313,-2.30179 -3.317938,-1.54755 -1.244226,0.42699 -1.91563,0.99106 -1.548137,2.87519 z m 188.210623,-0.66382 c 0,2.82328 4.687,3.00294 4.42276,-0.22108 -0.13008,-1.58839 -1.32123,-2.07721 -2.65412,-1.7698 -1.57672,0.364 -1.76864,1.28973 -1.76864,1.99088 z M 20.721694,877.28926 c -0.134164,-0.12775 -1.049397,-0.51858 -1.105978,0 -1.136896,1.07856 1.693967,1.77854 1.105978,0 z m 209.884546,0.88431 c 0,-0.29516 0,-0.58974 0,-0.88431 -0.29575,0 -0.59032,0 -0.88549,0 -0.17149,0.76123 0.12309,1.0558 0.88549,0.88431 z m -203.028762,4.86549 c -0.109081,-1.33056 -1.226143,-1.86838 -2.433036,-1.54755 -4.83749,1.28447 2.857112,6.72803 2.433036,1.54755 z m 195.730232,1.32764 c 1.45655,1.28856 3.76885,-0.27357 2.65353,-2.21196 -1.45655,-1.28972 -3.76942,0.27299 -2.65353,2.21196 z M 14.086405,883.03906 c 0,0.14816 0,0.29457 0,0.44274 0.135331,0.0123 0.261912,0.0332 0.221079,0.22108 0.147581,0 0.295161,0 0.443325,0 0.01225,-0.13475 0.03267,-0.26191 0.221079,-0.22108 0,-0.14817 0,-0.29458 0,-0.44274 -0.135331,-0.0123 -0.261912,-0.0327 -0.221079,-0.22109 -0.148164,0 -0.295744,0 -0.443325,0 -0.01167,0.13475 -0.03208,0.26192 -0.221079,0.22109 z m 13.712153,5.30823 c -0.274161,2.9417 3.868591,5.32807 5.97147,2.65353 3.715762,-4.72491 -5.46048,-8.13676 -5.97147,-2.65353 z m 188.211212,0.44215 c 0,4.39592 6.40604,3.89018 6.19196,-0.22107 -0.0957,-1.8293 -1.25181,-3.1966 -3.75951,-2.65412 -1.7138,0.371 -2.43245,1.18998 -2.43245,2.87519 z M 18.731399,888.56837 c -0.566989,4.26408 5.998301,-1.59598 0.663237,-0.88548 -0.603738,0.41007 -0.586822,0.30799 -0.663237,0.88548 z m 210.326131,0.44216 c 0.28406,1.2203 2.36828,1.10598 2.21195,-0.44216 -0.28408,-1.22032 -2.36771,-1.10598 -2.21195,0.44216 z m -206.124462,4.86548 c -0.687737,5.69207 8.6775,2.48554 4.64441,-1.54755 -0.453241,-0.45324 -1.509054,-0.86098 -2.875194,-0.44215 -1.786716,0.54657 -1.708551,1.49039 -1.769216,1.9897 z m 199.931322,2.21197 c 3.52676,3.52617 6.22462,-5.03466 1.32705,-3.9806 -1.88529,0.40541 -2.72702,2.57945 -1.32705,3.9806 z M 15.192967,893.87601 c -0.134164,-0.12716 -1.049396,-0.5174 -1.105979,0 -1.138061,1.07798 1.693968,1.77972 1.105979,0 z m 219.836023,0.66324 c 0.24849,0.0472 0.34473,0.24559 0.44274,0.44216 0.60315,0.161 0.44508,-0.43866 0.8849,-0.44216 0.0408,-1.08264 -1.36848,-1.08264 -1.32764,0 z m -216.961411,5.52989 c 0.233328,2.83029 5.61389,1.91156 3.75951,-1.32763 -0.287578,-0.50224 -1.092562,-0.96132 -2.210791,-0.66324 -1.600052,0.42699 -1.610551,1.24597 -1.548719,1.99087 z m 210.768861,0.88433 c 1.45656,1.28972 3.76943,-0.273 2.6547,-2.21196 -1.45714,-1.28973 -3.76943,0.27299 -2.6547,2.21196 z M 8.5576782,899.6264 c 0,0.147 0,0.29458 0,0.44274 0.1347474,0.0123 0.2619117,0.0327 0.2216625,0.22109 0.1475805,0 0.2945776,0 0.4421581,0 0.01225,-0.13475 0.033833,-0.26191 0.2210791,-0.22109 0,-0.14816 0,-0.29574 0,-0.44274 -0.1347474,-0.0123 -0.2619116,-0.0332 -0.2210791,-0.22107 -0.1475805,0 -0.2945776,0 -0.4421581,0 -0.013416,0.13533 -0.033833,0.26191 -0.2216625,0.22107 z m 17.2511678,9.06775 c 3.94909,-0.20358 4.166086,-7.15795 -0.664404,-6.41422 -4.413415,0.68016 -2.836694,6.59447 0.664404,6.41422 z m 195.950734,-3.75952 c -0.60433,5.13382 6.45737,4.02609 5.7498,-0.22165 -0.23391,-1.4029 -1.29205,-2.70721 -3.75951,-1.98972 -1.4758,0.42816 -1.89114,1.37139 -1.99029,2.21137 z m -207.894254,1.54814 c 1.41164,0.231 2.001962,-0.35757 1.769216,-1.76979 -1.163728,-1.4659 -3.235104,0.60548 -1.769216,1.76979 z m 220.942584,-0.6644 c 0.24849,0.0472 0.34416,0.24616 0.44273,0.44333 0.90241,0.091 1.39532,-0.2275 1.32648,-1.10599 -0.23741,-1.06981 -2.18395,-0.78748 -1.76921,0.66266 z m -216.519836,6.85637 c 3.527349,3.52677 6.22463,-5.03408 1.327642,-3.98059 -1.886464,0.40541 -2.727615,2.57944 -1.327642,3.98059 z m 213.865716,-1.9903 c -0.0998,-1.20397 -0.7764,-2.22129 -2.65411,-1.54814 -4.56391,1.63739 3.07527,6.62013 2.65411,1.54814 z M 9.4419945,911.34826 c 0,-0.29458 0,-0.59032 0,-0.88489 -0.2945777,0 -0.5903219,0 -0.8848996,0 -0.1714967,0.76182 0.1236643,1.05639 0.8848996,0.88489 z M 240.77879,910.68444 c 0,0.14817 0,0.29459 0,0.44274 0.13533,0.0123 0.26191,0.0327 0.22108,0.22108 0.14758,0 0.29575,0 0.44333,0 0.0123,-0.13474 0.0327,-0.26191 0.22107,-0.22108 0,-0.14815 0,-0.29457 0,-0.44274 -0.13533,-0.0123 -0.2619,-0.0332 -0.22107,-0.22107 -0.14758,0 -0.29575,0 -0.44333,0 -0.0116,0.13532 -0.0321,0.2619 -0.22108,0.22107 z m -19.46195,5.7504 c 0,4.41692 6.85403,4.12877 6.63529,-0.22109 -0.0857,-1.6998 -1.37256,-3.0881 -3.53844,-2.87578 -1.95238,0.19309 -3.09685,1.22323 -3.09685,3.09687 z m -207.893672,1.10597 c 0.642821,0.28583 1.56972,0.28583 2.211957,0 0.286995,-0.64224 0.286995,-1.56914 0,-2.21196 -1.625718,-0.91523 -3.127773,0.58624 -2.211957,2.21196 z m 223.153952,-1.99088 c -1.2763,-0.76065 -2.53044,0.4929 -1.76921,1.7698 1.27689,0.76124 2.53045,-0.49349 1.76921,-1.7698 z m -219.172779,6.63531 c 0.22108,3.37219 5.539226,3.08461 5.308231,-0.44216 -0.09333,-1.42563 -1.050562,-2.5993 -3.096274,-2.21198 -1.535303,0.2905 -2.323955,0.95842 -2.211957,2.65414 z m 214.970519,-0.66382 c -0.16449,-1.10714 -0.88898,-2.16472 -2.87518,-1.54816 -5.45698,1.69691 3.76768,7.52955 2.87518,1.54816 z M 8.3365991,922.18524 c 0.2484953,0.0473 0.3441601,0.24558 0.4427416,0.44215 0.6031549,0.16101 0.4450747,-0.43923 0.8843163,-0.44215 0.041416,-1.08264 -1.3678904,-1.08264 -1.3270579,0 z m 233.3276709,0.22108 c 0,-0.29457 0,-0.59031 0,-0.8849 -0.29515,0 -0.58974,0 -0.88548,0 -0.1715,0.76182 0.12308,1.0564 0.88548,0.8849 z m -20.34743,5.08657 c 0,4.60475 6.86686,4.19584 6.63529,-0.22107 -0.10034,-1.90806 -1.36498,-3.40078 -3.98118,-2.87462 -1.77855,0.35757 -2.65411,1.32589 -2.65411,3.09569 z M 16.077283,927.27182 c -0.13008,-1.1334 -0.999814,-1.46123 -1.990878,-1.10598 -3.60668,1.29438 2.439453,5.03057 1.990878,1.10598 z m 218.951707,1.32704 c 1.41163,0.23217 2.00138,-0.35757 1.76921,-1.7692 -1.16431,-1.46648 -3.23569,0.6049 -1.76921,1.7692 z m -212.537497,5.52932 c 0.790984,-2.35836 -1.346308,-4.23725 -3.538432,-3.31794 -4.709159,1.97514 2.172292,7.38662 3.538432,3.31794 z m 205.460637,-0.88489 c 0.2234,3.03035 4.63682,2.45928 4.42273,-0.44217 -0.0962,-1.30722 -0.93272,-2.36945 -2.87518,-1.7698 -1.17598,0.364 -1.63623,1.01557 -1.54755,2.21197 z m -219.6155309,0 c 0.2484953,0.0472 0.3441601,0.24557 0.4427416,0.44273 0.6031549,0.161 0.4450747,-0.43982 0.8843163,-0.44273 0.041416,-1.08266 -1.3678904,-1.08266 -1.3270579,0 z m 233.3276709,0.22107 c 0,-0.29457 0,-0.58975 0,-0.88431 -0.29515,0 -0.58974,0 -0.88548,0 -0.1715,0.76122 0.12308,1.05581 0.88548,0.88431 z m -19.24145,7.5196 c 4.83165,4.23784 8.15601,-7.05237 1.32705,-5.30764 -2.41262,0.61599 -3.20594,3.65976 -1.32705,5.30764 z M 13.202089,938.32985 c -0.565823,4.26467 5.998884,-1.59538 0.66382,-0.88431 -0.604321,0.40891 -0.586822,0.30683 -0.66382,0.88431 z m 221.384741,0.44333 c 0.28291,1.21972 2.36828,1.10598 2.21137,-0.44333 -0.28291,-1.21972 -2.36771,-1.10598 -2.21137,0.44333 z m -216.740331,4.8649 c -0.579822,4.04533 5.489061,3.18027 4.423916,-0.44274 -0.35291,-1.19873 -1.733635,-1.64031 -3.096858,-1.10598 -1.098396,0.43049 -1.264642,1.11356 -1.327058,1.54872 z m 214.307291,0.22108 c -0.10908,-1.33114 -1.22614,-1.86896 -2.43304,-1.54755 -4.83749,1.28505 2.85712,6.72862 2.43304,1.54755 z M 8.5576782,944.52298 c 0.6929868,0.10209 0.986981,-0.19249 0.8848997,-0.8849 -0.2945776,0 -0.590322,0 -0.8848997,0 0,0.29458 0,0.58974 0,0.8849 z M 240.77879,943.85916 c 0,0.14758 0,0.29458 0,0.44216 0.13533,0.0128 0.26191,0.0338 0.22108,0.22166 0.14758,0 0.29575,0 0.44333,0 0.0123,-0.13474 0.0327,-0.26249 0.22107,-0.22166 0,-0.14758 0,-0.29458 0,-0.44216 -0.13533,-0.0123 -0.2619,-0.0338 -0.22107,-0.22108 -0.14758,0 -0.29575,0 -0.44333,0 -0.0116,0.13475 -0.0321,0.2625 -0.22108,0.22108 z m -218.287297,5.52989 c -0.268328,5.06849 6.634122,3.97418 6.191964,-0.22224 -0.181996,-1.72955 -1.378974,-3.1412 -3.980589,-2.43245 -1.621636,0.44215 -2.151876,1.50905 -2.211375,2.65469 z m 199.489167,-0.88548 c -1.65489,4.51375 5.77488,5.24524 5.5293,0.88548 -0.077,-1.36672 -0.77873,-2.69553 -3.09627,-2.43362 -1.45364,0.1645 -2.1997,0.91232 -2.43303,1.54814 z m -208.557492,1.32764 c 0.284078,1.21973 2.368288,1.10598 2.211957,-0.44216 -0.284077,-1.22089 -2.367704,-1.10714 -2.211957,0.44216 z m 222.932872,-0.6644 c -0.13416,-0.12776 -1.04939,-0.51741 -1.10597,0 -1.1369,1.07856 1.69396,1.77971 1.10597,0 z M 18.288074,955.8021 c 1.152061,3.68893 5.643642,-1.57672 2.43362,-2.43246 -0.317911,-0.0852 -0.773485,-0.0111 -1.327058,0.22108 -0.931565,0.39025 -1.609969,0.59499 -1.106562,2.21138 z m 210.769456,0.44216 c 0.64281,0.28699 1.56971,0.28699 2.21195,0 0.28699,-0.64166 0.28699,-1.56856 0,-2.21138 -1.62573,-0.91582 -3.12777,0.58624 -2.21195,2.21138 z m -205.903383,5.08715 c 0.560572,2.86702 5.574227,2.29887 4.865489,-1.32764 -0.220494,-1.13048 -1.121727,-2.30179 -3.317352,-1.54756 -1.244226,0.42758 -1.916212,0.99165 -1.548137,2.8752 z m 199.268673,-0.66324 c 0,2.82328 4.68815,3.00294 4.4239,-0.22108 -0.13125,-1.58838 -1.32122,-2.07721 -2.65469,-1.7698 -1.57673,0.364 -1.76921,1.28914 -1.76921,1.99088 z M 15.192967,960.22601 c -0.134164,-0.12775 -1.049396,-0.51857 -1.105979,0 -1.138061,1.07798 1.693968,1.77855 1.105979,0 z m 220.941993,0.88373 c 0,-0.29516 0,-0.58973 0,-0.88431 -0.29458,0 -0.58973,0 -0.88432,0 -0.17148,0.76181 0.12308,1.05581 0.88432,0.88431 z m -208.115324,4.86549 c -0.268328,5.06849 6.635291,3.97418 6.193133,-0.22108 -0.181996,-1.72954 -1.378975,-3.14177 -3.981175,-2.43303 -1.621635,0.44216 -2.150709,1.50963 -2.211958,2.65411 z m 188.210624,0.22167 c 0,3.88959 5.96972,3.61018 5.74981,-0.22167 -0.0869,-1.52189 -1.21739,-2.8122 -3.31793,-2.43304 -1.54755,0.28059 -2.43188,1.16898 -2.43188,2.65471 z M 20.942774,965.31258 c -1.27631,-0.76123 -2.530452,0.49291 -1.769217,1.76863 1.276892,0.76124 2.529868,-0.4929 1.769217,-1.76863 z m 208.336406,1.32648 c 0.24791,0.0472 0.34417,0.24557 0.44215,0.44215 0.9024,0.091 1.3959,-0.22633 1.32707,-1.10598 -0.23683,-1.07039 -2.18396,-0.78632 -1.76922,0.66383 z m -15.48137,8.40392 c 3.8581,-0.20125 4.08559,-7.44377 -0.88489,-6.41363 -4.05702,0.84173 -2.85303,6.60904 0.88489,6.41363 z M 27.135321,970.84073 c -0.316161,-0.504 -1.7243,-1.06399 -2.433037,-0.44216 -2.998859,2.30178 3.483016,4.79257 2.433037,0.44216 z m 196.172389,0.66381 c -0.56698,4.26467 5.9983,-1.59596 0.66324,-0.88489 -0.60374,0.40948 -0.58682,0.30799 -0.66324,0.88489 z m -194.403173,5.52931 c -0.349994,4.34458 6.078801,1.79083 3.981757,-1.10597 -0.22108,-0.30509 -0.963066,-0.83123 -1.990879,-0.66442 -1.360891,0.22284 -1.934296,1.06633 -1.990878,1.77039 z m 188.431703,0.88432 c 1.1509,3.68892 5.64248,-1.57614 2.43304,-2.43304 -0.3185,-0.0845 -0.77407,-0.0105 -1.32706,0.22109 -0.93214,0.39082 -1.60996,0.59557 -1.10598,2.21195 z M 20.500031,977.69709 c 0,-0.29458 0,-0.59032 0,-0.88489 -0.294577,0 -0.589738,0 -0.884315,0 -0.170914,0.76181 0.123664,1.05639 0.884315,0.88489 z m 209.220719,-0.66324 c 0,0.14758 0,0.29458 0,0.44216 0.13534,0.0123 0.26192,0.0327 0.22109,0.22108 0.14758,0 0.29575,0 0.44332,0 0.0123,-0.13474 0.0327,-0.26191 0.22108,-0.22108 0,-0.14758 0,-0.29458 0,-0.44216 -0.13533,-0.0128 -0.26191,-0.0338 -0.22108,-0.22165 -0.14757,0 -0.29574,0 -0.44332,0 -0.0117,0.13532 -0.0321,0.26248 -0.22109,0.22165 z m -195.507981,6.41367 c 0.55999,2.86758 5.573643,2.29938 4.865491,-1.32708 -0.22108,-1.13047 -1.122313,-2.30182 -3.317937,-1.54817 -1.244226,0.42817 -1.916213,0.99168 -1.547554,2.87525 z m 181.575921,-1.10601 c -0.16567,-1.10773 -0.89015,-2.16529 -2.87577,-1.54754 -5.45699,1.6957 3.76708,7.52896 2.87577,1.54754 z m -191.085822,0.66441 c 2.43712,2.3018 1.337557,-3.20417 0,0 l 0,0 z m 199.268082,0 c 0.2485,0.046 0.34416,0.24498 0.44274,0.44215 0.60315,0.16043 0.44508,-0.43982 0.88432,-0.44215 0.0414,-1.08437 -1.3679,-1.08437 -1.32706,0 z m -184.450532,4.20162 c -1.654885,4.51377 5.775471,5.24531 5.529309,0.88493 -0.07758,-1.37022 -0.778735,-2.6955 -3.096857,-2.43301 -1.452472,0.16386 -2.199124,0.91228 -2.432452,1.54808 z m 166.093962,1.7687 c 0.55941,2.86814 5.57423,2.29949 4.8655,-1.32647 -0.22108,-1.13109 -1.12174,-2.30243 -3.31794,-1.54815 -1.24423,0.42753 -1.91563,0.99158 -1.54756,2.87462 z M 30.010515,988.53408 c 0.282912,1.21974 2.368288,1.10592 2.211375,-0.44215 -0.282912,-1.22034 -2.367122,-1.10664 -2.211375,0.44215 z m 188.210045,0.22107 c 0.24849,0.047 0.34474,0.24617 0.44274,0.4427 0.9024,0.0911 1.3959,-0.22685 1.32707,-1.10592 -0.23684,-1.071 -2.18455,-0.78748 -1.76981,0.66322 z m -173.391912,4.86552 c -0.259578,4.90807 6.437543,3.67963 5.749806,-0.44215 -0.232162,-1.3936 -1.290308,-2.70779 -3.759511,-1.99032 -1.552802,0.4509 -1.93488,1.37663 -1.990295,2.43247 z M 199.864,994.50552 c 0.58798,3.12841 6.03797,2.55673 5.30881,-1.327 -0.22924,-1.218 -1.22555,-2.4867 -3.53843,-1.76925 -1.33114,0.41301 -2.14487,1.09952 -1.77038,3.09625 z m -161.891136,-0.6626 c 0,-1.20401 -0.845234,-1.49447 -1.769799,-1.10602 -2.775447,1.16612 1.769799,4.15276 1.769799,1.10602 z M 212.47075,994.064 c 0.44217,1.03012 1.76863,1.03012 2.21138,0 0.002,-1.6246 -2.21371,-1.6246 -2.21138,0 z m -160.343575,8.1823 c 5.127984,1.4291 5.319314,-7.34177 0,-5.52942 -3.058941,1.04307 -1.656635,5.06792 0,5.52942 z m 142.208095,-3.31744 c -0.68832,5.69144 8.67691,2.48434 4.64441,-1.54874 -0.45382,-0.45205 -1.51022,-0.85978 -2.87578,-0.4421 -1.78671,0.54717 -1.70855,1.49155 -1.76863,1.99084 z M 40.847475,999.1499 c -0.566406,4.2641 5.998302,-1.59653 0.663821,-0.88484 -0.603739,0.40951 -0.587406,0.308 -0.663821,0.88484 z m 166.535555,1.3271 c 1.41221,0.2316 2.00137,-0.3575 1.76978,-1.76863 -1.16373,-1.46695 -3.2351,0.60436 -1.76978,1.76863 z M 30.674336,999.1499 c 0,0.14762 0,0.29467 0,0.44219 0.134164,0.0122 0.261328,0.0338 0.221079,0.22171 0.14758,0 0.294578,0 0.442157,0 0.01283,-0.13475 0.03383,-0.26199 0.221663,-0.22171 0,-0.14752 0,-0.29457 0,-0.44219 -0.134747,-0.0122 -0.261911,-0.0347 -0.221663,-0.22104 -0.147579,0 -0.294577,0 -0.442157,0 -0.01225,0.13484 -0.03383,0.26199 -0.221079,0.22104 z m 25.212933,5.751 c 0,4.8685 8.332757,2.8064 5.307648,-1.7698 -0.460826,-0.6976 -1.592469,-1.222 -3.096274,-0.8848 -2.088877,0.4696 -2.211374,1.5195 -2.211374,2.6546 z m 135.793301,2.6535 c 3.09452,-0.1813 3.23335,-6.1324 -0.88431,-5.0865 -3.26194,0.8277 -1.96697,5.254 0.88431,5.0865 z m -145.303785,-2.8745 c -0.566405,4.2641 5.997719,-1.5966 0.663237,-0.8856 -0.604322,0.409 -0.586239,0.3075 -0.663237,0.8856 z m 155.478095,1.3259 c 1.41164,0.2321 2.00137,-0.3571 1.76863,-1.7693 -1.16373,-1.4664 -3.23569,0.6055 -1.76863,1.7693 z m -165.652399,-1.3259 c 0,0.1469 0,0.2945 0,0.442 0.135331,0.013 0.261911,0.033 0.222245,0.2212 0.146998,0 0.294578,0 0.442159,0 0.01225,-0.1353 0.03267,-0.2619 0.221078,-0.2212 0,-0.1475 0,-0.2951 0,-0.442 -0.13533,-0.013 -0.26191,-0.034 -0.221078,-0.2223 -0.147581,0 -0.295161,0 -0.442159,0 -0.01283,0.1353 -0.03325,0.262 -0.222245,0.2223 z m 25.434011,6.4131 c 0.587988,3.1283 6.038549,2.5566 5.308813,-1.3266 -0.229245,-1.2186 -1.225558,-2.4878 -3.53843,-1.7698 -1.331142,0.4119 -2.146043,1.0996 -1.770383,3.0964 z m 121.861818,0 c 0.5594,2.868 5.57422,2.2999 4.86549,-1.3266 -0.22107,-1.1305 -1.12173,-2.3018 -3.31794,-1.5488 -1.24422,0.4282 -1.9162,0.9918 -1.54755,2.8754 z m -131.593381,-0.885 c -0.565822,4.2641 5.998885,-1.5954 0.664404,-0.8849 -0.603738,0.4096 -0.587406,0.3081 -0.664404,0.8849 z m 145.969361,-0.6627 c -1.2769,-0.7612 -2.53104,0.4924 -1.7698,1.7687 1.2763,0.7613 2.53045,-0.493 1.7698,-1.7687 z m -156.141915,0.6627 c 0,0.1476 0,0.2946 0,0.4428 0.134747,0.012 0.261328,0.034 0.221079,0.221 0.14758,0 0.294577,0 0.442741,0 0.01225,-0.1347 0.03325,-0.2619 0.221079,-0.221 0,-0.1482 0,-0.2952 0,-0.4428 -0.134747,-0.012 -0.261912,-0.033 -0.221079,-0.2211 -0.148164,0 -0.295161,0 -0.442741,0 -0.01226,0.1354 -0.03267,0.262 -0.221079,0.2211 z m 38.703421,9.0683 c 2.941693,0.2736 5.329232,-3.8692 2.654116,-5.9715 -4.725492,-3.7157 -8.13676,5.4599 -2.654116,5.9715 z m 85.590264,-3.5384 c -0.30682,5.6267 9.67382,3.2637 5.97089,-1.7698 -0.43282,-0.5886 -1.69805,-1.2221 -2.8746,-1.106 -2.08656,0.2059 -3.01053,1.3125 -3.09629,2.8758 z m -95.100164,2.4324 c 2.123875,-0.9601 1.221476,-4.7715 -1.327057,-4.4233 -4.006257,0.5461 -1.640886,5.7649 1.327057,4.4233 z m 107.264184,-2.2114 c 0,2.8233 4.68757,3.003 4.42333,-0.221 -0.13066,-1.5884 -1.32063,-2.0777 -2.65353,-1.7698 -1.57673,0.364 -1.7698,1.2891 -1.7698,1.9908 z m -120.091437,1.1054 c 1.411639,0.2317 2.000795,-0.3574 1.769216,-1.7697 -1.164312,-1.4659 -3.235688,0.6054 -1.769216,1.7697 z m 132.254877,-0.8842 c 0.44333,1.0301 1.76921,1.0301 2.21195,0 0.003,-1.6234 -2.21312,-1.6234 -2.21195,0 z m -143.092419,-0.4422 c 0,0.147 0,0.2946 0,0.4422 0.134165,0.012 0.261328,0.033 0.22108,0.221 0.147579,0 0.29516,0 0.442158,0 0.01284,-0.1353 0.03383,-0.2613 0.221079,-0.221 0,-0.1476 0,-0.2952 0,-0.4422 -0.134748,-0.012 -0.260746,-0.033 -0.221079,-0.2211 -0.146998,0 -0.294579,0 -0.442158,0 -0.01225,0.1342 -0.03267,0.2608 -0.22108,0.2211 z m 108.812899,6.8552 c 0.93681,-3.808 -4.38424,-6.0771 -6.19254,-3.0956 -2.92594,4.8205 5.08948,7.5773 6.19254,3.0956 z m -72.54193,-1.1055 c 0,3.8897 5.969719,3.6103 5.749807,-0.2216 -0.08632,-1.5219 -1.217978,-2.8121 -3.317354,-2.433 -1.548137,0.2806 -2.432453,1.1689 -2.432453,2.6546 z m 77.62792,-0.4421 c -0.68715,5.6915 8.67808,2.4843 4.645,-1.5475 -0.45324,-0.4532 -1.50964,-0.861 -2.8752,-0.4434 -1.78671,0.5478 -1.70855,1.491 -1.7698,1.9909 z m -83.82105,0.2205 c -0.109666,-1.3404 -1.226144,-1.8684 -2.431871,-1.5475 -4.83749,1.2851 2.856529,6.7286 2.431871,1.5475 z m 95.76457,0.4428 c 0.12425,1.2319 1.70914,2.0357 3.09686,1.1054 1.92088,-3.3337 -3.39493,-4.0605 -3.09686,-1.1054 z m -109.476141,0.6632 c 0.586822,0 1.262893,0.084 1.547554,-0.2211 0,-0.4421 0,-0.8849 0,-1.3265 -1.096062,-0.9204 -2.468036,0.4509 -1.547554,1.5476 z m 121.418491,-0.6632 c 2.4377,2.303 1.33756,-3.2025 0,0 l 0,0 z m -74.08948,5.3082 c 0,4.3959 6.4072,3.8901 6.19313,-0.221 -0.0957,-1.8299 -1.25239,-3.1967 -3.75952,-2.6542 -1.71496,0.371 -2.43361,1.1899 -2.43361,2.8752 z m 11.94235,2.4325 c 4.83108,4.2373 8.15542,-7.053 1.32764,-5.3077 -2.41203,0.616 -3.20535,3.6603 -1.32764,5.3077 z m 10.1743,-2.4325 c 0,4.1812 6.4008,3.9088 6.19255,-0.221 -0.0834,-1.6486 -1.2693,-3.0158 -3.53843,-2.6542 -1.7208,0.2735 -2.65412,1.1743 -2.65412,2.8752 z m -32.73195,-0.4422 c -0.68832,5.6909 8.67692,2.4844 4.64384,-1.5486 -0.45325,-0.4527 -1.50907,-0.8599 -2.8752,-0.4422 -1.7873,0.5465 -1.70914,1.491 -1.76864,1.9908 z m 47.10734,3.0957 c 3.09453,-0.1814 3.23335,-6.1318 -0.88548,-5.0865 -3.26135,0.8278 -1.96637,5.2546 0.88548,5.0865 z m -57.723803,-2.6535 c 0,2.8233 4.686994,3.0029 4.422749,-0.221 -0.130081,-1.5885 -1.320058,-2.0773 -2.654116,-1.7698 -1.57672,0.364 -1.768633,1.2897 -1.768633,1.9908 z m 70.551053,-0.8855 c -0.22048,-0.6206 -1.26755,-1.5505 -2.87519,-0.8843 -4.68349,3.0893 4.61524,5.7872 2.87519,0.8843 z m -80.724773,0.6645 c -0.566989,4.264 5.998884,-1.5966 0.66382,-0.8855 -0.604321,0.4095 -0.586822,0.308 -0.66382,0.8855 z m 91.119573,0.221 c 0,-1.204 -0.84523,-1.4944 -1.76979,-1.106 -2.77544,1.1661 1.76979,4.1533 1.76979,1.106 z m -100.186732,-0.4422 c -0.134164,-0.1277 -1.049397,-0.5185 -1.105979,0 -1.138062,1.078 1.693968,1.7786 1.105979,0 z m 109.253892,0.6633 c 0.2485,0.047 0.34534,0.2462 0.44332,0.4422 0.60374,0.1616 0.44509,-0.4393 0.88491,-0.4422 0.0409,-1.0839 -1.36906,-1.0839 -1.32823,0 z m -58.16538,5.0865 c -0.0997,-1.2039 -0.7764,-2.2224 -2.65411,-1.5481 -4.56391,1.6368 3.07469,6.6202 2.65411,1.5481 z m 11.05804,0 c -0.0998,-1.2039 -0.7764,-2.2224 -2.65412,-1.5481 -4.5639,1.6368 3.0747,6.6202 2.65412,1.5481 z m -25.87557,0.8844 c 0.90006,2.902 5.6582,-0.2076 2.65352,-2.4325 -2.19096,-0.4398 -3.0636,1.1101 -2.65352,2.4325 z m 33.17468,0 c 1.14973,3.6889 5.64248,-1.5767 2.43187,-2.4325 -0.31732,-0.084 -0.77289,-0.011 -1.32589,0.2211 -0.93215,0.3902 -1.61055,0.5956 -1.10598,2.2114 z m -43.791155,-0.8844 c -0.566406,4.2647 5.998305,-1.596 0.66382,-0.8848 -0.603739,0.4088 -0.587406,0.3073 -0.66382,0.8848 z m 57.944295,0.2212 c 0,-1.2034 -0.84524,-1.4945 -1.76863,-1.106 -2.77603,1.1672 1.76863,4.1543 1.76863,1.106 z m -68.560175,0.442 c 0.248495,0.047 0.344744,0.2457 0.442742,0.4422 0.901816,0.091 1.395306,-0.2263 1.326473,-1.1054 -0.236828,-1.0703 -2.183957,-0.7868 -1.769215,0.6632 z m 77.407425,-0.221 c 2.43771,2.303 1.33756,-3.2025 0,0 l 0,0 z m -87.138404,0.221 c 0,-0.2944 0,-0.5902 0,-0.8848 -0.294578,0 -0.589739,0 -0.884317,0 -0.172663,0.7618 0.123082,1.057 0.884317,0.8848 z m 98.638604,-0.6632 c 0,0.1477 0,0.2952 0,0.4422 0.13475,0.013 0.2619,0.034 0.22107,0.221 0.14817,0 0.29575,0 0.44275,0 0.0123,-0.1346 0.0332,-0.2618 0.22108,-0.221 0,-0.147 0,-0.2945 0,-0.4422 -0.13417,-0.012 -0.26192,-0.033 -0.22108,-0.2216 -0.147,0 -0.29458,0 -0.44275,0 -0.0116,0.1353 -0.0327,0.2626 -0.22107,0.2216 z m -50.42529,5.9716 c 0.44333,1.0307 1.76981,1.0307 2.21197,0 0.003,-1.6235 -2.21313,-1.6235 -2.21197,0 z m -10.61471,0.6632 c 0.58683,0 1.26231,0.084 1.54755,-0.2211 0,-0.4428 0,-0.885 0,-1.3265 -1.09664,-0.9204 -2.46803,0.4515 -1.54755,1.5476 z m 22.11608,0 c 0.58683,0 1.26289,0.084 1.54755,-0.2211 0,-0.4428 0,-0.885 0,-1.3265 -1.09664,-0.9204 -2.46803,0.4515 -1.54755,1.5476 z m -31.84822,-1.3265 c -0.13358,-0.1278 -1.04939,-0.5186 -1.1054,0 -1.13806,1.0785 1.69398,1.7786 1.1054,0 z m 44.23273,0 c -0.13359,-0.1278 -1.04939,-0.5186 -1.10598,0 -1.13747,1.0785 1.69456,1.7786 1.10598,0 z m -55.511848,0.8843 c 0,-0.2951 0,-0.5898 0,-0.8843 -0.295159,0 -0.590321,0 -0.885482,0 -0.170913,0.7612 0.123664,1.0564 0.885482,0.8843 z m 66.348798,0 c 0,-0.2951 0,-0.5898 0,-0.8843 -0.29516,0 -0.58973,0 -0.88548,0 -0.17091,0.7612 0.12484,1.0564 0.88548,0.8843 z m -39.58831,4.8655 c 0,0.1475 0,0.2952 0,0.4421 0.13474,0.013 0.26191,0.034 0.22166,0.2212 0.14759,0 0.29517,0 0.44216,0 0.0123,-0.1348 0.0333,-0.2608 0.22108,-0.2212 0,-0.1469 0,-0.2946 0,-0.4421 -0.13474,-0.013 -0.26192,-0.034 -0.22108,-0.221 -0.14699,0 -0.29457,0 -0.44216,0 -0.0123,0.1346 -0.0332,0.2618 -0.22166,0.221 z m 11.05862,0 c 0,0.1475 0,0.2952 0,0.4421 0.13416,0.013 0.26133,0.034 0.22108,0.2212 0.14758,0 0.29516,0 0.44216,0 0.0128,-0.1348 0.0332,-0.2608 0.22107,-0.2212 0,-0.1469 0,-0.2946 0,-0.4421 -0.13475,-0.013 -0.26074,-0.034 -0.22107,-0.221 -0.147,0 -0.29458,0 -0.44216,0 -0.0123,0.1346 -0.0333,0.2618 -0.22108,0.221 z m 2.43245,-216.51873 c -0.25258,1.14506 0.35291,2.5847 0.22166,2.87462 -1.00915,-1.11182 -3.70993,-0.41242 -4.42333,-0.22109 2.68678,-6.89311 -9.35997,-6.29463 -6.85637,0 -1.23021,-0.6504 -2.90844,-0.4264 -4.20166,0 2.51879,-7.10836 -9.86806,-6.10038 -6.41421,0.44216 -3.44043,-1.93488 -7.04887,0.63115 -6.85579,4.42392 -0.92515,-0.49874 -1.7803,0.0396 -2.87577,0 1.35564,-6.86745 -9.837151,-5.31989 -7.519612,0.66381 -1.287975,-1.11939 -3.728012,0.18025 -4.423331,0.22109 2.874027,-4.65958 -5.115736,-7.25245 -6.192548,-2.87577 -0.701153,2.85127 2.267372,5.64946 5.308814,3.98116 -0.70582,0.84232 -0.774068,2.32279 -1.105979,3.53843 -0.772901,-0.59674 -2.213706,0.35642 -2.653532,0 1.118812,-7.44552 -10.810709,-4.64149 -6.856368,1.32706 -3.555931,-2.25337 -7.45194,1.13514 -6.41421,4.86549 -3.732095,-0.91814 -6.274795,1.23489 -5.749806,5.30765 -1.331141,-0.8254 -3.525015,0.40716 -3.981173,0.44333 2.877528,-6.00356 -7.323609,-6.91121 -6.192547,-0.88549 0.245578,1.30432 3.034441,3.48127 5.308813,1.9903 -0.742568,0.80556 -1.014397,2.08129 -0.884899,3.76009 -1.660718,-0.18608 -2.697282,0.25141 -3.75951,0.66324 2.999441,-6.16339 -7.716768,-6.85403 -6.192548,-0.66324 0.422325,1.7173 3.354102,2.81337 5.086569,1.98972 -0.617739,0.85806 -0.759486,2.1892 -0.663821,3.7595 -1.412805,-0.68424 -2.941109,0.25608 -3.98059,0.66441 1.984461,-2.21604 -0.692403,-5.09882 -1.768633,-5.30824 -4.272251,-0.82948 -6.133632,6.1418 -1.327058,6.63471 1.227311,0.126 1.569137,-0.315 2.432453,-0.44215 -0.891899,0.7799 -0.859233,2.98718 -0.884315,3.98058 -4.054089,-0.48823 -5.994219,2.22538 -5.08657,5.97147 -4.274001,-1.60413 -7.052364,3.37044 -4.644993,6.41304 -4.510247,-3.74201 -8.803499,4.43326 -3.981173,6.41363 0.719819,0.33483 2.348454,0.10208 2.654698,0.22166 -0.501074,0.67841 0.104998,2.46453 -0.442742,3.09628 -3.911758,-0.39375 -5.516478,2.51995 -4.644995,6.19312 -6.40196,-2.47619 -7.313109,8.79709 -0.442158,7.29795 -0.357577,0.82132 -0.183163,2.17521 -0.22108,3.31794 -6.357626,-1.45597 -6.471958,8.91608 -0.221078,8.40392 -0.139997,0.74432 0.284661,2.05446 -0.22108,2.43303 -1.49272,-0.23857 -2.117459,0.38966 -3.096856,0.66382 1.657801,-2.65702 -0.289329,-5.5293 -2.874611,-5.5293 -5.690891,0 -3.411269,9.47667 1.989711,6.63528 -1.17306,0.96835 -0.478324,4.20286 -0.221079,4.8661 -7.230861,-3.22576 -6.222297,10.09848 0.442159,5.97089 -1.300226,1.16606 -1.017898,4.28859 0,5.52931 -2.575368,-2.13846 -5.749224,0.30566 -5.749224,2.65469 0,4.31601 7.036616,4.93199 7.076281,0 0.0082,-0.86039 -0.69532,-1.68521 -0.663237,-2.21195 0.788067,0.68657 1.926712,1.02256 3.538431,0.88431 -0.629403,0.61774 0.145832,2.55262 -0.221078,2.87578 -6.514542,-0.82481 -5.687975,9.27133 0.442158,8.18285 -0.705237,1.02081 0.32141,2.74802 0,3.31735 -7.153863,-1.74239 -5.192734,10.40471 1.105978,6.63529 -2.298872,3.01285 0.631157,7.69401 4.644413,6.41363 -0.74432,1.21797 0.08866,2.93002 0,3.75951 -0.581573,-0.22925 -1.357391,-0.26426 -2.211958,-0.22109 -6.960201,2.65529 1.789633,11.43252 4.423915,4.42333 0.108498,-0.99339 -0.112581,-1.6578 -0.222246,-2.43303 0.706403,0.47366 1.872464,0.48766 3.096858,0.44215 -0.727404,0.77525 0.352325,2.50596 0,2.87521 -7.702185,-0.88433 -4.252419,10.59899 1.327057,7.07747 -2.199124,3.44157 1.479889,7.64789 5.307648,5.74979 -1.867214,3.85984 1.723717,6.84004 5.308231,5.97152 -1.654885,3.7076 2.432453,6.52619 5.529311,5.52932 -1.28856,3.98577 2.379954,6.66327 5.970885,5.08657 -3.438685,6.5623 8.510669,7.8608 7.299692,1.106 0.522657,0.4351 1.978046,-0.061 2.432453,0.4421 -0.108497,0.9934 0.111414,1.6578 0.22108,2.433 -2.907277,-0.6795 -4.969905,1.4216 -4.86549,3.7601 0.221662,4.9921 8.633167,4.2006 7.519605,-1.3271 0.765319,0.3401 2.015961,0.1961 3.096274,0.2217 -0.939732,3.7123 2.96911,5.9616 5.970885,5.0866 -1.971629,6.812 9.145908,6.5053 7.741268,0.4421 0.866233,0.3804 2.358954,0.047 2.874611,0.2212 -0.585656,1.1129 0.261328,2.479 0.664403,3.3178 -5.536892,-3.3598 -7.780933,6.678 -1.769798,6.4137 2.428952,-0.1068 4.041832,-3.4369 2.875782,-5.5287 0.93681,0.991 3.03794,1.0377 4.42274,0.4422 -2.2872,6.9911 9.21766,6.5495 7.29911,0.221 0.80674,0.8324 3.03853,0.1639 3.53785,0.2216 -1.65955,6.6831 9.23108,6.1086 7.74128,0 0.89948,0.3921 2.38052,0.2212 3.31793,0 -1.67239,6.4849 9.38799,6.3589 7.5196,-0.2216 1.06982,0.6324 2.62612,0.4205 3.75951,0 -1.94362,7.2261 9.77823,5.6874 7.07746,-0.4421 3.59617,1.5732 6.59619,-0.9952 6.41362,-4.6451 0.86156,0.6422 2.44703,-0.2922 2.87578,0 -1.29207,6.8133 9.97597,5.5761 7.29851,-0.8849 3.6971,1.5494 6.55596,-1.1438 6.41305,-4.8655 1.07973,0.7112 2.81045,-0.4211 3.31794,-0.221 -0.22925,0.5815 -0.26483,1.3569 -0.22107,2.2114 2.55902,7.033 11.51069,-1.8112 4.42274,-4.4234 -0.99223,-0.109 -1.65722,0.112 -2.43245,0.2211 0.44565,-0.8074 0.74723,-1.7594 0.66382,-3.0962 0.7134,0.7256 2.31228,-0.3856 2.65412,0 -0.017,1.9039 0.15574,2.7288 0.88488,3.5383 4.96933,5.5236 10.9163,-7.4355 1.76865,-6.4141 0.44857,-0.5834 0.2339,-1.83048 0.6644,-2.43193 0.85456,0.0432 1.6298,0.009 2.21138,-0.2217 -1.43207,7.49343 11.21553,4.71683 6.85578,-1.54799 3.62477,2.92761 7.92035,-1.96412 5.97147,-5.30778 4.06109,2.70253 7.56044,-3.35236 5.08715,-5.97144 5.82738,4.64326 9.35765,-7.95478 1.32589,-6.63527 0.49116,-0.61428 0.35991,-2.27266 0.44332,-2.65357 1.30897,0.20358 1.8328,-0.378 2.87461,-0.44216 -0.4089,0.47423 -0.14874,1.61872 -0.22108,2.43245 0.80206,3.14177 6.30921,3.32432 7.07745,0 0.47774,-2.06904 -0.64749,-3.76185 -2.43245,-4.6444 -0.82132,-0.14526 -2.27613,0.21233 -2.43304,0 0.56057,-0.8295 0.32083,-2.65646 0.44216,-3.31794 4.05817,0.46782 5.76031,-2.42663 4.86549,-6.19197 6.61137,2.68328 7.03136,-8.88341 0.6644,-7.51961 0.33367,-0.71982 0.10092,-2.34845 0.22108,-2.65469 1.56214,0.16158 2.37528,-0.42525 3.31794,-0.88432 -1.7838,2.93119 0.90531,5.62497 3.09569,5.52873 4.23142,-0.18609 4.40117,-7.00278 -0.22108,-7.07745 -0.73499,-0.0116 -1.16665,0.53491 -1.98971,0.44275 0.99631,-0.85691 1.10714,-3.11087 0.44215,-4.42334 6.66038,2.31229 6.98238,-8.69267 0.44217,-7.5196 0.53723,-0.75599 -0.0683,-2.67045 0.22107,-3.09686 6.59622,0.99748 6.02689,-9.02166 0,-8.18226 0.33308,-1.00448 0.14409,-1.81413 0,-2.87577 6.47079,1.20688 6.34188,-9.37927 -0.22107,-7.96122 0.6154,-0.72448 -0.10967,-2.90319 0.22107,-3.31793 6.28646,1.48805 6.04322,-9.40432 -0.44215,-7.5196 0.59848,-1.0809 -0.0677,-3.4836 0,-3.98118 7.40936,2.22829 5.22072,-10.45138 -1.10598,-6.19255 2.21079,-2.94869 0.12366,-7.6701 -4.42392,-6.6347 0.6685,-0.97124 -0.1365,-3.33952 0,-3.7601 0.58274,0.22983 1.35797,0.26483 2.21196,0.22109 7.06812,-2.9102 -2.00313,-11.30012 -4.42275,-4.42275 -0.10908,0.9934 0.11142,1.65721 0.22108,2.43303 -0.67607,-0.4299 -1.7068,-0.50515 -2.87578,-0.44216 0.13241,-1.16547 -0.16391,-1.90046 -0.22108,-2.87578 7.4047,1.02199 4.74241,-10.25479 -1.10539,-7.29852 1.78613,-3.75426 -1.60881,-6.77295 -5.08773,-5.97147 1.03189,-3.74434 -1.78439,-6.56003 -5.52874,-5.52873 1.1159,-3.79276 -1.73712,-6.64637 -5.52931,-5.5293 1.27106,-4.03543 -2.15362,-6.35588 -5.52872,-5.7504 1.03072,-3.79392 -2.44704,-6.52154 -5.97147,-5.08656 2.98837,-6.31213 -8.58183,-8.05568 -7.52019,-0.88491 -0.47423,-0.40948 -1.61988,-0.14932 -2.43304,-0.22107 0.2905,-1.11064 -0.48999,-2.29829 -0.22108,-2.65411 5.98489,1.35564 6.11264,-7.29853 1.10598,-7.29853 -2.31637,0 -4.27691,2.12329 -3.53843,5.08657 -0.6084,-0.66382 -2.83553,-0.32024 -3.31794,-0.44217 0.74841,-4.27283 -3.2456,-5.71072 -6.19254,-4.86549 2.52987,-6.41595 -8.84783,-7.33993 -7.29852,-0.44274 -0.98465,-0.43456 -1.93606,-0.44623 -3.09628,-0.22107 0.58098,-4.23084 -3.83593,-6.27655 -6.85578,-4.20167 3.36168,-4.80541 -5.01483,-8.10526 -6.41655,-3.31619 z m 5.52932,3.9806 c 0.21641,0.66614 -1.02841,1.76687 -0.66383,3.31793 -1.02956,-0.10441 -1.47464,-0.29983 -2.43186,0 0.19248,-1.44664 -0.40891,-2.09879 -0.66441,-3.09686 0.80148,0.68366 3.2106,0.64341 3.7601,-0.22107 z m -26.09785,0.44215 c 0.43109,-0.12308 2.55438,0.61657 3.53845,0 -0.0637,1.04181 -0.64515,1.56622 -0.44216,2.87578 -0.53841,-0.42757 -1.85031,-0.21292 -2.43304,0 0.0589,-1.23781 -0.0403,-2.31929 -0.66325,-2.87578 z m 11.50079,0 c 0.8989,0.66441 2.3467,0.41357 3.31793,0 -0.36574,0.73965 -0.78223,1.42914 -0.66381,2.6547 -0.73673,0 -1.47406,0 -2.21197,0 0.19717,-1.22965 -0.42464,-1.64031 -0.44215,-2.6547 z m -27.644802,5.7498 c 0.810235,0.39549 1.688718,0.51625 2.653532,0.22108 -0.239161,0.64574 -0.49524,1.27515 -0.442158,2.21196 -0.590322,0 -1.178894,0 -1.769215,0 0.157496,-1.11589 -0.302745,-1.61463 -0.442159,-2.43304 z m 58.164792,0 c 0.83766,0.0338 -0.4614,1.34339 0,2.43304 -0.66323,0 -1.32647,0 -1.98971,0 -0.0653,-0.7449 -0.1114,-1.5108 -0.44274,-1.99088 0.31033,-0.64749 2.12387,0.20709 2.43245,-0.44216 z m -46.44351,0.66441 c 0.51566,0 1.03248,0 1.54755,0 0.006,0.52091 -0.38091,0.6504 -0.22108,1.32647 -0.36924,0 -0.73732,0 -1.10598,0 0.161,-0.67664 -0.38149,-0.65099 -0.22049,-1.32647 z m 33.39577,0 c 0.51566,0 1.03189,0 1.54755,0 0.10967,0.99398 -0.22866,1.54114 -1.32648,1.32647 0.005,-0.5209 -0.3809,-0.65099 -0.22107,-1.32647 z m -22.11666,0.44215 c -0.0367,-0.48006 0.78457,-0.10032 1.10598,-0.22107 0,0.36808 0,0.73732 0,1.10598 -0.29458,0 -0.59032,0 -0.8849,0 -0.018,-0.35057 0.10674,-0.84407 -0.22108,-0.88491 z m 11.2797,-0.22107 c 0.36866,0 0.73732,0 1.1054,0 0.0298,0.7659 -0.19016,1.28389 -1.1054,1.10598 0,-0.36866 0,-0.7379 0,-1.10598 z m -51.53126,4.42333 c 0.489991,-0.11375 1.847965,0.79915 3.317354,0.44216 -0.246163,0.63815 -0.39841,1.37139 -0.442159,2.21196 -0.942065,-0.13125 -1.462972,0.15808 -2.211957,0.22107 0.06125,-1.2413 0.02334,-2.38286 -0.663238,-2.87519 z m 79.17607,0.88432 c 0.51682,0 1.03248,0 1.54871,0 -0.25549,0.26133 -0.25083,0.78165 -0.22166,1.32647 -0.44217,0 -0.88432,0 -1.32705,0 0,-0.44216 0,-0.88431 0,-1.32647 z m -66.790975,0.22049 c 0.442159,0 0.885483,0 1.327057,0 0,0.36925 0,0.7379 0,1.10598 -0.368659,0 -0.737902,0 -1.105977,0 0.09041,-0.53199 -0.404243,-0.47949 -0.22108,-1.10598 z m 85.369185,4.64441 c 0.46492,0.55241 -0.5139,1.54172 -0.22107,2.65471 -0.36808,-0.37041 -1.29907,-0.17617 -1.99088,-0.22167 -0.13417,-0.52849 0.27825,-1.60414 -0.22108,-1.76863 0.51333,-0.51916 2.10871,0.0438 2.43303,-0.66441 z m -102.619769,0.22109 c 0.418242,0.39315 1.460638,0.16157 2.21079,0.22224 -0.0093,0.7274 -0.373326,1.10073 -0.221079,1.98971 -0.589738,0 -1.179476,0 -1.768632,0 0.04375,-0.85398 0.0076,-1.62922 -0.221079,-2.21195 z m 90.013019,0.88548 c 0.22108,0 0.44274,0 0.66381,0 0,0.29515 0,0.59032 0,0.88489 -0.73848,0.22225 -0.72506,-0.30741 -0.66381,-0.88489 z m 18.13549,4.86549 c -0.36984,0.3669 -0.17558,1.29905 -0.22109,1.99087 -0.58974,0 -1.17947,0 -1.76863,0 -0.13241,-0.45791 0.27358,-1.45305 -0.22225,-1.54813 0.5425,-0.343 1.44023,-0.32958 2.21197,-0.44274 z m -113.45674,0.44216 c 0.164497,-0.49875 1.240142,-0.0864 1.769798,-0.22166 0,0.51681 0,1.03305 0,1.54871 -0.389075,0.12658 -1.300224,-0.26774 -1.327057,0.22108 -0.633488,-0.0303 0.190746,-1.51839 -0.442741,-1.54813 z m 118.76496,5.08714 c 0.27474,0.0776 -0.18199,1.27457 0,1.99031 -0.63757,-0.0263 -1.44839,0.12015 -1.7698,-0.22167 0,-0.51566 0,-1.0319 0,-1.54755 0.52966,-0.13417 1.60472,0.27824 1.7698,-0.22109 z m -124.072609,0.44216 c 0.515658,0 1.032481,0 1.547554,0 -0.254912,0.26075 -0.250246,0.78224 -0.221079,1.32648 -0.442158,0 -0.884899,0 -1.326475,0 0,-0.44157 0,-0.88373 0,-1.32648 z m 129.601339,5.08657 c 0.44274,0.24441 -0.26891,1.18765 0,1.99088 -0.51566,0 -1.03189,0 -1.54755,0 -0.34184,-0.32141 -0.19483,-1.13222 -0.22108,-1.76921 0.52849,-0.13534 1.60471,0.27707 1.76863,-0.22167 z m -135.351728,0.66324 c 0.09508,-0.49466 1.089646,-0.0892 1.547554,-0.22108 0,0.44215 0,0.88549 0,1.32706 -0.32141,0.12074 -1.142145,-0.25841 -1.105979,0.22107 -0.625905,0.0367 0.18433,-1.36322 -0.441575,-1.32705 z m 141.323198,4.86607 c -0.22925,0.58158 -0.26425,1.35681 -0.22108,2.21138 -0.72799,-0.009 -1.10073,-0.37391 -1.99087,-0.22108 0,-0.59033 0,-1.1789 0,-1.76922 0.94206,0.13067 1.46297,-0.15866 2.21195,-0.22108 z m -146.853091,0.22108 c 0.53024,0.13358 1.009147,0.31791 1.769799,0.22108 -0.304494,0.28525 -0.218745,0.96015 -0.221079,1.54814 -0.516823,0 -1.03248,0 -1.54872,0 0,-0.58974 0,-1.1789 0,-1.76922 z m 152.382401,4.86549 c 0.80907,0.12133 -0.44099,1.68114 0,2.87577 -0.88432,0.0729 -1.22732,-0.39432 -2.21137,-0.22107 0.13065,-0.94147 -0.15866,-1.46297 -0.22108,-2.21195 0.96598,0.008 1.99845,0.081 2.43245,-0.44275 z m -158.353287,0.44275 c 0.581573,0.22924 1.356807,0.26424 2.211375,0.22107 0,0.59032 0,1.17948 0,1.76922 -0.85515,-0.11842 -1.079147,0.39491 -1.989712,0.22166 0.04317,-0.85457 0.0076,-1.6298 -0.221663,-2.21195 z m -6.413625,4.86548 c 0.519739,-0.0701 1.766881,1.02898 3.317936,0.66324 -0.105582,1.06223 -0.139997,1.8538 -0.22108,2.43245 -0.993397,-0.1085 -1.657218,0.11259 -2.432453,0.22225 0.514491,-1.04124 0.143498,-2.88453 -0.664403,-3.31794 z m 162.997692,7.07745 c 0.36925,0 0.73732,0 1.10599,0 0,0.29458 0,0.58915 0,0.88432 -0.36867,0 -0.73674,0 -1.10599,0 0,-0.29517 0,-0.58974 0,-0.88432 z m 6.85637,4.86548 c 0.50166,0.2345 0.0845,1.39006 0.22109,1.98972 -0.83358,0.17033 -1.05698,-0.2695 -1.76923,-0.22107 0,-0.51566 0,-1.03248 0,-1.54757 0.45733,-0.13182 1.45248,0.27359 1.54814,-0.22108 z m -168.527005,0.44217 c 0.442742,0 0.8849,0 1.326475,0 0,0.44215 0,0.8849 0,1.32648 -0.442159,0 -0.884317,0 -1.326475,0 0,-0.44158 0,-0.88433 0,-1.32648 z m 175.162295,3.98059 c 0.10558,0.59965 -0.98465,2.67744 -0.22108,3.98117 -0.67607,-0.43049 -1.7068,-0.50457 -2.87577,-0.44274 0.35407,-1.01381 0.0157,-1.50206 0,-2.65412 1.41105,0.0845 2.61677,-0.035 3.09685,-0.88431 z m -181.354843,0.8849 c 0.775235,0.10966 1.43964,0.32958 2.433036,0.22108 0,0.6644 0,1.32705 0,1.99088 -0.49699,0.38732 -1.663634,0.10558 -2.211956,0.44216 0.004,-0.9619 0.0735,-1.99031 -0.22108,-2.65412 z m 174.498483,6.41363 c 0,0.36923 0,0.7379 0,1.10597 -0.36867,0 -0.7379,0 -1.10598,0 -0.1785,-0.91523 0.3389,-1.13514 1.10598,-1.10597 z m -166.978877,0.22165 c 0,0.22108 0,0.44216 0,0.66324 -0.391993,-0.0501 -1.107145,0.22341 -0.884316,-0.44216 0.196579,-0.17149 0.499323,-0.238 0.884316,-0.22108 z m 172.728677,4.64383 c 1.00448,0.30217 -0.18725,1.61056 0.44216,2.43362 -0.54716,-0.33716 -1.71439,-0.0548 -2.21138,-0.44274 0,-0.59031 0,-1.17948 0,-1.76863 0.52907,-0.13592 1.60472,0.27649 1.76922,-0.22225 z m -179.806124,0.66382 c 0.164497,-0.49874 1.241309,-0.0864 1.769799,-0.22107 0,0.51565 0,1.03247 0,1.54755 -0.516824,0 -1.03248,0 -1.548137,0 -0.127747,-0.3885 0.267745,-1.29906 -0.221662,-1.32648 z m 172.949744,5.7504 c 0.57867,-0.0618 0.95141,0.0811 0.88549,0.66323 -0.57807,0.0625 -1.10714,0.0747 -0.88549,-0.66323 z m 6.85638,4.86609 c 0.50224,0.23449 0.0845,1.39005 0.22107,1.99029 -0.82014,0.15692 -0.94906,-0.37799 -1.76921,-0.22167 0,-0.51564 0,-1.03247 0,-1.54755 0.4585,-0.13182 1.45247,0.27301 1.54814,-0.22107 z m -179.584462,0.44158 c 0.442158,0 0.884317,0 1.327058,0 0.212913,1.09897 -0.333661,1.43613 -1.327058,1.32647 0,-0.44158 0,-0.88374 0,-1.32647 z m -6.635291,4.20225 c 0.742569,0.51041 1.694551,0.81198 3.096858,0.66324 -0.18958,1.10714 -0.18958,1.54696 0,2.65469 -1.380724,-0.0543 -2.587034,0.0665 -3.096858,0.88432 0.121914,-0.65857 0.859817,-3.01286 0,-4.20225 z m 186.440823,6.63528 c 0,0.66383 0,1.32648 0,1.9903 -0.52906,-0.13358 -1.00855,-0.31792 -1.76921,-0.22108 0,-0.51624 0,-1.03249 0,-1.54813 0.82015,0.15574 0.94907,-0.37799 1.76921,-0.22109 z m -179.805532,0.2205 c 0.675488,-0.15925 0.806152,0.22633 1.327058,0.22167 0,0.36865 0,0.73673 0,1.10597 -0.321411,0.12076 -1.143311,-0.2584 -1.105979,0.22108 -0.494657,-0.0957 -0.08983,-1.08965 -0.221079,-1.54872 z m 172.728082,5.97147 c 0.35059,0.018 0.84408,-0.10616 0.88549,0.22224 0.2415,0.77583 -1.35739,0.5909 -0.88549,-0.22224 z m 7.29854,4.645 c -0.004,0.96189 -0.0729,1.98971 0.22108,2.65353 -0.81782,-0.13942 -1.31598,-0.59966 -2.43246,-0.44216 0,-0.66324 0,-1.32648 0,-1.9903 0.94148,0.13009 1.46298,-0.15925 2.21138,-0.22107 z m -180.248284,0.22107 c 0.53024,0.13359 1.009148,0.31792 1.769799,0.22166 0,0.51566 0,1.03191 0,1.54756 -0.834151,-0.16975 -1.05698,0.27007 -1.769799,0.22108 0,-0.66324 0,-1.32706 0,-1.9903 z m 172.949744,5.97089 c 0.36868,0 0.73791,0 1.10598,0 0,0.44332 0,0.88548 0,1.32764 -0.25665,-0.18608 -0.59382,-0.29225 -1.10598,-0.22166 0,-0.36808 0,-0.73674 0,-1.10598 z m -166.756613,0.22224 c 0.34941,0.018 0.842899,-0.10675 0.884316,0.22108 0.241495,0.77582 -1.356224,0.59207 -0.884316,-0.22108 z m -6.63529,4.42276 c 0.817818,0.13999 1.317142,0.60023 2.433036,0.44274 -0.04317,0.85398 -0.0081,1.62921 0.221081,2.21078 -1.231977,0.0216 -2.395705,0.11142 -2.875196,0.88549 -0.273578,-0.74491 0.955482,-2.22596 0.221079,-3.53901 z m 175.161713,5.97087 c -0.43224,0.54249 -0.22166,1.85905 0.22108,2.21196 -0.43457,0.49174 -1.46706,-0.2899 -2.43304,0 0,-0.66323 0,-1.32647 0,-1.99087 0.98407,0.17325 1.32764,-0.29458 2.21196,-0.22109 z m -168.969165,0.22109 c 0.519739,0.0705 0.830067,0.34999 1.548137,0.22224 0,0.51566 0,1.03132 0,1.54756 -0.458492,0.13183 -1.452472,-0.27358 -1.548137,0.22107 -0.578072,-0.37973 0.312078,-1.14564 0,-1.99087 z m 161.449555,5.75038 c 0.51624,0 1.03249,0 1.54814,0 0,0.51566 0,1.03248 0,1.54756 -0.51974,-0.0705 -0.83065,-0.34941 -1.54814,-0.22107 0,-0.44158 0,-0.88374 0,-1.32649 z m -155.478087,0.22108 c 0.294578,0 0.590323,0 0.8849,0 0.261911,0.99982 -0.516241,0.95898 -1.105979,1.10598 -0.07059,-0.51273 0.03558,-0.84873 0.221079,-1.10598 z m 150.169857,5.52931 c 0.29516,0 0.58974,0 0.88549,0 0,0.36867 0,0.73732 0,1.10599 -0.19775,-0.17208 -0.49991,-0.238 -0.88549,-0.22109 0,-0.29516 0,-0.58973 0,-0.8849 z m -151.054757,4.645 c 0.688904,0.26949 1.401724,0.51508 2.43362,0.44215 -0.580989,0.64516 0.195997,1.27457 0,2.21133 -1.446638,-0.19361 -2.098792,0.40895 -3.096856,0.66333 0.674903,-0.65276 0.731486,-1.92268 0.663236,-3.31681 z m 150.390937,8.40391 c -0.35699,-0.30103 0.22866,-1.52832 0,-2.43301 0.91524,0.0307 1.70913,-0.0613 2.21196,-0.44279 0.39024,1.15735 0.14816,2.9487 1.10598,3.53848 -0.44741,0.14231 -2.16997,-1.50503 -3.31794,-0.66268 z M 51.683849,982.12044 c 0.911149,-0.17389 1.135729,0.33946 1.990879,0.22107 -0.15283,0.88954 0.211746,1.2623 0.221079,1.99032 -0.904732,0.0532 -2.132043,-0.21531 -2.433036,0.44269 -0.445075,-0.53257 0.567572,-1.48807 0.221078,-2.65408 z m 139.113001,7.74067 c -0.15518,-0.96599 0.37623,-1.24536 0.22107,-2.21134 0.85457,0.0433 1.6298,0.009 2.21137,-0.22116 -0.55124,0.88666 0.0321,2.24526 0.44216,2.87465 -0.47949,0.24914 -1.64323,-0.70874 -2.8746,-0.44215 z M 57.213743,987.64977 c 0.727403,0.009 1.100729,0.37385 1.990879,0.22163 0.131247,0.45794 -0.273579,1.45188 0.221079,1.54753 -0.640488,0.392 -1.693968,0.37107 -2.433037,0.66325 0.264245,-0.62003 0.243245,-1.52599 0.221079,-2.43241 z m 5.750389,5.52875 c 0.321412,0.34181 1.131062,0.19481 1.768633,0.22108 -0.15283,0.88953 0.211747,1.2623 0.22108,1.99085 -0.993398,-0.10909 -1.657219,0.11145 -2.433037,0.2211 0.121331,-0.83822 0.536072,-1.38134 0.443324,-2.43303 z m 122.081728,2.43303 c 0.22866,-0.58159 0.26484,-1.35743 0.22109,-2.21195 0.96598,0.1551 1.24597,-0.37629 2.21196,-0.22108 0.021,1.23198 0.11024,2.39565 0.88489,2.87512 -0.59674,0.22819 -2.15946,-1.17771 -3.31794,-0.44209 z m -116.774079,3.09682 c 0.748985,0.061 1.269891,0.35176 2.211957,0.22114 -0.131248,0.94091 0.15808,1.46299 0.22108,2.21079 -0.844068,-0.3804 -2.100544,-0.1079 -2.654117,0.4433 -0.398408,-0.5577 0.565239,-1.63862 0.22108,-2.87523 z m 11.942936,0.66268 c 0.221079,0 0.442159,0 0.664405,0 0,0.29457 0,0.59027 0,0.88495 -0.738486,0.2222 -0.72682,-0.30632 -0.664405,-0.88495 z m 88.908203,0 c 0.29458,0 0.58916,0 0.88431,0 -0.018,0.31382 -0.0361,0.62642 0.22167,0.66335 0.0361,0.48 -0.78457,0.1002 -1.10598,0.2216 0,-0.29468 0,-0.59038 0,-0.88495 z m -5.75097,5.30885 c 0.44216,0 0.8849,0 1.32648,0 -0.17676,0.7665 0.32957,0.8499 0.22107,1.5476 -0.58915,0 -1.17889,0 -1.76862,0 0.30507,-0.2854 0.21874,-0.9608 0.22107,-1.5476 z m -77.849585,0.221 c 0.442742,0 0.8849,0 1.326475,0 0,0.3681 0,0.7368 0,1.1055 -0.321411,0.1212 -1.143312,-0.2585 -1.105396,0.2216 -0.488824,-0.029 -0.09333,-0.9392 -0.221079,-1.3271 z m 73.868995,4.8655 c 0.51799,0.5134 -0.0449,2.1076 0.66324,2.4331 -0.378,0.2917 -1.86139,-0.1931 -2.87519,0 0.23915,-0.6458 0.49582,-1.2752 0.44215,-2.2121 0.52849,-0.1352 1.6053,0.2771 1.7698,-0.221 z m -68.560764,0.221 c 0.589739,0 1.179477,0 1.769217,0 -0.173247,0.9841 0.294577,1.3266 0.221078,2.2121 -0.68307,-0.5728 -1.572053,0.065 -2.433036,0 0.239162,-0.6463 0.49524,-1.2752 0.442741,-2.2121 z m 11.500204,0.4417 c 0.36923,0 0.73789,0 1.10597,0 0,0.3692 0,0.7379 0,1.106 -0.44217,0 -0.88432,0 -1.32705,0 0.18607,-0.2568 0.29165,-0.5927 0.22108,-1.106 z m 11.28027,0 c 0.22109,0 0.44216,0 0.66324,0 0,0.2946 0,0.5903 0,0.8849 -0.73848,0.2228 -0.72623,-0.3062 -0.66324,-0.8849 z m 22.33716,0 c 0.22108,0 0.44216,0 0.66381,0 0,0.2946 0,0.5903 0,0.8849 -0.73848,0.2228 -0.72565,-0.3062 -0.66381,-0.8849 z m 10.83637,0 c 0.36925,0 0.7379,0 1.10598,0 -0.1604,0.6766 0.38091,0.6509 0.22108,1.3264 -0.44215,0 -0.88548,0 -1.32706,0 0,-0.4415 0,-0.8837 0,-1.3264 z m -39.36665,5.0877 c 0.66324,0 1.32647,0 1.9897,0 -0.15807,1.1153 0.30276,1.614 0.44216,2.4318 -0.63465,-0.4188 -2.20437,-0.2437 -2.87461,0 0.12133,-0.8369 0.53608,-1.3806 0.44275,-2.4318 z m 32.95361,2.4318 c 0.12074,-0.8369 0.53432,-1.3806 0.44216,-2.4318 0.73731,0 1.47464,0 2.21137,0 -0.008,0.9648 -0.0822,1.9972 0.44216,2.4318 -0.37857,0.1874 -2.20029,-0.6305 -3.09569,0 z m -21.6745,-2.2107 c 0.58974,0 1.17948,0 1.76863,0 -0.15166,0.8889 0.21175,1.2623 0.22108,1.9897 -0.75073,-0.3809 -1.62046,-0.1535 -2.43187,0 0.23742,-0.5734 0.53724,-1.0844 0.44216,-1.9897 z m 11.05804,0 c 0.59032,0 1.17947,0 1.76863,0 0.0192,0.718 0.11491,1.3602 0.44333,1.7686 -0.64283,0.4929 -1.56039,-0.2759 -2.43304,0.2211 0.009,-0.7274 0.37391,-1.1008 0.22108,-1.9897 z"
       inkscape:connector-curvature="0"
       style="clip-rule:evenodd;fill-rule:evenodd" />
    <g
       id="g4275"
       transform="translate(4.3749275,-0.59572383)">
      <rect
         style="display:inline;overflow:visible;visibility:visible;opacity:1;fill:#999999;fill-opacity:1;fill-rule:nonzero;stroke:#999999;stroke-width:1.5;stroke-linecap:butt;stroke-linejoin:miter;stroke-miterlimit:4;stroke-dasharray:none;stroke-dashoffset:0;stroke-opacity:1;marker:none;marker-start:none;marker-mid:none;marker-end:none;enable-background:accumulate"
         id="rect2953"
         width="154.04485"
         height="30.581783"
         x="43.60265"
         y="912.66699" />
      <g
         style="fill:#999999;fill-opacity:1;stroke:none"
         id="g3915"
         transform="matrix(1.7504759,0,0,0.89198982,-94.117191,652.57047)">
        <rect
           y="291.13647"
           x="81.923424"
           height="19.539055"
           width="1.8688529"
           id="rect3725"
           style="display:inline;overflow:visible;visibility:visible;opacity:1;fill:#999999;fill-opacity:1;fill-rule:nonzero;stroke:none;stroke-width:0.26172054;stroke-linecap:butt;stroke-linejoin:miter;stroke-miterlimit:4;stroke-dasharray:none;stroke-dashoffset:0;stroke-opacity:1;marker:none;marker-start:none;marker-mid:none;marker-end:none;enable-background:accumulate" />
        <rect
           style="display:inline;overflow:visible;visibility:visible;opacity:1;fill:#999999;fill-opacity:1;fill-rule:nonzero;stroke:none;stroke-width:0.18811963;stroke-linecap:butt;stroke-linejoin:miter;stroke-miterlimit:4;stroke-dasharray:none;stroke-dashoffset:0;stroke-opacity:1;marker:none;marker-start:none;marker-mid:none;marker-end:none;enable-background:accumulate"
           id="rect3727"
           width="1.9424537"
           height="9.7122679"
           x="92.504929"
           y="291.0997" />
        <rect
           style="display:inline;overflow:visible;visibility:visible;opacity:1;fill:#999999;fill-opacity:1;fill-rule:nonzero;stroke:none;stroke-width:0.18811963;stroke-linecap:butt;stroke-linejoin:miter;stroke-miterlimit:4;stroke-dasharray:none;stroke-dashoffset:0;stroke-opacity:1;marker:none;marker-start:none;marker-mid:none;marker-end:none;enable-background:accumulate"
           id="rect3729"
           width="1.9424537"
           height="9.7122679"
           x="87.195778"
           y="291.0997" />
        <rect
           style="display:inline;overflow:visible;visibility:visible;opacity:1;fill:#999999;fill-opacity:1;fill-rule:nonzero;stroke:none;stroke-width:0.18811963;stroke-linecap:butt;stroke-linejoin:miter;stroke-miterlimit:4;stroke-dasharray:none;stroke-dashoffset:0;stroke-opacity:1;marker:none;marker-start:none;marker-mid:none;marker-end:none;enable-background:accumulate"
           id="rect3731"
           width="1.9424537"
           height="9.7122679"
           x="97.814087"
           y="291.0997" />
        <rect
           y="291.0997"
           x="103.12324"
           height="9.7122679"
           width="1.9424537"
           id="rect3733"
           style="display:inline;overflow:visible;visibility:visible;opacity:1;fill:#999999;fill-opacity:1;fill-rule:nonzero;stroke:none;stroke-width:0.18811963;stroke-linecap:butt;stroke-linejoin:miter;stroke-miterlimit:4;stroke-dasharray:none;stroke-dashoffset:0;stroke-opacity:1;marker:none;marker-start:none;marker-mid:none;marker-end:none;enable-background:accumulate" />
        <rect
           style="display:inline;overflow:visible;visibility:visible;opacity:1;fill:#999999;fill-opacity:1;fill-rule:nonzero;stroke:none;stroke-width:0.26172054;stroke-linecap:butt;stroke-linejoin:miter;stroke-miterlimit:4;stroke-dasharray:none;stroke-dashoffset:0;stroke-opacity:1;marker:none;marker-start:none;marker-mid:none;marker-end:none;enable-background:accumulate"
           id="rect3765"
           width="1.8688529"
           height="19.539055"
           x="108.46919"
           y="291.13647" />
        <rect
           y="291.0997"
           x="119.0507"
           height="9.7122679"
           width="1.9424537"
           id="rect3767"
           style="display:inline;overflow:visible;visibility:visible;opacity:1;fill:#999999;fill-opacity:1;fill-rule:nonzero;stroke:none;stroke-width:0.18811963;stroke-linecap:butt;stroke-linejoin:miter;stroke-miterlimit:4;stroke-dasharray:none;stroke-dashoffset:0;stroke-opacity:1;marker:none;marker-start:none;marker-mid:none;marker-end:none;enable-background:accumulate" />
        <rect
           y="291.0997"
           x="113.74155"
           height="9.7122679"
           width="1.9424537"
           id="rect3769"
           style="display:inline;overflow:visible;visibility:visible;opacity:1;fill:#999999;fill-opacity:1;fill-rule:nonzero;stroke:none;stroke-width:0.18811963;stroke-linecap:butt;stroke-linejoin:miter;stroke-miterlimit:4;stroke-dasharray:none;stroke-dashoffset:0;stroke-opacity:1;marker:none;marker-start:none;marker-mid:none;marker-end:none;enable-background:accumulate" />
        <rect
           y="291.0997"
           x="124.35986"
           height="9.7122679"
           width="1.9424537"
           id="rect3771"
           style="display:inline;overflow:visible;visibility:visible;opacity:1;fill:#999999;fill-opacity:1;fill-rule:nonzero;stroke:none;stroke-width:0.18811963;stroke-linecap:butt;stroke-linejoin:miter;stroke-miterlimit:4;stroke-dasharray:none;stroke-dashoffset:0;stroke-opacity:1;marker:none;marker-start:none;marker-mid:none;marker-end:none;enable-background:accumulate" />
        <rect
           style="display:inline;overflow:visible;visibility:visible;opacity:1;fill:#999999;fill-opacity:1;fill-rule:nonzero;stroke:none;stroke-width:0.18811963;stroke-linecap:butt;stroke-linejoin:miter;stroke-miterlimit:4;stroke-dasharray:none;stroke-dashoffset:0;stroke-opacity:1;marker:none;marker-start:none;marker-mid:none;marker-end:none;enable-background:accumulate"
           id="rect3773"
           width="1.9424537"
           height="9.7122679"
           x="129.66901"
           y="291.0997" />
        <rect
           y="291.13647"
           x="135.01497"
           height="19.539055"
           width="1.8688529"
           id="rect3779"
           style="display:inline;overflow:visible;visibility:visible;opacity:1;fill:#999999;fill-opacity:1;fill-rule:nonzero;stroke:none;stroke-width:0.26172054;stroke-linecap:butt;stroke-linejoin:miter;stroke-miterlimit:4;stroke-dasharray:none;stroke-dashoffset:0;stroke-opacity:1;marker:none;marker-start:none;marker-mid:none;marker-end:none;enable-background:accumulate" />
        <rect
           style="display:inline;overflow:visible;visibility:visible;opacity:1;fill:#999999;fill-opacity:1;fill-rule:nonzero;stroke:none;stroke-width:0.18811963;stroke-linecap:butt;stroke-linejoin:miter;stroke-miterlimit:4;stroke-dasharray:none;stroke-dashoffset:0;stroke-opacity:1;marker:none;marker-start:none;marker-mid:none;marker-end:none;enable-background:accumulate"
           id="rect3781"
           width="1.9424537"
           height="9.7122679"
           x="145.59648"
           y="291.0997" />
        <rect
           style="display:inline;overflow:visible;visibility:visible;opacity:1;fill:#999999;fill-opacity:1;fill-rule:nonzero;stroke:none;stroke-width:0.18811963;stroke-linecap:butt;stroke-linejoin:miter;stroke-miterlimit:4;stroke-dasharray:none;stroke-dashoffset:0;stroke-opacity:1;marker:none;marker-start:none;marker-mid:none;marker-end:none;enable-background:accumulate"
           id="rect3783"
           width="1.9424537"
           height="9.7122679"
           x="140.28732"
           y="291.0997" />
        <rect
           style="display:inline;overflow:visible;visibility:visible;opacity:1;fill:#999999;fill-opacity:1;fill-rule:nonzero;stroke:none;stroke-width:0.18811963;stroke-linecap:butt;stroke-linejoin:miter;stroke-miterlimit:4;stroke-dasharray:none;stroke-dashoffset:0;stroke-opacity:1;marker:none;marker-start:none;marker-mid:none;marker-end:none;enable-background:accumulate"
           id="rect3785"
           width="1.9424537"
           height="9.7122679"
           x="150.90564"
           y="291.0997" />
        <rect
           y="291.0997"
           x="156.21478"
           height="9.7122679"
           width="1.9424537"
           id="rect3787"
           style="display:inline;overflow:visible;visibility:visible;opacity:1;fill:#999999;fill-opacity:1;fill-rule:nonzero;stroke:none;stroke-width:0.18811963;stroke-linecap:butt;stroke-linejoin:miter;stroke-miterlimit:4;stroke-dasharray:none;stroke-dashoffset:0;stroke-opacity:1;marker:none;marker-start:none;marker-mid:none;marker-end:none;enable-background:accumulate" />
        <rect
           style="display:inline;overflow:visible;visibility:visible;opacity:1;fill:#999999;fill-opacity:1;fill-rule:nonzero;stroke:none;stroke-width:0.26172054;stroke-linecap:butt;stroke-linejoin:miter;stroke-miterlimit:4;stroke-dasharray:none;stroke-dashoffset:0;stroke-opacity:1;marker:none;marker-start:none;marker-mid:none;marker-end:none;enable-background:accumulate"
           id="rect3907"
           width="1.8688529"
           height="19.539055"
           x="161.56073"
           y="291.13651" />
      </g>
      <path
         inkscape:connector-curvature="0"
         id="path4192"
         d="m 44.911759,927.16565 0,-15.20215 2.023486,0 2.023486,0 0,8.56044 0,8.56043 1.953712,0 1.953711,0 0,-8.56043 0,-8.56044 2.721238,0 2.721243,0 0,3.91541 0,3.91538 1.918822,-0.0411 1.918825,-0.0411 0.0372,-3.87433 0.0372,-3.87433 2.649146,0 2.649151,0 0,3.91123 0,3.91124 1.953711,0 1.953711,0 0,-3.91124 0,-3.91123 2.721243,0 2.721238,0 0,3.91123 0,3.91124 1.953712,0 1.953711,0 0,-3.91124 0,-3.91123 2.721242,0 2.721239,0 0,3.91123 0,3.91124 1.883936,0 1.883937,0 0,-3.91124 0,-3.91123 2.721242,0 2.721239,0 0,8.56043 0,8.56043 1.953711,0 1.953711,0 0,-8.56043 0,-8.56043 2.721238,0 2.72124,0 0,3.91123 0,3.91124 1.88394,0 1.88393,0 0,-3.91124 0,-3.91123 2.72125,0 2.72124,0 0,3.91123 0,3.91124 1.95371,0 1.95371,0 0,-3.91124 0,-3.91123 2.72124,0 2.72124,0 0,3.91123 0,3.91124 1.95371,0 1.95371,0 0,-3.91124 0,-3.91123 2.72124,0 2.72124,0 0,3.91123 0,3.91124 1.88394,0 1.88394,0 0,-3.91124 0,-3.91123 2.72124,0 2.72124,0 0,8.56043 0,8.56043 1.95371,0 1.95371,0 0,-8.56043 0,-8.56043 2.72124,0 2.72124,0 0,3.91123 0,3.91124 1.88394,0 1.88393,0 0,-3.91124 0,-3.91123 2.72124,0 2.72124,0 0,3.91123 0,3.91124 1.95371,0 1.95372,0 0,-3.91124 0,-3.91123 2.72124,0 2.72124,0 0,3.91123 0,3.91124 1.95371,0 1.95371,0 0,-3.91124 0,-3.91123 2.72124,0 2.72124,0 0,3.91123 0,3.91124 1.88394,0 1.88393,0 0,-3.91124 0,-3.91123 2.72125,0 2.72123,0 0,8.56043 0,8.56043 1.95372,0 1.95371,0 0,-8.56043 0,-8.56043 2.02349,0 2.02348,0 0,15.20214 0,15.20214 -75.70631,0 -75.706311,0 0,-15.20214 z"
         style="opacity:1;fill:#ffe680;fill-opacity:1;stroke:#000000;stroke-width:0;stroke-miterlimit:4;stroke-dasharray:none;stroke-dashoffset:0;stroke-opacity:1" />
    </g>
  </g>
</svg>
