<?xml version="1.0" encoding="UTF-8" standalone="no"?>
<!-- Created with Inkscape (http://www.inkscape.org/) -->

<svg
   xmlns:dc="http://purl.org/dc/elements/1.1/"
   xmlns:cc="http://creativecommons.org/ns#"
   xmlns:rdf="http://www.w3.org/1999/02/22-rdf-syntax-ns#"
   xmlns:svg="http://www.w3.org/2000/svg"
   xmlns="http://www.w3.org/2000/svg"
   xmlns:sodipodi="http://sodipodi.sourceforge.net/DTD/sodipodi-0.dtd"
   xmlns:inkscape="http://www.inkscape.org/namespaces/inkscape"
   width="4in"
   height="3in"
   viewBox="0 0 101.6 76.200004"
   version="1.1"
   id="svg897"
   sodipodi:docname="pokimon-go-yellow-team.svg"
   inkscape:version="0.92.5 (0.92.5+69)">
  <defs
     id="defs891" />
  <sodipodi:namedview
     id="base"
     pagecolor="#ffffff"
     bordercolor="#666666"
     borderopacity="1.0"
     inkscape:pageopacity="0.0"
     inkscape:pageshadow="2"
     inkscape:zoom="0.49497475"
     inkscape:cx="639.38363"
     inkscape:cy="388.57143"
     inkscape:document-units="mm"
     inkscape:current-layer="layer1"
     showgrid="false"
     units="in"
     inkscape:window-width="1853"
     inkscape:window-height="1025"
     inkscape:window-x="67"
     inkscape:window-y="27"
     inkscape:window-maximized="1" />
  <metadata
     id="metadata894">
    <rdf:RDF>
      <cc:Work
         rdf:about="">
        <dc:format>image/svg+xml</dc:format>
        <dc:type
           rdf:resource="http://purl.org/dc/dcmitype/StillImage" />
        <dc:title></dc:title>
      </cc:Work>
    </rdf:RDF>
  </metadata>
  <g
     inkscape:label="Layer 1"
     inkscape:groupmode="layer"
     id="layer1"
     transform="translate(0,-220.8)">
    <g
       id="g1584"
       transform="matrix(0.45106507,0,0,0.45106507,-6.0367501,163.54033)">
      <path
         style="fill:none;stroke:#ff0000;stroke-width:0.69566894;stroke-opacity:1"
         inkscape:connector-curvature="0"
         id="path2"
         d="m 44.090672,150.63774 c 0,0.0697 0,0.13909 -0.06957,0.13909 -0.06957,0 -0.139142,-0.0697 -0.06957,-0.13909 0,0 0.06957,0 0.139142,0 z" />
      <path
         transform="matrix(0.26458333,0,0,0.26458333,0,119.2)"
         id="path14"
         d="m 200.56055,71.755859 85.72656,148.441411 c -6.92794,-2.25775 -13.85527,-4.50957 -20.7832,-6.72266 -28.39644,-9.20255 -56.52935,-18.40413 -84.92579,-27.34375 l -12.62109,-3.94531 h -0.78906 c 0.78879,1.05172 1.84012,1.57765 2.62891,2.10351 6.83617,4.73274 13.9353,9.7282 20.77148,14.46094 39.96536,28.13351 80.19405,56.26836 119.89648,84.92773 7.16762,5.11973 14.33434,10.4843 21.50196,15.61719 l 1.33789,2.31446 c -2.92283,0.20281 -6.01909,0.23222 -8.9043,0.47265 h -2.62891 c -4.46981,0.26293 -8.67667,0.26246 -13.14648,0.52539 -2.89223,0 -5.52183,0.26367 -8.41406,0.26367 -4.73274,0.26293 -9.20281,-4.7e-4 -13.93555,0.52539 h -2.62891 c -7.09911,0 -14.19971,0.52614 -21.29882,0.78907 h -0.78711 c 0,0 -0.26367,7.4e-4 -0.26367,0.26367 0,0.26293 7.4e-4,0.52539 0.26367,0.52539 0.52586,0.26293 1.31398,0.52613 1.83984,0.78906 15.51287,5.78446 31.28791,11.56906 46.80078,17.35352 15.11356,5.47593 30.05283,10.95995 45.10547,16.58789 l 13.46094,23.3125 -3.61328,2.16797 c -0.78879,0.52586 -1.84133,0.78933 -2.36719,1.57812 0.75891,0.75891 1.32514,1.09644 12.56641,7.6543 l 48.42968,83.86133 c -15.05,9.7231 -30.09391,19.44486 -45.21875,29.16797 -1.05172,0.52586 -1.84086,1.31593 -2.89257,1.84179 0,0 -0.26293,0.26172 0,0.26172 0,0 0.26246,0.26367 0.52539,0.26367 1.05172,0 2.10378,-0.26367 2.89257,-0.26367 2.6293,-0.52586 4.9957,-0.78859 7.625,-1.31445 3.68102,-0.52586 7.36195,-1.31399 11.04297,-1.83985 3.41809,-0.52586 6.57215,-1.05226 9.99024,-1.57812 3.68102,-0.52586 7.62562,-1.31398 11.30664,-1.83984 2.6293,-0.26293 4.9957,-0.78981 7.625,-1.05274 0.52586,0 0.78906,0.52613 0.78906,0.78906 -0.52586,1.05172 -0.78859,2.10258 -1.31445,3.1543 -6.83618,14.46115 -13.67359,29.18534 -20.50977,43.64648 -0.26293,0.78879 -0.78785,1.5784 -1.05078,2.36719 0,0.26293 7.4e-4,0.26246 0.26367,0.52539 h 0.26172 c 0.78879,-0.52586 1.84012,-0.78859 2.62891,-1.31445 9.72841,-5.52153 19.45788,-11.04292 29.44922,-16.56445 4.79818,-2.76819 9.59634,-5.40866 14.39453,-8.09961 l 19.66601,34.05273 c 0.21207,0.72317 0.43604,1.45815 0.64649,2.17969 4.73274,16.03873 9.46526,32.34213 14.46093,48.38086 1.05172,3.15516 1.84086,6.30894 2.89258,9.20117 0.52586,-0.26293 0.78711,-0.52492 0.78711,-1.05078 0.26293,-1.05172 0.78981,-2.36699 1.05274,-3.68164 3.68102,-13.40943 7.36195,-27.08081 11.04296,-40.49024 3.2902,-11.72131 6.57583,-23.44782 9.74024,-35.29492 l 9.86328,-17.07812 c 11.18889,6.87241 22.59942,13.96472 33.77148,20.82031 4.46981,2.89223 9.20207,5.78476 13.67188,8.41406 0.26293,0.26293 0.78859,0.26246 1.31445,0.52539 0,0 0.26367,0.001 0.26367,-0.26172 0.26293,-0.78879 -0.26246,-1.31593 -0.52539,-1.84179 -5.78446,-14.19822 -11.56905,-28.13381 -17.35351,-42.33203 -0.52586,-1.57758 -1.05301,-2.89117 -1.8418,-4.46875 -0.26293,-0.52586 0.2632,-1.05274 0.78906,-1.05274 1.84051,0 3.94465,0.26367 5.78516,0.26367 3.41809,0.26293 6.57215,0.78981 9.99024,1.05274 3.68101,0.26293 7.36194,0.52492 11.04296,1.05078 h 1.05274 c 3.41809,0.26293 6.5741,0.78785 9.99219,1.05078 3.68102,0.26293 7.36194,0.52688 11.04296,1.05274 0.78879,0 1.31473,0.26367 2.10352,0.26367 h 1.31445 0.26172 c 0,-0.26293 10e-4,-0.52735 -0.26172,-0.52735 -0.52586,-0.52586 -1.31593,-0.78859 -1.84179,-1.31445 -4.46981,-2.89223 -9.20281,-5.52183 -13.93555,-8.41406 -12.76299,-7.80795 -25.52607,-15.60821 -38.28906,-23.36719 l 45.24804,-78.34961 c 4.86705,-2.80794 9.73452,-5.61954 14.60157,-8.44922 0.78879,-0.26293 1.31472,-0.79054 2.10351,-1.3164 0.26293,-0.26293 0.26246,-0.52418 0.52539,-0.78711 -1.05172,-0.78879 -1.8389,-1.31594 -2.89062,-1.8418 -1.71988,-1.14659 -3.4781,-2.25504 -5.24219,-3.35742 l 9.25586,-16.02735 c 9.76998,-4.12035 19.53045,-8.23282 29.37695,-12.42968 20.77147,-8.67669 41.28127,-17.35335 62.05274,-26.29297 l 1.57617,-0.78906 c 0.26293,0 0.5266,-0.26247 0.26367,-0.5254 0,-0.26293 -0.26246,-0.26367 -0.52539,-0.26367 -6.04739,-0.26293 -11.83152,-0.52539 -17.87891,-0.52539 -7.36204,-0.26293 -14.72464,-0.26172 -22.34961,-0.26172 -4.73274,0 -9.2028,-0.26367 -13.93554,-0.26367 -4.85815,0 -9.71608,-0.009 -14.57422,-0.2168 l 1.98633,-3.43945 c 18.0802,-13.38085 36.3471,-26.57661 54.39453,-39.99023 32.34039,-23.6637 64.94281,-47.59021 97.2832,-71.25391 1.05172,-0.78879 1.84012,-1.31547 2.62891,-2.36719 -0.78879,0.26293 -1.57645,0.26442 -2.36524,0.52735 -13.40943,4.20688 -26.81834,8.67593 -39.96484,12.88281 -22.25535,7.14621 -44.4752,14.42551 -66.60742,21.64258 L 770.5918,71.755859 521.66992,213.21094 c 6.54933,-20.5153 13.09716,-41.08355 19.64649,-61.52539 1.31465,-4.46981 2.89238,-8.9384 4.20703,-13.40821 v -1.05273 c -1.31465,1.57758 -2.36551,3.15605 -3.1543,4.4707 -18.4051,26.81886 -37.33588,53.11204 -56.00391,79.66797 -0.26293,0.52586 -0.7898,0.78859 -1.05273,1.31445 -0.26293,0.26293 -0.78906,0.26293 -0.78906,0 -0.52586,-0.78879 -1.05031,-1.31472 -1.57617,-2.10351 l -41.80665,-57.58203 c -3.94394,-5.2586 -7.88808,-10.78047 -11.83203,-16.03907 -0.26293,-0.52585 -0.52566,-1.31445 -1.31445,-1.31445 0,1.84051 0.78859,3.15484 1.31445,4.73242 l 18.94532,62.14063 z m 67.83593,62.050781 164.94922,98.84961 c 0.92046,3.42218 1.94329,6.84345 2.79883,10.26563 0.26293,0.52585 0.26442,1.31593 0.52735,1.84179 0,0.52586 -0.26321,1.05199 -0.78907,0.78906 h -0.26367 c -12.88357,-3.15516 -25.76682,-6.57335 -38.65039,-9.72851 -2.89223,-0.78879 -5.78429,-1.31473 -8.93945,-2.10352 0,0.26293 -10e-4,0.52539 0.26172,0.52539 0.52586,0.52586 1.053,1.05227 1.84179,1.57813 11.56892,8.67669 22.87444,17.61628 34.44336,26.29297 l -28.92187,-5.25977 c -1.05172,-0.78879 -2.10453,-1.31472 -3.15625,-2.10351 -9.20255,-5.78446 -18.40488,-11.83078 -27.60743,-17.61524 -0.78878,-0.52586 -1.57644,-1.05152 -2.36523,-1.31445 -0.26293,0 -0.52734,-0.26293 -0.52734,0 -0.26293,0 -0.26172,0.52539 -0.26172,0.52539 0.52586,2.36637 1.05105,4.46957 1.83984,6.83594 0,0.52586 0.26367,0.78859 0.26367,1.31445 0,0.26293 -0.26246,0.52539 -0.52539,0.52539 -0.52586,0 -0.79054,0.001 -1.3164,-0.26172 -12.04315,-3.8538 -24.28896,-7.91189 -36.36914,-11.80273 z m 434.35938,0 -57.05664,98.84766 -35.75781,11.58398 c -0.52586,0.26293 -0.7886,0.26172 -1.31446,0.26172 -0.26293,0 -0.52613,-0.26172 -0.78906,-0.26172 0.52586,-1.84051 0.78981,-3.68172 1.05273,-5.78516 0.26293,-1.8405 1.05079,-3.68171 1.05079,-5.78515 -0.26293,0 -0.78786,7.4e-4 -1.05079,0.26367 -0.78878,0.26293 -1.31472,0.78859 -2.10351,1.31445 -12.62064,8.15083 -25.50436,16.3023 -38.125,24.45313 l -24.97852,4.46875 c 7.09911,-5.2586 14.19777,-10.51753 21.29688,-16.03906 4.46981,-3.41809 8.67667,-6.57215 13.14648,-9.99024 0.52586,-0.26293 1.05274,-0.52566 1.05274,-1.31445 -1.05172,0.26293 -2.10453,0.26246 -3.15625,0.52539 -12.09478,2.89223 -24.4521,6.04722 -36.54688,8.93945 -1.84051,0.52586 -3.94464,1.05227 -5.78515,1.57813 -1.05172,0.26293 -1.57739,-0.001 -1.31446,-1.05274 0.91444,-3.88636 1.84048,-7.77184 2.92774,-11.6582 z m -257.4082,146.71484 c -0.26293,0.26293 -0.52493,0.78981 -1.05078,1.05274 -9.46548,9.99134 -18.93101,19.98253 -28.39649,29.71094 -1.05172,1.05172 -2.10379,2.10257 -2.89258,3.15429 -0.26293,0.26293 -0.26367,0.52688 -0.26367,1.05274 h 1.31445 l 15.77539,-2.36719 c 3.68102,-0.52586 7.36195,-1.31398 11.04297,-1.83984 3.15516,-0.52586 6.31043,-1.05227 9.72852,-1.57813 h 1.05273 c 0.52586,0 0.78785,0.26246 1.05078,0.52539 0.26293,1.05172 0.78981,1.84086 1.05274,2.89258 0.78879,2.6293 1.84012,4.9957 2.6289,7.625 0,0.26293 0.26368,0.52687 0.26368,1.05273 0.26293,0.52586 0.78859,0.78832 1.31445,0.52539 2.89223,-1.05171 5.52109,-2.10331 8.15039,-3.41796 l -11.04297,25.24023 c -0.26293,0.26293 -0.52613,0 -0.78906,0 -0.26293,-0.26293 -0.26172,-0.26246 -0.26172,-0.52539 l -5.52344,-19.7207 c -0.26293,-1.31465 -0.78785,-2.62871 -1.05078,-3.94336 0,-0.52586 -0.52492,-0.78906 -1.05078,-0.78906 h -1.05273 c -3.94395,0.78878 -8.1498,1.57913 -12.09375,2.63085 -6.04739,1.31465 -12.35886,2.36504 -18.40625,3.67969 -9.46548,1.84051 -18.93101,3.94465 -28.39649,5.78516 h -0.26172 c -0.52586,0 -1.05273,-7.4e-4 -1.05273,-0.26367 0,-0.26293 0.26246,-0.52614 0.52539,-0.78907 l 8.67773,-9.46484 c 8.41376,-9.46548 17.09015,-18.93026 25.50391,-28.13281 z m 80.45703,1.05274 24.18945,11.56836 c 12.35771,12.62064 24.71577,25.50436 36.81055,38.125 0.34461,0.34461 0.79825,0.80629 1.2207,1.30273 l -0.49219,0.85352 c -0.43966,-0.0683 -0.8789,-0.19075 -1.25586,-0.31641 -3.41809,-0.78879 -7.09753,-1.57644 -10.51562,-2.36523 -8.67669,-1.84051 -17.35456,-3.94465 -26.03125,-5.78516 -8.15083,-1.84051 -16.30109,-3.68097 -24.71485,-5.52148 -0.52585,-0.26293 -1.05152,2.7e-4 -1.31445,0.78906 -0.26293,0.52586 -0.26246,1.05226 -0.52539,1.57812 -2.10344,7.36204 -3.94539,14.98562 -6.04883,22.34766 0,0.52586 -0.26246,0.78859 -0.52539,1.31445 l -9.46484,-22.08593 c 0.78879,0.52586 1.31472,1.05226 2.10351,1.57812 0.52586,0.52586 1.05032,0.78859 1.57618,1.31445 0.26293,0.26293 0.52613,0.26247 0.78906,0.5254 0.52586,0.26292 1.05152,4.6e-4 1.31445,-0.5254 0.78879,-4.46981 1.57766,-9.20206 2.10352,-13.67187 0.26293,-1.05172 0.52734,-2.10332 0.52734,-3.41797 0,-0.52586 0.52492,-0.78832 1.05078,-0.52539 h 1.05274 c 2.36637,0.52586 4.73249,0.78859 6.83593,1.31445 5.52153,1.05172 10.77926,2.10258 16.30079,3.1543 4.99567,1.05172 9.99261,1.84012 14.98828,2.62891 0.78879,0.26293 1.84011,0.26367 2.6289,0.26367 0.26293,0 0.52539,-7.4e-4 0.52539,-0.26367 0.26293,-0.26293 0,-0.52539 0,-0.52539 l -2.36718,-2.36719 c -9.99134,-10.25427 -19.98132,-20.50866 -29.97266,-30.5 z m -39.73633,0.32812 c 0.16433,0 0.29687,0.0658 0.29687,0.19727 0.52586,0.52586 0.7886,1.05226 1.31446,1.57812 2.36637,3.41809 4.99496,6.83508 7.36133,9.99024 0.26293,0.26293 0.52613,0.7898 0.78906,1.05273 0.52586,0.78879 0.78906,1.57645 0.78906,2.36524 -0.26293,1.84051 -0.52539,3.94343 -0.52539,6.04687 -0.26293,3.94395 -0.7898,8.15176 -1.05273,12.09571 -0.26293,3.68102 -0.78786,7.09827 -1.05079,10.77929 -0.26293,2.89223 -0.52613,5.52184 -0.78906,8.41407 -0.26293,3.41808 -0.52613,6.83655 -0.78906,10.51757 -0.26293,3.94395 -0.78785,8.15176 -1.05078,12.09571 -0.26293,2.89223 -0.52613,6.04722 -0.78906,8.93945 l -1.57813,18.14062 c -0.52586,7.36204 -1.31473,14.46218 -2.10352,21.82422 -0.78878,-2.6293 -1.05152,-5.25863 -1.31445,-7.625 -0.26293,-2.36637 -0.52613,-4.99496 -0.78906,-7.36133 -0.52586,-3.94394 -0.78859,-8.15175 -1.31445,-12.0957 -0.26293,-2.89223 -0.78981,-5.78355 -1.05274,-8.67578 -0.26293,-2.6293 -0.52418,-5.25863 -0.78711,-7.625 -0.52586,-5.2586 -1.05226,-10.78046 -1.57812,-16.03906 l -1.57813,-14.98828 -1.57812,-15.77539 c -0.52586,-5.2586 -1.05106,-10.51679 -1.83985,-15.77539 -0.26293,-1.31465 -0.26367,-2.367 -0.26367,-3.68164 3.41809,-4.73274 6.83656,-9.20281 10.51758,-13.93555 l 0.26367,-0.26172 c 0.13147,-0.13147 0.32786,-0.19727 0.49219,-0.19727 z m -63.77344,118.52539 c 3.37804,1.90473 6.7162,3.78486 10.16992,5.51172 l 14.19727,7.88867 c 1.31465,0.78879 2.36699,1.31473 3.68164,2.10352 l 8.93945,19.45508 c -0.26293,0.26293 -0.7898,0.52613 -1.05273,0.78906 -0.78879,0.52586 -1.57719,1.05227 -2.62891,1.57813 -2.86663,1.84283 -5.70946,3.68646 -8.57031,5.52929 z m 125.36328,2.08008 -21.21289,36.74805 c -1.70365,-1.02513 -3.40767,-2.05789 -5.11133,-3.08008 -1.05172,-0.52586 -1.84085,-1.05105 -2.89257,-1.83984 l 3.94531,-18.14258 c 5.2586,-2.89223 14.46015,-7.36242 19.71875,-10.51758 1.85076,-1.0545 3.70197,-2.11332 5.55273,-3.16797 z"
         style="fill:none;fill-opacity:1;stroke:#ff0000;stroke-width:2.62929988;stroke-opacity:1"
         inkscape:connector-curvature="0" />
      <g
         id="g26"
         transform="matrix(0.69566895,0,0,0.69566895,-306.59604,-4.4964268)"
         style="fill:none;stroke:#ff0000;stroke-opacity:1">
        <path
           style="fill:none;stroke:#ff0000;stroke-opacity:1"
           inkscape:connector-curvature="0"
           id="path18"
           d="m 614.2,300.2 c 0,-0.1 -0.1,-0.2 -0.1,-0.4 -0.3,-1 -0.7,-1.9 -1,-2.9 -0.1,-0.4 -0.3,-0.7 -0.4,-1.1 -0.1,-0.2 -0.2,-0.3 -0.4,-0.2 -0.1,0 -0.3,0 -0.4,0 -1.2,0.2 -2.4,0.4 -3.7,0.6 -1.4,0.2 -2.8,0.5 -4.2,0.7 -2,0.3 -4,0.6 -6,0.9 -0.2,0 -0.3,0 -0.5,0 0.1,-0.2 0.1,-0.3 0.1,-0.4 0.4,-0.4 0.8,-0.8 1.1,-1.2 3.6,-3.8 7.2,-7.6 10.8,-11.3 0.1,-0.2 0.3,-0.3 0.4,-0.4 0,0 0,0 0,0 l -9.7,4.6 c -3.2,3.6 -6.5,7.2 -9.7,10.7 -1.1,1.2 -2.2,2.4 -3.3,3.6 -0.1,0.1 -0.2,0.2 -0.2,0.3 0,0.1 0.2,0.1 0.4,0.1 0,0 0.1,0 0.1,0 3.6,-0.7 7.2,-1.5 10.8,-2.2 2.3,-0.5 4.7,-0.9 7,-1.4 1.5,-0.3 3.1,-0.6 4.6,-1 0.1,0 0.3,0 0.4,0 0.2,0 0.3,0.1 0.4,0.3 0.1,0.5 0.3,1 0.4,1.5 0.7,2.5 1.4,5 2.1,7.5 0,0.1 0.1,0.2 0.1,0.2 0,0 0.2,0.1 0.2,0.1 0,0 0,0 0.1,-0.1 l 4.1,-9.5 c -1.1,0.4 -2.1,0.8 -3.1,1.3 -0.1,0 -0.3,-0.1 -0.4,-0.3 z" />
        <path
           style="fill:none;stroke:#ff0000;stroke-opacity:1"
           inkscape:connector-curvature="0"
           id="path20"
           d="m 629,289.4 c -0.9,-1.3 -1.9,-2.6 -2.8,-3.8 -0.2,-0.2 -0.3,-0.4 -0.5,-0.6 -0.1,-0.1 -0.3,-0.1 -0.3,0 0,0 -0.1,0.1 -0.1,0.1 -1.3,1.8 -2.6,3.6 -4,5.3 0,0.5 0,1 0.1,1.4 0.2,2 0.4,4 0.7,6 0.2,2 0.4,4 0.6,6 0.2,1.9 0.4,3.8 0.6,5.7 0.2,2 0.4,4.1 0.6,6.1 0.1,1 0.2,2 0.3,2.9 0.1,1.1 0.3,2.2 0.4,3.3 0.2,1.5 0.3,3.1 0.5,4.6 0.1,0.9 0.2,1.9 0.3,2.8 0.1,1 0.2,2 0.5,2.9 0.3,-2.8 0.5,-5.5 0.8,-8.3 0.2,-2.3 0.4,-4.6 0.6,-6.9 0.1,-1.1 0.2,-2.3 0.3,-3.4 0.1,-1.5 0.3,-3.1 0.4,-4.6 0.1,-1.3 0.2,-2.6 0.3,-4 0.1,-1.1 0.2,-2.1 0.3,-3.2 0.1,-1.4 0.3,-2.7 0.4,-4.1 0.1,-1.5 0.3,-3.1 0.4,-4.6 0.1,-0.8 0.1,-1.6 0.2,-2.4 0,-0.4 -0.1,-0.7 -0.3,-0.9 -0.1,-0.1 -0.2,-0.2 -0.3,-0.3 z" />
        <path
           style="fill:none;stroke:#ff0000;stroke-opacity:1"
           inkscape:connector-curvature="0"
           id="path22"
           d="m 664.1,303.6 c -4.7,-4.8 -9.4,-9.7 -14,-14.5 l -9.2,-4.4 c 0.1,0.1 0.2,0.2 0.3,0.3 3.8,3.9 7.6,7.8 11.4,11.6 0.3,0.3 0.6,0.6 0.9,0.9 0.1,0.1 0.1,0.2 0,0.2 -0.1,0.1 -0.1,0.1 -0.2,0.1 -0.3,0 -0.7,0 -1,-0.1 -1.9,-0.3 -3.8,-0.7 -5.7,-1 -2.1,-0.4 -4.1,-0.8 -6.2,-1.2 -0.9,-0.2 -1.8,-0.3 -2.6,-0.5 -0.1,0 -0.3,0 -0.4,0 -0.2,0 -0.4,0.1 -0.4,0.2 -0.1,0.4 -0.2,0.8 -0.2,1.3 -0.3,1.7 -0.6,3.5 -0.8,5.2 0,0.2 -0.3,0.4 -0.5,0.2 -0.1,-0.1 -0.2,-0.1 -0.3,-0.2 -0.2,-0.2 -0.4,-0.3 -0.6,-0.5 -0.3,-0.2 -0.5,-0.4 -0.8,-0.6 l 3.6,8.4 c 0,0 0,0 0,0 0.1,-0.1 0.2,-0.3 0.2,-0.5 0.8,-2.8 1.5,-5.7 2.3,-8.5 0.1,-0.2 0.1,-0.4 0.2,-0.6 0.1,-0.2 0.3,-0.3 0.5,-0.3 3.1,0.7 6.2,1.4 9.4,2.1 3.3,0.7 6.6,1.5 9.9,2.2 1.3,0.3 2.7,0.6 4,0.9 0.3,0.1 0.7,0.2 1,0.1 0,0 0.1,0 0.1,-0.1 0,0 0,-0.1 0,-0.1 -0.4,-0.1 -0.7,-0.3 -0.9,-0.6 z" />
      </g>
    </g>
  </g>
</svg>
