<?xml version="1.0" encoding="UTF-8" standalone="no"?>
<!-- Created with Inkscape (http://www.inkscape.org/) -->

<svg
   xmlns:dc="http://purl.org/dc/elements/1.1/"
   xmlns:cc="http://creativecommons.org/ns#"
   xmlns:rdf="http://www.w3.org/1999/02/22-rdf-syntax-ns#"
   xmlns:svg="http://www.w3.org/2000/svg"
   xmlns="http://www.w3.org/2000/svg"
   xmlns:sodipodi="http://sodipodi.sourceforge.net/DTD/sodipodi-0.dtd"
   xmlns:inkscape="http://www.inkscape.org/namespaces/inkscape"
   width="210mm"
   height="297mm"
   viewBox="0 0 744.09448819 1052.3622047"
   id="svg2"
   version="1.1"
   inkscape:version="0.91 r13725"
   sodipodi:docname="ce.svg">
  <defs
     id="defs4" />
  <sodipodi:namedview
     id="base"
     pagecolor="#ffffff"
     bordercolor="#666666"
     borderopacity="1.0"
     inkscape:pageopacity="0.0"
     inkscape:pageshadow="2"
     inkscape:zoom="1.41"
     inkscape:cx="290.79215"
     inkscape:cy="784.80243"
     inkscape:document-units="px"
     inkscape:current-layer="layer1"
     showgrid="false"
     inkscape:window-width="2560"
     inkscape:window-height="1646"
     inkscape:window-x="0"
     inkscape:window-y="25"
     inkscape:window-maximized="1" />
  <metadata
     id="metadata7">
    <rdf:RDF>
      <cc:Work
         rdf:about="">
        <dc:format>image/svg+xml</dc:format>
        <dc:type
           rdf:resource="http://purl.org/dc/dcmitype/StillImage" />
        <dc:title></dc:title>
      </cc:Work>
    </rdf:RDF>
  </metadata>
  <g
     inkscape:label="Layer 1"
     inkscape:groupmode="layer"
     id="layer1">
    <path
       inkscape:connector-curvature="0"
       style="font-style:normal;font-variant:normal;font-weight:normal;font-stretch:normal;font-size:medium;line-height:125%;font-family:Didot;-inkscape-font-specification:Didot;letter-spacing:0px;word-spacing:0px;fill:#000000;fill-opacity:1;stroke:#000000;stroke-width:0.1;stroke-linecap:butt;stroke-linejoin:miter;stroke-miterlimit:4;stroke-dasharray:none;stroke-opacity:1"
       d="M 61.703104,2.395303 A 58.47802,58.47802 0 0 0 3.2245873,60.871866 58.47802,58.47802 0 0 0 61.703104,119.35039 58.47802,58.47802 0 0 0 120.17967,60.871866 58.47802,58.47802 0 0 0 61.703104,2.395303 Z M 41.695291,34.797647 c 1.446638,0 2.729632,0.139927 3.84961,0.419922 1.119977,0.279994 2.123116,0.607143 3.009765,0.980469 0.886649,0.32666 1.702568,0.630161 2.449219,0.910156 0.746652,0.279994 1.469936,0.419922 2.169922,0.419922 0.933315,0 1.587611,-0.139928 1.960938,-0.419922 0.419991,-0.32666 0.79248,-0.677455 1.11914,-1.050781 l 1.050781,0 0,14 -0.769531,0 c -0.419991,-1.773298 -0.958008,-3.523368 -1.611328,-5.25 -0.653321,-1.726632 -1.561873,-3.242188 -2.728516,-4.548828 -1.166643,-1.353307 -2.660504,-2.427386 -4.480468,-3.220703 -1.773298,-0.839984 -3.990444,-1.259766 -6.650391,-1.259766 -2.473284,0 -4.595843,0.396136 -6.369141,1.189453 -1.773297,0.746652 -3.267159,1.773438 -4.480468,3.080078 -1.213309,1.259975 -2.1928,2.753837 -2.939454,4.480469 -0.699984,1.679966 -1.236049,3.475377 -1.609374,5.388672 -0.373327,1.866629 -0.631488,3.780274 -0.771485,5.740234 -0.09333,1.913295 -0.138672,3.734306 -0.138672,5.460938 0,4.899902 0.396136,8.959752 1.189453,12.179687 0.793318,3.219936 1.889091,5.762277 3.289063,7.628906 1.446637,1.866631 3.173061,3.173271 5.179687,3.919922 2.006627,0.746652 4.223773,1.121094 6.650391,1.121094 3.126604,0 5.647252,-0.443429 7.560547,-1.330078 1.913295,-0.886649 3.452498,-2.029715 4.61914,-3.429688 1.166644,-1.446636 2.053502,-3.05678 2.660157,-4.830078 0.606654,-1.819963 1.142717,-3.617327 1.609375,-5.390625 l 0.771484,0 0,14.910157 -1.050781,0 c -0.32666,-0.373326 -0.699149,-0.700475 -1.119141,-0.980469 -0.419991,-0.32666 -1.074288,-0.490234 -1.960937,-0.490235 -0.699986,0 -1.470564,0.139928 -2.310547,0.419922 -0.793318,0.233329 -1.725517,0.513184 -2.798828,0.839844 -1.026646,0.326661 -2.19336,0.606515 -3.5,0.839844 -1.306641,0.279994 -2.753209,0.419922 -4.339844,0.419922 -2.939941,0 -5.809432,-0.536063 -8.609375,-1.609375 -2.753279,-1.073312 -5.36656,-2.823382 -7.839844,-5.25 -2.28662,-2.286621 -4.200265,-4.992537 -5.740234,-8.119141 -1.539969,-3.126604 -2.310547,-6.743025 -2.310547,-10.849609 0,-3.49993 0.63065,-6.836497 1.890625,-10.009766 1.259975,-3.17327 3.010045,-5.973773 5.25,-8.400391 2.239955,-2.426617 4.876884,-4.340262 7.910156,-5.740234 3.033273,-1.446637 6.346192,-2.169922 9.939453,-2.169922 z m 22.304688,1.259766 40.039061,0 0,12.109375 -0.76953,0 c -0.60665,-1.819963 -1.25899,-3.406459 -1.95898,-4.759766 -0.69999,-1.399972 -1.541513,-2.566686 -2.521493,-3.5 -0.97998,-0.97998 -2.14669,-1.703264 -3.5,-2.169922 -1.353302,-0.466657 -2.985138,-0.699218 -4.898433,-0.699218 l -11.621094,0 0,21.628906 4.550781,0 c 1.539969,0 2.84661,-0.139928 3.919922,-0.419922 1.073312,-0.279995 1.983818,-0.792411 2.730469,-1.539063 0.793317,-0.793317 1.445661,-1.84375 1.958984,-3.15039 0.559989,-1.353307 1.096052,-3.07973 1.609375,-5.179688 l 0.771486,0 0,21.769532 -0.771486,0 C 93.212381,68.793951 92.863539,67.487309 92.490213,66.227335 92.163553,64.96736 91.67283,63.84794 91.01951,62.86796 90.412855,61.88798 89.57329,61.117402 88.499979,60.557413 87.473333,59.950759 86.119399,59.647257 84.439432,59.647257 l -5.669922,0 0,25.269531 13.230469,0 c 2.566618,0 4.689178,-0.536063 6.369138,-1.609375 1.726643,-1.119977 3.127873,-2.426619 4.201173,-3.919922 1.07332,-1.539969 1.86558,-3.126465 2.37891,-4.759766 0.51332,-1.6333 0.84047,-2.987235 0.98047,-4.060546 l 0.76953,0 0,15.330078 -42.699221,0 0,-0.980469 7.769531,0 0,-47.878906 -7.769531,0 0,-0.980469 z"
       id="path4489" />
    <path
       inkscape:connector-curvature="0"
       style="font-style:normal;font-variant:normal;font-weight:normal;font-stretch:normal;font-size:medium;line-height:125%;font-family:Didot;-inkscape-font-specification:Didot;letter-spacing:0px;word-spacing:0px;fill:#000000;fill-opacity:1;stroke:#000000;stroke-width:0.1;stroke-linecap:butt;stroke-linejoin:miter;stroke-miterlimit:4;stroke-dasharray:none;stroke-opacity:1"
       d="M 62.412324,134.31019 A 58.47802,58.47802 0 0 0 3.9338071,192.78675 58.47802,58.47802 0 0 0 62.412324,251.26528 58.47802,58.47802 0 0 0 120.88888,192.78675 58.47802,58.47802 0 0 0 62.412324,134.31019 Z m -20.007813,32.40234 c 1.446638,0 2.729632,0.13993 3.84961,0.41993 1.119977,0.27999 2.123116,0.60714 3.009765,0.98046 0.886649,0.32666 1.702568,0.63017 2.449219,0.91016 0.746652,0.27999 1.469936,0.41992 2.169922,0.41992 0.933315,0 1.587611,-0.13993 1.960938,-0.41992 0.419991,-0.32666 0.79248,-0.67745 1.11914,-1.05078 l 1.050781,0 0,14 -0.769531,0 c -0.419991,-1.7733 -0.958008,-3.52337 -1.611328,-5.25 -0.653321,-1.72663 -1.561873,-3.24219 -2.728516,-4.54883 -1.166643,-1.35331 -2.660504,-2.42738 -4.480468,-3.2207 -1.773298,-0.83999 -3.990444,-1.25977 -6.650391,-1.25977 -2.473284,0 -4.595843,0.39614 -6.369141,1.18946 -1.773297,0.74665 -3.267159,1.77343 -4.480468,3.08007 -1.213309,1.25998 -2.1928,2.75384 -2.939454,4.48047 -0.699984,1.67997 -1.236049,3.47538 -1.609374,5.38867 -0.373327,1.86663 -0.631488,3.78028 -0.771485,5.74024 -0.09333,1.91329 -0.138672,3.7343 -0.138672,5.46094 0,4.8999 0.396136,8.95975 1.189453,12.17968 0.793318,3.21994 1.889091,5.76228 3.289063,7.62891 1.446637,1.86663 3.173061,3.17327 5.179687,3.91992 2.006627,0.74665 4.223773,1.1211 6.650391,1.1211 3.126604,0 5.647252,-0.44343 7.560547,-1.33008 1.913295,-0.88665 3.452498,-2.02972 4.61914,-3.42969 1.166644,-1.44664 2.053502,-3.05678 2.660157,-4.83008 0.606654,-1.81996 1.142717,-3.61733 1.609375,-5.39062 l 0.771484,0 0,14.91015 -1.050781,0 c -0.32666,-0.37332 -0.699149,-0.70047 -1.119141,-0.98047 -0.419991,-0.32666 -1.074288,-0.49023 -1.960937,-0.49023 -0.699986,0 -1.470564,0.13993 -2.310547,0.41992 -0.793318,0.23333 -1.725517,0.51319 -2.798828,0.83985 -1.026646,0.32666 -2.19336,0.60651 -3.5,0.83984 -1.306641,0.27999 -2.753209,0.41992 -4.339844,0.41992 -2.939941,0 -5.809432,-0.53606 -8.609375,-1.60937 -2.753279,-1.07332 -5.36656,-2.82339 -7.839844,-5.25 -2.28662,-2.28662 -4.200265,-4.99254 -5.740234,-8.11914 -1.539969,-3.12661 -2.310547,-6.74303 -2.310547,-10.84961 0,-3.49993 0.63065,-6.8365 1.890625,-10.00977 1.259975,-3.17327 3.010045,-5.97377 5.25,-8.40039 2.239955,-2.42662 4.876884,-4.34026 7.910156,-5.74023 3.033273,-1.44664 6.346192,-2.16993 9.939453,-2.16993 z m 22.304688,1.25977 40.039051,0 0,12.10937 -0.76953,0 c -0.60664,-1.81996 -1.25898,-3.40645 -1.95897,-4.75976 -0.69999,-1.39997 -1.54152,-2.56669 -2.521496,-3.5 -0.97998,-0.97998 -2.14669,-1.70327 -3.5,-2.16992 -1.3533,-0.46666 -2.98513,-0.69922 -4.89843,-0.69922 l -11.62109,0 0,21.6289 4.55078,0 c 1.53997,0 2.84661,-0.13992 3.91992,-0.41992 1.07331,-0.27999 1.98382,-0.79241 2.73047,-1.53906 0.79332,-0.79332 1.44566,-1.84375 1.95898,-3.15039 0.55999,-1.35331 1.09605,-3.07973 1.60938,-5.17969 l 0.77148,0 0,21.76953 -0.77148,0 c -0.32666,-1.3533 -0.6755,-2.65994 -1.04883,-3.91992 -0.32666,-1.25997 -0.81738,-2.37939 -1.4707,-3.35937 -0.60666,-0.97998 -1.44622,-1.75056 -2.51953,-2.31055 -1.02665,-0.60665 -2.38058,-0.91016 -4.06055,-0.91016 l -5.66992,0 0,25.26953 13.23047,0 c 2.56661,0 4.68917,-0.53606 6.36913,-1.60937 1.726646,-1.11998 3.127876,-2.42662 4.201176,-3.91992 1.07331,-1.53997 1.86557,-3.12647 2.3789,-4.75977 0.51332,-1.6333 0.84047,-2.98723 0.98047,-4.06054 l 0.76953,0 0,15.33007 -42.699211,0 0,-0.98047 7.769531,0 0,-47.8789 -7.769531,0 0,-0.98047 z"
       id="path4489-0" />
    <path
       inkscape:connector-curvature="0"
       style="font-style:normal;font-variant:normal;font-weight:normal;font-stretch:normal;font-size:medium;line-height:125%;font-family:Didot;-inkscape-font-specification:Didot;letter-spacing:0px;word-spacing:0px;fill:#000000;fill-opacity:1;stroke:#000000;stroke-width:0.1;stroke-linecap:butt;stroke-linejoin:miter;stroke-miterlimit:4;stroke-dasharray:none;stroke-opacity:1"
       d="M 678.01516,3.8137376 A 58.47802,58.47802 0 0 0 619.53665,62.290298 58.47802,58.47802 0 0 0 678.01516,120.76883 58.47802,58.47802 0 0 0 736.49172,62.290298 58.47802,58.47802 0 0 0 678.01516,3.8137376 Z M 658.00735,36.216078 c 1.44664,0 2.72963,0.13993 3.84961,0.41993 1.11998,0.27999 2.12312,0.60714 3.00977,0.98046 0.88665,0.32666 1.70256,0.63017 2.44922,0.91016 0.74665,0.27999 1.46993,0.41992 2.16992,0.41992 0.93331,0 1.58761,-0.13993 1.96094,-0.41992 0.41999,-0.32666 0.79248,-0.67745 1.11914,-1.05078 l 1.05078,0 0,14 -0.76953,0 c -0.42,-1.7733 -0.95801,-3.52337 -1.61133,-5.25 -0.65332,-1.72663 -1.56188,-3.24219 -2.72852,-4.54883 -1.16664,-1.35331 -2.6605,-2.42738 -4.48047,-3.2207 -1.77329,-0.83999 -3.99044,-1.25977 -6.65039,-1.25977 -2.47328,0 -4.59584,0.39614 -6.36914,1.18946 -1.7733,0.74665 -3.26716,1.77343 -4.48047,3.08007 -1.21331,1.25998 -2.1928,2.75384 -2.93945,4.48047 -0.69998,1.67997 -1.23605,3.47538 -1.60937,5.38867 -0.37333,1.86663 -0.63149,3.78028 -0.77149,5.74024 -0.0933,1.91329 -0.13867,3.7343 -0.13867,5.46094 0,4.8999 0.39613,8.95975 1.18945,12.17968 0.79332,3.21994 1.88909,5.76228 3.28906,7.62891 1.44664,1.86663 3.17307,3.17327 5.17969,3.91992 2.00663,0.74665 4.22377,1.1211 6.65039,1.1211 3.12661,0 5.64725,-0.44343 7.56055,-1.33008 1.91329,-0.88665 3.4525,-2.02972 4.61914,-3.42969 1.16664,-1.44664 2.0535,-3.05678 2.66016,-4.83008 0.60665,-1.81996 1.14271,-3.61733 1.60937,-5.39062 l 0.77149,0 0,14.91015 -1.05079,0 c -0.32666,-0.37332 -0.69914,-0.70047 -1.11914,-0.98047 -0.41999,-0.32666 -1.07428,-0.49023 -1.96093,-0.49023 -0.69999,0 -1.47057,0.13993 -2.31055,0.41992 -0.79332,0.23333 -1.72552,0.51319 -2.79883,0.83985 -1.02664,0.32666 -2.19336,0.60651 -3.5,0.83984 -1.30664,0.27999 -2.75321,0.41992 -4.33984,0.41992 -2.93994,0 -5.80943,-0.53606 -8.60938,-1.60937 -2.75328,-1.07332 -5.36656,-2.82339 -7.83984,-5.25 -2.28662,-2.28662 -4.20027,-4.99254 -5.74024,-8.11914 -1.53996,-3.12661 -2.31054,-6.74303 -2.31054,-10.84961 0,-3.49993 0.63065,-6.8365 1.89062,-10.00977 1.25998,-3.17327 3.01005,-5.97377 5.25,-8.40039 2.23996,-2.42662 4.87689,-4.34026 7.91016,-5.74023 3.03327,-1.44664 6.34619,-2.16993 9.93945,-2.16993 z m 22.30469,1.25977 40.03905,0 0,12.10937 -0.76953,0 c -0.60664,-1.81996 -1.25898,-3.40645 -1.95897,-4.75976 -0.69999,-1.39997 -1.54152,-2.56669 -2.5215,-3.5 -0.97998,-0.97998 -2.14669,-1.70327 -3.5,-2.16992 -1.3533,-0.46666 -2.98513,-0.69922 -4.89843,-0.69922 l -11.62109,0 0,21.6289 4.55078,0 c 1.53997,0 2.84661,-0.13992 3.91992,-0.41992 1.07331,-0.27999 1.98382,-0.79241 2.73047,-1.53906 0.79332,-0.79332 1.44566,-1.84375 1.95898,-3.15039 0.55999,-1.35331 1.09605,-3.07973 1.60938,-5.17969 l 0.77148,0 0,21.76953 -0.77148,0 c -0.32666,-1.3533 -0.6755,-2.65994 -1.04883,-3.91992 -0.32666,-1.25997 -0.81738,-2.37939 -1.4707,-3.35937 -0.60666,-0.97998 -1.44622,-1.75056 -2.51953,-2.31055 -1.02665,-0.60665 -2.38058,-0.91016 -4.06055,-0.91016 l -5.66992,0 0,25.26953 13.23047,0 c 2.56661,0 4.68917,-0.53606 6.36913,-1.60937 1.72665,-1.11998 3.12788,-2.42662 4.20118,-3.91992 1.07331,-1.53997 1.86557,-3.12647 2.3789,-4.75977 0.51332,-1.6333 0.84047,-2.98723 0.98047,-4.06054 l 0.76953,0 0,15.33007 -42.69921,0 0,-0.98047 7.76953,0 0,-47.8789 -7.76953,0 0,-0.98047 z"
       id="path4489-0-4" />
    <path
       inkscape:connector-curvature="0"
       style="font-style:normal;font-variant:normal;font-weight:normal;font-stretch:normal;font-size:medium;line-height:125%;font-family:Didot;-inkscape-font-specification:Didot;letter-spacing:0px;word-spacing:0px;fill:#000000;fill-opacity:1;stroke:#000000;stroke-width:0.1;stroke-linecap:butt;stroke-linejoin:miter;stroke-miterlimit:4;stroke-dasharray:none;stroke-opacity:1"
       d="m 680.85204,126.50877 a 58.47802,58.47802 0 0 0 -58.47851,58.47656 58.47802,58.47802 0 0 0 58.47851,58.47853 58.47802,58.47802 0 0 0 58.47656,-58.47853 58.47802,58.47802 0 0 0 -58.47656,-58.47656 z m -20.00781,32.40234 c 1.44664,0 2.72963,0.13993 3.84961,0.41993 1.11998,0.27999 2.12312,0.60714 3.00977,0.98046 0.88665,0.32666 1.70256,0.63017 2.44922,0.91016 0.74665,0.27999 1.46993,0.41992 2.16992,0.41992 0.93331,0 1.58761,-0.13993 1.96094,-0.41992 0.41999,-0.32666 0.79248,-0.67745 1.11914,-1.05078 l 1.05078,0 0,14 -0.76953,0 c -0.42,-1.7733 -0.95801,-3.52337 -1.61133,-5.25 -0.65332,-1.72663 -1.56188,-3.24219 -2.72852,-4.54883 -1.16664,-1.35331 -2.6605,-2.42738 -4.48047,-3.2207 -1.77329,-0.83999 -3.99044,-1.25977 -6.65039,-1.25977 -2.47328,0 -4.59584,0.39614 -6.36914,1.18946 -1.7733,0.74665 -3.26716,1.77343 -4.48047,3.08007 -1.21331,1.25998 -2.1928,2.75384 -2.93945,4.48047 -0.69998,1.67997 -1.23605,3.47538 -1.60937,5.38867 -0.37333,1.86663 -0.63149,3.78028 -0.77149,5.74024 -0.0933,1.91329 -0.13867,3.7343 -0.13867,5.46094 0,4.8999 0.39613,8.95975 1.18945,12.17968 0.79332,3.21994 1.88909,5.76228 3.28906,7.62891 1.44664,1.86663 3.17307,3.17327 5.17969,3.91992 2.00663,0.74665 4.22377,1.1211 6.65039,1.1211 3.12661,0 5.64725,-0.44343 7.56055,-1.33008 1.91329,-0.88665 3.4525,-2.02972 4.61914,-3.42969 1.16664,-1.44664 2.0535,-3.05678 2.66016,-4.83008 0.60665,-1.81996 1.14271,-3.61733 1.60937,-5.39062 l 0.77149,0 0,14.91015 -1.05079,0 c -0.32666,-0.37332 -0.69914,-0.70047 -1.11914,-0.98047 -0.41999,-0.32666 -1.07428,-0.49023 -1.96093,-0.49023 -0.69999,0 -1.47057,0.13993 -2.31055,0.41992 -0.79332,0.23333 -1.72552,0.51319 -2.79883,0.83985 -1.02664,0.32666 -2.19336,0.60651 -3.5,0.83984 -1.30664,0.27999 -2.75321,0.41992 -4.33984,0.41992 -2.93994,0 -5.80943,-0.53606 -8.60938,-1.60937 -2.75328,-1.07332 -5.36656,-2.82339 -7.83984,-5.25 -2.28662,-2.28662 -4.20027,-4.99254 -5.74024,-8.11914 -1.53996,-3.12661 -2.31054,-6.74303 -2.31054,-10.84961 0,-3.49993 0.63065,-6.8365 1.89062,-10.00977 1.25998,-3.17327 3.01005,-5.97377 5.25,-8.40039 2.23996,-2.42662 4.87689,-4.34026 7.91016,-5.74023 3.03327,-1.44664 6.34619,-2.16993 9.93945,-2.16993 z m 22.30469,1.25977 40.03905,0 0,12.10937 -0.76953,0 c -0.60664,-1.81996 -1.25898,-3.40645 -1.95897,-4.75976 -0.69999,-1.39997 -1.54152,-2.56669 -2.5215,-3.5 -0.97998,-0.97998 -2.14669,-1.70327 -3.5,-2.16992 -1.3533,-0.46666 -2.98513,-0.69922 -4.89843,-0.69922 l -11.62109,0 0,21.6289 4.55078,0 c 1.53997,0 2.84661,-0.13992 3.91992,-0.41992 1.07331,-0.27999 1.98382,-0.79241 2.73047,-1.53906 0.79332,-0.79332 1.44566,-1.84375 1.95898,-3.15039 0.55999,-1.35331 1.09605,-3.07973 1.60938,-5.17969 l 0.77148,0 0,21.76953 -0.77148,0 c -0.32666,-1.3533 -0.6755,-2.65994 -1.04883,-3.91992 -0.32666,-1.25997 -0.81738,-2.37939 -1.4707,-3.35937 -0.60666,-0.97998 -1.44622,-1.75056 -2.51953,-2.31055 -1.02665,-0.60665 -2.38058,-0.91016 -4.06055,-0.91016 l -5.66992,0 0,25.26953 13.23047,0 c 2.56661,0 4.68917,-0.53606 6.36913,-1.60937 1.72665,-1.11998 3.12788,-2.42662 4.20118,-3.91992 1.07331,-1.53997 1.86557,-3.12647 2.3789,-4.75977 0.51332,-1.6333 0.84047,-2.98723 0.98047,-4.06054 l 0.76953,0 0,15.33007 -42.69921,0 0,-0.98047 7.76953,0 0,-47.8789 -7.76953,0 0,-0.98047 z"
       id="path4489-0-7" />
    <path
       inkscape:connector-curvature="0"
       style="font-style:normal;font-variant:normal;font-weight:normal;font-stretch:normal;font-size:medium;line-height:125%;font-family:Didot;-inkscape-font-specification:Didot;letter-spacing:0px;word-spacing:0px;fill:#000000;fill-opacity:1;stroke:#000000;stroke-width:0.2048182;stroke-linecap:butt;stroke-linejoin:miter;stroke-miterlimit:4;stroke-dasharray:none;stroke-opacity:1"
       d="M 507.4488,9.5399064 A 119.77363,119.77363 0 0 0 387.67417,129.31054 119.77363,119.77363 0 0 0 507.4488,249.08522 119.77363,119.77363 0 0 0 627.21943,129.31054 119.77363,119.77363 0 0 0 507.4488,9.5399064 Z M 466.46916,75.905792 c 2.96299,0 5.59078,0.286608 7.8847,0.860102 2.29393,0.573461 4.34855,1.243533 6.16454,2.008155 1.81602,0.669064 3.48718,1.290708 5.01644,1.86418 1.5293,0.573461 3.01072,0.86007 4.44443,0.86007 1.91158,0 3.25171,-0.286609 4.01633,-0.86007 0.86022,-0.669063 1.62315,-1.387541 2.2922,-2.152196 l 2.1522,0 0,28.674557 -1.57614,0 c -0.86022,-3.63205 -1.96216,-7.216505 -3.30028,-10.752962 -1.33814,-3.536457 -3.19901,-6.64059 -5.5885,-9.316833 -2.38949,-2.771824 -5.4492,-4.971716 -9.17683,-6.596574 -3.63203,-1.72046 -8.17315,-2.580241 -13.6212,-2.580241 -5.06573,0 -9.41312,0.811365 -13.04516,2.436233 -3.63204,1.529266 -6.69173,3.632303 -9.17682,6.308535 -2.48508,2.580674 -4.49125,5.64037 -6.02053,9.176826 -1.4337,3.440877 -2.53166,7.118206 -3.2963,11.036976 -0.76463,3.8232 -1.29339,7.74269 -1.58013,11.75705 -0.1911,3.91877 -0.28403,7.64853 -0.28403,11.18501 0,10.03588 0.81136,18.35119 2.43621,24.9462 1.62487,6.59502 3.8692,11.80219 6.7366,15.62539 2.96298,3.8232 6.49901,6.49943 10.60894,8.02871 4.10996,1.52927 8.65105,2.29621 13.62122,2.29621 6.40384,0 11.56659,-0.90822 15.48538,-2.72424 3.91877,-1.81603 7.07135,-4.15723 9.46084,-7.02463 2.38949,-2.96298 4.20595,-6.26085 5.44847,-9.89288 1.24255,-3.72761 2.3405,-7.40895 3.2963,-11.04098 l 1.58013,0 0,30.53871 -2.15218,0 c -0.66906,-0.76463 -1.43199,-1.43469 -2.2922,-2.00818 -0.86022,-0.66906 -2.20035,-1.00408 -4.01637,-1.00408 -1.43368,0 -3.01198,0.2866 -4.7324,0.86007 -1.62487,0.4779 -3.53419,1.05111 -5.73252,1.72017 -2.10277,0.66905 -4.49239,1.24224 -7.16864,1.72014 -2.67623,0.57347 -5.63907,0.86007 -8.88877,0.86007 -6.02156,0 -11.8988,-1.09794 -17.63358,-3.29628 -5.63922,-2.19835 -10.99169,-5.78282 -16.05743,-10.75296 -4.68341,-4.68341 -8.60291,-10.22563 -11.75705,-16.62947 -3.15414,-6.40387 -4.73241,-13.81095 -4.73241,-22.22197 0,-7.1685 1.29169,-14.0024 3.87234,-20.50184 2.58067,-6.49943 6.16513,-12.235369 10.75295,-17.205522 4.58785,-4.970165 9.98874,-8.889642 16.20145,-11.757035 6.21269,-2.962984 12.99815,-4.444421 20.3578,-4.444421 z m 45.68406,2.580241 82.00727,0 0,24.802197 -1.57614,0 c -1.2425,-3.727609 -2.57862,-6.977036 -4.01232,-9.74886 -1.43371,-2.867393 -3.15732,-5.257049 -5.1645,-7.168637 -2.00718,-2.007169 -4.39681,-3.488606 -7.16863,-4.444389 -2.77181,-0.955805 -6.1141,-1.432123 -10.03288,-1.432123 l -23.8021,0 0,44.299919 9.32082,0 c 3.15413,0 5.83038,-0.28658 8.02871,-0.86007 2.19833,-0.57347 4.06323,-1.623 5.59249,-3.15228 1.62487,-1.62486 2.96098,-3.77633 4.01236,-6.45257 1.14695,-2.77182 2.2449,-6.30784 3.2963,-10.60895 l 1.58013,0 0,44.58796 -1.58013,0 c -0.66906,-2.7718 -1.38355,-5.44804 -2.1482,-8.0287 -0.66906,-2.58066 -1.67415,-4.87344 -3.01226,-6.8806 -1.24255,-2.00718 -2.96212,-3.58548 -5.16045,-4.73243 -2.10277,-1.24254 -4.87587,-1.86418 -8.31675,-1.86418 l -11.61302,0 0,51.7566 27.09841,0 c 5.25688,0 9.60427,-1.09796 13.04513,-3.29629 3.53649,-2.29392 6.40647,-4.97016 8.60478,-8.0287 2.19834,-3.15415 3.82102,-6.40359 4.87242,-9.74888 1.05137,-3.3453 1.72144,-6.1184 2.00818,-8.31673 l 1.57614,0 0,31.39878 -87.45576,0 0,-2.00818 15.91342,0 0,-98.064699 -15.91342,0 0,-2.008188 z"
       id="path4489-0-6" />
    <path
       inkscape:connector-curvature="0"
       style="font-style:normal;font-variant:normal;font-weight:normal;font-stretch:normal;font-size:medium;line-height:125%;font-family:Didot;-inkscape-font-specification:Didot;letter-spacing:0px;word-spacing:0px;fill:#000000;fill-opacity:1;stroke:#000000;stroke-width:0.2048182;stroke-linecap:butt;stroke-linejoin:miter;stroke-miterlimit:4;stroke-dasharray:none;stroke-opacity:1"
       d="M 231.20767,2.0930952 A 119.77363,119.77363 0 0 0 111.43304,121.86373 119.77363,119.77363 0 0 0 231.20767,241.63841 119.77363,119.77363 0 0 0 350.9783,121.86373 119.77363,119.77363 0 0 0 231.20767,2.0930952 Z M 190.22803,68.458979 c 2.96299,0 5.59078,0.28661 7.8847,0.8601 2.29393,0.57347 4.34855,1.24354 6.16454,2.00816 1.81602,0.66906 3.48718,1.29071 5.01644,1.86418 1.5293,0.57346 3.01072,0.86007 4.44443,0.86007 1.91158,0 3.25171,-0.28661 4.01633,-0.86007 0.86022,-0.66906 1.62315,-1.38754 2.2922,-2.1522 l 2.1522,0 0,28.67456 -1.57614,0 c -0.86022,-3.63205 -1.96216,-7.2165 -3.30028,-10.75296 -1.33814,-3.53646 -3.19901,-6.64059 -5.5885,-9.31683 -2.38949,-2.77183 -5.4492,-4.97172 -9.17683,-6.59658 -3.63203,-1.72046 -8.17315,-2.58024 -13.6212,-2.58024 -5.06573,0 -9.41312,0.81137 -13.04516,2.43623 -3.63204,1.52927 -6.69173,3.63231 -9.17682,6.30854 -2.48508,2.58067 -4.49125,5.64037 -6.02053,9.17682 -1.4337,3.44088 -2.53166,7.11821 -3.2963,11.03698 -0.76463,3.823201 -1.29339,7.742691 -1.58013,11.757051 -0.1911,3.91877 -0.28403,7.64853 -0.28403,11.18501 0,10.03588 0.81136,18.35119 2.43621,24.9462 1.62487,6.59502 3.8692,11.80219 6.7366,15.62539 2.96298,3.8232 6.49901,6.49943 10.60894,8.02871 4.10996,1.52927 8.65105,2.29621 13.62122,2.29621 6.40384,0 11.56659,-0.90822 15.48538,-2.72424 3.91877,-1.81603 7.07135,-4.15723 9.46084,-7.02463 2.38949,-2.96298 4.20595,-6.26085 5.44847,-9.89288 1.24255,-3.72761 2.3405,-7.40895 3.2963,-11.04098 l 1.58013,0 0,30.53871 -2.15218,0 c -0.66906,-0.76463 -1.43199,-1.43469 -2.2922,-2.00818 -0.86022,-0.66906 -2.20035,-1.00408 -4.01637,-1.00408 -1.43368,0 -3.01198,0.2866 -4.7324,0.86007 -1.62487,0.4779 -3.53419,1.05111 -5.73252,1.72017 -2.10277,0.66905 -4.49239,1.24224 -7.16864,1.72014 -2.67623,0.57347 -5.63907,0.86007 -8.88877,0.86007 -6.02156,0 -11.8988,-1.09794 -17.63358,-3.29628 -5.63922,-2.19835 -10.99169,-5.78282 -16.05743,-10.75296 -4.68341,-4.68341 -8.60291,-10.22563 -11.75705,-16.62947 -3.15414,-6.40387 -4.73241,-13.81095 -4.73241,-22.22197 0,-7.1685 1.29169,-14.0024 3.87234,-20.50184 2.58067,-6.499431 6.16513,-12.235371 10.75295,-17.205521 4.58785,-4.97017 9.98874,-8.88964 16.20145,-11.75704 6.21269,-2.96298 12.99815,-4.44442 20.3578,-4.44442 z m 45.68406,2.58024 82.00727,0 0,24.8022 -1.57614,0 c -1.2425,-3.72761 -2.57862,-6.97704 -4.01232,-9.74886 -1.43371,-2.86739 -3.15732,-5.25705 -5.1645,-7.16864 -2.00718,-2.00717 -4.39681,-3.4886 -7.16863,-4.44439 -2.77181,-0.9558 -6.1141,-1.43212 -10.03288,-1.43212 l -23.8021,0 0,44.299921 9.32082,0 c 3.15413,0 5.83038,-0.28658 8.02871,-0.86007 2.19833,-0.57347 4.06323,-1.623 5.59249,-3.15228 1.62487,-1.62486 2.96098,-3.77633 4.01236,-6.45257 1.14695,-2.77182 2.2449,-6.30784 3.2963,-10.608951 l 1.58013,0 0,44.587961 -1.58013,0 c -0.66906,-2.7718 -1.38355,-5.44804 -2.1482,-8.0287 -0.66906,-2.58066 -1.67415,-4.87344 -3.01226,-6.8806 -1.24255,-2.00718 -2.96212,-3.58548 -5.16045,-4.73243 -2.10277,-1.24254 -4.87587,-1.86418 -8.31675,-1.86418 l -11.61302,0 0,51.7566 27.09841,0 c 5.25688,0 9.60427,-1.09796 13.04513,-3.29629 3.53649,-2.29392 6.40647,-4.97016 8.60478,-8.0287 2.19834,-3.15415 3.82102,-6.40359 4.87242,-9.74888 1.05137,-3.3453 1.72144,-6.1184 2.00818,-8.31673 l 1.57614,0 0,31.39878 -87.45576,0 0,-2.00818 15.91342,0 0,-98.064701 -15.91342,0 0,-2.00819 z"
       id="path4489-0-6-9" />
    <path
       inkscape:connector-curvature="0"
       style="font-style:normal;font-variant:normal;font-weight:normal;font-stretch:normal;font-size:medium;line-height:125%;font-family:Didot;-inkscape-font-specification:Didot;letter-spacing:0px;word-spacing:0px;fill:#000000;fill-opacity:1;stroke:#000000;stroke-width:0.06122333;stroke-linecap:butt;stroke-linejoin:miter;stroke-miterlimit:4;stroke-dasharray:none;stroke-opacity:1"
       d="m 367.73111,170.81562 a 35.80219,35.80219 0 0 0 -35.80249,35.8013 35.80219,35.80219 0 0 0 35.80249,35.8025 35.80219,35.80219 0 0 0 35.80129,-35.8025 35.80219,35.80219 0 0 0 -35.80129,-35.8013 z m -12.24944,19.83779 c 0.88568,0 1.67116,0.0857 2.35685,0.2571 0.68569,0.17141 1.29985,0.37171 1.84268,0.60027 0.54284,0.2 1.04237,0.38581 1.49949,0.55723 0.45713,0.17142 0.89995,0.25709 1.32851,0.25709 0.5714,0 0.97198,-0.0857 1.20054,-0.25709 0.25713,-0.19999 0.48519,-0.41476 0.68517,-0.64333 l 0.64333,0 0,8.57128 -0.47113,0 c -0.25713,-1.08568 -0.58652,-2.15713 -0.98651,-3.21424 -0.39999,-1.05709 -0.95623,-1.98497 -1.67049,-2.78494 -0.71425,-0.82854 -1.62885,-1.48612 -2.74309,-1.97182 -1.08567,-0.51427 -2.44308,-0.77127 -4.07159,-0.77127 -1.51423,0 -2.81372,0.24253 -3.8994,0.72823 -1.08567,0.45712 -2.00026,1.08575 -2.74309,1.88572 -0.74283,0.7714 -1.34251,1.68599 -1.79963,2.74309 -0.42856,1.02853 -0.75675,2.12774 -0.98532,3.29913 -0.22855,1.14281 -0.38661,2.3144 -0.47232,3.51436 -0.0571,1.17138 -0.0849,2.28626 -0.0849,3.34337 0,2.99988 0.24253,5.48545 0.72822,7.4568 0.4857,1.97136 1.15656,3.52786 2.01367,4.67068 0.88568,1.14281 1.94266,1.94277 3.17118,2.3999 1.22853,0.45712 2.58593,0.68638 4.07159,0.68638 1.91421,0 3.45743,-0.27148 4.62882,-0.81432 1.17138,-0.54285 2.11374,-1.24266 2.82799,-2.09977 0.71426,-0.88568 1.25723,-1.87147 1.62864,-2.95714 0.37141,-1.11424 0.69961,-2.21465 0.98531,-3.30032 l 0.47232,0 0,9.12849 -0.64332,0 c -0.19999,-0.22855 -0.42804,-0.42885 -0.68517,-0.60027 -0.25713,-0.19999 -0.65772,-0.30014 -1.20055,-0.30014 -0.42855,0 -0.90033,0.0857 -1.41459,0.25709 -0.4857,0.14285 -1.05643,0.31419 -1.71354,0.51419 -0.62855,0.19999 -1.34285,0.37132 -2.14282,0.51417 -0.79997,0.17142 -1.6856,0.25709 -2.65699,0.25709 -1.79993,0 -3.55674,-0.32819 -5.27095,-0.98531 -1.68565,-0.65712 -3.28559,-1.72857 -4.79981,-3.21422 -1.39994,-1.39995 -2.57155,-3.0566 -3.51436,-4.97081 -0.94283,-1.91422 -1.4146,-4.12831 -1.4146,-6.64249 0,-2.14277 0.38611,-4.18553 1.1575,-6.12832 0.77141,-1.94277 1.84286,-3.65734 3.21423,-5.14299 1.37137,-1.48566 2.98579,-2.65725 4.84286,-3.51436 1.85707,-0.88568 3.88535,-1.32851 6.08527,-1.32851 z m 13.65567,0.77127 24.51323,0 0,7.41377 -0.47112,0 c -0.37141,-1.11424 -0.77079,-2.08554 -1.19935,-2.91409 -0.42856,-0.85711 -0.94377,-1.57141 -1.54375,-2.14282 -0.59998,-0.59997 -1.31427,-1.04279 -2.14282,-1.32849 -0.82853,-0.28571 -1.8276,-0.42809 -2.99898,-0.42809 l -7.11481,0 0,13.24193 2.78613,0 c 0.94282,0 1.74279,-0.0857 2.39991,-0.25708 0.65712,-0.17142 1.21456,-0.48514 1.67168,-0.94227 0.4857,-0.4857 0.88508,-1.1288 1.19936,-1.92877 0.34284,-0.82854 0.67103,-1.88551 0.98531,-3.17118 l 0.47233,0 0,13.32803 -0.47233,0 c -0.19999,-0.82853 -0.41356,-1.62851 -0.64212,-2.39991 -0.2,-0.77139 -0.50043,-1.45674 -0.90042,-2.05671 -0.37142,-0.59998 -0.88542,-1.07176 -1.54254,-1.4146 -0.62855,-0.37141 -1.45747,-0.55723 -2.486,-0.55723 l -3.47131,0 0,15.47085 8.10013,0 c 1.57136,0 2.87086,-0.3282 3.89939,-0.98532 1.05712,-0.68568 1.91499,-1.48565 2.5721,-2.3999 0.65712,-0.94282 1.14216,-1.91413 1.45645,-2.91409 0.31426,-0.99996 0.51456,-1.82888 0.60027,-2.486 l 0.47114,0 0,9.38558 -26.14188,0 0,-0.60027 4.75676,0 0,-29.31306 -4.75676,0 0,-0.60028 z"
       id="path4489-0-6-0" />
    <path
       inkscape:connector-curvature="0"
       style="font-style:normal;font-variant:normal;font-weight:normal;font-stretch:normal;font-size:medium;line-height:125%;font-family:Didot;-inkscape-font-specification:Didot;letter-spacing:0px;word-spacing:0px;fill:#000000;fill-opacity:1;stroke:#000000;stroke-width:0.06122333;stroke-linecap:butt;stroke-linejoin:miter;stroke-miterlimit:4;stroke-dasharray:none;stroke-opacity:1"
       d="m 373.05024,0.95746772 a 35.80219,35.80219 0 0 0 -35.80249,35.80130028 35.80219,35.80219 0 0 0 35.80249,35.8025 35.80219,35.80219 0 0 0 35.80129,-35.8025 A 35.80219,35.80219 0 0 0 373.05024,0.95746772 Z M 360.8008,20.795258 c 0.88568,0 1.67116,0.0857 2.35685,0.2571 0.68569,0.17141 1.29985,0.37171 1.84268,0.60027 0.54284,0.2 1.04237,0.38581 1.49949,0.55723 0.45713,0.17142 0.89995,0.25709 1.32851,0.25709 0.5714,0 0.97198,-0.0857 1.20054,-0.25709 0.25713,-0.19999 0.48519,-0.41476 0.68517,-0.64333 l 0.64333,0 0,8.57128 -0.47113,0 c -0.25713,-1.08568 -0.58652,-2.15713 -0.98651,-3.21424 -0.39999,-1.05709 -0.95623,-1.98497 -1.67049,-2.78494 -0.71425,-0.82854 -1.62885,-1.48612 -2.74309,-1.97182 -1.08567,-0.51427 -2.44308,-0.77127 -4.07159,-0.77127 -1.51423,0 -2.81372,0.24253 -3.8994,0.72823 -1.08567,0.45712 -2.00026,1.08575 -2.74309,1.88572 -0.74283,0.7714 -1.34251,1.68599 -1.79963,2.74309 -0.42856,1.02853 -0.75675,2.12774 -0.98532,3.29913 -0.22855,1.14281 -0.38661,2.3144 -0.47232,3.51436 -0.0571,1.17138 -0.0849,2.28626 -0.0849,3.34337 0,2.99988 0.24253,5.48545 0.72822,7.4568 0.4857,1.97136 1.15656,3.52786 2.01367,4.67068 0.88568,1.14281 1.94266,1.94277 3.17118,2.3999 1.22853,0.45712 2.58593,0.68638 4.07159,0.68638 1.91421,0 3.45743,-0.27148 4.62882,-0.81432 1.17138,-0.54285 2.11374,-1.24266 2.82799,-2.09977 0.71426,-0.88568 1.25723,-1.87147 1.62864,-2.95714 0.37141,-1.11424 0.69961,-2.21465 0.98531,-3.30032 l 0.47232,0 0,9.12849 -0.64332,0 c -0.19999,-0.22855 -0.42804,-0.42885 -0.68517,-0.60027 -0.25713,-0.19999 -0.65772,-0.30014 -1.20055,-0.30014 -0.42855,0 -0.90033,0.0857 -1.41459,0.25709 -0.4857,0.14285 -1.05643,0.31419 -1.71354,0.51419 -0.62855,0.19999 -1.34285,0.37132 -2.14282,0.51417 -0.79997,0.17142 -1.6856,0.25709 -2.65699,0.25709 -1.79993,0 -3.55674,-0.32819 -5.27095,-0.98531 -1.68565,-0.65712 -3.28559,-1.72857 -4.79981,-3.21422 -1.39994,-1.39995 -2.57155,-3.0566 -3.51436,-4.97081 -0.94283,-1.91422 -1.4146,-4.12831 -1.4146,-6.64249 0,-2.14277 0.38611,-4.18553 1.1575,-6.12832 0.77141,-1.94277 1.84286,-3.65734 3.21423,-5.14299 1.37137,-1.48566 2.98579,-2.65725 4.84286,-3.51436 1.85707,-0.88568 3.88535,-1.32851 6.08527,-1.32851 z m 13.65567,0.77127 24.51323,0 0,7.41377 -0.47112,0 c -0.37141,-1.11424 -0.77079,-2.08554 -1.19935,-2.91409 -0.42856,-0.85711 -0.94377,-1.57141 -1.54375,-2.14282 -0.59998,-0.59997 -1.31427,-1.04279 -2.14282,-1.32849 -0.82853,-0.28571 -1.8276,-0.42809 -2.99898,-0.42809 l -7.11481,0 0,13.24193 2.78613,0 c 0.94282,0 1.74279,-0.0857 2.39991,-0.25708 0.65712,-0.17142 1.21456,-0.48514 1.67168,-0.94227 0.4857,-0.4857 0.88508,-1.1288 1.19936,-1.92877 0.34284,-0.82854 0.67103,-1.88551 0.98531,-3.17118 l 0.47233,0 0,13.32803 -0.47233,0 c -0.19999,-0.82853 -0.41356,-1.62851 -0.64212,-2.39991 -0.2,-0.77139 -0.50043,-1.45674 -0.90042,-2.05671 -0.37142,-0.59998 -0.88542,-1.07176 -1.54254,-1.4146 -0.62855,-0.37141 -1.45747,-0.55723 -2.486,-0.55723 l -3.47131,0 0,15.47085 8.10013,0 c 1.57136,0 2.87086,-0.3282 3.89939,-0.98532 1.05712,-0.68568 1.91499,-1.48565 2.5721,-2.3999 0.65712,-0.94282 1.14216,-1.91413 1.45645,-2.91409 0.31426,-0.99996 0.51456,-1.82888 0.60027,-2.486 l 0.47114,0 0,9.38558 -26.14188,0 0,-0.60027 4.75676,0 0,-29.31306 -4.75676,0 0,-0.60028 z"
       id="path4489-0-6-0-8" />
  </g>
</svg>
