<?xml version="1.0" encoding="UTF-8" standalone="no"?>
<!-- Created with Inkscape (http://www.inkscape.org/) -->

<svg
   xmlns:dc="http://purl.org/dc/elements/1.1/"
   xmlns:cc="http://creativecommons.org/ns#"
   xmlns:rdf="http://www.w3.org/1999/02/22-rdf-syntax-ns#"
   xmlns:svg="http://www.w3.org/2000/svg"
   xmlns="http://www.w3.org/2000/svg"
   xmlns:sodipodi="http://sodipodi.sourceforge.net/DTD/sodipodi-0.dtd"
   xmlns:inkscape="http://www.inkscape.org/namespaces/inkscape"
   width="210mm"
   height="297mm"
   viewBox="0 0 744.09448819 1052.3622047"
   id="svg2"
   version="1.1"
   inkscape:version="0.91 r13725"
   sodipodi:docname="ce_large.svg">
  <defs
     id="defs4" />
  <sodipodi:namedview
     id="base"
     pagecolor="#ffffff"
     bordercolor="#666666"
     borderopacity="1.0"
     inkscape:pageopacity="0.0"
     inkscape:pageshadow="2"
     inkscape:zoom="3.99"
     inkscape:cx="276.93932"
     inkscape:cy="900.65527"
     inkscape:document-units="px"
     inkscape:current-layer="layer1"
     showgrid="false"
     inkscape:window-width="2560"
     inkscape:window-height="1646"
     inkscape:window-x="0"
     inkscape:window-y="25"
     inkscape:window-maximized="1" />
  <metadata
     id="metadata7">
    <rdf:RDF>
      <cc:Work
         rdf:about="">
        <dc:format>image/svg+xml</dc:format>
        <dc:type
           rdf:resource="http://purl.org/dc/dcmitype/StillImage" />
        <dc:title></dc:title>
      </cc:Work>
    </rdf:RDF>
  </metadata>
  <g
     inkscape:label="Layer 1"
     inkscape:groupmode="layer"
     id="layer1">
    <path
       style="font-style:normal;font-variant:normal;font-weight:normal;font-stretch:normal;font-size:medium;line-height:125%;font-family:Didot;-inkscape-font-specification:Didot;letter-spacing:0px;word-spacing:0px;fill:#000000;fill-opacity:1;stroke:#000000;stroke-width:0.2048182;stroke-linecap:butt;stroke-linejoin:miter;stroke-miterlimit:4;stroke-dasharray:none;stroke-opacity:1"
       d="M 231.20703 2.09375 A 119.77363 119.77363 0 0 0 111.43359 121.86328 A 119.77363 119.77363 0 0 0 231.20703 241.63867 A 119.77363 119.77363 0 0 0 350.97852 121.86328 A 119.77363 119.77363 0 0 0 231.20703 2.09375 z M 190.22852 68.458984 C 193.19151 68.458984 195.81936 68.744869 198.11328 69.318359 C 200.40721 69.891829 202.46135 70.563505 204.27734 71.328125 C 206.09336 71.997185 207.76371 72.617936 209.29297 73.191406 C 210.82227 73.764866 212.30457 74.050781 213.73828 74.050781 C 215.64986 74.050781 216.98929 73.764866 217.75391 73.191406 C 218.61413 72.522346 219.3778 71.803722 220.04688 71.039062 L 222.19922 71.039062 L 222.19922 99.712891 L 220.62305 99.712891 C 219.76283 96.080841 218.66039 92.497394 217.32227 88.960938 C 215.98413 85.424475 214.12387 82.320771 211.73438 79.644531 C 209.34489 76.872701 206.28427 74.671735 202.55664 73.046875 C 198.92461 71.326415 194.3836 70.466797 188.93555 70.466797 C 183.86982 70.466797 179.52268 71.279437 175.89062 72.904297 C 172.25859 74.433567 169.19993 76.536661 166.71484 79.212891 C 164.22976 81.793561 162.22264 84.852222 160.69336 88.388672 C 159.25966 91.829552 158.16112 95.507011 157.39648 99.425781 C 156.63185 103.24898 156.10315 107.16923 155.81641 111.18359 C 155.62531 115.10236 155.5332 118.83071 155.5332 122.36719 C 155.5332 132.40307 156.3439 140.71944 157.96875 147.31445 C 159.59362 153.90947 161.83768 159.11625 164.70508 162.93945 C 167.66806 166.76265 171.20452 169.43947 175.31445 170.96875 C 179.42441 172.49802 183.96538 173.26367 188.93555 173.26367 C 195.33939 173.26367 200.50307 172.35704 204.42188 170.54102 C 208.34064 168.72499 211.49332 166.38302 213.88281 163.51562 C 216.2723 160.55265 218.08756 157.25508 219.33008 153.62305 C 220.57263 149.89544 221.67115 146.21406 222.62695 142.58203 L 224.20703 142.58203 L 224.20703 173.12109 L 222.05469 173.12109 C 221.38563 172.35646 220.62193 171.68482 219.76172 171.11133 C 218.9015 170.44227 217.56211 170.10742 215.74609 170.10742 C 214.31241 170.10742 212.73409 170.39528 211.01367 170.96875 C 209.3888 171.44665 207.47958 172.01844 205.28125 172.6875 C 203.17848 173.35655 200.78953 173.9303 198.11328 174.4082 C 195.43705 174.98167 192.47431 175.26758 189.22461 175.26758 C 183.20305 175.26758 177.32462 174.171 171.58984 171.97266 C 165.95062 169.77431 160.59894 166.18889 155.5332 161.21875 C 150.84979 156.53534 146.92953 150.99368 143.77539 144.58984 C 140.62125 138.18597 139.04297 130.77821 139.04297 122.36719 C 139.04297 115.19869 140.33537 108.36467 142.91602 101.86523 C 145.49669 95.365863 149.08015 89.630306 153.66797 84.660156 C 158.25582 79.689986 163.65838 75.771697 169.87109 72.904297 C 176.08378 69.941317 182.86887 68.458984 190.22852 68.458984 z M 235.91211 71.039062 L 317.91992 71.039062 L 317.91992 95.841797 L 316.34375 95.841797 C 315.10125 92.114187 313.76378 88.863617 312.33008 86.091797 C 310.89637 83.224407 309.1732 80.835418 307.16602 78.923828 C 305.15884 76.916658 302.76987 75.436259 299.99805 74.480469 C 297.22624 73.524669 293.88362 73.046875 289.96484 73.046875 L 266.16211 73.046875 L 266.16211 117.34766 L 275.48438 117.34766 C 278.63851 117.34766 281.31339 117.05982 283.51172 116.48633 C 285.71005 115.91286 287.57621 114.86522 289.10547 113.33594 C 290.73034 111.71108 292.06581 109.55905 293.11719 106.88281 C 294.26414 104.11099 295.36266 100.57455 296.41406 96.273438 L 297.99414 96.273438 L 297.99414 140.86133 L 296.41406 140.86133 C 295.745 138.08953 295.03028 135.41269 294.26562 132.83203 C 293.59656 130.25137 292.59202 127.95833 291.25391 125.95117 C 290.01136 123.94399 288.29013 122.3657 286.0918 121.21875 C 283.98903 119.97621 281.21627 119.35547 277.77539 119.35547 L 266.16211 119.35547 L 266.16211 171.11133 L 293.26172 171.11133 C 298.5186 171.11133 302.86578 170.01474 306.30664 167.81641 C 309.84313 165.52249 312.71185 162.84565 314.91016 159.78711 C 317.1085 156.63296 318.7318 153.38435 319.7832 150.03906 C 320.83457 146.69376 321.50428 143.91903 321.79102 141.7207 L 323.36719 141.7207 L 323.36719 173.12109 L 235.91211 173.12109 L 235.91211 171.11133 L 251.82617 171.11133 L 251.82617 73.046875 L 235.91211 73.046875 L 235.91211 71.039062 z M 281.30273 143.29102 L 282.63672 143.29102 L 282.35352 144.625 L 281.01758 144.625 L 281.30273 143.29102 z M 305.32227 143.29102 L 306.6582 143.29102 L 306.37305 144.625 L 305.03906 144.625 L 305.32227 143.29102 z M 186.98828 143.67383 L 188.32227 143.67383 L 187.92773 145.56445 L 189.01562 145.56445 L 188.81836 146.55273 L 187.73047 146.55273 L 186.90234 150.52148 C 186.84468 150.78517 186.84813 150.971 186.91406 151.07812 C 186.98 151.17701 187.12866 151.22461 187.35938 151.22461 C 187.54889 151.22461 187.71343 151.21223 187.85352 151.1875 L 187.64258 152.17773 C 187.34593 152.25189 186.9797 152.28906 186.54297 152.28906 C 186.36993 152.28906 186.21431 152.27669 186.07422 152.25195 C 185.93414 152.22722 185.81373 152.18114 185.71484 152.11523 C 185.6242 152.0493 185.5553 151.96258 185.50586 151.85547 C 185.45639 151.74011 185.43164 151.59144 185.43164 151.41016 C 185.43164 151.22887 185.46336 150.98653 185.5293 150.68164 L 186.39453 146.55273 L 185.48047 146.55273 L 185.67773 145.56445 L 186.5918 145.56445 L 186.98828 143.67383 z M 202.07617 143.67383 L 203.41211 143.67383 L 203.01562 145.56445 L 204.10352 145.56445 L 203.90625 146.55273 L 202.81836 146.55273 L 201.99023 150.52148 C 201.93257 150.78517 201.93602 150.971 202.00195 151.07812 C 202.06789 151.17701 202.21655 151.22461 202.44727 151.22461 C 202.63679 151.22461 202.80132 151.21223 202.94141 151.1875 L 202.73242 152.17773 C 202.43578 152.25189 202.06759 152.28906 201.63086 152.28906 C 201.45781 152.28906 201.30219 152.27669 201.16211 152.25195 C 201.02202 152.22722 200.90161 152.18114 200.80273 152.11523 C 200.71209 152.0493 200.64319 151.96258 200.59375 151.85547 C 200.54428 151.74011 200.51953 151.59144 200.51953 151.41016 C 200.51953 151.22887 200.55125 150.98653 200.61719 150.68164 L 201.48242 146.55273 L 200.56836 146.55273 L 200.76562 145.56445 L 201.68164 145.56445 L 202.07617 143.67383 z M 176.86133 145.39062 C 177.21566 145.39062 177.51647 145.44018 177.76367 145.53906 C 178.01088 145.62971 178.20715 145.76251 178.35547 145.93555 C 178.51204 146.10859 178.62353 146.3192 178.68945 146.56641 C 178.76361 146.81361 178.80078 147.08964 178.80078 147.39453 C 178.80078 147.61702 178.78489 147.85045 178.75195 148.09766 C 178.71902 148.34486 178.67294 148.60851 178.61523 148.88867 C 178.50811 149.40781 178.36836 149.88205 178.19531 150.31055 C 178.02227 150.73904 177.8047 151.1107 177.54102 151.42383 C 177.28557 151.72871 176.97933 151.96758 176.625 152.14062 C 176.27891 152.30543 175.87552 152.38672 175.41406 152.38672 C 174.72189 152.38672 174.22829 152.20284 173.93164 151.83203 C 173.64323 151.45298 173.49805 150.94505 173.49805 150.31055 C 173.49805 150.07982 173.51042 149.84444 173.53516 149.60547 C 173.55989 149.3665 173.60248 149.12764 173.66016 148.88867 C 173.76728 148.36954 173.9016 147.89724 174.06641 147.46875 C 174.23121 147.04026 174.44182 146.67208 174.69727 146.36719 C 174.95271 146.05406 175.25352 145.8152 175.59961 145.65039 C 175.95394 145.47735 176.37515 145.39062 176.86133 145.39062 z M 183.37305 145.39062 C 183.62025 145.39062 183.83782 145.4243 184.02734 145.49023 C 184.22511 145.5479 184.38268 145.64701 184.49805 145.78711 C 184.62165 145.92719 184.69598 146.11302 184.7207 146.34375 C 184.75364 146.57448 184.73234 146.85746 184.6582 147.19531 L 183.62109 152.21484 L 182.28516 152.21484 L 183.22461 147.6543 C 183.31526 147.20932 183.3118 146.89961 183.21289 146.72656 C 183.11401 146.54528 182.89102 146.45508 182.54492 146.45508 C 182.273 146.45508 182.00587 146.56115 181.74219 146.77539 C 181.48674 146.98964 181.3133 147.31522 181.22266 147.75195 L 180.29492 152.21484 L 178.96094 152.21484 L 180.33203 145.56445 L 181.59375 145.56445 L 181.43164 146.34375 L 181.46875 146.34375 C 181.69948 146.0471 181.98093 145.8152 182.31055 145.65039 C 182.64839 145.47735 183.00223 145.39062 183.37305 145.39062 z M 192.00977 145.39062 C 192.70195 145.39062 193.18858 145.54472 193.46875 145.84961 C 193.75716 146.14626 193.90234 146.56552 193.90234 147.10938 C 193.90234 147.2989 193.8845 147.49712 193.85156 147.70312 C 193.82683 147.90913 193.78966 148.1267 193.74023 148.35742 L 193.60547 149.0625 L 190.13281 149.0625 L 190.04492 149.44531 C 190.00372 149.61011 189.972 149.78008 189.94727 149.95312 C 189.92253 150.11793 189.91016 150.28247 189.91016 150.44727 C 189.91016 150.73568 189.96666 150.97802 190.08203 151.17578 C 190.19739 151.37355 190.41691 151.47266 190.73828 151.47266 C 190.97725 151.47266 191.17895 151.41419 191.34375 151.29883 C 191.50856 151.18346 191.6394 151.04914 191.73828 150.89258 C 191.84541 150.72777 191.92865 150.56129 191.98633 150.39648 C 192.04399 150.22344 192.08464 150.08912 192.10938 149.99023 L 193.37109 149.99023 C 193.29693 150.36105 193.17304 150.69359 193 150.99023 C 192.83519 151.27864 192.62807 151.52989 192.38086 151.74414 C 192.13365 151.95015 191.85414 152.10772 191.54102 152.21484 C 191.22789 152.33021 190.8934 152.38672 190.53906 152.38672 C 190.31658 152.38672 190.09004 152.36737 189.85938 152.32617 C 189.63689 152.28497 189.43171 152.19825 189.24219 152.06641 C 189.0609 151.93456 188.91224 151.73979 188.79688 151.48438 C 188.68152 151.22893 188.62305 150.884 188.62305 150.44727 C 188.62305 150.05998 188.68499 149.57334 188.80859 148.98828 C 188.89924 148.55155 189.01965 148.1199 189.16797 147.69141 C 189.3163 147.26291 189.51451 146.87886 189.76172 146.54102 C 190.00893 146.19492 190.31321 145.91889 190.67578 145.71289 C 191.04659 145.49864 191.49063 145.39062 192.00977 145.39062 z M 198.46094 145.39062 C 198.70814 145.39062 198.92766 145.4243 199.11719 145.49023 C 199.31495 145.5479 199.47058 145.64701 199.58594 145.78711 C 199.70954 145.92719 199.78387 146.11302 199.80859 146.34375 C 199.84153 146.57448 199.82023 146.85746 199.74609 147.19531 L 198.70898 152.21484 L 197.37305 152.21484 L 198.3125 147.6543 C 198.40314 147.20932 198.39969 146.89961 198.30078 146.72656 C 198.20189 146.54528 197.9789 146.45508 197.63281 146.45508 C 197.36089 146.45508 197.09376 146.56115 196.83008 146.77539 C 196.57463 146.98964 196.40119 147.31522 196.31055 147.75195 L 195.38281 152.21484 L 194.04883 152.21484 L 195.41992 145.56445 L 196.68164 145.56445 L 196.52148 146.34375 L 196.55859 146.34375 C 196.78932 146.0471 197.06883 145.8152 197.39844 145.65039 C 197.73629 145.47735 198.09013 145.39062 198.46094 145.39062 z M 271.92188 145.39062 C 272.16908 145.39062 272.38665 145.4243 272.57617 145.49023 C 272.77394 145.5479 272.93145 145.64701 273.04688 145.78711 C 273.17048 145.92719 273.24481 146.11302 273.26953 146.34375 C 273.30246 146.57448 273.28116 146.85746 273.20703 147.19531 L 272.16992 152.21484 L 270.83398 152.21484 L 271.77344 147.6543 C 271.86408 147.20932 271.86063 146.89961 271.76172 146.72656 C 271.66283 146.54528 271.43984 146.45508 271.09375 146.45508 C 270.82182 146.45508 270.5547 146.56115 270.29102 146.77539 C 270.03557 146.98964 269.86213 147.31522 269.77148 147.75195 L 268.84375 152.21484 L 267.50977 152.21484 L 268.88086 145.56445 L 270.14258 145.56445 L 269.98047 146.34375 L 270.01758 146.34375 C 270.2483 146.0471 270.52977 145.8152 270.85938 145.65039 C 271.19723 145.47735 271.55106 145.39062 271.92188 145.39062 z M 276.87109 145.39062 C 277.06886 145.39062 277.2423 145.42085 277.39062 145.47852 C 277.54719 145.53618 277.67999 145.61399 277.78711 145.71289 C 277.89424 145.80353 277.97552 145.90612 278.0332 146.02148 C 278.09087 146.13685 278.12455 146.25726 278.13281 146.38086 L 278.15625 146.38086 L 278.31836 145.56445 L 279.57812 145.56445 L 278.26758 151.89258 C 278.10277 152.70012 277.78262 153.33543 277.30469 153.79688 C 276.82675 154.25833 276.13842 154.48828 275.24023 154.48828 C 274.87767 154.48828 274.57338 154.45111 274.32617 154.37695 C 274.08721 154.30279 273.89247 154.20912 273.74414 154.09375 C 273.60406 153.97839 273.50495 153.84559 273.44727 153.69727 C 273.3896 153.55719 273.36133 153.41743 273.36133 153.27734 C 273.36133 153.08782 273.3737 152.92328 273.39844 152.7832 L 274.66016 152.7832 C 274.61896 152.9892 274.66656 153.16961 274.80664 153.32617 C 274.94673 153.49098 275.16624 153.57422 275.46289 153.57422 C 275.80898 153.57422 276.10631 153.46272 276.35352 153.24023 C 276.60072 153.02599 276.76525 152.72171 276.84766 152.32617 L 277.07031 151.25 L 277.04492 151.25 C 276.8554 151.53841 276.60414 151.76489 276.29102 151.92969 C 275.97789 152.08625 275.66121 152.16406 275.33984 152.16406 C 275.06792 152.16406 274.83601 152.11994 274.64648 152.0293 C 274.4652 151.93865 274.31305 151.81476 274.18945 151.6582 C 274.07409 151.4934 273.99085 151.30065 273.94141 151.07812 C 273.89194 150.85564 273.86719 150.60786 273.86719 150.33594 C 273.86719 149.86624 273.92913 149.35831 274.05273 148.81445 C 274.12689 148.45189 274.226 148.06979 274.34961 147.66602 C 274.47321 147.26224 274.64318 146.89058 274.85742 146.55273 C 275.07991 146.21489 275.35049 145.93886 275.67188 145.72461 C 276.00148 145.50212 276.4014 145.39066 276.87109 145.39062 z M 286.55078 145.39062 C 286.79799 145.39062 287.0175 145.4243 287.20703 145.49023 C 287.4048 145.5479 287.56042 145.64701 287.67578 145.78711 C 287.79939 145.92719 287.87372 146.11302 287.89844 146.34375 C 287.93137 146.57448 287.91007 146.85746 287.83594 147.19531 L 286.79883 152.21484 L 285.46289 152.21484 L 286.40234 147.6543 C 286.49298 147.20932 286.48955 146.89961 286.39062 146.72656 C 286.29174 146.54528 286.06874 146.45508 285.72266 146.45508 C 285.45073 146.45508 285.18361 146.56115 284.91992 146.77539 C 284.66448 146.98964 284.49104 147.31522 284.40039 147.75195 L 283.47461 152.21484 L 282.13867 152.21484 L 283.51172 145.56445 L 284.77148 145.56445 L 284.61133 146.34375 L 284.64844 146.34375 C 284.87916 146.0471 285.15867 145.8152 285.48828 145.65039 C 285.82613 145.47735 286.17997 145.39062 286.55078 145.39062 z M 291.76172 145.39062 C 292.4539 145.39062 292.93858 145.54472 293.21875 145.84961 C 293.50716 146.14626 293.65234 146.56552 293.65234 147.10938 C 293.65234 147.2989 293.63645 147.49712 293.60352 147.70312 C 293.57878 147.90913 293.54162 148.1267 293.49219 148.35742 L 293.35547 149.0625 L 289.88281 149.0625 L 289.79492 149.44531 C 289.75372 149.61011 289.722 149.78008 289.69727 149.95312 C 289.67253 150.11793 289.66016 150.28247 289.66016 150.44727 C 289.66016 150.73568 289.71666 150.97802 289.83203 151.17578 C 289.94739 151.37355 290.16691 151.47266 290.48828 151.47266 C 290.72725 151.47266 290.92894 151.41419 291.09375 151.29883 C 291.25856 151.18346 291.3894 151.04914 291.48828 150.89258 C 291.5954 150.72777 291.67864 150.56129 291.73633 150.39648 C 291.79399 150.22344 291.83464 150.08912 291.85938 149.99023 L 293.12109 149.99023 C 293.04693 150.36105 292.92305 150.69359 292.75 150.99023 C 292.5852 151.27864 292.37807 151.52989 292.13086 151.74414 C 291.88365 151.95015 291.60414 152.10772 291.29102 152.21484 C 290.97788 152.33021 290.64339 152.38672 290.28906 152.38672 C 290.06658 152.38672 289.84005 152.36737 289.60938 152.32617 C 289.38689 152.28497 289.18171 152.19825 288.99219 152.06641 C 288.81091 151.93456 288.66224 151.73979 288.54688 151.48438 C 288.43151 151.22893 288.375 150.884 288.375 150.44727 C 288.375 150.05998 288.43499 149.57334 288.55859 148.98828 C 288.64924 148.55155 288.76965 148.1199 288.91797 147.69141 C 289.0663 147.26291 289.26451 146.87886 289.51172 146.54102 C 289.75893 146.19492 290.06321 145.91889 290.42578 145.71289 C 290.79659 145.49864 291.24259 145.39062 291.76172 145.39062 z M 297.48242 145.39062 C 298.1746 145.39062 298.66124 145.54472 298.94141 145.84961 C 299.22981 146.14626 299.37305 146.56552 299.37305 147.10938 C 299.37305 147.2989 299.35715 147.49712 299.32422 147.70312 C 299.29949 147.90913 299.26232 148.1267 299.21289 148.35742 L 299.07617 149.0625 L 295.60352 149.0625 L 295.51758 149.44531 C 295.47638 149.61011 295.4427 149.78008 295.41797 149.95312 C 295.39324 150.11793 295.38086 150.28247 295.38086 150.44727 C 295.38086 150.73568 295.43932 150.97802 295.55469 151.17578 C 295.67005 151.37355 295.88761 151.47266 296.20898 151.47266 C 296.44794 151.47266 296.64965 151.41419 296.81445 151.29883 C 296.97926 151.18346 297.11206 151.04914 297.21094 150.89258 C 297.31806 150.72777 297.39935 150.56129 297.45703 150.39648 C 297.5147 150.22344 297.5573 150.08912 297.58203 149.99023 L 298.8418 149.99023 C 298.76763 150.36105 298.64374 150.69359 298.4707 150.99023 C 298.3059 151.27864 298.10072 151.52989 297.85352 151.74414 C 297.60631 151.95015 297.32485 152.10772 297.01172 152.21484 C 296.69859 152.33021 296.36605 152.38672 296.01172 152.38672 C 295.78923 152.38672 295.56276 152.36737 295.33203 152.32617 C 295.10954 152.28497 294.90242 152.19825 294.71289 152.06641 C 294.53161 151.93456 294.3849 151.73979 294.26953 151.48438 C 294.15417 151.22893 294.0957 150.884 294.0957 150.44727 C 294.0957 150.05998 294.15765 149.57334 294.28125 148.98828 C 294.3719 148.55155 294.49035 148.1199 294.63867 147.69141 C 294.787 147.26291 294.98522 146.87886 295.23242 146.54102 C 295.47963 146.19492 295.78392 145.91889 296.14648 145.71289 C 296.5173 145.49864 296.96329 145.39062 297.48242 145.39062 z M 303.83398 145.39062 C 303.97406 145.39062 304.07665 145.40847 304.14258 145.44141 L 303.87109 146.80078 C 303.82163 146.78431 303.7473 146.76849 303.64844 146.75195 C 303.54956 146.73549 303.44352 146.72656 303.32812 146.72656 C 303.17981 146.72656 303.01875 146.74786 302.8457 146.78906 C 302.6809 146.83026 302.51984 146.90808 302.36328 147.02344 C 302.21495 147.13056 302.07868 147.28271 301.95508 147.48047 C 301.83147 147.67824 301.73779 147.92949 301.67188 148.23438 L 300.85547 152.21484 L 299.51953 152.21484 L 300.89258 145.56445 L 302.22656 145.56445 L 302.01758 146.60352 L 302.04102 146.60352 C 302.2635 146.23271 302.52367 145.93886 302.82031 145.72461 C 303.11696 145.50212 303.45493 145.39065 303.83398 145.39062 z M 310.57227 145.39062 C 310.81947 145.39062 311.03704 145.4243 311.22656 145.49023 C 311.42433 145.5479 311.58191 145.64701 311.69727 145.78711 C 311.82087 145.92719 311.8952 146.11302 311.91992 146.34375 C 311.95286 146.57448 311.93156 146.85746 311.85742 147.19531 L 310.81836 152.21484 L 309.48438 152.21484 L 310.42383 147.6543 C 310.51447 147.20932 310.51102 146.89961 310.41211 146.72656 C 310.31322 146.54528 310.09023 146.45508 309.74414 146.45508 C 309.47221 146.45508 309.20314 146.56115 308.93945 146.77539 C 308.68401 146.98964 308.51251 147.31522 308.42188 147.75195 L 307.49414 152.21484 L 306.16016 152.21484 L 307.53125 145.56445 L 308.79297 145.56445 L 308.63086 146.34375 L 308.66797 146.34375 C 308.8987 146.0471 309.18016 145.8152 309.50977 145.65039 C 309.84762 145.47735 310.20146 145.39062 310.57227 145.39062 z M 315.52148 145.39062 C 315.71924 145.39062 315.89269 145.42085 316.04102 145.47852 C 316.19758 145.53618 316.33038 145.61399 316.4375 145.71289 C 316.54462 145.80353 316.62591 145.90612 316.68359 146.02148 C 316.74126 146.13685 316.77494 146.25726 316.7832 146.38086 L 316.80664 146.38086 L 316.96875 145.56445 L 318.22852 145.56445 L 316.91797 151.89258 C 316.75317 152.70012 316.43301 153.33543 315.95508 153.79688 C 315.47714 154.25833 314.78881 154.48828 313.89062 154.48828 C 313.52806 154.48828 313.22377 154.45111 312.97656 154.37695 C 312.7376 154.30279 312.54286 154.20912 312.39453 154.09375 C 312.25445 153.97839 312.15534 153.84559 312.09766 153.69727 C 312.03999 153.55719 312.01172 153.41743 312.01172 153.27734 C 312.01172 153.08782 312.02409 152.92328 312.04883 152.7832 L 313.30859 152.7832 C 313.26739 152.9892 313.31695 153.16961 313.45703 153.32617 C 313.59712 153.49098 313.81663 153.57422 314.11328 153.57422 C 314.45937 153.57422 314.75475 153.46272 315.00195 153.24023 C 315.24916 153.02599 315.41564 152.72171 315.49805 152.32617 L 315.71875 151.25 L 315.69531 151.25 C 315.50579 151.53841 315.25453 151.76489 314.94141 151.92969 C 314.62828 152.08625 314.30965 152.16406 313.98828 152.16406 C 313.71635 152.16406 313.48639 152.11994 313.29688 152.0293 C 313.11559 151.93865 312.96345 151.81476 312.83984 151.6582 C 312.72448 151.4934 312.64124 151.30061 312.5918 151.07812 C 312.54233 150.85564 312.51758 150.60786 312.51758 150.33594 C 312.51758 149.86624 312.57952 149.35831 312.70312 148.81445 C 312.77728 148.45189 312.87639 148.06979 313 147.66602 C 313.1236 147.26224 313.29357 146.89058 313.50781 146.55273 C 313.7303 146.21489 314.0009 145.93886 314.32227 145.72461 C 314.65188 145.50212 315.05179 145.39062 315.52148 145.39062 z M 280.82031 145.56445 L 282.15625 145.56445 L 280.7832 152.21484 L 279.44922 152.21484 L 280.82031 145.56445 z M 304.8418 145.56445 L 306.17578 145.56445 L 304.80469 152.21484 L 303.46875 152.21484 L 304.8418 145.56445 z M 191.8125 146.30664 C 191.59825 146.30664 191.40895 146.35619 191.24414 146.45508 C 191.08757 146.54572 190.94782 146.67308 190.82422 146.83789 C 190.70885 146.99445 190.60974 147.17485 190.52734 147.38086 C 190.45318 147.58687 190.39124 147.79747 190.3418 148.01172 L 190.31836 148.14844 L 192.45508 148.14844 L 192.5293 147.78906 C 192.57876 147.58306 192.60352 147.38483 192.60352 147.19531 C 192.60352 146.93163 192.54158 146.71754 192.41797 146.55273 C 192.30261 146.38793 192.10091 146.30664 191.8125 146.30664 z M 291.5625 146.30664 C 291.34825 146.30664 291.15894 146.35619 290.99414 146.45508 C 290.83757 146.54572 290.69782 146.67308 290.57422 146.83789 C 290.45885 146.99445 290.35974 147.17485 290.27734 147.38086 C 290.20318 147.58687 290.14124 147.79747 290.0918 148.01172 L 290.06836 148.14844 L 292.20508 148.14844 L 292.2793 147.78906 C 292.32876 147.58306 292.35352 147.38483 292.35352 147.19531 C 292.35352 146.93163 292.29157 146.71754 292.16797 146.55273 C 292.0526 146.38793 291.85091 146.30664 291.5625 146.30664 z M 297.28516 146.30664 C 297.07092 146.30664 296.8816 146.35619 296.7168 146.45508 C 296.56023 146.54572 296.41852 146.67308 296.29492 146.83789 C 296.17956 146.99445 296.0824 147.17485 296 147.38086 C 295.92584 147.58687 295.8639 147.79747 295.81445 148.01172 L 295.78906 148.14844 L 297.92773 148.14844 L 298.00195 147.78906 C 298.05142 147.58306 298.07617 147.38483 298.07617 147.19531 C 298.07617 146.93163 298.01423 146.71754 297.89062 146.55273 C 297.77526 146.38793 297.57357 146.30664 297.28516 146.30664 z M 176.66211 146.38086 C 176.42314 146.38086 176.21449 146.4428 176.0332 146.56641 C 175.86016 146.69001 175.70606 146.8615 175.57422 147.08398 C 175.45061 147.30647 175.34107 147.57011 175.24219 147.875 C 175.15155 148.17989 175.06831 148.51787 174.99414 148.88867 C 174.92821 149.2018 174.87517 149.48674 174.83398 149.74219 C 174.79278 149.98939 174.77148 150.20696 174.77148 150.39648 C 174.77148 150.73434 174.83691 150.98754 174.96875 151.15234 C 175.1006 151.31715 175.31468 151.39844 175.61133 151.39844 C 175.85853 151.39844 176.06566 151.34888 176.23047 151.25 C 176.40351 151.14287 176.55217 150.98726 176.67578 150.78125 C 176.79938 150.57524 176.90545 150.31508 176.99609 150.00195 C 177.09497 149.68059 177.19061 149.30893 177.28125 148.88867 C 177.33892 148.60027 177.38304 148.33662 177.41602 148.09766 C 177.45722 147.85045 177.47852 147.62398 177.47852 147.41797 C 177.47852 147.0966 177.41658 146.84535 177.29297 146.66406 C 177.17761 146.47454 176.967 146.38086 176.66211 146.38086 z M 276.99609 146.45508 C 276.74889 146.45508 276.53828 146.51159 276.36523 146.62695 C 276.20043 146.74232 276.05525 146.90337 275.93164 147.10938 C 275.81628 147.30714 275.71717 147.54253 275.63477 147.81445 C 275.55237 148.08638 275.47998 148.37479 275.41406 148.67969 C 275.3646 148.92689 275.31852 149.17815 275.27734 149.43359 C 275.23614 149.6808 275.21484 149.91075 275.21484 150.125 C 275.21484 150.41341 275.26439 150.6488 275.36328 150.83008 C 275.4704 151.01136 275.66515 151.10156 275.94531 151.10156 C 276.20076 151.10156 276.41832 151.03266 276.59961 150.89258 C 276.78914 150.74425 276.94671 150.55495 277.07031 150.32422 C 277.19392 150.09349 277.29651 149.83681 277.37891 149.55664 C 277.46131 149.27647 277.5302 149.00392 277.58789 148.74023 C 277.62909 148.52599 277.66626 148.31733 277.69922 148.11133 C 277.73215 147.90532 277.75 147.7071 277.75 147.51758 C 277.75 147.21269 277.69501 146.96144 277.58789 146.76367 C 277.48076 146.55767 277.2845 146.45508 276.99609 146.45508 z M 315.64453 146.45508 C 315.39732 146.45508 315.18867 146.51159 315.01562 146.62695 C 314.85082 146.74232 314.70564 146.90338 314.58203 147.10938 C 314.46667 147.30714 314.36756 147.54253 314.28516 147.81445 C 314.20276 148.08638 314.12842 148.37479 314.0625 148.67969 C 314.01303 148.92689 313.96891 149.17815 313.92773 149.43359 C 313.88653 149.6808 313.86523 149.91075 313.86523 150.125 C 313.86523 150.41341 313.91479 150.6488 314.01367 150.83008 C 314.12079 151.01136 314.31554 151.10156 314.5957 151.10156 C 314.85115 151.10156 315.06871 151.03266 315.25 150.89258 C 315.43953 150.74425 315.59515 150.55495 315.71875 150.32422 C 315.84236 150.09349 315.9469 149.83681 316.0293 149.55664 C 316.1117 149.27647 316.18059 149.00392 316.23828 148.74023 C 316.27948 148.52599 316.31665 148.31733 316.34961 148.11133 C 316.38254 147.90532 316.40039 147.7071 316.40039 147.51758 C 316.40039 147.21269 316.3454 146.96144 316.23828 146.76367 C 316.13115 146.55767 315.93294 146.45508 315.64453 146.45508 z "
       id="path4489-0-6-9" />
    <text
       xml:space="preserve"
       style="font-style:normal;font-weight:normal;font-size:40px;line-height:125%;font-family:sans-serif;letter-spacing:0px;word-spacing:0px;fill:#000000;fill-opacity:1;stroke:none;stroke-width:1px;stroke-linecap:butt;stroke-linejoin:miter;stroke-opacity:1"
       x="220.50568"
       y="162.80769"
       id="text4634"
       sodipodi:linespacing="125%"><tspan
         sodipodi:role="line"
         id="tspan4636"
         x="220.50568"
         y="162.80769" /></text>
    <text
       xml:space="preserve"
       style="font-style:normal;font-weight:normal;font-size:40px;line-height:125%;font-family:sans-serif;letter-spacing:0px;word-spacing:0px;fill:#000000;fill-opacity:1;stroke:none;stroke-width:1px;stroke-linecap:butt;stroke-linejoin:miter;stroke-opacity:1"
       x="334.05923"
       y="190.36537"
       id="text4638"
       sodipodi:linespacing="125%"><tspan
         sodipodi:role="line"
         id="tspan4640"
         x="334.05923"
         y="190.36537" /></text>
  </g>
</svg>
