<?xml version="1.0" encoding="UTF-8" standalone="no"?>
<!-- Created with Inkscape (http://www.inkscape.org/) -->

<svg
   xmlns:dc="http://purl.org/dc/elements/1.1/"
   xmlns:cc="http://creativecommons.org/ns#"
   xmlns:rdf="http://www.w3.org/1999/02/22-rdf-syntax-ns#"
   xmlns:svg="http://www.w3.org/2000/svg"
   xmlns="http://www.w3.org/2000/svg"
   xmlns:sodipodi="http://sodipodi.sourceforge.net/DTD/sodipodi-0.dtd"
   xmlns:inkscape="http://www.inkscape.org/namespaces/inkscape"
   width="210mm"
   height="297mm"
   viewBox="0 0 744.09448819 1052.3622047"
   id="svg2"
   version="1.1"
   inkscape:version="0.91 r13725"
   sodipodi:docname="ce_small.svg">
  <defs
     id="defs4" />
  <sodipodi:namedview
     id="base"
     pagecolor="#ffffff"
     bordercolor="#666666"
     borderopacity="1.0"
     inkscape:pageopacity="0.0"
     inkscape:pageshadow="2"
     inkscape:zoom="1.995"
     inkscape:cx="296.98945"
     inkscape:cy="884.78079"
     inkscape:document-units="px"
     inkscape:current-layer="layer1"
     showgrid="false"
     inkscape:window-width="2560"
     inkscape:window-height="1646"
     inkscape:window-x="0"
     inkscape:window-y="25"
     inkscape:window-maximized="1" />
  <metadata
     id="metadata7">
    <rdf:RDF>
      <cc:Work
         rdf:about="">
        <dc:format>image/svg+xml</dc:format>
        <dc:type
           rdf:resource="http://purl.org/dc/dcmitype/StillImage" />
        <dc:title></dc:title>
      </cc:Work>
    </rdf:RDF>
  </metadata>
  <g
     inkscape:label="Layer 1"
     inkscape:groupmode="layer"
     id="layer1">
    <path
       inkscape:connector-curvature="0"
       style="font-style:normal;font-variant:normal;font-weight:normal;font-stretch:normal;font-size:medium;line-height:125%;font-family:Didot;-inkscape-font-specification:Didot;letter-spacing:0px;word-spacing:0px;fill:#000000;fill-opacity:1;stroke:#000000;stroke-width:0.2048182;stroke-linecap:butt;stroke-linejoin:miter;stroke-miterlimit:4;stroke-dasharray:none;stroke-opacity:1"
       d="M 507.4488,9.5399064 A 119.77363,119.77363 0 0 0 387.67417,129.31054 119.77363,119.77363 0 0 0 507.4488,249.08522 119.77363,119.77363 0 0 0 627.21943,129.31054 119.77363,119.77363 0 0 0 507.4488,9.5399064 Z M 466.46916,75.905792 c 2.96299,0 5.59078,0.286608 7.8847,0.860102 2.29393,0.573461 4.34855,1.243533 6.16454,2.008155 1.81602,0.669064 3.48718,1.290708 5.01644,1.86418 1.5293,0.573461 3.01072,0.86007 4.44443,0.86007 1.91158,0 3.25171,-0.286609 4.01633,-0.86007 0.86022,-0.669063 1.62315,-1.387541 2.2922,-2.152196 l 2.1522,0 0,28.674557 -1.57614,0 c -0.86022,-3.63205 -1.96216,-7.216505 -3.30028,-10.752962 -1.33814,-3.536457 -3.19901,-6.64059 -5.5885,-9.316833 -2.38949,-2.771824 -5.4492,-4.971716 -9.17683,-6.596574 -3.63203,-1.72046 -8.17315,-2.580241 -13.6212,-2.580241 -5.06573,0 -9.41312,0.811365 -13.04516,2.436233 -3.63204,1.529266 -6.69173,3.632303 -9.17682,6.308535 -2.48508,2.580674 -4.49125,5.64037 -6.02053,9.176826 -1.4337,3.440877 -2.53166,7.118206 -3.2963,11.036976 -0.76463,3.8232 -1.29339,7.74269 -1.58013,11.75705 -0.1911,3.91877 -0.28403,7.64853 -0.28403,11.18501 0,10.03588 0.81136,18.35119 2.43621,24.9462 1.62487,6.59502 3.8692,11.80219 6.7366,15.62539 2.96298,3.8232 6.49901,6.49943 10.60894,8.02871 4.10996,1.52927 8.65105,2.29621 13.62122,2.29621 6.40384,0 11.56659,-0.90822 15.48538,-2.72424 3.91877,-1.81603 7.07135,-4.15723 9.46084,-7.02463 2.38949,-2.96298 4.20595,-6.26085 5.44847,-9.89288 1.24255,-3.72761 2.3405,-7.40895 3.2963,-11.04098 l 1.58013,0 0,30.53871 -2.15218,0 c -0.66906,-0.76463 -1.43199,-1.43469 -2.2922,-2.00818 -0.86022,-0.66906 -2.20035,-1.00408 -4.01637,-1.00408 -1.43368,0 -3.01198,0.2866 -4.7324,0.86007 -1.62487,0.4779 -3.53419,1.05111 -5.73252,1.72017 -2.10277,0.66905 -4.49239,1.24224 -7.16864,1.72014 -2.67623,0.57347 -5.63907,0.86007 -8.88877,0.86007 -6.02156,0 -11.8988,-1.09794 -17.63358,-3.29628 -5.63922,-2.19835 -10.99169,-5.78282 -16.05743,-10.75296 -4.68341,-4.68341 -8.60291,-10.22563 -11.75705,-16.62947 -3.15414,-6.40387 -4.73241,-13.81095 -4.73241,-22.22197 0,-7.1685 1.29169,-14.0024 3.87234,-20.50184 2.58067,-6.49943 6.16513,-12.235369 10.75295,-17.205522 4.58785,-4.970165 9.98874,-8.889642 16.20145,-11.757035 6.21269,-2.962984 12.99815,-4.444421 20.3578,-4.444421 z m 45.68406,2.580241 82.00727,0 0,24.802197 -1.57614,0 c -1.2425,-3.727609 -2.57862,-6.977036 -4.01232,-9.74886 -1.43371,-2.867393 -3.15732,-5.257049 -5.1645,-7.168637 -2.00718,-2.007169 -4.39681,-3.488606 -7.16863,-4.444389 -2.77181,-0.955805 -6.1141,-1.432123 -10.03288,-1.432123 l -23.8021,0 0,44.299919 9.32082,0 c 3.15413,0 5.83038,-0.28658 8.02871,-0.86007 2.19833,-0.57347 4.06323,-1.623 5.59249,-3.15228 1.62487,-1.62486 2.96098,-3.77633 4.01236,-6.45257 1.14695,-2.77182 2.2449,-6.30784 3.2963,-10.60895 l 1.58013,0 0,44.58796 -1.58013,0 c -0.66906,-2.7718 -1.38355,-5.44804 -2.1482,-8.0287 -0.66906,-2.58066 -1.67415,-4.87344 -3.01226,-6.8806 -1.24255,-2.00718 -2.96212,-3.58548 -5.16045,-4.73243 -2.10277,-1.24254 -4.87587,-1.86418 -8.31675,-1.86418 l -11.61302,0 0,51.7566 27.09841,0 c 5.25688,0 9.60427,-1.09796 13.04513,-3.29629 3.53649,-2.29392 6.40647,-4.97016 8.60478,-8.0287 2.19834,-3.15415 3.82102,-6.40359 4.87242,-9.74888 1.05137,-3.3453 1.72144,-6.1184 2.00818,-8.31673 l 1.57614,0 0,31.39878 -87.45576,0 0,-2.00818 15.91342,0 0,-98.064699 -15.91342,0 0,-2.008188 z"
       id="path4489-0-6" />
    <text
       xml:space="preserve"
       style="font-style:normal;font-weight:normal;font-size:40px;line-height:125%;font-family:sans-serif;letter-spacing:0px;word-spacing:0px;fill:#000000;fill-opacity:1;stroke:none;stroke-width:1px;stroke-linecap:butt;stroke-linejoin:miter;stroke-opacity:1"
       x="220.50568"
       y="162.80769"
       id="text4634"
       sodipodi:linespacing="125%"><tspan
         sodipodi:role="line"
         id="tspan4636"
         x="220.50568"
         y="162.80769" /></text>
    <text
       xml:space="preserve"
       style="font-style:normal;font-weight:normal;font-size:40px;line-height:125%;font-family:sans-serif;letter-spacing:0px;word-spacing:0px;fill:#000000;fill-opacity:1;stroke:none;stroke-width:1px;stroke-linecap:butt;stroke-linejoin:miter;stroke-opacity:1"
       x="334.05923"
       y="190.36537"
       id="text4638"
       sodipodi:linespacing="125%"><tspan
         sodipodi:role="line"
         id="tspan4640"
         x="334.05923"
         y="190.36537" /></text>
  </g>
</svg>
