<?xml version="1.0" encoding="UTF-8" standalone="no"?>
<!-- Created with Inkscape (http://www.inkscape.org/) -->

<svg
   xmlns:dc="http://purl.org/dc/elements/1.1/"
   xmlns:cc="http://creativecommons.org/ns#"
   xmlns:rdf="http://www.w3.org/1999/02/22-rdf-syntax-ns#"
   xmlns:svg="http://www.w3.org/2000/svg"
   xmlns="http://www.w3.org/2000/svg"
   xmlns:sodipodi="http://sodipodi.sourceforge.net/DTD/sodipodi-0.dtd"
   xmlns:inkscape="http://www.inkscape.org/namespaces/inkscape"
   width="250"
   height="250"
   id="svg8489"
   version="1.1"
   inkscape:version="0.48.4 r9939"
   sodipodi:docname="ContactFormBZ.svg">
  <defs
     id="defs8491" />
  <sodipodi:namedview
     id="base"
     pagecolor="#ffffff"
     bordercolor="#666666"
     borderopacity="1.0"
     inkscape:pageopacity="0.0"
     inkscape:pageshadow="2"
     inkscape:zoom="0.35"
     inkscape:cx="33.571429"
     inkscape:cy="62.857143"
     inkscape:document-units="px"
     inkscape:current-layer="layer1"
     showgrid="false"
     inkscape:window-width="1536"
     inkscape:window-height="803"
     inkscape:window-x="-8"
     inkscape:window-y="-8"
     inkscape:window-maximized="1" />
  <metadata
     id="metadata8494">
    <rdf:RDF>
      <cc:Work
         rdf:about="">
        <dc:format>image/svg+xml</dc:format>
        <dc:type
           rdf:resource="http://purl.org/dc/dcmitype/StillImage" />
        <dc:title></dc:title>
      </cc:Work>
    </rdf:RDF>
  </metadata>
  <g
     inkscape:label="Layer 1"
     inkscape:groupmode="layer"
     id="layer1"
     transform="translate(0,-802.36218)">
    <g
       id="g8777"
       transform="matrix(0.98231563,0,0,0.98231563,-1073.4251,-456.704)">
      <g
         transform="matrix(1.2071202,0,0,1.2071202,1266.3016,1436.5745)"
         id="g5769">
        <path
           inkscape:connector-curvature="0"
           d="M 42.064,6.372 H 34.183 V 5.033 c 0,-1.552 -1.259,-2.81 -2.811,-2.81 h -6.4 c -1.553,0 -2.81,1.258 -2.81,2.81 v 1.339 h -7.881 c -3.575,0 -6.484,2.909 -6.484,6.483 v 42.14 c 0,3.573 2.909,6.481 6.484,6.481 h 27.782 c 3.574,0 6.483,-2.908 6.483,-6.481 V 12.855 C 48.548,9.281 45.641,6.372 42.064,6.372 z M 28.173,3.491 c 0.774,0 1.402,0.628 1.402,1.402 0,0.773 -0.628,1.401 -1.402,1.401 -0.774,0 -1.401,-0.628 -1.401,-1.401 -10e-4,-0.774 0.626,-1.402 1.401,-1.402 z m -7.586,6.863 H 35.76 v 5.921 H 20.587 V 10.354 z M 42.066,57.771 H 14.282 c -1.533,0 -2.78,-1.246 -2.78,-2.776 v -42.14 c 0,-1.532 1.247,-2.779 2.78,-2.779 h 2.65 v 6.62 c 0,1.782 1.449,3.231 3.232,3.231 h 16.018 c 1.782,0 3.231,-1.449 3.231,-3.231 v -6.62 h 2.651 c 1.531,0 2.777,1.247 2.777,2.779 v 42.14 h 0.002 c 10e-4,1.53 -1.245,2.776 -2.777,2.776 z"
           id="path5771" />
        <path
           inkscape:connector-curvature="0"
           d="m 21.778,26.152 -0.649,0.774 C 20.91,26.368 20.37,25.971 19.735,25.971 h -4.312 c -0.827,0 -1.5,0.673 -1.5,1.5 v 4.75 c 0,0.827 0.673,1.5 1.5,1.5 h 4.312 c 0.827,0 1.5,-0.673 1.5,-1.5 v -2.54 l 1.962,-2.34 c 0.329,-0.392 0.277,-0.975 -0.114,-1.305 -0.393,-0.325 -0.976,-0.274 -1.305,0.116 z m -1.542,6.07 0,0 c -0.001,0.275 -0.226,0.5 -0.501,0.5 h -4.312 c -0.275,0 -0.5,-0.226 -0.5,-0.5 v -4.75 c 0,-0.275 0.225,-0.5 0.5,-0.5 h 4.312 c 0.275,0 0.5,0.225 0.5,0.5 v 0.521 l -1.249,1.489 c -0.328,0.393 -0.898,0.427 -1.272,0.079 l -0.77,-0.713 c -0.373,-0.349 -0.963,-0.327 -1.308,0.048 -0.349,0.374 -0.326,0.96 0.049,1.309 l 2.16,2.007 c 0.171,0.16 0.398,0.247 0.63,0.247 0.02,0 0.037,0 0.059,-0.001 0.253,-0.017 0.488,-0.136 0.651,-0.329 l 1.051,-1.253 v 1.346 z"
           id="path5773" />
        <path
           inkscape:connector-curvature="0"
           d="m 21.778,36.225 -0.717,0.854 c -0.249,-0.481 -0.747,-0.815 -1.326,-0.815 h -4.312 c -0.827,0 -1.5,0.674 -1.5,1.5 v 4.75 c 0,0.827 0.673,1.5 1.5,1.5 h 4.312 c 0.827,0 1.5,-0.673 1.5,-1.5 v -2.759 l 1.962,-2.34 c 0.329,-0.392 0.277,-0.976 -0.114,-1.306 -0.393,-0.327 -0.976,-0.275 -1.305,0.116 z m -1.542,6.289 0,0 c -0.001,0.275 -0.226,0.5 -0.501,0.5 h -4.312 c -0.275,0 -0.5,-0.225 -0.5,-0.5 v -4.75 c 0,-0.274 0.225,-0.5 0.5,-0.5 h 4.312 c 0.275,0 0.5,0.226 0.5,0.5 v 0.301 l -1.249,1.49 c -0.328,0.391 -0.898,0.428 -1.272,0.078 l -0.77,-0.713 c -0.373,-0.35 -0.963,-0.327 -1.308,0.048 -0.349,0.375 -0.326,0.962 0.049,1.31 l 2.16,2.007 c 0.171,0.161 0.398,0.248 0.63,0.248 0.02,0 0.037,0 0.059,-0.003 0.253,-0.016 0.488,-0.135 0.651,-0.328 l 1.051,-1.253 v 1.565 z"
           id="path5775" />
        <path
           inkscape:connector-curvature="0"
           d="m 21.778,46.35 -0.744,0.887 c -0.258,-0.453 -0.74,-0.764 -1.299,-0.764 h -4.312 c -0.827,0 -1.5,0.672 -1.5,1.5 v 4.75 c 0,0.826 0.673,1.5 1.5,1.5 h 4.312 c 0.827,0 1.5,-0.674 1.5,-1.5 v -2.845 l 1.962,-2.34 c 0.329,-0.392 0.277,-0.976 -0.114,-1.306 -0.393,-0.326 -0.976,-0.274 -1.305,0.118 z m -1.542,6.373 0,0 c -0.001,0.274 -0.226,0.5 -0.501,0.5 h -4.312 c -0.275,0 -0.5,-0.226 -0.5,-0.5 v -4.75 c 0,-0.275 0.225,-0.5 0.5,-0.5 h 4.312 c 0.275,0 0.5,0.225 0.5,0.5 v 0.217 l -1.249,1.488 c -0.328,0.393 -0.898,0.428 -1.272,0.08 l -0.77,-0.714 c -0.373,-0.349 -0.963,-0.327 -1.308,0.048 -0.349,0.375 -0.326,0.961 0.049,1.309 l 2.16,2.008 c 0.171,0.16 0.398,0.248 0.63,0.248 0.02,0 0.037,0 0.059,-0.002 0.253,-0.016 0.488,-0.135 0.651,-0.329 l 1.051,-1.253 v 1.65 z"
           id="path5777" />
        <path
           inkscape:connector-curvature="0"
           d="M 41.781,29.216 H 26.81 c -0.513,0 -0.927,0.413 -0.927,0.925 0,0.514 0.414,0.927 0.927,0.927 h 14.972 c 0.513,0 0.927,-0.413 0.927,-0.927 -0.001,-0.512 -0.415,-0.925 -0.928,-0.925 z"
           id="path5779" />
        <path
           inkscape:connector-curvature="0"
           d="M 41.781,38.286 H 26.81 c -0.513,0 -0.927,0.414 -0.927,0.927 0,0.512 0.414,0.926 0.927,0.926 h 14.972 c 0.513,0 0.927,-0.414 0.927,-0.926 -0.001,-0.513 -0.415,-0.927 -0.928,-0.927 z"
           id="path5781" />
        <path
           inkscape:connector-curvature="0"
           d="M 41.781,47.357 H 26.81 c -0.513,0 -0.927,0.414 -0.927,0.928 0,0.511 0.414,0.925 0.927,0.925 h 14.972 c 0.513,0 0.927,-0.414 0.927,-0.925 -0.001,-0.514 -0.415,-0.928 -0.928,-0.928 z"
           id="path5783" />
      </g>
      <g
         transform="matrix(1.6223299,0,0,1.6223299,860.83936,1246.8559)"
         id="g6477">
        <g
           id="g6019"
           transform="translate(-1.0847458,-26.033898)" />
        <g
           id="g6648">
          <g
             transform="translate(-1.0847485,-26.033897)"
             id="g6593">
            <g
               transform="matrix(0.81391449,0,0,0.81391449,152.27878,66.404999)"
               id="g4696">
              <g
                 id="imagenes" />
              <g
                 id="iconos">
                <path
                   inkscape:connector-curvature="0"
                   d="m 44.078,39.159 c 1.359,0.245 2.915,-1.133 3.556,-3.225 0.313,-1.022 0.342,-2.023 0.152,-2.851 -1.056,0.543 -2.293,1.105 -3.683,1.635 -0.561,0.214 -1.146,0.419 -1.756,0.616 C 39.395,36.285 35.896,37 31.979,37 c -3.828,0 -7.251,-0.761 -10.15,-1.791 -0.651,-0.231 -1.27,-0.475 -1.865,-0.728 -1.296,-0.551 -2.469,-1.136 -3.479,-1.709 -0.28,0.88 -0.284,2.008 0.07,3.162 0.625,2.042 2.123,3.402 3.458,3.239 0.067,2.49 0.217,4.751 0.53,5.421 0.792,1.698 7.583,8.906 8.583,9.406 1,0.5 6,0.542 6.875,0 0.875,-0.542 7.083,-7.604 7.687,-9.406 0.237,-0.709 0.345,-2.962 0.39,-5.435 z"
                   id="path4682" />
                <g
                   id="g4684">
                  <path
                     inkscape:connector-curvature="0"
                     d="m 50.079,25 c -0.617,1 -2.09,2.471 -5.367,3.847 -0.063,0.026 -0.767,0.333 -0.985,-0.229 -0.24,-0.617 0.137,-1.016 0.392,-1.122 3.214,-1.349 3.527,-2.714 3.999,-3.353 C 47.591,22.104 46.224,15.787 38,13.216 V 25 c 0,1.654 -1.346,3 -3,3 h -5 c -1.654,0 -3,-1.346 -3,-3 V 13.172 c -6.991,2.001 -9.456,8.342 -10.153,11.088 0.027,0.03 0.057,0.058 0.076,0.095 0.003,0.006 0.038,0.067 0.108,0.165 0.354,0.498 1.692,2.072 5.344,3.606 0.255,0.106 0.57,0.551 0.266,1.188 -0.344,0.719 -0.875,0.508 -0.938,0.482 -3.304,-1.387 -4.847,-3.002 -5.511,-3.794 H 13 v 2.125 c 0,0 1.758,1.513 4.75,3.119 0.682,0.366 1.423,0.734 2.229,1.093 0.272,0.121 0.551,0.241 0.837,0.359 C 23.886,33.962 27.7,35 32,35 c 4.307,0 9.602,-1.487 12.674,-2.614 0.303,-0.111 0.601,-0.224 0.889,-0.338 0.991,-0.394 1.658,-0.802 2.458,-1.199 2.674,-1.328 3.98,-2.516 3.98,-2.516 V 25 h -1.922 z"
                     id="path4686" />
                  <path
                     inkscape:connector-curvature="0"
                     d="m 30,26 h 5 c 0.552,0 1,-0.448 1,-1 V 12.701 11 c 0,-0.552 -0.448,-1 -1,-1 h -5 c -0.552,0 -1,0.448 -1,1 V 12.849 25 c 0,0.552 0.448,1 1,1 z"
                     id="path4688" />
                </g>
              </g>
            </g>
            <g
               transform="matrix(4.130018,0,0,4.130018,157.80882,63.219296)"
               id="g5846">
              <g
                 id="g5800">
                <polygon
                   points="4.22,2.555 4.22,1.29 30.022,1.29 30.022,17.738 9.49,17.738 9.423,19.028 31.313,19.028 31.313,0 2.931,0 2.931,2.953 "
                   id="polygon5804" />
                <polygon
                   points="1.796,21.198 1.796,21.839 1.796,28.642 1.533,28.642 0,28.974 0,30.387 1.305,30.387 2.829,30.138 2.843,30.387 4.531,30.387 4.531,28.812 4.531,28.642 4.531,21.839 5.492,21.839 5.492,28.642 5.492,28.812 5.492,30.387 7.18,30.387 7.194,30.138 8.718,30.387 10.023,30.387 10.023,28.974 8.489,28.642 8.227,28.642 8.227,21.839 8.227,21.198 8.227,20.328 8.47,20.328 8.825,13.423 15.415,10.008 14.861,8.94 15.022,9.22 22.083,5.178 21.763,4.618 14.713,8.654 14.549,8.337 8.524,11.459 6.374,11.459 4.917,13.148 3.507,11.459 0.411,12.034 0.213,18.902 1.526,18.902 1.597,20.328 1.796,20.328 "
                   id="polygon5808" />
              </g>
              <g
                 id="g5810" />
              <g
                 id="g5812" />
              <g
                 id="g5814" />
              <g
                 id="g5816" />
              <g
                 id="g5818" />
              <g
                 id="g5820" />
              <g
                 id="g5822" />
              <g
                 id="g5824" />
              <g
                 id="g5826" />
              <g
                 id="g5828" />
              <g
                 id="g5830" />
              <g
                 id="g5832" />
              <g
                 id="g5834" />
              <g
                 id="g5836" />
              <g
                 id="g5838" />
            </g>
          </g>
          <g
             transform="matrix(3.0819002,0,0,3.0819002,231.14382,65.839708)"
             id="g6124">
            <path
               inkscape:connector-curvature="0"
               style="fill:#010002"
               d="m 11.365,8.441 2.996,-3.012 0.473,0.468 0,0 c 0.222,0.223 0.222,0.582 0,0.802 l -2.207,2.198 c -0.22,0.22 -0.582,0.22 -0.805,0 l 0,0 -0.457,-0.456 z M 0,11.956 c 0.21,0.775 0.879,1.4 1.612,1.616 L 7.452,7.784 5.837,6.168 0,11.956 z M 11.019,7.375 c 0.024,0.052 0.047,0.102 0.065,0.154 0.015,0.042 0.028,0.082 0.038,0.116 0.02,0.078 0.04,0.152 0.044,0.226 0.861,-0.855 1.723,-1.71 2.584,-2.562 0,0 -1.637,-0.091 -2.14,-2.143 C 11.458,3.013 11.302,2.861 11.15,2.706 9.035,0.592 6.803,-0.16 4.707,0.028 4.592,0.037 4.361,0.071 4.151,0.101 3.779,0.158 3.745,0.701 4.15,0.706 4.34,0.708 4.537,0.71 4.628,0.721 5.012,0.773 5.384,0.812 5.751,0.949 7.316,1.547 8.328,3.245 6.993,4.568 6.635,4.92 5.923,5.625 5.923,5.625 l 2.15,2.112 c 0,0 0.154,-0.185 0.249,-0.267 0.43,-0.354 1.312,-0.934 2.205,-0.582 0.14,0.054 0.249,0.143 0.336,0.243 0.042,0.052 0.084,0.107 0.119,0.168 0.014,0.026 0.024,0.051 0.037,0.076 z"
               id="path6086" />
            <g
               id="g6088" />
            <g
               id="g6090" />
            <g
               id="g6092" />
            <g
               id="g6094" />
            <g
               id="g6096" />
            <g
               id="g6098" />
            <g
               id="g6100" />
            <g
               id="g6102" />
            <g
               id="g6104" />
            <g
               id="g6106" />
            <g
               id="g6108" />
            <g
               id="g6110" />
            <g
               id="g6112" />
            <g
               id="g6114" />
            <g
               id="g6116" />
          </g>
        </g>
      </g>
    </g>
  </g>
</svg>
