<?xml version="1.0" encoding="UTF-8" standalone="no"?>
<!-- Created with Inkscape (http://www.inkscape.org/) -->

<svg
   xmlns:dc="http://purl.org/dc/elements/1.1/"
   xmlns:cc="http://creativecommons.org/ns#"
   xmlns:rdf="http://www.w3.org/1999/02/22-rdf-syntax-ns#"
   xmlns:svg="http://www.w3.org/2000/svg"
   xmlns="http://www.w3.org/2000/svg"
   xmlns:sodipodi="http://sodipodi.sourceforge.net/DTD/sodipodi-0.dtd"
   xmlns:inkscape="http://www.inkscape.org/namespaces/inkscape"
   width="250"
   height="250"
   viewBox="0 0 66.145832 66.145835"
   version="1.1"
   id="svg8"
   inkscape:version="0.92.5 (0.92.5+69)"
   sodipodi:docname="gbp.svg">
  <defs
     id="defs2" />
  <sodipodi:namedview
     id="base"
     pagecolor="#ffffff"
     bordercolor="#666666"
     borderopacity="1.0"
     inkscape:pageopacity="0.0"
     inkscape:pageshadow="2"
     inkscape:zoom="1.979899"
     inkscape:cx="162.43661"
     inkscape:cy="106.14925"
     inkscape:document-units="mm"
     inkscape:current-layer="g855"
     showgrid="false"
     units="px"
     inkscape:window-width="1853"
     inkscape:window-height="1025"
     inkscape:window-x="67"
     inkscape:window-y="27"
     inkscape:window-maximized="1" />
  <metadata
     id="metadata5">
    <rdf:RDF>
      <cc:Work
         rdf:about="">
        <dc:format>image/svg+xml</dc:format>
        <dc:type
           rdf:resource="http://purl.org/dc/dcmitype/StillImage" />
        <dc:title></dc:title>
      </cc:Work>
    </rdf:RDF>
  </metadata>
  <g
     inkscape:label="Layer 1"
     inkscape:groupmode="layer"
     id="layer1"
     transform="translate(0,-230.85415)">
    <path
       inkscape:connector-curvature="0"
       style="fill:#dd9f3a;stroke-width:0.10328199"
       d="m 40.954849,278.92783 v 4.75211 c 0,1.29608 -1.050481,2.34656 -2.346567,2.34656 H 10.506388 c -1.2960852,0 -2.3465663,-1.05048 -2.3465663,-2.34656 v -4.75211 c 0,-1.29495 1.0504811,-2.34553 2.3465663,-2.34553 h 28.101894 c 1.295982,0 2.346567,1.05058 2.346567,2.34553 z"
       id="path885" />
    <path
       inkscape:connector-curvature="0"
       style="fill:#f4b74a;stroke-width:0.10328199"
       d="m 40.954952,278.92793 v 4.75211 c 0,1.21171 -0.918797,2.20962 -2.097864,2.33397 -0.08221,0.008 -0.164425,0.0126 -0.248703,0.0126 H 16.281711 c -1.29495,0 -2.345534,-1.05048 -2.345534,-2.34657 v -4.75211 c 0,-1.29495 1.050481,-2.34553 2.345534,-2.34553 h 22.326674 c 1.295983,0 2.346567,1.05058 2.346567,2.34553 z"
       id="path887" />
    <g
       id="g893"
       transform="matrix(0.10328199,0,0,0.10328199,7.3694046,235.97409)">
	<path
   inkscape:connector-curvature="0"
   style="fill:#dd9f3a"
   d="M 325.183,415.889 V 461.9 c 0,11.732 -8.896,21.394 -20.312,22.598 -2.071,0.082 -4.142,0.122 -6.213,0.122 -21.955,0 -43.91,-4.52 -64.355,-13.579 -13.722,-6.07 -26.74,-14.191 -38.635,-24.342 -3.183,-2.714 -6.264,-5.57 -9.274,-8.57 -13.436,-13.436 -23.954,-28.678 -31.565,-44.95 h 147.634 c 12.548,0 22.72,10.172 22.72,22.71 z"
   id="path889" />

	<path
   inkscape:connector-curvature="0"
   style="fill:#dd9f3a"
   d="m 340.486,324.44 v 46.011 c 0,12.549 -10.171,22.72 -22.72,22.72 H 45.677 c -12.549,0 -22.72,-10.171 -22.72,-22.72 V 324.44 c 0,-12.538 10.171,-22.71 22.72,-22.71 h 272.089 c 12.548,0 22.72,10.171 22.72,22.71 z"
   id="path891" />

</g>
    <path
       inkscape:connector-curvature="0"
       style="fill:#f4b74a;stroke-width:0.10328199"
       d="m 40.954952,269.48269 v 4.75211 c 0,1.29609 -1.050481,2.34657 -2.346567,2.34657 H 16.281711 c -1.29495,0 -2.345534,-1.05048 -2.345534,-2.34657 v -4.75211 c 0,-1.29495 1.050481,-2.34553 2.345534,-2.34553 h 22.326674 c 1.295983,0 2.346567,1.05048 2.346567,2.34553 z"
       id="path895" />
    <g
       id="g901"
       transform="matrix(0.10328199,0,0,0.10328199,7.3694046,235.97409)">
	<path
   inkscape:connector-curvature="0"
   style="fill:#dd9f3a"
   d="m 325.183,324.438 v 46.011 c 0,12.549 -10.171,22.72 -22.72,22.72 H 170.111 C 156.675,364.45 152.308,332.528 157.022,301.728 h 145.441 c 12.548,0 22.72,10.171 22.72,22.71 z"
   id="path897" />

	<path
   inkscape:connector-curvature="0"
   style="fill:#dd9f3a"
   d="m 325.182,50.096 v 46.011 c 0,12.549 -10.171,22.72 -22.72,22.72 H 30.373 c -12.549,0 -22.72,-10.171 -22.72,-22.72 V 50.096 c 0,-12.538 10.171,-22.71 22.72,-22.71 h 272.089 c 12.548,0 22.72,10.171 22.72,22.71 z"
   id="path899" />

</g>
    <path
       inkscape:connector-curvature="0"
       style="fill:#f4b74a;stroke-width:0.10328199"
       d="m 40.954849,241.1481 v 4.75211 c 0,1.29609 -1.050481,2.34657 -2.346567,2.34657 H 16.281608 c -1.29495,0 -2.345534,-1.05048 -2.345534,-2.34657 v -4.75211 c 0,-1.29495 1.050481,-2.34553 2.345534,-2.34553 h 22.326674 c 1.295982,0 2.346567,1.05048 2.346567,2.34553 z"
       id="path903" />
    <g
       id="g909"
       transform="matrix(0.10328199,0,0,0.10328199,7.3694046,235.97409)">
	<rect
   x="254.511"
   y="27.382"
   style="fill:#f9c662"
   width="33.324001"
   height="91.450996"
   id="rect905" />

	<rect
   x="213.366"
   y="27.382"
   style="fill:#f9c662"
   width="16.662001"
   height="91.450996"
   id="rect907" />

</g>
    <path
       inkscape:connector-curvature="0"
       style="fill:#dd9f3a;stroke-width:0.10328199"
       d="m 45.169787,250.59304 v 4.7521 c 0,1.29609 -1.050481,2.34657 -2.346567,2.34657 H 14.721326 c -1.296085,0 -2.346566,-1.05048 -2.346566,-2.34657 v -4.7521 c 0,-1.29495 1.050481,-2.34554 2.346566,-2.34554 H 42.82322 c 1.296189,0 2.346567,1.05059 2.346567,2.34554 z"
       id="path911" />
    <path
       inkscape:connector-curvature="0"
       style="fill:#f4b74a;stroke-width:0.10328199"
       d="m 45.169683,250.59314 v 4.75211 c 0,1.29608 -1.050481,2.34656 -2.346566,2.34656 H 20.496442 c -1.294949,0 -2.345534,-1.05048 -2.345534,-2.34656 v -4.75211 c 0,-1.29495 1.050481,-2.34553 2.345534,-2.34553 h 22.326675 c 1.296085,0 2.346566,1.05058 2.346566,2.34553 z"
       id="path913" />
    <g
       id="g919"
       transform="matrix(0.10328199,0,0,0.10328199,7.3694046,235.97409)">
	<rect
   x="294.646"
   y="118.836"
   style="fill:#f9c662"
   width="33.324001"
   height="91.450996"
   id="rect915" />

	<rect
   x="253.491"
   y="118.836"
   style="fill:#f9c662"
   width="16.662001"
   height="91.450996"
   id="rect917" />

</g>
    <g
       id="g925"
       transform="matrix(0.10328199,0,0,0.10328199,7.3694046,235.97409)">
	<path
   inkscape:connector-curvature="0"
   style="fill:#dd9f3a"
   d="m 365.991,172.692 v 14.864 c 0,12.549 -10.171,22.72 -22.72,22.72 H 215.327 c 41.512,-39.135 98.95,-51.663 150.664,-37.584 z"
   id="path921" />

	<path
   inkscape:connector-curvature="0"
   style="fill:#dd9f3a"
   d="m 325.182,232.991 v 46.011 c 0,12.549 -10.171,22.72 -22.72,22.72 H 30.373 c -12.549,0 -22.72,-10.171 -22.72,-22.72 v -46.011 c 0,-12.538 10.171,-22.71 22.72,-22.71 h 272.089 c 12.548,0 22.72,10.172 22.72,22.71 z"
   id="path923" />

</g>
    <path
       inkscape:connector-curvature="0"
       style="fill:#f4b74a;stroke-width:0.10328199"
       d="m 40.954952,260.03838 v 4.75211 c 0,1.29608 -1.050481,2.34656 -2.346567,2.34656 H 16.281711 c -1.29495,0 -2.345534,-1.05048 -2.345534,-2.34656 v -4.75211 c 0,-1.29495 1.050481,-2.34553 2.345534,-2.34553 h 22.326674 c 1.295983,10e-5 2.346567,1.05058 2.346567,2.34553 z"
       id="path927" />
    <path
       inkscape:connector-curvature="0"
       style="fill:#dd9f3a;stroke-width:0.10328199"
       d="m 40.954952,260.03838 v 4.75211 c 0,1.29608 -1.050481,2.34656 -2.346567,2.34656 h -16.60196 c 0.508974,-3.33177 2.047359,-6.53599 4.61309,-9.10172 0.116915,-0.11692 0.234967,-0.23073 0.354051,-0.34248 h 11.634819 c 1.295983,10e-5 2.346567,1.05058 2.346567,2.34553 z"
       id="path929" />
    <path
       inkscape:connector-curvature="0"
       style="fill:#f4b74a;stroke-width:0.10328199"
       d="m 54.65696,281.22451 c -4.932334,4.93151 -12.223733,6.06513 -18.240942,3.39953 -1.417132,-0.62713 -2.76238,-1.46506 -3.990299,-2.51368 -0.32885,-0.2801 -0.647785,-0.5759 -0.95856,-0.88585 -6.403174,-6.404 -6.403174,-16.7858 0,-23.1898 6.403999,-6.40317 16.785802,-6.40317 23.189801,0 0.310776,0.31078 0.605646,0.62971 0.88585,0.95856 1.048622,1.22709 1.886549,2.57306 2.513677,3.9903 2.665708,6.01638 1.531982,13.30861 -3.399527,18.24094 z"
       id="path931" />
    <path
       inkscape:connector-curvature="0"
       style="fill:#f9c662;stroke-width:0.10328199"
       d="m 58.056384,262.98347 -21.640366,21.64047 c -1.417132,-0.62713 -2.76238,-1.46506 -3.990299,-2.51368 L 55.54281,258.99327 c 1.048519,1.22699 1.886446,2.57306 2.513574,3.9902 z"
       id="path933" />
    <path
       inkscape:connector-curvature="0"
       style="fill:#ffd488;stroke-width:0.10328199"
       d="m 54.656857,269.62966 c 0,6.40359 -5.191263,11.59485 -11.594849,11.59485 -3.614663,0 -6.842535,-1.65354 -8.969421,-4.24623 -1.641254,-2.00047 -2.625325,-4.55959 -2.625325,-7.34851 0,-6.40359 5.191262,-11.59485 11.594849,-11.59485 2.789647,0 5.348974,0.98562 7.349133,2.62687 2.591965,2.12596 4.245613,5.35393 4.245613,8.96787 z"
       id="path935" />
    <path
       inkscape:connector-curvature="0"
       style="fill:#f9c662;stroke-width:0.10328199"
       d="m 50.411244,260.66169 -16.317108,16.31711 -0.0014,-7.3e-4 c -0.479022,-0.58364 -0.902065,-1.21532 -1.26035,-1.88624 -0.40848,-0.76242 -0.733406,-1.57505 -0.963828,-2.42774 -0.261613,-0.96744 -0.40125,-1.98508 -0.40125,-3.03463 0,-6.40359 5.191262,-11.59485 11.594849,-11.59485 1.050275,0 2.067912,0.13953 3.034632,0.40125 0.852696,0.23042 1.665215,0.55607 2.427746,0.96455 0.670817,0.35849 1.302386,0.78226 1.886755,1.26128 z"
       id="path937" />
    <path
       inkscape:connector-curvature="0"
       style="fill:#ffd488;stroke-width:0.10328199"
       d="M 48.524386,259.40061 32.83234,275.09183 c -0.40848,-0.76242 -0.733406,-1.57505 -0.963828,-2.42774 l 14.228231,-14.22813 c 0.852489,0.23042 1.665215,0.55617 2.427643,0.96465 z"
       id="path939" />
    <path
       inkscape:connector-curvature="0"
       d="M 34.603833,285.2365 H 10.506182 c -0.8581701,0 -1.5561498,-0.69808 -1.5561498,-1.55605 v -4.7521 c 0,-0.85807 0.6980829,-1.55615 1.5561498,-1.55615 h 1.580627 4.194902 9.506487 c 0.436573,0 0.790314,-0.35385 0.790314,-0.79032 0,-0.43647 -0.353741,-0.79031 -0.790314,-0.79031 h -9.50659 -4.194799 c -0.85817,0 -1.556149,-0.69808 -1.556149,-1.55615 v -4.75211 c 0,-0.85806 0.698083,-1.55615 1.556149,-1.55615 h 12.261329 c 0.436572,0 0.790313,-0.35384 0.790313,-0.79031 0,-0.43647 -0.353741,-0.79032 -0.790313,-0.79032 H 10.506182 c -0.8581701,0 -1.5561498,-0.69808 -1.5561498,-1.55615 v -4.7521 c 0,-0.85807 0.6980829,-1.55615 1.5561498,-1.55615 h 4.214938 6.325609 7.779612 c 0.436573,0 0.790314,-0.35385 0.790314,-0.79032 0,-0.43647 -0.353741,-0.79031 -0.790314,-0.79031 H 21.046729 14.72112 c -0.85817,0 -1.55615,-0.69808 -1.55615,-1.55615 v -4.75211 c 0,-0.85806 0.698083,-1.55615 1.55615,-1.55615 h 23.887059 4.215041 c 0.85817,0 1.55615,0.69809 1.55615,1.55615 v 0.58943 c 0,0.43647 0.35374,0.79032 0.790313,0.79032 0.436573,0 0.790314,-0.35385 0.790314,-0.79032 v -0.58943 c 0,-1.72966 -1.407114,-3.13677 -3.136777,-3.13677 h -1.493354 c 0.263472,-0.45899 0.414987,-0.99007 0.414987,-1.55615 V 241.148 c 0,-1.72966 -1.407114,-3.13678 -3.136778,-3.13678 H 10.506182 c -1.7296636,6.2e-4 -3.1367774,1.40774 -3.1367774,3.1373 v 4.75211 c 0,1.72966 1.4071138,3.13677 3.1367774,3.13677 h 1.493148 c -0.263473,0.45899 -0.414987,0.99006 -0.414987,1.55615 v 4.75211 c 0,0.56619 0.151514,1.09716 0.414987,1.55615 h -1.493148 c -1.7296636,-1e-4 -3.1367774,1.40701 -3.1367774,3.13657 v 4.75211 c 0,1.36766 0.8802724,2.53309 2.1036476,2.96109 -0.3300893,0.49658 -0.52302,1.0919 -0.52302,1.73173 v 4.75211 c 0,0.63983 0.1929307,1.23515 0.52302,1.73173 -1.2233752,0.428 -2.1036476,1.59343 -2.1036476,2.96109 v 4.75211 c 0,1.72956 1.4071138,3.13668 3.1367774,3.13668 h 24.097651 c 0.436573,0 0.790313,-0.35385 0.790313,-0.79032 0,-0.43647 -0.353947,-0.79021 -0.790313,-0.79021 z M 8.9499289,245.90063 v -4.75211 c 0,-0.85807 0.698083,-1.55615 1.5561501,-1.55615 h 28.101996 c 0.85817,0 1.55615,0.69808 1.55615,1.55615 v 4.75211 c 0,0.85806 -0.698083,1.55615 -1.55615,1.55615 H 14.72112 10.506182 c -0.8581701,0 -1.5562531,-0.69809 -1.5562531,-1.55615 z"
       id="path941"
       style="stroke-width:0.10328199" />
    <path
       inkscape:connector-curvature="0"
       d="m 52.434435,255.21976 c -0.365515,-0.23827 -0.855278,-0.13509 -1.093549,0.23063 -0.238375,0.36562 -0.135093,0.85528 0.230525,1.09355 4.444431,2.89633 7.097745,7.78818 7.097745,13.08562 0,8.60576 -7.001383,15.60715 -15.607148,15.60715 -8.605869,0 -15.607252,-7.00139 -15.607252,-15.60715 0,-8.60577 7.001383,-15.60715 15.607252,-15.60715 2.2595,0 4.43875,0.4721 6.476917,1.40298 0.397326,0.18147 0.865916,0.006 1.047176,-0.39051 0.181363,-0.39701 0.0065,-0.86581 -0.390509,-1.04717 -2.245764,-1.0258 -4.645831,-1.54582 -7.133584,-1.54582 -9.477259,0 -17.187776,7.71041 -17.187776,17.18767 0,9.47726 7.710517,17.18767 17.187776,17.18767 9.477259,0 17.187775,-7.71031 17.187775,-17.18757 0,-5.83388 -2.921537,-11.22076 -7.815348,-14.4099 z"
       id="path943"
       style="stroke-width:0.10328199" />
    <path
       inkscape:connector-curvature="0"
       d="m 40.276493,272.60945 c 0,-0.43647 -0.353741,-0.79031 -0.790314,-0.79031 -0.436573,0 -0.790314,0.35384 -0.790314,0.79031 0,1.84586 1.544582,3.38497 3.576036,3.7071 v 0.46477 c 0,0.43647 0.35374,0.79031 0.790313,0.79031 0.436573,0 0.790314,-0.35384 0.790314,-0.79031 v -0.46477 c 2.031454,-0.32213 3.575933,-1.86135 3.575933,-3.7071 0,-1.84575 -1.544479,-3.38496 -3.575933,-3.7071 v -4.3521 c 1.152214,0.26843 1.995408,1.1077 1.995408,2.09942 0,0.43647 0.353741,0.79031 0.790314,0.79031 0.436573,0 0.790314,-0.35384 0.790314,-0.79031 0,-1.84586 -1.544479,-3.38497 -3.575933,-3.7071 v -0.46477 c 0,-0.43647 -0.35374,-0.79032 -0.790313,-0.79032 -0.436573,0 -0.790314,0.35385 -0.790314,0.79032 v 0.46477 c -2.031454,0.32224 -3.576036,1.86134 -3.576036,3.7071 0,1.84575 1.544582,3.38496 3.576036,3.7071 v 4.35209 c -1.152421,-0.26853 -1.995511,-1.1078 -1.995511,-2.09941 z m 5.571237,0 c 0,0.99161 -0.843194,1.83088 -1.995408,2.09941 v -4.19872 c 1.152214,0.26843 1.995408,1.1078 1.995408,2.09931 z m -5.571237,-5.95978 c 0,-0.99161 0.843194,-1.83088 1.995511,-2.09942 v 4.19873 c -1.152421,-0.26843 -1.995511,-1.1077 -1.995511,-2.09931 z"
       id="path947"
       style="stroke-width:0.10328199" />
    <g
       id="g949"
       transform="matrix(0.10328199,0,0,0.10328199,7.3694046,235.97409)">
</g>
    <g
       id="g951"
       transform="matrix(0.10328199,0,0,0.10328199,7.3694046,235.97409)">
</g>
    <g
       id="g953"
       transform="matrix(0.10328199,0,0,0.10328199,7.3694046,235.97409)">
</g>
    <g
       id="g955"
       transform="matrix(0.10328199,0,0,0.10328199,7.3694046,235.97409)">
</g>
    <g
       id="g957"
       transform="matrix(0.10328199,0,0,0.10328199,7.3694046,235.97409)">
</g>
    <g
       id="g959"
       transform="matrix(0.10328199,0,0,0.10328199,7.3694046,235.97409)">
</g>
    <g
       id="g961"
       transform="matrix(0.10328199,0,0,0.10328199,7.3694046,235.97409)">
</g>
    <g
       id="g963"
       transform="matrix(0.10328199,0,0,0.10328199,7.3694046,235.97409)">
</g>
    <g
       id="g965"
       transform="matrix(0.10328199,0,0,0.10328199,7.3694046,235.97409)">
</g>
    <g
       id="g967"
       transform="matrix(0.10328199,0,0,0.10328199,7.3694046,235.97409)">
</g>
    <g
       id="g969"
       transform="matrix(0.10328199,0,0,0.10328199,7.3694046,235.97409)">
</g>
    <g
       id="g971"
       transform="matrix(0.10328199,0,0,0.10328199,7.3694046,235.97409)">
</g>
    <g
       id="g973"
       transform="matrix(0.10328199,0,0,0.10328199,7.3694046,235.97409)">
</g>
    <g
       id="g975"
       transform="matrix(0.10328199,0,0,0.10328199,7.3694046,235.97409)">
</g>
    <g
       id="g977"
       transform="matrix(0.10328199,0,0,0.10328199,7.3694046,235.97409)">
</g>
    <g
       id="g855"
       transform="matrix(0.0419661,0,0,0.0419661,32.433346,261.47438)">
      <g
         id="g843">
        <path
           id="path815"
           d="m 377.667,463.059 2.281,-7.366 c -3.036,-11.099 -6.951,-20.999 -11.275,-29.738 l -9.608,-5.926 2.031,-7.691 c -16.042,-25.783 -33.82,-37.899 -33.82,-37.899 H 184.723 c 0,0 -17.778,12.118 -33.82,37.902 l -0.059,8.888 -7.497,4.711 c -4.329,8.747 -8.257,18.638 -11.296,29.751 51.292,0.001 204.30387,17.0686 245.616,7.368 z"
           inkscape:connector-curvature="0"
           style="fill:#ff889e"
           sodipodi:nodetypes="cccccccccccc" />
        <path
           id="path817"
           d="m 200.736,374.439 h -16.014 c 0,0 -17.778,12.118 -33.82,37.902 l -0.059,8.888 -7.497,4.711 c -4.329,8.747 -8.257,18.638 -11.296,29.751 103.99322,34.53923 11.80217,-40.69633 68.686,-81.252 z"
           inkscape:connector-curvature="0"
           style="fill:#ff748f"
           sodipodi:nodetypes="ccccccc" />
        <path
           id="path819"
           d="M 46.986,216.514 C 46.986,101.263 140.75,7.5 256,7.5 c 115.25,0 209.014,93.763 209.014,209.014 z"
           inkscape:connector-curvature="0"
           style="fill:#5c586f" />
        <g
           id="g823">
          <circle
             id="circle821"
             r="48.912998"
             cy="226.74001"
             cx="429.22299"
             style="fill:#ffbd86" />
        </g>
        <path
           id="path825"
           d="m 112.043,199.755 c 0,-73.651 31.564,-139.392 80.972,-182.55 -84.564,26.784 -146.029,106 -146.029,199.309 h 65.617 c -0.363,-5.537 -0.56,-11.123 -0.56,-16.759 z"
           inkscape:connector-curvature="0"
           style="fill:#4f4c5f" />
        <path
           id="path827"
           d="m 424.955,178.158 c -3.022,-13.355 -12.448,-24.289 -25.198,-29.281 -41.198,-16.129 -68.379,-56.221 -68.379,-56.221 -36.136,61.21 -117.258,62.685 -117.258,62.685 24.337,-24.337 9.587,-62.685 9.587,-62.685 -28.106,32.364 -70.739,44.81 -101.753,49.549 -16.053,2.453 -29.225,14.066 -33.392,29.762 -3.867,14.565 -5.884,29.884 -5.782,45.69 0.609,94.364 77.636,171.426 172,172.076 96.228,0.662 174.442,-77.144 174.442,-173.219 0.001,-13.182 -1.475,-26.019 -4.267,-38.356 z"
           inkscape:connector-curvature="0"
           style="fill:#fed2a4" />
        <path
           id="path829"
           d="m 183.946,373.952 c -44.172,-43.054 -71.903,-105.154 -71.903,-174.197 0,-19.607 2.251,-38.648 6.465,-56.858 -14.468,3.485 -26.081,14.515 -29.945,29.07 -0.534,2.012 -1.025,4.042 -1.488,6.082 -1.327,-0.141 -2.748,-0.222 -4.298,-0.222 -27.014,0 -48.912,21.899 -48.912,48.913 0,27.014 21.899,48.913 48.912,48.913 4.062,0 7.318,-0.504 9.938,-1.437 15.725,44.18 48.947,80.243 91.231,99.736 z"
           inkscape:connector-curvature="0"
           style="fill:#ffbd86" />
        <g
           id="g841">
          <g
             id="g839">
            <g
               id="g833">
              <ellipse
                 id="ellipse831"
                 ry="30.899"
                 rx="38.800999"
                 cy="250.455"
                 cx="150.84399"
                 style="fill:#ff9db0" />
            </g>
            <g
               id="g837">
              <ellipse
                 id="ellipse835"
                 ry="30.899"
                 rx="38.800999"
                 cy="250.455"
                 cx="361.15601"
                 style="fill:#ff9db0" />
            </g>
          </g>
        </g>
      </g>
      <g
         id="g853">
        <path
           id="path845"
           d="m 165.949,204.849 v 15.861 c 0,4.142 3.358,7.5 7.5,7.5 4.143,0 7.5,-3.358 7.5,-7.5 v -15.861 c 0,-4.142 -3.357,-7.5 -7.5,-7.5 -4.142,0 -7.5,3.358 -7.5,7.5 z"
           inkscape:connector-curvature="0" />
        <path
           id="path847"
           d="m 338.536,197.349 c -4.142,0 -7.5,3.358 -7.5,7.5 v 15.861 c 0,4.142 3.358,7.5 7.5,7.5 4.142,0 7.5,-3.358 7.5,-7.5 v -15.861 c 0,-4.142 -3.358,-7.5 -7.5,-7.5 z"
           inkscape:connector-curvature="0" />
        <path
           id="path849"
           d="m 272.1,215.311 c -4.066,4.666 -9.937,7.342 -16.108,7.342 -6.171,0 -12.042,-2.676 -16.108,-7.341 -2.721,-3.123 -7.458,-3.448 -10.582,-0.727 -3.123,2.721 -3.448,7.459 -0.727,10.582 6.916,7.936 16.908,12.487 27.417,12.487 10.508,0 20.5,-4.551 27.417,-12.486 2.721,-3.123 2.396,-7.86 -0.727,-10.582 -3.123,-2.722 -7.86,-2.397 -10.582,0.725 z"
           inkscape:connector-curvature="0" />
        <path
           id="path851"
           d="M 400.295,55.234 C 360.533,19.616 309.285,0 255.993,0 213.684,0 172.661,12.271 137.357,35.485 c -3.461,2.276 -4.421,6.926 -2.146,10.387 2.275,3.461 6.927,4.423 10.387,2.146 C 178.448,26.417 216.622,15 255.993,15 c 49.593,0 97.286,18.256 134.293,51.407 32.377,29.002 54.379,67.33 63.054,109.314 -7.02,-3.327 -15.037,-5.215 -22.91,-5.381 -4.674,-12.633 -14.682,-23.253 -27.946,-28.447 -24.929,-9.76 -50.769,-32.884 -64.905,-53.445 -3.065,-4.522 -9.85,-4.368 -12.667,0.396 -19.696,33.369 -57.048,51.353 -95.167,57.337 12.435,-25.578 1.518,-54.753 0.955,-56.216 -2.012,-5.229 -8.936,-6.519 -12.663,-2.225 -24.08,27.729 -61.204,41.548 -97.223,47.052 -19.336,2.955 -34.81,17.065 -39.588,35.557 -7.55,0.201 -15.476,2.007 -22.582,5.374 8.74,-42.309 31,-80.868 63.788,-109.957 3.098,-2.749 3.381,-7.489 0.633,-10.588 -2.749,-3.098 -7.489,-3.382 -10.588,-0.633 -39.271,34.842 -64.471,82.344 -71.168,133.992 -9.274,10.057 -14.952,23.477 -14.952,38.203 0,33.029 28.444,59.244 61.646,56.157 15.9,39.853 45.641,72.863 83.172,93.004 -165.9214958,149.3685 340.40399,141.20473 169.797,0.148 13.71,-7.318 26.54,-16.449 38.158,-27.269 3.031,-2.823 3.2,-7.569 0.376,-10.6 -2.823,-3.031 -7.568,-3.2 -10.6,-0.376 -34.331,31.975 -78.804,46.69 -122.484,44.158 C 143.12,375.997 68.735,275.913 95.805,173.891 c 3.381,-12.735 14.092,-22.257 27.276,-24.272 35.095,-5.365 70.618,-18.13 96.61,-42.093 1.87,11.804 1.894,29.738 -10.881,42.512 -4.666,4.667 -1.462,12.859 5.44,12.802 11.133,-0.205 30.079,-3.198 47.25,-8.752 27.873,-9.014 53.077,-24.777 70.311,-48.457 17.094,20.996 40.091,40.396 65.206,50.229 17.821,6.977 20.535,23.747 20.593,23.859 10.527,44.6 1.463,95.971 -29.431,136.756 -2.501,3.302 -1.852,8.006 1.45,10.507 3.301,2.5 8.006,1.852 10.507,-1.45 10.024,-13.235 18.062,-27.543 24.026,-42.621 51.429,4.602 81.194,-56.77 46.516,-94.376 C 464.027,137.258 439.106,90 400.295,55.234 Z m -86.653,332.609 v 24.495 h -50.149 v -15.259 c 17.71,-0.721 34.673,-4.016 50.149,-9.236 z m 58.554,67.848 h -43.553 v -28.354 h 32.331 c 4.64,9.014 8.391,18.47 11.222,28.354 z m -58.554,0 h -50.149 v -28.354 h 50.149 z m -162.63,-28.353 h 32.331 v 28.354 H 139.79 c 2.831,-9.885 6.582,-19.341 11.222,-28.354 z m 47.331,0 h 50.15 v 28.354 h -50.15 z m 0,-39.572 c 16.168,5.493 32.958,8.603 50.15,9.305 v 15.267 h -50.15 z m -15,-2.613 v 27.185 H 159.84 c 7.382,-11.057 15.444,-20.123 23.503,-27.185 z m 168.802,27.185 h -23.503 v -27.185 c 7.977,6.99 16.099,16.081 23.503,27.185 z M 82.836,268.152 c -37.75,0 -55.569,-46.182 -28.33,-71.655 0.624,-0.427 8.849,-9.182 23.406,-10.877 -4.608,26.748 -3.301,55.15 4.924,82.532 z m 346.428,-10e-4 c 8.132,-27.367 9.393,-56.029 4.815,-82.53 20.577,2.392 36.548,19.964 36.548,41.119 10e-4,22.819 -18.551,41.385 -41.363,41.411 z"
           inkscape:connector-curvature="0"
           sodipodi:nodetypes="cscscsccccccccccccccccscccccccccccccccccccccccccccccccccccccccccccccccccccccccccccccccccccc" />
      </g>
    </g>
    <path
       inkscape:connector-curvature="0"
       d="m 33.528254,274.72002 c -0.205635,-0.38493 -0.684243,-0.53035 -1.069382,-0.32441 -0.384932,0.20563 -0.53025,0.68455 -0.324409,1.06948 0.572906,1.07187 1.303006,2.05501 2.170162,2.92216 2.414526,2.41453 5.586109,3.62179 8.757589,3.62179 3.17148,0 6.343064,-1.20726 8.75759,-3.62179 4.82895,-4.82895 4.82895,-12.68633 0,-17.51528 -2.339337,-2.33934 -5.449467,-3.62757 -8.75759,-3.62757 -3.308122,0 -6.418356,1.28834 -8.757589,3.62757 -3.127069,3.12697 -4.35251,7.72436 -3.198127,11.99816 0.113817,0.4214 0.547394,0.67072 0.968991,0.5569 0.421288,-0.11382 0.67061,-0.5476 0.556794,-0.96899 -1.007206,-3.7291 0.06187,-7.74037 2.790059,-10.46846 2.040646,-2.04064 4.753967,-3.16466 7.639976,-3.16466 2.886008,0 5.599329,1.12392 7.639975,3.16466 4.212769,4.21277 4.212769,11.06729 0,15.28006 -4.212666,4.21266 -11.067182,4.21266 -15.279951,0 -0.757367,-0.75716 -1.394616,-1.61502 -1.894088,-2.54962 z"
       id="path945"
       style="stroke-width:0.10328199" />
  </g>
</svg>
