<?xml version="1.0" encoding="UTF-8" standalone="no"?>
<!-- Created with Inkscape (http://www.inkscape.org/) -->

<svg
   xmlns:dc="http://purl.org/dc/elements/1.1/"
   xmlns:cc="http://creativecommons.org/ns#"
   xmlns:rdf="http://www.w3.org/1999/02/22-rdf-syntax-ns#"
   xmlns:svg="http://www.w3.org/2000/svg"
   xmlns="http://www.w3.org/2000/svg"
   xmlns:sodipodi="http://sodipodi.sourceforge.net/DTD/sodipodi-0.dtd"
   xmlns:inkscape="http://www.inkscape.org/namespaces/inkscape"
   width="300"
   height="150"
   id="svg2"
   version="1.1"
   inkscape:version="0.48.4 r9939"
   sodipodi:docname="HinesEDM_Logo.svg">
  <defs
     id="defs4">
    <clipPath
       id="clipPath3027"
       clipPathUnits="userSpaceOnUse">
      <path
         id="path3029"
         d="M 0,180 288,180 288,0 0,0 0,180 z"
         inkscape:connector-curvature="0" />
    </clipPath>
  </defs>
  <sodipodi:namedview
     id="base"
     pagecolor="#ffffff"
     bordercolor="#666666"
     borderopacity="1.0"
     inkscape:pageopacity="0.0"
     inkscape:pageshadow="2"
     inkscape:zoom="1.979899"
     inkscape:cx="53.449765"
     inkscape:cy="42.416167"
     inkscape:document-units="px"
     inkscape:current-layer="g4879"
     showgrid="false"
     inkscape:window-width="1536"
     inkscape:window-height="803"
     inkscape:window-x="-8"
     inkscape:window-y="-8"
     inkscape:window-maximized="1" />
  <metadata
     id="metadata7">
    <rdf:RDF>
      <cc:Work
         rdf:about="">
        <dc:format>image/svg+xml</dc:format>
        <dc:type
           rdf:resource="http://purl.org/dc/dcmitype/StillImage" />
        <dc:title></dc:title>
      </cc:Work>
    </rdf:RDF>
  </metadata>
  <g
     inkscape:label="Layer 1"
     inkscape:groupmode="layer"
     id="layer1"
     transform="translate(0,-902.36218)">
    <g
       transform="matrix(4.375487,0,0,-4.375487,-321.65726,975.95977)"
       inkscape:label="logo2"
       id="g2993">
      <g
         id="g4807"
         transform="matrix(0.98479988,0,0,0.98479988,-3.5570076,0.14910715)">
        <g
           id="g4879">
          <g
             id="g5028"
             transform="matrix(1.4580207,0,0,1.4580207,-36.182078,7.8269278)">
            <g
               id="g650"
               transform="matrix(0.20822809,0,0,-0.20822809,-52.647906,101.66914)"
               style="fill:#3498db;fill-opacity:1">
              <rect
                 id="rect652"
                 height="12.438"
                 width="12.438"
                 y="513.72156"
                 x="829.45099"
                 style="fill:#3498db;fill-opacity:1" />
              <rect
                 id="rect654"
                 height="12.438"
                 width="12.438"
                 y="499.89999"
                 x="829.45099"
                 style="fill:#3498db;fill-opacity:1" />
              <rect
                 id="rect656"
                 height="12.438"
                 width="12.438"
                 y="485.89999"
                 x="829.45099"
                 style="fill:#3498db;fill-opacity:1" />
              <rect
                 id="rect658"
                 height="12.438"
                 width="12.438"
                 y="471.89999"
                 x="829.45099"
                 style="fill:#3498db;fill-opacity:1" />
              <rect
                 id="rect662"
                 height="12.438"
                 width="12.438"
                 y="513.90002"
                 x="815.33801"
                 style="opacity:0.84134617;fill:#3498db;fill-opacity:1" />
              <rect
                 id="rect664"
                 height="12.438"
                 width="12.438"
                 y="499.89999"
                 x="815.33801"
                 style="opacity:0.84134617;fill:#3498db;fill-opacity:1" />
              <rect
                 id="rect666"
                 height="12.438"
                 width="12.438"
                 y="485.89999"
                 x="815.33801"
                 style="opacity:0.84134617;fill:#3498db;fill-opacity:1" />
              <rect
                 id="rect668"
                 height="12.438"
                 width="12.438"
                 y="471.89999"
                 x="815.33801"
                 style="opacity:0.84134617;fill:#3498db;fill-opacity:1" />
              <rect
                 id="rect672"
                 height="12.438"
                 width="12.438"
                 y="513.90002"
                 x="801.51398"
                 style="opacity:0.7307692;fill:#3498db;fill-opacity:1" />
              <rect
                 id="rect674"
                 height="12.438"
                 width="12.438"
                 y="499.89999"
                 x="801.51398"
                 style="opacity:0.7307692;fill:#3498db;fill-opacity:1" />
              <rect
                 id="rect676"
                 height="12.438"
                 width="12.438"
                 y="485.89999"
                 x="801.51398"
                 style="opacity:0.7307692;fill:#3498db;fill-opacity:1" />
              <rect
                 id="rect678"
                 height="12.438"
                 width="12.438"
                 y="471.89999"
                 x="801.51398"
                 style="opacity:0.7307692;fill:#3498db;fill-opacity:1" />
              <rect
                 id="rect680"
                 height="12.438"
                 width="12.438"
                 y="513.90002"
                 x="787.40002"
                 style="opacity:0.61538463;fill:#3498db;fill-opacity:1" />
              <rect
                 id="rect682"
                 height="12.438"
                 width="12.438"
                 y="499.89999"
                 x="787.40002"
                 style="opacity:0.61538463;fill:#3498db;fill-opacity:1" />
              <rect
                 id="rect684"
                 height="12.438"
                 width="12.438"
                 y="485.89999"
                 x="787.40002"
                 style="opacity:0.61538463;fill:#3498db;fill-opacity:1" />
              <rect
                 id="rect686"
                 height="12.438"
                 width="12.438"
                 y="471.89999"
                 x="787.40002"
                 style="opacity:0.61538463;fill:#3498db;fill-opacity:1" />
              <rect
                 id="rect690"
                 height="12.438"
                 width="12.438"
                 y="513.90002"
                 x="773.28699"
                 style="opacity:0.52884617;fill:#3498db;fill-opacity:1" />
              <rect
                 id="rect692"
                 height="12.438"
                 width="12.438"
                 y="499.89999"
                 x="773.28699"
                 style="opacity:0.52884617;fill:#3498db;fill-opacity:1" />
              <rect
                 id="rect694"
                 height="12.438"
                 width="12.438"
                 y="485.89999"
                 x="773.28699"
                 style="opacity:0.52884617;fill:#3498db;fill-opacity:1" />
              <rect
                 id="rect696"
                 height="12.438"
                 width="12.438"
                 y="471.89999"
                 x="773.28699"
                 style="opacity:0.52884617;fill:#3498db;fill-opacity:1" />
              <rect
                 id="rect700"
                 height="12.438"
                 width="12.438"
                 y="513.90002"
                 x="759.17401"
                 style="opacity:0.52884617;fill:#3498db;fill-opacity:1" />
              <rect
                 id="rect702"
                 height="12.438"
                 width="12.438"
                 y="499.89999"
                 x="759.17401"
                 style="opacity:0.52884617;fill:#3498db;fill-opacity:1" />
              <rect
                 id="rect704"
                 height="12.438"
                 width="12.438"
                 y="485.89999"
                 x="759.17401"
                 style="opacity:0.52884617;fill:#3498db;fill-opacity:1" />
              <rect
                 id="rect706"
                 height="12.438"
                 width="12.438"
                 y="471.89999"
                 x="759.17401"
                 style="opacity:0.52884617;fill:#3498db;fill-opacity:1" />
              <rect
                 id="rect710"
                 height="12.438"
                 width="12.438"
                 y="513.90002"
                 x="745.34998"
                 style="opacity:0.4567308;fill:#3498db;fill-opacity:1" />
              <rect
                 id="rect712"
                 height="12.438"
                 width="12.438"
                 y="499.89999"
                 x="745.34998"
                 style="opacity:0.4567308;fill:#3498db;fill-opacity:1" />
              <rect
                 id="rect714"
                 height="12.438"
                 width="12.438"
                 y="485.89999"
                 x="745.34998"
                 style="opacity:0.4567308;fill:#3498db;fill-opacity:1" />
              <rect
                 id="rect718"
                 height="12.438"
                 width="12.438"
                 y="513.90002"
                 x="731.23602"
                 style="opacity:0.40865383;fill:#3498db;fill-opacity:1" />
              <rect
                 id="rect720"
                 height="12.438"
                 width="12.438"
                 y="499.89999"
                 x="731.23602"
                 style="opacity:0.40865383;fill:#3498db;fill-opacity:1" />
              <rect
                 id="rect722"
                 height="12.438"
                 width="12.438"
                 y="485.89999"
                 x="731.23602"
                 style="opacity:0.40865383;fill:#3498db;fill-opacity:1" />
              <rect
                 id="rect724"
                 height="12.438"
                 width="12.438"
                 y="471.89999"
                 x="731.23602"
                 style="opacity:0.40865383;fill:#3498db;fill-opacity:1" />
              <rect
                 id="rect726"
                 height="12.438"
                 width="12.438"
                 y="513.90002"
                 x="717.12299"
                 style="opacity:0.29807691;fill:#3498db;fill-opacity:1" />
              <rect
                 id="rect728"
                 height="12.438"
                 width="12.438"
                 y="499.89999"
                 x="717.12299"
                 style="opacity:0.29807691;fill:#3498db;fill-opacity:1" />
              <rect
                 id="rect736"
                 height="12.438"
                 width="12.438"
                 y="513.90002"
                 x="703.01001"
                 style="opacity:0.29807691;fill:#3498db;fill-opacity:1" />
              <rect
                 id="rect738"
                 height="12.438"
                 width="12.438"
                 y="499.89999"
                 x="703.01001"
                 style="opacity:0.29807691;fill:#3498db;fill-opacity:1" />
              <rect
                 id="rect740"
                 height="12.438"
                 width="12.438"
                 y="485.89999"
                 x="703.01001"
                 style="opacity:0.29807691;fill:#3498db;fill-opacity:1" />
              <rect
                 id="rect742"
                 height="12.438"
                 width="12.438"
                 y="471.89999"
                 x="703.01001"
                 style="opacity:0.29807691;fill:#3498db;fill-opacity:1" />
              <rect
                 id="rect746"
                 height="12.438"
                 width="12.438"
                 y="513.90002"
                 x="689.18597"
                 style="opacity:0.29807691;fill:#3498db;fill-opacity:1" />
              <rect
                 id="rect748"
                 height="12.438"
                 width="12.438"
                 y="499.89999"
                 x="689.18597"
                 style="opacity:0.29807691;fill:#3498db;fill-opacity:1" />
              <rect
                 id="rect750"
                 height="12.438"
                 width="12.438"
                 y="485.89999"
                 x="689.18597"
                 style="opacity:0.29807691;fill:#3498db;fill-opacity:1" />
              <rect
                 id="rect752"
                 height="12.438"
                 width="12.438"
                 y="513.90002"
                 x="675.07202"
                 style="opacity:0.29807691;fill:#3498db;fill-opacity:1" />
              <rect
                 id="rect754"
                 height="12.438"
                 width="12.438"
                 y="499.89999"
                 x="675.07202"
                 style="opacity:0.29807691;fill:#3498db;fill-opacity:1" />
              <rect
                 id="rect760"
                 height="12.438"
                 width="12.438"
                 y="513.90002"
                 x="660.95898"
                 style="opacity:0.11538463;fill:#3498db;fill-opacity:1" />
              <rect
                 id="rect762"
                 height="12.438"
                 width="12.438"
                 y="499.89999"
                 x="660.95898"
                 style="opacity:0.11538463;fill:#3498db;fill-opacity:1" />
              <rect
                 id="rect764"
                 height="12.438"
                 width="12.438"
                 y="485.89999"
                 x="660.95898"
                 style="opacity:0.11538463;fill:#3498db;fill-opacity:1" />
              <rect
                 id="rect766"
                 height="12.438"
                 width="12.438"
                 y="513.90002"
                 x="646.84601"
                 style="opacity:0.11538463;fill:#3498db;fill-opacity:1" />
              <rect
                 id="rect774"
                 height="12.438"
                 width="12.438"
                 y="513.90002"
                 x="633.021"
                 style="opacity:0.11538463;fill:#3498db;fill-opacity:1" />
              <g
                 style="fill:#3498db;fill-opacity:1"
                 transform="translate(-0.16253662,-9.2070479e-7)"
                 id="g4659">
                <path
                   sodipodi:nodetypes="cccccc"
                   inkscape:connector-curvature="0"
                   id="rect658-9"
                   d="m 829.61353,527.54315 12.438,0 0,12.438 -2.31729,0 c -7.95612,-5.49404 -5.5732,-4.24379 -10.12071,-4.81404 z"
                   style="fill:#3498db;fill-opacity:1" />
                <path
                   sodipodi:nodetypes="ccccc"
                   inkscape:connector-curvature="0"
                   id="rect668-8"
                   d="m 815.50055,527.54315 12.438,0 0,6.30071 c -2.78674,-5.26517 -12.40578,-3.41953 -12.438,-4.15237 z"
                   style="fill:#3498db;fill-opacity:1" />
              </g>
            </g>
            <g
               style="fill:#95a5a6;fill-opacity:1"
               transform="matrix(0.65229462,-0.04000249,0.04000249,0.65229462,-32.861957,-62.006651)"
               id="g3023">
              <g
                 style="fill:#95a5a6;fill-opacity:1"
                 transform="translate(27.847763,-1.7636917)"
                 id="g3025"
                 clip-path="url(#clipPath3027)">
                <g
                   style="fill:#95a5a6;fill-opacity:1"
                   id="g3031"
                   transform="translate(187.6777,112.7842)">
                  <path
                     sodipodi:nodetypes="ccccccc"
                     inkscape:connector-curvature="0"
                     d="m 0,0 c 0,0 5.5861759,7.8400635 17.115,2.946 l 0.907,-22.331 c -8.9584677,5.550718 -18.41339182,4.459181 -18.41339182,4.459181 0,0 7.18366342,1.748239 16.59939182,-1.804181 L 15.3,1.32 C 7.0147234,5.4152214 0,0 0,0"
                     style="fill:#95a5a6;fill-opacity:1;fill-rule:nonzero;stroke:none"
                     id="path3033" />
                </g>
                <g
                   style="fill:#95a5a6;fill-opacity:1"
                   id="g3035"
                   transform="translate(208.4258,109.6396)">
                  <path
                     inkscape:connector-curvature="0"
                     d="m 0,0 1.168,-24.453 c -9.4421742,11.789297 -20.747,11.701 -20.747,11.701 0,0 8.995635,1.215872 18.672,-6.926 0.127,0.244 -0.907,20.908 -0.907,20.908 z"
                     style="fill:#95a5a6;fill-opacity:1;fill-rule:nonzero;stroke:none"
                     id="path3037"
                     sodipodi:nodetypes="cccccc" />
                </g>
              </g>
            </g>
            <g
               style="fill:#2c3e50;fill-opacity:1"
               transform="matrix(0.52552992,0,0,0.52552992,14.96805,-49.24271)"
               id="g4599">
              <g
                 id="flowRoot3064"
                 style="font-size:40px;font-style:normal;font-variant:normal;font-weight:normal;font-stretch:normal;line-height:125%;letter-spacing:0px;word-spacing:0px;fill:#ecf0f1;fill-opacity:1;stroke:none;font-family:Futura Bk BT;-inkscape-font-specification:Futura Bk BT"
                 transform="matrix(0.25317141,0,0,-0.25317141,93.956818,174.82661)">
                <path
                   inkscape:connector-curvature="0"
                   id="path4952"
                   style="letter-spacing:5px;fill:#ecf0f1;fill-opacity:1"
                   d="m 111.29346,330.33874 0.80078,0 0,13.28003 22.87964,0 0,-13.28003 0.79956,0 0,28.55957 -0.79956,0 0,-14.47998 -22.87964,0 0,14.47998 -0.80078,0 z" />
                <path
                   inkscape:connector-curvature="0"
                   id="path4954"
                   style="letter-spacing:5px;fill:#ecf0f1;fill-opacity:1"
                   d="m 145.19971,330.33874 0.80078,0 0,28.55957 -0.80078,0 z" />
                <path
                   inkscape:connector-curvature="0"
                   id="path4956"
                   style="letter-spacing:5px;fill:#ecf0f1;fill-opacity:1"
                   d="m 155.43408,330.33874 1.04004,0 22.55982,27.51953 0.0806,0 0,-27.51953 0.79956,0 0,28.55957 -1.04004,0 -22.55981,-27.51953 -0.0794,0 0,27.51953 -0.80078,0 z" />
                <path
                   inkscape:connector-curvature="0"
                   id="path4958"
                   style="letter-spacing:3px;fill:#ecf0f1;fill-opacity:1"
                   d="m 189.34033,330.33874 22.23999,0 0,0.79956 -21.43921,0 0,12.48047 20.52002,0 0,0.79956 -20.52002,0 0,13.68042 21.67969,0 0,0.79956 -22.48047,0 z" />
                <path
                   inkscape:connector-curvature="0"
                   id="path4960"
                   style="letter-spacing:3px;fill:#ecf0f1;fill-opacity:1"
                   d="m 239.21533,338.33801 c -0.0806,-1.19952 -0.32737,-2.28595 -0.74035,-3.25928 -0.41303,-0.97328 -1.03966,-1.8001 -1.87989,-2.48047 -0.84027,-0.68031 -1.9271,-1.20033 -3.2605,-1.56006 -1.33343,-0.35967 -2.96001,-0.53952 -4.87976,-0.53955 -3.19988,3e-5 -5.65979,0.51334 -7.37976,1.53992 -1.71997,1.02664 -2.57996,2.71304 -2.57995,5.0592 -10e-6,0.69338 0.0934,1.33344 0.28015,1.92017 0.18676,0.58677 0.5135,1.12022 0.98022,1.60034 0.46671,0.48016 1.09334,0.9068 1.87989,1.27991 0.78653,0.37314 1.77957,0.69317 2.97912,0.96008 l 9.60083,2.08008 c 2.23956,0.48016 3.88609,1.25347 4.93958,2.31995 1.05344,1.06649 1.58017,2.47986 1.5802,4.24011 -3e-5,0.79997 -0.13329,1.66667 -0.39978,2.6001 -0.26655,0.93343 -0.79999,1.80684 -1.60034,2.62023 -0.8004,0.8134 -1.94725,1.48662 -3.44056,2.01966 -1.49334,0.53304 -3.4664,0.79956 -5.91919,0.79956 -2.8532,0 -5.10661,-0.33325 -6.76025,-0.99976 -1.65365,-0.6665 -2.91382,-1.49983 -3.78052,-2.5 -0.8667,-1.00016 -1.43331,-2.08678 -1.69983,-3.25988 -0.26652,-1.17309 -0.41321,-2.26623 -0.44006,-3.27942 l 0.80078,0 c 0.026,1.81315 0.34586,3.31299 0.95947,4.49951 0.61361,1.18653 1.45365,2.12647 2.52015,2.81982 1.06648,0.69336 2.32644,1.18673 3.7799,1.4801 1.45344,0.29338 3.04687,0.44007 4.78028,0.44007 2.10691,0 3.84031,-0.21993 5.20019,-0.65979 1.35984,-0.43986 2.41982,-1.01318 3.17993,-1.71997 0.76007,-0.70679 1.2868,-1.4803 1.5802,-2.32056 0.29335,-0.84024 0.44004,-1.66035 0.44007,-2.46033 -3e-5,-1.59992 -0.48017,-2.87311 -1.44043,-3.81958 -0.96031,-0.94644 -2.5338,-1.64631 -4.72046,-2.09961 l -9.03931,-1.92016 c -2.37387,-0.50698 -4.14063,-1.26036 -5.30029,-2.26013 -1.15967,-0.99974 -1.73951,-2.48635 -1.7395,-4.45984 -1e-5,-2.32013 0.85326,-4.12026 2.55981,-5.40039 1.70654,-1.28009 4.37296,-1.92014 7.99927,-1.92017 2.37384,3e-5 4.30744,0.24682 5.80078,0.74036 1.49331,0.4936 2.6666,1.14036 3.5199,1.9403 0.85325,0.8 1.45322,1.72 1.79992,2.76001 0.34666,1.04007 0.55988,2.10655 0.63965,3.19947 z" />
              </g>
              <g
                 id="flowRoot3064-3"
                 style="font-size:40px;font-style:normal;font-variant:normal;font-weight:normal;font-stretch:normal;line-height:125%;letter-spacing:0px;word-spacing:0px;fill:#ecf0f1;fill-opacity:1;stroke:none;font-family:Futura Bk BT;-inkscape-font-specification:Futura Bk BT"
                 transform="matrix(0.58048544,0,0,-0.58048544,92.119056,293.00328)">
                <path
                   inkscape:connector-curvature="0"
                   id="path4963"
                   style="fill:#ecf0f1;fill-opacity:1"
                   d="m 112.53125,360.71977 0,-28.59375 15.07813,0 0,3.10547 -11.67969,0 0,8.20312 11.67969,0 0,3.16406 -11.67969,0 0,10.95703 11.67969,0 0,3.16407 z" />
                <path
                   inkscape:connector-curvature="0"
                   id="path4965"
                   style="fill:#ecf0f1;fill-opacity:1"
                   d="m 136.82812,357.51664 2.16797,0 c 3.51562,0 5.95051,-0.15299 7.30469,-0.45898 1.35415,-0.30599 2.48045,-0.83008 3.37891,-1.57227 1.17185,-0.97656 2.06378,-2.23632 2.67578,-3.7793 0.61195,-1.54295 0.91794,-3.31053 0.91797,-5.30273 -3e-5,-2.00519 -0.30276,-3.76626 -0.90821,-5.2832 -0.60549,-1.51691 -1.50067,-2.77016 -2.68554,-3.75977 -0.89846,-0.75518 -2.04104,-1.29229 -3.42774,-1.61133 -1.38673,-0.31898 -3.80535,-0.47849 -7.25586,-0.47851 l -2.16797,0 z m -3.4375,3.20313 0,-28.59375 5.48829,0 c 4.06248,2e-5 6.92381,0.2051 8.58398,0.61523 1.66014,0.41018 3.11521,1.09703 4.36523,2.06055 1.64061,1.26304 2.88409,2.87762 3.73047,4.84375 0.84633,1.96616 1.26951,4.23179 1.26953,6.79687 -2e-5,2.5521 -0.41994,4.80795 -1.25976,6.76758 -0.83987,1.95964 -2.08661,3.57097 -3.74024,4.83399 -1.25002,0.96354 -2.67254,1.65039 -4.26757,2.06054 -1.59507,0.41016 -4.07879,0.61524 -7.45118,0.61524 l -1.23046,0 z" />
                <path
                   inkscape:connector-curvature="0"
                   id="path4967"
                   style="fill:#ecf0f1;fill-opacity:1"
                   d="m 175.69531,361.83305 -8.88672,-20.54688 -3.59375,19.4336 -3.32031,0 5.80078,-29.72657 10,23.65235 10,-23.65235 5.80078,29.72657 -3.32031,0 -3.63281,-19.4336 z" />
              </g>
            </g>
            <g
               id="text3103-3"
               style="font-size:2.35137606px;font-style:normal;font-variant:normal;font-weight:normal;font-stretch:normal;line-height:89.99999762%;letter-spacing:0px;word-spacing:0px;fill:#ecf0f1;fill-opacity:1;stroke:none;font-family:Futura Bk BT;-inkscape-font-specification:Futura Bk BT"
               transform="scale(1,-1)">
              <path
                 inkscape:connector-curvature="0"
                 id="path4970"
                 style="line-height:89.99999762%;fill:#ecf0f1;fill-opacity:1"
                 d="m 78.996604,7.4423108 0,-1.6808665 0.886359,0 0,0.1825532 -0.686584,0 0,0.4822157 0.686584,0 0,0.1859976 -0.686584,0 0,0.6441025 0.686584,0 0,0.1859975 z" />
              <path
                 inkscape:connector-curvature="0"
                 id="path4972"
                 style="line-height:89.99999762%;fill:#ecf0f1;fill-opacity:1"
                 d="m 80.22281,7.4423108 0,-1.7474582 1.22965,1.3433155 0,-1.2767238 0.19059,0 0,1.7463101 -1.22965,-1.3283897 0,1.2629461 z" />
              <path
                 inkscape:connector-curvature="0"
                 id="path4974"
                 style="line-height:89.99999762%;fill:#ecf0f1;fill-opacity:1"
                 d="m 82.339967,7.4423108 0,-1.4902764 -0.475327,0 0,-0.1905901 1.150429,0 0,0.1905901 -0.473031,0 0,1.4902764 z" />
              <path
                 inkscape:connector-curvature="0"
                 id="path4976"
                 style="line-height:89.99999762%;fill:#ecf0f1;fill-opacity:1"
                 d="m 83.240103,7.4423108 0,-1.6808665 0.886359,0 0,0.1825532 -0.686584,0 0,0.4822157 0.686584,0 0,0.1859976 -0.686584,0 0,0.6441025 0.686584,0 0,0.1859975 z" />
              <path
                 inkscape:connector-curvature="0"
                 id="path4978"
                 style="line-height:89.99999762%;fill:#ecf0f1;fill-opacity:1"
                 d="m 84.466309,7.4423108 0,-1.6808665 0.394957,0 c 0.112517,1.7e-6 0.194991,0.00632 0.247423,0.018944 0.05243,0.012631 0.09855,0.034254 0.13835,0.06487 0.04975,0.039038 0.0884,0.091278 0.115962,0.1567202 0.02755,0.065445 0.04133,0.1379686 0.04133,0.2175711 -10e-7,0.1377771 -0.03846,0.2424484 -0.115387,0.3140144 -0.07693,0.071568 -0.189634,0.1073512 -0.338125,0.1073504 l -0.03559,0 0.641806,0.8013967 -0.253737,0 -0.613103,-0.8013967 -0.0287,0 0,0.8013967 z m 0.195182,-1.5120909 0,0.5625851 0.152702,0 c 0.156145,9e-7 0.260625,-0.020091 0.31344,-0.060277 0.05281,-0.040184 0.07922,-0.110411 0.07922,-0.2106824 0,-0.1079232 -0.02717,-0.1835085 -0.08152,-0.2267562 -0.05435,-0.043245 -0.15806,-0.064868 -0.311144,-0.06487 z" />
              <path
                 inkscape:connector-curvature="0"
                 id="path4980"
                 style="line-height:89.99999762%;fill:#ecf0f1;fill-opacity:1"
                 d="m 85.919845,6.6879875 0,0.7543233 -0.195183,0 0,-1.6808665 0.352477,0 c 0.123233,1.7e-6 0.213935,0.00651 0.272108,0.019518 0.05817,0.013014 0.108689,0.034446 0.151553,0.064295 0.05358,0.038273 0.09549,0.090704 0.125721,0.1572942 0.03023,0.066593 0.04535,0.1404562 0.04535,0.2215897 -10e-7,0.081136 -0.01512,0.154999 -0.04535,0.2215896 -0.03023,0.066593 -0.07214,0.119024 -0.125721,0.1572942 -0.04286,0.030618 -0.09319,0.052432 -0.150979,0.065444 -0.05779,0.013013 -0.148684,0.019519 -0.272682,0.019518 l -0.05626,0 z m 0,-0.181405 0.101036,0 c 0.171454,10e-7 0.286841,-0.020091 0.346162,-0.060277 0.05932,-0.040184 0.08898,-0.110411 0.08898,-0.2106824 -10e-7,-0.1071578 -0.03043,-0.1825517 -0.09128,-0.2261822 -0.06085,-0.043627 -0.175474,-0.065442 -0.343866,-0.065443 l -0.101036,0 z" />
              <path
                 inkscape:connector-curvature="0"
                 id="path4982"
                 style="line-height:89.99999762%;fill:#ecf0f1;fill-opacity:1"
                 d="m 86.91872,7.4423108 0,-1.6808665 0.394958,0 c 0.112516,1.7e-6 0.194991,0.00632 0.247423,0.018944 0.05243,0.012631 0.09855,0.034254 0.13835,0.06487 0.04975,0.039038 0.08841,0.091278 0.115961,0.1567202 0.02755,0.065445 0.04133,0.1379686 0.04133,0.2175711 -10e-7,0.1377771 -0.03846,0.2424484 -0.115387,0.3140144 -0.07693,0.071568 -0.189634,0.1073512 -0.338126,0.1073504 l -0.03559,0 0.641807,0.8013967 -0.253738,0 -0.613103,-0.8013967 -0.0287,0 0,0.8013967 z m 0.195183,-1.5120909 0,0.5625851 0.152702,0 c 0.156145,9e-7 0.260625,-0.020091 0.31344,-0.060277 0.05281,-0.040184 0.07922,-0.110411 0.07922,-0.2106824 -1e-6,-0.1079232 -0.02717,-0.1835085 -0.08152,-0.2267562 -0.05435,-0.043245 -0.158061,-0.064868 -0.311144,-0.06487 z" />
              <path
                 inkscape:connector-curvature="0"
                 id="path4984"
                 style="line-height:89.99999762%;fill:#ecf0f1;fill-opacity:1"
                 d="m 88.179371,7.4423108 0,-1.6808665 0.199775,0 0,1.6808665 z" />
              <path
                 inkscape:connector-curvature="0"
                 id="path4986"
                 style="line-height:89.99999762%;fill:#ecf0f1;fill-opacity:1"
                 d="m 89.399836,6.5088788 c 0.109454,0.046692 0.191928,0.1086907 0.247423,0.1859975 0.05549,0.077308 0.08324,0.1687761 0.08324,0.2744038 -10e-7,0.1546155 -0.04918,0.2791878 -0.147535,0.3737172 -0.09836,0.09453 -0.22867,0.1417944 -0.390939,0.1417944 -0.132419,0 -0.243405,-0.03387 -0.332959,-0.1016097 -0.08955,-0.06774 -0.150022,-0.1639914 -0.181405,-0.2887554 l 0.181405,-0.089554 c 0.02449,0.1018014 0.06487,0.1789176 0.121128,0.2313488 0.05626,0.052432 0.126868,0.078647 0.211831,0.078647 0.100269,1e-7 0.181404,-0.028895 0.243404,-0.086684 0.062,-0.057789 0.093,-0.1329917 0.093,-0.2256081 -10e-7,-0.075011 -0.02162,-0.1402629 -0.06487,-0.1957566 C 89.42031,6.7513269 89.355058,6.7044448 89.267801,6.666173 L 89.063433,6.578915 c -0.111752,-0.04669 -0.194992,-0.1067754 -0.249719,-0.1802568 -0.05473,-0.073479 -0.08209,-0.1615029 -0.08209,-0.2640706 -10e-7,-0.1194044 0.04439,-0.2181437 0.133183,-0.2962183 0.08879,-0.078071 0.202071,-0.1171078 0.339847,-0.1171095 0.101035,1.7e-6 0.188485,0.021433 0.262349,0.064295 0.07386,0.042865 0.13146,0.1060125 0.172794,0.1894419 L 89.474466,6.080625 c -0.03751,-0.06506 -0.07961,-0.1134724 -0.126295,-0.1452388 -0.04669,-0.031764 -0.09951,-0.047646 -0.158442,-0.047648 -0.07501,1.6e-6 -0.136437,0.022964 -0.184276,0.068888 -0.04784,0.045927 -0.07176,0.1044815 -0.07176,0.1756643 0,0.059704 0.01837,0.1113701 0.05511,0.154998 0.03674,0.04363 0.09376,0.082284 0.171072,0.1159614 z" />
              <path
                 inkscape:connector-curvature="0"
                 id="path4988"
                 style="line-height:89.99999762%;fill:#ecf0f1;fill-opacity:1"
                 d="m 89.995716,7.4423108 0,-1.6808665 0.886359,0 0,0.1825532 -0.686584,0 0,0.4822157 0.686584,0 0,0.1859976 -0.686584,0 0,0.6441025 0.686584,0 0,0.1859975 z" />
              <path
                 inkscape:connector-curvature="0"
                 id="path4990"
                 style="line-height:89.99999762%;fill:#ecf0f1;fill-opacity:1"
                 d="m 92.117466,7.254017 0.127443,0 c 0.206663,2e-7 0.349797,-0.00899 0.429402,-0.026981 0.0796,-0.017987 0.145812,-0.048795 0.198627,-0.092425 0.06889,-0.057406 0.121318,-0.1314608 0.157294,-0.2221637 0.03597,-0.090702 0.05396,-0.1946078 0.05396,-0.3117181 -10e-7,-0.117874 -0.0178,-0.2213972 -0.05339,-0.3105699 -0.03559,-0.08917 -0.08822,-0.1628422 -0.157868,-0.2210156 -0.05282,-0.044393 -0.119981,-0.075967 -0.201498,-0.094721 -0.08152,-0.018751 -0.223695,-0.028128 -0.426531,-0.028129 l -0.127443,0 z m -0.202071,0.1882938 0,-1.6808665 0.322625,0 c 0.238811,1.7e-6 0.407012,0.012057 0.504605,0.036166 0.09759,0.024112 0.183126,0.064488 0.256607,0.121128 0.09644,0.074247 0.16954,0.1691596 0.219294,0.284737 0.04975,0.1155798 0.07463,0.2487631 0.07463,0.3995502 -10e-7,0.1500234 -0.02469,0.2826326 -0.07405,0.397828 -0.04937,0.1151964 -0.12266,0.2099172 -0.219868,0.2841629 -0.07348,0.056641 -0.157104,0.097017 -0.250867,0.121128 -0.09377,0.024111 -0.239769,0.036166 -0.438012,0.036166 l -0.07233,0 z" />
              <path
                 inkscape:connector-curvature="0"
                 id="path4992"
                 style="line-height:89.99999762%;fill:#ecf0f1;fill-opacity:1"
                 d="m 94.440139,7.2987942 c 0.09185,1e-7 0.179299,-0.017413 0.262348,-0.05224 0.08305,-0.034827 0.157867,-0.085536 0.22446,-0.1521276 0.06583,-0.065826 0.11596,-0.1404545 0.150405,-0.2238859 0.03444,-0.08343 0.05166,-0.1718365 0.05167,-0.2652187 -1e-6,-0.094146 -0.01741,-0.1837003 -0.05224,-0.2686631 C 95.04195,6.2516982 94.992006,6.176687 94.926947,6.1116248 94.861119,6.0458 94.786682,5.9956649 94.703635,5.9612194 94.620586,5.926777 94.532754,5.909555 94.440139,5.9095535 c -0.09338,1.5e-6 -0.181789,0.017224 -0.265219,0.051666 -0.08343,0.034446 -0.157295,0.084581 -0.22159,0.1504054 -0.06583,0.066593 -0.115961,0.141987 -0.150405,0.2261822 -0.03444,0.084197 -0.05167,0.173369 -0.05167,0.267515 0,0.093382 0.01703,0.1814056 0.05109,0.2640705 0.03406,0.082666 0.08439,0.1576773 0.150979,0.2250341 0.06736,0.067357 0.142177,0.1182579 0.22446,0.1527016 0.08228,0.034444 0.169732,0.051666 0.262349,0.051666 z m 0.89784,-0.6934722 c -2e-6,0.1201719 -0.0222,0.2334543 -0.06659,0.3398473 -0.0444,0.106394 -0.109074,0.2009235 -0.194035,0.2835888 -0.08496,0.082666 -0.182745,0.146387 -0.293347,0.1911641 -0.110605,0.044777 -0.225227,0.067166 -0.343866,0.067166 -0.118642,-10e-8 -0.232881,-0.022389 -0.342718,-0.067166 -0.109838,-0.044777 -0.207238,-0.1084984 -0.2922,-0.1911641 -0.08573,-0.083431 -0.150979,-0.1783429 -0.195756,-0.2847369 -0.04478,-0.1063931 -0.06717,-0.2192927 -0.06717,-0.3386992 0,-0.1201703 0.02239,-0.233644 0.06717,-0.3404214 0.04478,-0.1067751 0.110029,-0.2018787 0.195756,-0.285311 0.0842,-0.081899 0.181405,-0.1450459 0.291626,-0.1894419 0.11022,-0.044393 0.22465,-0.06659 0.343292,-0.066592 0.119404,1.8e-6 0.234409,0.022199 0.345014,0.066592 0.110602,0.044396 0.208002,0.1075433 0.292199,0.1894419 0.08496,0.082667 0.149639,0.1773878 0.194035,0.2841628 0.04439,0.1067775 0.06659,0.2206339 0.06659,0.3415696 z" />
              <path
                 inkscape:connector-curvature="0"
                 id="path4994"
                 style="line-height:89.99999762%;fill:#ecf0f1;fill-opacity:1"
                 d="m 97.031475,6.1632908 c -0.08037,-0.087257 -0.166098,-0.1517434 -0.257182,-0.1934604 -0.09109,-0.041714 -0.191739,-0.062572 -0.301959,-0.062573 -0.08879,1.5e-6 -0.175474,0.017989 -0.260052,0.053962 -0.08458,0.035976 -0.157869,0.086111 -0.219867,0.1504054 -0.0643,0.066593 -0.112518,0.1410302 -0.144665,0.2233119 -0.03215,0.082284 -0.04822,0.1731776 -0.04822,0.2726815 0,0.078074 0.0096,0.1500234 0.0287,0.215849 0.01914,0.065827 0.04784,0.1262951 0.08611,0.181405 0.06736,0.095678 0.150213,0.1693499 0.24857,0.2210156 0.09836,0.051666 0.204558,0.077499 0.318607,0.077499 0.107158,2e-7 0.206663,-0.022197 0.298515,-0.066592 0.09185,-0.044394 0.175663,-0.1106031 0.251441,-0.1986269 l 0,0.2652186 c -0.08343,0.060468 -0.173178,0.1062024 -0.269237,0.1372019 -0.09606,0.031 -0.195375,0.046499 -0.297941,0.046499 -0.08879,-1e-7 -0.175282,-0.013204 -0.259478,-0.039611 -0.0842,-0.026407 -0.163035,-0.064869 -0.236515,-0.1153873 -0.122468,-0.084962 -0.216041,-0.1894417 -0.280719,-0.3134403 -0.06468,-0.1239978 -0.09702,-0.2602428 -0.09702,-0.4087353 0,-0.1293553 0.02162,-0.2470388 0.06487,-0.3530508 0.04325,-0.1060097 0.109263,-0.2022614 0.198053,-0.2887555 0.08573,-0.082664 0.180639,-0.1444717 0.284737,-0.1854234 0.104096,-0.040948 0.217761,-0.061423 0.340995,-0.061425 0.09721,1.7e-6 0.191354,0.014736 0.282441,0.044203 0.09108,0.02947 0.18102,0.075204 0.269811,0.1372019 z" />
              <path
                 inkscape:connector-curvature="0"
                 id="path4996"
                 style="line-height:89.99999762%;fill:#ecf0f1;fill-opacity:1"
                 d="m 97.364433,5.7614443 0.202071,0 0,1.045949 c 0,0.1699242 0.03617,0.2946878 0.108499,0.3742914 0.07233,0.079604 0.185805,0.1194059 0.340421,0.1194058 0.154615,1e-7 0.268088,-0.039802 0.340422,-0.1194058 0.07233,-0.079604 0.108497,-0.2043672 0.108498,-0.3742914 l 0,-1.045949 0.20322,0 0,1.045949 c -2e-6,0.2273308 -0.05415,0.3974456 -0.162461,0.5103451 -0.108308,0.1128997 -0.271534,0.1693495 -0.489679,0.1693496 -0.21738,-1e-7 -0.380223,-0.05645 -0.48853,-0.1693496 C 97.418586,7.2048389 97.364433,7.0347241 97.364433,6.8073933 z" />
              <path
                 inkscape:connector-curvature="0"
                 id="path4998"
                 style="line-height:89.99999762%;fill:#ecf0f1;fill-opacity:1"
                 d="m 99.848993,7.5077544 -0.5224,-1.2078358 -0.211256,1.1423922 -0.195183,0 0.340995,-1.7474582 0.587844,1.3903889 0.587847,-1.3903889 0.34099,1.7474582 -0.19518,0 -0.21355,-1.1423922 z" />
              <path
                 inkscape:connector-curvature="0"
                 id="path5000"
                 style="line-height:89.99999762%;fill:#ecf0f1;fill-opacity:1"
                 d="m 101.03616,7.4423108 0,-1.6808665 0.88636,0 0,0.1825532 -0.68658,0 0,0.4822157 0.68658,0 0,0.1859976 -0.68658,0 0,0.6441025 0.68658,0 0,0.1859975 z" />
              <path
                 inkscape:connector-curvature="0"
                 id="path5002"
                 style="line-height:89.99999762%;fill:#ecf0f1;fill-opacity:1"
                 d="m 102.26237,7.4423108 0,-1.7474582 1.22965,1.3433155 0,-1.2767238 0.19059,0 0,1.7463101 -1.22965,-1.3283897 0,1.2629461 z" />
              <path
                 inkscape:connector-curvature="0"
                 id="path5004"
                 style="line-height:89.99999762%;fill:#ecf0f1;fill-opacity:1"
                 d="m 104.37952,7.4423108 0,-1.4902764 -0.47532,0 0,-0.1905901 1.15043,0 0,0.1905901 -0.47303,0 0,1.4902764 z" />
              <path
                 inkscape:connector-curvature="0"
                 id="path5006"
                 style="line-height:89.99999762%;fill:#ecf0f1;fill-opacity:1"
                 d="m 106.75616,7.5077544 -0.5224,-1.2078358 -0.21126,1.1423922 -0.19518,0 0.341,-1.7474582 0.58784,1.3903889 0.58784,-1.3903889 0.341,1.7474582 -0.19518,0 -0.21355,-1.1423922 z" />
              <path
                 inkscape:connector-curvature="0"
                 id="path5008"
                 style="line-height:89.99999762%;fill:#ecf0f1;fill-opacity:1"
                 d="m 108.47492,6.1368838 -0.26752,0.6188436 0.53503,0 z m 0,-0.4420312 0.76465,1.7474582 -0.217,0 -0.21814,-0.5155116 -0.65673,0 -0.21815,0.5155116 -0.21699,0 z" />
              <path
                 inkscape:connector-curvature="0"
                 id="path5010"
                 style="line-height:89.99999762%;fill:#ecf0f1;fill-opacity:1"
                 d="m 109.41294,7.4423108 0,-1.7474582 1.22965,1.3433155 0,-1.2767238 0.19059,0 0,1.7463101 -1.22965,-1.3283897 0,1.2629461 z" />
              <path
                 inkscape:connector-curvature="0"
                 id="path5012"
                 style="line-height:89.99999762%;fill:#ecf0f1;fill-opacity:1"
                 d="m 111.76776,6.1368838 -0.26751,0.6188436 0.53503,0 z m 0,-0.4420312 0.76466,1.7474582 -0.217,0 -0.21815,-0.5155116 -0.65673,0 -0.21814,0.5155116 -0.217,0 z" />
              <path
                 inkscape:connector-curvature="0"
                 id="path5014"
                 style="line-height:89.99999762%;fill:#ecf0f1;fill-opacity:1"
                 d="m 113.63003,6.5743224 0.69347,0 0,0.056259 c 0,0.2648365 -0.075,0.4737965 -0.22503,0.6268805 -0.15003,0.1530844 -0.35478,0.2296265 -0.61425,0.2296266 -0.0788,-10e-8 -0.15404,-0.00842 -0.22561,-0.025259 -0.0716,-0.016839 -0.13759,-0.041333 -0.19805,-0.073481 -0.13778,-0.075777 -0.24417,-0.180448 -0.31918,-0.3140144 -0.075,-0.1335656 -0.11252,-0.2853103 -0.11252,-0.4552346 0,-0.1400713 0.0224,-0.2665571 0.0672,-0.3794579 0.0448,-0.1128985 0.11233,-0.2122118 0.20265,-0.2979405 0.0758,-0.071948 0.1638,-0.126293 0.26407,-0.1630349 0.10027,-0.036739 0.21126,-0.055109 0.33296,-0.05511 0.1615,1.8e-6 0.30157,0.029279 0.42022,0.087832 0.11863,0.058556 0.21699,0.1467711 0.29507,0.2646446 l -0.16763,0.1343316 c -0.0605,-0.1017998 -0.13587,-0.1781506 -0.22618,-0.2290525 -0.0903,-0.050899 -0.19519,-0.076349 -0.31459,-0.076351 -0.19519,1.6e-6 -0.35363,0.065828 -0.47533,0.1974789 -0.1217,0.1316538 -0.18255,0.3038735 -0.18255,0.5166598 0,0.2005411 0.0618,0.3651067 0.18542,0.4936971 0.12362,0.1285911 0.2811,0.1928864 0.47246,0.1928863 0.16839,1e-7 0.30865,-0.051092 0.42079,-0.1532757 0.11213,-0.1021835 0.17432,-0.2351754 0.18657,-0.3989762 l -0.47992,0 z" />
              <path
                 inkscape:connector-curvature="0"
                 id="path5016"
                 style="line-height:89.99999762%;fill:#ecf0f1;fill-opacity:1"
                 d="m 114.62087,7.4423108 0,-1.6808665 0.88636,0 0,0.1825532 -0.68659,0 0,0.4822157 0.68659,0 0,0.1859976 -0.68659,0 0,0.6441025 0.68659,0 0,0.1859975 z" />
              <path
                 inkscape:connector-curvature="0"
                 id="path5018"
                 style="line-height:89.99999762%;fill:#ecf0f1;fill-opacity:1"
                 d="m 116.6301,7.5077544 -0.5224,-1.2078358 -0.21125,1.1423922 -0.19519,0 0.341,-1.7474582 0.58784,1.3903889 0.58785,-1.3903889 0.34099,1.7474582 -0.19518,0 -0.21355,-1.1423922 z" />
              <path
                 inkscape:connector-curvature="0"
                 id="path5020"
                 style="line-height:89.99999762%;fill:#ecf0f1;fill-opacity:1"
                 d="m 117.81727,7.4423108 0,-1.6808665 0.88636,0 0,0.1825532 -0.68658,0 0,0.4822157 0.68658,0 0,0.1859976 -0.68658,0 0,0.6441025 0.68658,0 0,0.1859975 z" />
              <path
                 inkscape:connector-curvature="0"
                 id="path5022"
                 style="line-height:89.99999762%;fill:#ecf0f1;fill-opacity:1"
                 d="m 119.04348,7.4423108 0,-1.7474582 1.22965,1.3433155 0,-1.2767238 0.19059,0 0,1.7463101 -1.22965,-1.3283897 0,1.2629461 z" />
              <path
                 inkscape:connector-curvature="0"
                 id="path5024"
                 style="line-height:89.99999762%;fill:#ecf0f1;fill-opacity:1"
                 d="m 121.16064,7.4423108 0,-1.4902764 -0.47533,0 0,-0.1905901 1.15043,0 0,0.1905901 -0.47303,0 0,1.4902764 z" />
            </g>
          </g>
        </g>
      </g>
    </g>
  </g>
</svg>
