<?xml version="1.0" encoding="UTF-8" standalone="no"?>
<!-- Created with Inkscape (http://www.inkscape.org/) -->

<svg
   xmlns:dc="http://purl.org/dc/elements/1.1/"
   xmlns:cc="http://creativecommons.org/ns#"
   xmlns:rdf="http://www.w3.org/1999/02/22-rdf-syntax-ns#"
   xmlns:svg="http://www.w3.org/2000/svg"
   xmlns="http://www.w3.org/2000/svg"
   xmlns:sodipodi="http://sodipodi.sourceforge.net/DTD/sodipodi-0.dtd"
   xmlns:inkscape="http://www.inkscape.org/namespaces/inkscape"
   id="svg2"
   version="1.1"
   inkscape:version="0.48.4 r9939"
   width="325"
   height="75"
   xml:space="preserve"
   sodipodi:docname="logo2.pdf"><metadata
     id="metadata8"><rdf:RDF><cc:Work
         rdf:about=""><dc:format>image/svg+xml</dc:format><dc:type
           rdf:resource="http://purl.org/dc/dcmitype/StillImage" /><dc:title></dc:title></cc:Work></rdf:RDF></metadata><defs
     id="defs6"><clipPath
       clipPathUnits="userSpaceOnUse"
       id="clipPath44"><path
         d="M 0,180 288,180 288,0 0,0 0,180 z"
         id="path46"
         inkscape:connector-curvature="0" /></clipPath></defs><sodipodi:namedview
     pagecolor="#ffffff"
     bordercolor="#666666"
     borderopacity="1"
     objecttolerance="10"
     gridtolerance="10"
     guidetolerance="10"
     inkscape:pageopacity="0"
     inkscape:pageshadow="2"
     inkscape:window-width="1536"
     inkscape:window-height="803"
     id="namedview4"
     showgrid="false"
     inkscape:zoom="1.7444444"
     inkscape:cx="216.85357"
     inkscape:cy="113.72429"
     inkscape:window-x="-8"
     inkscape:window-y="-8"
     inkscape:window-maximized="1"
     inkscape:current-layer="g10" /><g
     id="g10"
     inkscape:groupmode="layer"
     inkscape:label="logo2"
     transform="matrix(1.25,0,0,-1.25,0,75)"><g
       id="g3963"
       transform="matrix(1.9055038,0,0,1.9055038,-183.23522,-132.41577)"><text
         transform="scale(1,-1)"
         sodipodi:linespacing="125%"
         id="text3035"
         y="-81.878586"
         x="148.82011"
         style="font-size:16.94540787px;font-style:normal;font-variant:normal;font-weight:normal;font-stretch:normal;line-height:125%;letter-spacing:0px;word-spacing:0px;fill:#231f20;fill-opacity:1;stroke:none;font-family:Futura Bk BT;-inkscape-font-specification:Futura Bk BT"
         xml:space="preserve"><tspan
           style="font-size:16.94540787px;font-style:normal;font-variant:normal;font-weight:bold;font-stretch:normal;text-align:start;line-height:125%;writing-mode:lr-tb;text-anchor:start;fill:#231f20;fill-opacity:1;font-family:Futura LT;-inkscape-font-specification:Futura LT Bold"
           y="-81.878586"
           x="148.82011"
           id="tspan3037"
           sodipodi:role="line"><tspan
             style="letter-spacing:0.23731053px;fill:#231f20;fill-opacity:1"
             id="tspan3126">E</tspan><tspan
             id="tspan3060"
             style="letter-spacing:0.01582071px;fill:#231f20;fill-opacity:1">D</tspan><tspan
             id="tspan3124"
             style="letter-spacing:0.39551756px;fill:#231f20;fill-opacity:1">M</tspan></tspan></text>
<text
         id="text12"
         transform="matrix(1,0,0,-1,96.7739,82.0771)"><tspan
           id="tspan14"
           sodipodi:role="line"
           y="0"
           x="0 13.75189 19.310396 33.369087 42.518967"
           style="font-size:18.04710007px;font-variant:normal;font-weight:300;font-stretch:normal;writing-mode:lr-tb;fill:#231f20;fill-opacity:1;fill-rule:nonzero;stroke:none;font-family:Hypatia Sans Pro Light;-inkscape-font-specification:HypatiaSansPro-Light">HINES</tspan></text>
<text
         style="font-size:11.9462738px"
         y="-73.309898"
         x="98.125603"
         id="text36"
         transform="scale(0.9955228,-1.0044973)"><tspan
           id="tspan38"
           sodipodi:role="line"
           y="-73.309898"
           x="98.125603 100.45274 104.0501 107.21112 109.53825 112.2387 114.64341 117.34386 118.62862 121.03333 123.3847 124.85371 128.25229 132.44598 135.85912 139.34982 143.65016 145.97729 149.57466 152.81326 154.28226 158.62625 161.95695 165.69492 168.96744 172.52116 174.91133 179.21169 181.53882 185.13618"
           style="font-size:4.84819603px;font-variant:normal;font-weight:200;font-stretch:normal;writing-mode:lr-tb;fill:#231f20;fill-opacity:1;fill-rule:nonzero;stroke:none;font-family:Hypatia Sans Pro ExtraLight;-inkscape-font-specification:HypatiaSansPro-ExtraLight">ENTERPRISE DOCUMENT MANAGEMENT</tspan></text>
<g
         transform="translate(50.716139,9.7952683)"
         id="g3896"><g
           transform="matrix(0.89544096,0,0,0.89544096,-2.7347557,-15.015496)"
           id="g3946"><g
             id="g3936"
             transform="matrix(-1,0,0,1,345.787,0)"><path
               inkscape:connector-curvature="0"
               d="m 180.893,107.773 4.643,0 0,4.643 -4.643,0 0,-4.643 z"
               style="fill:#3871c1;fill-opacity:1;fill-rule:nonzero;stroke:none"
               id="path20" /><path
               inkscape:connector-curvature="0"
               d="m 180.893,97.453 4.643,0 0,4.642 -4.643,0 0,-4.642 z"
               style="fill:#3871c1;fill-opacity:1;fill-rule:nonzero;stroke:none"
               id="path22" /><path
               inkscape:connector-curvature="0"
               d="m 175.731,102.614 4.643,0 0,4.642 -4.643,0 0,-4.642 z"
               style="fill:#3871c1;fill-opacity:1;fill-rule:nonzero;stroke:none"
               id="path24" /><path
               inkscape:connector-curvature="0"
               d="m 180.374,107.773 -4.642,0 0,4.643 4.642,0 0,-4.643 z"
               style="fill:#3871c1;fill-opacity:1;fill-rule:nonzero;stroke:none"
               id="path26" /><path
               inkscape:connector-curvature="0"
               d="m 170.054,97.453 -4.642,0 0,4.642 4.642,0 0,-4.642 z"
               style="fill:#3871c1;fill-opacity:1;fill-rule:nonzero;stroke:none"
               id="path28" /><path
               inkscape:connector-curvature="0"
               d="m 175.216,102.614 -4.643,0 0,4.642 4.643,0 0,-4.642 z"
               style="fill:#3871c1;fill-opacity:1;fill-rule:nonzero;stroke:none"
               id="path30" /><path
               inkscape:connector-curvature="0"
               d="m 164.893,102.612 -4.642,0 0,4.642 4.642,0 0,-4.642 z"
               style="fill:#3871c1;fill-opacity:1;fill-rule:nonzero;stroke:none"
               id="path32" /><path
               inkscape:connector-curvature="0"
               d="m 170.054,107.773 -4.642,0 0,4.642 4.642,0 0,-4.642 z"
               style="fill:#3871c1;fill-opacity:1;fill-rule:nonzero;stroke:none"
               id="path34" /></g><g
             transform="translate(-5.5055962,-0.25607424)"
             id="g40"><g
               clip-path="url(#clipPath44)"
               id="g42"><g
                 transform="translate(187.6777,112.7842)"
                 id="g48"><path
                   id="path50"
                   style="fill:#a7a5a6;fill-opacity:1;fill-rule:nonzero;stroke:none"
                   d="m 0,0 c 0,0 5.964,7.895 17.115,2.946 l 0.907,-22.331 c -11.539,6.572 -17.892,3.932 -17.892,3.932 0,0 2.724,3.93 16.078,-1.277 L 15.3,1.32 C 7.001,5.639 0,0 0,0"
                   inkscape:connector-curvature="0" /></g><g
                 transform="translate(208.4258,109.6396)"
                 id="g52"><path
                   id="path54"
                   style="fill:#a7a5a6;fill-opacity:1;fill-rule:nonzero;stroke:none"
                   d="m 0,0 1.168,-24.453 c -9.209,11.613 -20.747,11.701 -20.747,11.701 0,0 8.174,2.182 18.672,-6.926 C -0.78,-19.434 -1.814,1.23 -1.814,1.23 L 0,0 z"
                   inkscape:connector-curvature="0" /></g></g></g></g></g></g></g></svg>