<?xml version="1.0" encoding="UTF-8" standalone="no"?>
<!-- Created with Inkscape (http://www.inkscape.org/) -->

<svg
   xmlns:osb="http://www.openswatchbook.org/uri/2009/osb"
   xmlns:dc="http://purl.org/dc/elements/1.1/"
   xmlns:cc="http://creativecommons.org/ns#"
   xmlns:rdf="http://www.w3.org/1999/02/22-rdf-syntax-ns#"
   xmlns:svg="http://www.w3.org/2000/svg"
   xmlns="http://www.w3.org/2000/svg"
   xmlns:sodipodi="http://sodipodi.sourceforge.net/DTD/sodipodi-0.dtd"
   xmlns:inkscape="http://www.inkscape.org/namespaces/inkscape"
   width="744.09448819"
   height="1052.3622047"
   id="svg2"
   version="1.1"
   inkscape:version="0.48.4 r9939"
   sodipodi:docname="New document 1">
  <defs
     id="defs4">
    <linearGradient
       id="linearGradient3774"
       osb:paint="solid">
      <stop
         style="stop-color:#ac9393;stop-opacity:1;"
         offset="0"
         id="stop3776" />
    </linearGradient>
  </defs>
  <sodipodi:namedview
     id="base"
     pagecolor="#ffffff"
     bordercolor="#666666"
     borderopacity="1.0"
     inkscape:pageopacity="0.0"
     inkscape:pageshadow="2"
     inkscape:zoom="1.979899"
     inkscape:cx="408.97766"
     inkscape:cy="609.63783"
     inkscape:document-units="px"
     inkscape:current-layer="layer1"
     showgrid="false"
     inkscape:window-width="1536"
     inkscape:window-height="803"
     inkscape:window-x="-8"
     inkscape:window-y="-8"
     inkscape:window-maximized="1" />
  <metadata
     id="metadata7">
    <rdf:RDF>
      <cc:Work
         rdf:about="">
        <dc:format>image/svg+xml</dc:format>
        <dc:type
           rdf:resource="http://purl.org/dc/dcmitype/StillImage" />
        <dc:title></dc:title>
      </cc:Work>
    </rdf:RDF>
  </metadata>
  <g
     inkscape:label="Layer 1"
     inkscape:groupmode="layer"
     id="layer1">
    <g
       id="g3790"
       inkscape:export-filename="C:\Users\Eight\Desktop\Hustlely32.png"
       inkscape:export-xdpi="12.8"
       inkscape:export-ydpi="12.8">
      <rect
         y="325.06726"
         x="266.27863"
         height="225"
         width="225"
         id="rect3772"
         style="color:#000000;fill:#95a5a6;fill-opacity:1;fill-rule:nonzero;stroke:none;stroke-width:1;marker:none;visibility:visible;display:inline;overflow:visible;enable-background:accumulate" />
      <g
         transform="translate(-311.63207,13.131984)"
         id="g3786">
        <path
           style="color:#000000;fill:#ecf0f1;fill-opacity:1;fill-rule:nonzero;stroke:none;stroke-width:1;marker:none;visibility:visible;display:inline;overflow:visible;enable-background:accumulate"
           d="m 737.38829,395.55025 c -3.03489,0.35511 -6.17148,0.52057 -9.0625,1.50669 -1.35515,2.83431 -1.51751,6.28045 -2.39728,9.33471 -1.58241,7.30764 -3.11816,14.62528 -4.67862,21.93762 -2.95645,2.98436 -6.70211,6.43298 -11.28348,5.54687 -2.40711,-0.091 -2.33172,-3.0873 -2.41071,-4.84375 -0.14181,-1.58913 2.20001,-0.91085 3.12165,-1.52934 6.64834,-1.65595 12.39937,-8.48505 10.97433,-15.51307 -1.15358,-4.41487 -6.59344,-5.38929 -10.42411,-4.34152 -5.89342,1.06156 -10.34411,6.14737 -12.39955,11.54018 -1.49459,3.60915 -1.9588,7.50803 -2.53348,11.31696 -1.07309,1.55774 -3.18525,3.54884 -5.07813,2.17634 -0.55431,-1.96741 0.74666,-4.18986 0.85938,-6.25 1.95697,-9.91385 4.34667,-19.79579 6.02678,-29.73214 -0.66324,-2.04894 -3.40672,-0.5587 -4.97084,-0.71625 -1.86319,0.53928 -4.43618,-0.12234 -5.76577,1.4975 -2.55088,10.73842 -4.38068,21.65621 -7.28794,32.28795 -0.86144,1.74771 -3.13053,4.16573 -5.22322,3.125 -1.16331,-1.64721 0.37189,-3.99926 0.41405,-5.85542 1.10079,-4.91997 2.04824,-10.06746 3.24667,-14.84771 1.41653,-0.053 4.01883,0.27868 3.98437,-1.84152 0.74326,-1.30904 -0.50786,-2.61791 -1.91964,-2.34375 -1.9947,0.53849 -0.81559,-1.54176 -0.70642,-2.6818 0.16324,-2.22897 1.61119,-4.62944 0.82919,-6.8048 -2.21277,-0.81549 -4.78686,0.33091 -7.1167,0.36489 -2.16518,-0.15349 -4.10802,0.747 -3.89151,3.21452 -0.53333,1.93059 -0.64279,4.09269 -1.53643,5.85139 -2.30027,-0.0622 -3.50654,3.79896 -0.79242,4.17411 -0.25141,2.86229 -1.23943,6.26552 -1.81041,9.32002 -0.92176,2.66762 -0.43895,6.42627 -3.21191,8.03489 -1.44307,1.41899 -0.47621,-1.85851 -0.85937,-2.65625 -0.42859,-6.77115 -0.74602,-13.62068 -1.40768,-20.33161 -1.13363,-1.34027 -3.27664,0.0865 -4.84745,-0.0445 -1.90893,0.558 -4.464,-0.0759 -5.94353,1.33593 -2.3584,6.4793 -4.46157,13.23496 -8.49331,18.89509 -1.66822,1.39763 -2.25966,3.57636 -2.70089,5.53571 -0.81029,1.18061 -3.96641,1.56633 -3.45982,-0.56919 1.08742,-7.56603 3.20072,-15.07309 4.41559,-22.59332 -0.93732,-1.79336 -3.80736,-0.51709 -5.52038,-0.97611 -1.64458,0.30078 -4.33313,-0.8464 -5.16753,1.08059 -1.96938,7.3502 -2.69377,15.07565 -5.52456,22.15402 -0.34277,1.24165 -2.44028,2.54792 -3.41517,1.33928 -0.44619,-2.62667 0.90329,-5.3568 1.15303,-8.01754 1.01647,-5.08735 2.07893,-10.17622 3.21081,-15.23023 -0.48947,-2.11093 -3.47735,-1.11946 -5.03349,-1.39509 -1.83324,0.31728 -4.55698,-0.73593 -5.78125,1.10492 -1.65593,7.97381 -3.97396,15.90661 -4.50893,24.0625 -0.36777,4.00973 2.85388,7.91253 6.95313,7.89062 3.7166,0.48798 6.94897,-1.80522 9.24107,-4.48661 1.26048,4.78148 7.45906,5.42305 11.31697,3.52679 1.49441,-0.64042 2.80057,-1.62909 4.02901,-2.67857 2.87639,4.02042 8.60703,4.1922 12.95759,2.96875 4.01753,-1.41836 7.31804,-4.22567 10.73661,-6.67411 -0.0532,3.6689 2.78341,7.59916 6.76339,7.17634 3.93164,0.34897 7.90969,-1.30759 10.42411,-4.29688 1.25665,3.60812 5.47658,5.23354 9.02902,4.3192 3.09934,-0.38845 5.78909,-2.62668 7.85714,-4.49777 2.34014,4.26452 7.65695,5.20983 12.07589,4.46429 4.32234,-0.4518 8.18725,-3.42383 11.03795,-6.07143 0.49979,3.88971 4.30296,7.01779 8.27009,6.16071 3.39031,-0.15117 6.65769,-1.86863 8.87277,-4.375 1.26863,3.64307 5.56037,5.27255 9.14062,4.27456 -4.09928,1.71652 -7.67664,6.14448 -6.18303,10.77009 1.70737,5.05113 8.4183,5.65834 12.6116,3.51562 5.51554,-2.34065 6.64812,-8.85393 7.84599,-14.05134 5.53023,-1.59334 9.67989,-6.53725 10.88169,-12.06473 -0.41321,-2.31517 -4.32457,-1.65345 -4.69866,0.49107 -0.97567,2.5588 -2.62895,5.00508 -5.0558,6.37277 1.67984,-9.00479 3.97603,-17.96178 5.5205,-26.94599 -0.67597,-1.72814 -3.27654,-0.56444 -4.70575,-0.95155 -1.92262,0.17213 -4.08241,-0.37367 -5.84823,0.47567 -2.0328,7.18596 -2.78893,14.80096 -5.24554,21.85267 -0.55623,1.29446 -2.19273,3.45974 -3.68304,2.60045 -0.7011,-2.02404 0.50184,-4.2882 0.60998,-6.38315 0.98943,-5.82673 2.499,-11.59384 3.51949,-17.36685 -0.84322,-1.96133 -3.69035,-0.86234 -5.34598,-1.18304 -1.71018,0.16649 -3.63449,-0.32593 -5.2009,0.47992 -1.80652,6.97865 -2.89347,14.18854 -4.89955,21.13839 -0.83966,1.81757 -3.05332,4.2015 -5.20089,3.33705 -1.20215,-1.28338 0.16206,-3.3005 0.14903,-4.84148 2.05492,-10.53739 4.62903,-20.98238 6.48043,-31.55361 -0.14135,-0.72499 -0.67225,-1.06107 -1.32812,-1.01562 z m -22.7567,17.04241 c 0.88767,0.33699 0.30325,2.03143 0.37946,2.8125 -0.28218,3.48288 -3.19823,6.57063 -6.46205,7.63393 1.304,-3.59317 2.07212,-8.14016 5.5692,-10.29018 0.16745,-0.0692 0.33192,-0.14011 0.51339,-0.15625 z m -64.64286,7.28794 c 0.1216,3.97723 0.98842,8.03269 0.29018,11.96429 -0.59269,2.27909 -3.7082,2.78662 -5.59152,2.20982 -0.50604,-0.49653 -1.66991,-1.84277 -0.16741,-1.46205 2.86375,-0.25207 4.42627,-4.40028 2.08706,-6.27232 1.17614,-2.35232 2.37077,-4.70154 3.31473,-7.15402 0.0223,0.23809 0.0446,0.47619 0.067,0.71428 z m 100.61384,19.52009 c -0.17411,0.1424 0.0125,-0.074 0,0 z m -0.94866,5.47991 c -0.57064,1.60409 -0.94361,3.98216 -2.74553,4.55358 -1.59807,-0.43216 -0.64158,-2.76891 0.54687,-3.22545 0.65136,-0.49631 1.54779,-1.08829 2.19866,-1.32813 z"
           id="path3784"
           inkscape:connector-curvature="0" />
        <path
           style="font-size:144px;font-style:normal;font-variant:normal;font-weight:900;font-stretch:normal;line-height:125%;letter-spacing:0px;word-spacing:0px;fill:#2c3e50;fill-opacity:1;stroke:none;font-family:HelveticaNeueLT Com 95 Blk;-inkscape-font-specification:HelveticaNeueLT Com 95 Blk Heavy"
           d="m 599.56696,324.04464 0,200.78125 61.875,0 0,-79.5625 57.9375,0 0,79.5625 61.875,0 0,-200.78125 -61.875,0 0,69.75 -57.9375,0 0,-69.75 -61.875,0 z m 97.875,72.3125 -7.15625,33.5625 c -0.0919,0.40131 -0.14997,0.77013 -0.1875,1.09375 -0.0376,0.32364 -0.0638,0.62923 -0.0625,0.90625 -0.003,0.85698 0.20815,1.43691 0.625,1.78125 0.41683,0.34435 1.07016,0.51295 1.9375,0.5 1.23496,-0.0337 2.34178,-0.55018 3.34375,-1.5625 0.57641,-0.58237 1.06199,-1.25865 1.46875,-2.03125 -0.002,-0.0857 9.7e-4,-0.16313 0,-0.25 -0.0288,-2.52268 0.48988,-5.48831 1.53125,-8.90625 1.04137,-3.4179 2.79328,-6.43853 5.25,-9.0625 2.45671,-2.62392 5.78272,-4.01545 10,-4.15625 2.70424,0.0544 4.54333,0.65523 5.5,1.8125 0.95663,1.15733 1.40457,2.54848 1.34375,4.15625 -0.12948,3.6454 -1.60474,6.65989 -4.375,9.0625 -2.77029,2.40265 -6.07984,3.77254 -9.9375,4.0625 -0.0324,0.43756 -0.0379,0.85925 -0.0625,1.28125 -0.0246,0.42203 -0.0612,0.8121 -0.0625,1.1875 -10e-6,2.06606 0.37935,3.4574 1.125,4.1875 0.74563,0.73012 1.8837,1.07786 3.375,1.03125 2.41168,-0.0401 4.45135,-0.64613 6.15625,-1.8125 1.70486,-1.16636 3.30177,-2.6577 4.8125,-4.46875 l 0.0625,0 6.65625,-31.125 9.1875,-1.25 -7.15625,33.5625 c -0.0919,0.40131 -0.14997,0.77013 -0.1875,1.09375 -0.0376,0.32364 -0.0638,0.62923 -0.0625,0.90625 -0.003,0.85698 0.20815,1.43691 0.625,1.78125 0.41683,0.34435 1.07016,0.51295 1.9375,0.5 1.23496,-0.0337 2.34178,-0.55018 3.34375,-1.5625 1.00194,-1.01231 1.76065,-2.31916 2.25,-3.90625 l 0.0312,0 4.21875,-19.9375 8.96875,0 -4.5,21.125 c -0.0621,0.25115 -0.0939,0.51459 -0.125,0.78125 -0.0311,0.26668 -0.0625,0.53012 -0.0625,0.78125 -0.0117,0.73918 0.13051,1.3768 0.40625,1.90625 0.27572,0.52947 0.76581,0.78791 1.46875,0.8125 1.14952,-0.0298 2.12971,-0.49897 2.9375,-1.4375 0.80777,-0.93852 1.44021,-2.16625 1.90625,-3.65625 l 4.34375,-20.3125 8.96875,0 -6.15625,28.84375 c 1.87574,-0.63043 3.44085,-1.61579 4.6875,-2.9375 1.2466,-1.3217 2.27447,-3.31885 3.125,-5.96875 l 2.625,0 c -1.27772,4.00655 -2.93767,6.8469 -4.96875,8.5 -2.03113,1.65311 -4.03901,2.69133 -6.03125,3.125 l -0.9375,4.46875 c -1.02528,4.32758 -2.60629,7.21007 -4.75,8.625 -2.14374,1.4149 -4.29378,2.0527 -6.4375,1.9375 -1.94826,10e-4 -3.58714,-0.49935 -4.90625,-1.5 -1.31912,-1.00068 -1.97818,-2.48185 -2.03125,-4.5 0.13074,-2.57999 1.2322,-4.60876 3.3125,-6.0625 2.08029,-1.45375 4.3516,-2.53395 6.8125,-3.21875 l 0.75,-3.34375 c -1.32043,1.42268 -2.64817,2.37643 -3.9375,2.84375 -1.28935,0.46732 -2.45939,0.66254 -3.53125,0.625 -1.90813,0.0155 -3.4786,-0.55386 -4.71875,-1.75 -0.93011,-0.8971 -1.52396,-2.19147 -1.78125,-3.875 -1.1404,1.70124 -2.37561,2.92848 -3.6875,3.6875 -2.51268,1.45375 -4.64718,2.09155 -6.4375,1.9375 -1.90813,0.0155 -3.4786,-0.55386 -4.71875,-1.75 -1.24015,-1.19614 -1.89349,-3.09327 -1.9375,-5.6875 10e-4,-0.12888 -0.005,-0.27374 0,-0.40625 -1.24454,1.52454 -2.64215,2.95187 -4.21875,4.25 -2.77029,2.28095 -6.20629,3.47207 -10.3125,3.59375 -2.95928,0.0272 -5.29918,-0.74742 -7.03125,-2.3125 -0.96369,-0.87078 -1.65422,-2.03533 -2.09375,-3.5 -1.1721,1.78926 -2.42618,3.091 -3.78125,3.875 -2.51268,1.45375 -4.64718,2.09155 -6.4375,1.9375 -1.90813,0.0155 -3.4786,-0.55386 -4.71875,-1.75 -0.93011,-0.8971 -1.52396,-2.19147 -1.78125,-3.875 -1.1404,1.70124 -2.37561,2.92848 -3.6875,3.6875 -2.51268,1.45375 -4.64718,2.09155 -6.4375,1.9375 -1.90813,0.0155 -3.4786,-0.55386 -4.71875,-1.75 -1.24015,-1.19614 -1.89349,-3.09327 -1.9375,-5.6875 0.003,-0.31677 0.007,-0.66125 0.0312,-1 -0.62814,0.57077 -1.24686,1.11168 -1.875,1.59375 -1.63112,1.25181 -3.18033,2.30039 -4.625,3.125 -1.3502,1.35148 -2.89442,2.30023 -4.65625,2.875 -1.76186,0.57477 -3.46396,0.85928 -5.09375,0.84375 -3.15087,-0.0945 -5.44862,-0.95341 -6.90625,-2.5625 -0.54007,-0.59619 -0.97502,-1.19531 -1.3125,-1.84375 -0.83298,1.07396 -1.71932,1.90837 -2.625,2.46875 -2.34958,1.45375 -4.38925,2.09155 -6.15625,1.9375 -1.78258,-0.005 -3.22105,-0.50063 -4.28125,-1.5 -1.06023,-0.99937 -1.67695,-2.47482 -1.875,-4.40625 -1.57933,2.47513 -3.17088,4.10864 -4.78125,4.875 -1.61039,0.76636 -3.07549,1.10374 -4.40625,1.03125 -1.90813,0.0155 -3.4786,-0.55386 -4.71875,-1.75 -1.24015,-1.19614 -1.89349,-3.09327 -1.9375,-5.6875 0.0104,-1.19095 0.17896,-2.56084 0.5,-4.0625 l 4.21875,-19.9375 8.9375,0 -4.46875,21.125 c -0.12428,0.61102 -0.18751,1.20113 -0.1875,1.75 -0.008,0.73141 0.15011,1.33742 0.4375,1.8125 0.28738,0.4751 0.76175,0.70193 1.4375,0.71875 1.20907,-0.0337 2.21051,-0.55018 3.03125,-1.5625 0.82071,-1.01231 1.47405,-2.31916 1.9375,-3.90625 l 4.21875,-19.9375 8.9375,0 -4.46875,21.125 c -0.0919,0.40131 -0.14998,0.77013 -0.1875,1.09375 -0.0376,0.32364 -0.0638,0.62923 -0.0625,0.90625 -0.003,0.85698 0.20814,1.43691 0.625,1.78125 0.41681,0.34435 1.07015,0.51295 1.9375,0.5 1.21164,-0.0337 2.22362,-0.55018 3.0625,-1.5625 0.0144,-0.0173 0.017,-0.045 0.0312,-0.0625 -0.003,-0.0962 -8.8e-4,-0.18411 0,-0.28125 0.0324,-1.44079 0.38528,-2.65816 1.03125,-3.65625 0.64597,-0.99806 1.37879,-1.70945 2.25,-2.125 1.72041,-3.07706 3.19069,-6.14942 4.40625,-9.21875 1.21555,-3.06929 2.30628,-6.14146 3.25,-9.1875 l 9.1875,-1.25 c 0.2516,5.26979 0.48189,9.32464 0.6875,12.125 0.20557,2.8004 0.37724,4.93837 0.5,6.40625 0.12272,1.46791 0.18441,2.82149 0.1875,4.09375 10e-4,0.43238 -0.025,0.86424 -0.0625,1.25 -0.0376,0.38578 -0.0956,0.75477 -0.1875,1.125 0.8466,-0.50227 1.66853,-1.02915 2.4375,-1.5625 0.76892,-0.53333 1.43316,-1.06021 2.03125,-1.5625 l 0.0625,0 3.71875,-17.4375 -2.03125,0 0.46875,-2.5 2.0625,0 1.875,-8.5625 9.1875,-1.25 -2.125,9.8125 3.75,0 -0.5,2.5 -3.75,0 -3.96875,18.625 c -0.0919,0.40131 -0.14997,0.77013 -0.1875,1.09375 -0.0376,0.32364 -0.0638,0.62923 -0.0625,0.90625 -0.003,0.85698 0.20815,1.43691 0.625,1.78125 0.41683,0.34435 1.07016,0.51295 1.9375,0.5 1.23496,-0.0337 2.34178,-0.55018 3.34375,-1.5625 1.00194,-1.01231 1.76065,-2.31916 2.25,-3.90625 l 0.0312,0 6.65625,-31.125 9.1875,-1.25 z m 17.25,15.1875 c -1.61946,0.1489 -3.12117,1.51379 -4.46875,4.09375 -1.34761,2.58 -2.34369,5.46286 -3,8.6875 2.46864,-0.24076 4.58171,-1.3474 6.3125,-3.3125 1.73076,-1.96506 2.64236,-4.27335 2.71875,-6.9375 0.009,-0.78575 -0.11205,-1.39193 -0.34375,-1.84375 -0.23174,-0.45176 -0.63753,-0.67841 -1.21875,-0.6875 z m -64.1875,3.28125 c -0.62526,2.00783 -1.36826,3.9839 -2.21875,5.90625 -0.85051,1.92238 -1.78336,3.86703 -2.8125,5.84375 0.41295,0.18772 0.73462,0.44616 1,0.8125 0.26537,0.36636 0.42843,0.8143 0.4375,1.34375 -0.013,0.77931 -0.28675,1.48533 -0.78125,2.09375 -0.49451,0.60843 -1.14803,0.9351 -1.96875,0.96875 -0.32234,0.005 -0.62293,-0.0684 -0.9375,-0.1875 -0.20757,-0.0786 -0.38794,-0.21525 -0.53125,-0.375 -0.0619,0.13598 -0.12512,0.27375 -0.1875,0.40625 0.0701,1.12836 0.34511,2.01858 0.84375,2.625 0.59289,0.72105 1.58343,1.0638 2.9375,1.0625 1.42138,0.0311 2.65464,-0.38008 3.71875,-1.25 1.06409,-0.86991 1.63312,-2.38751 1.6875,-4.53125 -0.0104,-1.42914 -0.14717,-3.07356 -0.375,-4.96875 -0.22785,-1.89516 -0.49147,-5.15184 -0.8125,-9.75 z m 100.5,28.40625 c -1.64017,0.58124 -3.06811,1.30315 -4.25,2.15625 -1.1819,0.85308 -1.78809,1.89131 -1.84375,3.125 0.003,0.46602 0.17137,0.90878 0.53125,1.34375 0.35987,0.43495 0.90764,0.65642 1.59375,0.6875 0.67055,-0.001 1.31371,-0.44943 1.96875,-1.375 0.65502,-0.92559 1.20297,-2.32192 1.625,-4.15625 l 0.375,-1.78125 z"
           id="flowRoot2985"
           inkscape:connector-curvature="0" />
      </g>
    </g>
  </g>
</svg>
