<?xml version="1.0" encoding="UTF-8" standalone="no"?>
<!-- Created with Inkscape (http://www.inkscape.org/) -->

<svg
   xmlns:dc="http://purl.org/dc/elements/1.1/"
   xmlns:cc="http://creativecommons.org/ns#"
   xmlns:rdf="http://www.w3.org/1999/02/22-rdf-syntax-ns#"
   xmlns:svg="http://www.w3.org/2000/svg"
   xmlns="http://www.w3.org/2000/svg"
   xmlns:sodipodi="http://sodipodi.sourceforge.net/DTD/sodipodi-0.dtd"
   xmlns:inkscape="http://www.inkscape.org/namespaces/inkscape"
   width="250"
   height="250"
   id="svg8489"
   version="1.1"
   inkscape:version="0.48.4 r9939"
   sodipodi:docname="SupportBoardBZ.svg">
  <defs
     id="defs8491" />
  <sodipodi:namedview
     id="base"
     pagecolor="#ffffff"
     bordercolor="#666666"
     borderopacity="1.0"
     inkscape:pageopacity="0.0"
     inkscape:pageshadow="2"
     inkscape:zoom="0.98994949"
     inkscape:cx="33.571429"
     inkscape:cy="62.857143"
     inkscape:document-units="px"
     inkscape:current-layer="g8942"
     showgrid="false"
     inkscape:window-width="1536"
     inkscape:window-height="803"
     inkscape:window-x="-8"
     inkscape:window-y="-8"
     inkscape:window-maximized="1" />
  <metadata
     id="metadata8494">
    <rdf:RDF>
      <cc:Work
         rdf:about="">
        <dc:format>image/svg+xml</dc:format>
        <dc:type
           rdf:resource="http://purl.org/dc/dcmitype/StillImage" />
        <dc:title></dc:title>
      </cc:Work>
    </rdf:RDF>
  </metadata>
  <g
     inkscape:label="Layer 1"
     inkscape:groupmode="layer"
     id="layer1"
     transform="translate(0,-802.36218)">
    <g
       id="g8942"
       transform="matrix(0.98216497,0,0,0.98216497,-380.11342,-16.433151)">
      <g
         transform="matrix(-3.4459598,0,0,3.4459598,614.48043,991.07697)"
         id="g3054">
        <rect
           x="3.3729999"
           y="10.479"
           width="2.0710001"
           height="2.072"
           id="rect3056" />
        <rect
           x="3.3729999"
           y="13.756"
           width="2.0710001"
           height="2.0699999"
           id="rect3058" />
        <rect
           x="6.8439999"
           y="7.2010002"
           width="2.0710001"
           height="2.0710001"
           id="rect3060" />
        <rect
           x="6.8439999"
           y="10.479"
           width="2.0710001"
           height="2.072"
           id="rect3062" />
        <rect
           x="6.8439999"
           y="13.756"
           width="2.0710001"
           height="2.0699999"
           id="rect3064" />
        <path
           inkscape:connector-curvature="0"
           d="M 19.278,7.499 V 1.457 C 19.278,0.655 18.623,0 17.821,0 H 1.457 C 0.655,0 0,0.655 0,1.457 V 17.82 c 0,0.802 0.655,1.457 1.457,1.457 h 10.681 c 1.188,0.951 2.693,1.522 4.333,1.522 3.838,0 6.951,-3.11 6.951,-6.948 C 23.421,11.014 21.716,8.578 19.278,7.499 z M 6.315,1.431 h 6.642 V 3.148 H 6.315 V 1.431 z M 1.79,4.788 H 17.486 V 6.986 C 17.154,6.937 16.816,6.903 16.47,6.903 c -1.529,0 -2.938,0.5 -4.086,1.337 V 7.2 h -2.07 v 2.071 h 0.941 c -1.075,1.223 -1.731,2.823 -1.731,4.58 0,1.254 0.337,2.427 0.917,3.442 H 1.79 V 4.788 z m 14.043,3.403 c 0,-0.353 0.287,-0.636 0.637,-0.636 0.354,0 0.637,0.283 0.638,0.636 0,0.352 -0.284,0.637 -0.638,0.637 -0.349,0 -0.637,-0.285 -0.637,-0.637 z m -4.385,5.661 c 0,0.353 -0.284,0.639 -0.638,0.639 -0.353,0 -0.637,-0.286 -0.637,-0.639 0,-0.353 0.284,-0.636 0.637,-0.636 0.353,0 0.637,0.283 0.638,0.636 z m 5.022,6.298 c -0.35,0 -0.637,-0.284 -0.637,-0.635 0,-0.354 0.287,-0.64 0.637,-0.64 0.354,0 0.637,0.285 0.638,0.64 0,0.351 -0.284,0.635 -0.638,0.635 z m 3.858,-9.171 -2.667,2.663 c 0.018,0.082 0.05,0.158 0.05,0.245 0,0.691 -0.561,1.252 -1.252,1.252 -0.667,0 -1.201,-0.527 -1.237,-1.187 l -2.833,-2.201 c -0.245,-0.192 -0.303,-0.53 -0.125,-0.756 0.177,-0.229 0.521,-0.257 0.766,-0.065 l 2.593,2.018 c 0.224,-0.21 0.52,-0.344 0.849,-0.344 0.218,0 0.412,0.07 0.59,0.168 l 2.527,-2.53 c 0.236,-0.235 0.593,-0.258 0.793,-0.055 0.201,0.202 0.178,0.556 -0.054,0.792 z m 1.802,3.511 c -0.352,0 -0.637,-0.286 -0.637,-0.639 0,-0.353 0.285,-0.636 0.637,-0.636 0.353,0 0.639,0.283 0.639,0.636 0,0.353 -0.285,0.639 -0.639,0.639 z"
           id="path3066" />
      </g>
      <g
         transform="matrix(2.0044104,0,0,2.0044104,-394.97328,716.07612)"
         id="g5994">
        <g
           id="g4396"
           transform="matrix(1.8884683,0,0,1.8884683,454.66168,89.530638)">
          <g
             id="g4398">
            <path
               id="path4400"
               d="m 21.854,13.583 v -5.22 c 0,-1.482 -0.94,-2.688 -2.095,-2.688 -1.155,0 -2.095,1.206 -2.095,2.688 v 4.717 c -3.195,2.302 -3.84,1.402 -3.84,3.405 h -1.648 l 0,0 c 0,-2.004 -0.644,-1.104 -3.84,-3.406 V 8.363 c 0,-1.482 -0.939,-2.688 -2.094,-2.688 -1.154,0 -2.094,1.206 -2.094,2.688 v 5.219 c -0.22,0.965 -0.238,2.107 -0.238,2.903 0,2.121 1.719,3.841 3.84,3.841 1.967,0 4.088,-1.479 4.388,-3.385 h 1.726 c 0.299,1.906 2.421,3.385 4.388,3.385 2.121,0 3.84,-1.72 3.84,-3.841 -10e-4,-0.795 -0.021,-1.937 -0.238,-2.902 z M 4.732,8.363 c 0,-1.16 0.677,-2.103 1.509,-2.103 0.832,0 1.509,0.943 1.509,2.103 v 4.282 l -0.001,0 C 6.208,11.457 5.286,11.557 4.732,12.228 V 8.363 z m 13.518,0 c 0,-1.16 0.677,-2.103 1.509,-2.103 0.832,0 1.509,0.943 1.509,2.103 v 3.865 c -0.553,-0.671 -1.476,-0.771 -3.017,0.417 H 18.25 V 8.363 z"
               inkscape:connector-curvature="0" />
          </g>
        </g>
        <g
           id="g5915"
           transform="matrix(3.274516,0,0,3.274516,403.64203,71.36343)">
          <g
             id="g5869">
            <polygon
               id="polygon5873"
               points="29.242,1.29 29.242,17.737 8.71,17.737 8.642,19.027 30.531,19.027 30.531,0 2.15,0 2.15,2.953 3.44,2.555 3.44,1.29 " />
            <path
               id="path5875"
               d="M 2.378,21.329 H 4.849 V 15.857 L 3.514,13.325 3.888,13.231 V 11.81 C 2.447,11.357 1.385,10.072 1.265,8.514 L 2.253,8.657 V 9.26 H 4.845 V 8.832 H 5.302 V 9.258 H 7.894 V 8.67 L 8.717,8.542 C 8.67,9.847 7.997,11.593 5.993,11.853 V 13.18 H 6 l 0.477,0.227 -1.305,2.349 v 5.573 H 6.486 7.73 L 7.262,18.184 c 0,0 0.194,-1.279 0.427,-2.626 L 14.937,10.675 14.646,10.178 20.55,6.241 20.23,5.681 14.322,9.62 14.459,9.857 13.96,9.008 9.166,12.79 C 9.251,12.176 9.446,11.828 9.487,10.866 9.56,9.224 9.655,3.812 4.929,3.812 4.432,3.812 3.849,3.873 3.596,3.986 3.344,4.1 3.298,4.358 3.134,4.414 2.964,4.471 2.722,4.449 2.572,4.52 0.232,5.647 0.313,8.396 0.313,8.396 L 0.659,14.04 0,20.367 1.481,20.502 2.07,15.956 c 0.357,1.208 0.696,2.322 0.696,2.322 L 2.378,21.329 z M 4.556,8.97 H 2.541 V 7.944 H 4.556 V 8.97 z m 3.049,0 H 5.59 V 7.944 H 7.606 V 8.97 z M 1.279,7.854 C 2.321,7.783 3.498,6.962 3.589,5.82 4.908,6.912 6.776,6.965 8.333,7.104 8.526,7.195 8.669,7.587 8.709,8.106 L 7.894,8.232 V 7.656 H 5.302 v 0.6 H 4.845 v -0.6 H 2.253 v 0.562 l -1,-0.144 C 1.261,8.001 1.271,7.929 1.279,7.854 z"
               inkscape:connector-curvature="0" />
            <path
               id="path5877"
               d="M 7.69,21.657 2.376,21.636 2.257,25.221 h 1.644 v 4.866 c -0.75,0.012 -1.212,0.129 -1.212,0.466 0,0.355 0.73,0.472 0.73,0.472 h 0.482 1.156 0.057 c 0,0 0,-0.25 0,-0.445 0,-0.069 -0.018,-0.137 -0.057,-0.198 v -5.161 h 0.614 l 0.212,2.015 -0.329,3.062 c -0.092,0.081 -0.132,0.178 -0.132,0.282 0,0.194 0,0.445 0,0.445 h 0.055 l 0,0 h 1.166 l 0,0 h 0.475 c 0,0 0.73,-0.116 0.73,-0.472 0,-0.323 -0.433,-0.443 -1.129,-0.462 L 6.952,27.237 6.79,25.222 H 7.893 L 7.69,21.657 z"
               inkscape:connector-curvature="0" />
          </g>
          <g
             id="g5879" />
          <g
             id="g5881" />
          <g
             id="g5883" />
          <g
             id="g5885" />
          <g
             id="g5887" />
          <g
             id="g5889" />
          <g
             id="g5891" />
          <g
             id="g5893" />
          <g
             id="g5895" />
          <g
             id="g5897" />
          <g
             id="g5899" />
          <g
             id="g5901" />
          <g
             id="g5903" />
          <g
             id="g5905" />
          <g
             id="g5907" />
        </g>
      </g>
    </g>
  </g>
</svg>
