<?xml version="1.0" encoding="UTF-8" standalone="no"?>
<!-- Created with Inkscape (http://www.inkscape.org/) -->

<svg
   xmlns:dc="http://purl.org/dc/elements/1.1/"
   xmlns:cc="http://creativecommons.org/ns#"
   xmlns:rdf="http://www.w3.org/1999/02/22-rdf-syntax-ns#"
   xmlns:svg="http://www.w3.org/2000/svg"
   xmlns="http://www.w3.org/2000/svg"
   xmlns:sodipodi="http://sodipodi.sourceforge.net/DTD/sodipodi-0.dtd"
   xmlns:inkscape="http://www.inkscape.org/namespaces/inkscape"
   width="175"
   height="35"
   viewBox="0 0 175 35.000001"
   id="svg7637"
   version="1.1"
   inkscape:version="0.91 r13725"
   sodipodi:docname="Therms-white.svg">
  <defs
     id="defs7639" />
  <sodipodi:namedview
     id="base"
     pagecolor="#ffffff"
     bordercolor="#666666"
     borderopacity="1.0"
     inkscape:pageopacity="0.0"
     inkscape:pageshadow="2"
     inkscape:zoom="0.35"
     inkscape:cx="-352.14286"
     inkscape:cy="520"
     inkscape:document-units="px"
     inkscape:current-layer="layer1"
     showgrid="false"
     units="px"
     inkscape:window-width="2560"
     inkscape:window-height="1651"
     inkscape:window-x="0"
     inkscape:window-y="25"
     inkscape:window-maximized="1" />
  <metadata
     id="metadata7642">
    <rdf:RDF>
      <cc:Work
         rdf:about="">
        <dc:format>image/svg+xml</dc:format>
        <dc:type
           rdf:resource="http://purl.org/dc/dcmitype/StillImage" />
        <dc:title></dc:title>
      </cc:Work>
    </rdf:RDF>
  </metadata>
  <g
     inkscape:label="Layer 1"
     inkscape:groupmode="layer"
     id="layer1"
     transform="translate(0,-1017.3622)">
    <g
       id="g8421"
       transform="translate(-169.64286,796.7857)">
      <path
         d="m 180.16967,229.01229 -8.64027,0 0,-5.32951 23.61942,0 0,5.32951 -8.64027,0 0,23.4983 -6.33888,0 0,-23.4983 z"
         style="font-style:normal;font-variant:normal;font-weight:bold;font-stretch:normal;font-size:medium;line-height:125%;font-family:'Helvetica Neue';-inkscape-font-specification:'Helvetica Neue Bold';letter-spacing:0px;word-spacing:0px;fill:#ffffff;fill-opacity:1;stroke:none;stroke-width:1px;stroke-linecap:butt;stroke-linejoin:miter;stroke-opacity:1"
         id="path4294-6-9"
         inkscape:connector-curvature="0" />
      <path
         d="m 198.47283,223.68278 6.33889,0 0,11.06277 11.66838,0 0,-11.06277 6.33889,0 0,28.82781 -6.33889,0 0,-12.43553 -11.66838,0 0,12.43553 -6.33889,0 0,-28.82781 z"
         style="font-style:normal;font-variant:normal;font-weight:bold;font-stretch:normal;font-size:medium;line-height:125%;font-family:'Helvetica Neue';-inkscape-font-specification:'Helvetica Neue Bold';letter-spacing:0px;word-spacing:0px;fill:#ffffff;fill-opacity:1;stroke:none;stroke-width:1px;stroke-linecap:butt;stroke-linejoin:miter;stroke-opacity:1"
         id="path4296-9-6"
         inkscape:connector-curvature="0" />
      <path
         d="m 228.35984,223.68278 21.5603,0 0,5.32951 -15.22141,0 0,6.17739 13.96978,0 0,4.92576 -13.96978,0 0,7.06564 15.54441,0 0,5.32951 -21.8833,0 0,-28.82781 z"
         style="font-style:normal;font-variant:normal;font-weight:bold;font-stretch:normal;font-size:medium;line-height:125%;font-family:'Helvetica Neue';-inkscape-font-specification:'Helvetica Neue Bold';letter-spacing:0px;word-spacing:0px;fill:#ffffff;fill-opacity:1;stroke:none;stroke-width:1px;stroke-linecap:butt;stroke-linejoin:miter;stroke-opacity:1"
         id="path4298-1-1"
         inkscape:connector-curvature="0" />
      <g
         id="g4512-8-3"
         transform="translate(100.18419,-108.22082)">
        <path
           inkscape:connector-curvature="0"
           id="path4300-9-2"
           style="font-style:normal;font-variant:normal;font-weight:bold;font-stretch:normal;font-size:medium;line-height:125%;font-family:'Helvetica Neue';-inkscape-font-specification:'Helvetica Neue Bold';letter-spacing:0px;word-spacing:0px;fill:#000000;fill-opacity:1;stroke:none;stroke-width:1px;stroke-linecap:butt;stroke-linejoin:miter;stroke-opacity:1"
           d="m 160.69526,344.94475 6.94451,0 c 1.4535,0 2.54363,-0.323 3.27038,-0.969 0.72675,-0.646 1.09013,-1.69575 1.09013,-3.14926 0,-1.37275 -0.36338,-2.38213 -1.09013,-3.02813 -0.72675,-0.646 -1.81688,-0.969 -3.27038,-0.969 l -6.94451,0 0,8.11539 z m -6.33889,-13.04115 15.5444,0 c 1.292,0 2.42251,0.24225 3.47226,0.646 1.04975,0.40375 1.938,0.969 2.66475,1.69576 0.72676,0.72675 1.29201,1.57462 1.69576,2.54363 0.40375,0.969 0.60562,1.97837 0.60562,3.0685 0,1.69575 -0.36337,3.18963 -1.09012,4.40088 -0.72676,1.25163 -1.85726,2.18026 -3.47226,2.82626 l 0,0.0808 c 0.76713,0.24225 1.41313,0.56525 1.938,1.00938 0.4845,0.44412 0.92863,0.969 1.25163,1.57462 0.323,0.60563 0.52488,1.25163 0.68638,1.97838 0.1615,0.72675 0.24225,1.45351 0.323,2.18026 0,0.4845 0.0404,1.00937 0.0808,1.615 0,0.646 0.0404,1.25163 0.12112,1.89763 0.0807,0.646 0.1615,1.292 0.323,1.85725 0.1615,0.56525 0.36338,1.04975 0.68638,1.45351 l -6.33889,0 c -0.36337,-0.88826 -0.56525,-1.97838 -0.646,-3.27039 -0.0807,-1.25162 -0.20187,-2.46288 -0.36337,-3.63375 -0.24225,-1.49388 -0.68638,-2.58401 -1.37276,-3.31076 -0.72675,-0.68638 -1.85725,-1.04975 -3.43188,-1.04975 l -6.33888,0 0,11.26465 -6.33889,0 0,-28.82781 z" />
        <path
           inkscape:connector-curvature="0"
           id="path4302-9-7"
           style="font-style:normal;font-variant:normal;font-weight:bold;font-stretch:normal;font-size:medium;line-height:125%;font-family:'Helvetica Neue';-inkscape-font-specification:'Helvetica Neue Bold';letter-spacing:0px;word-spacing:0px;fill:#000000;fill-opacity:1;stroke:none;stroke-width:1px;stroke-linecap:butt;stroke-linejoin:miter;stroke-opacity:1"
           d="m 183.53367,331.9036 8.92289,0 6.74264,19.82416 0.0808,0 6.37926,-19.82416 8.92289,0 0,28.82781 -5.93513,0 0,-20.42979 -0.0808,0 -7.06564,20.42979 -4.88539,0 -7.06563,-20.22792 -0.0808,0 0,20.22792 -5.93514,0 0,-28.82781 z" />
        <path
           inkscape:connector-curvature="0"
           id="path4304-9-4"
           style="font-style:normal;font-variant:normal;font-weight:bold;font-stretch:normal;font-size:medium;line-height:125%;font-family:'Helvetica Neue';-inkscape-font-specification:'Helvetica Neue Bold';letter-spacing:0px;word-spacing:0px;fill:#000000;fill-opacity:1;stroke:none;stroke-width:1px;stroke-linecap:butt;stroke-linejoin:miter;stroke-opacity:1"
           d="m 224.44371,351.16251 c 0,0.969 0.16151,1.81688 0.52488,2.46288 0.323,0.68638 0.8075,1.25163 1.37275,1.65538 0.56525,0.40375 1.25163,0.72675 2.05913,0.92863 0.76713,0.20187 1.57463,0.28262 2.42251,0.28262 0.56525,0 1.17087,-0.0404 1.81688,-0.12112 0.646,-0.0808 1.25162,-0.28263 1.81687,-0.56525 0.56525,-0.24225 1.00938,-0.60563 1.41313,-1.09013 0.36338,-0.4845 0.56525,-1.09013 0.56525,-1.81688 0,-0.76713 -0.28262,-1.37275 -0.76712,-1.89763 -0.4845,-0.4845 -1.13051,-0.88825 -1.93801,-1.21125 -0.8075,-0.323 -1.73613,-0.60563 -2.7455,-0.84788 -1.04975,-0.24225 -2.05913,-0.4845 -3.10888,-0.8075 -1.09013,-0.24225 -2.13988,-0.56525 -3.14926,-0.969 -1.04975,-0.40375 -1.938,-0.88825 -2.7455,-1.53425 -0.80751,-0.60563 -1.49388,-1.37276 -1.97838,-2.30138 -0.4845,-0.92863 -0.72675,-2.05913 -0.72675,-3.39151 0,-1.4535 0.28262,-2.7455 0.92862,-3.83563 0.646,-1.09013 1.4535,-2.01875 2.50326,-2.74551 1.00937,-0.72675 2.13988,-1.25162 3.47225,-1.615 1.29201,-0.323 2.58401,-0.52488 3.87601,-0.52488 1.49388,0 2.94738,0.20188 4.32013,0.52488 1.37276,0.323 2.62438,0.88825 3.71451,1.615 1.04975,0.76713 1.89763,1.73613 2.54363,2.90701 0.646,1.17088 0.969,2.584 0.969,4.23938 l -6.13701,0 c -0.0807,-0.84787 -0.24225,-1.53425 -0.56525,-2.13988 -0.323,-0.56525 -0.72675,-1.00937 -1.21125,-1.33237 -0.52488,-0.28263 -1.1305,-0.52488 -1.77651,-0.68638 -0.646,-0.12113 -1.37275,-0.1615 -2.13988,-0.20188 -0.52487,0 -1.04975,0.0807 -1.53425,0.1615 -0.52487,0.12113 -1.00937,0.323 -1.41313,0.56526 -0.40375,0.28262 -0.76712,0.60562 -1.00937,1.00937 -0.28263,0.40375 -0.40375,0.92863 -0.40375,1.53426 -0.0404,0.56525 0.0807,1.04975 0.323,1.37275 0.20187,0.36337 0.60562,0.68637 1.25162,0.969 0.64601,0.323 1.49388,0.60563 2.62438,0.88825 1.13051,0.323 2.58401,0.68638 4.40089,1.1305 0.52487,0.12113 1.25163,0.323 2.22063,0.60563 0.969,0.28263 1.89763,0.72675 2.86663,1.33238 0.92862,0.646 1.73613,1.4535 2.4225,2.50325 0.68638,1.04975 1.04975,2.34176 1.04975,3.95676 0,1.33238 -0.28262,2.54363 -0.76712,3.67413 -0.52488,1.1305 -1.292,2.13988 -2.30138,2.94738 -1.00938,0.8075 -2.26101,1.4535 -3.75488,1.89763 -1.49388,0.4845 -3.23001,0.68638 -5.16801,0.68638 -1.61501,0 -3.14926,-0.1615 -4.64314,-0.56525 -1.49388,-0.40376 -2.82625,-1.00938 -3.95675,-1.85726 -1.13051,-0.8075 -2.05913,-1.89763 -2.70513,-3.18963 -0.68638,-1.292 -1.00938,-2.82625 -0.96901,-4.60276 l 6.13701,0 z" />
        <path
           style="opacity:1;fill:#ffffff;fill-opacity:1;stroke:#000000;stroke-width:0;stroke-miterlimit:4;stroke-dasharray:none;stroke-dashoffset:0;stroke-opacity:1"
           d="m 154.37405,357.99788 0,-1.16072 3.15849,0 3.15848,0 0,1.16072 0,1.16071 -3.15848,0 -3.15849,0 0,-1.16071 z"
           id="path4350-0-2"
           inkscape:connector-curvature="0" />
        <path
           style="opacity:1;fill:#ffffff;fill-opacity:1;stroke:#000000;stroke-width:0;stroke-miterlimit:4;stroke-dasharray:none;stroke-dashoffset:0;stroke-opacity:1"
           d="m 172.40936,359.14185 c -2.3e-4,-0.009 -0.0155,-0.10212 -0.034,-0.20647 -0.0572,-0.32326 -0.11923,-0.88235 -0.15467,-1.39509 -0.0187,-0.27009 -0.0393,-0.53879 -0.046,-0.5971 l -0.012,-0.10603 2.96816,0 2.96815,0 0.0121,0.0949 c 0.007,0.0522 0.0378,0.31082 0.0694,0.57477 0.0811,0.67902 0.20107,1.39852 0.26893,1.61234 0.0119,0.0376 -0.13028,0.0394 -3.01353,0.0394 -1.66434,0 -3.02625,-0.008 -3.02647,-0.0167 z"
           id="path4352-0-2"
           inkscape:connector-curvature="0" />
        <path
           style="opacity:1;fill:#ffffff;fill-opacity:1;stroke:#000000;stroke-width:0;stroke-miterlimit:4;stroke-dasharray:none;stroke-dashoffset:0;stroke-opacity:1"
           d="m 171.93087,354.44319 c -0.005,-0.0154 -0.0204,-0.12835 -0.0345,-0.25112 -0.0673,-0.58208 -0.23159,-1.34921 -0.38847,-1.81361 l -0.0773,-0.2288 3.14434,0 c 2.97514,0 3.14499,0.002 3.15639,0.0391 0.0639,0.20701 0.23301,1.61982 0.24186,2.02012 l 0.006,0.26231 -3.01967,-3e-5 c -2.39617,-2e-5 -3.02148,-0.006 -3.02842,-0.0279 z"
           id="path4354-6-5"
           inkscape:connector-curvature="0" />
        <path
           style="opacity:1;fill:#ffffff;fill-opacity:1;stroke:#000000;stroke-width:0;stroke-miterlimit:4;stroke-dasharray:none;stroke-dashoffset:0;stroke-opacity:1"
           d="m 154.37405,353.31038 0,-1.16072 3.15849,0 3.15848,0 0,1.16072 0,1.16071 -3.15848,0 -3.15849,0 0,-1.16071 z"
           id="path4356-7-2"
           inkscape:connector-curvature="0" />
        <path
           style="opacity:1;fill:#ffffff;fill-opacity:1;stroke:#000000;stroke-width:0;stroke-miterlimit:4;stroke-dasharray:none;stroke-dashoffset:0;stroke-opacity:1"
           d="m 154.37405,348.6452 0,-1.16072 10.11526,0 10.11526,0 0.23631,0.12457 c 0.56607,0.2984 1.03535,0.68364 1.47973,1.21472 0.1849,0.22098 0.47167,0.63303 0.5942,0.85379 l 0.0712,0.12835 -3.83598,0 c -3.81229,0 -3.8368,-2.8e-4 -3.96782,-0.0459 -0.4139,-0.14397 -1.03874,-0.25239 -1.66087,-0.28817 -0.22836,-0.0131 -1.72809,-0.0226 -3.61049,-0.0228 l -3.21986,-3.2e-4 0,0.17857 0,0.17857 -3.15848,0 -3.15849,0 0,-1.16071 z"
           id="path4358-3-0"
           inkscape:connector-curvature="0" />
        <path
           style="opacity:1;fill:#ffffff;fill-opacity:1;stroke:#000000;stroke-width:0;stroke-miterlimit:4;stroke-dasharray:none;stroke-dashoffset:0;stroke-opacity:1"
           d="m 183.54816,334.59386 0,-1.17188 4.70666,0 4.70666,0 0.39378,1.15707 c 0.21659,0.63639 0.39379,1.16373 0.39379,1.17188 0,0.008 -2.2952,0.0148 -5.10044,0.0148 l -5.10045,0 0,-1.17187 z"
           id="path4368-8-6"
           inkscape:connector-curvature="0" />
        <path
           style="opacity:1;fill:#ffffff;fill-opacity:1;stroke:#000000;stroke-width:0;stroke-miterlimit:4;stroke-dasharray:none;stroke-dashoffset:0;stroke-opacity:1"
           d="m 204.44102,335.7456 c 0,-0.0155 0.46921,-1.48984 0.70573,-2.21759 l 0.0345,-0.10603 4.69687,0 4.69687,0 0,1.17188 0,1.17187 -5.06697,0 c -2.99668,0 -5.06696,-0.008 -5.06696,-0.0201 z"
           id="path4370-4-6"
           inkscape:connector-curvature="0" />
        <path
           style="opacity:1;fill:#ffffff;fill-opacity:1;stroke:#000000;stroke-width:0;stroke-miterlimit:4;stroke-dasharray:none;stroke-dashoffset:0;stroke-opacity:1"
           d="m 203.02208,340.13515 c 0.052,-0.16266 0.21926,-0.68488 0.37169,-1.16047 l 0.27716,-0.86471 5.45201,-2.4e-4 5.45201,-2.5e-4 0,1.16072 0,1.16071 -2.95759,0 -2.95759,0 0,-0.067 c 0,-0.0548 -0.009,-0.067 -0.0509,-0.067 -0.0361,0 -0.0583,0.0195 -0.0762,0.067 l -0.0253,0.067 -2.78994,0 -2.78993,0 0.0945,-0.29576 z"
           id="path4372-8-4"
           inkscape:connector-curvature="0" />
        <path
           style="opacity:1;fill:#ffffff;fill-opacity:1;stroke:#000000;stroke-width:0;stroke-miterlimit:4;stroke-dasharray:none;stroke-dashoffset:0;stroke-opacity:1"
           d="m 183.54816,339.27015 0,-1.16076 5.50545,0.006 5.50544,0.006 0.38741,1.13661 c 0.21308,0.62513 0.38742,1.14494 0.38742,1.15513 0,0.0102 -2.65179,0.0185 -5.89286,0.0185 l -5.89286,0 0,-1.16076 z"
           id="path4374-9-1"
           inkscape:connector-curvature="0" />
        <path
           style="opacity:1;fill:#ffffff;fill-opacity:1;stroke:#000000;stroke-width:0;stroke-miterlimit:4;stroke-dasharray:none;stroke-dashoffset:0;stroke-opacity:1"
           d="m 190.86207,344.231 c -0.16987,-0.48793 -0.35197,-1.01019 -0.40467,-1.16058 l -0.0958,-0.27344 2.89453,0 2.89454,0 0.0467,0.13951 c 0.0257,0.0767 0.20302,0.59905 0.3941,1.16072 l 0.34742,1.0212 -2.88397,-1.4e-4 -2.88397,-1.4e-4 -0.30886,-0.88713 z"
           id="path4376-3-8"
           inkscape:connector-curvature="0" />
        <path
           style="opacity:1;fill:#ffffff;fill-opacity:1;stroke:#000000;stroke-width:0;stroke-miterlimit:4;stroke-dasharray:none;stroke-dashoffset:0;stroke-opacity:1"
           d="m 192.80008,349.77801 c -0.082,-0.22733 -0.7921,-2.27237 -0.7921,-2.28133 0,-0.007 1.29184,-0.01 2.87076,-0.007 l 2.87076,0.006 0.38727,1.1384 c 0.21299,0.62611 0.38767,1.14592 0.38817,1.15513 4.9e-4,0.009 -1.28513,0.0167 -2.85694,0.0167 -2.26603,0 -2.85993,-0.006 -2.86792,-0.0279 z"
           id="path4378-8-2"
           inkscape:connector-curvature="0" />
        <path
           style="opacity:1;fill:#ffffff;fill-opacity:1;stroke:#000000;stroke-width:0;stroke-miterlimit:4;stroke-dasharray:none;stroke-dashoffset:0;stroke-opacity:1"
           d="m 199.91611,349.7781 c 0.006,-0.0154 0.17441,-0.53776 0.37523,-1.1608 l 0.36511,-1.13282 2.70608,0 2.70609,0 -0.20921,0.60826 c -0.11507,0.33454 -0.29414,0.85435 -0.39794,1.15514 l -0.18874,0.54687 -2.68337,0.006 c -2.14373,0.005 -2.68134,5e-5 -2.67325,-0.0223 z"
           id="path4380-2-7"
           inkscape:connector-curvature="0" />
        <path
           style="opacity:1;fill:#ffffff;fill-opacity:1;stroke:#000000;stroke-width:0;stroke-miterlimit:4;stroke-dasharray:none;stroke-dashoffset:0;stroke-opacity:1"
           d="m 194.42944,354.44319 c -0.14006,-0.38404 -0.79144,-2.2792 -0.78544,-2.2852 0.005,-0.005 2.43874,-0.006 5.40913,-0.003 l 5.40071,0.006 -0.13561,0.39063 c -0.0746,0.21484 -0.25455,0.73465 -0.39993,1.15513 l -0.26431,0.76451 -4.60719,0 c -3.66544,0 -4.60926,-0.006 -4.61736,-0.0279 z"
           id="path4382-1-5"
           inkscape:connector-curvature="0" />
        <path
           style="opacity:1;fill:#ffffff;fill-opacity:1;stroke:#000000;stroke-width:0;stroke-miterlimit:4;stroke-dasharray:none;stroke-dashoffset:0;stroke-opacity:1"
           d="m 195.82536,358.4388 c -0.13815,-0.39597 -0.32006,-0.91832 -0.40424,-1.16079 l -0.15307,-0.44085 3.78291,0 c 2.0806,0 3.78274,0.003 3.78253,0.006 -2e-4,0.003 -0.17958,0.52288 -0.39859,1.15514 l -0.39821,1.14955 -2.98007,0.006 -2.98007,0.006 -0.25119,-0.71995 z"
           id="path4384-0-1"
           inkscape:connector-curvature="0" />
        <path
           style="opacity:1;fill:#ffffff;fill-opacity:1;stroke:#000000;stroke-width:0;stroke-miterlimit:4;stroke-dasharray:none;stroke-dashoffset:0;stroke-opacity:1"
           d="m 208.65977,357.99788 0,-1.16072 2.95759,0 2.95759,0 0,1.16072 0,1.16071 -2.95759,0 -2.95759,0 0,-1.16071 z"
           id="path4386-0-2"
           inkscape:connector-curvature="0" />
        <path
           style="opacity:1;fill:#ffffff;fill-opacity:1;stroke:#000000;stroke-width:0;stroke-miterlimit:4;stroke-dasharray:none;stroke-dashoffset:0;stroke-opacity:1"
           d="m 208.65977,353.31038 0,-1.16072 2.95759,0 2.95759,0 0,1.16072 0,1.16071 -2.95759,0 -2.95759,0 0,-1.16071 z"
           id="path4388-1-3"
           inkscape:connector-curvature="0" />
        <path
           style="opacity:1;fill:#ffffff;fill-opacity:1;stroke:#000000;stroke-width:0;stroke-miterlimit:4;stroke-dasharray:none;stroke-dashoffset:0;stroke-opacity:1"
           d="m 208.65977,348.6452 0,-1.16072 2.95759,0 2.95759,0 0,1.16072 0,1.16071 -2.95759,0 -2.95759,0 0,-1.16071 z"
           id="path4390-8-8"
           inkscape:connector-curvature="0" />
        <path
           style="opacity:1;fill:#ffffff;fill-opacity:1;stroke:#000000;stroke-width:0;stroke-miterlimit:4;stroke-dasharray:none;stroke-dashoffset:0;stroke-opacity:1"
           d="m 208.65977,343.9577 0,-1.16072 2.95759,0 2.95759,0 0,1.16072 0,1.16071 -2.95759,0 -2.95759,0 0,-1.16071 z"
           id="path4392-9-2"
           inkscape:connector-curvature="0" />
        <path
           style="opacity:1;fill:#ffffff;fill-opacity:1;stroke:#000000;stroke-width:0;stroke-miterlimit:4;stroke-dasharray:none;stroke-dashoffset:0;stroke-opacity:1"
           d="m 201.42763,345.10247 c 0,-0.009 0.0811,-0.26742 0.18028,-0.57478 0.0992,-0.30736 0.26537,-0.8225 0.36937,-1.14477 l 0.18908,-0.58594 2.75563,0 c 1.5156,0 2.75587,0.008 2.75616,0.0167 2.9e-4,0.009 -0.177,0.53153 -0.39399,1.16072 l -0.39452,1.14397 -2.73101,0 c -1.50205,0 -2.731,-0.007 -2.731,-0.0159 z"
           id="path4394-1-5"
           inkscape:connector-curvature="0" />
        <path
           style="opacity:1;fill:#ffffff;fill-opacity:1;stroke:#000000;stroke-width:0;stroke-miterlimit:4;stroke-dasharray:none;stroke-dashoffset:0;stroke-opacity:1"
           d="m 183.54816,343.9577 0,-1.16072 2.95759,0 2.95759,0 0,1.16072 0,1.16071 -2.95759,0 -2.95759,0 0,-1.16071 z"
           id="path4396-9-7"
           inkscape:connector-curvature="0" />
        <path
           style="opacity:1;fill:#ffffff;fill-opacity:1;stroke:#000000;stroke-width:0;stroke-miterlimit:4;stroke-dasharray:none;stroke-dashoffset:0;stroke-opacity:1"
           d="m 183.54816,348.6452 0,-1.16072 2.95759,0 2.95759,0 0,1.16072 0,1.16071 -2.95759,0 -2.95759,0 0,-1.16071 z"
           id="path4398-9-8"
           inkscape:connector-curvature="0" />
        <path
           style="opacity:1;fill:#ffffff;fill-opacity:1;stroke:#000000;stroke-width:0;stroke-miterlimit:4;stroke-dasharray:none;stroke-dashoffset:0;stroke-opacity:1"
           d="m 183.54816,353.31038 0,-1.16072 2.95759,0 2.95759,0 0,1.16072 0,1.16071 -2.95759,0 -2.95759,0 0,-1.16071 z"
           id="path4400-8-5"
           inkscape:connector-curvature="0" />
        <path
           style="opacity:1;fill:#ffffff;fill-opacity:1;stroke:#000000;stroke-width:0;stroke-miterlimit:4;stroke-dasharray:none;stroke-dashoffset:0;stroke-opacity:1"
           d="m 183.54816,357.99788 0,-1.16072 2.95759,0 2.95759,0 0,1.16072 0,1.16071 -2.95759,0 -2.95759,0 0,-1.16071 z"
           id="path4402-2-6"
           inkscape:connector-curvature="0" />
        <path
           style="opacity:1;fill:#ffffff;fill-opacity:1;stroke:#000000;stroke-width:0;stroke-miterlimit:4;stroke-dasharray:none;stroke-dashoffset:0;stroke-opacity:1"
           d="m 222.01615,358.96563 c -0.42727,-0.31127 -0.71168,-0.55347 -1.06982,-0.91107 -0.39453,-0.39393 -0.78219,-0.8514 -0.97959,-1.15601 l -0.0398,-0.0614 10.66277,0 10.66277,0 -0.14984,0.21764 c -0.49528,0.71937 -1.1691,1.41249 -1.8987,1.95312 l -0.20334,0.15067 -8.35981,0 -8.3598,0 -0.26486,-0.19296 z"
           id="path4404-8-6"
           inkscape:connector-curvature="0" />
        <path
           style="opacity:1;fill:#ffffff;fill-opacity:1;stroke:#000000;stroke-width:0;stroke-miterlimit:4;stroke-dasharray:none;stroke-dashoffset:0;stroke-opacity:1"
           d="m 236.16246,354.23755 c 0.26773,-0.56047 0.35934,-1.41535 0.21118,-1.9707 l -0.0313,-0.11719 3.11182,0 3.11182,0 -1.1e-4,0.10603 c -4.7e-4,0.47976 -0.10357,1.37479 -0.21276,1.8471 -0.0312,0.13504 -0.0626,0.27315 -0.0698,0.30692 l -0.013,0.0614 -3.10968,0 -3.10968,0 0.11156,-0.23354 z"
           id="path4406-6-6"
           inkscape:connector-curvature="0" />
        <path
           style="opacity:1;fill:#ffffff;fill-opacity:1;stroke:#000000;stroke-width:0;stroke-miterlimit:4;stroke-dasharray:none;stroke-dashoffset:0;stroke-opacity:1"
           d="m 218.73892,354.44319 c -0.0635,-0.20293 -0.0879,-0.29184 -0.1458,-0.53014 -0.11733,-0.48312 -0.20822,-1.07562 -0.25252,-1.6462 l -0.009,-0.11719 3.08824,0 3.08824,0 0,0.0557 c 0,0.0957 0.10756,0.57027 0.18178,0.80194 0.12141,0.37904 0.44911,0.99884 0.74737,1.41355 l 0.0361,0.0502 -3.3628,0 c -2.6707,0 -3.36459,-0.006 -3.37153,-0.0279 z"
           id="path4408-3-2"
           inkscape:connector-curvature="0" />
        <path
           style="opacity:1;fill:#ffffff;fill-opacity:1;stroke:#000000;stroke-width:0;stroke-miterlimit:4;stroke-dasharray:none;stroke-dashoffset:0;stroke-opacity:1"
           d="m 233.5928,349.72495 c -0.31957,-0.13017 -1.21263,-0.42231 -1.71875,-0.56223 -0.26395,-0.073 -0.82645,-0.21522 -1.25,-0.31611 -1.02644,-0.24451 -1.62902,-0.39898 -2.22098,-0.56937 -0.27009,-0.0777 -0.69699,-0.19212 -0.94866,-0.25418 -0.5436,-0.13404 -1.0262,-0.27166 -1.48437,-0.42331 l -0.33483,-0.11082 7.67107,-0.002 7.67107,-0.002 0.11086,0.13951 c 0.32308,0.40661 0.67516,0.98461 0.88191,1.44782 0.094,0.21071 0.26108,0.6689 0.26108,0.71617 0,0.01 -1.90095,0.0171 -4.22433,0.0161 l -4.22433,-0.002 -0.18974,-0.0773 0,0 z"
           id="path4410-2-9"
           inkscape:connector-curvature="0" />
        <path
           style="opacity:1;fill:#ffffff;fill-opacity:1;stroke:#000000;stroke-width:0;stroke-miterlimit:4;stroke-dasharray:none;stroke-dashoffset:0;stroke-opacity:1"
           d="m 221.1646,344.90078 c -0.49163,-0.50302 -0.89352,-1.0687 -1.20116,-1.69068 -0.10318,-0.20862 -0.1876,-0.38691 -0.1876,-0.39621 0,-0.009 2.32562,-0.0169 5.16804,-0.0169 l 5.16805,0 0.77503,0.20291 c 0.42627,0.1116 1.47817,0.37724 2.33754,0.59031 1.54032,0.3819 2.85953,0.74184 3.41922,0.9329 0.36908,0.12599 0.77527,0.29395 1.11203,0.45982 l 0.26786,0.13193 -8.32315,0.002 -8.32315,0.002 -0.21271,-0.21763 z"
           id="path4412-6-0"
           inkscape:connector-curvature="0" />
        <path
           style="opacity:1;fill:#ffffff;fill-opacity:1;stroke:#000000;stroke-width:0;stroke-miterlimit:4;stroke-dasharray:none;stroke-dashoffset:0;stroke-opacity:1"
           d="m 219.29832,340.3956 c -0.0211,-0.0548 -0.0153,-0.74227 0.009,-1.11424 0.0281,-0.42525 0.0973,-0.95624 0.14762,-1.13281 0.0105,-0.037 0.17782,-0.0391 3.11014,-0.0391 l 3.099,0 -0.0647,0.15388 c -0.22099,0.52598 -0.27145,1.58787 -0.0987,2.07747 l 0.0318,0.0901 -3.11046,0 c -2.81575,0 -3.11175,-0.003 -3.12401,-0.0353 z"
           id="path4414-4-6"
           inkscape:connector-curvature="0" />
        <path
           style="opacity:1;fill:#ffffff;fill-opacity:1;stroke:#000000;stroke-width:0;stroke-miterlimit:4;stroke-dasharray:none;stroke-dashoffset:0;stroke-opacity:1"
           d="m 220.44548,335.74689 c 0,-0.0235 0.30145,-0.45588 0.45372,-0.6508 0.44245,-0.56636 1.03742,-1.15429 1.56272,-1.54425 l 0.17493,-0.12986 7.7634,0 7.76341,0 0.19337,0.15389 c 0.68543,0.54546 1.29172,1.19509 1.77636,1.90337 0.098,0.14321 0.17816,0.26625 0.17816,0.27343 0,0.007 -4.46986,0.0131 -9.93303,0.0131 -5.46317,0 -9.93304,-0.008 -9.93304,-0.0188 z"
           id="path4416-1-6"
           inkscape:connector-curvature="0" />
        <path
           style="opacity:1;fill:#ffffff;fill-opacity:1;stroke:#000000;stroke-width:0;stroke-miterlimit:4;stroke-dasharray:none;stroke-dashoffset:0;stroke-opacity:1"
           d="m 235.46768,340.40301 c -3.6e-4,-0.0827 -0.0989,-0.68767 -0.14756,-0.90621 -0.10088,-0.45283 -0.30086,-0.97276 -0.48466,-1.26009 l -0.0814,-0.12723 3.28841,0 3.28841,0 0.0484,0.2288 c 0.1148,0.54253 0.20426,1.34335 0.20446,1.83035 l 1.2e-4,0.26228 -3.05804,0 c -2.43148,0 -3.05806,-0.006 -3.05816,-0.0279 z"
           id="path4418-8-6"
           inkscape:connector-curvature="0" />
        <path
           style="opacity:1;fill:#b22234;fill-opacity:1;stroke:#000000;stroke-width:0;stroke-miterlimit:4;stroke-dasharray:none;stroke-dashoffset:0;stroke-opacity:1"
           d="m 154.37405,350.97779 0,-1.17188 3.15849,0 3.15848,0 0,1.17188 0,1.17187 -3.15848,0 -3.15849,0 0,-1.17187 z"
           id="path4436-5-8"
           inkscape:connector-curvature="0" />
        <path
           style="opacity:1;fill:#b22234;fill-opacity:1;stroke:#000000;stroke-width:0;stroke-miterlimit:4;stroke-dasharray:none;stroke-dashoffset:0;stroke-opacity:1"
           d="m 154.37405,355.65413 0,-1.18304 3.15849,0 3.15848,0 0,1.18304 0,1.18303 -3.15848,0 -3.15849,0 0,-1.18303 z"
           id="path4438-3-0"
           inkscape:connector-curvature="0" />
        <path
           style="opacity:1;fill:#b22234;fill-opacity:1;stroke:#000000;stroke-width:0;stroke-miterlimit:4;stroke-dasharray:none;stroke-dashoffset:0;stroke-opacity:1"
           d="m 154.37405,359.93984 0,-0.78125 3.15849,0 3.15848,0 0,0.78125 0,0.78125 -3.15848,0 -3.15849,0 0,-0.78125 z"
           id="path4440-4-3"
           inkscape:connector-curvature="0" />
        <path
           style="opacity:1;fill:#b22234;fill-opacity:1;stroke:#000000;stroke-width:0;stroke-miterlimit:4;stroke-dasharray:none;stroke-dashoffset:0;stroke-opacity:1"
           d="m 172.83574,360.67992 c -0.0405,-0.0756 -0.221,-0.6368 -0.28043,-0.87174 -0.0645,-0.25499 -0.14515,-0.6351 -0.13658,-0.64367 0.003,-0.003 1.36221,-0.008 3.02049,-0.0113 l 3.01504,-0.006 0.06,0.20089 c 0.14111,0.47257 0.34957,0.94187 0.53835,1.21201 0.054,0.0773 0.0982,0.14512 0.0982,0.15067 0,0.006 -1.41594,0.0101 -3.14654,0.0101 -3.0351,0 -3.14731,-0.001 -3.16856,-0.0412 z"
           id="path4442-2-2"
           inkscape:connector-curvature="0" />
        <path
           style="opacity:1;fill:#b22234;fill-opacity:1;stroke:#000000;stroke-width:0;stroke-miterlimit:4;stroke-dasharray:none;stroke-dashoffset:0;stroke-opacity:1"
           d="m 172.16414,356.7981 c -2e-4,-0.0874 -0.11552,-1.29978 -0.16746,-1.76052 -0.0306,-0.27157 -0.0557,-0.51264 -0.0557,-0.53571 0,-0.0409 0.0777,-0.0418 3.02046,-0.0362 l 3.02047,0.006 0.0372,0.6639 c 0.0205,0.36515 0.0424,0.82964 0.0487,1.03221 0.006,0.20257 0.018,0.4361 0.0259,0.51897 l 0.0144,0.15067 -2.97198,0 c -2.81554,0 -2.97198,-0.002 -2.97207,-0.0391 z"
           id="path4444-6-2"
           inkscape:connector-curvature="0" />
        <path
           style="opacity:1;fill:#b22234;fill-opacity:1;stroke:#000000;stroke-width:0;stroke-miterlimit:4;stroke-dasharray:none;stroke-dashoffset:0;stroke-opacity:1"
           d="m 174.56068,352.15524 -3.1281,-0.006 -0.0726,-0.18408 c -0.19329,-0.49018 -0.52348,-1.04672 -0.81347,-1.37109 -0.22726,-0.25421 -0.63386,-0.52834 -1.05899,-0.71397 l -0.16929,-0.0739 3.83338,-2.8e-4 3.83339,-2.7e-4 0.0682,0.1351 c 0.23101,0.45762 0.4549,1.15043 0.61156,1.89238 0.0611,0.28923 0.0675,0.34188 0.0408,0.33309 -0.009,-0.003 -1.42439,-0.008 -3.14485,-0.0112 z"
           id="path4446-2-9"
           inkscape:connector-curvature="0" />
        <path
           style="opacity:1;fill:#b22234;fill-opacity:1;stroke:#000000;stroke-width:0;stroke-miterlimit:4;stroke-dasharray:none;stroke-dashoffset:0;stroke-opacity:1"
           d="m 208.65977,359.93984 0,-0.78125 2.95759,0 2.95759,0 0,0.78125 0,0.78125 -2.95759,0 -2.95759,0 0,-0.78125 z"
           id="path4448-8-9"
           inkscape:connector-curvature="0" />
        <path
           style="opacity:1;fill:#b22234;fill-opacity:1;stroke:#000000;stroke-width:0;stroke-miterlimit:4;stroke-dasharray:none;stroke-dashoffset:0;stroke-opacity:1"
           d="m 208.65977,355.65413 0,-1.18304 2.95759,0 2.95759,0 0,1.18304 0,1.18303 -2.95759,0 -2.95759,0 0,-1.18303 z"
           id="path4450-5-7"
           inkscape:connector-curvature="0" />
        <path
           style="opacity:1;fill:#b22234;fill-opacity:1;stroke:#000000;stroke-width:0;stroke-miterlimit:4;stroke-dasharray:none;stroke-dashoffset:0;stroke-opacity:1"
           d="m 208.65977,350.97779 0,-1.17188 2.95759,0 2.95759,0 0,1.17188 0,1.17187 -2.95759,0 -2.95759,0 0,-1.17187 z"
           id="path4452-2-2"
           inkscape:connector-curvature="0" />
        <path
           style="opacity:1;fill:#b22234;fill-opacity:1;stroke:#000000;stroke-width:0;stroke-miterlimit:4;stroke-dasharray:none;stroke-dashoffset:0;stroke-opacity:1"
           d="m 208.65977,346.30145 0,-1.18304 2.95759,0 2.95759,0 0,1.18304 0,1.18303 -2.95759,0 -2.95759,0 0,-1.18303 z"
           id="path4454-1-7"
           inkscape:connector-curvature="0" />
        <path
           style="opacity:1;fill:#b22234;fill-opacity:1;stroke:#000000;stroke-width:0;stroke-miterlimit:4;stroke-dasharray:none;stroke-dashoffset:0;stroke-opacity:1"
           d="m 208.65977,341.61395 0,-1.18304 2.95759,0 2.95759,0 0,1.18304 0,1.18303 -2.95759,0 -2.95759,0 0,-1.18303 z"
           id="path4456-5-1"
           inkscape:connector-curvature="0" />
        <path
           style="opacity:1;fill:#b22234;fill-opacity:1;stroke:#000000;stroke-width:0;stroke-miterlimit:4;stroke-dasharray:none;stroke-dashoffset:0;stroke-opacity:1"
           d="m 203.68209,338.09357 c 0,-0.009 0.15696,-0.50345 0.3488,-1.09933 0.19185,-0.59588 0.35806,-1.11606 0.36936,-1.15596 l 0.0205,-0.0725 5.07708,0 5.07708,0 0,1.17188 0,1.17187 -5.44643,0 c -2.99554,0 -5.44643,-0.007 -5.44643,-0.0159 z"
           id="path4460-6-9"
           inkscape:connector-curvature="0" />
        <path
           style="opacity:1;fill:#b22234;fill-opacity:1;stroke:#000000;stroke-width:0;stroke-miterlimit:4;stroke-dasharray:none;stroke-dashoffset:0;stroke-opacity:1"
           d="m 205.25753,333.18203 c 0.0417,-0.13198 0.15032,-0.47098 0.24146,-0.75335 l 0.16572,-0.51339 4.45512,-0.006 4.45512,-0.006 0,0.75898 0,0.75898 -4.69659,0 -4.69658,0 0.0757,-0.23995 z"
           id="path4462-3-4"
           inkscape:connector-curvature="0" />
        <path
           style="opacity:1;fill:#b22234;fill-opacity:1;stroke:#000000;stroke-width:0;stroke-miterlimit:4;stroke-dasharray:none;stroke-dashoffset:0;stroke-opacity:1"
           d="m 202.1699,342.76908 c 0.006,-0.0153 0.093,-0.28404 0.19383,-0.5971 0.10087,-0.31306 0.26848,-0.83287 0.37248,-1.15513 l 0.18908,-0.58594 2.78911,0 c 1.53402,0 2.78912,0.006 2.78912,0.0138 0,0.008 -0.18081,0.53596 -0.40179,1.17414 -0.22098,0.63818 -0.40178,1.16433 -0.40178,1.16922 0,0.005 -1.24661,0.009 -2.77025,0.009 -2.20688,0 -2.76812,-0.006 -2.7598,-0.0279 z"
           id="path4464-5-4"
           inkscape:connector-curvature="0" />
        <path
           style="opacity:1;fill:#b22234;fill-opacity:1;stroke:#000000;stroke-width:0;stroke-miterlimit:4;stroke-dasharray:none;stroke-dashoffset:0;stroke-opacity:1"
           d="m 200.66777,347.46783 c -5.2e-4,-0.009 0.16753,-0.54166 0.37343,-1.18312 l 0.37437,-1.1663 2.73777,0 2.73776,0 -0.14041,0.40737 c -0.0772,0.22405 -0.2604,0.7539 -0.40705,1.17745 l -0.26662,0.77009 -2.70416,0.006 c -1.48729,0.003 -2.70458,-0.002 -2.70509,-0.0112 z"
           id="path4466-9-4"
           inkscape:connector-curvature="0" />
        <path
           style="opacity:1;fill:#b22234;fill-opacity:1;stroke:#000000;stroke-width:0;stroke-miterlimit:4;stroke-dasharray:none;stroke-dashoffset:0;stroke-opacity:1"
           d="m 193.21892,350.98291 c -0.22405,-0.6417 -0.40737,-1.17155 -0.40737,-1.17745 0,-0.006 1.28823,-0.008 2.86273,-0.005 l 2.86272,0.006 0.3246,0.95403 c 0.30704,0.90244 0.3275,0.95402 0.37824,0.95402 0.0559,0 0.10122,-0.12811 0.58095,-1.64062 l 0.0885,-0.27902 2.68113,0.006 c 2.12447,0.005 2.67896,0.0115 2.67067,0.0335 -0.008,0.0217 -0.61728,1.78017 -0.76923,2.22081 l -0.0327,0.0949 -5.41643,-10e-6 -5.41642,0 -0.40737,-1.16674 z"
           id="path4468-4-7"
           inkscape:connector-curvature="0" />
        <path
           style="opacity:1;fill:#b22234;fill-opacity:1;stroke:#000000;stroke-width:0;stroke-miterlimit:4;stroke-dasharray:none;stroke-dashoffset:0;stroke-opacity:1"
           d="m 195.24723,356.787 c -0.10789,-0.29127 -0.80915,-2.31949 -0.8031,-2.32274 0.004,-0.002 2.07839,6.9e-4 4.60881,0.007 l 4.60076,0.0112 -0.40603,1.17188 -0.40603,1.17187 -3.78789,0.006 -3.7879,0.006 -0.0186,-0.0503 z"
           id="path4470-5-2"
           inkscape:connector-curvature="0" />
        <path
           style="opacity:1;fill:#b22234;fill-opacity:1;stroke:#000000;stroke-width:0;stroke-miterlimit:4;stroke-dasharray:none;stroke-dashoffset:0;stroke-opacity:1"
           d="m 196.35333,359.95999 c -0.14522,-0.41838 -0.25739,-0.76734 -0.24926,-0.77547 0.008,-0.008 1.34563,-0.0176 2.97225,-0.0211 2.89123,-0.006 2.95719,-0.005 2.9441,0.0358 -0.007,0.0232 -0.12755,0.3726 -0.26707,0.77645 l -0.25369,0.73427 -2.44115,0.005 -2.44115,0.005 -0.26403,-0.76069 z"
           id="path4472-8-6"
           inkscape:connector-curvature="0" />
        <path
           style="opacity:1;fill:#b22234;fill-opacity:1;stroke:#000000;stroke-width:0;stroke-miterlimit:4;stroke-dasharray:none;stroke-dashoffset:0;stroke-opacity:1"
           d="m 191.58946,346.31773 c -0.22406,-0.6417 -0.40737,-1.1741 -0.40737,-1.18311 0,-0.009 1.29684,-0.0138 2.88188,-0.0107 l 2.88187,0.006 0.39924,1.17188 c 0.21958,0.64453 0.3993,1.17438 0.39937,1.17745 7e-5,0.003 -1.29311,0.006 -2.87374,0.006 l -2.87389,0 -0.40736,-1.16674 z"
           id="path4474-8-2"
           inkscape:connector-curvature="0" />
        <path
           style="opacity:1;fill:#b22234;fill-opacity:1;stroke:#000000;stroke-width:0;stroke-miterlimit:4;stroke-dasharray:none;stroke-dashoffset:0;stroke-opacity:1"
           d="m 183.54816,341.61395 0,-1.18304 5.90078,0 5.90078,0 0.39435,1.1663 c 0.21689,0.64146 0.39413,1.17382 0.39386,1.18303 -2.6e-4,0.009 -1.30017,0.0167 -2.88868,0.0167 l -2.8882,0 -0.0807,-0.22879 c -0.0444,-0.12584 -0.22474,-0.64063 -0.40072,-1.14397 -0.27953,-0.79954 -0.32605,-0.91608 -0.3681,-0.92232 l -0.0481,-0.007 0,1.15111 0,1.1511 -2.95759,0 -2.95759,0 0,-1.18303 z"
           id="path4476-5-9"
           inkscape:connector-curvature="0" />
        <path
           style="opacity:1;fill:#b22234;fill-opacity:1;stroke:#000000;stroke-width:0;stroke-miterlimit:4;stroke-dasharray:none;stroke-dashoffset:0;stroke-opacity:1"
           d="m 183.54816,336.93761 0,-1.17188 5.10662,0 5.10662,0 0.38824,1.14398 c 0.21353,0.62918 0.39263,1.15653 0.398,1.17187 0.008,0.0223 -1.10084,0.0279 -5.49486,0.0279 l -5.50462,0 0,-1.17187 z"
           id="path4478-7-6"
           inkscape:connector-curvature="0" />
        <path
           style="opacity:1;fill:#b22234;fill-opacity:1;stroke:#000000;stroke-width:0;stroke-miterlimit:4;stroke-dasharray:none;stroke-dashoffset:0;stroke-opacity:1"
           d="m 183.54816,332.66305 0,-0.75892 4.45129,0 4.45129,0 0.0609,0.18415 c 0.0335,0.10128 0.14943,0.4428 0.25771,0.75893 l 0.19686,0.57477 -4.70901,0 -4.709,0 0,-0.75893 z"
           id="path4480-6-9"
           inkscape:connector-curvature="0" />
        <path
           style="opacity:1;fill:#b22234;fill-opacity:1;stroke:#000000;stroke-width:0;stroke-miterlimit:4;stroke-dasharray:none;stroke-dashoffset:0;stroke-opacity:1"
           d="m 183.54816,346.30145 0,-1.18304 2.95759,0 2.95759,0 0,1.18304 0,1.18303 -2.95759,0 -2.95759,0 0,-1.18303 z"
           id="path4482-9-7"
           inkscape:connector-curvature="0" />
        <path
           style="opacity:1;fill:#b22234;fill-opacity:1;stroke:#000000;stroke-width:0;stroke-miterlimit:4;stroke-dasharray:none;stroke-dashoffset:0;stroke-opacity:1"
           d="m 183.54816,350.97779 0,-1.17188 2.95759,0 2.95759,0 0,1.17188 0,1.17187 -2.95759,0 -2.95759,0 0,-1.17187 z"
           id="path4484-7-2"
           inkscape:connector-curvature="0" />
        <path
           style="opacity:1;fill:#b22234;fill-opacity:1;stroke:#000000;stroke-width:0;stroke-miterlimit:4;stroke-dasharray:none;stroke-dashoffset:0;stroke-opacity:1"
           d="m 183.54816,355.65413 0,-1.18304 2.95759,0 2.95759,0 0,1.18304 0,1.18303 -2.95759,0 -2.95759,0 0,-1.18303 z"
           id="path4486-4-6"
           inkscape:connector-curvature="0" />
        <path
           style="opacity:1;fill:#b22234;fill-opacity:1;stroke:#000000;stroke-width:0;stroke-miterlimit:4;stroke-dasharray:none;stroke-dashoffset:0;stroke-opacity:1"
           d="m 183.54816,359.93984 0,-0.78125 2.95759,0 2.95759,0 0,0.78125 0,0.78125 -2.95759,0 -2.95759,0 0,-0.78125 z"
           id="path4488-2-9"
           inkscape:connector-curvature="0" />
        <path
           style="opacity:1;fill:#b22234;fill-opacity:1;stroke:#000000;stroke-width:0;stroke-miterlimit:4;stroke-dasharray:none;stroke-dashoffset:0;stroke-opacity:1"
           d="m 229.72004,361.35336 c -2.86129,-0.11546 -5.28373,-0.80178 -7.21541,-2.04423 -0.11356,-0.073 -0.20647,-0.1368 -0.20647,-0.14167 0,-0.005 3.75419,-0.009 8.34263,-0.008 l 8.34264,7.5e-4 -0.0541,0.045 c -0.11788,0.0981 -0.65822,0.41858 -1.02267,0.6065 -0.7205,0.3715 -1.31108,0.61035 -2.13544,0.86363 -1.32145,0.40601 -2.49866,0.5971 -4.13153,0.67062 -0.44039,0.0198 -1.51037,0.024 -1.91964,0.007 z"
           id="path4490-9-4"
           inkscape:connector-curvature="0" />
        <path
           style="opacity:1;fill:#b22234;fill-opacity:1;stroke:#000000;stroke-width:0;stroke-miterlimit:4;stroke-dasharray:none;stroke-dashoffset:0;stroke-opacity:1"
           d="m 219.74721,356.57491 c -0.29222,-0.46234 -0.54083,-0.93217 -0.74001,-1.39851 -0.0932,-0.2182 -0.25815,-0.66668 -0.25815,-0.70189 0,-0.008 1.51433,-0.012 3.36518,-0.009 l 3.36517,0.006 0.14487,0.16948 c 0.43954,0.51421 1.16471,1.00099 1.95291,1.31091 1.09479,0.43048 2.47604,0.61496 3.95089,0.52768 0.70145,-0.0415 1.27603,-0.11109 1.66295,-0.20139 0.58523,-0.13659 1.38076,-0.47462 1.84457,-0.78378 0.27812,-0.18539 0.76643,-0.65413 0.92056,-0.88368 l 0.0937,-0.13951 3.10434,0 3.10433,0 -0.0153,0.0837 c -0.0237,0.1298 -0.22853,0.74495 -0.3511,1.05468 -0.11638,0.29409 -0.3183,0.69492 -0.51443,1.02118 l -0.11743,0.19534 -10.67361,0.006 -10.67361,0.006 -0.16578,-0.2623 z"
           id="path4492-0-6"
           inkscape:connector-curvature="0" />
        <path
           style="opacity:1;fill:#b22234;fill-opacity:1;stroke:#000000;stroke-width:0;stroke-miterlimit:4;stroke-dasharray:none;stroke-dashoffset:0;stroke-opacity:1"
           d="m 218.31901,351.76462 c -0.007,-0.21178 -0.007,-0.43276 -5.7e-4,-0.49107 l 0.0123,-0.10603 3.0518,0 3.0518,0 0.0142,0.35156 c 0.008,0.19336 0.0207,0.41434 0.0288,0.49107 l 0.0146,0.13951 -3.07999,0 -3.07998,0 -0.0129,-0.38504 z"
           id="path4494-6-5"
           inkscape:connector-curvature="0" />
        <path
           style="opacity:1;fill:#b22234;fill-opacity:1;stroke:#000000;stroke-width:0;stroke-miterlimit:4;stroke-dasharray:none;stroke-dashoffset:0;stroke-opacity:1"
           d="m 236.29289,351.99899 c -0.20288,-0.62268 -0.73563,-1.21987 -1.51527,-1.69854 -0.19299,-0.11848 -0.63965,-0.34604 -0.91696,-0.46715 -0.0406,-0.0177 1.09426,-0.0248 4.16535,-0.0259 l 4.22115,-0.002 0.0578,0.21764 c 0.14613,0.55039 0.25917,1.41654 0.26073,1.99776 l 3.5e-4,0.12835 -3.11202,0 -3.11202,0 -0.0491,-0.15067 z"
           id="path4496-1-0"
           inkscape:connector-curvature="0" />
        <path
           style="opacity:1;fill:#b22234;fill-opacity:1;stroke:#000000;stroke-width:0;stroke-miterlimit:4;stroke-dasharray:none;stroke-dashoffset:0;stroke-opacity:1"
           d="m 225.30039,347.37521 c -1.36473,-0.50425 -2.1672,-0.90831 -2.99107,-1.50605 -0.23778,-0.17253 -0.77292,-0.60308 -0.84681,-0.68132 l -0.0656,-0.0694 8.32261,0 8.3226,0 0.23626,0.12612 c 0.64301,0.34326 1.08796,0.6453 1.59787,1.08466 0.27517,0.23711 0.75313,0.72329 0.96694,0.98358 l 0.14106,0.17171 -7.69686,-10e-4 -7.69686,-0.001 -0.29018,-0.10722 z"
           id="path4498-8-4"
           inkscape:connector-curvature="0" />
        <path
           style="opacity:1;fill:#b22234;fill-opacity:1;stroke:#000000;stroke-width:0;stroke-miterlimit:4;stroke-dasharray:none;stroke-dashoffset:0;stroke-opacity:1"
           d="m 219.75654,342.75792 c -0.0833,-0.15601 -0.28104,-0.87654 -0.34756,-1.26674 -0.0483,-0.283 -0.10142,-0.77747 -0.10168,-0.94547 -1.8e-4,-0.12027 0.005,-0.13983 0.0351,-0.12835 0.0194,0.007 1.42017,0.0136 3.11279,0.0136 l 3.07749,0 0.0421,0.0953 c 0.079,0.17868 0.29208,0.47494 0.4554,0.63328 0.21141,0.20497 0.47536,0.37537 0.88319,0.57016 0.74203,0.35441 1.33913,0.56292 2.48297,0.86707 0.22712,0.0604 0.47823,0.1294 0.55803,0.15334 0.14487,0.0435 0.13739,0.0435 -5.01595,0.0453 -4.89346,0.002 -5.16213,-3.2e-4 -5.18192,-0.0374 z"
           id="path4500-3-5"
           inkscape:connector-curvature="0" />
        <path
           style="opacity:1;fill:#b22234;fill-opacity:1;stroke:#000000;stroke-width:0;stroke-miterlimit:4;stroke-dasharray:none;stroke-dashoffset:0;stroke-opacity:1"
           d="m 219.46334,338.09918 c 0,-0.0206 0.0256,-0.13968 0.0569,-0.26467 0.17465,-0.69767 0.37831,-1.19457 0.73812,-1.80092 l 0.16557,-0.27902 9.95418,0.006 9.95419,0.006 0.14558,0.24525 c 0.2728,0.45958 0.49934,0.95068 0.65907,1.42876 0.0763,0.22828 0.17893,0.59629 0.17902,0.64174 5e-5,0.0222 -0.67052,0.0279 -3.27859,0.0279 l -3.27865,0 -0.14186,-0.19531 c -0.17479,-0.24065 -0.53256,-0.60501 -0.7562,-0.77014 -0.36516,-0.26961 -1.22767,-0.62992 -1.88616,-0.78793 -0.50657,-0.12156 -1.73673,-0.22415 -2.4442,-0.20384 -0.42851,0.0123 -1.0146,0.0822 -1.36152,0.16225 -0.48462,0.11191 -1.16404,0.41048 -1.49562,0.65727 -0.32524,0.24206 -0.63817,0.56648 -0.83795,0.86871 l -0.17767,0.2688 -3.06179,9e-5 c -1.68399,6e-5 -3.07768,0.006 -3.0971,0.0137 -0.0235,0.009 -0.0353,10e-4 -0.0353,-0.0239 z"
           id="path4502-4-3"
           inkscape:connector-curvature="0" />
        <path
           style="opacity:1;fill:#b22234;fill-opacity:1;stroke:#000000;stroke-width:0;stroke-miterlimit:4;stroke-dasharray:none;stroke-dashoffset:0;stroke-opacity:1"
           d="m 222.66491,333.40217 c 0.0208,-0.0336 0.63521,-0.43462 0.89441,-0.58372 0.55336,-0.31832 1.3821,-0.6823 2.02888,-0.89109 0.84818,-0.2738 2.07828,-0.52128 3.17201,-0.63818 0.45659,-0.0488 1.7177,-0.0678 2.27028,-0.0343 1.66684,0.10125 3.41826,0.43573 4.64303,0.88668 0.78762,0.29 1.55726,0.6718 2.2329,1.10768 0.13198,0.0851 0.23996,0.15883 0.23996,0.16376 0,0.005 -3.48609,0.009 -7.74686,0.009 -4.50408,0 -7.74173,-0.008 -7.73461,-0.0198 z"
           id="path4504-3-7"
           inkscape:connector-curvature="0" />
        <path
           style="opacity:1;fill:#b22234;fill-opacity:1;stroke:#000000;stroke-width:0;stroke-miterlimit:4;stroke-dasharray:none;stroke-dashoffset:0;stroke-opacity:1"
           d="m 235.46557,340.45416 c 0,-0.0448 7.9e-4,-0.0457 0.0307,-0.0374 0.0169,0.005 1.39677,0.0116 3.06641,0.0152 l 3.03571,0.007 0.004,0.0307 0.004,0.0307 -3.06994,0 -3.06994,0 0,-0.046 z"
           id="path4506-7-8"
           inkscape:connector-curvature="0" />
        <path
           inkscape:connector-curvature="0"
           id="path4592-3-7"
           d="m 154.37566,339.69375 0,-7.79074 8.08594,0.007 c 8.89982,0.008 8.21585,-0.003 9.06808,0.14021 1.26894,0.21315 2.55406,0.71922 3.52503,1.38814 0.65949,0.45434 1.29866,1.08767 1.79701,1.78057 0.47815,0.66482 0.90344,1.52868 1.13914,2.31386 0.25931,0.8638 0.35188,1.59833 0.32869,2.60801 -0.0486,2.11377 -0.65781,3.82415 -1.83022,5.13801 -0.57409,0.64335 -1.581,1.32899 -2.52662,1.72047 -0.15089,0.0625 -0.17857,0.082 -0.17857,0.12588 0,0.0463 0.0291,0.0621 0.26786,0.14553 0.14732,0.0515 0.3231,0.11981 0.39062,0.15186 l 0.12277,0.0583 -10.09486,0.002 -10.09487,0.002 0,-7.79073 z m 14.15179,5.21639 c 1.00856,-0.12343 1.71459,-0.3854 2.2915,-0.85024 0.50824,-0.40952 0.87233,-1.03812 1.0428,-1.80039 0.10275,-0.45942 0.13348,-0.78374 0.13414,-1.41565 4.6e-4,-0.43305 -0.009,-0.65118 -0.0383,-0.85938 -0.1275,-0.91429 -0.4188,-1.56444 -0.93015,-2.07596 -0.58671,-0.58689 -1.35367,-0.90395 -2.54465,-1.05195 -0.15279,-0.019 -1.27088,-0.0288 -4.00111,-0.035 l -3.78907,-0.009 0,4.0757 0,4.07569 3.76674,-0.009 c 3.33065,-0.008 3.80163,-0.0129 4.06809,-0.0455 z"
           style="opacity:1;fill:#3c3b6e;fill-opacity:1;stroke:#000000;stroke-width:0;stroke-miterlimit:4;stroke-dasharray:none;stroke-dashoffset:0;stroke-opacity:1" />
      </g>
      <g
         style="fill:#ffffff"
         transform="translate(100.96009,-108.22082)"
         id="g4508-7-8">
        <path
           transform="translate(-0.77589515,0)"
           inkscape:connector-curvature="0"
           id="path4594-5-9"
           d="m 155.2036,333.8262 c 0,-0.005 0.0432,-0.14064 0.096,-0.3009 0.0528,-0.16027 0.0925,-0.30058 0.0882,-0.3118 -0.004,-0.0112 -0.11929,-0.10133 -0.25551,-0.20022 l -0.24767,-0.17981 0.32129,-0.008 0.32129,-0.008 0.10348,-0.31567 0.10347,-0.31567 0.1022,0.31567 0.10219,0.31567 0.32269,0.008 0.32268,0.008 -0.25609,0.18638 c -0.14084,0.1025 -0.25593,0.19128 -0.25574,0.19729 1.9e-4,0.006 0.0427,0.14183 0.0945,0.30183 0.0518,0.16 0.0911,0.29391 0.0875,0.29758 -0.004,0.004 -0.12158,-0.077 -0.26202,-0.17919 -0.18506,-0.13471 -0.26132,-0.18187 -0.27705,-0.17131 -0.0119,0.008 -0.13187,0.0944 -0.26651,0.19211 -0.13464,0.0976 -0.2448,0.17327 -0.2448,0.16804 z"
           style="opacity:1;fill:#ffffff;fill-opacity:1;stroke:#000000;stroke-width:0;stroke-miterlimit:4;stroke-dasharray:none;stroke-dashoffset:0;stroke-opacity:1" />
        <path
           transform="translate(-0.77589515,0)"
           inkscape:connector-curvature="0"
           id="path4596-0-6"
           d="m 157.1292,335.45174 c 0,-0.009 0.16831,-0.54185 0.18402,-0.58295 0.003,-0.009 -0.11045,-0.10144 -0.25318,-0.20518 l -0.2595,-0.18864 0.32164,-0.004 0.32163,-0.004 0.0992,-0.30716 c 0.0546,-0.16894 0.10307,-0.3073 0.10782,-0.30746 0.005,-1.7e-4 0.0528,0.13806 0.10683,0.30716 l 0.0982,0.30746 0.32359,0.004 0.32359,0.004 -0.26116,0.18878 c -0.14364,0.10383 -0.25835,0.19617 -0.25491,0.20519 0.0463,0.12143 0.18723,0.57874 0.18048,0.58549 -0.005,0.005 -0.11718,-0.0701 -0.24936,-0.16683 -0.13217,-0.0967 -0.24832,-0.17876 -0.25811,-0.18229 -0.01,-0.004 -0.12961,0.0752 -0.26629,0.17487 -0.24364,0.17771 -0.26446,0.19122 -0.26446,0.17156 z"
           style="opacity:1;fill:#ffffff;fill-opacity:1;stroke:#000000;stroke-width:0;stroke-miterlimit:4;stroke-dasharray:none;stroke-dashoffset:0;stroke-opacity:1" />
        <path
           transform="translate(-0.77589515,0)"
           inkscape:connector-curvature="0"
           id="path4598-1-3"
           d="m 155.21113,337.08704 c 0.007,-0.0216 0.0503,-0.15737 0.097,-0.30163 0.0467,-0.14426 0.0849,-0.26992 0.0849,-0.27925 0,-0.009 -0.11523,-0.10082 -0.25606,-0.20332 l -0.25607,-0.18637 0.3244,-0.004 0.32441,-0.004 0.10172,-0.31725 0.10173,-0.31725 0.10304,0.31362 0.10304,0.31362 0.32482,0.008 0.32483,0.008 -0.25858,0.1872 c -0.14222,0.10296 -0.25858,0.19092 -0.25858,0.19546 0,0.005 0.0431,0.14293 0.0959,0.30752 0.0527,0.16459 0.0936,0.3012 0.0907,0.30358 -0.003,0.002 -0.12076,-0.0802 -0.26213,-0.18358 -0.15613,-0.11414 -0.26456,-0.18339 -0.27621,-0.1764 -0.0217,0.013 -0.46502,0.33169 -0.49891,0.35863 -0.0181,0.0144 -0.0199,0.0105 -0.01,-0.0218 z"
           style="opacity:1;fill:#ffffff;fill-opacity:1;stroke:#000000;stroke-width:0;stroke-miterlimit:4;stroke-dasharray:none;stroke-dashoffset:0;stroke-opacity:1" />
        <path
           transform="translate(-0.77589515,0)"
           inkscape:connector-curvature="0"
           id="path4600-9-6"
           d="m 157.21802,338.44929 c 0.0553,-0.17101 0.0953,-0.31553 0.0888,-0.32114 -0.007,-0.006 -0.12411,-0.0912 -0.26133,-0.19019 l -0.24949,-0.17999 0.32515,-0.008 0.32516,-0.008 0.0934,-0.28292 c 0.0514,-0.15562 0.098,-0.29412 0.10362,-0.30779 0.006,-0.0149 0.0508,0.10002 0.11148,0.28656 l 0.10124,0.31141 0.32485,0.004 0.32484,0.004 -0.24902,0.18151 c -0.13696,0.0998 -0.2545,0.18524 -0.2612,0.18979 -0.007,0.005 0.0309,0.14159 0.0836,0.30452 0.0527,0.16292 0.0918,0.30021 0.0869,0.30508 -0.005,0.005 -0.12287,-0.0741 -0.26221,-0.17557 l -0.25335,-0.18442 -0.26099,0.19068 c -0.14354,0.10487 -0.26346,0.19067 -0.26649,0.19067 -0.003,0 0.0397,-0.13992 0.0951,-0.31094 z"
           style="opacity:1;fill:#ffffff;fill-opacity:1;stroke:#000000;stroke-width:0;stroke-miterlimit:4;stroke-dasharray:none;stroke-dashoffset:0;stroke-opacity:1" />
        <path
           transform="translate(-0.77589515,0)"
           inkscape:connector-curvature="0"
           id="path4602-5-7"
           d="m 155.20677,340.38459 c 0.0236,-0.0617 0.18623,-0.58117 0.18623,-0.59487 0,-0.009 -0.11635,-0.1001 -0.25856,-0.20305 l -0.25855,-0.1872 0.32691,-0.004 0.32692,-0.004 0.10131,-0.31519 0.10132,-0.31519 0.10321,0.31155 0.10322,0.31155 0.32722,0.008 0.32723,0.008 -0.26077,0.18848 c -0.14342,0.10366 -0.26076,0.19325 -0.26076,0.19909 0,0.006 0.0431,0.14368 0.0958,0.30632 0.0527,0.16264 0.0935,0.29791 0.0908,0.30059 -0.003,0.003 -0.12125,-0.0796 -0.26332,-0.18285 l -0.2583,-0.18774 -0.0495,0.0346 c -0.0272,0.019 -0.13826,0.0991 -0.24677,0.17804 -0.24057,0.17495 -0.24464,0.17754 -0.23358,0.14863 z"
           style="opacity:1;fill:#ffffff;fill-opacity:1;stroke:#000000;stroke-width:0;stroke-miterlimit:4;stroke-dasharray:none;stroke-dashoffset:0;stroke-opacity:1" />
        <path
           transform="translate(-0.77589515,0)"
           inkscape:connector-curvature="0"
           id="path4604-0-4"
           d="m 157.21861,341.73293 c 0.0559,-0.17066 0.0952,-0.31449 0.0874,-0.31962 -0.008,-0.005 -0.12679,-0.091 -0.26437,-0.19083 l -0.25015,-0.18152 0.32872,-0.008 0.32872,-0.008 0.0894,-0.27621 c 0.0492,-0.15192 0.095,-0.29042 0.10175,-0.30778 0.009,-0.0235 0.0383,0.0478 0.11434,0.27984 l 0.10205,0.31141 0.3265,0.004 0.32651,0.004 -0.0864,0.0627 c -0.0475,0.0345 -0.16567,0.12093 -0.26251,0.19216 l -0.17608,0.1295 0.0994,0.30898 c 0.0547,0.16994 0.0965,0.30897 0.0928,0.30897 -0.006,0 -0.17939,-0.12477 -0.44271,-0.31811 l -0.0817,-0.06 -0.26058,0.18906 c -0.14332,0.10399 -0.26377,0.18906 -0.26767,0.18906 -0.004,0 0.0386,-0.13963 0.0945,-0.31029 z"
           style="opacity:1;fill:#ffffff;fill-opacity:1;stroke:#000000;stroke-width:0;stroke-miterlimit:4;stroke-dasharray:none;stroke-dashoffset:0;stroke-opacity:1" />
        <path
           transform="translate(-0.77589515,0)"
           inkscape:connector-curvature="0"
           id="path4606-4-0"
           d="m 155.20796,343.66454 c 0.0256,-0.0668 0.18504,-0.57404 0.18504,-0.58881 0,-0.009 -0.11733,-0.10112 -0.26074,-0.20479 l -0.26075,-0.18848 0.32822,-0.004 0.32822,-0.004 0.10396,-0.31142 0.10396,-0.31142 0.10073,0.31142 0.10073,0.31142 0.32926,0.004 0.32926,0.004 -0.24902,0.18151 c -0.13696,0.0998 -0.25635,0.18638 -0.26531,0.19233 -0.0104,0.007 0.0196,0.12013 0.0829,0.31308 0.0546,0.16624 0.0965,0.30502 0.0931,0.3084 -0.003,0.003 -0.12236,-0.0786 -0.26441,-0.18222 l -0.25828,-0.18836 -0.0802,0.0581 c -0.0441,0.032 -0.14408,0.10497 -0.22221,0.16222 -0.0781,0.0573 -0.16302,0.1178 -0.18865,0.13455 -0.0429,0.028 -0.0457,0.0282 -0.0358,0.002 z"
           style="opacity:1;fill:#ffffff;fill-opacity:1;stroke:#000000;stroke-width:0;stroke-miterlimit:4;stroke-dasharray:none;stroke-dashoffset:0;stroke-opacity:1" />
        <path
           transform="translate(-0.77589515,0)"
           inkscape:connector-curvature="0"
           id="path4608-2-4"
           d="m 155.20812,346.94714 c 0.0292,-0.0761 0.18481,-0.56849 0.18451,-0.58386 -2e-4,-0.0105 -0.11809,-0.10425 -0.26199,-0.20842 l -0.26162,-0.1894 0.33081,-0.004 0.3308,-0.004 0.10232,-0.31142 0.10233,-0.31142 0.10028,0.31142 0.10028,0.31143 0.33188,0.004 0.33189,0.004 -0.26001,0.18817 c -0.14301,0.10349 -0.26331,0.19084 -0.26734,0.1941 -0.004,0.003 0.0375,0.14104 0.0923,0.30617 0.0548,0.16513 0.0965,0.30338 0.0926,0.30722 -0.004,0.004 -0.11961,-0.0748 -0.25727,-0.17473 -0.13767,-0.0999 -0.25774,-0.18156 -0.26682,-0.18138 -0.009,1.7e-4 -0.12835,0.0819 -0.26503,0.18151 -0.13669,0.0997 -0.25286,0.1812 -0.25818,0.1812 -0.005,0 -0.006,-0.009 -0.002,-0.0206 z"
           style="opacity:1;fill:#ffffff;fill-opacity:1;stroke:#000000;stroke-width:0;stroke-miterlimit:4;stroke-dasharray:none;stroke-dashoffset:0;stroke-opacity:1" />
        <path
           transform="translate(-0.77589515,0)"
           inkscape:connector-curvature="0"
           id="path4610-9-0"
           d="m 157.92627,345.15091 c -0.13889,-0.10251 -0.26145,-0.18669 -0.27235,-0.18705 -0.0109,-3.7e-4 -0.13164,0.0807 -0.26832,0.18025 -0.13668,0.0995 -0.25041,0.1723 -0.25274,0.16178 -0.002,-0.0105 0.0385,-0.14677 0.0908,-0.30278 0.0902,-0.2692 0.0936,-0.28499 0.0674,-0.30987 -0.0152,-0.0144 -0.13667,-0.10504 -0.26992,-0.20137 l -0.24228,-0.17517 0.33608,-0.004 0.33609,-0.004 0.0944,-0.29595 c 0.052,-0.16277 0.0987,-0.29594 0.10381,-0.29594 0.005,0 0.0541,0.13481 0.10876,0.29958 l 0.0994,0.29958 0.32853,0.004 0.32852,0.004 -0.25882,0.18739 c -0.14235,0.10306 -0.26135,0.19185 -0.26445,0.19729 -0.003,0.005 0.0392,0.14823 0.0941,0.31728 0.0548,0.16905 0.0983,0.30827 0.0967,0.30938 -0.002,0.001 -0.11668,-0.0819 -0.25558,-0.18439 z"
           style="opacity:1;fill:#ffffff;fill-opacity:1;stroke:#000000;stroke-width:0;stroke-miterlimit:4;stroke-dasharray:none;stroke-dashoffset:0;stroke-opacity:1" />
        <path
           transform="translate(-0.77589515,0)"
           inkscape:connector-curvature="0"
           id="path4612-8-7"
           d="m 159.04308,346.94799 c 0.0651,-0.17275 0.18805,-0.6003 0.17503,-0.60877 -0.009,-0.006 -0.12906,-0.0924 -0.26663,-0.19225 l -0.25012,-0.18151 0.33189,-0.004 0.33189,-0.004 0.10119,-0.31375 0.10119,-0.31375 0.10157,0.31375 0.10156,0.31375 0.33174,0.004 0.33173,0.004 -0.26301,0.1894 c -0.14466,0.10417 -0.26309,0.19651 -0.26319,0.20519 -9e-5,0.009 0.0421,0.14681 0.0937,0.30696 0.0516,0.16015 0.0913,0.29375 0.0882,0.29689 -0.003,0.003 -0.11811,-0.0764 -0.25549,-0.17675 -0.13738,-0.10035 -0.25733,-0.18246 -0.26656,-0.18246 -0.009,0 -0.12859,0.0817 -0.26526,0.18152 -0.13667,0.0998 -0.25262,0.18151 -0.25768,0.18151 -0.005,0 -0.006,-0.009 -0.002,-0.0197 z"
           style="opacity:1;fill:#ffffff;fill-opacity:1;stroke:#000000;stroke-width:0;stroke-miterlimit:4;stroke-dasharray:none;stroke-dashoffset:0;stroke-opacity:1" />
        <path
           transform="translate(-0.77589515,0)"
           inkscape:connector-curvature="0"
           id="path4614-8-6"
           d="m 159.04714,343.65119 c 0.006,-0.0206 0.0497,-0.15553 0.0964,-0.29979 0.0467,-0.14426 0.0849,-0.26865 0.0849,-0.27642 0,-0.008 -0.11778,-0.0993 -0.26173,-0.20332 l -0.26173,-0.1892 0.33007,-0.004 0.33007,-0.004 0.10149,-0.31653 0.1015,-0.31654 0.10102,0.31654 0.10102,0.31653 0.33023,0.004 0.33023,0.004 -0.26174,0.1892 c -0.14395,0.10406 -0.26173,0.19539 -0.26173,0.20296 0,0.008 0.0427,0.14552 0.0948,0.30656 0.0522,0.16103 0.0925,0.29509 0.0897,0.29792 -0.003,0.003 -0.12159,-0.0794 -0.26392,-0.1827 l -0.25878,-0.18784 -0.0479,0.0337 c -0.0264,0.0186 -0.13671,0.0983 -0.24523,0.17722 -0.25197,0.18323 -0.24284,0.17797 -0.22863,0.13166 z"
           style="opacity:1;fill:#ffffff;fill-opacity:1;stroke:#000000;stroke-width:0;stroke-miterlimit:4;stroke-dasharray:none;stroke-dashoffset:0;stroke-opacity:1" />
        <path
           transform="translate(-0.77589515,0)"
           inkscape:connector-curvature="0"
           id="path4616-7-6"
           d="m 159.0488,340.35989 c 0.006,-0.0247 0.0491,-0.15837 0.0954,-0.29697 0.0463,-0.1386 0.0842,-0.25985 0.0842,-0.26944 0,-0.01 -0.11656,-0.10216 -0.25903,-0.20572 l -0.25902,-0.18829 0.32706,-0.004 0.32707,-0.004 0.10138,-0.31849 0.10138,-0.3185 0.10183,0.3185 0.10183,0.31849 0.32713,0.004 0.32713,0.004 -0.25903,0.18829 c -0.14247,0.10356 -0.25903,0.19542 -0.25903,0.20415 0,0.009 0.0431,0.14665 0.0958,0.30652 0.0527,0.15986 0.0934,0.29302 0.0905,0.2959 -0.003,0.003 -0.12165,-0.0793 -0.26392,-0.18251 -0.14227,-0.10327 -0.26646,-0.18313 -0.27598,-0.17747 -0.01,0.006 -0.10608,0.0748 -0.21459,0.15376 -0.10851,0.0789 -0.22069,0.15996 -0.24929,0.18011 l -0.052,0.0367 0.0112,-0.045 z"
           style="opacity:1;fill:#ffffff;fill-opacity:1;stroke:#000000;stroke-width:0;stroke-miterlimit:4;stroke-dasharray:none;stroke-dashoffset:0;stroke-opacity:1" />
        <path
           transform="translate(-0.77589515,0)"
           inkscape:connector-curvature="0"
           id="path4618-6-1"
           d="m 159.03902,337.10986 c 0,-0.007 0.0426,-0.14208 0.0947,-0.30018 0.0521,-0.1581 0.0947,-0.29474 0.0947,-0.30365 0,-0.009 -0.11797,-0.10182 -0.26217,-0.20649 l -0.26216,-0.19031 0.32924,-0.004 0.32925,-0.004 0.10277,-0.31402 0.10277,-0.31402 0.10242,0.31402 0.10242,0.31402 0.32925,0.004 0.32925,0.004 -0.26217,0.19031 c -0.1442,0.10467 -0.26217,0.19759 -0.26217,0.20649 0,0.009 0.0432,0.14742 0.0961,0.30781 0.0528,0.16039 0.0937,0.29388 0.0908,0.29663 -0.003,0.003 -0.11186,-0.0729 -0.24207,-0.16818 -0.13022,-0.0953 -0.24858,-0.17967 -0.26303,-0.1876 -0.0204,-0.0112 -0.0806,0.0249 -0.26832,0.16083 -0.13313,0.0964 -0.25093,0.18242 -0.26178,0.19117 -0.0109,0.009 -0.0197,0.0102 -0.0197,0.003 z"
           style="opacity:1;fill:#ffffff;fill-opacity:1;stroke:#000000;stroke-width:0;stroke-miterlimit:4;stroke-dasharray:none;stroke-dashoffset:0;stroke-opacity:1" />
        <path
           transform="translate(-0.77589515,0)"
           inkscape:connector-curvature="0"
           id="path4620-5-8"
           d="m 159.03902,333.8257 c 0,-0.005 0.0428,-0.14133 0.0951,-0.30284 0.0523,-0.1615 0.0921,-0.30148 0.0884,-0.31107 -0.004,-0.01 -0.11891,-0.0986 -0.25606,-0.19787 l -0.24938,-0.18045 0.32213,-0.008 0.32212,-0.008 0.10338,-0.31304 0.10337,-0.31305 0.1029,0.31305 0.10289,0.31304 0.32229,0.008 0.32228,0.008 -0.24937,0.18045 c -0.13716,0.0992 -0.25239,0.18829 -0.25606,0.19787 -0.004,0.01 0.0361,0.14957 0.0884,0.31107 0.0523,0.16151 0.0951,0.29771 0.0951,0.30268 0,0.005 -0.11697,-0.0759 -0.25993,-0.17979 -0.14296,-0.10385 -0.26373,-0.18882 -0.26838,-0.18882 -0.005,0 -0.12562,0.085 -0.26882,0.18898 -0.1432,0.10393 -0.26037,0.18484 -0.26037,0.17979 z"
           style="opacity:1;fill:#ffffff;fill-opacity:1;stroke:#000000;stroke-width:0;stroke-miterlimit:4;stroke-dasharray:none;stroke-dashoffset:0;stroke-opacity:1" />
        <path
           transform="translate(-0.77589515,0)"
           inkscape:connector-curvature="0"
           id="path4622-6-5"
           d="m 160.96462,335.44422 c 0,-0.0134 0.15564,-0.4999 0.18405,-0.57528 0.003,-0.009 -0.11134,-0.10136 -0.25498,-0.20519 l -0.26115,-0.18878 0.32342,-0.004 0.32342,-0.004 0.0981,-0.30746 c 0.054,-0.1691 0.10211,-0.30724 0.107,-0.30697 0.005,2.7e-4 0.0536,0.13863 0.10834,0.30747 l 0.0995,0.30697 0.32135,0.004 0.32134,0.004 -0.2595,0.18864 c -0.14273,0.10374 -0.25666,0.19608 -0.25318,0.20518 0.0363,0.0949 0.18437,0.58179 0.1787,0.58746 -0.004,0.004 -0.12002,-0.0746 -0.25757,-0.17493 -0.13754,-0.10033 -0.25808,-0.17953 -0.26786,-0.17601 -0.01,0.004 -0.12531,0.0851 -0.25673,0.18128 -0.13142,0.0962 -0.24239,0.17486 -0.24659,0.17486 -0.004,0 -0.008,-0.008 -0.008,-0.0172 z"
           style="opacity:1;fill:#ffffff;fill-opacity:1;stroke:#000000;stroke-width:0;stroke-miterlimit:4;stroke-dasharray:none;stroke-dashoffset:0;stroke-opacity:1" />
        <path
           transform="translate(-0.77589515,0)"
           inkscape:connector-curvature="0"
           id="path4624-4-0"
           d="m 163.67941,333.65144 c -0.13456,-0.0988 -0.25321,-0.1837 -0.26368,-0.18854 -0.0105,-0.005 -0.13343,0.0742 -0.27326,0.17575 -0.13983,0.10152 -0.25724,0.18157 -0.26091,0.1779 -0.004,-0.004 0.0357,-0.13758 0.0875,-0.29758 0.0518,-0.16 0.0943,-0.29582 0.0945,-0.30183 1.9e-4,-0.006 -0.11489,-0.0948 -0.25574,-0.19729 l -0.25609,-0.18638 0.32269,-0.008 0.32268,-0.008 0.1022,-0.31567 0.10219,-0.31567 0.10348,0.31567 0.10347,0.31567 0.32129,0.008 0.32129,0.008 -0.24767,0.17981 c -0.13622,0.0989 -0.2512,0.18899 -0.25551,0.20022 -0.004,0.0112 0.0358,0.15298 0.0892,0.315 0.0534,0.16203 0.0948,0.29642 0.0921,0.29864 -0.003,0.002 -0.1151,-0.0768 -0.24965,-0.1757 z"
           style="opacity:1;fill:#ffffff;fill-opacity:1;stroke:#000000;stroke-width:0;stroke-miterlimit:4;stroke-dasharray:none;stroke-dashoffset:0;stroke-opacity:1" />
        <path
           transform="translate(-0.77589515,0)"
           inkscape:connector-curvature="0"
           id="path4626-6-5"
           d="m 164.78718,335.46064 c 0.005,-0.0126 0.0419,-0.12585 0.0825,-0.25173 0.0406,-0.12587 0.0834,-0.25795 0.095,-0.2935 l 0.0212,-0.0646 -0.25995,-0.18791 -0.25994,-0.1879 0.32221,-0.004 0.3222,-0.004 0.10053,-0.30746 c 0.0553,-0.16911 0.10558,-0.30214 0.11176,-0.29563 0.006,0.007 0.0533,0.14322 0.10477,0.30382 l 0.0935,0.292 0.32426,0.008 0.32426,0.008 -0.25858,0.1872 c -0.14222,0.10296 -0.25858,0.1907 -0.25858,0.19498 0,0.004 0.0432,0.13902 0.0961,0.29941 0.0528,0.16039 0.0924,0.29534 0.0878,0.29989 -0.005,0.005 -0.1222,-0.0747 -0.26145,-0.17602 -0.16148,-0.11754 -0.26046,-0.17995 -0.27327,-0.17229 -0.011,0.007 -0.10886,0.0766 -0.21737,0.15548 -0.297,0.21597 -0.30661,0.22235 -0.29697,0.19702 z"
           style="opacity:1;fill:#ffffff;fill-opacity:1;stroke:#000000;stroke-width:0;stroke-miterlimit:4;stroke-dasharray:none;stroke-dashoffset:0;stroke-opacity:1" />
        <path
           transform="translate(-0.77589515,0)"
           inkscape:connector-curvature="0"
           id="path4628-3-9"
           d="m 167.55429,333.6825 c -0.11285,-0.0824 -0.23155,-0.16756 -0.26378,-0.18935 l -0.0586,-0.0396 -0.25477,0.1842 c -0.14013,0.10132 -0.25833,0.18066 -0.26267,0.17631 -0.004,-0.004 0.0363,-0.14044 0.0903,-0.30243 0.0824,-0.24718 0.0947,-0.29779 0.0766,-0.31475 -0.0119,-0.0111 -0.13058,-0.0991 -0.26383,-0.19542 l -0.24227,-0.17521 0.32793,-0.004 0.32794,-0.004 0.10139,-0.31523 0.10139,-0.31524 0.10397,0.31887 0.10397,0.31887 0.32179,0.004 0.32179,0.004 -0.25299,0.18152 c -0.13914,0.0998 -0.25322,0.19216 -0.2535,0.20518 -2.8e-4,0.013 0.0417,0.1548 0.0933,0.31506 0.0516,0.16026 0.0923,0.29265 0.0905,0.2942 -0.002,0.002 -0.0956,-0.0646 -0.20843,-0.14693 z"
           style="opacity:1;fill:#ffffff;fill-opacity:1;stroke:#000000;stroke-width:0;stroke-miterlimit:4;stroke-dasharray:none;stroke-dashoffset:0;stroke-opacity:1" />
        <path
           transform="translate(-0.77589515,0)"
           inkscape:connector-curvature="0"
           id="path4634-8-6"
           d="m 168.62784,335.44449 c 0.007,-0.0211 0.0506,-0.15798 0.0977,-0.30429 0.0471,-0.1463 0.0822,-0.27515 0.0779,-0.28633 -0.004,-0.0112 -0.11971,-0.10101 -0.25648,-0.19961 l -0.24868,-0.17929 0.32374,-0.004 0.32375,-0.004 0.10273,-0.31913 0.10273,-0.31913 0.10165,0.31549 0.10166,0.3155 0.32863,0.004 0.32864,0.004 -0.24228,0.17521 c -0.13324,0.0964 -0.25171,0.18404 -0.26324,0.19484 -0.0173,0.0162 -0.004,0.0713 0.075,0.3159 0.0528,0.16296 0.0959,0.3023 0.0959,0.30964 0,0.007 -0.11741,-0.0724 -0.26092,-0.17726 l -0.26092,-0.19063 -0.0429,0.028 c -0.0236,0.0154 -0.10685,0.0749 -0.18497,0.13214 -0.3318,0.24314 -0.31297,0.23127 -0.29963,0.18887 z"
           style="opacity:1;fill:#ffffff;fill-opacity:1;stroke:#000000;stroke-width:0;stroke-miterlimit:4;stroke-dasharray:none;stroke-dashoffset:0;stroke-opacity:1" />
        <path
           transform="translate(-0.77589515,0)"
           inkscape:connector-curvature="0"
           id="path4636-0-5"
           d="m 171.3349,333.64486 c -0.14299,-0.10336 -0.26374,-0.18784 -0.26832,-0.18772 -0.005,1.2e-4 -0.12105,0.0821 -0.25883,0.18223 -0.13778,0.1001 -0.25365,0.17888 -0.25748,0.17504 -0.005,-0.005 0.14124,-0.48512 0.17954,-0.58797 0.004,-0.01 -0.11023,-0.10191 -0.25288,-0.20519 l -0.25936,-0.18778 0.32088,-0.004 0.32087,-0.004 0.0995,-0.30697 c 0.0547,-0.16884 0.10353,-0.30719 0.1085,-0.30747 0.005,-2.7e-4 0.0536,0.13787 0.10804,0.30698 l 0.099,0.30746 0.32238,0.004 0.32237,0.004 -0.2593,0.18744 -0.25931,0.18745 0.0219,0.073 c 0.012,0.0401 0.0575,0.17902 0.10097,0.30862 0.0435,0.12959 0.0774,0.23724 0.0753,0.23922 -0.002,0.002 -0.12076,-0.081 -0.26376,-0.18432 z"
           style="opacity:1;fill:#ffffff;fill-opacity:1;stroke:#000000;stroke-width:0;stroke-miterlimit:4;stroke-dasharray:none;stroke-dashoffset:0;stroke-opacity:1" />
        <path
           transform="translate(-0.77589515,0)"
           inkscape:connector-curvature="0"
           id="path4638-5-3"
           d="m 172.45511,335.46734 c 0,-0.008 0.0433,-0.14363 0.0962,-0.30235 0.0529,-0.15872 0.0926,-0.29782 0.0883,-0.30911 -0.004,-0.0113 -0.12042,-0.10161 -0.25797,-0.20072 l -0.2501,-0.18019 0.32357,-0.008 0.32356,-0.008 0.1026,-0.31309 0.10259,-0.31308 0.10374,0.31308 0.10375,0.31309 0.32202,0.008 0.32201,0.008 -0.25608,0.18637 c -0.14085,0.10251 -0.25609,0.19144 -0.25609,0.19764 0,0.006 0.0431,0.14501 0.0957,0.30847 0.0526,0.16347 0.0935,0.29907 0.0908,0.30134 -0.003,0.002 -0.11506,-0.077 -0.24962,-0.17604 -0.13455,-0.0991 -0.25277,-0.18382 -0.2627,-0.18829 -0.0137,-0.006 -0.37059,0.24038 -0.52253,0.36098 -0.0109,0.009 -0.0197,0.009 -0.0197,0.002 z"
           style="opacity:1;fill:#ffffff;fill-opacity:1;stroke:#000000;stroke-width:0;stroke-miterlimit:4;stroke-dasharray:none;stroke-dashoffset:0;stroke-opacity:1" />
        <path
           transform="translate(-0.77589515,0)"
           inkscape:connector-curvature="0"
           id="path4640-1-4"
           d="m 170.54529,337.09297 c 0,-0.005 0.0382,-0.128 0.0849,-0.27226 0.0467,-0.14427 0.0893,-0.27689 0.0948,-0.29473 0.008,-0.0276 -0.0286,-0.0603 -0.25096,-0.22097 l -0.26085,-0.18854 0.32535,-0.008 0.32535,-0.008 0.0948,-0.292 c 0.0521,-0.1606 0.0999,-0.29739 0.10603,-0.30398 0.006,-0.007 0.0554,0.12643 0.10938,0.29562 l 0.0982,0.30761 0.32467,0.004 0.32466,0.004 -0.26171,0.1894 c -0.14393,0.10418 -0.25929,0.19651 -0.25633,0.20519 0.10523,0.30909 0.188,0.57684 0.18059,0.58424 -0.005,0.005 -0.1009,-0.0569 -0.21249,-0.13811 -0.1116,-0.0812 -0.22608,-0.16392 -0.25442,-0.18372 l -0.0515,-0.036 -0.25106,0.18275 c -0.2437,0.17739 -0.26935,0.19384 -0.26935,0.17277 z"
           style="opacity:1;fill:#ffffff;fill-opacity:1;stroke:#000000;stroke-width:0;stroke-miterlimit:4;stroke-dasharray:none;stroke-dashoffset:0;stroke-opacity:1" />
        <path
           transform="translate(-0.77589515,0)"
           inkscape:connector-curvature="0"
           id="path4642-8-2"
           d="m 172.45511,338.75381 c 0,-0.005 0.0426,-0.13917 0.0947,-0.2988 0.0521,-0.15962 0.0947,-0.29775 0.0947,-0.30694 0,-0.009 -0.11818,-0.10251 -0.26262,-0.20736 l -0.26261,-0.19063 0.33079,0 0.3308,0 0.10117,-0.3181 0.10116,-0.3181 0.10296,0.31415 0.10295,0.31415 0.32563,0.008 0.32563,0.008 -0.25858,0.1872 c -0.14222,0.10296 -0.25858,0.19334 -0.25858,0.20084 0,0.007 0.0431,0.14587 0.0959,0.30749 0.0527,0.16161 0.0936,0.29609 0.0908,0.29884 -0.003,0.003 -0.12138,-0.0795 -0.26346,-0.18275 -0.14279,-0.10379 -0.26632,-0.18299 -0.27621,-0.1771 -0.01,0.006 -0.10667,0.0752 -0.21518,0.15412 -0.27092,0.19701 -0.29989,0.21703 -0.29989,0.2072 z"
           style="opacity:1;fill:#ffffff;fill-opacity:1;stroke:#000000;stroke-width:0;stroke-miterlimit:4;stroke-dasharray:none;stroke-dashoffset:0;stroke-opacity:1" />
        <path
           transform="translate(-0.77589515,0)"
           inkscape:connector-curvature="0"
           id="path4644-69-6"
           d="m 174.38071,337.0907 c 0,-0.007 0.0423,-0.14343 0.094,-0.30378 0.0517,-0.16035 0.089,-0.2958 0.0829,-0.301 -0.006,-0.005 -0.12336,-0.0905 -0.26057,-0.18946 l -0.24947,-0.17999 0.32411,-0.004 0.32411,-0.004 0.099,-0.30733 c 0.0544,-0.16903 0.10253,-0.30725 0.10687,-0.30716 0.004,9e-5 0.0525,0.13839 0.10707,0.30733 l 0.0992,0.30716 0.32434,0.004 0.32434,0.004 -0.26194,0.18934 c -0.14406,0.10414 -0.25874,0.19766 -0.25484,0.20782 0.0364,0.0948 0.18347,0.57804 0.1777,0.58381 -0.004,0.004 -0.12182,-0.0752 -0.26154,-0.17618 l -0.25404,-0.18368 -0.0514,0.0362 c -0.0283,0.0199 -0.14177,0.10214 -0.25218,0.18268 -0.20137,0.14689 -0.21752,0.15686 -0.21752,0.13419 z"
           style="opacity:1;fill:#ffffff;fill-opacity:1;stroke:#000000;stroke-width:0;stroke-miterlimit:4;stroke-dasharray:none;stroke-dashoffset:0;stroke-opacity:1" />
        <path
           transform="translate(-0.77589515,0)"
           inkscape:connector-curvature="0"
           id="path4646-2-8"
           d="m 174.4688,340.09057 c 0.0551,-0.17114 0.0944,-0.31497 0.0873,-0.31962 -0.007,-0.005 -0.12538,-0.0901 -0.26295,-0.18997 l -0.25012,-0.18151 0.32577,-0.004 0.32577,-0.004 0.10188,-0.30856 c 0.056,-0.1697 0.1052,-0.30274 0.10926,-0.29562 0.004,0.007 0.0515,0.14596 0.1054,0.30855 l 0.098,0.29563 0.32546,0.004 0.32546,0.004 -0.25012,0.18151 c -0.13757,0.0998 -0.256,0.18538 -0.26319,0.19012 -0.007,0.005 0.0321,0.14856 0.0872,0.31962 0.0551,0.17105 0.098,0.31101 0.0951,0.31101 -0.003,0 -0.12291,-0.0856 -0.26688,-0.19016 l -0.26175,-0.19015 -0.26028,0.19015 c -0.14315,0.10459 -0.26281,0.19016 -0.26591,0.19016 -0.003,0 0.0394,-0.14002 0.0945,-0.31116 z"
           style="opacity:1;fill:#ffffff;fill-opacity:1;stroke:#000000;stroke-width:0;stroke-miterlimit:4;stroke-dasharray:none;stroke-dashoffset:0;stroke-opacity:1" />
        <path
           transform="translate(-0.77589515,0)"
           inkscape:connector-curvature="0"
           id="path4648-2-0"
           d="m 174.46788,343.38089 c 0.0917,-0.28169 0.097,-0.30571 0.0729,-0.3296 -0.0143,-0.0142 -0.13496,-0.10458 -0.26822,-0.20092 l -0.24228,-0.17516 0.33391,-0.004 0.3339,-0.004 0.0971,-0.29594 c 0.0534,-0.16277 0.10139,-0.29595 0.1066,-0.29595 0.005,0 0.0527,0.13318 0.10562,0.29595 l 0.0961,0.29594 0.33461,0.004 0.3346,0.004 -0.24228,0.17516 c -0.13325,0.0963 -0.25409,0.18675 -0.26853,0.20092 -0.0244,0.024 -0.0194,0.0467 0.073,0.3296 0.0546,0.16711 0.096,0.30383 0.0921,0.30383 -0.004,0 -0.1194,-0.0817 -0.25655,-0.18151 -0.13715,-0.0998 -0.25819,-0.18151 -0.26899,-0.18151 -0.0108,0 -0.13184,0.0817 -0.26899,0.18151 -0.13715,0.0998 -0.25256,0.18151 -0.25646,0.18151 -0.004,0 0.0374,-0.13672 0.0918,-0.30383 z"
           style="opacity:1;fill:#ffffff;fill-opacity:1;stroke:#000000;stroke-width:0;stroke-miterlimit:4;stroke-dasharray:none;stroke-dashoffset:0;stroke-opacity:1" />
        <path
           transform="translate(-0.77589515,0)"
           inkscape:connector-curvature="0"
           id="path4650-4-1"
           d="m 172.46351,342.00969 c 0.006,-0.0206 0.0499,-0.15571 0.0964,-0.3002 0.0465,-0.14448 0.0846,-0.26928 0.0846,-0.27732 0,-0.008 -0.11656,-0.0994 -0.25903,-0.20292 l -0.25903,-0.18829 0.32736,-0.004 0.32736,-0.004 0.10206,-0.31705 0.10206,-0.31705 0.10092,0.31705 0.10092,0.31705 0.32878,0.004 0.32879,0.004 -0.26075,0.18849 c -0.14341,0.10366 -0.26074,0.19622 -0.26074,0.20568 0,0.009 0.0427,0.14471 0.0948,0.30056 0.0521,0.15585 0.0929,0.2889 0.0907,0.29566 -0.002,0.007 -0.12064,-0.0727 -0.26307,-0.17657 l -0.25897,-0.18887 -0.0487,0.0343 c -0.0268,0.0189 -0.13753,0.0989 -0.24604,0.17779 -0.25192,0.18319 -0.24292,0.17801 -0.22835,0.13166 z"
           style="opacity:1;fill:#ffffff;fill-opacity:1;stroke:#000000;stroke-width:0;stroke-miterlimit:4;stroke-dasharray:none;stroke-dashoffset:0;stroke-opacity:1" />
        <path
           transform="translate(-0.77589515,0)"
           inkscape:connector-curvature="0"
           id="path4652-1-7"
           d="m 172.45927,345.30649 c 0.021,-0.0549 0.18524,-0.57834 0.18524,-0.59034 0,-0.008 -0.11812,-0.099 -0.26248,-0.20306 l -0.26249,-0.18913 0.33072,-0.004 0.33072,-0.004 0.10231,-0.31608 0.10232,-0.31607 0.10052,0.31607 0.10052,0.31608 0.33181,0.004 0.33181,0.004 -0.25012,0.18151 c -0.13757,0.0998 -0.25776,0.18647 -0.26708,0.19253 -0.0113,0.007 0.0164,0.11259 0.0822,0.3134 0.0546,0.16632 0.0963,0.30527 0.0928,0.30879 -0.004,0.004 -0.11904,-0.0754 -0.2567,-0.17529 -0.13767,-0.0999 -0.25796,-0.1817 -0.26732,-0.1817 -0.009,0 -0.12884,0.0817 -0.2655,0.18151 -0.13667,0.0998 -0.25262,0.18151 -0.25768,0.18151 -0.005,0 -0.006,-0.009 -0.002,-0.0197 z"
           style="opacity:1;fill:#ffffff;fill-opacity:1;stroke:#000000;stroke-width:0;stroke-miterlimit:4;stroke-dasharray:none;stroke-dashoffset:0;stroke-opacity:1" />
        <path
           transform="translate(-0.77589515,0)"
           inkscape:connector-curvature="0"
           id="path4654-7-0"
           d="m 171.34236,346.79241 c -0.13889,-0.10252 -0.26124,-0.18669 -0.27188,-0.18706 -0.0106,-3.6e-4 -0.13133,0.0812 -0.26822,0.18115 -0.13689,0.1 -0.25084,0.17593 -0.25324,0.16875 -0.002,-0.007 0.038,-0.14364 0.0897,-0.30324 0.0517,-0.15961 0.091,-0.29505 0.0874,-0.30098 -0.004,-0.006 -0.12315,-0.0951 -0.26551,-0.19818 l -0.25884,-0.18739 0.33302,-0.008 0.33302,-0.008 0.0915,-0.2841 c 0.0503,-0.15626 0.0953,-0.29454 0.10001,-0.30729 0.005,-0.0127 0.0547,0.11674 0.1112,0.28774 l 0.10266,0.31092 0.3307,0.004 0.3307,0.004 -0.26667,0.19314 -0.26666,0.19314 0.0536,0.16988 c 0.0295,0.0934 0.0748,0.2333 0.10062,0.3108 0.0258,0.0775 0.0453,0.14215 0.0432,0.14365 -0.002,0.002 -0.11741,-0.0811 -0.25631,-0.18366 z"
           style="opacity:1;fill:#ffffff;fill-opacity:1;stroke:#000000;stroke-width:0;stroke-miterlimit:4;stroke-dasharray:none;stroke-dashoffset:0;stroke-opacity:1" />
        <path
           transform="translate(-0.77589515,0)"
           inkscape:connector-curvature="0"
           id="path4656-4-8"
           d="m 166.71021,346.95681 c 1.9e-4,-0.007 0.0428,-0.14397 0.0947,-0.30433 0.0895,-0.27665 0.0929,-0.29291 0.0667,-0.31776 -0.0152,-0.0144 -0.13664,-0.10502 -0.26989,-0.20136 l -0.24228,-0.17516 0.33567,-0.004 0.33568,-0.004 0.10282,-0.30778 0.10281,-0.30778 0.10019,0.31142 0.10018,0.31141 0.3322,0.004 0.33219,0.004 -0.26747,0.19359 -0.26748,0.19359 0.0989,0.30359 c 0.0544,0.16698 0.0965,0.30611 0.0937,0.30918 -0.003,0.003 -0.11844,-0.0768 -0.25683,-0.17757 -0.13838,-0.10073 -0.25867,-0.18315 -0.26729,-0.18315 -0.009,0 -0.12137,0.0767 -0.25052,0.17053 -0.26823,0.19478 -0.27441,0.19887 -0.27394,0.18159 z"
           style="opacity:1;fill:#ffffff;fill-opacity:1;stroke:#000000;stroke-width:0;stroke-miterlimit:4;stroke-dasharray:none;stroke-dashoffset:0;stroke-opacity:1" />
        <path
           transform="translate(-0.77589515,0)"
           inkscape:connector-curvature="0"
           id="path4658-7-8"
           d="m 162.87444,346.95814 c 0,-0.007 0.0441,-0.14624 0.0981,-0.30884 0.0539,-0.1626 0.0948,-0.2983 0.0907,-0.30157 -0.004,-0.003 -0.12433,-0.0906 -0.26734,-0.1941 l -0.26,-0.18817 0.33188,-0.004 0.33188,-0.004 0.10028,-0.31143 0.10028,-0.31142 0.10233,0.31142 0.10232,0.31142 0.33081,0.004 0.3308,0.004 -0.26162,0.1894 c -0.14389,0.10417 -0.26179,0.19814 -0.26199,0.20882 -2e-4,0.0107 0.0419,0.14892 0.0936,0.30719 0.0517,0.15827 0.0914,0.29032 0.0883,0.29345 -0.003,0.003 -0.11822,-0.0764 -0.25576,-0.17666 -0.13755,-0.10029 -0.25767,-0.18248 -0.26694,-0.18265 -0.009,-1.8e-4 -0.11419,0.0707 -0.23316,0.15739 -0.26254,0.19141 -0.29452,0.21266 -0.29452,0.19574 z"
           style="opacity:1;fill:#ffffff;fill-opacity:1;stroke:#000000;stroke-width:0;stroke-miterlimit:4;stroke-dasharray:none;stroke-dashoffset:0;stroke-opacity:1" />
        <path
           transform="translate(-0.77589515,0)"
           inkscape:connector-curvature="0"
           id="path4660-7-9"
           d="m 159.04306,346.94799 c 0.0172,-0.0457 0.14383,-0.4519 0.16206,-0.51973 0.024,-0.0891 0.0426,-0.069 -0.27648,-0.29836 l -0.22876,-0.16444 0.3327,-0.004 0.3327,-0.004 0.10092,-0.31704 0.10092,-0.31705 0.10166,0.31705 0.10166,0.31704 0.3323,0.004 0.33229,0.004 -0.2554,0.18588 c -0.14046,0.10224 -0.25954,0.19259 -0.2646,0.20079 -0.005,0.008 0.0336,0.1478 0.0859,0.31023 0.0523,0.16242 0.0924,0.29802 0.0891,0.30133 -0.003,0.003 -0.11961,-0.0761 -0.25844,-0.17649 -0.13883,-0.10038 -0.25755,-0.18251 -0.26382,-0.18251 -0.006,0 -0.12437,0.0817 -0.26244,0.18152 -0.13808,0.0998 -0.25525,0.18151 -0.26037,0.18151 -0.005,0 -0.006,-0.009 -0.002,-0.0197 z"
           style="opacity:1;fill:#ffffff;fill-opacity:1;stroke:#000000;stroke-width:0;stroke-miterlimit:4;stroke-dasharray:none;stroke-dashoffset:0;stroke-opacity:1" />
        <path
           transform="translate(-0.77589515,0)"
           inkscape:connector-curvature="0"
           id="path4672-5-5"
           d="m 160.95234,345.32361 c 0.004,-0.0116 0.0353,-0.10452 0.0688,-0.20652 l 0.0609,-0.18546 0.40351,0 0.40351,0 0.0599,0.18189 c 0.0329,0.10004 0.0575,0.18852 0.0547,0.19661 -0.003,0.008 -0.11697,-0.0667 -0.25365,-0.1661 -0.13668,-0.0995 -0.25635,-0.18083 -0.26593,-0.18083 -0.01,0 -0.13491,0.0858 -0.2785,0.19073 -0.14359,0.10491 -0.25752,0.18126 -0.25317,0.16968 z"
           style="opacity:1;fill:#ffffff;fill-opacity:1;stroke:#000000;stroke-width:0;stroke-miterlimit:4;stroke-dasharray:none;stroke-dashoffset:0;stroke-opacity:1" />
        <path
           transform="translate(-0.77589515,0)"
           inkscape:connector-curvature="0"
           id="path4674-6-3"
           d="m 164.80766,345.25914 c 0.0118,-0.0369 0.0404,-0.12568 0.0635,-0.1973 l 0.042,-0.13021 0.40562,0 0.40562,0 0.0595,0.19124 c 0.0327,0.10518 0.0569,0.1938 0.0538,0.19695 -0.003,0.003 -0.11732,-0.0758 -0.25373,-0.17546 -0.13641,-0.0996 -0.2558,-0.18116 -0.26533,-0.18116 -0.01,0 -0.12953,0.0817 -0.26668,0.18151 -0.13714,0.0998 -0.25304,0.18151 -0.25754,0.18151 -0.005,0 0.001,-0.0302 0.0133,-0.0671 z"
           style="opacity:1;fill:#ffffff;fill-opacity:1;stroke:#000000;stroke-width:0;stroke-miterlimit:4;stroke-dasharray:none;stroke-dashoffset:0;stroke-opacity:1" />
        <path
           transform="translate(-0.77589515,0)"
           inkscape:connector-curvature="0"
           id="path4676-4-5"
           d="m 168.62368,345.30649 c 0.004,-0.0109 0.0381,-0.11299 0.0756,-0.22697 l 0.0682,-0.20724 0.22994,-0.0437 c 0.12647,-0.024 0.28794,-0.0591 0.35882,-0.078 l 0.12888,-0.0343 0.0971,0.29858 c 0.0534,0.16423 0.0944,0.30135 0.091,0.30472 -0.003,0.003 -0.1185,-0.0754 -0.25583,-0.17514 -0.13734,-0.0997 -0.2576,-0.18113 -0.26725,-0.18096 -0.01,1.7e-4 -0.12938,0.0819 -0.26606,0.18151 -0.13668,0.0997 -0.25285,0.1812 -0.25817,0.1812 -0.005,0 -0.006,-0.009 -0.002,-0.0197 z"
           style="opacity:1;fill:#ffffff;fill-opacity:1;stroke:#000000;stroke-width:0;stroke-miterlimit:4;stroke-dasharray:none;stroke-dashoffset:0;stroke-opacity:1" />
        <path
           transform="translate(-0.77589515,0)"
           inkscape:connector-curvature="0"
           id="path4680-7-2"
           d="m 171.45721,343.59293 c -0.067,-0.0493 -0.12191,-0.0933 -0.12191,-0.0976 -1e-5,-0.004 0.0304,-0.0557 0.0675,-0.11414 l 0.0675,-0.10624 0.0641,0.20489 c 0.0352,0.11269 0.0597,0.20443 0.0544,0.20386 -0.005,-5.7e-4 -0.0645,-0.0414 -0.1316,-0.0908 z"
           style="opacity:1;fill:#ffffff;fill-opacity:1;stroke:#000000;stroke-width:0;stroke-miterlimit:4;stroke-dasharray:none;stroke-dashoffset:0;stroke-opacity:1" />
        <path
           transform="translate(-0.77589515,0)"
           inkscape:connector-curvature="0"
           id="path4682-0-7"
           d="m 167.49275,336.83863 c -0.1091,-0.005 -0.13303,-0.0114 -0.19156,-0.0534 l -0.0669,-0.048 -0.0673,0.0487 c -0.0643,0.0466 -0.0742,0.0487 -0.22171,0.0487 l -0.15443,0 0.0542,-0.16094 c 0.0298,-0.0885 0.0542,-0.16537 0.0542,-0.17079 0,-0.005 -0.11657,-0.0946 -0.25905,-0.19814 l -0.25905,-0.18829 0.32555,-0.008 0.32556,-0.008 0.0953,-0.29507 c 0.0524,-0.16228 0.0992,-0.29882 0.10408,-0.30343 0.005,-0.005 0.054,0.12982 0.1092,0.2987 l 0.1004,0.30706 0.324,0.004 0.32401,0.004 -0.24935,0.18045 c -0.13714,0.0992 -0.25286,0.18959 -0.25715,0.20077 -0.004,0.0112 0.0162,0.0951 0.0456,0.18652 0.0513,0.15941 0.0521,0.16607 0.0212,0.16302 -0.0177,-0.002 -0.0883,-0.006 -0.15687,-0.009 z"
           style="opacity:1;fill:#ffffff;fill-opacity:1;stroke:#000000;stroke-width:0;stroke-miterlimit:4;stroke-dasharray:none;stroke-dashoffset:0;stroke-opacity:1" />
        <path
           transform="translate(-0.77589515,0)"
           inkscape:connector-curvature="0"
           id="path4684-9-7"
           d="m 162.96914,336.81391 c 0,-0.0114 0.0213,-0.0838 0.0473,-0.1608 0.026,-0.077 0.0474,-0.14507 0.0474,-0.15116 0,-0.006 -0.11637,-0.0953 -0.25858,-0.19828 l -0.25859,-0.1872 0.32483,-0.008 0.32482,-0.008 0.10304,-0.31362 0.10304,-0.31362 0.10173,0.31725 0.10172,0.31725 0.32441,0.004 0.3244,0.004 -0.25606,0.18637 c -0.14084,0.1025 -0.25607,0.19528 -0.25607,0.20617 0,0.0109 0.0213,0.0828 0.0474,0.15989 0.026,0.077 0.0473,0.14585 0.0473,0.1529 0,0.007 -0.0681,0.0128 -0.15131,0.0128 -0.14433,0 -0.15448,-0.002 -0.22007,-0.0494 l -0.0688,-0.0494 -0.0623,0.0494 c -0.0601,0.0476 -0.0679,0.0494 -0.21398,0.0494 -0.11462,0 -0.15162,-0.005 -0.15162,-0.0207 z"
           style="opacity:1;fill:#ffffff;fill-opacity:1;stroke:#000000;stroke-width:0;stroke-miterlimit:4;stroke-dasharray:none;stroke-dashoffset:0;stroke-opacity:1" />
        <g
           transform="translate(0.09966,-0.85788127)"
           id="g4707-6-8">
          <path
             style="opacity:1;fill:#ffffff;fill-opacity:1;stroke:#000000;stroke-width:0;stroke-miterlimit:4;stroke-dasharray:none;stroke-dashoffset:0;stroke-opacity:1"
             d="m 175.32214,339.56847 c 0,-0.007 0.0423,-0.14343 0.094,-0.30378 0.0517,-0.16035 0.089,-0.2958 0.0829,-0.301 -0.006,-0.005 -0.12336,-0.0905 -0.26057,-0.18946 l -0.24947,-0.17999 0.32411,-0.004 0.32411,-0.004 0.099,-0.30733 c 0.0544,-0.16903 0.10253,-0.30725 0.10687,-0.30716 0.004,9e-5 0.0525,0.13839 0.10707,0.30733 l 0.0992,0.30716 0.32434,0.004 0.32434,0.004 -0.26194,0.18934 c -0.14406,0.10414 -0.25874,0.19766 -0.25484,0.20782 0.0364,0.0948 0.18347,0.57804 0.1777,0.58381 -0.004,0.004 -0.12182,-0.0752 -0.26154,-0.17618 l -0.25404,-0.18368 -0.0514,0.0362 c -0.0283,0.0199 -0.14177,0.10214 -0.25218,0.18268 -0.20137,0.14689 -0.21752,0.15686 -0.21752,0.13419 z"
             id="path4644-6-0-8"
             inkscape:connector-curvature="0" />
          <path
             style="opacity:1;fill:#ffffff;fill-opacity:1;stroke:#000000;stroke-width:0;stroke-miterlimit:4;stroke-dasharray:none;stroke-dashoffset:0;stroke-opacity:1"
             d="m 175.41023,342.56834 c 0.0551,-0.17114 0.0944,-0.31497 0.0873,-0.31962 -0.007,-0.005 -0.12538,-0.0901 -0.26295,-0.18997 l -0.25012,-0.18151 0.32577,-0.004 0.32577,-0.004 0.10188,-0.30856 c 0.056,-0.1697 0.1052,-0.30274 0.10926,-0.29562 0.004,0.007 0.0515,0.14596 0.1054,0.30855 l 0.098,0.29563 0.32546,0.004 0.32546,0.004 -0.25012,0.18151 c -0.13757,0.0998 -0.256,0.18538 -0.26319,0.19012 -0.007,0.005 0.0321,0.14856 0.0872,0.31962 0.0551,0.17105 0.098,0.31101 0.0951,0.31101 -0.003,0 -0.12291,-0.0856 -0.26688,-0.19016 l -0.26175,-0.19015 -0.26028,0.19015 c -0.14315,0.10459 -0.26281,0.19016 -0.26591,0.19016 -0.003,0 0.0394,-0.14002 0.0945,-0.31116 z"
             id="path4646-0-9-6"
             inkscape:connector-curvature="0" />
        </g>
      </g>
    </g>
  </g>
</svg>
