<?xml version="1.0" encoding="UTF-8" standalone="no"?>
<!-- Created with Inkscape (http://www.inkscape.org/) -->

<svg
   xmlns:dc="http://purl.org/dc/elements/1.1/"
   xmlns:cc="http://creativecommons.org/ns#"
   xmlns:rdf="http://www.w3.org/1999/02/22-rdf-syntax-ns#"
   xmlns:svg="http://www.w3.org/2000/svg"
   xmlns="http://www.w3.org/2000/svg"
   xmlns:sodipodi="http://sodipodi.sourceforge.net/DTD/sodipodi-0.dtd"
   xmlns:inkscape="http://www.inkscape.org/namespaces/inkscape"
   width="744.09448819"
   height="1052.3622047"
   id="svg2"
   version="1.1"
   inkscape:version="0.48.4 r9939"
   sodipodi:docname="New document 1">
  <defs
     id="defs4" />
  <sodipodi:namedview
     id="base"
     pagecolor="#ffffff"
     bordercolor="#666666"
     borderopacity="1.0"
     inkscape:pageopacity="0.0"
     inkscape:pageshadow="2"
     inkscape:zoom="0.35"
     inkscape:cx="442.25167"
     inkscape:cy="826.32259"
     inkscape:document-units="px"
     inkscape:current-layer="g5310"
     showgrid="false"
     inkscape:window-width="1536"
     inkscape:window-height="803"
     inkscape:window-x="-8"
     inkscape:window-y="-8"
     inkscape:window-maximized="1" />
  <metadata
     id="metadata7">
    <rdf:RDF>
      <cc:Work
         rdf:about="">
        <dc:format>image/svg+xml</dc:format>
        <dc:type
           rdf:resource="http://purl.org/dc/dcmitype/StillImage" />
        <dc:title></dc:title>
      </cc:Work>
    </rdf:RDF>
  </metadata>
  <g
     inkscape:label="Layer 1"
     inkscape:groupmode="layer"
     id="layer1">
    <g
       id="g3842">
      <g
         id="g3914">
        <g
           id="g5310"
           transform="translate(-20.166096,12.388351)">
          <g
             id="g5319">
            <rect
               style="color:#000000;fill:#000000;fill-opacity:1;fill-rule:nonzero;stroke:none;stroke-width:0.5;marker:none;visibility:visible;display:inline;overflow:visible;enable-background:accumulate"
               id="rect3753"
               width="108.54272"
               height="900"
               x="131.31984"
               y="63.79274"
               rx="0.15657581"
               ry="0.430861" />
            <rect
               style="color:#000000;fill:#000000;fill-opacity:1;fill-rule:nonzero;stroke:none;stroke-width:0.5;marker:none;visibility:visible;display:inline;overflow:visible;enable-background:accumulate"
               id="rect3753-1"
               width="109.64468"
               height="900"
               x="543.46216"
               y="63.79274"
               rx="0.15816541"
               ry="0.43086103" />
            <path
               sodipodi:nodetypes="cccccccccssssssssssssssssssssssssssssssssssss"
               style="color:#000000;fill:#000000;fill-opacity:1;fill-rule:nonzero;stroke:none;stroke-width:0.5;marker:none;visibility:visible;display:inline;overflow:visible;enable-background:accumulate"
               d="m 229.4142,140.21996 -0.18674,0.21342 0,153.69557 c 0,0.11777 0.18674,0.21342 0.18674,0.21342 l 325.59828,0 c 0.0969,0 0.18674,-0.0957 0.18674,-0.21342 l 0,-153.69557 -0.18674,-0.21342 z m 39.50931,22.69581 43.72434,0 c 0.0485,0 0.08,0.0478 0.08,0.10671 l 0,104.68232 c 0,0.0589 -0.0316,0.10671 -0.08,0.10671 l -43.72434,0 c -0.0485,0 -0.08,-0.0478 -0.08,-0.10671 l 0,-104.68232 c 0,-0.0589 0.0316,-0.10671 0.08,-0.10671 z m 67.49394,0 43.72434,0 c 0.0485,0 0.08,0.0478 0.08,0.10671 l 0,104.68232 c 0,0.0589 -0.0316,0.10671 -0.08,0.10671 l -43.72434,0 c -0.0485,0 -0.10671,-0.0478 -0.10671,-0.10671 l 0,-104.68232 c 0,-0.0589 0.0582,-0.10671 0.10671,-0.10671 z m 67.46727,0 43.72434,0 c 0.0485,0 0.08,0.0478 0.08,0.10671 l 0,104.68232 c 0,0.0589 -0.0316,0.10671 -0.08,0.10671 l -43.72434,0 c -0.0485,0 -0.08,-0.0478 -0.08,-0.10671 l 0,-104.68232 c 0,-0.0589 0.0316,-0.10671 0.08,-0.10671 z m 67.49395,0 43.72434,0 c 0.0485,0 0.08,0.0478 0.08,0.10671 l 0,104.68232 c 0,0.0589 -0.0316,0.10671 -0.08,0.10671 l -43.72434,0 c -0.0485,0 -0.10671,-0.0478 -0.10671,-0.10671 l 0,-104.68232 c 0,-0.0589 0.0582,-0.10671 0.10671,-0.10671 z"
               id="rect3773"
               inkscape:connector-curvature="0" />
            <g
               id="g3795"
               transform="matrix(1.1041872,0,0,1.1041872,651.58024,-129.335)">
              <rect
                 transform="matrix(0.70710678,0.70710678,-0.70710678,0.70710678,0,0)"
                 ry="0.24078876"
                 rx="0.11836724"
                 y="512.02142"
                 x="370.08307"
                 height="448.50772"
                 width="66.670067"
                 id="rect3775"
                 style="color:#000000;fill:#000000;fill-opacity:1;fill-rule:nonzero;stroke:none;stroke-width:0.5;marker:none;visibility:visible;display:inline;overflow:visible;enable-background:accumulate" />
              <rect
                 transform="matrix(0.70710678,-0.70710678,0.70710678,0.70710678,0,0)"
                 ry="0.24078876"
                 rx="0.11836724"
                 y="181.30716"
                 x="-770.32465"
                 height="448.50772"
                 width="66.670067"
                 id="rect3775-7"
                 style="color:#000000;fill:#000000;fill-opacity:1;fill-rule:nonzero;stroke:none;stroke-width:0.5;marker:none;visibility:visible;display:inline;overflow:visible;enable-background:accumulate" />
            </g>
            <rect
               style="color:#000000;fill:#000000;fill-opacity:1;fill-rule:nonzero;stroke:none;stroke-width:0.5;marker:none;visibility:visible;display:inline;overflow:visible;enable-background:accumulate"
               id="rect3799"
               width="357.59399"
               height="57.303856"
               x="216.31044"
               y="520.8363"
               rx="0.15974371"
               ry="0.44766206" />
          </g>
        </g>
      </g>
    </g>
  </g>
</svg>
