<?xml version="1.0" encoding="UTF-8" standalone="no"?>
<!-- Created with Inkscape (http://www.inkscape.org/) -->

<svg
   xmlns:dc="http://purl.org/dc/elements/1.1/"
   xmlns:cc="http://creativecommons.org/ns#"
   xmlns:rdf="http://www.w3.org/1999/02/22-rdf-syntax-ns#"
   xmlns:svg="http://www.w3.org/2000/svg"
   xmlns="http://www.w3.org/2000/svg"
   xmlns:sodipodi="http://sodipodi.sourceforge.net/DTD/sodipodi-0.dtd"
   xmlns:inkscape="http://www.inkscape.org/namespaces/inkscape"
   width="990"
   height="765"
   id="svg5592"
   version="1.1"
   inkscape:version="0.48.4 r9939"
   sodipodi:docname="Caravan.svg">
  <defs
     id="defs5594">
    <clipPath
       id="clipPath44-6"
       clipPathUnits="userSpaceOnUse">
      <path
         inkscape:connector-curvature="0"
         id="path46-9"
         d="m 349.807,599.514 45.293,0 0,-81.949 -45.293,0 0,81.949 z" />
    </clipPath>
    <clipPath
       id="clipPath24-7"
       clipPathUnits="userSpaceOnUse">
      <path
         inkscape:connector-curvature="0"
         id="path26-8"
         d="m 164.029,599.514 44.734,0 0,-81.949 -44.734,0 0,81.949 z" />
    </clipPath>
  </defs>
  <sodipodi:namedview
     id="base"
     pagecolor="#ffffff"
     bordercolor="#666666"
     borderopacity="1.0"
     inkscape:pageopacity="0.0"
     inkscape:pageshadow="2"
     inkscape:zoom="0.40100264"
     inkscape:cx="-423.70752"
     inkscape:cy="484.95183"
     inkscape:document-units="px"
     inkscape:current-layer="layer1"
     showgrid="false"
     inkscape:window-width="1536"
     inkscape:window-height="803"
     inkscape:window-x="-8"
     inkscape:window-y="-8"
     inkscape:window-maximized="1" />
  <metadata
     id="metadata5597">
    <rdf:RDF>
      <cc:Work
         rdf:about="">
        <dc:format>image/svg+xml</dc:format>
        <dc:type
           rdf:resource="http://purl.org/dc/dcmitype/StillImage" />
        <dc:title />
      </cc:Work>
    </rdf:RDF>
  </metadata>
  <g
     inkscape:label="Layer 1"
     inkscape:groupmode="layer"
     id="layer1"
     transform="translate(0,-287.36218)">
    <g
       transform="matrix(2.6135614,0,0,2.6135614,-425.2038,-704.67601)"
       id="g5063-2-1">
      <path
         inkscape:connector-curvature="0"
         id="path8907-4-7"
         d="m 509.78599,440.54844 3.70812,0.91595 3.09346,4.64018 6.38024,17.20732 6.96026,23.20088 1.16004,9.47369 -0.19334,0.77336 0.48336,0.43502 -0.0484,6.28357 -1.31035,12.2619 1.0937,0.6152 0.82028,1.36713 0.68356,1.57219 0.82028,0.61521 0.20507,1.0937 -2.11905,9.3648 -1.36712,5.53686 -4.03302,4.16973 -1.57219,2.52918 -4.44316,1.98234 -0.54685,4.23808 -0.82028,4.3748 -0.75191,5.12672 -1.84563,5.33179 -2.52917,4.85329 -1.77727,2.56336 -2.35829,1.70891 -2.87096,0.99116 -4.6824,0.3076 -10.35598,-1.91397 -1.29876,-1.05952 -1.05953,-1.8798 -1.05952,-3.21274 -0.75192,-3.14439 -0.64938,-3.38364 -0.20507,-2.39246 0,-1.70891 -0.0684,-1.64055 -101.57739,29.18812 -3.28109,0.88863 -0.4785,4.16973 -0.95699,6.35713 -1.77726,6.83563 -1.77726,4.23808 -2.11905,4.03302 -3.69124,5.81028 -3.75958,4.16974 -3.14439,3.00767 -2.80261,1.64055 -2.59754,1.16206 -2.25576,1.09369 -3.00767,0.95699 -2.93932,0.54685 -3.62288,0.54686 -2.1874,-0.0684 -4.03302,-0.54686 -11.96234,-4.78493 -1.70891,-1.84562 -2.32411,-3.55453 -1.77726,-6.15205 -0.47849,-5.81028 0.0684,-4.16974 0.13671,-2.39246 0.13672,-0.61522 -4.71658,7.45084 -1.23042,0.95699 -10.25344,2.39247 -3.75959,0.75191 -3.07603,0.41014 -3.34946,0.27343 -4.03301,0.1367 -5.53686,-0.54684 -19.41317,-4.16973 -15.58523,-4.23809 -27.88934,-9.56987 -11.27879,-4.71659 -14.42316,-6.69891 -5.4685,-3.2811 -2.73425,-1.7089 -1.16206,-1.50384 -0.68356,-2.11905 -0.4785,-1.91397 -6.69891,-3.75959 -4.16973,-2.73426 -2.32411,-2.1874 -0.4785,-3.82794 -0.95698,-7.45083 -1.29877,-3.14439 0,-2.32412 -1.02535,-3.07603 0.88864,-4.99 7.99768,-7.04069 0.13671,-4.51152 0.61521,-4.85329 0.20506,-0.34178 -0.6152,-0.68356 0.13671,-1.50384 1.29877,-4.64823 1.84562,-4.30644 1.0937,-1.23041 1.23041,-0.61521 -0.20507,-0.20507 -0.82027,0 0.47849,-1.70891 2.05069,-2.73424 3.82795,-2.80261 7.38247,-3.82795 12.71427,-5.81028 18.45618,-6.83563 16.81563,-6.15206 11.07372,-4.03302 4.44315,-2.11904 1.91398,-1.77726 1.43548,-0.54685 3.69124,-2.39247 0.13671,-1.64055 1.0937,-1.16206 0.88863,-0.6152 1.70891,0.13671 34.65661,-28.29948 0.54686,-0.82028 0.27342,-0.6152 1.36712,-0.54686 3.41782,-1.16205 5.60521,-1.91398 7.45083,-1.57219 5.26343,-0.95699 12.09906,-0.20507 2.05068,-0.68356 2.11905,-0.54685 6.63055,-0.41013 15.51687,0.95698 1.70891,-1.50384 2.25575,-0.88863 3.62289,-0.0684 20.57523,-0.20507 19.00303,0.68356 17.70427,1.16205 9.63823,0.75192 2.05069,0.41014 4.78493,1.02534 2.52919,1.50384 0.34178,0.20507 9.3648,0.34178 16.61057,1.16206 10.73193,0.82027 3.21274,0.54685 2.11905,0.68356 1.77726,0.68357 1.29877,0.82027 0.75192,0.75192 1.77726,0.34179 1.91398,0.75191 1.23041,0.88863 0.54685,1.36713 0.27342,0.47849 2.1874,0.61521 z"
         style="fill:none;stroke:#000000;stroke-width:0.54135382px;stroke-linecap:butt;stroke-linejoin:miter;stroke-opacity:1" />
      <path
         inkscape:connector-curvature="0"
         id="path8909-3-4"
         d="m 438.2846,428.4139 8.16864,0.58002 c -0.0483,0.19334 -8.31365,-0.38668 -8.31365,-0.38668 l -5.3652,0.0483 -2.32009,0.43502 -1.20838,0.43502 -49.01186,-2.75511 -1.20837,-1.1117 2.17508,-0.29002 0.29001,-0.53168 17.11065,0 17.739,0.53168 26.00432,2.12675 3.72181,0.62836 0.43501,0.38668 z"
         style="fill:none;stroke:#000000;stroke-width:0.54135382px;stroke-linecap:butt;stroke-linejoin:miter;stroke-opacity:1" />
      <path
         inkscape:connector-curvature="0"
         id="path8911-5-0"
         d="m 493.19334,443.97782 17.01398,2.32009 1.49264,0.81273 1.43548,1.43548 1.91398,4.30644 4.23809,9.50152 3.48617,11.48385 1.64055,7.1774 -0.54685,3.89631 -1.84562,0.88863 -18.18276,1.77726 -1.23041,-0.82027 -0.68357,-1.77726 -2.8026,-13.67125 -3.69124,-14.69659 -3.41781,-10.25344 0.34178,-1.70891 z"
         style="fill:none;stroke:#000000;stroke-width:0.54135382px;stroke-linecap:butt;stroke-linejoin:miter;stroke-opacity:1" />
      <path
         inkscape:connector-curvature="0"
         id="path8913-2-9"
         d="m 450.58948,441.64214 36.36552,2.25575 1.02535,1.02535 1.50384,2.25576 2.32411,8.20274 3.62288,13.80797 2.25576,11.48385 0.27342,6.01535 -0.54685,1.36712 -0.95699,0.34178 -35.27182,2.93932 -1.0937,-0.41014 -0.88863,-1.43548 -0.61521,-1.70891 -1.64055,-11.75727 -1.64055,-7.79261 -2.05069,-9.63823 -2.66589,-11.00536 -1.0937,-4.3748 0.27343,-1.36712 z"
         style="fill:none;stroke:#000000;stroke-width:0.54135382px;stroke-linecap:butt;stroke-linejoin:miter;stroke-opacity:1" />
      <path
         inkscape:connector-curvature="0"
         id="path8915-1-4"
         d="m 451.06797,492.43083 -51.26718,6.42549 -1.57219,-0.54685 -1.50384,-3.14439 -0.0684,-6.01535 2.80261,-7.45083 6.01535,-12.78262 3.48617,-6.63056 7.76658,-17.05119 1.56404,-2.15691 2.01651,-1.12788 2.73425,-0.68356 6.18624,-0.3076 10.80029,0 2.25576,0.20507 1.46966,1.43548 1.60637,3.21274 2.01651,8.23693 3.34946,16.91817 1.64054,12.6459 0.54686,6.15206 -0.10254,1.21333 -0.41014,0.75192 -0.6152,0.59811 z"
         style="fill:none;stroke:#000000;stroke-width:0.54135382px;stroke-linecap:butt;stroke-linejoin:miter;stroke-opacity:1" />
      <path
         inkscape:connector-curvature="0"
         id="path8917-5-88"
         d="m 444.27816,519.9607 0.29001,-5.02686 0.67669,-1.25671 1.06337,-0.19334 6.18691,-0.9667 0.77336,0.77336 -0.19334,5.12352 -0.48336,1.16005 -1.35338,0.87003 -5.99356,1.06338 -0.9667,-0.48336 z"
         style="fill:none;stroke:#000000;stroke-width:0.54135382px;stroke-linecap:butt;stroke-linejoin:miter;stroke-opacity:1" />
      <path
         inkscape:connector-curvature="0"
         id="path8919-1-2"
         d="m 402.1299,485.54606 3.09344,-4.83351 2.90012,-2.12675 6.09023,0 9.28035,1.35338 3.86681,1.54673 0.9667,2.03008 0.38668,4.35016 -0.38668,3.77015 -1.16004,1.35338 -1.06338,0.58002 -3.86681,0.77336 -9.86037,0 -8.31365,0.48335 -1.25671,0.48336 -2.41676,-0.0967 -1.93341,-1.16005 0.19334,-2.41675 2.51343,-2.99679 z"
         style="fill:none;stroke:#000000;stroke-width:0.54135382px;stroke-linecap:butt;stroke-linejoin:miter;stroke-opacity:1" />
      <path
         inkscape:connector-curvature="0"
         id="path8921-8-4"
         d="m 492.32331,433.82743 -20.78412,-2.22341 17.73901,1.01504 2.7551,0.58002 z"
         style="fill:none;stroke:#000000;stroke-width:0.54135382px;stroke-linecap:butt;stroke-linejoin:miter;stroke-opacity:1" />
      <path
         inkscape:connector-curvature="0"
         id="path8923-0-5"
         d="m 265.72806,469.7888 41.66491,-34.41464 2.12675,-1.64339 3.09345,-1.16005 3.48013,-0.0967 12.66381,-0.38668 20.30077,0.29001 17.20732,1.25672 19.43074,1.74006 19.14072,2.70677 2.70677,1.45006 1.6434,1.54672 -0.48336,1.25672 -18.46403,35.57467 -3.5768,4.73685 -3.09345,1.45006 -41.47157,-3.96348 -48.04516,-5.99357 -19.14072,-2.61009 -7.05694,-1.16005 z"
         style="fill:none;stroke:#000000;stroke-width:0.54135382px;stroke-linecap:butt;stroke-linejoin:miter;stroke-opacity:1" />
      <path
         inkscape:connector-curvature="0"
         id="path8925-2-5"
         d="m 384.43923,485.25605 -4.73685,2.41676 -5.12353,1.35339 -5.70355,0.58002 -5.31687,-0.19335 -41.85825,-4.35016 -36.05804,-5.31687 -23.58755,-2.90011 -4.73685,-1.16004 -1.54673,-0.77336 0.67669,-1.25672 7.54029,-3.96348 1.45006,0 32.86791,5.31687 86.3266,9.47369 z"
         style="fill:none;stroke:#000000;stroke-width:0.54135382px;stroke-linecap:butt;stroke-linejoin:miter;stroke-opacity:1" />
      <path
         inkscape:connector-curvature="0"
         id="path8927-2-17"
         d="m 318.22005,559.78887 3.67347,-16.04727 1.64339,-8.50699 -0.19334,-2.32008 -1.25671,-1.83674 -0.87003,-0.48335 -16.04728,1.9334 -6.38024,-0.0967 -4.15682,0 -29.67779,-4.25349 -1.74007,0.67669 -2.03008,3.09345 -3.48013,7.34695 -0.58002,2.70677 1.16004,0.58002 30.93451,5.12353 3.38346,0.58002 c 0,0 7.83029,0.87003 8.12031,0.48335 0.29001,-0.38668 17.40065,-1.25672 17.40065,-1.25672 l 2.41676,-0.48334 z"
         style="fill:none;stroke:#000000;stroke-width:0.54135382px;stroke-linecap:butt;stroke-linejoin:miter;stroke-opacity:1" />
      <path
         inkscape:connector-curvature="0"
         id="path8929-7-1"
         d="m 254.12762,554.182 33.83461,6.86359 7.8303,0.58002 8.50699,-0.38668 9.7637,-1.25671 3.57681,-0.38668 2.51342,-11.31043 -1.06337,-0.58002 -14.79056,1.35338 -11.98712,-0.58002 -14.21054,-1.93341 -19.52741,-3.38346 -1.54672,0.67669 -1.16005,1.6434 c 0,0 -0.29001,1.9334 -0.29001,2.32009 0,0.38668 -0.38668,2.12674 -0.38668,2.12674 l -0.87003,2.12675 0,2.6101 z"
         style="fill:none;stroke:#000000;stroke-width:0.54135382px;stroke-linecap:butt;stroke-linejoin:miter;stroke-opacity:1" />
      <path
         inkscape:connector-curvature="0"
         id="path8931-8-1"
         d="m 230.34672,499.17658 3.09345,3.96348 -1.93341,5.2202 -3.38346,-0.67669 -1.25671,-5.41354 c 0,0 3.86681,-3.48013 3.48013,-3.09345 z"
         style="fill:none;stroke:#000000;stroke-width:0.54135382px;stroke-linecap:butt;stroke-linejoin:miter;stroke-opacity:1" />
      <path
         inkscape:connector-curvature="0"
         id="path8933-7-5"
         d="m 231.12008,507.00687 -1.54672,-2.9001"
         style="fill:none;stroke:#000000;stroke-width:0.54135382px;stroke-linecap:butt;stroke-linejoin:miter;stroke-opacity:1" />
      <path
         inkscape:connector-curvature="0"
         id="path8935-4-2"
         d="m 227.83329,506.71687 2.03007,-2.51343"
         style="fill:none;stroke:#000000;stroke-width:0.54135382px;stroke-linecap:butt;stroke-linejoin:miter;stroke-opacity:1" />
      <path
         inkscape:connector-curvature="0"
         id="path8937-3-7"
         d="m 229.28334,504.20344 -2.03008,-1.74007 -0.38667,0 z"
         style="fill:none;stroke:#000000;stroke-width:0.54135382px;stroke-linecap:butt;stroke-linejoin:miter;stroke-opacity:1" />
      <path
         inkscape:connector-curvature="0"
         id="path8939-3-61"
         d="m 230.15337,500.04661 -0.77336,4.25349"
         style="fill:none;stroke:#000000;stroke-width:0.54135382px;stroke-linecap:butt;stroke-linejoin:miter;stroke-opacity:1" />
      <path
         inkscape:connector-curvature="0"
         id="path8941-4-4"
         d="m 232.47346,503.62341 -3.09345,0.67669"
         style="fill:none;stroke:#000000;stroke-width:0.54135382px;stroke-linecap:butt;stroke-linejoin:miter;stroke-opacity:1" />
      <path
         inkscape:connector-curvature="0"
         id="path8943-1-2"
         d="m 229.67003,508.07025 0,1.35338"
         style="fill:none;stroke:#000000;stroke-width:0.54135382px;stroke-linecap:butt;stroke-linejoin:miter;stroke-opacity:1" />
      <path
         inkscape:connector-curvature="0"
         id="path8945-9-3"
         d="m 231.60343,510.197 -2.32009,2.51343 -1.06337,0 -1.25671,0.19334 0.67669,-2.6101 0.87003,-0.6767 1.35338,0 z"
         style="fill:none;stroke:#000000;stroke-width:0.54135382px;stroke-linecap:butt;stroke-linejoin:miter;stroke-opacity:1" />
      <path
         inkscape:connector-curvature="0"
         id="path8947-3-2"
         d="m 185.15334,507.53856 2.99678,1.69174 8.07197,2.9001 0.38668,0.62836 -0.91837,0.62836 -1.01504,0.48335 -0.67669,2.94844 -1.49839,6.28358 -0.0483,2.99678 -8.41031,-3.4318 -3.38347,-1.93341 -0.43501,-0.87003 -0.12084,-1.11171 0.55585,-3.06928 2.17509,-6.13857 1.54672,-1.8609 z"
         style="fill:none;stroke:#000000;stroke-width:0.54135382px;stroke-linecap:butt;stroke-linejoin:miter;stroke-opacity:1" />
      <path
         inkscape:connector-curvature="0"
         id="path8949-6-2"
         d="m 179.7398,529.55523 4.88185,3.62514 6.33191,3.16595 1.7884,0.33835 -0.14501,-1.52256 -0.12084,-3.26262 -0.16917,-3.06929 0.26584,-1.66756 0,-0.55585 -8.38615,-3.74598 -3.86681,-2.12675 -0.24168,1.20838 -0.33834,2.80344 -0.24168,1.7884 -0.12084,2.3926 z"
         style="fill:none;stroke:#000000;stroke-width:0.54135382px;stroke-linecap:butt;stroke-linejoin:miter;stroke-opacity:1" />
      <path
         inkscape:connector-curvature="0"
         id="path8951-5-16"
         d="m 196.70544,565.20241 -0.45918,-3.55263 -8.31365,-3.40763 1.76423,3.86682 z"
         style="fill:none;stroke:#000000;stroke-width:0.54135382px;stroke-linecap:butt;stroke-linejoin:miter;stroke-opacity:1" />
      <path
         inkscape:connector-curvature="0"
         id="path8953-0-8"
         d="m 199.2672,562.64065 8.7245,3.4318 1.18421,3.96348 -0.70086,0.0484 -7.63695,-2.90011 -0.48335,-0.7492 -0.45919,-1.16004 -0.48335,-1.66757 -0.16917,-0.77337 z"
         style="fill:none;stroke:#000000;stroke-width:0.54135382px;stroke-linecap:butt;stroke-linejoin:miter;stroke-opacity:1" />
      <path
         inkscape:connector-curvature="0"
         id="path8955-8-5"
         d="m 218.33543,573.32272 10.60957,3.21429 0.45918,-0.0483 -0.0967,-1.06338 -0.24167,-1.7159 -0.19335,-0.87003 -0.60419,-0.48335 -10.99625,-3.40763 -0.67669,0 -0.0241,0.41085 1.1117,3.38346 z"
         style="fill:none;stroke:#000000;stroke-width:0.54135382px;stroke-linecap:butt;stroke-linejoin:miter;stroke-opacity:1" />
      <path
         inkscape:connector-curvature="0"
         id="path8957-7-7"
         d="m 232.83598,573.85441 0.94253,3.23846 0.41085,0.87003 1.25672,0.84586 2.97261,0.70087 6.42857,1.57089 0.58003,-0.21751 -0.26585,-3.55263 -0.41084,-0.45919 z"
         style="fill:none;stroke:#000000;stroke-width:0.54135382px;stroke-linecap:butt;stroke-linejoin:miter;stroke-opacity:1" />
      <path
         inkscape:connector-curvature="0"
         id="path8959-3-6"
         d="m 251.71086,549.44515 1.83674,-6.28357 -0.48336,-1.35338 -5.02685,-0.87004 -25.90765,-5.70355 -1.16005,-0.19334 -0.77336,1.74007 0.38668,4.25349 0.58002,1.54673 27.26104,7.05693 2.90011,0.58002 z"
         style="fill:none;stroke:#000000;stroke-width:0.54135382px;stroke-linecap:butt;stroke-linejoin:miter;stroke-opacity:1" />
      <path
         inkscape:connector-curvature="0"
         id="path8961-2-18"
         d="m 220.77636,532.43117 2.22341,-7.63695 1.54673,-0.29002 31.70786,6.18691 0.87004,0.58002 0.38668,0.67669 -0.29001,0.96671 -2.32009,6.09023 -1.06338,0.58002 -1.06337,0 z"
         style="fill:none;stroke:#000000;stroke-width:0.54135382px;stroke-linecap:butt;stroke-linejoin:miter;stroke-opacity:1" />
      <path
         inkscape:connector-curvature="0"
         id="path8963-6-92"
         d="m 217.97291,531.94782 -23.87757,-7.25027 1.45006,-7.63696 1.25671,0.0967 23.39422,6.47691 0.48335,1.06338 -1.54672,6.1869 z"
         style="fill:none;stroke:#000000;stroke-width:0.54135382px;stroke-linecap:butt;stroke-linejoin:miter;stroke-opacity:1" />
      <path
         inkscape:connector-curvature="0"
         id="path8965-9-7"
         d="m 218.3596,534.55792 -0.29001,6.28357 -0.38669,1.16005 -22.1375,-6.76693 -0.58003,-1.16004 -0.58002,-3.86681 0.0967,-2.80344 z"
         style="fill:none;stroke:#000000;stroke-width:0.54135382px;stroke-linecap:butt;stroke-linejoin:miter;stroke-opacity:1" />
      <path
         inkscape:connector-curvature="0"
         id="path8967-4-9"
         d="m 353.60139,615.56766 -2.90011,-1.35339 -5.12353,-7.54028 -1.16005,-13.82386 2.70677,-9.57036 4.93019,-8.21698 5.31687,-5.31687 5.51021,-1.93341 3.38346,0.96671 4.15683,2.12675 1.83673,2.51343 0.87004,3.48013 0.9667,6.47691 c 0,0 0.0967,5.31686 0.0967,5.80022 0,0.48335 -1.06337,8.02364 -1.06337,8.02364 l -2.70677,5.12352 -1.93341,4.73685 -3.28679,3.48013 -3.67347,3.28679 -3.2868,2.03008 -2.80343,-0.0967 -1.35339,0 z"
         style="fill:none;stroke:#000000;stroke-width:0.54135382px;stroke-linecap:butt;stroke-linejoin:miter;stroke-opacity:1" />
      <path
         inkscape:connector-curvature="0"
         id="path8969-2-5"
         d="m 510.88401,534.07457 1.93341,0 1.16005,0.67669 0.77336,0.77337 0.9667,2.80344 0.58002,3.48013 0.38669,3.48013 0,2.99678 -0.96671,5.02686 -1.06337,3.86681 -0.87003,2.51342 -1.54673,3.2868 -1.74007,1.54672 -1.83673,1.25672 -1.6434,0.19334 -1.54673,-1.45006 -1.06337,-3.09345 -1.06337,-4.5435 0.19334,-5.02686 0.48335,-4.64018 0.77336,-2.99678 1.06338,-4.5435 1.45005,-3.09345 1.25672,-1.25672 z"
         style="fill:none;stroke:#000000;stroke-width:0.54135382px;stroke-linecap:butt;stroke-linejoin:miter;stroke-opacity:1" />
      <path
         inkscape:connector-curvature="0"
         id="path8971-4-4"
         d="m 501.02364,517.06059 -0.48335,-2.22342 -0.9667,-1.35338 -0.96671,0 -1.25671,1.16004 -1.06337,1.6434 -0.19334,2.41676 -0.29002,2.6101 0.0967,1.83673 1.06338,1.93341 1.54672,-1.35339 1.25672,-1.64339 0.58002,-1.93341 0.38668,-0.38668 1.16004,-0.67669 0,-1.6434 z"
         style="fill:none;stroke:#000000;stroke-width:0.54135382px;stroke-linecap:butt;stroke-linejoin:miter;stroke-opacity:1" />
      <path
         inkscape:connector-curvature="0"
         id="path8973-2-3"
         d="m 450.56173,559.01551 3.67347,-11.11708 0.48335,-1.83674 1.83674,-1.45006 0,-1.25671 0.96671,-1.25672 0.29,-1.54672 0,-1.83674 -0.87003,-2.70677 -0.38668,-1.25671 0.0967,-3.77014 1.45005,-16.33729 0,-4.93019 -0.58001,-2.70677 0.87003,-0.0967 -1.74007,-17.01397 -2.32009,-14.88723 -3.86681,-18.5607 -4.06016,-16.14395 -1.16004,-2.90011"
         style="fill:none;stroke:#000000;stroke-width:0.54135382px;stroke-linecap:butt;stroke-linejoin:miter;stroke-opacity:1" />
      <path
         inkscape:connector-curvature="0"
         id="path8975-6-12"
         d="m 513.97747,442.62443 -25.81098,-2.61009 -24.74761,-1.93341 -19.23739,-1.06337 -12.76049,-0.0967 -9.66703,0.58002 -3.77014,0.67669 0,0 0,0 0,0"
         style="fill:none;stroke:#000000;stroke-width:0.54135382px;stroke-linecap:butt;stroke-linejoin:miter;stroke-opacity:1" />
      <path
         inkscape:connector-curvature="0"
         id="path8977-5-3"
         d="m 385.79261,484.57936 6.57358,-0.38668 20.78412,-41.47158 1.54673,-2.32008 3.5768,-2.51343"
         style="fill:none;stroke:#000000;stroke-width:0.54135382px;stroke-linecap:butt;stroke-linejoin:miter;stroke-opacity:1" />
      <path
         inkscape:connector-curvature="0"
         id="path8979-7-3"
         d="m 429.39093,429.57394 -3.77015,1.35339 1.93341,1.16004 6.57358,0.77336 12.66382,0.58003 24.55426,2.22341 29.77446,3.09346 3.5768,0.67669 0.77336,-0.19335"
         style="fill:none;stroke:#000000;stroke-width:0.54135382px;stroke-linecap:butt;stroke-linejoin:miter;stroke-opacity:1" />
      <path
         inkscape:connector-curvature="0"
         id="path8981-7-41"
         d="m 390.62613,576.80286 2.41675,-16.04728 0.87004,-0.87003 0.29001,-2.03008 0.87003,-4.15683 -0.58002,-2.70677 -1.25671,-3.09344 0.77336,-15.95061 0,-11.79378 -0.67669,-2.70677 0.67669,-0.77336 -1.35339,-18.94738 -0.58002,-7.44362 0.77336,-5.99356"
         style="fill:none;stroke:#000000;stroke-width:0.54135382px;stroke-linecap:butt;stroke-linejoin:miter;stroke-opacity:1" />
      <path
         inkscape:connector-curvature="0"
         id="path8983-5-1"
         d="m 294.82583,531.56114 0.77336,-2.51343 5.60688,-5.70355 9.86037,-6.67025 56.74549,-26.87435"
         style="fill:none;stroke:#000000;stroke-width:0.54135382px;stroke-linecap:butt;stroke-linejoin:miter;stroke-opacity:1" />
      <path
         inkscape:connector-curvature="0"
         id="path8985-9-38"
         d="m 197.38213,512.51709 29.38778,7.34694 36.92807,7.63696 0.38668,0.0967 -1.25671,0.67669 -18.36736,-3.09345 -21.75083,-4.64018 -15.08057,-3.67347 -10.53707,-3.28679 -0.38668,-0.38668 z"
         style="fill:none;stroke:#000000;stroke-width:0.54135382px;stroke-linecap:butt;stroke-linejoin:miter;stroke-opacity:1" />
      <path
         inkscape:connector-curvature="0"
         id="path8987-2-7"
         d="m 171.28586,542.12582 2.1874,3.2811 15.3118,7.79261 22.14742,8.47617 25.56524,7.10906 26.52222,6.97233 20.50687,2.87096 16.67893,-1.23041 32.94771,-6.15206"
         style="fill:none;stroke:#000000;stroke-width:0.54135382px;stroke-linecap:butt;stroke-linejoin:miter;stroke-opacity:1" />
      <path
         inkscape:connector-curvature="0"
         id="path8989-7-42"
         d="m 333.01674,573.97983 -34.72498,6.28877 -9.29644,0.54685 -9.70659,-0.1367 -16.4055,-3.14439 -38.68964,-9.56988 -32.40086,-10.937 -17.63591,-8.61288 -2.32411,-1.77727"
         style="fill:none;stroke:#000000;stroke-width:0.54135382px;stroke-linecap:butt;stroke-linejoin:miter;stroke-opacity:1" />
      <path
         inkscape:connector-curvature="0"
         id="path8991-6-77"
         d="m 188.51163,570.83544 16.67893,7.65591 30.21346,10.66357 17.63591,6.15206 33.22114,6.28877"
         style="fill:none;stroke:#000000;stroke-width:0.54135382px;stroke-linecap:butt;stroke-linejoin:miter;stroke-opacity:1" />
      <path
         inkscape:connector-curvature="0"
         id="path8993-0-93"
         d="m 391.25626,558.12118 2.73425,-0.27342"
         style="fill:none;stroke:#000000;stroke-width:0.54135382px;stroke-linecap:butt;stroke-linejoin:miter;stroke-opacity:1" />
      <path
         inkscape:connector-curvature="0"
         id="path8995-4-19"
         d="m 318.52522,560.03516 16.5422,-3.14439 4.78494,0 2.46083,0"
         style="fill:none;stroke:#000000;stroke-width:0.54135382px;stroke-linecap:butt;stroke-linejoin:miter;stroke-opacity:1" />
      <path
         inkscape:connector-curvature="0"
         id="path8997-2-8"
         d="m 322.90001,598.04123 4.23809,-9.02303 3.82795,-8.06603 5.60521,-11.75728 5.60521,-11.48385 3.41782,-5.4685 5.87864,-6.15206 7.24576,-4.3748 12.44083,-2.1874 6.15207,1.36713 5.87863,3.82795 3.2811,6.01534 2.1874,7.79262 -0.54685,6.01535 c 0,0 -1.0937,8.20275 -1.0937,8.7496 0,0.54685 -1.50384,7.38248 -1.50384,7.38248 l -1.50383,1.91397"
         style="fill:none;stroke:#000000;stroke-width:0.54135382px;stroke-linecap:butt;stroke-linejoin:miter;stroke-opacity:1" />
      <path
         inkscape:connector-curvature="0"
         id="path8999-3-65"
         d="m 381.8231,583.27628 -0.54685,-6.83563 -1.23041,-7.65589 -2.05069,-5.60522 -3.55453,-4.64822 -3.55452,-4.10138 -4.3748,-2.73425 -6.28878,-1.91397 -4.51151,-1.23041 -5.33179,0.68356 -3.96466,2.05069"
         style="fill:none;stroke:#000000;stroke-width:0.54135382px;stroke-linecap:butt;stroke-linejoin:miter;stroke-opacity:1" />
      <path
         inkscape:connector-curvature="0"
         id="path9001-8-0"
         d="m 396.17791,557.71104 60.42692,-14.35481"
         style="fill:none;stroke:#000000;stroke-width:0.54135382px;stroke-linecap:butt;stroke-linejoin:miter;stroke-opacity:1" />
      <path
         inkscape:connector-curvature="0"
         id="path9003-8-2"
         d="M 393.99051,560.44529 454.96428,546.2272"
         style="fill:none;stroke:#000000;stroke-width:0.54135382px;stroke-linecap:butt;stroke-linejoin:miter;stroke-opacity:1" />
      <path
         inkscape:connector-curvature="0"
         id="path9005-7-8"
         d="m 457.2884,543.21952 42.10744,-10.11673"
         style="fill:none;stroke:#000000;stroke-width:0.54135382px;stroke-linecap:butt;stroke-linejoin:miter;stroke-opacity:1" />
      <path
         inkscape:connector-curvature="0"
         id="path9007-9-6"
         d="m 456.60483,545.27021 42.38088,-9.98002"
         style="fill:none;stroke:#000000;stroke-width:0.54135382px;stroke-linecap:butt;stroke-linejoin:miter;stroke-opacity:1" />
      <path
         inkscape:connector-curvature="0"
         id="path9009-1-0"
         d="m 394.81079,547.32089 61.11048,-11.89398"
         style="fill:none;stroke:#000000;stroke-width:0.54135382px;stroke-linecap:butt;stroke-linejoin:miter;stroke-opacity:1" />
      <path
         inkscape:connector-curvature="0"
         id="path9011-3-24"
         d="m 387.56502,549.50829 4.78494,-1.23041"
         style="fill:none;stroke:#000000;stroke-width:0.54135382px;stroke-linecap:butt;stroke-linejoin:miter;stroke-opacity:1" />
      <path
         inkscape:connector-curvature="0"
         id="path9013-6-86"
         d="m 457.56182,534.88006 42.38087,-9.15974 2.73425,0 1.36713,-0.54685"
         style="fill:none;stroke:#000000;stroke-width:0.54135382px;stroke-linecap:butt;stroke-linejoin:miter;stroke-opacity:1" />
      <path
         inkscape:connector-curvature="0"
         id="path9015-3-50"
         d="m 487.09172,553.47296 4.10137,-1.77727 1.91398,-3.82795 4.92165,-9.98001 4.64822,-7.38247 1.0937,-3.82795 2.46083,-5.19508 4.92164,-5.46849 4.64823,-1.64056 3.14439,0.41014 1.23041,2.1874 1.91397,6.01535 0.27343,7.6559 -0.54685,6.15206 -1.64055,3.82795 -0.95699,-6.83562 -1.36712,-4.23809 -3.69124,-3.96466 -3.82795,-2.73425 -4.10137,0.27342 -0.27343,0 0.13671,-0.82027"
         style="fill:none;stroke:#000000;stroke-width:0.54135382px;stroke-linecap:butt;stroke-linejoin:miter;stroke-opacity:1" />
      <path
         inkscape:connector-curvature="0"
         id="path9017-3-9"
         d="m 521.40655,519.84169 1.23041,-0.82028 3.41782,-1.23042 4.10137,-1.36712 0,-0.82028"
         style="fill:none;stroke:#000000;stroke-width:0.54135382px;stroke-linecap:butt;stroke-linejoin:miter;stroke-opacity:1" />
      <path
         inkscape:connector-curvature="0"
         id="path9019-4-0"
         d="m 524.68765,526.26717 7.92933,-2.46082 0.27342,0"
         style="fill:none;stroke:#000000;stroke-width:0.54135382px;stroke-linecap:butt;stroke-linejoin:miter;stroke-opacity:1" />
      <path
         inkscape:connector-curvature="0"
         id="path9021-7-0"
         d="m 523.59395,528.04443 2.05069,0 6.28878,-2.32411 0.54684,0"
         style="fill:none;stroke:#000000;stroke-width:0.54135382px;stroke-linecap:butt;stroke-linejoin:miter;stroke-opacity:1" />
      <path
         inkscape:connector-curvature="0"
         id="path9023-7-61"
         d="M 458.65552,507.26414 530.703,497.0107"
         style="fill:none;stroke:#000000;stroke-width:0.54135382px;stroke-linecap:butt;stroke-linejoin:miter;stroke-opacity:1" />
      <path
         inkscape:connector-curvature="0"
         id="path9025-2-38"
         d="m 456.87826,507.40084 -62.61433,9.56988"
         style="fill:none;stroke:#000000;stroke-width:0.54135382px;stroke-linecap:butt;stroke-linejoin:miter;stroke-opacity:1" />
      <path
         inkscape:connector-curvature="0"
         id="path9027-6-9"
         d="m 392.7601,517.92771 -63.02446,11.62056 -7.6559,0.68356"
         style="fill:none;stroke:#000000;stroke-width:0.54135382px;stroke-linecap:butt;stroke-linejoin:miter;stroke-opacity:1" />
      <path
         inkscape:connector-curvature="0"
         id="path9029-4-3"
         d="m 505.68462,573.15956 -3.41782,-1.09371 -2.46082,-5.87863 c 0,0 -0.95699,-9.70659 -0.95699,-10.25344 0,-0.54685 0.13672,-7.51918 0.13672,-7.51918 l 2.05068,-8.47618 3.00768,-6.15206 2.46082,-3.82795 3.55453,-3.2811 2.05068,-0.95699 2.05069,0.13671"
         style="fill:none;stroke:#000000;stroke-width:0.54135382px;stroke-linecap:butt;stroke-linejoin:miter;stroke-opacity:1" />
      <path
         inkscape:connector-curvature="0"
         id="path9031-6-4"
         d="m 220.09222,525.4469 -23.65126,-7.10905 23.51455,6.97233"
         style="fill:none;stroke:#000000;stroke-width:0.54135382px;stroke-linecap:butt;stroke-linejoin:miter;stroke-opacity:1" />
      <path
         inkscape:connector-curvature="0"
         id="path9033-1-4"
         d="m 196.30425,520.93538 22.96769,6.42549"
         style="fill:none;stroke:#000000;stroke-width:0.54135382px;stroke-linecap:butt;stroke-linejoin:miter;stroke-opacity:1" />
      <path
         inkscape:connector-curvature="0"
         id="path9035-6-6"
         d="m 195.48397,522.30251 23.24113,6.97234"
         style="fill:none;stroke:#000000;stroke-width:0.54135382px;stroke-linecap:butt;stroke-linejoin:miter;stroke-opacity:1" />
      <path
         inkscape:connector-curvature="0"
         id="path9037-2-0"
         d="m 224.74045,525.99375 31.71729,6.83562"
         style="fill:none;stroke:#000000;stroke-width:0.54135382px;stroke-linecap:butt;stroke-linejoin:miter;stroke-opacity:1" />
      <path
         inkscape:connector-curvature="0"
         id="path9039-8-6"
         d="m 223.23661,528.04443 32.12743,6.83563"
         style="fill:none;stroke:#000000;stroke-width:0.54135382px;stroke-linecap:butt;stroke-linejoin:miter;stroke-opacity:1" />
      <path
         inkscape:connector-curvature="0"
         id="path9041-5-6"
         d="m 223.23661,530.77869 31.85401,6.15205"
         style="fill:none;stroke:#000000;stroke-width:0.54135382px;stroke-linecap:butt;stroke-linejoin:miter;stroke-opacity:1" />
      <path
         inkscape:connector-curvature="0"
         id="path9043-2-1"
         d="m 194.6637,528.45457 23.37783,7.24576"
         style="fill:none;stroke:#000000;stroke-width:0.54135382px;stroke-linecap:butt;stroke-linejoin:miter;stroke-opacity:1" />
      <path
         inkscape:connector-curvature="0"
         id="path9045-4-8"
         d="m 194.6637,530.64197 23.24112,6.97234"
         style="fill:none;stroke:#000000;stroke-width:0.54135382px;stroke-linecap:butt;stroke-linejoin:miter;stroke-opacity:1" />
      <path
         inkscape:connector-curvature="0"
         id="path9047-6-49"
         d="m 195.21055,532.41923 22.96769,7.10905"
         style="fill:none;stroke:#000000;stroke-width:0.54135382px;stroke-linecap:butt;stroke-linejoin:miter;stroke-opacity:1" />
      <path
         inkscape:connector-curvature="0"
         id="path9049-4-63"
         d="m 221.86948,536.11047 31.17045,6.83562"
         style="fill:none;stroke:#000000;stroke-width:0.54135382px;stroke-linecap:butt;stroke-linejoin:miter;stroke-opacity:1" />
      <path
         inkscape:connector-curvature="0"
         id="path9051-1-7"
         d="m 221.32263,538.02445 31.17045,7.38247"
         style="fill:none;stroke:#000000;stroke-width:0.54135382px;stroke-linecap:butt;stroke-linejoin:miter;stroke-opacity:1" />
      <path
         inkscape:connector-curvature="0"
         id="path9053-4-88"
         d="m 221.59606,540.7587 29.5299,7.10904"
         style="fill:none;stroke:#000000;stroke-width:0.54135382px;stroke-linecap:butt;stroke-linejoin:miter;stroke-opacity:1" />
      <path
         inkscape:connector-curvature="0"
         id="path9055-6-2"
         d="m 390.84612,576.85079 56.94076,-15.10673 1.50383,-0.54685 1.0937,-1.91397 0.27343,-0.95699"
         style="fill:none;stroke:#000000;stroke-width:0.54135382px;stroke-linecap:butt;stroke-linejoin:miter;stroke-opacity:1" />
      <path
         inkscape:connector-curvature="0"
         id="path9057-6-91"
         d="m 343.88538,427.0139 4.3748,0.20507 4.78494,-0.20507 2.59753,0 0.68357,-0.54685"
         style="fill:none;stroke:#000000;stroke-width:0.54135382px;stroke-linecap:butt;stroke-linejoin:miter;stroke-opacity:1" />
      <path
         inkscape:connector-curvature="0"
         id="path9059-6-3"
         d="m 193.12864,536.78134 3.19012,1.45006 21.07413,6.96026 16.24062,4.44683 13.53385,3.28679 5.12352,0.96671 1.83674,-0.96671"
         style="fill:none;stroke:#000000;stroke-width:0.54135382px;stroke-linecap:butt;stroke-linejoin:miter;stroke-opacity:1" />
      <path
         inkscape:connector-curvature="0"
         id="path9061-9-5"
         d="m 428.85219,491.13206 19.00304,-1.64055 1.0937,-0.68356 0,-3.41782 -0.82027,-9.29644 -2.05069,-11.89399 -2.59754,-10.80029 -2.05069,-8.61288 -1.09369,-0.54685 -1.64055,-0.41014 c 0,0 -14.49153,-0.27343 -14.49153,0.27342 0,0.54685 -4.10138,0.54685 -4.10138,0.54685 l -2.59753,2.87096 -14.90166,32.94771 -2.73425,7.51919 0,1.64055"
         style="fill:none;stroke:#000000;stroke-width:0.54135382px;stroke-linecap:butt;stroke-linejoin:miter;stroke-opacity:1" />
      <path
         inkscape:connector-curvature="0"
         id="path9063-6-9"
         d="m 317.83337,602.42049 -7.15361,1.6434 -9.18368,1.45005 -8.21698,0 -9.37702,-1.45005 -13.63052,-2.6101 -17.88401,-5.2202 -9.66703,-3.09345 -13.72719,-4.2535 -12.76048,-5.5102 -15.75727,-5.99357"
         style="fill:none;stroke:#000000;stroke-width:0.54135382px;stroke-linecap:butt;stroke-linejoin:miter;stroke-opacity:1" />
      <path
         inkscape:connector-curvature="0"
         id="path9065-5-8"
         d="m 362.39839,586.85657 1.25671,-1.25671 -0.19334,-1.16005 -1.16004,-1.35338 -1.16005,0.9667 0.0967,1.93341 0.48336,1.45005 z"
         style="fill:none;stroke:#000000;stroke-width:0.54135382px;stroke-linecap:butt;stroke-linejoin:miter;stroke-opacity:1" />
      <path
         inkscape:connector-curvature="0"
         id="path9067-8-4"
         d="m 364.23513,591.88343 1.45005,-0.96671 0,-2.61009 -1.83674,1.45005 -0.29001,1.35339 z"
         style="fill:none;stroke:#000000;stroke-width:0.54135382px;stroke-linecap:butt;stroke-linejoin:miter;stroke-opacity:1" />
      <path
         inkscape:connector-curvature="0"
         id="path9069-5-0"
         d="m 361.91503,599.1337 0.87004,-1.9334 -1.16004,-1.06338 -0.87004,1.16005 -0.58002,1.74006 c 0,0 0.38668,0.19334 0.67669,0.58002 0.29001,0.38668 1.45006,0 1.45006,0 z"
         style="fill:none;stroke:#000000;stroke-width:0.54135382px;stroke-linecap:butt;stroke-linejoin:miter;stroke-opacity:1" />
      <path
         inkscape:connector-curvature="0"
         id="path9071-8-7"
         d="m 356.98485,598.07033 1.06338,-1.54673 -0.38669,-0.87003 -1.35338,0.0967 -1.06338,1.9334 0.67669,1.45006 z"
         style="fill:none;stroke:#000000;stroke-width:0.54135382px;stroke-linecap:butt;stroke-linejoin:miter;stroke-opacity:1" />
      <path
         inkscape:connector-curvature="0"
         id="path9073-1-6"
         d="m 357.75821,590.72338 0.77336,-1.54672 0,-1.25672 -0.87003,-0.67669 -1.25671,1.06338 -0.29001,1.64339 0,1.16005 z"
         style="fill:none;stroke:#000000;stroke-width:0.54135382px;stroke-linecap:butt;stroke-linejoin:miter;stroke-opacity:1" />
      <path
         inkscape:connector-curvature="0"
         id="path9075-1-3"
         d="m 351.57131,627.45811 -4.25349,-0.38668 -4.83352,-2.32009 -3.67347,-4.83352 -2.80344,-9.08701 -1.16005,-11.31043 1.16005,-11.4071 4.15682,-11.31042 4.35017,-8.60366 5.89689,-6.76693 6.28357,-4.5435 6.96026,-1.83674 6.09023,0.29001 2.90011,1.25672"
         style="fill:none;stroke:#000000;stroke-width:0.54135382px;stroke-linecap:butt;stroke-linejoin:miter;stroke-opacity:1" />
      <path
         inkscape:connector-curvature="0"
         id="path9077-2-6"
         d="m 357.95155,486.7061 -0.19334,-2.61009 -0.67669,-1.16005 -15.85393,-7.92696 -5.89689,-2.90011 -2.03008,-1.06338 -1.16005,-2.41675 -2.03007,-0.77337 -4.44684,-0.58002 -3.19012,0 -7.8303,-0.48335 -7.25027,0 -1.16004,0 -1.83674,0.29001 0,0.29001 2.32009,0.9667"
         style="fill:none;stroke:#000000;stroke-width:0.54135382px;stroke-linecap:butt;stroke-linejoin:miter;stroke-opacity:1" />
      <path
         inkscape:connector-curvature="0"
         id="path9079-7-1"
         d="m 324.2136,467.85539 0.29002,1.06338 4.35016,0.0967 1.93341,0.19334 1.45005,2.70677 3.86682,1.9334 13.43717,8.70033 4.83352,3.77015 0.58002,1.16004 1.45006,0.67669 1.06337,-0.38668 0.58003,-0.9667 0.19333,-0.0967"
         style="fill:none;stroke:#000000;stroke-width:0.54135382px;stroke-linecap:butt;stroke-linejoin:miter;stroke-opacity:1" />
      <path
         inkscape:connector-curvature="0"
         id="path9081-7-5"
         d="m 297.04924,479.45583 0.38669,-1.54673 -0.96671,-0.77336 -0.29001,-1.45005 -2.12675,-1.74006 -7.54028,-4.54351 -5.60688,-2.99678 -0.38668,-0.38668 -0.29002,-1.93341 -0.58001,-0.9667 -0.87004,0.58002 0.29001,2.70677 2.41676,1.83673 4.06015,2.22342 5.31687,4.64018 2.32009,1.9334 0.6767,1.6434 0.58001,1.06337 1.35339,0 z"
         style="fill:none;stroke:#000000;stroke-width:0.54135382px;stroke-linecap:butt;stroke-linejoin:miter;stroke-opacity:1" />
      <path
         inkscape:connector-curvature="0"
         id="path9083-1-4"
         d="m 271.4316,463.11855 7.54029,0.9667 2.90011,1.35338 5.41354,2.12675 0.87003,0.96671"
         style="fill:none;stroke:#000000;stroke-width:0.54135382px;stroke-linecap:butt;stroke-linejoin:miter;stroke-opacity:1" />
      <path
         inkscape:connector-curvature="0"
         id="path9085-4-2"
         d="m 271.23826,463.98858 7.54029,0.67669"
         style="fill:none;stroke:#000000;stroke-width:0.54135382px;stroke-linecap:butt;stroke-linejoin:miter;stroke-opacity:1" />
      <path
         inkscape:connector-curvature="0"
         id="path9087-1-09"
         d="m 306.03959,467.95206 17.98068,1.54673 7.92696,1.16004 7.73363,1.6434 4.93019,1.35338 2.70677,-0.38668 3.77014,1.6434 0.38668,-0.58003 -6.28357,-2.12674 -12.27714,-3.28679"
         style="fill:none;stroke:#000000;stroke-width:0.54135382px;stroke-linecap:butt;stroke-linejoin:miter;stroke-opacity:1" />
      <path
         inkscape:connector-curvature="0"
         id="path9089-7-73"
         d="m 287.69655,468.30108 -7.17741,-2.59754 -2.66589,-0.82028 -6.42549,-1.57219"
         style="fill:none;stroke:#000000;stroke-width:0.54135382px;stroke-linecap:butt;stroke-linejoin:miter;stroke-opacity:1" />
    </g>
  </g>
</svg>
